<svg xmlns="http://www.w3.org/2000/svg" width="67" height="9" fill="#fff"  xmlns:v="https://vecta.io/nano"><path d="M2.223 2.329h2.394l.128-1.179-3.771-.011L0 8.375h1.378l.459-3.216h2.405l.16-1.191H1.999l.224-1.639zm7.256-.009l.16-1.181-4.148.011-.95 7.254 4.102-.011c0-.08.14-1.149.14-1.149H6.039l.278-2.075h2.756l.171-1.211H6.508l.224-1.638H9.48zm11.236 0l.162-1.181-4.147.011-.951 7.254 4.103-.011c0-.08.14-1.149.14-1.149h-2.748l.279-2.075h2.757l.171-1.211h-2.736l.224-1.638h2.746zm-8.053 4.916l-1.579.027-.002.015-.051-.002.642-4.94 1.018-.017s1.456 0 1.876 1.627l.007.03c.41 1.657-.797 3.124-1.91 3.26zm-.333-6.076l-1.864-.008-.942 7.253h1.36l.001-.004.09-.002c.235.021 1.821.143 2.859-.384 0 0 2.102-.752 2.082-3.759 0 0-.123-2.761-3.585-3.096zm10.392 3.171l.262-2.019s1.356-.216 1.533.506c0 0 .311 1.341-1.101 1.519l-.694-.006zm3.135-1.174s.033-1.89-2.115-1.998h-2.002l-.953 7.254h1.404l.389-2.992.185.011.001-.001L24.5 8.413h1.437l-1.761-3.119s1.536-.246 1.681-2.137zm3.461 2.531l1.112-1.852.538 1.862-1.651-.01zm-3.213 2.71h1.584l.927-1.542h2.687l.449 1.554h1.442L30.799.853l-4.695 7.544zm9.687-7.25l-1.334.011-.976 7.228h3.753l.143-1.147h-2.325l.739-6.091zm12.9 4.54l1.112-1.852.537 1.862-1.65-.01zm-3.212 2.71h1.583l.927-1.542h2.687l.45 1.554h1.442L50.172.853l-4.693 7.544zm-1.352-1.427s-.36.461-1.745.303l-.04.004.286-2.096c.231-.016.774-.042.959.061 0 0 1.356.291.541 1.727zM43.02 2.316l.027-.118s.845-.052 1.15.382c0 0 .595 1.016-.678 1.491l-.742.037.244-1.792zm1.717 2.307s1.12-.83.829-1.923c0 0-.137-1.397-2.035-1.543h-1.827l-.942 7.251h1.426l.003-.021.691.034s1.84 0 2.465-.91c0 0 1.218-1.595-.609-2.888zm14.647-3.479l-.594 4.457L54.053.828l-.94 7.567h1.328l.651-4.904L59.787 8.5l1.025-7.356h-1.427zM67 1.157h-1.578l-2.66 2.533.333-2.533-1.427-.013-.955 7.264h1.427l.379-2.883.225-.219 2.469 3.075h1.621l-3.062-4.078L67 1.157z"/></svg>