<svg width="68" height="28" viewBox="0 0 68 28" fill="none" xmlns="http://www.w3.org/2000/svg">
<g clip-path="url(#clip0_2533_10716)">
<path d="M67.9424 3.75H0.0361328V20.447H67.9424V3.75Z" fill="#004E96"/>
<path d="M67.9424 18.7773H0.0361328V20.4467H67.9424V18.7773Z" fill="#FAA61A"/>
<path d="M8.20175 7.54778L8.08439 8.768H5.89202L5.68688 10.4625H7.88813L7.74118 11.6944H5.53895L5.11882 15.0204H3.85547L4.74701 7.53711L8.20175 7.54778Z" fill="white"/>
<path d="M8.84438 7.5507L7.98242 14.9904C7.98242 14.9904 11.7084 15.0641 11.7084 14.9797C11.7084 14.8953 11.8356 13.8012 11.8356 13.8012H9.34144L9.59292 11.6721H12.0969L12.2518 10.4296H9.76748L9.97064 8.74958H12.4658L12.6108 7.53906L8.84339 7.54973L8.84438 7.5507Z" fill="white"/>
<path d="M19.0505 7.5507L18.1865 14.9904C18.1865 14.9904 21.9125 15.0641 21.9125 14.9797C21.9125 14.8953 22.0397 13.8012 22.0397 13.8012H19.5445L19.798 11.6721H22.302L22.4569 10.4296H19.9726L20.1757 8.74958H22.6699L22.8168 7.53906L19.0514 7.54973L19.0505 7.5507Z" fill="white"/>
<path d="M15.0523 7.57026L13.359 7.5625L12.5039 15.0012H13.7396V14.9954C14.004 15.0206 15.4912 15.1331 16.4182 14.6016C16.4182 14.6016 18.3275 13.8304 18.3088 10.7469C18.3088 10.7469 18.1974 7.91557 15.0533 7.57123L15.0523 7.57026ZM15.3551 13.8023C15.3551 13.8023 14.1874 13.877 13.8728 13.8382L14.4556 8.77787L15.3797 8.76041C15.3797 8.76041 16.7023 8.76041 17.0829 10.4288C17.0849 10.4385 17.0879 10.4501 17.0889 10.4598C17.4607 12.1601 16.365 13.6636 15.3541 13.8023H15.3551Z" fill="white"/>
<path d="M27.411 15.0207L25.8124 11.8208C25.8124 11.8208 27.2069 11.5686 27.339 9.62962C27.339 9.62962 27.3676 7.69065 25.4179 7.58008H23.5993L22.7344 15.0207H24.0096L24.3626 11.9517L24.5303 11.9624L26.1053 15.0207H27.4101H27.411ZM24.7295 8.76247C24.7295 8.76247 25.9603 8.54132 26.1211 9.28237C26.1211 9.28237 26.4031 10.6578 25.121 10.8401L24.4908 10.8343L24.7285 8.76344L24.7295 8.76247Z" fill="white"/>
<path d="M32.6938 15.0204H34.0035L31.8042 7.5293L27.5645 15.0077H29.0034L29.8456 13.4257H32.2865L32.6948 15.0204H32.6938ZM30.4817 12.2278L31.4916 10.3296L31.9808 12.2385L30.4817 12.2278Z" fill="white"/>
<path d="M49.6723 15.0204H50.982L48.7827 7.5293L44.543 15.0077H45.9819L46.8241 13.4257H49.265L49.6733 15.0204H49.6723ZM47.4602 12.2278L48.4701 10.3296L48.9593 12.2385L47.4602 12.2278Z" fill="white"/>
<path d="M35.1503 7.6093L34.2637 15.0208H37.6721L37.8012 13.8452H35.6898L36.3614 7.59766L35.1503 7.6093Z" fill="white"/>
<path d="M43.8693 11.1272C43.8693 11.1272 44.8871 10.2756 44.6228 9.15428C44.6228 9.15428 44.4976 7.72164 42.7746 7.57227H41.1148L40.2598 15.009H41.5547C41.5547 15.009 41.7628 15.0051 42.1849 15.009C42.1849 15.009 43.8565 15.0226 44.4236 14.0895C44.4236 14.0895 45.5291 12.4541 43.8703 11.1282L43.8693 11.1272ZM42.3348 8.63923C42.3348 8.63923 43.1011 8.58491 43.3792 9.0311C43.3792 9.0311 43.9196 10.0728 42.7628 10.5588L42.0882 10.5976L42.3101 8.76048L42.3348 8.63923ZM43.3161 13.5337C43.3161 13.5337 42.9886 14.007 41.7322 13.845L41.6957 13.8489L41.9561 11.6995C42.1661 11.683 42.6592 11.6568 42.8269 11.7616C42.8269 11.7616 44.0587 12.0593 43.3171 13.5327L43.3161 13.5337Z" fill="white"/>
<path d="M52.5459 7.50781L51.4512 15.0105H52.6632L53.3181 10.1694L57.4326 14.9804L58.4731 7.54176H57.1713L56.6387 12.0133L52.5459 7.50781Z" fill="white"/>
<path d="M64.1227 7.54092H62.6808L60.2517 10.153L60.5565 7.54092L59.2527 7.52734L58.3799 15.0213H59.6837L60.0308 12.0474L60.236 11.8214L62.4914 14.9932H63.9718L61.1748 10.7874L64.1227 7.54092Z" fill="white"/>
<path d="M1.01581 23.2845C0.896476 23.0876 0.750515 22.8567 0.577926 22.5909L0.326439 22.2136C0.209079 22.04 0.128209 21.9236 0.0858013 21.8605C0.0414213 21.7994 0.0128209 21.7606 0 21.7471C0.0719942 21.7548 0.154837 21.7587 0.248528 21.7587C0.342219 21.7587 0.425062 21.7558 0.497056 21.7471C0.522698 21.8169 0.551298 21.8819 0.583843 21.9449C0.615402 22.007 0.667672 22.0963 0.73868 22.2136L0.888586 22.4687C1.02173 22.6879 1.14007 22.8771 1.24461 23.0352V23.0323C1.34225 22.8829 1.4527 22.7054 1.57204 22.5007L1.74167 22.2126C1.8038 22.1098 1.85212 22.0254 1.8827 21.9634C1.91228 21.9013 1.94384 21.8285 1.97343 21.7461C2.02669 21.7539 2.08586 21.7577 2.15194 21.7577C2.21801 21.7577 2.27719 21.7548 2.32847 21.7461C2.31466 21.7597 2.28803 21.7985 2.24267 21.8596C2.19927 21.9226 2.11939 22.039 2.00203 22.2126L1.7683 22.5618C1.60951 22.8053 1.47342 23.0197 1.35901 23.2059V23.4203C1.35901 23.7112 1.36 23.9198 1.36493 24.043C1.36888 24.1662 1.37578 24.2699 1.38959 24.3534C1.32943 24.3456 1.26138 24.3417 1.18741 24.3417C1.11344 24.3417 1.04441 24.3456 0.985236 24.3534C0.99707 24.2699 1.00397 24.1671 1.00989 24.043C1.01285 23.9198 1.01581 23.7103 1.01581 23.4203V23.2835V23.2845Z" fill="white"/>
<path d="M4.14829 24.3938C4.60195 24.3938 4.96981 24.2658 5.25088 24.0088C5.53393 23.7537 5.67397 23.4181 5.67397 23.0048C5.67397 22.6188 5.53787 22.3074 5.26469 22.0659C4.99151 21.8263 4.63351 21.707 4.19168 21.707C3.74985 21.707 3.37213 21.836 3.09106 22.0911C2.80998 22.3492 2.66797 22.6828 2.66797 23.0951C2.66797 23.4811 2.80505 23.7954 3.07824 24.034C3.35241 24.2736 3.70942 24.3938 4.14829 24.3938ZM4.16998 24.2289C3.84256 24.2289 3.58022 24.1252 3.38298 23.9166C3.18574 23.7071 3.08711 23.4297 3.08711 23.0815C3.08711 22.7148 3.18672 22.4219 3.38298 22.2007C3.58022 21.9806 3.84256 21.87 4.16998 21.87C4.49741 21.87 4.76369 21.9747 4.96093 22.1833C5.15621 22.3918 5.25582 22.6702 5.25582 23.0194C5.25582 23.386 5.15621 23.6799 4.96093 23.9001C4.76369 24.1203 4.50037 24.2299 4.16998 24.2299" fill="white"/>
<path d="M8.67022 23.2146C8.67022 23.6007 8.57061 23.8926 8.37534 24.0934C8.17908 24.2942 7.8911 24.3941 7.51239 24.3941C7.13368 24.3941 6.84275 24.3087 6.65734 24.1371C6.47193 23.9654 6.38021 23.7015 6.37824 23.3436V23.0759L6.37134 22.2117C6.36838 22.0594 6.36542 21.9527 6.36147 21.8896C6.35851 21.8276 6.35457 21.78 6.34668 21.7471C6.40881 21.7548 6.47883 21.7587 6.55576 21.7587C6.63268 21.7587 6.70271 21.7548 6.76385 21.7471C6.75695 21.782 6.75004 21.8305 6.74709 21.8926C6.74314 21.9537 6.7392 22.0613 6.73328 22.2117C6.72539 22.4668 6.72144 22.7549 6.72144 23.073V23.2272C6.72243 23.5551 6.79344 23.8005 6.93348 23.9576C7.07254 24.1167 7.28655 24.1953 7.57453 24.1953C7.8773 24.1953 8.09821 24.1109 8.23825 23.944C8.3783 23.7772 8.44635 23.5105 8.44536 23.1487V23.0749L8.43944 22.2117C8.43846 22.0545 8.4355 21.944 8.43353 21.8819C8.43254 21.8198 8.42958 21.7742 8.42662 21.7461C8.47002 21.7539 8.51735 21.7577 8.57061 21.7577C8.62387 21.7577 8.67416 21.7539 8.71558 21.7461C8.70572 21.7888 8.69882 21.8421 8.69487 21.9042C8.68896 21.9672 8.68403 22.0701 8.67909 22.2117C8.67219 22.4668 8.66825 22.7549 8.66825 23.074V23.2146H8.67022Z" fill="white"/>
<path d="M9.51967 24.2244C9.51572 24.2874 9.51178 24.3311 9.50586 24.3544C9.56701 24.3476 9.63505 24.3437 9.71297 24.3437C9.79088 24.3437 9.85794 24.3476 9.9181 24.3544C9.91416 24.3301 9.90824 24.2865 9.90627 24.2244C9.90331 24.1623 9.89936 24.0508 9.89443 23.8888C9.89049 23.6482 9.88753 23.3766 9.88753 23.0759H10.0197C10.1587 23.2292 10.3146 23.4096 10.4891 23.6172L10.715 23.8888C10.8225 24.0129 10.8994 24.107 10.9477 24.1691C10.9951 24.2312 11.0365 24.2923 11.07 24.3544C11.143 24.3476 11.2288 24.3437 11.3225 24.3437C11.4162 24.3437 11.502 24.3476 11.575 24.3544C11.5582 24.3417 11.5237 24.3039 11.4665 24.2418C11.4093 24.1788 11.3057 24.0624 11.1528 23.8888L10.9339 23.6366C10.7436 23.4154 10.5808 23.2224 10.4447 23.0527C10.639 23.0216 10.8077 22.9644 10.9487 22.88C11.1676 22.7481 11.2781 22.5754 11.2781 22.363C11.2781 22.1506 11.2031 22.0041 11.0552 21.9013C10.9073 21.7985 10.6844 21.748 10.3866 21.748C10.3392 21.748 10.285 21.748 10.2238 21.751C10.1637 21.7519 10.0956 21.7548 10.0217 21.7607C9.9753 21.7616 9.90922 21.7616 9.82441 21.7607C9.73861 21.7597 9.63407 21.7548 9.50882 21.749C9.51474 21.7733 9.51868 21.815 9.52065 21.8771C9.52361 21.9401 9.52756 22.0526 9.53249 22.2146C9.53643 22.4619 9.53939 22.7413 9.53939 23.0536C9.53939 23.366 9.53643 23.6395 9.53249 23.8897C9.52657 24.0527 9.5246 24.1642 9.52164 24.2263M9.88457 21.9372C9.98615 21.9304 10.0996 21.9256 10.2219 21.9236C10.4339 21.9236 10.5956 21.9634 10.7081 22.0419C10.8205 22.1205 10.8767 22.234 10.8767 22.3824C10.8767 22.5415 10.8037 22.6705 10.6568 22.7646C10.5098 22.8606 10.3146 22.9072 10.07 22.9072C10.0059 22.9062 9.94374 22.9081 9.88457 22.913V21.9372Z" fill="white"/>
<path d="M13.2609 24.2234C13.2569 24.2864 13.253 24.3301 13.249 24.3553C13.3092 24.3475 13.3782 24.3437 13.4542 24.3437C13.5301 24.3437 13.6001 24.3475 13.6613 24.3553C13.6553 24.332 13.6514 24.2893 13.6494 24.2263C13.6465 24.1642 13.6415 24.0517 13.6376 23.8897C13.6307 23.6676 13.6277 23.4193 13.6297 23.1448H13.6258C13.7303 23.1593 13.8477 23.1652 13.9788 23.1622C14.3171 23.1622 14.5794 23.0963 14.7648 22.9634C14.9512 22.8315 15.043 22.6443 15.043 22.4028C15.043 22.1797 14.9641 22.0148 14.8082 21.9071C14.6504 21.7994 14.4098 21.7461 14.0834 21.7461C14.0331 21.7461 13.9778 21.7471 13.9187 21.749C13.8585 21.75 13.7934 21.7529 13.7224 21.7577C13.6682 21.7606 13.6011 21.7616 13.5222 21.7616C13.4433 21.7616 13.3526 21.7606 13.249 21.7577C13.253 21.783 13.2569 21.8256 13.2609 21.8887C13.2638 21.9498 13.2678 22.0623 13.2727 22.2233C13.2766 22.4716 13.2796 22.7481 13.2786 23.0526C13.2786 23.3601 13.2776 23.6385 13.2727 23.8888C13.2668 24.0498 13.2628 24.1613 13.2609 24.2234ZM13.6238 21.9488C13.7273 21.9391 13.8427 21.9333 13.9719 21.9333C14.1919 21.9333 14.3595 21.975 14.4719 22.0565C14.5844 22.1389 14.6416 22.2611 14.6416 22.4231C14.6416 22.5938 14.5735 22.7296 14.4374 22.8325C14.3003 22.9343 14.1189 22.9857 13.8911 22.9857C13.7964 22.9857 13.7066 22.9828 13.6238 22.9741V21.9488Z" fill="white"/>
<path d="M15.5107 24.3717C15.5167 24.3474 15.5206 24.3038 15.5226 24.2417C15.5255 24.1786 15.5295 24.0681 15.5344 23.9061C15.5384 23.6529 15.5403 23.3668 15.5403 23.0496C15.5403 22.7324 15.5393 22.4463 15.5344 22.195C15.5285 22.035 15.5245 21.9225 15.5226 21.8604C15.5196 21.7993 15.5157 21.7556 15.5107 21.7304C15.5581 21.7392 15.637 21.7459 15.7474 21.7518C15.8589 21.7566 15.9703 21.7595 16.0828 21.7595H16.3885C16.5108 21.7595 16.6212 21.7566 16.7179 21.7518C16.8155 21.7459 16.9003 21.7372 16.9704 21.7246C16.9625 21.7634 16.9585 21.808 16.9585 21.8556C16.9585 21.9031 16.9625 21.9467 16.9704 21.9855C16.924 21.9758 16.8441 21.9671 16.7268 21.9603C16.6114 21.9555 16.4979 21.9506 16.3885 21.9506H16.2455C16.1222 21.9496 16.0058 21.9516 15.8973 21.9564L15.8865 22.9031H16.2445C16.3628 22.9021 16.4851 22.8992 16.6104 22.8925C16.7337 22.8857 16.8214 22.8779 16.8668 22.8682C16.8589 22.906 16.8559 22.9497 16.8559 22.9982C16.8559 23.0467 16.8589 23.0894 16.8668 23.1272C16.8204 23.1175 16.7337 23.1107 16.6104 23.1029C16.4851 23.0981 16.3628 23.0932 16.2445 23.0932H15.8885C15.8875 23.4967 15.8895 23.8488 15.8983 24.1466L16.1705 24.1505H16.3066C16.4289 24.1505 16.5581 24.1466 16.6903 24.1389C16.8254 24.1311 16.9171 24.1214 16.9713 24.1117C16.9634 24.1505 16.9595 24.1951 16.9595 24.2465C16.9595 24.295 16.9634 24.3387 16.9713 24.3775C16.9141 24.3678 16.8283 24.361 16.712 24.3532C16.5946 24.3464 16.4881 24.3435 16.3895 24.3435H16.0837C15.9802 24.3435 15.8727 24.3464 15.7612 24.3513C15.6508 24.3571 15.5679 24.3629 15.5107 24.3717Z" fill="white"/>
<path d="M17.6905 24.2244C17.6866 24.2874 17.6827 24.3311 17.6787 24.3544C17.7389 24.3476 17.8079 24.3437 17.8838 24.3437C17.9598 24.3437 18.0288 24.3476 18.091 24.3544C18.085 24.3301 18.0811 24.2865 18.0791 24.2244C18.0752 24.1623 18.0712 24.0508 18.0673 23.8888C18.0614 23.6482 18.0594 23.3766 18.0594 23.0759H18.1915C18.3316 23.2292 18.4864 23.4096 18.662 23.6172L18.8878 23.8888C18.9953 24.0129 19.0722 24.107 19.1186 24.1691C19.1659 24.2312 19.2064 24.2923 19.2409 24.3544C19.3158 24.3476 19.3997 24.3437 19.4953 24.3437C19.591 24.3437 19.6738 24.3476 19.7478 24.3544C19.731 24.3417 19.6945 24.3039 19.6393 24.2418C19.5821 24.1788 19.4776 24.0624 19.3237 23.8888L19.1048 23.6366C18.9144 23.4154 18.7517 23.2224 18.6156 23.0527C18.8119 23.0216 18.9786 22.9644 19.1196 22.88C19.3395 22.7481 19.449 22.5754 19.449 22.363C19.449 22.1506 19.374 22.0041 19.2261 21.9013C19.0782 21.7985 18.8553 21.748 18.5574 21.748C18.5101 21.748 18.4559 21.748 18.3957 21.751C18.3345 21.7519 18.2685 21.7548 18.1915 21.7607C18.1452 21.7616 18.0801 21.7616 17.9943 21.7607C17.9105 21.7597 17.8049 21.7548 17.6807 21.749C17.6846 21.7733 17.6886 21.815 17.6915 21.8771C17.6955 21.9401 17.6994 22.0526 17.7034 22.2146C17.7093 22.4619 17.7103 22.7413 17.7103 23.0536C17.7103 23.366 17.7093 23.6395 17.7034 23.8897C17.6994 24.0527 17.6955 24.1642 17.6925 24.2263M18.0554 21.9372C18.157 21.9304 18.2704 21.9256 18.3937 21.9236C18.6058 21.9236 18.7665 21.9634 18.8789 22.0419C18.9914 22.1205 19.0486 22.234 19.0486 22.3824C19.0486 22.5415 18.9756 22.6705 18.8286 22.7646C18.6817 22.8606 18.4845 22.9072 18.2399 22.9072C18.1758 22.9062 18.1146 22.9081 18.0554 22.913V21.9372Z" fill="white"/>
<path d="M20.1936 23.8886C20.1975 23.6383 20.1995 23.3561 20.1995 23.0418C20.1995 22.7275 20.1985 22.4453 20.1936 22.195C20.1887 22.033 20.1837 21.9215 20.1818 21.8585C20.1778 21.7973 20.1739 21.7537 20.1699 21.7285C20.2173 21.7372 20.307 21.744 20.4362 21.7498C20.5684 21.7547 20.7045 21.7576 20.8445 21.7576H21.0901C21.2134 21.7576 21.3228 21.7547 21.4195 21.7498C21.5161 21.744 21.6 21.7353 21.6719 21.7227C21.6641 21.7624 21.6611 21.8061 21.6611 21.8536C21.6611 21.9011 21.6641 21.9457 21.6719 21.9836C21.6276 21.9739 21.5467 21.9651 21.4313 21.9584C21.3139 21.9535 21.2015 21.9487 21.0901 21.9487H20.9283C20.7962 21.9477 20.6759 21.9496 20.5615 21.9545C20.5546 22.2173 20.5506 22.5268 20.5496 22.8808L20.9589 22.8769C21.0812 22.8769 21.2045 22.874 21.3297 22.8672C21.453 22.8604 21.5378 22.8527 21.5812 22.843C21.5743 22.8808 21.5694 22.9244 21.5694 22.9739C21.5694 23.0234 21.5753 23.0651 21.5812 23.1029C21.5487 23.0961 21.4698 23.0903 21.3465 23.0826C21.2212 23.0758 21.0921 23.0709 20.9589 23.069L20.5496 23.0632C20.5496 23.3687 20.5526 23.6432 20.5575 23.8867C20.5634 24.0496 20.5674 24.1621 20.5694 24.2232C20.5723 24.2863 20.5763 24.329 20.5812 24.3513C20.52 24.3445 20.452 24.3406 20.3741 24.3406C20.2962 24.3406 20.2301 24.3445 20.1689 24.3513C20.1729 24.327 20.1788 24.2834 20.1828 24.2203C20.1857 24.1592 20.1887 24.0477 20.1936 23.8857" fill="white"/>
<path d="M22.2568 24.3717C22.2608 24.3474 22.2647 24.3038 22.2677 24.2417C22.2716 24.1786 22.2756 24.0681 22.2795 23.9061C22.2835 23.6529 22.2864 23.3668 22.2864 23.0496C22.2864 22.7324 22.2835 22.4463 22.2795 22.195C22.2756 22.035 22.2716 21.9225 22.2677 21.8604C22.2647 21.7993 22.2608 21.7556 22.2568 21.7304C22.3032 21.7392 22.3821 21.7459 22.4935 21.7518C22.604 21.7566 22.7154 21.7595 22.8298 21.7595H23.1356C23.2579 21.7595 23.3683 21.7566 23.465 21.7518C23.5626 21.7459 23.6454 21.7372 23.7174 21.7246C23.7095 21.7634 23.7056 21.808 23.7056 21.8556C23.7056 21.9031 23.7095 21.9467 23.7174 21.9855C23.6701 21.9758 23.5892 21.9671 23.4728 21.9603C23.3575 21.9555 23.244 21.9506 23.1356 21.9506H22.9926C22.8693 21.9496 22.7519 21.9516 22.6444 21.9564L22.6326 22.9031H22.9896C23.1089 22.9021 23.2302 22.8992 23.3555 22.8925C23.4807 22.8857 23.5665 22.8779 23.6139 22.8682C23.606 22.906 23.602 22.9497 23.602 22.9982C23.602 23.0467 23.606 23.0894 23.6139 23.1272C23.5665 23.1175 23.4807 23.1107 23.3555 23.1029C23.2302 23.0981 23.1099 23.0932 22.9896 23.0932H22.6336C22.6326 23.4967 22.6365 23.8488 22.6444 24.1466L22.9166 24.1505H23.0527C23.175 24.1505 23.3032 24.1466 23.4364 24.1389C23.5695 24.1311 23.6632 24.1214 23.7174 24.1117C23.7095 24.1505 23.7056 24.1951 23.7056 24.2465C23.7056 24.295 23.7095 24.3387 23.7174 24.3775C23.6602 24.3678 23.5734 24.361 23.4561 24.3532C23.3387 24.3464 23.2322 24.3435 23.1356 24.3435H22.8298C22.7253 24.3435 22.6178 24.3464 22.5073 24.3513C22.3959 24.3571 22.3131 24.3629 22.2568 24.3717Z" fill="white"/>
<path d="M26.6013 23.9641C26.5914 24.0068 26.5835 24.0427 26.5796 24.0747C26.5736 24.1067 26.5697 24.1446 26.5677 24.1872C26.4277 24.259 26.2847 24.3104 26.1377 24.3444C25.9908 24.3764 25.8281 24.3938 25.6486 24.3938C25.2294 24.3938 24.8911 24.2736 24.6308 24.034C24.3714 23.7934 24.2402 23.4801 24.2402 23.0941C24.2402 22.6809 24.3793 22.3472 24.6544 22.0911C24.9306 21.8341 25.2915 21.707 25.7353 21.707C25.907 21.707 26.0638 21.7196 26.2097 21.7478C26.3557 21.774 26.5007 21.8176 26.6446 21.8739C26.6239 21.934 26.6062 21.9864 26.5934 22.03C26.5815 22.0737 26.5677 22.1261 26.5529 22.1881L26.4878 22.193C26.3991 22.095 26.2876 22.0174 26.1525 21.9592C26.0194 21.901 25.8823 21.8719 25.7432 21.8719C25.4158 21.8719 25.1535 21.9815 24.9562 22.2037C24.759 22.4229 24.6604 22.7168 24.6604 23.0834C24.6604 23.4161 24.761 23.6906 24.9612 23.9059C25.1624 24.1223 25.4148 24.2299 25.7225 24.2299C25.8843 24.2299 26.0391 24.2028 26.192 24.1484C26.3419 24.0922 26.4681 24.0185 26.5697 23.9234L26.6032 23.9651L26.6013 23.9641Z" fill="white"/>
<path d="M27.8075 23.8905C27.8105 23.6403 27.8134 23.3629 27.8134 23.0564C27.8144 22.6276 27.8105 22.2581 27.8016 21.9496H27.5886C27.4564 21.9506 27.3252 21.9555 27.1911 21.9613C27.059 21.9681 26.9692 21.9758 26.9229 21.9855C26.9307 21.9477 26.9347 21.905 26.9347 21.8546C26.9347 21.8041 26.9307 21.7624 26.9229 21.7246C27.0698 21.7343 27.2365 21.7421 27.4229 21.7489C27.6093 21.7556 27.7513 21.7595 27.8529 21.7595H28.0649C28.1724 21.7595 28.3203 21.7556 28.5067 21.7489C28.6911 21.7421 28.8549 21.7343 28.9949 21.7246C28.987 21.7624 28.9831 21.8061 28.9831 21.8546C28.9831 21.9031 28.987 21.9477 28.9949 21.9855C28.9456 21.9758 28.8558 21.9681 28.7227 21.9613C28.5906 21.9545 28.4594 21.9506 28.3302 21.9506H28.1783C28.1685 22.2581 28.1645 22.6267 28.1645 23.0544C28.1645 23.3648 28.1675 23.6432 28.1714 23.8905C28.1763 24.0506 28.1813 24.1631 28.1832 24.2252C28.1862 24.2882 28.1901 24.3309 28.1951 24.3552C28.1339 24.3484 28.0659 24.3445 27.988 24.3445C27.9101 24.3445 27.843 24.3484 27.7828 24.3552C27.7868 24.3309 27.7927 24.2873 27.7947 24.2252C27.7976 24.1641 27.8016 24.0525 27.8065 23.8915" fill="white"/>
<path d="M31.1013 23.0643H31.3706C31.629 23.0643 31.8242 23.106 31.9564 23.1923C32.0895 23.2777 32.1546 23.4047 32.1546 23.5735C32.1546 23.7665 32.0866 23.9101 31.9505 24.0081C31.8164 24.106 31.6152 24.1555 31.3509 24.1555C31.2621 24.1555 31.1783 24.1497 31.1004 24.139V23.0643H31.1013ZM30.7384 24.2244C30.7345 24.2864 30.7305 24.3301 30.7246 24.3534L30.9219 24.3417L31.4347 24.3534C31.7661 24.3534 32.0343 24.2845 32.2404 24.1477C32.4456 24.011 32.5491 23.8325 32.5491 23.6133C32.5491 23.3815 32.4604 23.2098 32.2828 23.0943C32.1635 23.0177 32.0037 22.9653 31.8055 22.9392C31.9456 22.9081 32.0669 22.8606 32.1714 22.7927C32.3627 22.6695 32.4584 22.5095 32.4584 22.3126C32.4584 22.1157 32.3795 21.9818 32.2207 21.8877C32.0619 21.7936 31.8223 21.7461 31.5027 21.7461L30.9219 21.7577L30.7246 21.7461C30.7305 21.7694 30.7345 21.8111 30.7364 21.8751C30.7404 21.9362 30.7443 22.0497 30.7483 22.2126C30.7542 22.459 30.7562 22.7384 30.7552 23.0507C30.7552 23.3582 30.7522 23.6366 30.7483 23.8878C30.7443 24.0498 30.7404 24.1623 30.7374 24.2244M31.1004 21.9653C31.1941 21.9488 31.2966 21.942 31.4061 21.943C31.6063 21.943 31.7651 21.9818 31.8844 22.0604C32.0037 22.138 32.0629 22.2427 32.0629 22.3727C32.0629 22.5221 31.9988 22.6433 31.8686 22.7345C31.7394 22.8247 31.5659 22.8703 31.3489 22.8703H31.1004V21.9643V21.9653Z" fill="white"/>
<path d="M33.0232 24.2341C32.9896 24.2972 32.965 24.3379 32.9521 24.3534C32.9985 24.3467 33.0527 24.3428 33.1129 24.3428C33.1731 24.3428 33.2273 24.3467 33.2746 24.3534C33.2934 24.2788 33.3141 24.2109 33.3358 24.1478C33.3585 24.0848 33.394 23.9984 33.4433 23.8879C33.5084 23.7298 33.5843 23.56 33.6672 23.3815C33.8151 23.3534 33.9857 23.3427 34.178 23.3495C34.3644 23.3524 34.5311 23.3631 34.68 23.3815L34.9068 23.8879C34.9611 24.0081 34.9995 24.0993 35.0222 24.1624C35.0449 24.2254 35.0656 24.2894 35.0834 24.3534C35.1475 24.3467 35.2205 24.3428 35.3053 24.3428C35.3901 24.3428 35.4611 24.3467 35.5272 24.3534L35.2934 23.8879C35.1721 23.6415 35.042 23.366 34.8989 23.0595C34.6573 22.5425 34.4621 22.1089 34.3131 21.7578H34.2165C34.0686 22.1119 33.8683 22.5464 33.6178 23.0634C33.4709 23.3699 33.3338 23.6434 33.2076 23.8879C33.1188 24.0566 33.0567 24.1711 33.0232 24.2332M34.18 22.2913L34.5291 23.045L34.5686 23.1342C34.4463 23.1487 34.3141 23.1575 34.1731 23.1604C34.0291 23.1623 33.8989 23.1546 33.7786 23.1381L33.822 23.0411C33.9482 22.7646 34.0123 22.6269 34.0123 22.6269C34.0123 22.6269 34.0676 22.5144 34.18 22.2913Z" fill="white"/>
<path d="M36.3414 23.8888C36.3483 24.0469 36.3532 24.1565 36.3582 24.2195C36.3621 24.2816 36.368 24.3262 36.373 24.3544C36.3306 24.3476 36.2822 24.3437 36.227 24.3437C36.1718 24.3437 36.1235 24.3476 36.082 24.3544C36.0879 24.3301 36.0919 24.2874 36.0939 24.2244C36.0968 24.1623 36.1008 24.0508 36.1057 23.8888C36.1096 23.6385 36.1106 23.3592 36.1106 23.0527C36.1106 22.7461 36.1096 22.4707 36.1057 22.2243C36.0998 22.0623 36.0958 21.9517 36.0939 21.8887C36.0909 21.8266 36.087 21.783 36.082 21.7587H36.2083C36.5495 22.1225 36.9854 22.5677 37.519 23.0944L38.1797 23.7404V23.0759C38.1807 22.7568 38.1787 22.4687 38.1728 22.2127C38.1669 22.0507 38.163 21.9382 38.161 21.8761C38.158 21.815 38.1541 21.7713 38.1492 21.748C38.1916 21.7558 38.2379 21.7597 38.2922 21.7597C38.3464 21.7597 38.3928 21.7558 38.4352 21.748C38.4302 21.7713 38.4253 21.815 38.4233 21.8761C38.4194 21.9391 38.4164 22.0516 38.4115 22.2127C38.4075 22.4678 38.4046 22.7558 38.4046 23.075C38.4046 23.6017 38.4115 24.0411 38.4223 24.3941H38.305C37.9637 24.0304 37.5278 23.5852 36.9943 23.0575L36.3306 22.4067V23.0507C36.3306 23.3611 36.3365 23.6405 36.3424 23.8878" fill="white"/>
<path d="M39.6581 23.8878C39.664 24.0498 39.668 24.1623 39.6719 24.2244C39.6729 24.2855 39.6768 24.3301 39.6827 24.3543C39.6216 24.3466 39.5536 24.3427 39.4756 24.3427C39.3977 24.3427 39.3317 24.3466 39.2705 24.3543C39.2764 24.3311 39.2804 24.2884 39.2823 24.2253C39.2853 24.1633 39.2892 24.0507 39.2942 23.8888C39.2981 23.6385 39.2991 23.3582 39.2991 23.0517C39.2991 22.7452 39.2981 22.46 39.2942 22.2136C39.2883 22.0507 39.2843 21.9372 39.2823 21.8761C39.2794 21.813 39.2754 21.7713 39.2705 21.7471C39.3317 21.7548 39.4007 21.7587 39.4756 21.7587C39.5506 21.7587 39.6206 21.7558 39.6827 21.7471C39.6768 21.7723 39.6729 21.815 39.6719 21.877C39.668 21.9391 39.664 22.0516 39.6581 22.2126C39.6532 22.4377 39.6512 22.6841 39.6532 22.9498H39.6581C39.8366 22.8072 40.0437 22.621 40.2794 22.395C40.5378 22.1486 40.7429 21.9362 40.8997 21.7577H41.1108C41.1897 21.7577 41.2607 21.7548 41.3218 21.7461C41.2942 21.7626 41.2439 21.8004 41.1719 21.8625C41.097 21.9246 40.9629 22.041 40.7666 22.2117L40.4382 22.5056L40.0151 22.8994L40.454 23.3941L40.9037 23.8858C41.0644 24.0604 41.1739 24.1807 41.2311 24.2428C41.2893 24.3058 41.3258 24.3417 41.3396 24.3534C41.2646 24.3456 41.1808 24.3417 41.0852 24.3417C40.9895 24.3417 40.9027 24.3456 40.8287 24.3534C40.7893 24.2884 40.7459 24.2253 40.6956 24.1642C40.6443 24.1031 40.5634 24.01 40.451 23.8858L40.2419 23.653C40.0121 23.4018 39.8169 23.1943 39.6522 23.0274H39.6532L39.6502 23.0468C39.6502 23.3582 39.6532 23.6375 39.6581 23.8858" fill="white"/>
<path d="M41.8284 23.8888C41.8323 23.6375 41.8353 23.3601 41.8353 23.0527C41.8353 22.7452 41.8323 22.46 41.8284 22.2146C41.8244 22.0526 41.8205 21.9411 41.8175 21.879C41.8136 21.8159 41.8096 21.7733 41.8037 21.748C41.8649 21.7558 41.9339 21.7597 42.0108 21.7597C42.0877 21.7597 42.1558 21.7558 42.2179 21.748C42.212 21.7733 42.2081 21.8159 42.2061 21.879C42.2031 21.9411 42.1992 22.0526 42.1943 22.2146C42.1903 22.4629 42.1893 22.7423 42.1893 23.0507C42.1893 23.3592 42.1903 23.6414 42.1943 23.8897C42.2002 24.0508 42.2041 24.1633 42.2061 24.2263C42.209 24.2884 42.213 24.332 42.2179 24.3563C42.1568 24.3495 42.0877 24.3456 42.0108 24.3456C41.9339 24.3456 41.8658 24.3495 41.8037 24.3563C41.8086 24.332 41.8146 24.2884 41.8175 24.2263C41.8205 24.1642 41.8244 24.0517 41.8284 23.8907" fill="white"/>
<path d="M43.3092 23.8888C43.3151 24.0469 43.32 24.1565 43.324 24.2195C43.3279 24.2816 43.3338 24.3262 43.3388 24.3544C43.2964 24.3476 43.248 24.3437 43.1938 24.3437C43.1396 24.3437 43.0922 24.3476 43.0488 24.3544C43.0538 24.3301 43.0587 24.2874 43.0607 24.2244C43.0646 24.1623 43.0686 24.0508 43.0725 23.8888C43.0764 23.6385 43.0784 23.3592 43.0784 23.0527C43.0784 22.7461 43.0774 22.4707 43.0725 22.2243C43.0686 22.0623 43.0646 21.9517 43.0607 21.8887C43.0577 21.8266 43.0538 21.783 43.0488 21.7587H43.1751C43.5163 22.1225 43.9522 22.5677 44.4858 23.0944L45.1465 23.7404L45.1495 23.0759C45.1495 22.7568 45.1465 22.4687 45.1396 22.2127C45.1357 22.0507 45.1317 21.9382 45.1278 21.8761C45.1248 21.815 45.1219 21.7713 45.1169 21.748C45.1574 21.7558 45.2047 21.7597 45.258 21.7597C45.3112 21.7597 45.3595 21.7558 45.401 21.748C45.3951 21.7713 45.3911 21.815 45.3891 21.8761C45.3862 21.9391 45.3822 22.0516 45.3773 22.2127C45.3734 22.4678 45.3704 22.7558 45.3704 23.075C45.3704 23.6017 45.3773 24.0411 45.3891 24.3941H45.2718C44.9305 24.0304 44.4946 23.5852 43.9611 23.0575L43.2964 22.4067V23.0507C43.2974 23.3611 43.3023 23.6405 43.3102 23.8878" fill="white"/>
<path d="M47.5164 24.3938C47.0805 24.3938 46.7235 24.2736 46.4522 24.034C46.18 23.7954 46.0439 23.4821 46.0439 23.095C46.0439 22.6828 46.184 22.3482 46.4641 22.0911C46.7442 21.8341 47.1081 21.7051 47.5578 21.7051C47.7669 21.7051 47.9602 21.7254 48.1387 21.7623C48.3152 21.8011 48.4829 21.8603 48.6426 21.9388C48.6219 21.998 48.6042 22.0494 48.5904 22.094C48.5766 22.1377 48.5637 22.192 48.548 22.2541H48.4829C48.3714 22.1377 48.2383 22.0446 48.0775 21.9738C47.9197 21.9039 47.761 21.869 47.6032 21.869C47.258 21.869 46.9809 21.9796 46.7728 22.1998C46.5647 22.4199 46.4601 22.7148 46.4601 23.0834C46.4601 23.4307 46.5647 23.7081 46.7747 23.9166C46.9828 24.1251 47.2609 24.228 47.6061 24.228C47.831 24.228 48.0529 24.1863 48.2777 24.1019V23.84C48.2777 23.6712 48.2748 23.5403 48.2698 23.4481C48.2639 23.354 48.2521 23.2531 48.2363 23.1416C48.2975 23.1494 48.3685 23.1523 48.4484 23.1523C48.5282 23.1523 48.5983 23.1494 48.6594 23.1416C48.6495 23.1843 48.6436 23.2376 48.6377 23.2997C48.6338 23.3628 48.6308 23.4646 48.6278 23.6072V23.6751C48.6278 23.8487 48.6288 23.9729 48.6318 24.0466C48.6357 24.1203 48.6426 24.1814 48.6535 24.2289C48.3241 24.3376 47.9454 24.3919 47.5154 24.3919" fill="white"/>
<path d="M50.6544 24.2234C50.6505 24.2864 50.6465 24.3301 50.6406 24.3553C50.7018 24.3475 50.7698 24.3437 50.8477 24.3437C50.9256 24.3437 50.9917 24.3475 51.0529 24.3553C51.0489 24.332 51.045 24.2893 51.041 24.2263C51.0381 24.1642 51.0341 24.0517 51.0292 23.8897C51.0223 23.6676 51.0213 23.4193 51.0223 23.1448H51.0164C51.1209 23.1593 51.2383 23.1652 51.3694 23.1622C51.7077 23.1622 51.9701 23.0963 52.1555 22.9634C52.3419 22.8315 52.4346 22.6443 52.4346 22.4028C52.4346 22.1797 52.3567 22.0148 52.2008 21.9071C52.043 21.7994 51.8014 21.7461 51.475 21.7461C51.4247 21.7461 51.3704 21.7471 51.3103 21.749C51.2521 21.75 51.187 21.7529 51.114 21.7577C51.0598 21.7606 50.9947 21.7616 50.9158 21.7616C50.8369 21.7616 50.7462 21.7606 50.6416 21.7577C50.6475 21.783 50.6515 21.8256 50.6534 21.8887C50.6564 21.9498 50.6603 22.0623 50.6653 22.2233C50.6702 22.4716 50.6722 22.7481 50.6722 23.0526C50.6722 23.3572 50.6692 23.6385 50.6653 23.8888C50.6594 24.0498 50.6554 24.1613 50.6544 24.2234ZM51.0174 21.9488C51.1209 21.9391 51.2363 21.9333 51.3645 21.9333C51.5844 21.9333 51.7521 21.975 51.8665 22.0565C51.9789 22.1389 52.0361 22.2611 52.0361 22.4231C52.0361 22.5938 51.9681 22.7296 51.831 22.8325C51.6949 22.9343 51.5124 22.9857 51.2856 22.9857C51.19 22.9857 51.1002 22.9828 51.0174 22.9741V21.9488Z" fill="white"/>
<path d="M52.7253 24.2341C52.6918 24.2972 52.6681 24.3379 52.6543 24.3534C52.7016 24.3467 52.7549 24.3428 52.8151 24.3428C52.8752 24.3428 52.9304 24.3467 52.9768 24.3534C52.9955 24.2788 53.0162 24.2109 53.0399 24.1478C53.0616 24.0848 53.0971 23.9984 53.1454 23.8879C53.2105 23.7298 53.2865 23.56 53.3713 23.3815C53.5192 23.3534 53.6898 23.3427 53.8812 23.3495C54.0676 23.3524 54.2362 23.3631 54.3841 23.3815L54.611 23.8879C54.6642 24.0081 54.7037 24.0993 54.7263 24.1624C54.748 24.2254 54.7688 24.2894 54.7865 24.3534C54.8506 24.3467 54.9256 24.3428 55.0084 24.3428C55.0913 24.3428 55.1662 24.3467 55.2313 24.3534L54.9966 23.8879C54.8772 23.6415 54.7451 23.366 54.6021 23.0595C54.3614 22.5425 54.1662 22.1089 54.0163 21.7578H53.9196C53.7717 22.1119 53.5735 22.5464 53.322 23.0634C53.175 23.3699 53.0379 23.6434 52.9117 23.8879C52.8229 24.0566 52.7608 24.1711 52.7273 24.2332M53.8841 22.2913L54.2352 23.045L54.2747 23.1342C54.1524 23.1487 54.0192 23.1575 53.8782 23.1604C53.7342 23.1623 53.604 23.1546 53.4837 23.1381L53.5271 23.0411C53.6553 22.7646 53.7174 22.6269 53.7174 22.6269C53.7174 22.6269 53.7727 22.5144 53.8841 22.2913Z" fill="white"/>
<path d="M55.756 24.2244C55.752 24.2874 55.7481 24.3311 55.7422 24.3544C55.8033 24.3476 55.8714 24.3437 55.9493 24.3437C56.0272 24.3437 56.0953 24.3476 56.1544 24.3544C56.1505 24.3301 56.1465 24.2865 56.1426 24.2244C56.1396 24.1623 56.1357 24.0508 56.1308 23.8888C56.1268 23.6482 56.1229 23.3766 56.1229 23.0759H56.256C56.3951 23.2292 56.5519 23.4096 56.7264 23.6172L56.9523 23.8888C57.0578 24.0129 57.1357 24.107 57.1831 24.1691C57.2304 24.2312 57.2718 24.2923 57.3053 24.3544C57.3783 24.3476 57.4631 24.3437 57.5578 24.3437C57.6525 24.3437 57.7373 24.3476 57.8103 24.3544C57.7935 24.3417 57.759 24.3039 57.7018 24.2418C57.6446 24.1788 57.5411 24.0624 57.3872 23.8888L57.1673 23.6366C56.9769 23.4154 56.8152 23.2224 56.6791 23.0527C56.8734 23.0216 57.042 22.9644 57.1831 22.88C57.402 22.7481 57.5105 22.5754 57.5105 22.363C57.5105 22.1506 57.4365 22.0041 57.2886 21.9013C57.1406 21.7985 56.9178 21.748 56.6189 21.748C56.5726 21.748 56.5183 21.748 56.4572 21.751C56.397 21.7519 56.329 21.7548 56.255 21.7607C56.2087 21.7616 56.1436 21.7616 56.0578 21.7607C55.9739 21.7597 55.8674 21.7548 55.7422 21.749C55.7481 21.7733 55.752 21.815 55.754 21.8771C55.757 21.9401 55.7609 22.0526 55.7659 22.2146C55.7698 22.4619 55.7728 22.7413 55.7728 23.0536C55.7728 23.366 55.7698 23.6395 55.7659 23.8897C55.7599 24.0527 55.756 24.1642 55.755 24.2263M56.1179 21.9372C56.2195 21.9304 56.3329 21.9256 56.4552 21.9236C56.6673 21.9236 56.829 21.9634 56.9424 22.0419C57.0548 22.1205 57.1111 22.234 57.1111 22.3824C57.1111 22.5415 57.0371 22.6705 56.8911 22.7646C56.7442 22.8606 56.5489 22.9072 56.3033 22.9072C56.2383 22.9062 56.1771 22.9081 56.1179 22.913V21.9372Z" fill="white"/>
<path d="M58.9012 23.8905C58.9052 23.6403 58.9071 23.3629 58.9071 23.0564C58.9081 22.6276 58.9042 22.2581 58.8953 21.9496H58.6823C58.5501 21.9506 58.419 21.9555 58.2858 21.9613C58.1537 21.9681 58.0639 21.9758 58.0176 21.9855C58.0255 21.9477 58.0294 21.905 58.0294 21.8546C58.0294 21.8041 58.0255 21.7624 58.0176 21.7246C58.1655 21.7343 58.3312 21.7421 58.5176 21.7489C58.704 21.7556 58.846 21.7595 58.9466 21.7595H59.1586C59.2661 21.7595 59.4141 21.7556 59.6005 21.7489C59.7849 21.7421 59.9496 21.7343 60.0896 21.7246C60.0798 21.7624 60.0758 21.8061 60.0758 21.8546C60.0758 21.9031 60.0798 21.9477 60.0896 21.9855C60.0393 21.9758 59.9496 21.9681 59.8164 21.9613C59.6843 21.9545 59.5531 21.9506 59.4239 21.9506H59.272C59.2642 22.2581 59.2602 22.6267 59.2602 23.0544C59.2602 23.3648 59.2612 23.6432 59.2661 23.8905C59.2711 24.0506 59.274 24.1631 59.278 24.2252C59.2809 24.2882 59.2849 24.3309 59.2898 24.3552C59.2287 24.3484 59.1606 24.3445 59.0847 24.3445C59.0087 24.3445 58.9397 24.3484 58.8776 24.3552C58.8825 24.3309 58.8874 24.2873 58.8894 24.2252C58.8924 24.1641 58.8963 24.0525 58.9012 23.8915" fill="white"/>
<path d="M60.9146 23.8888C60.9215 24.0469 60.9255 24.1565 60.9304 24.2195C60.9344 24.2816 60.9383 24.3262 60.9452 24.3544C60.9018 24.3476 60.8545 24.3437 60.8002 24.3437C60.746 24.3437 60.6967 24.3476 60.6553 24.3544C60.6602 24.3301 60.6651 24.2874 60.6671 24.2244C60.6701 24.1623 60.674 24.0508 60.678 23.8888C60.6819 23.6385 60.6849 23.3592 60.6849 23.0527C60.6849 22.7461 60.6819 22.4707 60.678 22.2243C60.674 22.0623 60.6701 21.9517 60.6671 21.8887C60.6641 21.8266 60.6602 21.783 60.6553 21.7587H60.7805C61.1227 22.1225 61.5596 22.5677 62.0912 23.0944L62.752 23.7404L62.7549 23.0759C62.7549 22.7568 62.752 22.4687 62.747 22.2127C62.7421 22.0507 62.7372 21.9382 62.7352 21.8761C62.7313 21.815 62.7273 21.7713 62.7234 21.748C62.7638 21.7558 62.8112 21.7597 62.8664 21.7597C62.9216 21.7597 62.966 21.7558 63.0074 21.748C63.0025 21.7713 62.9975 21.815 62.9956 21.8761C62.9926 21.9391 62.9887 22.0516 62.9847 22.2127C62.9808 22.4678 62.9778 22.7558 62.9778 23.075C62.9778 23.6017 62.9847 24.0411 62.9956 24.3941H62.8792C62.538 24.0304 62.1011 23.5852 61.5685 23.0575L60.9038 22.4067V23.0507C60.9048 23.3611 60.9097 23.6405 60.9176 23.8878" fill="white"/>
<path d="M63.7656 24.3717C63.7696 24.3474 63.7735 24.3038 63.7775 24.2417C63.7804 24.1786 63.7844 24.0681 63.7893 23.9061C63.7932 23.6529 63.7952 23.3668 63.7952 23.0496C63.7952 22.7324 63.7942 22.4463 63.7893 22.195C63.7844 22.035 63.7794 21.9225 63.7775 21.8604C63.7735 21.7993 63.7696 21.7556 63.7656 21.7304C63.813 21.7392 63.8919 21.7459 64.0023 21.7518C64.1128 21.7566 64.2252 21.7595 64.3386 21.7595H64.6443C64.7666 21.7595 64.8771 21.7566 64.9747 21.7518C65.0714 21.7459 65.1552 21.7372 65.2262 21.7246C65.2183 21.7634 65.2144 21.808 65.2144 21.8556C65.2144 21.9031 65.2183 21.9467 65.2262 21.9855C65.1799 21.9758 65.098 21.9671 64.9826 21.9603C64.8672 21.9555 64.7538 21.9506 64.6443 21.9506H64.5013C64.3781 21.9496 64.2617 21.9516 64.1532 21.9564L64.1414 22.9031H64.5004C64.6187 22.9021 64.74 22.8992 64.8643 22.8925C64.9895 22.8857 65.0743 22.8779 65.1227 22.8682C65.1148 22.906 65.1108 22.9497 65.1108 22.9982C65.1108 23.0467 65.1148 23.0894 65.1227 23.1272C65.0753 23.1175 64.9895 23.1107 64.8643 23.1029C64.739 23.0981 64.6177 23.0932 64.5004 23.0932H64.1424C64.1424 23.4967 64.1453 23.8488 64.1532 24.1466L64.4264 24.1505H64.5605C64.6828 24.1505 64.811 24.1466 64.9442 24.1389C65.0773 24.1311 65.171 24.1214 65.2252 24.1117C65.2173 24.1505 65.2134 24.1951 65.2134 24.2465C65.2134 24.295 65.2173 24.3387 65.2252 24.3775C65.168 24.3678 65.0812 24.361 64.9659 24.3532C64.8495 24.3464 64.742 24.3435 64.6434 24.3435H64.3376C64.2331 24.3435 64.1256 24.3464 64.0171 24.3513C63.9057 24.3571 63.8228 24.3629 63.7656 24.3717Z" fill="white"/>
<path d="M65.9445 24.2244C65.9405 24.2874 65.9366 24.3311 65.9326 24.3544C65.9928 24.3476 66.0608 24.3437 66.1378 24.3437C66.2147 24.3437 66.2837 24.3476 66.3449 24.3544C66.3389 24.3301 66.335 24.2865 66.3311 24.2244C66.3281 24.1623 66.3242 24.0508 66.3202 23.8888C66.3143 23.6482 66.3123 23.3766 66.3123 23.0759H66.4445C66.5835 23.2292 66.7403 23.4096 66.9149 23.6172L67.1407 23.8888C67.2482 24.0129 67.3252 24.107 67.3715 24.1691C67.4189 24.2312 67.4603 24.2923 67.4938 24.3544C67.5688 24.3476 67.6526 24.3437 67.7483 24.3437C67.8439 24.3437 67.9268 24.3476 68.0007 24.3544C67.984 24.3417 67.9475 24.3039 67.8922 24.2418C67.835 24.1788 67.7305 24.0624 67.5767 23.8888L67.3577 23.6366C67.1674 23.4154 67.0046 23.2224 66.8686 23.0527C67.0648 23.0216 67.2315 22.9644 67.3725 22.88C67.5924 22.7481 67.7009 22.5754 67.7009 22.363C67.7009 22.1506 67.626 22.0041 67.478 21.9013C67.3301 21.7985 67.1072 21.748 66.8094 21.748C66.762 21.748 66.7078 21.748 66.6476 21.751C66.5865 21.7519 66.5184 21.7548 66.4435 21.7607C66.3971 21.7616 66.332 21.7616 66.2462 21.7607C66.1614 21.7597 66.0569 21.7548 65.9316 21.749C65.9356 21.7733 65.9395 21.815 65.9435 21.8771C65.9464 21.9401 65.9504 22.0526 65.9543 22.2146C65.9583 22.4619 65.9612 22.7413 65.9612 23.0536C65.9612 23.366 65.9583 23.6395 65.9543 23.8897C65.9504 24.0527 65.9464 24.1642 65.9435 24.2263M66.3064 21.9372C66.408 21.9304 66.5214 21.9256 66.6447 21.9236C66.8557 21.9236 67.0175 21.9634 67.1299 22.0419C67.2423 22.1205 67.2995 22.234 67.2995 22.3824C67.2995 22.5415 67.2256 22.6705 67.0796 22.7646C66.9327 22.8606 66.7354 22.9072 66.4908 22.9072C66.4267 22.9062 66.3656 22.9081 66.3054 22.913V21.9372H66.3064Z" fill="white"/>
</g>
<defs>
<clipPath id="clip0_2533_10716">
<rect width="68" height="20.6429" fill="white" transform="translate(0 3.75)"/>
</clipPath>
</defs>
</svg>
