<svg width="90" height="30" viewBox="0 0 90 30" fill="none" xmlns="http://www.w3.org/2000/svg">
<path d="M28.7213 18.3431V14.3312C28.7213 13.7294 28.6214 13.2274 28.3205 12.7267C27.9197 11.9238 27.2167 11.6229 26.214 11.6229H26.1142C24.7094 11.6229 23.8067 12.5257 23.5057 13.9304C23.4059 14.4323 23.4059 14.933 23.4059 15.435V19.8249C23.4059 20.3509 22.9798 20.7782 22.4525 20.7782C21.9265 20.7782 21.4992 20.3522 21.4992 19.8249V18.2444C21.4992 16.9409 21.4992 15.636 21.4992 14.3325C21.4992 14.0315 21.4992 13.6307 21.3993 13.3298C21.0984 12.226 20.2955 11.5243 19.0918 11.5243H18.9919C17.6884 11.5243 16.8855 12.427 16.7856 13.8318V19.7996C16.7856 20.3256 16.3595 20.753 15.8322 20.753C15.3063 20.753 14.8789 20.3269 14.8789 19.7996V19.1472C14.8789 17.3417 14.8789 15.5361 14.8789 13.7306C14.8789 12.5269 15.2797 11.6242 15.8816 10.9224C16.5833 10.2207 17.4861 9.81864 18.6897 9.81864H18.8908C19.7935 9.81864 20.4953 10.0197 21.0971 10.4205C21.4979 10.6215 21.7988 10.9224 22.0998 11.3232L22.5006 12.025L23.0025 11.3232C23.3034 10.8213 23.7043 10.5204 24.1063 10.3206C24.8081 9.91979 25.6109 9.71875 26.4138 9.71875C26.8146 9.71875 27.1155 9.71875 27.5176 9.81864C28.5203 10.0197 29.2233 10.5204 29.8251 11.4231C30.2259 12.025 30.4269 12.7267 30.4269 13.3285V19.8767C30.4269 20.3471 30.0451 20.7289 29.5747 20.7289C29.1044 20.7289 28.7226 20.3471 28.7226 19.8767V18.3443L28.7213 18.3431Z" fill="white"/>
<path d="M69.1946 12.7045C69.1946 11.559 70.0544 10.6992 71.1999 10.6992C71.8119 10.6992 72.3012 10.9445 72.6186 11.3352C72.7425 11.4882 72.6982 11.7158 72.5225 11.8043L72.4946 11.8182C72.3644 11.8839 72.2076 11.846 72.1179 11.7309C71.9712 11.5438 71.7651 11.3972 71.5008 11.3238C70.5715 11.0659 69.6473 11.8587 69.7813 12.8145C69.8736 13.4745 70.4097 13.9474 71.1038 13.9474C71.492 13.9474 71.8802 13.7577 72.1141 13.4821C72.2076 13.3721 72.3606 13.3342 72.4896 13.3987L72.5149 13.4113C72.6919 13.4998 72.7399 13.7337 72.6097 13.8829C72.2671 14.2749 71.7171 14.5214 71.1038 14.5214C70.0822 14.5214 69.1934 13.8526 69.1934 12.707" fill="white"/>
<path d="M75.401 11.0321C75.401 11.1977 75.2796 11.3318 75.1178 11.3621C74.6538 11.4481 74.2555 11.7667 74.2555 12.4823V14.1539C74.2555 14.3385 74.1063 14.4876 73.9217 14.4876C73.7371 14.4876 73.5879 14.3385 73.5879 14.1539V11.0018C73.5879 10.8172 73.7371 10.668 73.9217 10.668C74.1063 10.668 74.2555 10.8172 74.2555 11.0018V11.3356C74.4856 10.9525 74.7764 10.7539 75.1279 10.6907C75.2708 10.6654 75.401 10.7792 75.401 10.9246V11.0321Z" fill="white"/>
<path d="M77.7895 14.0108C78.2674 14.0108 78.6493 13.7238 78.8402 13.438L79.4129 13.725C79.1259 14.203 78.5532 14.5848 77.7895 14.5848C76.5479 14.5848 75.7842 13.725 75.7842 12.5795C75.7842 11.434 76.5479 10.5742 77.7895 10.5742C78.935 10.5742 79.6999 11.5288 79.6999 12.5795V12.8665H76.5479C76.5479 13.6302 77.1206 14.0121 77.7895 14.0121M76.453 12.2925H78.9363C78.8402 11.5288 78.2674 11.2418 77.6947 11.2418C77.0258 11.2418 76.5491 11.7197 76.453 12.2925Z" fill="white"/>
<path d="M83.8526 14.4896C83.668 14.4896 83.5188 14.3404 83.5188 14.1558V13.822C83.2318 14.3 82.7551 14.5857 82.0863 14.5857C81.0356 14.5857 80.1758 13.7259 80.1758 12.5804C80.1758 11.4349 81.0356 10.5751 82.0863 10.5751C82.7551 10.5751 83.2318 10.8621 83.5188 11.3388V9.47637C83.5188 9.29177 83.668 9.14258 83.8526 9.14258C84.0372 9.14258 84.1864 9.29177 84.1864 9.47637V14.1558C84.1864 14.3404 84.0372 14.4896 83.8526 14.4896ZM83.5188 12.5792C83.5188 11.8155 82.946 11.2427 82.1823 11.2427C81.4187 11.2427 80.8459 11.8155 80.8459 12.5792C80.8459 13.3428 81.4187 13.9156 82.1823 13.9156C82.946 13.9156 83.5188 13.3428 83.5188 12.5792Z" fill="white"/>
<path d="M85.1426 9.62051C85.1426 9.3335 85.3335 9.14258 85.6205 9.14258C85.9075 9.14258 86.0984 9.3335 86.0984 9.62051C86.0984 9.90753 85.9075 10.0984 85.6205 10.0984C85.2551 10.0984 85.1426 9.81143 85.1426 9.62051ZM85.6673 10.766C85.8519 10.766 86.0011 10.9152 86.0011 11.0998V14.2519C86.0011 14.4365 85.8519 14.5857 85.6673 14.5857C85.4827 14.5857 85.3335 14.4365 85.3335 14.2519V11.0998C85.3335 10.9152 85.4827 10.766 85.6673 10.766Z" fill="white"/>
<path d="M88.1033 11.3373V13.3426C88.1033 13.8294 88.3107 13.9027 88.8417 13.8547C89.0086 13.8395 89.154 13.9697 89.154 14.1379V14.1442C89.154 14.2883 89.0453 14.4122 88.9012 14.4274C87.9377 14.5222 87.5306 14.1366 87.5306 13.3426V11.3373H87.0526C86.8946 11.3373 86.7656 11.2096 86.7656 11.0503C86.7656 10.8922 86.8933 10.7633 87.0526 10.7633H87.5306V10.1564C87.5306 10.0072 87.6292 9.87566 87.7733 9.8352C87.987 9.77451 88.1994 9.93508 88.1994 10.1564V10.7633H88.9151C89.0997 10.7633 89.2489 10.9124 89.2489 11.097C89.2489 11.2816 89.0997 11.4308 88.9151 11.4308H88.1033V11.3347V11.3373Z" fill="white"/>
<path d="M74.0645 18.8178C74.0645 17.6723 74.9242 16.8125 76.0698 16.8125C76.6741 16.8125 77.1584 17.0515 77.477 17.4346C77.6085 17.5939 77.5604 17.8341 77.3758 17.9264C77.2393 17.9947 77.0762 17.9542 76.9814 17.8354C76.8347 17.652 76.6324 17.5092 76.3719 17.4371C75.4426 17.1792 74.5184 17.9719 74.6524 18.9278C74.7447 19.5878 75.2808 20.0607 75.9749 20.0607C76.3631 20.0607 76.7512 19.871 76.9852 19.5954C77.0787 19.4854 77.2317 19.4475 77.3607 19.5119L77.386 19.5246C77.563 19.6131 77.611 19.8457 77.4808 19.9962C77.1381 20.3882 76.5881 20.6347 75.9749 20.6347C75.014 20.6271 74.0645 19.9659 74.0645 18.8203" fill="white"/>
<path d="M82.0868 17.1142V20.2663C82.0868 20.4509 81.9376 20.6001 81.753 20.6001C81.5684 20.6001 81.4192 20.4509 81.4192 20.2663V19.9325C81.1322 20.4104 80.6555 20.6961 79.9866 20.6961C78.9359 20.6961 78.0762 19.8364 78.0762 18.6908C78.0762 17.5453 78.9359 16.6855 79.9866 16.6855C80.6555 16.6855 81.1322 16.9726 81.4192 17.4492V17.1154C81.4192 16.9308 81.5684 16.7816 81.753 16.7816C81.9376 16.7816 82.0868 16.9308 82.0868 17.1154V17.1142ZM81.4179 18.6896C81.4179 17.9259 80.8452 17.3531 80.0815 17.3531C79.3178 17.3531 78.745 17.9259 78.745 18.6896C78.745 19.4533 79.3178 20.026 80.0815 20.026C80.8452 20.026 81.4179 19.4533 81.4179 18.6896Z" fill="white"/>
<path d="M84.8561 17.0683C84.8561 17.2693 84.7157 17.4413 84.521 17.4855C84.0798 17.5854 83.7106 17.9065 83.7106 18.5956V20.2671C83.7106 20.4517 83.5614 20.6009 83.3768 20.6009C83.1922 20.6009 83.043 20.4517 83.043 20.2671V17.115C83.043 16.9304 83.1922 16.7812 83.3768 16.7812C83.5614 16.7812 83.7106 16.9304 83.7106 17.115V17.4488C83.861 16.9962 84.191 16.8419 84.5577 16.7964C84.717 16.7762 84.8561 16.9064 84.8561 17.067V17.0683Z" fill="white"/>
<path d="M88.7237 20.5052C88.5391 20.5052 88.3899 20.3561 88.3899 20.1715V19.8377C88.1029 20.3156 87.6262 20.6013 86.9573 20.6013C85.9066 20.6013 85.0469 19.7416 85.0469 18.596C85.0469 17.4505 85.9066 16.5907 86.9573 16.5907C87.6262 16.5907 88.1029 16.8778 88.3899 17.3544V15.492C88.3899 15.3074 88.5391 15.1582 88.7237 15.1582C88.9083 15.1582 89.0575 15.3074 89.0575 15.492V20.1715C89.0575 20.3561 88.9083 20.5052 88.7237 20.5052ZM88.3899 18.5644C88.3899 17.8007 87.8171 17.228 87.0534 17.228C86.2898 17.228 85.717 17.8007 85.717 18.5644C85.717 19.3281 86.2898 19.9009 87.0534 19.9009C87.8171 19.9009 88.3899 19.4546 88.3899 18.6909" fill="white"/>
<path d="M72.6793 16.877H71.9144C71.8355 16.877 71.7715 16.9409 71.7715 17.0198V20.5538C71.7715 20.6327 71.8355 20.6966 71.9144 20.6966H72.6793C72.7582 20.6966 72.8222 20.6327 72.8222 20.5538V17.0198C72.8222 16.9409 72.7582 16.877 72.6793 16.877Z" fill="#00A98F"/>
<path d="M71.3439 16.877H70.7698C70.6909 16.877 70.627 16.9409 70.627 17.0198V20.5538C70.627 20.6327 70.6909 20.6966 70.7698 20.6966H71.3439C71.4228 20.6966 71.4867 20.6327 71.4867 20.5538V17.0198C71.4867 16.9409 71.4228 16.877 71.3439 16.877Z" fill="#00A98F"/>
<path d="M69.3385 16.877H69.3372C69.2583 16.877 69.1943 16.9409 69.1943 17.0198V20.5538C69.1943 20.6327 69.2583 20.6966 69.3372 20.6966H69.3385C69.4174 20.6966 69.4814 20.6327 69.4814 20.5538V17.0198C69.4814 16.9409 69.4174 16.877 69.3385 16.877Z" fill="#00A98F"/>
<path d="M70.1965 16.877H69.9095C69.8306 16.877 69.7666 16.9409 69.7666 17.0198V20.5538C69.7666 20.6327 69.8306 20.6966 69.9095 20.6966H70.1965C70.2754 20.6966 70.3394 20.6327 70.3394 20.5538V17.0198C70.3394 16.9409 70.2754 16.877 70.1965 16.877Z" fill="#00A98F"/>
<path d="M8.02868 17.8335C8.02868 19.8464 6.29775 21.0792 3.98141 21.0792C2.26944 21.0792 0.963344 20.4293 0.181959 19.4178C-0.148043 18.9917 -0.0127547 18.3696 0.455064 18.1016L0.505639 18.0725C0.900125 17.8462 1.39197 17.9587 1.67266 18.3165C2.16071 18.9399 2.9737 19.3053 3.98141 19.3053C5.1282 19.3053 6.12326 18.8943 6.12326 17.8335C6.12326 15.5185 0.0643722 16.8385 0.0643722 12.9214C0.0643722 11.0173 1.70933 9.69727 3.89417 9.69727C5.24705 9.69727 6.39763 10.1878 7.17522 11.0426C7.56086 11.4661 7.44327 12.1413 6.94384 12.422C6.57338 12.6306 6.11188 12.5446 5.8274 12.2285C5.34061 11.6874 4.61739 11.4497 3.89417 11.4497C2.9206 11.4497 1.96852 11.9264 1.96852 12.8999C1.96852 15.215 8.02741 13.852 8.02741 17.8335H8.02868Z" fill="white"/>
<path d="M11.0904 9.97783C11.6101 9.97783 12.0324 10.3989 12.0324 10.9198V19.8577C12.0324 20.3773 11.6113 20.7996 11.0904 20.7996C10.5707 20.7996 10.1484 20.3786 10.1484 19.8577V10.9185C10.1484 10.3989 10.5695 9.97656 11.0904 9.97656V9.97783Z" fill="white"/>
<path d="M44.7302 15.3888C44.7302 18.5915 42.2634 21.0798 39.2554 21.0798C37.4158 21.0798 36.0313 20.2579 35.1652 18.9379V24.1863C35.1652 24.706 34.7441 25.1283 34.2232 25.1283C33.7036 25.1283 33.2812 24.7072 33.2812 24.1863V10.9192C33.2812 10.3996 33.7023 9.97727 34.2232 9.97727C34.7429 9.97727 35.1652 10.3983 35.1652 10.9192V11.8384C36.0313 10.5184 37.4158 9.69531 39.2554 9.69531C42.2634 9.69531 44.7302 12.1836 44.7302 15.3875V15.3888ZM42.8475 15.3888C42.8475 13.1812 41.1811 11.5147 39.0177 11.5147C36.8544 11.5147 35.1652 13.1812 35.1652 15.3888C35.1652 17.5964 36.8316 19.2628 39.0177 19.2628C41.2038 19.2628 42.8475 17.5964 42.8475 15.3888Z" fill="white"/>
<path d="M47.9215 5C48.4411 5 48.8634 5.42104 48.8634 5.94196V19.8564C48.8634 20.3761 48.4424 20.7984 47.9215 20.7984C47.4018 20.7984 46.9795 20.3773 46.9795 19.8564V5.94196C46.9795 5.4223 47.4005 5 47.9215 5Z" fill="white"/>
<path d="M52.6822 9.97783C53.2019 9.97783 53.6242 10.3989 53.6242 10.9198V19.8577C53.6242 20.3773 53.2031 20.7996 52.6822 20.7996C52.1625 20.7996 51.7402 20.3786 51.7402 19.8577V10.9185C51.7402 10.3989 52.1613 9.97656 52.6822 9.97656V9.97783Z" fill="white"/>
<path d="M57.3248 9.9784V9.65345C57.3248 7.09436 58.6246 5.52779 61.0888 5.36343C61.6161 5.32802 62.0637 5.74527 62.0637 6.27378C62.0637 6.7416 61.7109 7.1424 61.2444 7.1816C59.8991 7.29413 59.2062 8.06666 59.2062 9.65345V9.9784H61.1533C61.6553 9.9784 62.0624 10.3855 62.0624 10.8875C62.0624 11.3894 61.6553 11.7966 61.1533 11.7966H59.2062V19.8582C59.2062 20.3779 58.7852 20.8002 58.2642 20.8002C57.7446 20.8002 57.3223 20.3792 57.3223 19.8582V9.9784H57.3248Z" fill="white"/>
<path d="M64.4322 9.97783C64.9519 9.97783 65.3742 10.3989 65.3742 10.9198V19.8577C65.3742 20.3773 64.9531 20.7996 64.4322 20.7996C63.9125 20.7996 63.4902 20.3786 63.4902 19.8577V10.9185C63.4902 10.3989 63.9113 9.97656 64.4322 9.97656V9.97783Z" fill="white"/>
</svg>
