<svg width="68" height="68" viewBox="0 0 68 68" fill="none" xmlns="http://www.w3.org/2000/svg">
<circle cx="34" cy="34" r="34" fill="#00B899"/>
<path d="M62.3327 34C62.3327 49.6481 49.6474 62.3333 33.9993 62.3333C18.3513 62.3333 5.66602 49.6481 5.66602 34C5.66602 18.3519 18.3513 5.66667 33.9993 5.66667C49.6474 5.66667 62.3327 18.3519 62.3327 34Z" fill="#00B899"/>
<path d="M33.3522 22.4888C34.0722 22.0392 34.8665 21.9953 34.9409 21.9919H39.9993H45.0578V18.1047H34.9206C34.6333 18.1047 32.0593 18.1638 30.1191 20.1311C28.7805 21.4849 28.118 23.3389 28.145 25.6425V29.3472H23.9316V32.8964H28.145V35.4315H23.9316V38.9807H28.145V51.6631H32.0322V38.9807H45.0578V35.4315H32.0322V32.8964H45.0578V29.3472H32.0322V25.6307V25.6053C32.012 24.0758 32.4429 23.0567 33.3522 22.4888Z" fill="white"/>
</svg>
