<svg xmlns="http://www.w3.org/2000/svg" width="19" height="16" fill="none"  xmlns:v="https://vecta.io/nano"><path d="M11.802 2.408c0-1.325 1.165-2.396 2.601-2.396s2.603 1.073 2.603 2.396-1.165 2.396-2.603 2.396-2.601-1.071-2.601-2.396zM19 11.847h-.581c-1.193 0-1.795-.81-1.795-2.086V7.365h-4.409v3.396c0 3.69 2.556 5.239 5.029 5.239H19v-4.153zm-14.584 1.14c0-1.234.713-1.796 2.162-1.796h3.595V7.354H4.416V5.77c0-1.253 1.13-1.934 2.479-1.934h3.272V0H5.771C2.315 0 0 1.75 0 5.419v10.572h4.416v-3.003z" fill="#00b899"/></svg>