<svg xmlns="http://www.w3.org/2000/svg" width="182" height="14" fill="none"  xmlns:v="https://vecta.io/nano"><path d="M1.178 3v7h1.15V3h-1.15zm7.249 0v4.75L5.126 3h-.9v7h1.15V5.25l3.3 4.75h.9V3h-1.15zm8.628 0h-2.58v7h1.15V7.6h1.43c1.32 0 2.32-1.01 2.32-2.3 0-1.3-1-2.3-2.32-2.3zm0 3.52h-1.43V4.08h1.43c.68 0 1.17.51 1.17 1.22 0 .7-.49 1.22-1.17 1.22zM24.73 10h1.24l-2.53-7h-1.38l-2.54 7h1.25l.49-1.41h2.98l.49 1.41zm-3.09-2.49l1.11-3.16 1.11 3.16h-2.22zM31.213 10h1.26l-1.59-2.72c.82-.33 1.39-1.13 1.39-2.03A2.24 2.24 0 0 0 30.023 3h-2.8v7h1.15V7.45h1.36l1.48 2.55zm-2.84-5.92h1.65c.61 0 1.1.51 1.1 1.17 0 .65-.49 1.17-1.1 1.17h-1.65V4.08zM38.249 3h-5.1v1.1h1.98V10h1.15V4.1h1.97V3zm5.55 0v4.75L40.499 3h-.9v7h1.15V5.25l3.3 4.75h.9V3h-1.15zm4.198 5.9V7.01h2.8V5.92h-2.8V4.1h3.05V3h-4.2v7h4.25V8.9h-3.1zM56.64 10h1.26l-1.59-2.72c.82-.33 1.39-1.13 1.39-2.03A2.24 2.24 0 0 0 55.45 3h-2.8v7h1.15V7.45h1.36L56.64 10zM53.8 4.08h1.65c.61 0 1.1.51 1.1 1.17 0 .65-.49 1.17-1.1 1.17H53.8V4.08zm7.715 6.05c1.46 0 2.48-.78 2.48-2.06 0-1.39-1.17-1.75-2.33-2.12-1.02-.32-1.41-.55-1.41-1.09 0-.53.43-.87 1.1-.87.78 0 1.22.42 1.47.98l.97-.56c-.44-.93-1.29-1.54-2.44-1.54-1.18 0-2.25.73-2.25 2.02 0 1.32 1.06 1.72 2.15 2.05 1.04.32 1.59.53 1.59 1.15 0 .51-.39.92-1.3.92-.95 0-1.49-.47-1.74-1.18l-.99.58c.37 1.04 1.32 1.72 2.7 1.72zM69.587 3v2.87h-3V3h-1.15v7h1.15V6.97h3V10h1.15V3h-1.15zm3.049 0v7h1.15V3h-1.15zm5.629 0h-2.58v7h1.15V7.6h1.43c1.32 0 2.32-1.01 2.32-2.3 0-1.3-1-2.3-2.32-2.3zm0 3.52h-1.43V4.08h1.43c.68 0 1.17.51 1.17 1.22 0 .7-.49 1.22-1.17 1.22zM86.564 10h1.33l1.49-5.11 1.48 5.11h1.33l1.98-7h-1.21l-1.47 5.47L89.914 3h-1.06l-1.59 5.47L85.794 3h-1.21l1.98 7zm9.01-7v7h1.15V3h-1.15zm7.599 0h-5.1v1.1h1.98V10h1.15V4.1h1.97V3zm5.5 0v2.87h-3V3h-1.15v7h1.15V6.97h3V10h1.15V3h-1.15z" fill="#b9b9b9"/><g fill="#fff"><path d="M117.223 4.329h2.394l.128-1.179-3.771-.011-.974 7.235h1.378l.46-3.216h2.404l.16-1.191h-2.403l.224-1.639zm7.256-.009l.161-1.181-4.148.011-.95 7.254 4.102-.011c0-.08.14-1.149.14-1.149h-2.745l.277-2.075h2.757l.17-1.211h-2.735l.224-1.638h2.747zm11.235 0l.162-1.181-4.147.011-.951 7.254 4.103-.011c0-.08.14-1.149.14-1.149h-2.748l.279-2.075h2.757l.171-1.211h-2.736l.224-1.638h2.746zm-8.052 4.916l-1.579.027-.003.015-.051-.002.643-4.94 1.017-.017s1.457 0 1.876 1.627l.006.03c.41 1.657-.797 3.124-1.909 3.26zm-.334-6.076l-1.864-.008-.942 7.253h1.36l.001-.004.09-.002c.234.021 1.821.143 2.858-.384 0 0 2.102-.752 2.082-3.759 0 0-.123-2.761-3.585-3.096m10.393 3.171l.262-2.019s1.355-.216 1.532.506c0 0 .311 1.341-1.1 1.519l-.694-.006zm3.135-1.174s.032-1.89-2.115-1.998h-2.002l-.953 7.254h1.405l.389-2.992.184.011.001-.001 1.734 2.982h1.437l-1.761-3.119s1.536-.246 1.681-2.137m3.461 2.531l1.112-1.852.539 1.862-1.651-.01zm-3.213 2.71h1.584l.928-1.542h2.687l.449 1.554h1.442l-2.395-7.557-4.695 7.544zm9.687-7.25l-1.334.011-.976 7.228h3.753l.143-1.147h-2.325l.739-6.091zm12.9 4.54l1.112-1.852.538 1.862-1.65-.01zm-3.212 2.71h1.583l.927-1.542h2.687l.45 1.554h1.441l-2.395-7.557-4.693 7.544z"/><path d="M159.127 8.971s-.36.461-1.745.303l-.04.004.286-2.096c.231-.016.774-.042.958.061 0 0 1.357.291.541 1.727h0zm-1.107-4.655l.026-.118s.845-.052 1.15.382c0 0 .595 1.016-.678 1.491l-.743.037.245-1.792zm1.717 2.307s1.12-.83.829-1.923c0 0-.137-1.397-2.035-1.543h-1.827l-.942 7.251h1.425l.003-.021.691.034s1.84 0 2.465-.91c0 0 1.217-1.595-.609-2.888m14.647-3.479l-.594 4.457-4.737-4.773-.939 7.567h1.328l.651-4.904 4.694 5.009 1.025-7.356h-1.428zm7.616.013h-1.578l-2.66 2.533.334-2.533-1.427-.013-.955 7.264h1.427l.379-2.882.225-.219 2.469 3.075h1.621l-3.062-4.078L182 3.157z"/></g></svg>