<svg xmlns="http://www.w3.org/2000/svg" width="28" height="28" fill="none"><path fill="#007A56" d="M9.143 9.11a1.3 1.3 0 0 1 1.84 0l2.984 2.984L16.95 9.11a1.301 1.301 0 0 1 1.84 1.84l-2.984 2.984 2.984 2.984a1.301 1.301 0 1 1-1.84 1.84l-2.984-2.984-2.984 2.984a1.301 1.301 0 1 1-1.84-1.84l2.983-2.984-2.983-2.984a1.3 1.3 0 0 1 0-1.84"/><path fill="#007A56" fill-rule="evenodd" d="M.086 13.934C.086 6.268 6.3.054 13.966.054c7.667 0 13.882 6.214 13.882 13.88s-6.215 13.88-13.881 13.88S.086 21.6.086 13.935m13.88-11.278c-6.228 0-11.277 5.05-11.277 11.278s5.049 11.278 11.278 11.278c6.228 0 11.278-5.05 11.278-11.278S20.195 2.656 13.967 2.656" clip-rule="evenodd"/></svg>