<svg xmlns="http://www.w3.org/2000/svg" width="28" height="29" fill="none"><path fill="#6BCDB6" fill-rule="evenodd" d="M13.967 10.762a3.47 3.47 0 1 0 0 6.94 3.47 3.47 0 0 0 0-6.94m-.868 3.47a.868.868 0 1 1 1.735 0 .868.868 0 0 1-1.735 0" clip-rule="evenodd"/><path fill="#6BCDB6" fill-rule="evenodd" d="M13.744.351c-1.517 0-2.8 1.12-3.008 2.622l-.151 1.096c-.02.146-.15.362-.461.485q-.168.066-.332.138c-.305.134-.55.075-.668-.013l-.534-.4a3.036 3.036 0 0 0-3.969.282l-.326.325a3.036 3.036 0 0 0-.282 3.97l.4.533c.09.118.148.363.014.668a10 10 0 0 0-.138.332c-.124.31-.339.44-.485.46l-1.097.152a3.036 3.036 0 0 0-2.621 3.008v.446c0 1.516 1.119 2.8 2.621 3.008l1.097.15c.146.021.361.151.485.462q.066.167.138.332c.134.305.075.55-.013.668l-.4.534a3.036 3.036 0 0 0 .281 3.968l.326.326a3.036 3.036 0 0 0 3.969.282l.534-.4c.118-.089.363-.148.668-.014q.165.073.332.139c.31.123.44.339.46.485l.152 1.096a3.036 3.036 0 0 0 3.008 2.622h.446c1.516 0 2.8-1.12 3.008-2.622l.15-1.096c.021-.146.151-.362.462-.485q.167-.066.332-.139c.305-.134.55-.075.668.014l.534.4c1.208.907 2.9.787 3.968-.282l.326-.325a3.036 3.036 0 0 0 .282-3.97l-.4-.533c-.089-.118-.148-.363-.014-.668q.072-.164.139-.332c.123-.31.338-.44.485-.461l1.096-.151a3.036 3.036 0 0 0 2.622-3.008v-.446c0-1.517-1.12-2.8-2.622-3.008l-1.096-.151c-.146-.02-.362-.15-.485-.461q-.067-.168-.139-.332c-.134-.305-.075-.55.014-.668l.4-.534a3.036 3.036 0 0 0-.282-3.969l-.326-.325a3.04 3.04 0 0 0-3.969-.282l-.533.4c-.118.088-.363.147-.669.013a10 10 0 0 0-.331-.138c-.31-.123-.441-.339-.461-.485l-.151-1.096A3.036 3.036 0 0 0 14.19.35zm-.43 2.977a.434.434 0 0 1 .43-.374h.446c.216 0 .4.16.43.374l.15 1.096c.173 1.253 1.077 2.15 2.079 2.549q.125.05.248.103c.988.433 2.263.444 3.274-.315l.534-.4a.434.434 0 0 1 .567.04l.326.326c.152.152.17.394.04.567l-.4.533c-.759 1.012-.749 2.286-.316 3.275q.054.123.104.248c.398 1.002 1.296 1.905 2.548 2.078l1.096.151c.215.03.375.213.375.43v.446c0 .216-.16.4-.375.43l-1.096.15c-1.252.173-2.15 1.077-2.548 2.079a8 8 0 0 1-.104.248c-.433.988-.443 2.263.316 3.275l.4.533a.434.434 0 0 1-.04.567l-.326.326a.434.434 0 0 1-.567.04l-.534-.4c-1.011-.759-2.286-.749-3.274-.316q-.123.054-.248.104c-1.002.398-1.906 1.296-2.078 2.548l-.152 1.096a.434.434 0 0 1-.43.375h-.445c-.217 0-.4-.16-.43-.375l-.151-1.096c-.173-1.252-1.076-2.15-2.078-2.548a8 8 0 0 1-.248-.104c-.989-.433-2.263-.443-3.275.316l-.534.4a.434.434 0 0 1-.567-.04l-.325-.326a.434.434 0 0 1-.04-.567l.4-.534c.758-1.011.748-2.286.315-3.274a8 8 0 0 1-.104-.248c-.398-1.002-1.296-1.906-2.548-2.078l-1.096-.152a.434.434 0 0 1-.374-.43v-.445c0-.217.16-.4.374-.43l1.096-.15c1.252-.174 2.15-1.077 2.548-2.079a8 8 0 0 1 .104-.248c.433-.989.443-2.263-.315-3.275l-.4-.533a.434.434 0 0 1 .04-.567L6.46 6.4a.434.434 0 0 1 .567-.04l.534.4c1.012.759 2.286.748 3.275.315q.123-.054.248-.103c1.002-.398 1.905-1.296 2.078-2.549z" clip-rule="evenodd"/></svg>