<svg xmlns="http://www.w3.org/2000/svg" width="25" height="25" fill="none"><path fill="#F6F9FD" fill-rule="evenodd" d="M20.5 12.75a8 8 0 1 1-16 0 8 8 0 0 1 16 0m-8.53-6.194c.299-.269.484-.306.53-.306s.231.037.53.306c.282.256.599.663.897 1.23.524.996.957 2.425 1.053 4.214h-4.96c.096-1.789.53-3.218 1.053-4.213.298-.568.615-.975.898-1.23M8.519 12c.098-2.02.585-3.69 1.227-4.912q.082-.155.168-.303A6.5 6.5 0 0 0 6.043 12zm-2.475 1.5h2.475c.098 2.02.585 3.69 1.227 4.912q.082.156.168.303a6.5 6.5 0 0 1-3.87-5.215m3.977 0h4.96c-.096 1.789-.53 3.218-1.053 4.214-.298.567-.615.974-.898 1.23-.298.269-.483.306-.529.306s-.231-.037-.53-.306c-.282-.256-.599-.663-.897-1.23-.524-.996-.957-2.425-1.053-4.214m6.462 0c-.098 2.02-.585 3.69-1.227 4.912q-.082.156-.168.303a6.5 6.5 0 0 0 3.87-5.215zm2.475-1.5a6.5 6.5 0 0 0-3.87-5.215q.085.148.168.303c.642 1.222 1.13 2.892 1.227 4.912z" clip-rule="evenodd"/></svg>