<svg xmlns="http://www.w3.org/2000/svg" width="18" height="18" fill="none"><path fill="#453C86" fill-rule="evenodd" d="M5.473 1c0-.473.383-.857.857-.857h5.332c.474 0 .858.384.858.857v16a.857.857 0 0 1-.858.857H6.33A.857.857 0 0 1 5.473 17zm1.714.857v14.286h3.618V1.857z" clip-rule="evenodd"/><path fill="#453C86" fill-rule="evenodd" d="M.143 6.647c0-.473.383-.857.857-.857h5.332c.474 0 .857.384.857.857V17a.857.857 0 0 1-.857.857H1A.857.857 0 0 1 .143 17zm1.714.857v8.639h3.618V7.504zM10.81 3.823c0-.473.384-.857.858-.857H17c.474 0 .858.384.858.857V17a.857.857 0 0 1-.858.857h-5.332A.857.857 0 0 1 10.81 17zm1.715.858v11.462h3.618V4.68z" clip-rule="evenodd"/></svg>