<svg width="24" height="25" viewBox="0 0 24 25" fill="none" xmlns="http://www.w3.org/2000/svg">
<path d="M9 5.5C9 5.08579 9.33579 4.75 9.75 4.75H17.25C18.7688 4.75 20 5.98122 20 7.5V18C20 19.5188 18.7688 20.75 17.25 20.75H9.75C9.33579 20.75 9 20.4142 9 20C9 19.5858 9.33579 19.25 9.75 19.25H17.25C17.9404 19.25 18.5 18.6904 18.5 18V7.5C18.5 6.80964 17.9404 6.25 17.25 6.25H9.75C9.33579 6.25 9 5.91421 9 5.5Z" fill="#F6F9FD"/>
<path d="M9.20041 8.98966C9.48226 8.68613 9.95681 8.66855 10.2603 8.9504L13.7603 12.2004C13.9132 12.3423 14 12.5414 14 12.75C14 12.9586 13.9132 13.1577 13.7603 13.2996L10.2603 16.5496C9.95681 16.8314 9.48226 16.8139 9.20041 16.5103C8.91856 16.2068 8.93613 15.7323 9.23967 15.4504L11.3401 13.5H4.75C4.33579 13.5 4 13.1642 4 12.75C4 12.3358 4.33579 12 4.75 12H11.3401L9.23967 10.0496C8.93613 9.76774 8.91856 9.29319 9.20041 8.98966Z" fill="#F6F9FD"/>
</svg>
