<svg xmlns="http://www.w3.org/2000/svg" width="27" height="29" fill="none"><path fill="#007A56" fill-rule="evenodd" d="M7.9.134c-1.987 0-3.199 2.186-2.145 3.871L7.633 7.01 1.467 17.165c-2.973 4.898.553 11.164 6.283 11.164h7.663a1.084 1.084 0 1 0 0-2.169H7.75c-4.04 0-6.525-4.417-4.429-7.87L9.517 8.087h8.966l1.846 2.458a1.085 1.085 0 0 0 1.735-1.302L20.34 6.948l1.84-2.943C23.233 2.32 22.02.134 20.034.134zm10.527 5.784 1.913-3.062a.361.361 0 0 0-.306-.553H7.9a.361.361 0 0 0-.306.553l1.914 3.062z" clip-rule="evenodd"/><path fill="#007A56" d="M18.81 27.245c0-.52.422-.94.94-.94h5.784a.94.94 0 1 1 0 1.88h-5.783a.94.94 0 0 1-.94-.94M19.75 22.69a.94.94 0 0 0 0 1.88h5.784a.94.94 0 0 0 0-1.88zM18.81 20.015c0-.519.422-.94.94-.94h5.784a.94.94 0 1 1 0 1.88h-5.783a.94.94 0 0 1-.94-.94M19.75 15.46a.94.94 0 0 0 0 1.88h5.784a.94.94 0 1 0 0-1.88zM18.81 12.786c0-.52.422-.94.94-.94h5.784a.94.94 0 0 1 0 1.88h-5.783a.94.94 0 0 1-.94-.94M9.883 13.017a.81.81 0 0 1 .578-.231h5.79c.2 0 .397.052.543.202.144.148.19.346.19.537 0 .205-.08.379-.196.515l-.017.02a.74.74 0 0 1-.52.205h-.96q.068.123.122.252c.09.203.152.405.194.613h.676c.2 0 .398.051.544.201.144.149.19.346.19.538 0 .205-.08.378-.197.515a.7.7 0 0 1-.537.241h-.7c-.143.62-.472 1.143-.975 1.588-.528.468-1.242.702-2.133.748l2.636 2.47c.109.088.176.178.234.272a.74.74 0 0 1 .106.4.74.74 0 0 1-.262.596.87.87 0 0 1-.57.208h-.016c-.27 0-.514-.122-.73-.332l-3.78-3.551-.006-.009-.062-.07c-.056-.062-.124-.138-.178-.216-.118-.15-.153-.35-.153-.532a.87.87 0 0 1 .263-.645l.013-.012a.96.96 0 0 1 .654-.226h1.5c.526 0 .91-.091 1.194-.263q.268-.16.406-.41h-3.28a.7.7 0 0 1-.537-.24.79.79 0 0 1-.196-.516c0-.211.074-.396.213-.533a.74.74 0 0 1 .52-.206h3.27a1.15 1.15 0 0 0-.366-.423l-.005-.004c-.235-.178-.547-.278-.958-.278h-1.924a.81.81 0 0 1-.585-.239.8.8 0 0 1-.247-.58c0-.211.065-.441.254-.605"/></svg>