<svg width="25" height="25" viewBox="0 0 25 25" fill="none" xmlns="http://www.w3.org/2000/svg">
<path fill-rule="evenodd" clip-rule="evenodd" d="M15.5303 9.71967C15.8232 10.0126 15.8232 10.4874 15.5303 10.7803L10.5303 15.7803C10.2374 16.0732 9.76256 16.0732 9.46967 15.7803C9.17678 15.4874 9.17678 15.0126 9.46967 14.7197L14.4697 9.71967C14.7626 9.42678 15.2374 9.42678 15.5303 9.71967Z" fill="#F6F9FD"/>
<path d="M10.5 10.25C10.2239 10.25 10 10.4739 10 10.75C10 11.0261 10.2239 11.25 10.5 11.25C10.7761 11.25 11 11.0261 11 10.75C11 10.4739 10.7761 10.25 10.5 10.25Z" fill="#F6F9FD"/>
<path fill-rule="evenodd" clip-rule="evenodd" d="M11.5 10.75C11.5 11.3023 11.0523 11.75 10.5 11.75C9.94772 11.75 9.5 11.3023 9.5 10.75C9.5 10.1977 9.94772 9.75 10.5 9.75C11.0523 9.75 11.5 10.1977 11.5 10.75Z" fill="#F6F9FD"/>
<path d="M14.5 15.25C14.7761 15.25 15 15.0261 15 14.75C15 14.4739 14.7761 14.25 14.5 14.25C14.2239 14.25 14 14.4739 14 14.75C14 15.0261 14.2239 15.25 14.5 15.25Z" fill="#F6F9FD"/>
<path fill-rule="evenodd" clip-rule="evenodd" d="M13.5 14.75C13.5 14.1977 13.9477 13.75 14.5 13.75C15.0523 13.75 15.5 14.1977 15.5 14.75C15.5 15.3023 15.0523 15.75 14.5 15.75C13.9477 15.75 13.5 15.3023 13.5 14.75Z" fill="#F6F9FD"/>
<path fill-rule="evenodd" clip-rule="evenodd" d="M12.5 5.5C12.3411 5.5 12.1837 5.53141 12.037 5.59244C11.8902 5.65346 11.757 5.74289 11.645 5.85558L11.6435 5.85707L11.0212 6.47938L11.0197 6.48087C10.5131 6.98465 9.82775 7.26761 9.11329 7.26802H8.22385C7.90404 7.26802 7.59733 7.39506 7.3712 7.6212C7.14506 7.84733 7.01802 8.15404 7.01802 8.47385V9.36286C7.01761 10.0773 6.73465 10.7631 6.23087 11.2697L6.22938 11.2712L5.60707 11.8935L5.60558 11.895C5.49289 12.007 5.40346 12.1402 5.34244 12.287C5.28141 12.4337 5.25 12.5911 5.25 12.75C5.25 12.9089 5.28141 13.0663 5.34244 13.213C5.40346 13.3598 5.49289 13.493 5.60558 13.605L5.60707 13.6065L6.23087 14.2303C6.73465 14.7369 7.01761 15.4222 7.01802 16.1367V17.0262C7.01802 17.346 7.14506 17.6527 7.3712 17.8788C7.59733 18.1049 7.90404 18.232 8.22385 18.232H9.11286C9.82732 18.2324 10.5131 18.5154 11.0197 19.0191L11.0212 19.0206L11.645 19.6444C11.757 19.7571 11.8902 19.8465 12.037 19.9076C12.1837 19.9686 12.3411 20 12.5 20C12.6589 20 12.8163 19.9686 12.963 19.9076C13.1098 19.8465 13.243 19.7571 13.355 19.6444L13.3565 19.6429L13.9788 19.0206L13.9803 19.0191C14.4869 18.5154 15.1723 18.2324 15.8867 18.232H16.7762C17.096 18.232 17.4027 18.1049 17.6288 17.8788C17.8549 17.6527 17.982 17.346 17.982 17.0262V16.1371C17.9824 15.4227 18.2654 14.7369 18.7691 14.2303L18.7706 14.2288L19.3929 13.6065L19.3944 13.605C19.5071 13.493 19.5965 13.3598 19.6576 13.213C19.7186 13.0663 19.75 12.9089 19.75 12.75C19.75 12.5911 19.7186 12.4337 19.6576 12.287C19.5965 12.1402 19.5071 12.007 19.3944 11.895L19.3929 11.8935L18.7706 11.2712L18.7691 11.2697C18.2654 10.7631 17.9824 10.0777 17.982 9.36329V8.47385C17.982 8.15404 17.8549 7.84733 17.6288 7.6212C17.4027 7.39506 17.096 7.26802 16.7762 7.26802H15.8871C15.1727 7.26761 14.4869 6.98465 13.9803 6.48087L13.9788 6.47938L13.3565 5.85707L13.355 5.85558C13.243 5.74289 13.1098 5.65346 12.963 5.59244C12.8163 5.53141 12.6589 5.5 12.5 5.5ZM11.461 4.20743C11.7903 4.07049 12.1434 4 12.5 4C12.8566 4 13.2097 4.07049 13.539 4.20743C13.8679 4.34423 14.1667 4.54465 14.418 4.79718C14.4182 4.79742 14.4184 4.79766 14.4187 4.7979L15.038 5.41723C15.0378 5.41703 15.0382 5.41743 15.038 5.41723C15.2637 5.64132 15.5693 5.76779 15.8874 5.76802C15.8873 5.76802 15.8874 5.76802 15.8874 5.76802H16.7762C17.4938 5.76802 18.182 6.0531 18.6895 6.56054C19.1969 7.06798 19.482 7.75622 19.482 8.47385V9.36243C19.4822 9.68048 19.608 9.98556 19.832 10.2113C19.8323 10.2115 19.8325 10.2117 19.8328 10.212L20.4521 10.8313C20.4524 10.8316 20.4527 10.8319 20.4529 10.8321C20.7054 11.0834 20.9058 11.3821 21.0426 11.711C21.1795 12.0403 21.25 12.3934 21.25 12.75C21.25 13.1066 21.1795 13.4597 21.0426 13.789C20.9058 14.1179 20.7054 14.4166 20.4528 14.668C20.4526 14.6682 20.4523 14.6684 20.4521 14.6687L19.8328 15.288C19.8326 15.2882 19.833 15.2878 19.8328 15.288C19.6086 15.5137 19.4822 15.8195 19.482 16.1376V17.0262C19.482 17.7438 19.1969 18.432 18.6895 18.9395C18.182 19.4469 17.4938 19.732 16.7762 19.732H15.8876C15.5695 19.7322 15.2643 19.858 15.0386 20.0822C15.0384 20.0824 15.0388 20.082 15.0386 20.0822L14.4187 20.7021C14.4184 20.7023 14.4182 20.7026 14.418 20.7028C14.1666 20.9554 13.8679 21.1558 13.539 21.2926C13.2097 21.4295 12.8566 21.5 12.5 21.5C12.1434 21.5 11.7903 21.4295 11.461 21.2926C11.1321 21.1558 10.8334 20.9554 10.5821 20.7029C10.5819 20.7027 10.5816 20.7024 10.5813 20.7021L9.96199 20.0828C9.96175 20.0825 9.9615 20.0823 9.96125 20.082C9.73556 19.858 9.43048 19.7322 9.11243 19.732H8.22385C7.50622 19.732 6.81798 19.4469 6.31054 18.9395C5.8031 18.432 5.51802 17.7438 5.51802 17.0262L5.51802 16.1376C5.51802 16.1375 5.51802 16.1376 5.51802 16.1376C5.51779 15.8195 5.39191 15.5143 5.16782 15.2886C5.16763 15.2884 5.16802 15.2888 5.16782 15.2886L4.5479 14.6687C4.54766 14.6684 4.54742 14.6682 4.54718 14.668C4.29465 14.4167 4.09423 14.1179 3.95743 13.789C3.82049 13.4597 3.75 13.1066 3.75 12.75C3.75 12.3934 3.82049 12.0403 3.95743 11.711C4.09423 11.3821 4.29464 11.0834 4.54716 10.8321C4.54741 10.8318 4.54766 10.8316 4.5479 10.8313L5.16723 10.212C5.16701 10.2122 5.16745 10.2118 5.16723 10.212C5.39127 9.98633 5.51779 9.68063 5.51802 9.36262C5.51802 9.36255 5.51802 9.36268 5.51802 9.36262V8.47385C5.51802 7.75622 5.8031 7.06798 6.31054 6.56054C6.81798 6.0531 7.50622 5.76802 8.22385 5.76802L9.11243 5.76802C9.11237 5.76802 9.11249 5.76802 9.11243 5.76802C9.43044 5.76779 9.73566 5.64194 9.96132 5.4179C9.9611 5.41812 9.96154 5.41768 9.96132 5.4179L10.5813 4.7979C10.5816 4.79766 10.5818 4.79741 10.5821 4.79716C10.8334 4.54464 11.1321 4.34423 11.461 4.20743Z" fill="#F6F9FD"/>
</svg>
