<svg xmlns="http://www.w3.org/2000/svg" width="28" height="28" fill="none"><path fill="#6BCDB6" fill-rule="evenodd" d="M13.489.888a1.25 1.25 0 0 1 1.023 0l12.083 5.416c.422.19.705.596.736 1.058l-1.247.083 1.247-.083v.007l.001.013.003.048.008.172q.011.224.018.629a33 33 0 0 1-.042 2.208c-.094 1.816-.364 4.262-1.076 6.728-.71 2.458-1.885 5.021-3.846 6.982-1.994 1.994-4.734 3.296-8.397 3.296-3.662 0-6.403-1.302-8.397-3.296-1.96-1.961-3.135-4.524-3.845-6.982C1.045 14.7.776 12.255.682 10.439a33 33 0 0 1-.043-2.208 23 23 0 0 1 .027-.801l.002-.048.001-.013v-.005s0-.002 1.248.081L.67 7.362a1.25 1.25 0 0 1 .736-1.058zM3.139 8.267v.003a30 30 0 0 0 .04 2.04c.087 1.7.339 3.942.98 6.163.645 2.23 1.658 4.354 3.212 5.908 1.522 1.522 3.625 2.564 6.63 2.564 3.003 0 5.107-1.042 6.628-2.564 1.555-1.554 2.568-3.678 3.212-5.908.642-2.221.893-4.463.981-6.163.044-.847.047-1.55.04-2.04v-.003L14 3.398z" clip-rule="evenodd"/></svg>