<svg xmlns="http://www.w3.org/2000/svg" width="24" height="24" fill="none"><path fill="#6BCDB6" fill-rule="evenodd" d="M13.178 1.07C11.803.18 10.013.81 9.384 2.237L6.06 9.832H3.939C2.079 9.796.627 11.33.409 13.018a1 1 0 0 0-.01.14v7.432q0 .078.012.157a3.6 3.6 0 0 0 1.185 2.193c.658.573 1.494.86 2.331.86h14.966c.747 0 1.497-.256 2.084-.772a3.17 3.17 0 0 0 1.07-1.962l1.446-9.554.001-.009a3.2 3.2 0 0 0-.092-1.376 3.2 3.2 0 0 0-.657-1.197 3.3 3.3 0 0 0-1.075-.816 3.14 3.14 0 0 0-1.346-.292h-5.19V4.67a4.32 4.32 0 0 0-1.235-3.013l-.009-.01a5 5 0 0 0-.712-.577M5.634 12v9.63H3.927c-.348 0-.669-.118-.907-.326a1.42 1.42 0 0 1-.452-.804v-7.263c.125-.735.759-1.25 1.334-1.237h1.732m2.169 9.63h11.09c.261 0 .492-.09.655-.233l.015-.014c.18-.153.302-.373.338-.629l.002-.009 1.445-9.552c.024-.171.01-.326-.024-.442a1.1 1.1 0 0 0-.211-.393 1.15 1.15 0 0 0-.371-.284 1 1 0 0 0-.418-.083h-6.098a1.09 1.09 0 0 1-.944-.303l-.014-.015c-.251-.25-.36-.603-.304-.943V4.67c0-.55-.217-1.086-.612-1.493a3 3 0 0 0-.363-.293c-.188-.112-.5-.046-.62.228l-3.566 8.147z" clip-rule="evenodd"/></svg>