<svg xmlns="http://www.w3.org/2000/svg" width="28" height="28" fill="none"><path fill="#6BCDB6" d="M18.835 10.984a1.25 1.25 0 1 0-2.169-1.244l-3.822 6.662a.417.417 0 0 1-.74-.03l-.722-1.541a1.25 1.25 0 1 0-2.263 1.062l.723 1.54c1.002 2.137 3.995 2.26 5.17.213z"/><path fill="#6BCDB6" fill-rule="evenodd" d="M14 .778C6.637.778.667 6.748.667 14.112S6.637 27.445 14 27.445s13.334-5.97 13.334-13.333S21.364.778 14 .778M3.167 14.112C3.167 8.129 8.017 3.278 14 3.278s10.834 4.85 10.834 10.834c0 5.983-4.85 10.833-10.834 10.833-5.983 0-10.833-4.85-10.833-10.833" clip-rule="evenodd"/></svg>