<svg xmlns="http://www.w3.org/2000/svg" width="25" height="20" fill="none"><path fill="#007A56" fill-rule="evenodd" d="M6.91 1.96c0-.718.583-1.301 1.301-1.301H22.96c.719 0 1.302.583 1.302 1.301V16.71a1.301 1.301 0 1 1-2.602 0V3.262H8.21a1.3 1.3 0 0 1-1.3-1.302" clip-rule="evenodd"/><path fill="#007A56" fill-rule="evenodd" d="M23.068 1.82c.55.463.619 1.284.155 1.834L12.967 15.806a1.301 1.301 0 0 1-2.257-.524l-1.12-4.478-7.04 8.318a1.301 1.301 0 1 1-1.987-1.681L9.244 7.185a1.301 1.301 0 0 1 2.256.526l1.118 4.473 8.616-10.209a1.3 1.3 0 0 1 1.834-.155" clip-rule="evenodd"/></svg>