<svg xmlns="http://www.w3.org/2000/svg" width="24" height="24" fill="none"><path fill="#004E2D" fill-rule="evenodd" d="M11.2 5.6a.8.8 0 0 1 .8-.8h6.4a.8.8 0 0 1 .8.8V12a.8.8 0 1 1-1.6 0V6.4H12a.8.8 0 0 1-.8-.8" clip-rule="evenodd"/><path fill="#004E2D" fill-rule="evenodd" d="M18.966 5.034a.8.8 0 0 1-.001 1.131l-7.195 7.188a.8.8 0 0 1-.95.136l-1.885-1.034-3.563 3.564a.8.8 0 0 1-1.132-1.131L8.228 10.9a.8.8 0 0 1 .95-.136l1.885 1.034 6.771-6.765a.8.8 0 0 1 1.131 0" clip-rule="evenodd"/><path fill="#004E2D" fill-rule="evenodd" d="M4.234 19.766A.8.8 0 0 1 4 19.2V4.8a.8.8 0 1 1 1.6 0v13.6h13.6a.8.8 0 0 1 0 1.6H4.8a.8.8 0 0 1-.566-.234" clip-rule="evenodd"/></svg>