<svg xmlns="http://www.w3.org/2000/svg" width="25" height="25" fill="none"><g fill="#F6F9FD" stroke="#F6F9FD" stroke-miterlimit="10" stroke-width=".321" clip-path="url(#a)"><path d="M18.988 13.044c-.01-.215-.01-.408-.029-.6a9 9 0 0 0-.093-.766c-.45-2.68-1.928-4.711-4.02-6.354-.431-.34-.884-.315-1.158.045-.276.367-.173.769.245 1.135.501.44 1.012.874 1.465 1.363 2.266 2.449 2.716 5.762 1.196 8.636-.662 1.25-1.604 2.253-2.716 3.11-.386.3-.46.73-.196 1.08.26.344.7.396 1.093.103q.385-.29.742-.61c2.134-1.916 3.41-4.243 3.465-7.145zm-3.38-.038c-.055-2.514-1.286-4.455-3.282-5.969a.717.717 0 0 0-1.029.145c-.244.321-.173.736.138 1.038.544.527 1.132 1.022 1.588 1.617 1.424 1.857 1.475 4.307.12 6.216-.454.64-1.062 1.18-1.63 1.732-.373.36-.482.765-.212 1.115.27.347.713.376 1.128.068q.23-.174.446-.367c1.665-1.469 2.674-3.262 2.732-5.595Zm-3.385.045c-.035-1.797-.89-3.153-2.285-4.207a.734.734 0 0 0-1.006.115c-.257.312-.222.75.093 1.042.16.148.34.276.495.427 1.025 1.016 1.504 2.202 1.041 3.638-.263.826-.82 1.443-1.485 1.974-.36.286-.414.73-.157 1.057a.726.726 0 0 0 1.032.135c1.378-1.048 2.233-2.391 2.275-4.178zm-3.384-.016c0-.977-.466-1.771-1.273-2.369-.164-.119-.466-.19-.636-.119-.216.09-.421.321-.521.54-.125.276.016.55.257.746.418.337.723.732.678 1.308-.038.485-.334.813-.684 1.112-.344.292-.38.742-.113 1.06.26.312.688.367 1.038.097.759-.585 1.225-1.337 1.257-2.375z"/><path d="M18.989 13.045c-.055 2.899-1.334 5.229-3.465 7.144a10 10 0 0 1-.742.61c-.392.29-.832.242-1.093-.102-.263-.35-.19-.781.196-1.08 1.112-.858 2.054-1.864 2.716-3.111 1.52-2.873 1.067-6.187-1.196-8.636-.45-.488-.964-.922-1.465-1.363-.421-.366-.524-.768-.244-1.134.273-.36.723-.386 1.157-.045 2.092 1.642 3.57 3.673 4.02 6.354.042.254.068.508.093.765.017.193.02.385.03.6z"/><path d="M15.608 13.006c-.058 2.33-1.064 4.124-2.732 5.596q-.215.192-.447.366c-.414.308-.858.28-1.128-.067-.27-.35-.16-.753.212-1.116.57-.553 1.174-1.09 1.63-1.732 1.356-1.912 1.305-4.358-.119-6.216-.456-.594-1.045-1.09-1.588-1.616-.312-.303-.382-.717-.138-1.039a.715.715 0 0 1 1.028-.144c2 1.517 3.227 3.455 3.282 5.968Z"/><path d="M12.224 13.05c-.042 1.788-.897 3.128-2.276 4.179a.726.726 0 0 1-1.032-.135c-.257-.328-.199-.771.158-1.058.668-.53 1.221-1.147 1.485-1.973.46-1.437-.02-2.623-1.042-3.638-.154-.154-.334-.28-.495-.428-.315-.289-.35-.73-.093-1.04a.73.73 0 0 1 1.006-.117c1.398 1.055 2.25 2.41 2.285 4.207z"/><path d="M8.839 13.035c-.032 1.038-.498 1.79-1.257 2.375-.347.267-.774.215-1.038-.097-.267-.318-.231-.77.113-1.06.353-.299.649-.627.684-1.112.045-.575-.26-.97-.678-1.308-.24-.193-.382-.466-.257-.746.1-.218.305-.45.52-.54.171-.07.476 0 .637.12.807.597 1.276 1.39 1.273 2.368z"/></g><defs><clipPath id="a"><path fill="#fff" d="M6.2 4.926h12.95V21.15H6.2z"/></clipPath></defs></svg>