<svg xmlns="http://www.w3.org/2000/svg" width="59" height="22" fill="none"><g fill="#fff" clip-path="url(#a)"><path d="M26.0747 15.4651V9.2358c0-.621-.121-1.1237-.3729-1.5574-.4332-.7491-1.1385-1.1236-2.0958-1.1236h-.0705c-1.4006.0295-2.3679.8673-2.5794 2.2473-.0807.5027-.0807 1.0152-.0807 1.508V15.4849h-1.9043V9.3048c0-.3352-.0403-.6506-.1109-.9463-.2821-1.1138-1.1587-1.784-2.3477-1.784h-.0906c-1.3502.0394-2.1664.8674-2.2268 2.2966-.0202.3745-.0202.759-.0101 1.1236v5.4902h-1.8842v-1.3898c0-1.7348 0-3.5287.0201-5.293.0101-1.1434.3527-2.06 1.0479-2.7993.6953-.7393 1.6122-1.0941 2.7911-1.0941h.2217c.937.0394 1.6524.2267 2.2671.5914.3828.2366.7053.5421.9572.9265l.4433.6703.4736-.6407c.3224-.4436.6751-.759 1.058-.966.7355-.3942 1.5114-.5815 2.3577-.5815.3628 0 .7457.0394 1.1386.1084 1.0076.1873 1.7533.7097 2.2873 1.5968.3728.6111.5642 1.2616.5743 1.922.0202 1.3208.0202 2.6613.0202 3.9525v3.0063h-1.8943l.0101-.0296ZM51.1155 15.4457v-11c0-1.035.2016-1.8432.6449-2.5332.534-.828 1.3502-1.3208 2.4686-1.4883.3628-.0592.7456-.069 1.1386-.0888h.0605v1.7447c-.1512 0-.3124.0197-.4736.0394-1.33.1676-2.0757 1.163-1.9346 2.5824l.0504.4929h2.3578v1.7347h-2.4283v8.526h-1.8943l.01-.0098ZM44.6062 0h-1.864v15.4552h1.864V0ZM48.8484 5.2139h-1.864v10.241h1.864V5.2139ZM57.0195 15.455V5.2041h1.8842V15.455h-1.8842ZM8.8757 6.7718v-1.232h1.723v5.1845c.0101.3253.0101.6407 0 .9758v3.7751h-1.713v-1.577c-1.471 2.0107-3.7583 1.8727-3.7583 1.8727-.1108 0-.2317.0099-.3425.0099-2.247 0-4.1614-1.5968-4.645-3.8934-.383-1.8038 0-3.3907 1.1385-4.7213.8867-1.035 2.0051-1.5574 3.4259-1.6264.2317-.0098.4231-.0197.6045-.0197.7456 0 1.2797.1282 1.7935.2957.5542.1676 1.7734.9463 1.7734.9463m-3.587.345c-2.0455 0-3.5468 1.4883-3.567 3.5385 0 1.0053.3527 1.922 1.0177 2.5725.6449.6407 1.5517.9956 2.5392.9956h.0201c1.0076 0 1.9245-.3549 2.5795-1.0054.6448-.6407.9975-1.5574.9975-2.5529 0-2.0502-1.5114-3.5385-3.587-3.5385M31.5896 13.7794v8.2204h-1.8943V5.1647h1.8943v1.2912s1.4308-1.6264 4.3125-1.6165c1.3603 0 2.6299.5618 3.5971 1.5672.9774 1.025 1.5114 2.405 1.5114 3.8934 0 1.4883-.534 2.8683-1.5114 3.8933-.9572 1.0054-2.2368 1.5574-3.5971 1.5574 0 0-2.7104.1478-4.3125-1.9713Zm4.0304-7.215c-1.058 0-2.0051.3745-2.6903 1.0447-.6852.6801-1.058 1.6362-1.058 2.6909 0 2.1684 1.582 3.7356 3.7483 3.7356 2.1663 0 3.7785-1.5672 3.7785-3.7356 0-2.1685-1.592-3.7357-3.7785-3.7357Z"/></g><defs><clipPath id="a"><path fill="#fff" d="M0 0h59v22H0z"/></clipPath></defs></svg>