<svg width="153" height="51" viewBox="0 0 153 51" fill="none" xmlns="http://www.w3.org/2000/svg">
<path d="M68.1583 36.0662V35.1473C68.1583 33.5392 68.1583 32.1609 68.1583 30.5528C68.1583 27.5663 68.1583 24.5798 68.1583 21.3636C68.1583 19.9853 67.9286 18.8366 67.2394 17.688C66.3205 16.0799 64.7124 15.161 62.6448 15.161C62.6448 15.161 62.6448 15.161 62.4151 15.161C59.1989 15.161 57.1313 17.2285 56.4422 20.4447C56.2124 21.5934 56.2124 22.742 56.2124 23.8906V24.1204C56.2124 26.8771 56.2124 29.6338 56.2124 32.3906C56.2124 33.5392 56.2124 34.6879 56.2124 35.8365H51.8476V34.9176C51.8476 33.3095 51.8476 31.9311 51.8476 30.323C51.8476 27.3366 51.8476 24.3501 51.8476 21.3636C51.8476 20.6745 51.8476 19.7555 51.6179 19.0664C51.1584 16.7691 49.0909 15.161 46.3341 15.161H46.1044C43.1179 15.161 41.2801 17.2285 41.0504 20.4447C41.0504 21.3636 41.0504 22.2825 41.0504 22.9717C41.0504 23.2015 41.0504 23.4312 41.0504 23.6609V35.8365H36.6855C36.6855 34.6879 36.6855 33.769 36.6855 32.6203C36.6855 28.4852 36.6855 24.3501 36.6855 20.215C36.6855 17.4583 37.6045 15.3907 38.9828 13.7826C40.5909 12.1745 42.6585 11.2556 45.4152 11.2556C45.6449 11.2556 45.6449 11.2556 45.8747 11.2556C47.9422 11.2556 49.5503 11.7151 50.9287 12.634C51.8476 13.0934 52.5368 13.7826 53.226 14.7015L54.1449 16.3096L55.2935 14.7015C55.9827 13.5529 56.9016 12.8637 57.8205 12.4042C59.4286 11.4853 61.2664 11.0259 63.1043 11.0259C64.0232 11.0259 64.7124 11.0259 65.6313 11.2556C67.9286 11.7151 69.5367 12.8637 70.915 14.9313C71.8339 16.3096 72.2934 17.9177 72.2934 19.2961C72.2934 22.2826 72.2934 25.4987 72.2934 28.4852C72.2934 29.6338 72.2934 31.0122 72.2934 32.1609V35.377H68.1583V36.0662Z" fill="white"/>
<path d="M125.361 35.8371V34.9182C125.361 26.8777 125.361 18.3778 125.361 10.1076C125.361 7.58055 125.821 5.74273 126.739 4.13463C127.888 2.29681 129.726 1.14817 132.483 0.688712C133.402 0.458984 134.091 0.458984 135.01 0.458984C135.01 0.458984 135.01 0.458984 135.239 0.458984V4.59409C134.78 4.59409 134.55 4.59409 134.091 4.59409C131.104 5.05354 129.266 7.35082 129.726 10.567V11.7157H135.01V15.8508H129.496V35.8371H125.361Z" fill="white"/>
<path d="M110.658 0H106.293V36.0673H110.658V0Z" fill="white"/>
<path d="M120.077 12.1748H115.942V36.0665H120.077V12.1748Z" fill="white"/>
<path d="M138.685 35.8375C138.685 28.0268 138.685 19.9863 138.685 11.9458C139.145 11.9458 139.604 11.9458 140.064 11.9458C140.753 11.9458 141.442 11.9458 142.131 11.9458C142.361 11.9458 142.591 11.9458 143.05 11.9458V35.8375H138.685Z" fill="white"/>
<path d="M29.1049 15.6215V12.8647H33.0103V25.0403C33.0103 25.7295 33.0103 26.4187 33.0103 27.3376C33.0103 27.7971 33.0103 28.4862 33.0103 28.9457C33.0103 30.7835 33.0103 32.6214 33.0103 34.2294C33.0103 34.9186 33.0103 35.6078 33.0103 36.0673H29.1049V32.3916C25.659 36.9862 20.6049 36.7565 20.6049 36.7565C20.3752 36.7565 20.1455 36.7565 19.9158 36.7565C14.8617 36.7565 10.4969 33.0808 9.34827 27.7971C8.42936 23.662 9.34827 19.9863 11.8753 16.7701C13.9428 14.4728 16.4698 13.0945 19.686 13.0945C20.1455 13.0945 20.6049 13.0945 21.0644 13.0945C22.6725 13.0945 24.0509 13.3242 25.1995 13.7837C26.1184 14.0134 29.1049 15.6215 29.1049 15.6215ZM20.8347 16.5404C16.2401 16.5404 12.7942 19.9863 12.7942 24.8106C12.7942 27.1079 13.7131 29.1754 15.0915 30.7835C16.4698 32.1619 18.5374 33.0808 20.8347 33.0808C23.1319 33.0808 25.1995 32.1619 26.8076 30.7835C28.186 29.1754 29.1049 27.1079 29.1049 24.8106C29.1049 19.9863 25.659 16.5404 20.8347 16.5404Z" fill="white"/>
<path d="M80.7935 31.9323V50.9998H76.4287V11.946H80.7935V14.9325C80.7935 14.9325 84.0097 11.0271 90.6719 11.2568C93.6583 11.2568 96.6448 12.6352 98.9421 14.9325C101.239 17.2298 102.388 20.4459 102.388 24.1216C102.388 27.5675 101.239 30.7837 98.9421 33.081C96.6448 35.3783 93.888 36.7566 90.6719 36.7566C90.6719 36.5269 84.4692 36.9864 80.7935 31.9323ZM89.9827 15.1622C87.6854 15.1622 85.3881 16.0811 83.78 17.6892C82.1719 19.2973 81.253 21.5946 81.253 23.8919C81.253 28.9459 84.9286 32.6215 89.7529 32.6215C94.807 32.6215 98.2529 28.9459 98.2529 23.8919C98.4826 18.8378 95.0367 15.1622 89.9827 15.1622Z" fill="white"/>
</svg>
