<svg xmlns="http://www.w3.org/2000/svg" width="34" height="34" fill="none"><circle cx="17" cy="17" r="16.375" fill="#00B899" stroke="#F1F1F1" stroke-width=".75"/><path fill="#fff" d="M18.939 12.15c0-1.183.981-2.14 2.19-2.14 1.21 0 2.192.959 2.192 2.14 0 1.183-.982 2.141-2.192 2.141-1.21 0-2.19-.957-2.19-2.14ZM25 20.584h-.49c-1.004 0-1.511-.724-1.511-1.864v-2.14h-3.713v3.034c0 3.296 2.152 4.68 4.235 4.68H25v-3.71ZM12.719 21.6c0-1.102.6-1.604 1.82-1.604h3.027V16.57H12.72v-1.415c0-1.12.951-1.728 2.087-1.728h2.756V10h-3.703C10.95 10 9 11.563 9 14.84v9.444h3.719V21.6Z"/></svg>