<svg width="16" height="16" fill="none" xmlns="http://www.w3.org/2000/svg"><path d="M3.707 6.061a.676.676 0 0 0 0 1.352h8.586a.676.676 0 1 0 0-1.352H3.707Z" fill="#00B899"/><path fill-rule="evenodd" clip-rule="evenodd" d="M4.635.676a.676.676 0 1 0-1.352 0V2.02h-.587A2.696 2.696 0 0 0 0 4.717v8.586A2.696 2.696 0 0 0 2.696 16h10.607A2.696 2.696 0 0 0 16 13.303V4.717a2.696 2.696 0 0 0-2.697-2.697h-.586V.676a.676.676 0 0 0-1.352 0V2.02h-6.73V.676Zm6.73 3.536v-.84h-6.73v.84a.676.676 0 1 1-1.352 0v-.84h-.587c-.742 0-1.344.602-1.344 1.345v8.586c0 .743.602 1.345 1.344 1.345h10.607c.743 0 1.345-.602 1.345-1.345V4.717c0-.743-.602-1.344-1.345-1.344h-.586v.839a.676.676 0 0 1-1.352 0Z" fill="#00B899"/></svg>