<svg xmlns="http://www.w3.org/2000/svg" width="138" height="138" fill="none"><path fill="#CDC6E8" d="M127.502 73.614c.31-1.385.334-3.2.074-5.448-.335-2.855-1.097-5.671-2.284-8.448-1.482-3.467-3.538-6.613-6.167-9.44-3.136-3.371-6.997-6.184-11.586-8.438-4.958-2.424-10.204-4.263-15.737-5.517a75.426 75.426 0 0 0-16.595-1.86c-2.234-.002-5.13.146-8.69.447-4.631.39-7.526.615-8.685.676-1.229.063-2.89-.104-4.985-.503-2.629-.566-4.7-1.002-6.21-1.308-2.746-.564-5.195-.945-7.351-1.145-2.915-.268-5.723-.267-8.421.005-3.864.39-7.281 1.492-10.255 3.306-2.982 1.815-5.409 4.28-7.281 7.399-1.907 3.178-3.174 6.924-3.801 11.238-.648 4.462-.587 9.4.182 14.819.563 3.99 1.968 7.72 4.213 11.19 2.3 3.554 5.147 6.306 8.542 8.257.284.164.474.279.572.342.209.136.38.271.516.407.026.026.108.115.247.265.102.11.19.193.265.251.15.119.358.219.624.3.147.042.372.106.676.19.26.087.61.253 1.049.498.465.263.81.436 1.035.52.443.168.964.26 1.565.278.332.008.87-.013 1.612-.065a48.872 48.872 0 0 1 3.836-.117c1.358.017 2.63.106 3.819.269.817.112 1.8.292 2.947.537.652.139 1.63.353 2.93.641 1.22.26 2.604.518 4.156.772.878.145 2.273.358 4.182.641 1.42.214 2.527.376 3.325.486 1.228.167 2.34.3 3.337.398 2.95.293 6.738.436 11.364.43 1.265 0 3.164-.007 5.695-.022 2.228-.006 4.126.015 5.695.06.491.015 1.924.072 4.3.17 1.753.075 3.187.115 4.299.12 3.291.024 6.126-.218 8.508-.727 11.546-2.462 19.603-6.419 24.171-11.871 1.534-1.832 2.659-3.833 3.376-6.003.237-.72.442-1.502.616-2.35.153-.823.26-1.373.32-1.65Zm-62.783-2.488c.142.096.275.206.398.33.105.102.194.209.269.32-1.28.536-2.587.954-3.918 1.257a34.47 34.47 0 0 1 3.25-1.907Z"/><path fill="#313234" d="M116.715 93.737c2.806-.526 4.208-1.1 4.208-1.72 0-1.174-5.033-2.176-15.1-3.009-10.066-.83-22.219-1.244-36.458-1.244-14.24 0-26.392.415-36.459 1.244-10.066.833-15.1 1.835-15.1 3.008 0 .622 1.403 1.195 4.209 1.72 2.508.469 6.139.898 10.891 1.288 10.067.83 22.22 1.244 36.459 1.244 14.24 0 26.392-.414 36.458-1.244 4.754-.39 8.384-.82 10.892-1.287Z"/><path fill="#fff" d="M67.176 47.886c.225-.916.465-1.688.72-2.318.12-.254.249-.51.385-.767.266-.512.548-1.025.845-1.54a68.94 68.94 0 0 1 1.196-1.793c.246-.356.48-.666.702-.932.312-.367.73-.802 1.253-1.305.919-.873 1.735-1.541 2.449-2.007.193-.123.628-.35 1.304-.68.746-.361 1.255-.579 1.526-.654.46-.128.98-.226 1.56-.295.306-.037.691-.072 1.153-.104.07.011.152.006.247-.017.121-.033.178-.083.17-.152-.012-.09-.09-.165-.23-.226a1.557 1.557 0 0 0-.512-.095c-.613-.035-1.069-.032-1.37.009-.96.13-1.87.358-2.73.684-.812.31-1.62.722-2.423 1.236a9.359 9.359 0 0 0-1.643 1.365c-.181.162-.38.357-.593.585-1.575 1.682-2.988 3.766-4.239 6.254-.843 1.682-1.454 3.244-1.833 4.685-.362 1.407-.525 2.752-.49 4.035.002.16.01.317.022.473-.02.07-.033.145-.04.23a3.03 3.03 0 0 0 .005.36l.06.957c.024.367.059.639.105.815.014.06.058.195.13.403.054.162.089.297.104.403.023.173.039.276.047.308l.009.035-.264.026h-.013c-1.29.294-2.611.834-3.966 1.62-.523.301-.96.592-1.313.872-1 .803-1.838 1.926-2.514 3.371-.127.272-.252.567-.373.885a19.16 19.16 0 0 0-.399 1.092 60.351 60.351 0 0 0-.632 2.05l-.191.325c-.06.11-.127.162-.2.156a.215.215 0 0 1-.112-.052l-.108-.074a4.989 4.989 0 0 1-.01-.511c.016-.295.057-.64.127-1.036a12.808 12.808 0 0 1 1.438-4.044 13.935 13.935 0 0 0-.247-.724c-.277-.002-.53.126-.758.386-.18.202-.336.475-.473.82-.38.97-.686 2.052-.914 3.246a33.105 33.105 0 0 0-.442 3.363 57.031 57.031 0 0 0 .576 14.424c.102.607.2 1.1.295 1.482.136.531.302 1.003.498 1.413a5.89 5.89 0 0 0 1.045 1.526c.182.196.375.378.58.546a.768.768 0 0 1 .04-.113c.15-.318.245-.653.286-1.005.037-.356.019-.704-.056-1.045-.027-.113-.035-.193-.027-.238.012-.098.055-.159.13-.182.044.086.083.21.118.372a3.866 3.866 0 0 1-.196 2.163.545.545 0 0 1-.117.186c.22.168.453.32.698.456.185.104.364.188.538.255.046-.095.132-.275.26-.537.118-.249.184-.462.2-.642a1.874 1.874 0 0 0-.018-.386c-.029-.17-.05-.299-.06-.385a5.2 5.2 0 0 1 .004-.824.25.25 0 0 1 .034-.121c.026-.04.058-.056.095-.048.038.012.063.05.074.113.02.107.032.245.035.416.006.228.01.367.013.416l.043.312c.02.13.032.234.035.312.009.234-.037.492-.139.772-.058.167-.16.397-.308.689.31.084.6.101.872.052.19-.035.301-.054.333-.056a.318.318 0 0 1 .091.004v-.005a6.632 6.632 0 0 0-.056-1.334l-.2-1.127a12.78 12.78 0 0 0-.246-1.114 4.02 4.02 0 0 0-.109-.343l-.065-.169a6.725 6.725 0 0 1-.654-.658c-.575-.657-1.104-1.513-1.587-2.57a18.395 18.395 0 0 1-1.326-4.066 18.416 18.416 0 0 1-.368-4.26c.006-.136.043-.214.113-.234.06-.02.11.007.151.082.035.063.05.137.048.221a13.53 13.53 0 0 0 .256 2.666c.15.786.377 1.65.68 2.596.427 1.335.904 2.466 1.43 3.393.382.674.802 1.268 1.262 1.786l.008-.04c.396.391.845.72 1.348.99.098.08.198.153.3.216a4.092 4.092 0 0 0 .732.355 66.18 66.18 0 0 1-1.457-3.93c-.65-1.962-1.125-3.809-1.425-5.54-.033-.182-.003-.296.086-.342.07-.035.139-.015.208.06.058.061.102.14.13.239a100.377 100.377 0 0 0 1.83 5.495c.028.11.06.228.095.352.416 1.456.998 3.087 1.746 4.893.32.774 1.02 2.364 2.098 4.772.231.517.416.904.555 1.161.13.234.264.447.403.637.18.356.34.656.485.902a.372.372 0 0 0 .065.13c.24.054.509.095.806.121.26.023.65.05 1.17.078.128.011.25.024.369.04 7.515.025 15.06-.063 22.637-.265a6.88 6.88 0 0 1-.889-.884c-.292-.344-.682-.878-1.17-1.6-.734-1.092-1.267-1.921-1.599-2.487-.878-1.5-1.647-3.184-2.306-5.054-.555-1.58-1.056-3.37-1.504-5.366-.294-1.315-.648-3.136-1.062-5.465-.462-2.603-.801-4.43-1.018-5.478a30.878 30.878 0 0 0-.32-1.4 10.841 10.841 0 0 0-.456-1.365c-.254-.61-.643-1.311-1.166-2.102-.673-1.02-1.348-1.879-2.024-2.575a11.057 11.057 0 0 0-.997-.91 3.448 3.448 0 0 0-.62-.52c-.416-.284-1.014-.6-1.794-.95a21.88 21.88 0 0 0-1.577-.636 10.215 10.215 0 0 0-1.639-.434c-.127-.02-.44-.062-.94-.126a5.102 5.102 0 0 1-.225-.03 7.078 7.078 0 0 0-.846-.2 6.452 6.452 0 0 0-.29-.047 3.45 3.45 0 0 1-.33-.134 3.505 3.505 0 0 1-.1-.052 4.046 4.046 0 0 1-.38-.282c-.01-.011-.018-.023-.026-.035a7.566 7.566 0 0 1-.963-2.128 9.7 9.7 0 0 1-.355-2.323c-.026-.73.017-1.512.13-2.345a24.4 24.4 0 0 1 .45-2.31Zm7.697 15.11c.104.051.227.17.368.354.137.171.228.31.273.42.05.12.086.306.109.56l-.087.022c-.19-.547-.46-.945-.806-1.197-.05-.037-.075-.069-.078-.095a.082.082 0 0 1 .022-.065.13.13 0 0 1 .06-.035c.035-.005.082.006.14.035Zm2.449 4.273a3.96 3.96 0 0 0-.174-.27c-.092-.14-.175-.235-.247-.28a.147.147 0 0 1 .061-.1.156.156 0 0 1 .113-.04.12.12 0 0 1 .108.009.196.196 0 0 1 .087.074c.028.043.06.112.095.208.029.052.083.127.16.225a.56.56 0 0 1 .074.368.183.183 0 0 1-.026.079c-.026.025-.05.032-.07.021-.01-.002-.027-.017-.047-.043l-.134-.251Zm-.772 1.677c.05.234.022.397-.082.49-.063-.038-.106-.132-.126-.282a3.656 3.656 0 0 0-.433-1.33 3.169 3.169 0 0 0-.273-.404 1.476 1.476 0 0 1-.147-.212.343.343 0 0 1-.048-.234c-.076-.009-.12-.048-.135-.117.02-.046.061-.068.122-.065a.195.195 0 0 1 .139.065.843.843 0 0 1 .125.281c.029.064.08.137.152.221.104.12.163.189.178.209.058.078.124.206.199.385.165.396.275.727.33.993Zm2.544 1.395c.038.009.068 0 .092-.026.15.15.25.327.303.53.023.075.043.19.06.346.018.167.012.288-.017.364-.037.009-.065-.007-.082-.048a.412.412 0 0 1-.017-.1.371.371 0 0 0-.048-.108.696.696 0 0 1-.052-.108.897.897 0 0 1-.022-.126 1.415 1.415 0 0 0-.009-.126.657.657 0 0 0-.078-.199 7.021 7.021 0 0 1-.117-.186c-.057-.096-.061-.166-.013-.213Zm-.983 1.842a.282.282 0 0 1 .09.13c.215.431.339.889.373 1.374a.718.718 0 0 1-.017.282.144.144 0 0 1-.039.078.083.083 0 0 1-.07.026 2.87 2.87 0 0 1-.155-.611 4.051 4.051 0 0 0-.148-.615 7.641 7.641 0 0 1-.13-.326.752.752 0 0 1-.052-.338.094.094 0 0 1 .07-.026c.028 0 .055.009.078.026Zm-1.708 2.185a.181.181 0 0 1 .013-.117c.017-.041.042-.055.074-.044.297 1.251.475 2.527.533 3.827a1.14 1.14 0 0 1-.17-.476 7.548 7.548 0 0 1-.038-.52 10.77 10.77 0 0 0-.16-1.34l-.252-1.33Zm1.608.745c.07.119.11.253.126.403l.008.217.03.169a.65.65 0 0 1 .018.169c-.006.063-.023.107-.052.13-.052-.02-.09-.08-.113-.182l-.156-.732c-.011-.055-.011-.096 0-.122a.09.09 0 0 1 .057-.056c.032-.011.06-.01.082.004Z"/><path fill="#313234" d="M68.654 40.952c-.69.93-1.293 1.827-1.807 2.691a27.943 27.943 0 0 0-1.483 2.882c-.21.48-.416 1.004-.615 1.574a24.47 24.47 0 0 0-.698 2.253 14.762 14.762 0 0 0-.412 2.315c-.153 1.655.041 3.136.581 4.442-.21.044-.425.096-.641.156-.618.176-1.318.442-2.098.798-.63.288-1.144.557-1.543.806-1.168.725-2.16 1.71-2.977 2.952-.16-.341-.362-.555-.607-.642-.228-.084-.474-.058-.737.078-.225.113-.43.284-.615.516-.2.251-.38.55-.538.897a9.435 9.435 0 0 0-.381.984 23.575 23.575 0 0 0-.915 4.009 42.911 42.911 0 0 0-.36 4.109 65.062 65.062 0 0 0 .417 10.67c.136 1.127.292 2.05.472 2.77.243.996.574 1.862.992 2.596a6.383 6.383 0 0 0 1.86 2.093c.817.587 1.675.896 2.57.928.32.017.559-.04.715-.17a.474.474 0 0 0 .113-.13.39.39 0 0 0 .078 0 .28.28 0 0 0 .225-.125c.04-.06.063-.167.07-.32.008-.244.01-.462.008-.655a7.8 7.8 0 0 0-.03-.707 15.95 15.95 0 0 0-.087-.61c-.121-.729-.232-1.27-.334-1.626v-.005c.18.105.363.197.55.278.085.046.172.09.265.134.252.119.622.262 1.11.43l.177.428c.697 1.656 1.322 3.01 1.877 4.061.306.579.62 1.125.94 1.639.053.17.105.342.157.516.069.234.162.39.277.468.017.121.048.253.091.394a2.245 2.245 0 0 1-.468-.334 4.15 4.15 0 0 0-.126-.117.48.48 0 0 0-.147-.082.294.294 0 0 0-.264.043.308.308 0 0 0-.152.226c-.015.104.023.222.112.355.185.286.443.523.772.71l.022.023a.295.295 0 0 0 .143.073c.006 0 .017.003.034.009.156.072.337.139.542.2a.93.93 0 0 0 .087.125.485.485 0 0 0 .277.182c.09.017.176 0 .26-.052a.421.421 0 0 0 .113-.1 6.81 6.81 0 0 0 2.154.013c7.778.098 15.588.044 23.43-.164a1.26 1.26 0 0 0 .494-.104c.168-.085.249-.198.243-.343 0-.05-.01-.093-.03-.13a.506.506 0 0 0-.018-.204.673.673 0 0 0-.186-.29 1.444 1.444 0 0 0-.278-.19 6.81 6.81 0 0 1-.303-.157c-.353-.188-.692-.47-1.018-.845-.208-.234-.475-.594-.802-1.08-.445-.66-.744-1.107-.897-1.338a33.678 33.678 0 0 1-.858-1.37c-1.194-2.022-2.194-4.364-3-7.026-.626-2.069-1.2-4.57-1.72-7.506l-.555-3.216a84.09 84.09 0 0 0-.607-3.203c-.251-1.196-.517-2.16-.797-2.895-.414-1.081-1.017-2.18-1.812-3.298-1.445-2.035-3.058-3.462-4.841-4.282-.451-.209-.973-.402-1.565-.581-.364-.11-.903-.256-1.616-.438a20.293 20.293 0 0 0-1.76-.394 7.78 7.78 0 0 0-.733-.091 3.662 3.662 0 0 1-.74-.343 2.32 2.32 0 0 0-.135-.07l-.108-.164c-.587-.87-.96-1.905-1.119-3.107-.136-1.032-.11-2.159.074-3.381a18.095 18.095 0 0 1 1.647-5.275 18.025 18.025 0 0 1 3.147-4.542c1.072-1.127 2.225-2.037 3.458-2.73 1.199-.67 2.413-1.097 3.64-1.279l.465-.026c.173-.008.322-.011.446-.008.289.006.54-.046.75-.157.225-.118.34-.27.342-.459 0-.176-.102-.32-.308-.433a3.588 3.588 0 0 0-1.365-.403 6.847 6.847 0 0 0-1.452.017c-.904.09-1.765.27-2.583.542a9.925 9.925 0 0 0-2.37 1.144c-1.465.966-2.994 2.522-4.586 4.668Zm-.758 4.616c-.255.63-.495 1.402-.72 2.318a24.063 24.063 0 0 0-.45 2.31 13.842 13.842 0 0 0-.13 2.345c.028.818.147 1.593.355 2.323.225.792.546 1.502.962 2.128l.026.035c.121.101.249.195.381.282l.1.052c.104.05.214.093.33.134.083.011.18.028.29.048.37.069.652.136.845.2l.225.03c.5.063.813.105.94.125.512.087 1.058.231 1.639.433.445.156.97.369 1.578.638.78.349 1.378.665 1.794.949.249.167.455.34.62.52.338.271.67.575.997.91.676.696 1.35 1.554 2.024 2.575.522.79.912 1.492 1.166 2.102.167.4.319.856.455 1.365.092.355.199.822.32 1.4.217 1.049.557 2.875 1.019 5.478.413 2.33.767 4.15 1.062 5.465.448 1.997.949 3.786 1.504 5.366.658 1.87 1.427 3.554 2.305 5.053.332.567.865 1.396 1.6 2.488.488.722.878 1.255 1.17 1.6.292.344.588.638.888.884-7.576.202-15.121.29-22.637.264a10.67 10.67 0 0 0-.368-.039c-.52-.029-.91-.055-1.17-.078a6.014 6.014 0 0 1-.806-.121.382.382 0 0 1-.066-.13 16.038 16.038 0 0 1-.485-.902 6.228 6.228 0 0 1-.403-.637 18.956 18.956 0 0 1-.555-1.161c-1.077-2.408-1.777-3.998-2.097-4.772-.748-1.806-1.331-3.437-1.747-4.894a19.626 19.626 0 0 1-.095-.35 100.462 100.462 0 0 1-1.829-5.496.57.57 0 0 0-.13-.239c-.07-.075-.14-.095-.209-.06-.089.046-.118.16-.086.342.3 1.731.776 3.578 1.426 5.54a66.104 66.104 0 0 0 1.456 3.93 4.097 4.097 0 0 1-.733-.355 2.832 2.832 0 0 1-.299-.217 5.816 5.816 0 0 1-1.347-.988L59 84.8c-.459-.518-.879-1.112-1.26-1.786-.526-.927-1.003-2.058-1.43-3.393a22.15 22.15 0 0 1-.681-2.596c-.18-.943-.264-1.831-.256-2.666a.424.424 0 0 0-.047-.221c-.041-.075-.091-.102-.152-.082-.07.02-.107.098-.113.234-.043 1.427.08 2.847.369 4.26a18.396 18.396 0 0 0 1.326 4.066c.483 1.057 1.011 1.913 1.586 2.57.21.242.43.462.655.658l.065.17c.034.092.07.206.108.342.078.275.16.646.247 1.114l.2 1.127c.063.436.082.881.056 1.335v.004a.314.314 0 0 0-.091-.005 6.318 6.318 0 0 0-.334.057 1.96 1.96 0 0 1-.871-.052c.147-.292.25-.522.307-.69.102-.28.148-.537.14-.77a2.8 2.8 0 0 0-.036-.313l-.043-.312c-.002-.05-.007-.188-.013-.416a2.537 2.537 0 0 0-.034-.416c-.012-.063-.037-.102-.074-.113-.037-.008-.07.007-.096.048a.251.251 0 0 0-.034.121 5.197 5.197 0 0 0-.005.824c.012.087.033.215.061.385.02.154.026.282.017.386a1.9 1.9 0 0 1-.199.642l-.26.537a4.09 4.09 0 0 1-.537-.256 5.743 5.743 0 0 1-.698-.455.545.545 0 0 0 .117-.186c.271-.7.336-1.42.195-2.163a1.619 1.619 0 0 0-.117-.373c-.076.024-.119.085-.13.183a.675.675 0 0 0 .026.238c.075.34.093.689.056 1.044-.04.353-.136.688-.286 1.006a.753.753 0 0 0-.039.113 5.643 5.643 0 0 1-.58-.546 5.889 5.889 0 0 1-1.045-1.526 7.665 7.665 0 0 1-.498-1.413 19.808 19.808 0 0 1-.295-1.482 57.031 57.031 0 0 1-.577-14.424c.11-1.28.258-2.401.442-3.363.228-1.194.533-2.276.915-3.247.136-.344.293-.617.472-.819.228-.26.481-.388.759-.386.09.24.171.482.247.724a12.806 12.806 0 0 0-1.44 4.044 8.58 8.58 0 0 0-.125 1.036 4.96 4.96 0 0 0 .009.511l.108.074c.041.032.078.05.113.052.072.006.139-.046.2-.156l.19-.325a60.557 60.557 0 0 1 .633-2.05c.13-.39.262-.754.399-1.092.12-.319.245-.613.372-.884.676-1.446 1.515-2.569 2.514-3.373.353-.28.79-.57 1.313-.87 1.355-.787 2.677-1.327 3.966-1.622h.013c.145-.014.293-.027.446-.039.159-.01.276-.024.351-.039a.815.815 0 0 0 .321-.13l.052-.043a.42.42 0 0 0 .238-.29c.024-.102.007-.185-.052-.252-.045-.054-.128-.09-.246-.108a.596.596 0 0 0-.204-.04c-.052.007-.106.012-.16.018-.22.015-.385.025-.495.03a7.85 7.85 0 0 1-.195.022 2.862 2.862 0 0 0-.017-.216c-.009-.09-.032-.256-.07-.499a13.981 13.981 0 0 1-.147-2.423c-.034-1.282.128-2.628.49-4.035.379-1.441.99-3.003 1.833-4.685 1.251-2.488 2.664-4.572 4.24-6.254.213-.228.41-.423.593-.585a9.36 9.36 0 0 1 1.642-1.365c.804-.514 1.611-.926 2.423-1.236.861-.326 1.771-.554 2.73-.684.302-.041.758-.044 1.37-.009.206.009.376.04.512.095.141.061.218.137.23.226.008.07-.048.12-.17.151a.627.627 0 0 1-.247.018 23.04 23.04 0 0 0-1.153.104c-.58.07-1.1.167-1.56.294-.271.076-.78.293-1.525.655-.677.33-1.112.556-1.305.68-.713.466-1.53 1.134-2.449 2.007-.522.503-.94.938-1.252 1.305-.223.266-.457.576-.702.931a68.517 68.517 0 0 0-1.196 1.794 39.575 39.575 0 0 0-.846 1.54c-.135.257-.264.513-.386.767Zm10.241 29.948a.977.977 0 0 0-.126-.403c-.023-.015-.05-.015-.082-.004a.09.09 0 0 0-.056.056c-.012.026-.012.067 0 .121l.156.733c.023.101.06.162.112.182.029-.023.046-.067.052-.13a.654.654 0 0 0-.017-.169 5.403 5.403 0 0 1-.03-.17l-.009-.216Zm-1.647-1.309c-.032-.01-.056.003-.074.044a.18.18 0 0 0-.013.117l.252 1.33c.089.512.143.958.16 1.34.015.27.028.444.04.52.028.193.084.352.168.476a20.327 20.327 0 0 0-.533-3.827Zm1.543-2.05a.095.095 0 0 0-.07.026.756.756 0 0 0 .053.338c.026.072.069.18.13.325.046.124.095.33.147.616.046.271.098.475.156.611a.083.083 0 0 0 .07-.026.146.146 0 0 0 .038-.078.72.72 0 0 0 .018-.282 3.637 3.637 0 0 0-.373-1.374.28.28 0 0 0-.091-.13.125.125 0 0 0-.078-.026Zm1.153-1.842c-.024.026-.054.035-.091.026-.05.046-.045.117.013.213l.117.186c.04.072.067.139.078.2.002.017.006.058.008.125a.902.902 0 0 0 .022.126.71.71 0 0 0 .052.108c.026.043.042.08.048.108a.422.422 0 0 0 .017.1c.018.04.045.056.083.048.028-.076.034-.197.017-.364a2.02 2.02 0 0 0-.06-.347 1.134 1.134 0 0 0-.304-.529Zm-2.718-.88c.104-.092.132-.255.083-.49a5.678 5.678 0 0 0-.33-.992 1.963 1.963 0 0 0-.2-.386 5.71 5.71 0 0 0-.177-.208.986.986 0 0 1-.151-.22.846.846 0 0 0-.126-.282.195.195 0 0 0-.139-.065c-.06-.003-.101.019-.121.065.015.069.059.108.134.117a.342.342 0 0 0 .048.234c.023.046.072.117.147.212.102.128.193.262.273.403.226.402.37.845.434 1.33.02.152.062.245.125.282Zm.68-2.435c.073.104.13.193.174.268l.135.252c.02.026.036.04.047.043.02.011.044.004.07-.022a.185.185 0 0 0 .026-.078.561.561 0 0 0-.074-.368 1.821 1.821 0 0 1-.16-.225 1.054 1.054 0 0 0-.096-.208.195.195 0 0 0-.087-.074.121.121 0 0 0-.108-.009.157.157 0 0 0-.113.04.147.147 0 0 0-.06.099c.073.047.155.14.247.282Zm-1.906-3.65c-.142-.184-.265-.303-.369-.355-.058-.029-.104-.04-.138-.035a.13.13 0 0 0-.061.035.082.082 0 0 0-.022.065c.003.026.029.058.078.095.347.252.616.65.806 1.197l.087-.022c-.023-.254-.059-.44-.108-.56a1.958 1.958 0 0 0-.273-.42Z"/><path fill="#F4E7BF" d="M12.531 103.528c.01.002.018.006.026.008 1.511.63 3.085 1.047 4.72 1.253.52.063 1.097.111 1.73.143.456.02 1.035.037 1.737.052 2.803.058 5.067.037 6.792-.061 2.485-.145 4.714-.472 6.688-.984.034-.008.069-.015.104-.021a10.552 10.552 0 0 0-.17-.213 4.535 4.535 0 0 0-.476-.476l-.507-.456a7.181 7.181 0 0 1-.598-.671 116.89 116.89 0 0 0-.55-.711 25.398 25.398 0 0 0-1.041-1.261 23.404 23.404 0 0 0-2.5-2.436c-.445-.376-.842-.656-1.188-.841-.471-.249-.925-.367-1.361-.355-.344.01-.746.112-1.205.303a8.687 8.687 0 0 0-1.976 1.14c-.28.217-.44.338-.477.364a1.832 1.832 0 0 1-.533.26.927.927 0 0 1-.217.039.494.494 0 0 1-.134 0 2.047 2.047 0 0 1-.221-.052 3.695 3.695 0 0 0-1.379-.087 8.18 8.18 0 0 0-1.378.3 7.558 7.558 0 0 0-1.114.411 8.83 8.83 0 0 0-.875.529c-.63.41-1.088.737-1.374.979-.344.289-.734.683-1.17 1.179-.471.538-.922 1.092-1.353 1.665Zm14.589-3.559a.112.112 0 0 1-.026.057c-.026.037-.08.059-.16.065h-.087c-.024 0-.04-.003-.048-.009l-.034-.022a.228.228 0 0 1-.07-.104c-.008-.052.011-.102.06-.151l.044-.035a.443.443 0 0 1 .083-.004v-.026c.032.01.08.027.147.047.06.032.093.071.095.117a.097.097 0 0 1-.004.065Zm-1.872.286v-.026l.134.022c.011 0 .02.003.026.009l.022.021.03.057.004.043a.138.138 0 0 1-.013.069c-.02.032-.056.048-.108.048l-.147-.022-.03-.008-.018-.018-.026-.039-.009-.021.005-.026.047-.109h.083Zm.706-1.655c.011.002.023.013.035.03l.043.043c.02.024.028.058.022.104a.486.486 0 0 1-.03.104.083.083 0 0 1-.027.044l-.026.017-.043.022-.026.008-.026-.004-.108-.048a.104.104 0 0 1-.018-.039.288.288 0 0 1 .035-.247c.015-.02.028-.032.04-.034a.266.266 0 0 1 .06-.005c.04 0 .064.002.07.005Zm2.484 2.392c.023.009.045.02.065.035a.136.136 0 0 1 .043.099.205.205 0 0 1-.013.061.098.098 0 0 1-.022.043.05.05 0 0 1-.039.026.189.189 0 0 1-.073.031l-.148-.018c-.015 0-.024-.002-.03-.008l-.022-.022-.03-.048c-.026-.04-.033-.076-.022-.108a.117.117 0 0 1 .06-.065l.092-.026v-.03c.078.015.125.025.139.03Zm7.597-18c-.574.015-.997.041-1.265.079-.709.097-1.432.344-2.172.736-.604.321-1.244.757-1.92 1.31-1.48 1.207-2.884 2.714-4.212 4.52-1.058 1.439-2.156 3.2-3.294 5.283-.39.71-.662 1.192-.815 1.443a7.79 7.79 0 0 1-.993 1.31c-.046.045-.089.083-.13.112.145.029.26.075.347.139.121-.055.253-.13.394-.226.01-.006.142-.104.4-.294a10.597 10.597 0 0 1 2.444-1.383c.424-.17.784-.266 1.079-.286.433-.032.888.062 1.365.282.361.164.767.418 1.218.762a21.012 21.012 0 0 1 3.155 3c5.242.67 10.965.602 17.172-.204.61-.078 1.099-.154 1.47-.23a8.28 8.28 0 0 0 1.425-.407 2.791 2.791 0 0 1 .26-.091.36.36 0 0 1 .091-.13c-.124-.22-.32-.416-.59-.59a5.974 5.974 0 0 0-.767-.398 9.688 9.688 0 0 0-1.018-.403 5.783 5.783 0 0 0-.923-.187c-.24-.032-.555-.058-.945-.078a4.047 4.047 0 0 1-.303-.026.856.856 0 0 1-.53-.282 4.863 4.863 0 0 1-.207-.238c-.245-.292-.642-.67-1.188-1.136-.465-.4-.83-.68-1.092-.836a3.93 3.93 0 0 0-1.456-.507 3.895 3.895 0 0 0-1.543.082c-.063-.023-.095-.075-.095-.156a.239.239 0 0 1 .078-.195.412.412 0 0 1 .19-.082c.044-.009.115-.015.213-.017.43-.01.765-.005 1.005.012.37.03.696.091.98.187.3.104.658.297 1.075.58a11.115 11.115 0 0 1 1.859 1.63c.139.159.245.272.32.338.128.113.255.194.382.243.084.032.186.054.308.065.043.006.149.011.316.017.86.035 1.686.215 2.475.538.84.34 1.428.787 1.764 1.339.046-.006.097-.009.151-.009a54.37 54.37 0 0 0 2.35-.034c.875-.041 1.65-.132 2.327-.273.2-.041.496-.111.889-.213.27-.07.496-.124.676-.164-.54-.746-1.363-1.96-2.467-3.641-1.092-1.667-1.997-2.945-2.717-3.836-.893-1.112-1.955-2.247-3.185-3.402a68.961 68.961 0 0 0-3.533-3.06 19.652 19.652 0 0 0-1.421-1.08 6.556 6.556 0 0 0-1.578-.784c-1.233-.396-2.724-.327-4.468.204-.46.15-.805.26-1.036.33a7.844 7.844 0 0 1-1.05.25c-.285.044-.706.074-1.265.088Zm-4.173 3.771a.197.197 0 0 1 .1-.121c.049-.032.099-.043.15-.035v-.026c.12.041.194.096.226.165a.272.272 0 0 1 .005.186c-.02.08-.055.135-.104.16-.067.038-.155.034-.265-.012-.043-.02-.07-.042-.082-.065-.009-.009-.016-.026-.022-.052a.347.347 0 0 1-.009-.2Zm-1.327 2.241a.2.2 0 0 1-.156-.126.242.242 0 0 1-.017-.095c0-.058.007-.107.022-.147a.19.19 0 0 1 .09-.109.288.288 0 0 1 .079-.017c.058 0 .105.015.143.043a.231.231 0 0 1 .082.117c.02.064.023.12.009.17a.216.216 0 0 1-.061.103.202.202 0 0 1-.19.061Zm1.79-.277c.044.052.063.11.057.173a.23.23 0 0 1-.083.165c-.017.01-.028.017-.034.017l-.035.004h-.052l-.03-.004c-.01 0-.02-.006-.03-.017a.22.22 0 0 1-.087-.174.243.243 0 0 1 .073-.182l.04-.026.051-.004a.121.121 0 0 1 .074.004c.015.006.034.021.056.044ZM25.17 69.46a6.251 6.251 0 0 1-.252.434c-.084.119-.173.21-.268.277l.026.009c.476.145.962.234 1.456.269.138.008.442.014.91.017.375.003.678.02.906.052.327.043.62.126.88.247a1.9 1.9 0 0 1 .71.546.385.385 0 0 1 .07.139c.014.058.004.104-.03.139-.07.072-.18.037-.33-.105-.269-.262-.622-.45-1.062-.563a5.673 5.673 0 0 0-1.24-.152 30.643 30.643 0 0 1-1.248-.043c-.465-.043-.86-.141-1.183-.295a.974.974 0 0 1-.22-.143 1.184 1.184 0 0 1-.426-.047l-.71-.265c-.59-.216-1.227-.24-1.912-.07a4.499 4.499 0 0 0-1.76.876c-.459.364-.905.84-1.339 1.426-.286.388-.643.94-1.07 1.656a120.696 120.696 0 0 0-9.47 19.742 1.162 1.162 0 0 1-.108.225l.169.026c2.323.422 4.327.663 6.01.724.296.011.888.02 1.778.026l5.197.017c.682.006 1.209-.014 1.581-.06.128-.018.22-.028.278-.03a.88.88 0 0 1 .117 0c1.133-2.049 2.238-3.802 3.316-5.258 1.43-1.936 2.947-3.547 4.55-4.832a12.86 12.86 0 0 1 1.864-1.27c.71-.388 1.409-.642 2.093-.763.315-.055.765-.097 1.348-.126.63-.032 1.08-.067 1.348-.104.436-.06 1.273-.273 2.51-.637 1.04-.31 1.88-.461 2.522-.455.986.006 2.011.305 3.077.897.748.416 1.645 1.065 2.687 1.946a61.739 61.739 0 0 1 3.16 2.822 88.287 88.287 0 0 0-1.127-3.572c-.537-1.551-1.134-2.843-1.79-3.874-.778-1.208-1.632-2.027-2.566-2.458a8.603 8.603 0 0 0-.919-.342 11.698 11.698 0 0 1-.923-.325 6.48 6.48 0 0 1-.931-.512 18.26 18.26 0 0 1-.872-.62 1250.3 1250.3 0 0 0-4.082-3.129c-1.621-1.24-3.013-2.236-4.174-2.99a17.517 17.517 0 0 0-1.703-.997 8.209 8.209 0 0 0-1.838-.68 5.28 5.28 0 0 0-1.968-.087c-.69.106-1.285.35-1.785.732-.477.362-.896.882-1.257 1.56ZM37.916 76.6c.003-.035.03-.078.083-.13a.084.084 0 0 1 .03-.022h.043c.02.003.048.004.083.004a.122.122 0 0 1 .039.03l.047.057c.029.046.03.094.005.143a.23.23 0 0 1-.061.07l-.03.021-.03.005h-.07l-.03-.005-.026-.017c-.061-.055-.088-.107-.083-.156Zm-2.18.572c-.002-.046.02-.094.07-.143a.107.107 0 0 1 .043-.03l.039-.005h.052l.035.005a.05.05 0 0 1 .034.026c.026.02.045.041.057.064a.128.128 0 0 1-.005.14.311.311 0 0 1-.06.069l-.026.017-.03.004h-.066l-.03-.004-.03-.022c-.049-.048-.077-.09-.083-.121Zm1.652 1.135c.006 0 .017.007.034.018.06.05.087.104.078.164-.006.035-.032.072-.078.113a.083.083 0 0 1-.03.022l-.03.004h-.074l-.03-.004-.022-.017-.043-.048a.198.198 0 0 1-.04-.074c-.006-.05.02-.101.074-.156l.035-.022a.3.3 0 0 1 .065-.004.23.23 0 0 1 .06.004ZM12.57 87.89h.052l.035.004a.083.083 0 0 1 .035.026l.056.061a.155.155 0 0 1 0 .143l-.06.07-.03.017-.031.004h-.065l-.026-.004a.14.14 0 0 1-.03-.013c-.061-.055-.089-.11-.083-.165a.22.22 0 0 1 .07-.108.107.107 0 0 1 .043-.03l.034-.005Zm-.507 3v-.027c.067.006.12.033.16.083a.243.243 0 0 1 .048.09.252.252 0 0 1 0 .148.213.213 0 0 1-.065.104.164.164 0 0 1-.108.052c-.06.006-.13-.022-.208-.082l-.048-.057c-.023-.043-.017-.106.018-.19a.237.237 0 0 1 .056-.091.146.146 0 0 1 .147-.03ZM28.81 54.976a6.077 6.077 0 0 0-.728-.767 4.823 4.823 0 0 0-.784-.607c-.315-.185-.618-.273-.91-.264-.124.228-.154.5-.087.814.05.235.154.508.316.82.315.606.616 1.06.902 1.36.43.451.899.713 1.404.785.234.035.406-.002.516-.108.156-.154.156-.42 0-.798-.113-.28-.204-.492-.273-.637-.113-.23-.23-.43-.356-.598Zm8.66-1.218-.208.212a.449.449 0 0 1-.239.143c-.106.015-.236-.04-.39-.164a73.18 73.18 0 0 0-1.4-1.2c-.557-.466-1.067-.797-1.53-.993-.329-.139-.572-.137-.728.004-.104.095-.158.258-.164.49-.015.505.08.985.281 1.439.061.136.1.236.117.299a.43.43 0 0 1-.017.299.525.525 0 0 1-.121.156 3.279 3.279 0 0 0-.143.143c-.098.132-.137.319-.117.559.02.245.09.51.212.793.075.173.202.42.381.741.405.726.733 1.264.984 1.617.405.57.835 1.017 1.292 1.343.162.113.27.196.325.248.11.104.178.212.204.325a.73.73 0 0 1 .017.208l-.013.203c-.009.226.035.468.13.728.067.18.176.405.33.677a16.54 16.54 0 0 0 1.105 1.742c.436.592.892 1.102 1.37 1.53.537.48 1.109.86 1.715 1.14a5.335 5.335 0 0 0 1.977.511c.702.04 1.257-.095 1.664-.407.208-.163.379-.375.512-.638.12-.24.202-.504.242-.793.037-.242.048-.517.03-.823-.008-.2-.036-.475-.082-.828-.127-1.02-.282-1.844-.464-2.47-.257-.887-.618-1.626-1.083-2.215-.214-.266-.419-.413-.615-.442a1.455 1.455 0 0 0-.386.026c-.168.029-.295.03-.382.004-.136-.037-.253-.132-.35-.286a2.32 2.32 0 0 1-.209-.446 7.734 7.734 0 0 0-1.205-2.085 7.62 7.62 0 0 0-1.777-1.62 1.821 1.821 0 0 0-.645-.287c-.254-.055-.46-.016-.62.117Zm-1.21 1.73a.293.293 0 0 1 .061.034c.018.009.035.029.052.06a.27.27 0 0 1 .018.23.2.2 0 0 1-.07.091.179.179 0 0 1-.108.04.254.254 0 0 1-.17-.066.213.213 0 0 1-.081-.09c-.018-.044-.01-.1.026-.17.028-.063.059-.102.09-.117a.193.193 0 0 1 .113-.013v-.026c.006.004.03.012.07.026Zm-1.235.29a.297.297 0 0 1-.013.108c-.02.09-.063.15-.13.178-.054.026-.127.022-.216-.013-.058-.024-.096-.052-.113-.087a.183.183 0 0 1-.026-.078.722.722 0 0 1-.004-.13.21.21 0 0 1 .09-.143.196.196 0 0 1 .165-.043v-.026c.07.02.123.046.16.078a.204.204 0 0 1 .087.156Zm.503 1.746a.452.452 0 0 1 .078-.143c.05-.05.1-.062.152-.039v-.026c.07.006.126.04.169.1a.37.37 0 0 1 .048.104.39.39 0 0 1 .017.087.27.27 0 0 1-.013.086c-.026.081-.067.135-.121.16-.084.041-.168.027-.252-.043a.245.245 0 0 1-.082-.117.313.313 0 0 1 .004-.169Zm3.311 5.509a.193.193 0 0 1-.043-.056c-.026-.05-.015-.12.03-.208a.294.294 0 0 1 .048-.074.13.13 0 0 1 .143-.026v-.035c.029.015.072.033.13.057a.267.267 0 0 1 .052.065c.04.069.05.14.026.216a.195.195 0 0 1-.156.143c-.08.013-.157-.015-.23-.082ZM23.466 39.136a8.403 8.403 0 0 0-1.668-1.058 8.437 8.437 0 0 0-1.864-.646c-.197-.04-.34-.034-.433.018-.107.063-.18.195-.221.394-.076.39-.046.825.09 1.305.085.303.248.722.49 1.257.258.563.464.982.62 1.257.254.45.526.825.815 1.122.07.072.175.18.316.32.12.128.204.25.256.365.046.101.082.227.108.377.015.087.032.218.052.394.07.483.236.956.499 1.418.243.424.555.82.936 1.187.338.327.739.636 1.2.928.373.234.815.476 1.327.728.687.344 1.277.56 1.768.65.22.04.47.067.75.078.167.006.418.007.75.004.223 0 .396-.007.52-.021.19-.026.355-.074.494-.144.32-.164.585-.508.793-1.031a5.79 5.79 0 0 0 .407-2.202 5.821 5.821 0 0 0-.446-2.193 8.877 8.877 0 0 0-.745-1.356c-.705-1.084-1.445-1.899-2.22-2.445a5.059 5.059 0 0 0-1.486-.737 3.996 3.996 0 0 0-1.634-.156.437.437 0 0 1-.247.304.463.463 0 0 1-.39.026.295.295 0 0 1-.195.121.423.423 0 0 1-.239-.008.773.773 0 0 1-.212-.109 5.69 5.69 0 0 1-.19-.147Zm.221 4.282a.185.185 0 0 1-.138.022.251.251 0 0 1-.13-.074.26.26 0 0 1-.061-.074c-.02-.043-.013-.101.022-.173a.25.25 0 0 1 .039-.078c.046-.055.101-.071.164-.048v-.026a.231.231 0 0 1 .178.108c.029.05.042.098.04.143a.24.24 0 0 1-.018.096.204.204 0 0 1-.096.104Zm-.03 1.326a.252.252 0 0 1-.13-.074.257.257 0 0 1-.06-.073c-.02-.044-.014-.102.021-.174a.255.255 0 0 1 .039-.078c.046-.054.101-.07.165-.047v-.026a.231.231 0 0 1 .177.108c.029.05.042.097.04.143a.24.24 0 0 1-.018.095.208.208 0 0 1-.095.104.18.18 0 0 1-.139.022Zm-.836-3.432a.18.18 0 0 1 .06.069.206.206 0 0 1 .022.108.133.133 0 0 1-.043.096.23.23 0 0 1-.109.06l-.043.009-.035-.009-.086-.03-.026-.013a.085.085 0 0 1-.026-.043.316.316 0 0 1-.03-.135.157.157 0 0 1 .086-.126.231.231 0 0 1 .152-.021c.032.008.058.02.078.035Zm96.247 49.1a7.927 7.927 0 0 1-.559-.563c-.882-.945-1.959-1.887-3.233-2.826-.876-.644-2.074-1.441-3.593-2.392-.535-.338-.965-.58-1.292-.728-.5-.228-.969-.356-1.408-.382-.495-.026-1.013.071-1.556.29-.44.177-.911.441-1.413.794-.899.633-1.815 1.453-2.748 2.462-.566.609-1.364 1.554-2.393 2.834l-1.933 2.406c-.56.7-.963 1.206-1.209 1.52a33.101 33.101 0 0 0-1.148 1.57 25.827 25.827 0 0 0-1.678 2.83c-.01.023-.023.046-.034.07.034.01.072.025.112.043.685.288 1.56.552 2.627.788a41.653 41.653 0 0 0 9.648 1.019 41.407 41.407 0 0 0 9.626-1.23 1.29 1.29 0 0 1 .424-.049c.009-.002.019-.006.031-.008a1.758 1.758 0 0 0-.33-.633l-.156-.178a2.38 2.38 0 0 1-.143-.186 3.057 3.057 0 0 0-.502-.71 4.934 4.934 0 0 0-.451-.46 2.038 2.038 0 0 0-1.196-.46c-.098-.006-.163-.026-.195-.06-.024-.026-.041-.076-.052-.148a3.334 3.334 0 0 0-.412-1.23 4.532 4.532 0 0 0-.564-.768 17.298 17.298 0 0 0-.671-.685 6.148 6.148 0 0 0-.529-.472 3.154 3.154 0 0 0-.936-.46c-.078-.025-.119-.058-.122-.1-.002-.031.015-.055.052-.073a.225.225 0 0 1 .109-.026c.303.003.612.111.927.325.208.142.466.369.772.68.349.356.613.642.793.859.535.65.816 1.27.845 1.86.373-.055.744.037 1.114.277.26.162.544.429.854.801.118.145.208.272.268.382.029.054.071.137.126.247.035.055.117.158.247.308.179.205.306.41.381.615.033.09.054.176.065.26.052 0 .119.004.2.013 1.361.159 2.728.193 4.1.104a22.71 22.71 0 0 0 4.052-.641c.37-.09.591-.142.663-.156a3.6 3.6 0 0 1 .672-.083c.093 0 .275.01.546.03.226.018.406.02.542.005.228-.02.479-.087.754-.2.104-.045.299-.138.585-.277a28.086 28.086 0 0 0-4.421-5.322 9.536 9.536 0 0 0-.923-.785 3.942 3.942 0 0 0-1.053-.563 4.086 4.086 0 0 0-1.161-.195 8.743 8.743 0 0 0-1.188.065c-.318.035-.53.055-.637.06a1.993 1.993 0 0 1-.629-.073c-.221-.07-.444-.2-.667-.394Zm-16.777 4.98a.163.163 0 0 1 .069-.09.197.197 0 0 1 .113-.035c.032 0 .065.007.099.021.046.02.08.055.1.104.029.076.019.137-.03.187a.53.53 0 0 1-.113.06l-.039.01-.126-.04-.026-.013-.017-.026c-.031-.08-.042-.14-.03-.178Zm-1.179 1.812a.043.043 0 0 1-.005-.03l.009-.018.044-.056.03-.013.095-.017h.035l.022.017.043.043.017.022.005.03c0 .05-.011.093-.031.13l-.19.03a.542.542 0 0 1-.074-.138Zm3.619-1.495a.106.106 0 0 1 .073 0c.029.011.05.046.061.104v.056a.405.405 0 0 1-.039.056.342.342 0 0 0-.039.096l-.039.065-.026.026-.03.004h-.091l-.031-.004c-.011-.003-.019-.011-.026-.026a.748.748 0 0 1-.065-.139c-.023-.058-.026-.104-.008-.139.015-.023.041-.04.082-.052l.1-.017a.939.939 0 0 0 .078-.03Z"/><path fill="#313234" d="M24.61 68.941c-.077.13-.138.221-.181.273a.677.677 0 0 1-.247.204c-.128.058-.28.063-.46.013a5.166 5.166 0 0 1-.46-.173c-.62-.249-1.298-.295-2.032-.139a4.765 4.765 0 0 0-1.903.876c-.502.375-.988.868-1.456 1.477-.327.42-.718 1-1.174 1.739-1.815 2.938-3.579 6.219-5.292 9.842-1.385 2.93-2.86 6.357-4.425 10.28a.992.992 0 0 0-.078.43c.008.106.04.186.095.238a.243.243 0 0 0-.052.173c.015.163.166.278.455.347 1.656.402 3.547.662 5.673.78 1.3.072 3.219.102 5.756.087l1.586-.009c.74-.006 1.333-.021 1.782-.047-.165.294-.295.518-.39.672-.237.38-.477.7-.72.957a5.72 5.72 0 0 0-.195.213.78.78 0 0 0-.134.247.398.398 0 0 0 .052.325 7.39 7.39 0 0 0-2.423.312c-.48.139-.938.32-1.374.546-.266.136-.65.366-1.153.69-.425.268-.74.484-.945.65-.271.213-.557.479-.858.797-.176.182-.438.475-.784.88l-1.348 1.573c-.087.101-.15.184-.19.247a.578.578 0 0 0-.066.143.261.261 0 0 0-.06.221.292.292 0 0 0 .073.147l.048.065c.063.072.132.109.208.109l.086.034a30.69 30.69 0 0 0 1.894.603c.619.179 1.084.309 1.396.39.518.132.986.234 1.409.303.517.087 1.1.149 1.75.187.393.023.982.043 1.765.06 3.057.064 5.476.051 7.26-.039 2.663-.136 5.05-.457 7.16-.966.309-.076.482-.197.52-.364a.26.26 0 0 0 .008-.065.302.302 0 0 0 .178-.247c.017-.136-.068-.291-.256-.464a77.81 77.81 0 0 1-1.105-1.062 16.254 16.254 0 0 1-1.465-1.608l-.295-.373c.468.072 1.012.133 1.63.182a70.12 70.12 0 0 0 15.052-.381 25.618 25.618 0 0 0 1.612-.256 10.679 10.679 0 0 0 1.57-.433c.153-.058.272-.128.359-.212a.56.56 0 0 0 .104-.14c.17.02.377.033.62.035.881.012 1.569.007 2.063-.017.76-.035 1.441-.114 2.045-.238.168-.032.443-.094.824-.187.35-.086.622-.147.82-.182.127-.02.218-.039.276-.056a.784.784 0 0 0 .252-.108.483.483 0 0 0 .178-.217.326.326 0 0 0-.026-.312.885.885 0 0 0-.078-.243 1.905 1.905 0 0 0-.152-.255l-1.534-2.289a148.057 148.057 0 0 0-1.916-2.8 43.922 43.922 0 0 0-2.063-2.7c-.57-.676-1.19-1.36-1.864-2.05a.61.61 0 0 0 .03-.134 1.054 1.054 0 0 0-.047-.416l-.377-1.31c-.544-1.9-1.008-3.334-1.396-4.299-.627-1.551-1.367-2.841-2.219-3.87-.667-.8-1.345-1.341-2.032-1.621a6.966 6.966 0 0 0-.906-.282 8.998 8.998 0 0 1-.91-.277 5.045 5.045 0 0 1-.841-.447c-.168-.106-.43-.29-.785-.55l-6.843-5.07c-.934-.694-1.656-1.2-2.167-1.518-.83-.52-1.615-.904-2.358-1.153a6.63 6.63 0 0 0-2.622-.342c-.943.075-1.754.36-2.436.854-.546.402-1.045.975-1.495 1.72Zm.308.954c.05-.072.133-.217.252-.433.361-.68.78-1.2 1.257-1.56.5-.382 1.095-.627 1.785-.733a5.281 5.281 0 0 1 1.968.086c.583.133 1.196.36 1.838.68.483.241 1.05.573 1.703.998 1.162.754 2.553 1.75 4.174 2.99.91.694 2.27 1.736 4.082 3.13.365.27.655.478.872.62.329.213.64.383.931.51.182.079.49.187.924.326.4.13.708.244.918.342.934.43 1.789 1.25 2.566 2.458.656 1.031 1.253 2.323 1.79 3.874.284.813.659 2.003 1.127 3.572a61.739 61.739 0 0 0-3.16-2.822c-1.042-.882-1.939-1.53-2.687-1.946-1.066-.592-2.091-.891-3.077-.897-.641-.006-1.482.145-2.522.455-1.237.364-2.074.576-2.51.637-.269.037-.718.072-1.348.104a11.77 11.77 0 0 0-1.348.126c-.684.121-1.382.375-2.093.763-.583.318-1.205.74-1.864 1.27-1.603 1.285-3.12 2.896-4.55 4.832-1.078 1.456-2.183 3.209-3.316 5.257a.878.878 0 0 0-.117 0c-.058.003-.15.013-.277.03-.373.047-.9.067-1.582.061l-5.197-.017a71.408 71.408 0 0 1-1.777-.026c-1.684-.06-3.688-.302-6.011-.724a4.655 4.655 0 0 0-.17-.026c.041-.063.077-.138.109-.225a120.702 120.702 0 0 1 9.47-19.742c.427-.717.785-1.268 1.07-1.656.434-.587.88-1.062 1.34-1.426a4.498 4.498 0 0 1 1.76-.875c.684-.17 1.321-.148 1.91.07l.711.264c.154.043.295.059.425.047.055.05.129.097.221.143.324.154.718.252 1.183.295.116.011.532.026 1.249.043.494.015.907.065 1.24.152.439.113.793.3 1.061.564.15.14.26.175.33.103.034-.034.045-.08.03-.138a.388.388 0 0 0-.07-.139 1.903 1.903 0 0 0-.71-.546 3.003 3.003 0 0 0-.88-.247 7.143 7.143 0 0 0-.906-.052 20.88 20.88 0 0 1-.91-.017 6.581 6.581 0 0 1-1.456-.27l-.026-.008a1.1 1.1 0 0 0 .268-.277Zm11.117 13.098c.558-.015.98-.044 1.266-.087.297-.046.648-.13 1.049-.252.231-.069.576-.179 1.036-.329 1.745-.531 3.235-.6 4.468-.204a6.555 6.555 0 0 1 1.578.785c.355.236.83.596 1.421 1.08a69.014 69.014 0 0 1 3.533 3.059c1.23 1.155 2.292 2.29 3.185 3.402.72.89 1.626 2.169 2.718 3.836 1.103 1.681 1.926 2.895 2.466 3.64-.18.041-.405.096-.676.165-.393.102-.69.172-.889.213-.676.14-1.452.232-2.327.273-.474.023-1.257.034-2.35.034-.054 0-.105.003-.151.009-.336-.552-.923-.999-1.764-1.34a7.245 7.245 0 0 0-2.475-.537 4.455 4.455 0 0 1-.316-.017 1.173 1.173 0 0 1-.308-.065 1.282 1.282 0 0 1-.381-.243 4.051 4.051 0 0 1-.321-.338 11.116 11.116 0 0 0-1.86-1.63c-.415-.283-.773-.476-1.074-.58a4.059 4.059 0 0 0-.98-.187c-.24-.017-.574-.021-1.005-.013-.098.003-.17.01-.213.018a.414.414 0 0 0-.19.082.24.24 0 0 0-.078.195c0 .08.032.133.095.156a3.894 3.894 0 0 1 1.543-.082 3.931 3.931 0 0 1 1.456.507c.263.156.627.435 1.092.836.547.466.943.844 1.188 1.136.104.124.173.204.208.238a.855.855 0 0 0 .529.282c.058.009.158.017.303.026.39.02.705.046.945.078.344.043.652.106.923.186.214.064.553.198 1.019.403.344.157.6.29.767.4.268.173.465.37.59.589a.363.363 0 0 0-.092.13 21.131 21.131 0 0 1-3.155.728c-6.206.806-11.93.874-17.172.203a21.022 21.022 0 0 0-3.155-2.999c-.45-.344-.856-.598-1.218-.763-.477-.219-.932-.313-1.365-.281-.295.02-.654.115-1.08.286a10.6 10.6 0 0 0-2.444 1.382l-.398.295c-.142.096-.273.17-.395.226a.87.87 0 0 0-.347-.14c.041-.028.084-.066.13-.112.336-.347.666-.783.993-1.309.153-.251.425-.732.815-1.443 1.138-2.083 2.236-3.844 3.294-5.283 1.328-1.806 2.733-3.313 4.212-4.52.677-.553 1.316-.989 1.92-1.31.74-.392 1.464-.639 2.172-.736.268-.038.69-.064 1.265-.078Zm-23.477 20.543-.027-.008c.431-.573.882-1.127 1.353-1.665.436-.496.826-.89 1.17-1.179.286-.242.744-.569 1.374-.98.364-.242.656-.418.875-.528a7.558 7.558 0 0 1 1.114-.412 8.17 8.17 0 0 1 1.378-.299 3.695 3.695 0 0 1 1.379.087c.104.029.177.046.22.052.05.006.094.006.135 0a.927.927 0 0 0 .217-.039c.167-.046.345-.133.533-.26.037-.026.197-.147.477-.364.6-.462 1.26-.843 1.976-1.14.46-.19.86-.292 1.205-.303.436-.012.89.106 1.36.355.348.185.744.466 1.188.84a23.423 23.423 0 0 1 3.541 3.698c.124.158.308.396.55.711.218.271.417.495.599.671l.507.455c.205.183.364.341.477.477.04.05.097.12.169.213-.035.006-.07.013-.104.021-1.974.512-4.203.839-6.688.984-1.725.098-3.989.119-6.791.061a80.779 80.779 0 0 1-1.738-.052c-.633-.032-1.21-.08-1.73-.143a18.054 18.054 0 0 1-4.72-1.253Zm15.945-2.509a.263.263 0 0 0-.065-.035 1.072 1.072 0 0 0-.139-.03v.03l-.091.026a.117.117 0 0 0-.06.065c-.012.032-.005.068.021.108l.03.048.022.022c.006.006.016.008.03.008l.148.018a.19.19 0 0 0 .073-.031.05.05 0 0 0 .04-.026.1.1 0 0 0 .021-.043.205.205 0 0 0 .013-.061.134.134 0 0 0-.043-.099Zm-2.514-2.397c-.011-.017-.024-.028-.035-.03a.292.292 0 0 0-.07-.005.266.266 0 0 0-.06.005c-.011.002-.024.014-.039.034a.288.288 0 0 0-.035.247c.007.02.012.033.018.04l.108.047.026.004.026-.008.044-.022.026-.017a.083.083 0 0 0 .026-.044.488.488 0 0 0 .03-.104c.006-.046-.002-.08-.022-.104l-.043-.043Zm-.84 1.82.016.018.03.008.148.022c.052 0 .089-.016.108-.048a.137.137 0 0 0 .014-.069l-.005-.043-.03-.057-.022-.021c-.006-.006-.015-.009-.026-.009l-.134-.022v.026h-.083l-.047.109-.005.026.01.021.025.039Zm1.971-.48a.098.098 0 0 0 .005-.066c-.003-.046-.035-.085-.096-.117a3.09 3.09 0 0 1-.147-.047v.026a.44.44 0 0 0-.083.004l-.043.035c-.05.049-.07.1-.06.151a.228.228 0 0 0 .069.104l.034.022c.01.006.025.009.048.009h.087c.08-.006.134-.028.16-.065a.108.108 0 0 0 .026-.057Zm5.262-11.07a.229.229 0 0 0-.057-.173.194.194 0 0 0-.056-.044.121.121 0 0 0-.074-.004l-.052.004-.039.026a.243.243 0 0 0-.073.182.22.22 0 0 0 .086.174c.012.01.022.017.03.017l.031.004h.052l.035-.004c.006 0 .017-.006.034-.017a.224.224 0 0 0 .083-.165Zm-2.003-.022a.2.2 0 0 0 .156.126c.07.015.133-.006.191-.06a.216.216 0 0 0 .06-.105.287.287 0 0 0-.008-.169.231.231 0 0 0-.082-.117.229.229 0 0 0-.143-.043.285.285 0 0 0-.078.017.189.189 0 0 0-.091.109.433.433 0 0 0-.022.147c0 .038.006.07.017.095Zm1.734-2.297v.026a.207.207 0 0 0-.152.035.197.197 0 0 0-.1.121.34.34 0 0 0 .01.2c.005.026.012.043.021.052.011.023.039.045.082.065.11.046.198.05.265.013.05-.026.084-.08.104-.16a.271.271 0 0 0-.005-.187c-.03-.07-.106-.124-.225-.165Zm-20.05 4.308a.146.146 0 0 0-.147.03.24.24 0 0 0-.056.092c-.035.084-.041.147-.018.19l.048.057c.078.06.147.088.208.082a.164.164 0 0 0 .108-.052.213.213 0 0 0 .066-.104.252.252 0 0 0 0-.147.243.243 0 0 0-.048-.091.224.224 0 0 0-.16-.083v.026Zm.56-2.999h-.053l-.034.004a.106.106 0 0 0-.043.03.219.219 0 0 0-.07.11c-.006.054.022.11.082.164a.143.143 0 0 0 .03.013l.027.004h.065l.03-.004.03-.017.061-.07a.154.154 0 0 0 0-.143l-.056-.06a.082.082 0 0 0-.035-.027l-.034-.004Zm24.8-9.565c-.018-.011-.03-.018-.035-.018a.236.236 0 0 0-.061-.004.3.3 0 0 0-.065.004l-.035.022c-.054.055-.08.107-.073.156a.198.198 0 0 0 .039.074l.043.047.022.018.03.004h.074l.03-.004a.083.083 0 0 0 .03-.022c.046-.04.072-.078.078-.113.009-.06-.017-.115-.078-.164Zm-1.617-1.296c-.05.05-.072.097-.07.143.006.032.033.072.083.121l.03.022.03.004h.065l.03-.004.027-.017a.31.31 0 0 0 .06-.07.128.128 0 0 0 .005-.138.186.186 0 0 0-.057-.066.05.05 0 0 0-.034-.025l-.035-.005h-.052l-.039.005a.116.116 0 0 0-.043.03Zm2.193-.56c-.052.053-.08.096-.083.13-.006.05.022.102.083.157l.026.017.03.005h.07l.03-.005.03-.022a.23.23 0 0 0 .06-.069.135.135 0 0 0-.004-.143l-.047-.056a.125.125 0 0 0-.04-.03.663.663 0 0 1-.082-.005h-.043a.106.106 0 0 0-.03.022ZM27.67 53.07a2.223 2.223 0 0 0-.494-.298 1.326 1.326 0 0 0-.672-.126.847.847 0 0 0-.607.303.999.999 0 0 0-.19.447 2.46 2.46 0 0 0-.035.498c0 .182.013.34.039.473.034.153.104.334.208.542l.628 1.178c.19.327.44.619.746.876.147.121.311.244.494.368.19.133.338.224.442.273.158.072.348.12.567.14.13.01.327.015.59.012.197 0 .335-.029.416-.087a.778.778 0 0 0 .19-.26c.116-.254.183-.527.2-.819a1.026 1.026 0 0 0-.048-.394 1.334 1.334 0 0 0-.117-.221 3.51 3.51 0 0 1-.138-.208 2.24 2.24 0 0 1-.152-.334 4.229 4.229 0 0 0-.139-.342 4.213 4.213 0 0 0-.386-.564 5.46 5.46 0 0 0-.307-.364 6.477 6.477 0 0 0-.3-.277l-.493-.442a6.93 6.93 0 0 0-.442-.373Zm-.373.534c.22.127.48.33.784.607.332.306.575.562.728.767.124.167.243.367.356.598.07.145.16.357.273.637.156.379.156.644 0 .798-.11.106-.282.143-.516.108-.505-.072-.973-.334-1.404-.785-.286-.3-.587-.754-.902-1.36a3.32 3.32 0 0 1-.316-.82c-.067-.314-.037-.586.087-.814.292-.009.595.08.91.264Zm9.062-.858a20.515 20.515 0 0 0-.988-.884 6.057 6.057 0 0 0-1.092-.728 2.316 2.316 0 0 0-1.014-.282c-.384-.009-.685.106-.902.342-.222.245-.322.62-.299 1.123.024.407.109.799.256 1.174.052.142.084.23.095.265.026.101.03.19.013.268a.713.713 0 0 1-.073.187 7.763 7.763 0 0 0-.104.173c-.133.252-.176.577-.13.975.054.483.219.995.494 1.539.173.338.46.806.858 1.404.217.327.388.575.516.746.196.266.39.494.58.684.084.084.211.209.382.373.141.15.247.29.316.42.055.102.104.23.148.386.026.087.062.22.108.399.127.45.39 1 .789 1.647.893 1.456 1.855 2.577 2.886 3.363a7.196 7.196 0 0 0 1.946 1.07 5.8 5.8 0 0 0 2.18.365c.494-.015.915-.109 1.262-.282.355-.176.656-.448.901-.815.225-.338.384-.72.477-1.148a5.01 5.01 0 0 0 .09-1.231c-.008-.33-.047-.743-.116-1.24-.145-1.06-.337-1.941-.577-2.643-.318-.934-.756-1.698-1.317-2.293a2.214 2.214 0 0 0-.69-.516c-.285-.133-.55-.153-.792-.06a9.294 9.294 0 0 0-1.318-2.298 9.298 9.298 0 0 0-1.898-1.842c-.726-.529-1.35-.71-1.873-.546-.153.06-.267.104-.342.13a.683.683 0 0 1-.351.04c-.113-.02-.252-.11-.42-.265Zm.902 1.226.208-.212c.159-.133.366-.172.62-.117.205.04.42.136.645.286a7.62 7.62 0 0 1 1.778 1.621 7.734 7.734 0 0 1 1.204 2.085c.076.202.145.35.208.446.098.154.215.249.352.286.086.026.214.024.38-.004a1.46 1.46 0 0 1 .387-.026c.196.028.401.176.615.442.465.59.826 1.328 1.084 2.215.182.626.336 1.45.463 2.47.046.353.074.628.083.828.017.306.007.58-.03.823-.041.289-.122.553-.243.793a1.847 1.847 0 0 1-.512.638c-.407.312-.962.448-1.664.407a5.333 5.333 0 0 1-1.976-.511 6.955 6.955 0 0 1-1.717-1.14 10.035 10.035 0 0 1-1.37-1.53 16.55 16.55 0 0 1-1.105-1.742 4.937 4.937 0 0 1-.329-.677 1.905 1.905 0 0 1-.117-.931.73.73 0 0 0-.017-.209.658.658 0 0 0-.204-.325 3.158 3.158 0 0 0-.325-.247c-.457-.326-.887-.774-1.292-1.343-.251-.353-.579-.891-.983-1.617a8.988 8.988 0 0 1-.382-.74 2.557 2.557 0 0 1-.212-.794c-.02-.24.019-.427.117-.56a3.43 3.43 0 0 1 .143-.142.523.523 0 0 0 .121-.156.43.43 0 0 0 .017-.3 2.389 2.389 0 0 0-.117-.298 3.26 3.26 0 0 1-.281-1.44c.006-.23.06-.394.164-.489.157-.141.4-.143.729-.004.462.196.972.527 1.53.992.314.26.781.66 1.4 1.2.153.125.283.18.39.165a.445.445 0 0 0 .238-.143Zm1.565 8.799c-.046.089-.057.158-.03.208.005.014.02.033.043.056.071.067.149.094.23.082a.195.195 0 0 0 .155-.143.259.259 0 0 0-.026-.216.267.267 0 0 0-.052-.065 1.749 1.749 0 0 1-.13-.057v.035a.131.131 0 0 0-.143.026.322.322 0 0 0-.047.074Zm-3.069-5.453v.026c-.052-.023-.102-.01-.152.04a.452.452 0 0 0-.078.142.304.304 0 0 0-.004.17c.011.04.039.08.082.116.084.07.168.084.252.044.054-.026.095-.08.121-.16a.27.27 0 0 0 .013-.087.385.385 0 0 0-.017-.087.365.365 0 0 0-.048-.104.224.224 0 0 0-.169-.1Zm-.745-1.43a.297.297 0 0 0 .013-.108.206.206 0 0 0-.087-.156.424.424 0 0 0-.16-.078v.026a.196.196 0 0 0-.165.043.21.21 0 0 0-.091.143.711.711 0 0 0 .004.13.184.184 0 0 0 .026.078c.017.035.055.063.113.087.09.034.162.039.217.013.066-.029.11-.088.13-.178Zm1.308-.364a.287.287 0 0 0-.06-.035 1.872 1.872 0 0 1-.07-.026v.026a.193.193 0 0 0-.112.013c-.032.015-.063.054-.091.117-.035.07-.044.126-.026.17a.213.213 0 0 0 .082.09.255.255 0 0 0 .17.065.179.179 0 0 0 .107-.039.2.2 0 0 0 .07-.09.27.27 0 0 0-.018-.23c-.017-.032-.034-.052-.052-.061ZM24.775 38.234c-.312.102-.522.275-.632.52a11.231 11.231 0 0 0-3.485-1.963 3.289 3.289 0 0 0-.854-.19c-.323-.018-.591.049-.802.199-.17.124-.303.3-.398.528a2.16 2.16 0 0 0-.14.672c-.028.512.062 1.072.27 1.682.127.379.358.91.693 1.595.21.43.38.756.507.975.202.35.41.648.624.893.078.086.195.214.351.381.128.154.22.297.278.43.043.1.08.227.108.38l.065.39c.078.38.26.807.546 1.284.364.6.763 1.102 1.196 1.504.28.26.62.517 1.019.771.249.156.618.37 1.11.642.311.17.524.286.637.346.242.122.462.22.658.295.549.21 1.21.351 1.981.42.517.05.96.045 1.33-.013.48-.078.872-.247 1.175-.507.269-.231.486-.552.65-.962.113-.28.22-.666.321-1.157.075-.367.128-.663.16-.889.046-.329.068-.63.065-.905a5.18 5.18 0 0 0-.342-1.708 9.248 9.248 0 0 0-.771-1.582c-.674-1.138-1.418-2.044-2.233-2.718a6.543 6.543 0 0 0-1.5-.936 5.247 5.247 0 0 0-1.694-.46 2.185 2.185 0 0 0-.893.083Zm-2.977-.156a8.4 8.4 0 0 1 1.669 1.058c.097.078.162.127.19.147a.773.773 0 0 0 .212.108c.081.026.16.03.239.01a.295.295 0 0 0 .195-.122c.127.05.257.04.39-.026a.437.437 0 0 0 .247-.304 3.995 3.995 0 0 1 1.634.156c.52.156 1.016.402 1.487.737.774.546 1.514 1.361 2.219 2.445.332.511.58.964.745 1.356.289.694.438 1.424.447 2.193a5.793 5.793 0 0 1-.408 2.202c-.208.523-.472.867-.793 1.032a1.58 1.58 0 0 1-.494.143 4.714 4.714 0 0 1-.52.021c-.332.003-.583.002-.75-.004a5.324 5.324 0 0 1-.75-.078c-.491-.09-1.08-.306-1.768-.65a14.738 14.738 0 0 1-1.326-.728 7.443 7.443 0 0 1-1.2-.928 5.285 5.285 0 0 1-.937-1.187 4.006 4.006 0 0 1-.498-1.418 7.856 7.856 0 0 0-.052-.394 1.574 1.574 0 0 0-.109-.377 1.385 1.385 0 0 0-.256-.364 26.173 26.173 0 0 1-.316-.32 5.43 5.43 0 0 1-.815-1.123 17.306 17.306 0 0 1-.62-1.257c-.242-.535-.405-.954-.49-1.257-.135-.48-.166-.915-.09-1.305.04-.2.114-.33.22-.394.093-.052.237-.058.434-.018a8.462 8.462 0 0 1 1.864.646Zm1.023 3.233a.231.231 0 0 0-.078-.034.231.231 0 0 0-.152.021.158.158 0 0 0-.087.126.317.317 0 0 0 .03.135c.007.02.015.034.027.043l.026.013.086.03.035.009.043-.009a.23.23 0 0 0 .109-.06.133.133 0 0 0 .043-.096.207.207 0 0 0-.022-.108.174.174 0 0 0-.06-.07Zm.975 3.411a.208.208 0 0 0 .095-.104.24.24 0 0 0 .018-.095.255.255 0 0 0-.04-.143.23.23 0 0 0-.177-.108v.026c-.063-.024-.119-.007-.165.047a.253.253 0 0 0-.039.078c-.035.072-.041.13-.021.174a.256.256 0 0 0 .06.073c.046.044.09.068.13.074a.18.18 0 0 0 .139-.022Zm-.247-1.282a.185.185 0 0 0 .139-.022.209.209 0 0 0 .095-.104.241.241 0 0 0 .017-.096.255.255 0 0 0-.039-.143.231.231 0 0 0-.177-.108v.026c-.064-.023-.12-.007-.165.048a.255.255 0 0 0-.04.078c-.034.072-.04.13-.02.173a.259.259 0 0 0 .06.074c.047.043.09.068.13.074Zm86.877 39.618c-.514-.209-.997-.32-1.448-.334-.543-.015-1.113.106-1.712.36-.459.199-.975.498-1.547.897a19.392 19.392 0 0 0-3.341 2.969c-.358.398-.835.97-1.431 1.716l-2.4 3c-1.073 1.34-1.86 2.368-2.363 3.085-.826 1.179-1.475 2.293-1.946 3.342-.072.17-.094.305-.065.403a.17.17 0 0 0 .013.112c.029.072.111.142.247.208.748.356 1.602.655 2.562.897.722.183 1.614.356 2.674.521 6.576 1.011 12.428.782 17.557-.685.067-.02.128-.042.182-.065a21.377 21.377 0 0 0 8.456-.368c.416-.105.674-.167.772-.187.294-.063.556-.097.784-.1.093-.002.275.003.546.018.225.015.406.015.542 0 .28-.024.601-.111.962-.265.188-.078.458-.2.81-.368a.32.32 0 0 0 .356-.147l.039-.065a.408.408 0 0 0 .126-.213c.014-.093-.018-.18-.096-.26a.463.463 0 0 0-.086-.07 4.133 4.133 0 0 0-.143-.233 31.525 31.525 0 0 0-4.82-5.665c-.399-.37-.743-.656-1.032-.858a4.187 4.187 0 0 0-1.183-.603 4.268 4.268 0 0 0-1.209-.164c-.303-.003-.715.021-1.235.073-.228.02-.395.03-.499.03-.184 0-.346-.023-.485-.069a1.498 1.498 0 0 1-.442-.25 5.47 5.47 0 0 1-.39-.348 40.781 40.781 0 0 0-7.416-5.617 11.248 11.248 0 0 0-1.339-.697Zm9.938 7.823c.107-.006.319-.026.637-.061.46-.052.856-.074 1.188-.065.431.015.817.08 1.161.195.344.115.695.303 1.053.563.26.188.568.45.924.785a28.077 28.077 0 0 1 4.42 5.322c-.286.139-.481.232-.585.277-.274.113-.526.18-.754.2a3.087 3.087 0 0 1-.542-.004 9.302 9.302 0 0 0-.546-.03 3.59 3.59 0 0 0-.671.082c-.072.014-.293.066-.664.156a22.71 22.71 0 0 1-4.052.641c-1.372.09-2.739.055-4.1-.104a1.958 1.958 0 0 0-.199-.013 1.324 1.324 0 0 0-.065-.26 1.99 1.99 0 0 0-.382-.615 3.379 3.379 0 0 1-.247-.308 2.607 2.607 0 0 0-.394-.628c-.31-.373-.594-.64-.854-.802-.37-.24-.741-.332-1.114-.278-.029-.59-.31-1.209-.845-1.86-.18-.216-.444-.502-.793-.857-.306-.312-.564-.54-.772-.68-.314-.215-.624-.323-.927-.326a.225.225 0 0 0-.109.026c-.037.017-.054.042-.052.074.003.04.044.074.122.1.361.112.673.266.936.459.127.095.303.253.529.472.309.304.533.532.671.685.237.266.425.522.564.767.219.388.357.798.412 1.231.011.072.028.122.052.148.032.034.097.054.195.06.444.024.843.176 1.196.46.11.092.26.245.451.46a3.057 3.057 0 0 1 .502.71c.035.052.083.114.143.186l.156.178c.156.193.267.405.33.633a.388.388 0 0 0-.03.008 1.293 1.293 0 0 0-.425.048 41.407 41.407 0 0 1-9.626 1.231 41.652 41.652 0 0 1-9.648-1.019c-1.066-.236-1.942-.5-2.626-.788a1.37 1.37 0 0 0-.113-.044l.035-.07a25.851 25.851 0 0 1 1.677-2.83c.323-.473.706-.996 1.148-1.568.246-.315.649-.822 1.21-1.522l1.933-2.405c1.029-1.28 1.826-2.225 2.392-2.834.934-1.008 1.849-1.83 2.748-2.462a7.089 7.089 0 0 1 1.413-.793c.543-.22 1.062-.317 1.556-.29.439.025.908.153 1.408.38.327.148.757.39 1.292.729 1.519.95 2.717 1.748 3.593 2.392 1.274.939 2.352 1.881 3.233 2.826.251.271.438.46.559.563.223.194.445.326.668.395.179.055.389.08.628.074Zm-15.559 4.828a.109.109 0 0 0-.074 0 1.441 1.441 0 0 1-.078.03l-.1.017c-.04.012-.067.03-.082.052-.017.035-.015.081.009.14.023.063.045.11.065.138.006.015.014.023.026.026l.03.004h.091l.03-.004.026-.026.039-.065a.416.416 0 0 1 .039-.096.412.412 0 0 0 .039-.056v-.056c-.011-.057-.031-.092-.06-.104Zm-3.693 1.495c.015.043.039.09.074.139l.19-.03a.27.27 0 0 0 .031-.13l-.005-.03-.017-.023-.043-.043-.022-.017h-.035l-.095.017-.03.013-.044.056-.008.018c-.003.008-.001.019.004.03Zm1.361-1.937a.198.198 0 0 0-.113.034.168.168 0 0 0-.069.091c-.011.038-.002.098.03.178l.018.026.026.013.125.04.039-.01a.53.53 0 0 0 .113-.06c.049-.05.059-.111.03-.187a.186.186 0 0 0-.099-.104.272.272 0 0 0-.1-.021Z"/><path fill="#313234" d="M46.233 67.862c-.089-.072-.167-.098-.234-.078a.156.156 0 0 0-.1.095.241.241 0 0 0-.012.148c.011.052.062.136.151.251.105.133.246.344.425.633a40.007 40.007 0 0 1 2.947 5.847.812.812 0 0 0 .152.264c.04.037.087.063.139.074a.2.2 0 0 0 .147-.022c.115-.072.127-.224.035-.455a41.577 41.577 0 0 0-2.939-5.851 7.154 7.154 0 0 0-.316-.486 2.319 2.319 0 0 0-.395-.42Zm-.134-3.614a1.776 1.776 0 0 0-.039-.165.256.256 0 0 0-.095-.13.194.194 0 0 0-.19-.005.28.28 0 0 0-.144.152c-.037.104-.026.24.035.407.058.165.184.423.377.772l1.608 2.852a.59.59 0 0 0 .173.2c.08.057.154.063.217.017.09-.067.09-.193 0-.377a37.088 37.088 0 0 0-1.582-2.96 5.499 5.499 0 0 1-.213-.37 1.636 1.636 0 0 1-.147-.394Zm30.018-18.325c-.332.48-.678 1.062-1.036 1.746-.251.486-.452.909-.602 1.27-.194.471-.336.917-.425 1.335-.043.191-.016.31.082.36.038.02.081.024.13.013a.244.244 0 0 0 .117-.074.59.59 0 0 0 .122-.242c.133-.408.232-.698.299-.872.139-.358.348-.801.628-1.33.5-.942.96-1.689 1.383-2.24.893-1.162 2.08-2.18 3.563-3.052.075-.046.127-.08.156-.104a.435.435 0 0 0 .117-.143.237.237 0 0 0 .013-.182c-.024-.07-.065-.11-.126-.121-.037-.01-.1.006-.186.043-.844.401-1.627.91-2.35 1.526-.722.61-1.35 1.299-1.885 2.067Zm-.628-2.011a.81.81 0 0 0 .212-.239c.416-.617.98-1.163 1.69-1.634.142-.092.233-.177.273-.255a.287.287 0 0 0 .035-.182.196.196 0 0 0-.09-.152c-.096-.06-.226-.03-.391.091-.8.584-1.452 1.246-1.955 1.985-.098.147-.12.263-.065.347.029.04.074.065.135.074a.242.242 0 0 0 .156-.035Zm-17.22 3.398c-.054-.076-.117-.107-.186-.096-.078.015-.127.07-.147.165a.567.567 0 0 0 .008.26c.11.488.271 1.025.486 1.608.132.367.34.887.62 1.56.066.16.144.239.233.239a.172.172 0 0 0 .126-.065.27.27 0 0 0 .056-.139.663.663 0 0 0-.082-.286 15.436 15.436 0 0 1-1.018-3.012.616.616 0 0 0-.096-.234Zm8.014-8.781c-.087.02-.188.097-.303.23a16.295 16.295 0 0 0-2.406 3.519 16.564 16.564 0 0 0-1.43 4.018c-.214 1.011-.283 1.882-.208 2.613.02.206.088.315.204.33.08.008.144-.033.19-.126a.673.673 0 0 0 .065-.273 15.502 15.502 0 0 1 1.166-5.305 15.487 15.487 0 0 1 2.895-4.59c.09-.095.132-.18.126-.251a.184.184 0 0 0-.108-.143.26.26 0 0 0-.191-.022Zm-11.802 6.64.269 1.543c.046.286.094.526.143.72.032.13.106.378.221.745.28.843.496 1.47.646 1.88.254.691.511 1.3.771 1.83.124.251.301.587.53 1.005.262.486.441.821.536 1.006.064.13.129.212.195.247.05.026.103.033.16.021.059-.017.095-.05.11-.1.01-.034.005-.088-.018-.16-.13-.366-.34-.828-.628-1.382-.38-.72-.61-1.172-.694-1.357-.115-.257-.28-.674-.494-1.252-.33-.879-.57-1.563-.72-2.055a13.62 13.62 0 0 1-.498-2.11 6.038 6.038 0 0 0-.113-.646.506.506 0 0 0-.112-.221.235.235 0 0 0-.109-.061.163.163 0 0 0-.117.017c-.083.05-.109.16-.078.33Z"/></svg>