<svg xmlns="http://www.w3.org/2000/svg" width="164" height="105" fill="none"><path fill="#333" d="M45.728 104.621c16.431 0 29.751-2.711 29.751-6.054 0-3.343-13.32-6.053-29.75-6.053-16.432 0-29.752 2.71-29.752 6.053s13.32 6.054 29.751 6.054Z"/><path fill="#EABEBE" d="m52.475 90.127.479 4.3-.638 1.063-3.134.371-.266.69 4.94 1.01 3.773 3.079.478-.424-.638-1.753 3.029.903-.16-.956-3.825-1.965 2.178-.955-.584-.69-3.4-.213v-4.46h-2.444M43.763 92.141l-.372 5.098-1.966-.478.531 1.115-2.337 2.177.265.531 3.879-1.168.743.372 2.391 2.867.638-.424-1.382-2.921 3.453.531-3.878-2.177-.744-1.54.16-3.77-1.381-.213Z"/><path fill="#555" d="M59.647 5.216c0 .584-1.275 2.23-1.753 2.283-.478.106-.425-.425-.372-.53.32-.691.744-1.381 1.116-2.072.16-.265.478-.212.69-.16.266.107.426.266.32.479ZM49.606 3.093c-.478.85-.903.318-1.01-.372V.385c0-.319.213-.425.532-.372.532.053.532.478.532.797.106.743.318 1.593-.054 2.283ZM39.778 6.065c0 .531-.425.69-.69.478-.532-.424-1.01-.955-1.063-1.699 0-.212.053-.372.319-.372.372.054 1.434 1.222 1.434 1.593Z"/><path fill="#B9B9B9" d="M44.081 93.204c-.265-1.752-1.328-3.132-2.443-4.407-2.922-3.292-6.27-6-10.466-7.593-.16-.053-.372-.16-.532-.212-.212-.054-.159.265 0 .318.85.531 1.754 1.009 2.657 1.54-2.072 2.708-3.453 5.788-5.153 8.602-.797 1.275-1.647 2.443-2.816 3.346-1.01.796-2.125 1.486-3.4 1.38-1.753-.106-3.932-.85-5.791-1.221.85-.637 1.7-1.01 2.497-1.806-1.54.213-2.231.638-3.507 1.169-1.965.85-3.93 1.752-6.003 2.283-.106 0-.425.319-.531.319-.372.053-1.169.159-1.328-.107-.213-.318.319-.956.531-1.274 1.116-1.805 2.71-3.186 3.931-4.885l.213-.213c1.222-2.177 3.294-3.292 5.472-4.354 5.79-2.761 11.528-5.575 17.266-8.443 3.453-1.752 6.747-3.717 9.775-6.16 2.975-2.389 4.357-5.522 4.622-9.186.213-2.442-.106-4.195-1.222-6.478a.887.887 0 0 1-.053-.637c.372-1.01.479-2.337.479-3.346 0-3.292-2.285-5.681-5.473-4.885-1.806.425-3.984 2.018-5.525 3.133.479-2.283 1.275-5.31 1.647-7.487a73.732 73.732 0 0 0 1.169-12.266c0-1.54.584-2.39 2.019-2.867 2.125-.744 4.569-1.169 6.8-1.54.638-.107.903.053 1.169.637.212.584-.053 1.274.744 1.274s.797-1.009 1.062-1.593c.478-1.009.85-.796 2.603-.637.85.053.797.637.904 1.221.743 3.93 2.815 7.222 5.046 10.408 3.666 5.31 6.588 10.886 7.438 17.417 1.169 9.186-2.178 18.744-10.466 23.789-3.24 2.017-6.8 3.08-10.625 3.398-4.25.319-8.075-.265-12.06-1.646-.425-.16-.956-.372-1.7-.372 3.081 1.753 6.27 2.602 9.616 2.92 3.347.373 6.96 0 10.307-.902-2.338 1.965-4.782 4.301-6.482 6.85-.903 1.38-1.647 2.814-1.7 4.513-.212-.106-.584.054-.69 0Z"/><path fill="#E7E7E7" d="M.677 92.193c.744-1.327 1.647-2.708 2.603-3.77 6.216-6.903 13.175-13.487 19.179-20.55 4.25-4.991 8.447-10.036 13.016-14.708 1.965-1.965 4.09-3.664 6.694-4.673 2.762-1.01 4.994-.531 5.578 3.08.16.743.212 1.54.266 2.336.053.425.212.903-.585.956-.319 0-.372.425-.319.743.107.584.213 1.168.372 1.7.744 2.389.744 4.831.266 7.274-.425 2.337-1.966 4.354-3.772 5.894-3.613 3.08-7.65 5.47-11.954 7.487C25.86 80.936 19.75 84.07 13.64 87.15a103.645 103.645 0 0 1-11.157 4.779c-.266.16-1.222.318-1.806.265Z"/><path fill="#B9B9B9" d="M49.447 24.704c-2.922.425-6.216 1.434-9.085 2.708.32-4.141.426-8.655 2.55-12.266 1.063-1.805 2.338-3.345 4.516-3.823 2.391-.531 5.26.584 6.482 2.655 1.116 1.912 1.275 4.301 1.328 6.478 0 1.062-.053 2.124 0 3.133.053.744-.106 1.01-.903.903-.69-.053-1.753.212-1.222-1.274.266-.956-1.275-1.54-2.231-1.54-1.488 0-2.179 1.062-1.435 3.026Zm-3.134-5.628c-.053-.531.053-1.169-.585-1.222-.743-.053-.584.638-.584 1.116 0 .424-.053 1.008.531 1.062.638 0 .638-.532.638-.956Zm7.225-.213c.053.372-.16 1.01.478.956.584-.053.372-.743.478-1.168.053-.319 0-.85-.478-.797-.584.053-.425.585-.478 1.01ZM52.74 90.603c-.159-1.168-.318-2.284-.477-3.452-.16-1.009-.69-1.699-1.594-2.336 2.019-1.912 4.728-3.77 6.96-5.363.159.424-.107 1.062-.213 1.327-1.222 2.815-2.072 5.682-2.816 8.656-.106.477-.478.955-.425 1.486-.372-.318-1.062-.371-1.434-.318Z"/><path fill="#F5F5F5" d="M50.882 27.041c-.531-1.115-.744-2.602-1.381-3.61-.107-.16-.213-.425-.053-.585.584-.69 2.443-.637 2.921.107.107.159.054.584 0 .85-.159.265-1.168 2.654-1.487 3.238Z"/><path fill="#555" d="M46.313 19.076c0 .424 0 .955-.638.902-.637-.053-.584-.637-.531-1.062 0-.478-.106-1.115.584-1.115.638.106.531.744.584 1.275ZM53.538 18.864c.053-.425-.16-.956.478-1.009.478 0 .532.478.478.796-.053.425.107 1.063-.478 1.169-.637.053-.372-.584-.478-.956Z"/><path fill="#555" d="M93.49 68.564c-2.126-.213-4.251-.372-6.323.053-.319.053-.266.318-.266.53.16 2.178 0 12.054-3.08 17.895a35.045 35.045 0 0 1-3.135 4.78c-3.772 4.088-8.182 4.354-10.998 2.76-4.41-3.08-4.993-8.814-3.24-13.54 2.284-6.213 6.96-9.93 12.963-12.107a27.047 27.047 0 0 1 5.418-1.38c.479-.054.691-.213.638-.744-1.063-10.514-3.719-20.443-10.36-28.94-4.144-5.256-9.244-9.239-15.725-11.31-.478-.16-1.01-.265-1.54-.372-1.17-.265-1.17-.265-.904.956.744 3.186 2.338 5.948 4.144 8.603 2.55 3.717 5.047 7.487 6.535 11.788 2.55 7.646 2.603 15.24-.904 22.62-1.328 2.868-3.24 5.31-5.684 7.328-1.382 1.115-2.232 2.496-2.816 4.142a447.198 447.198 0 0 0-2.603 7.806c-.478 1.433-.956 4.567-.85 4.938 1.062 0 2.125-.106 3.188.213.53.159 1.328.159 1.221 1.008-.106.69-.796.638-1.328.69-.053 0-.053.054-.16.16.904.478 1.86.797 2.604 1.54.425.425 1.01.956.584 1.593-.425.584-1.062.212-1.593.053-.372-.106-.691-.53-1.17-.319.107.107.213.213.267.32.265.53.584 1.114.106 1.592s-.957-.053-1.382-.319c-.903-.584-1.593-1.38-2.284-2.177-.638-.743-1.328-.955-2.285-.955-1.274 0-2.55-.107-3.771-.585-.32-.106-.691-.318-.691-.743 0-.372.372-.53.637-.69.744-.319 1.488-.425 2.285-.425 1.594-.106 1.647-.16 1.54-1.752-.478-5.364-.478-5.31-.903-6.903-.371-1.275-1.009-1.275-1.912-.266-3.666 3.823-4.144 6.585-4.144 6.903 0 1.062.053 2.124-.053 3.133-.053.531.106.637.531.797 1.275.478 2.55.955 3.719 1.752.372.265.956.53.69 1.115-.212.531-.796.425-1.274.425-.744 0-1.435-.425-2.285-.425.319.637.584 1.168.797 1.752.212.478.425 1.009-.16 1.381-.584.372-1.009-.053-1.38-.372-.691-.69-1.276-1.434-1.7-2.283-.373-.743-.745-.69-1.329-.319-.956.584-1.965 1.009-3.134 1.009-.425 0-.744-.106-.904-.478-.212-.371 0-.69.266-.956.638-.743 1.435-1.22 2.231-1.805-.159-.16-.265-.319-.425-.425-.318-.265-.53-.637-.318-1.009.265-.424.69-.265 1.062-.159.372.16.744.372 1.169.584.053-1.115.212-2.07.212-3.186 0-.371-.425-1.168-.478-1.327-1.965-3.824-5.047-6.532-8.5-8.921-.372-.266-.478-.053-.584.212-1.807 3.24-3.56 6.478-5.366 9.718-2.497 3.451-5.79 4.354-9.828 3.026-.532-.159-2.497-1.38-3.72-.743-1.806.903-6.374 2.177-6.693 2.177-1.169 0-1.594-.584-1.275-1.7.212-.849.743-1.592 1.275-2.176.531-.638 3.347-3.93 4.144-5.045-.32.16-6.907 2.974-9.935 3.93-.744.212-1.54.53-2.072-.213-.584-.796-.053-1.646.584-2.23 2.02-1.859 3.56-4.142 5.526-6.107 3.134-3.186 6.003-6.53 8.925-9.876 3.347-3.823 6.588-7.806 9.934-11.63 2.976-3.398 5.738-6.902 8.873-10.141.584-.425 1.062-.956 1.54-1.54 1.275-.956 1.435-2.815 1.647-3.823C39.62 36.066 39.3 30.33 39.353 29.8c0-.212-.106-.425-.372-.265-.425.265-3.294 1.858-5.26 4.566-1.7 2.23-3.93 7.647-4.25 10.408-.106 1.009-.106 1.062-1.221.797 0-.266 0-.478-.053-.744.743-6.797 4.462-11.363 4.781-11.788 2.922-3.399 6.269-5.098 6.269-5.098.16-.743.372-4.885.319-5.363.212-2.761.903-5.416 2.178-7.859 1.222-2.283 3.506-4.407 5.525-4.513 3.719-.213 5.366.903 6.535 2.07 2.337 2.39 2.762 6.267 2.762 6.585v3.346c0 .69 0 1.38-.053 2.07-.053.478.16.69.638.797.903.16 15.14 3.133 22.685 17.842.69 1.327 4.515 8.496 5.684 15.93.16 1.115 1.275 8.124 1.275 8.23-.053.744.478.531.85.531.69 0 8.394-.69 14.344 1.752 4.357 1.753 10.626 4.78 14.77 12.904.159.318.478 1.965 1.221 1.965 8.713.265 20.348 8.07 24.598 9.664 12.06 4.46 19.179 5.15 20.719 5.31.638.053.744.318.691.903-.053.69-.478.584-.903.53-1.541-.159-11.422-1.168-20.082-4.885-11.369-4.885-10.572-6.266-23.641-9.983-.319-.106-.957-.212-1.275.053-.213.213-.053 1.01-.053 1.275 0 .743.159 4.513-.85 6.744-2.71 6-9.563 6.85-11.423 6.584-5.312-.85-4.728-6.531-4.515-7.593.903-4.408 6.056-7.965 12.75-8.39.531-.053 1.541-.053 1.753-.584.213-.531-.106-1.062-.531-1.859-.053-.212-5.472-11.363-21.729-13.168ZM44.134 96.175c-.213 1.858-.213 1.858-1.807 1.168-.053 0-.106.053-.265.106.584.584.106.956-.32 1.38-.265.266-1.221 1.01-1.54 1.275.531-.106 1.328-.531 1.488-.584 2.072-.903 2.55-.531 3.56.743.477.637.85 1.381 1.806 2.018-.266-.531-.425-.85-.532-1.168-.372-.744-.903-1.38-1.381-2.018-.16-.16-.319-.425-.213-.637.16-.266.372 0 .585.053 1.01.319 1.965.584 2.975.85-.319-.319-.744-.478-1.169-.638-.425-.212-.903-.371-1.328-.584-.797-.371-1.54-.85-1.54-1.911 0-.425.159-2.443.212-3.027.053-1.7.797-3.133 1.7-4.514 1.7-2.548 3.878-4.672 6.216-6.637-3.294.903-6.694 1.062-10.041.69-3.347-.371-6.535-1.221-9.616-2.92.69-.319 1.062 0 1.487.106 3.985 1.38 8.023 2.23 12.273 1.911 3.825-.265 7.384-1.38 10.625-3.398 8.235-5.044 11.635-14.602 10.466-23.789-.85-6.531-3.719-12.107-7.438-17.417-2.231-3.186-4.356-6.478-5.047-10.407-.106-.584-.053-1.169-.903-1.222-1.753-.159-1.966-.106-2.444.903-.266.584-.266 1.593-1.062 1.593-.797 0-.638-1.009-.904-1.54-.212-.584-.478-.743-1.168-.637-2.232.372-4.41 1.009-6.535 1.752-1.434.478-1.966 1.328-2.019 2.868-.053 4.141-.425 8.23-1.169 12.266-.371 2.177-.85 4.354-1.328 6.584C39.3 48.28 40.894 47.377 42.7 46.9c3.24-.797 5.897 1.274 5.844 4.566 0 1.062 0 2.071-.372 3.08a.887.887 0 0 0 .053.637c1.116 2.23 1.275 4.673 1.063 7.116-.319 3.663-1.7 6.796-4.622 9.186-3.028 2.443-6.322 4.46-9.775 6.16-5.738 2.867-11.476 5.734-17.267 8.442-2.178 1.063-4.25 2.178-5.472 4.355-.053.106-.159.159-.212.212-1.222 1.7-2.816 3.08-3.932 4.885-.212.319-.478.744-.265 1.062.16.266.69.107 1.01.053.106 0 .159-.053.265-.106 2.072-.53 4.037-1.487 6.003-2.283 1.222-.531 2.444-1.115 4.038-1.328-.797.85-1.647 1.169-2.497 1.806 1.86.425 3.453 1.062 5.26 1.168 1.274.106 2.39-.319 3.346-1.115 1.17-.956 2.072-2.071 2.816-3.345 1.753-2.868 3.081-5.895 5.153-8.603-.903-.53-1.806-1.008-2.656-1.54-.16-.106-.372-.212-.266-.424.107-.213.32-.16.532-.106.159.053.372.159.53.212 4.145 1.593 7.545 4.301 10.467 7.593 1.115 1.275 2.125 2.655 2.444 4.408.16.637.053 2.76-.053 3.186Zm6.481.318c1.753-.16 3.24.425 4.516 1.646.744.69 1.647 1.275 2.444 1.912-.425-1.221-1.541-1.752-2.232-2.761-.106-.16-.531-.319-.319-.584.266-.372.532 0 .744.159 1.328.85 2.763 1.38 4.197 1.912-.531-.69-1.275-1.116-2.072-1.434l-1.753-.797c-.319-.159-.744-.265-.637-.743.053-.425.478-.372.797-.425.106 0 1.912.16 1.912-.053-.053-.584-2.603-.319-3.081-.319-.797.053-.903-.371-1.063-1.062-.212-1.062.053-2.07 0-3.133-.053-.53.266-1.008.425-1.486.744-2.92 1.647-5.841 2.816-8.656.106-.265.372-.478.16-.902-2.232 1.593-4.516 3.08-6.535 4.991.903.637 1.434 1.38 1.593 2.39.16 1.168.32 2.283.479 3.451.106 1.168.318 2.336.265 3.505 0 1.38-.16 1.593-1.593 1.805-.585.106-1.17.16-1.754.213-.159-.054-.318-.107-.425.106 0 0 .16.212.266.212.319.053.584.053.85.053Zm-49.46-4.567c.637.054 1.062-.106 1.487-.318a103.646 103.646 0 0 0 11.156-4.78c6.11-3.079 12.22-6.212 18.382-9.185 4.25-2.018 8.34-4.408 11.954-7.488 1.806-1.54 3.028-3.451 3.506-5.788.478-2.442.478-4.885-.266-7.274-.16-.584-.265-1.168-.372-1.7-.053-.265 0-.69.32-.743.743 0 .584-.53.584-.956-.054-.796-.107-1.593-.266-2.336-.638-2.867-2.55-3.876-5.313-2.867-2.656.955-4.781 2.708-6.694 4.672-4.622 4.673-8.766 9.718-13.016 14.71-6.11 7.062-12.484 13.752-18.753 20.655-.957 1.009-1.966 2.071-2.71 3.398Zm84.47-20.284c0-.637-.053-1.327 0-1.964.053-.744-.159-1.01-.956-.85-1.966.372-3.931.85-5.737 1.646-4.888 2.018-8.82 5.098-10.998 10.09-1.434 3.238-1.806 6.584-.212 9.876 1.7 3.504 5.312 4.62 8.713 2.76 2.496-1.327 4.303-3.45 5.578-5.893 2.603-4.939 3.453-10.249 3.612-15.665Zm-36.444-47.1c-.744-1.964-.266-2.708 1.753-3.08.106 0 .212-.053.319-.053 1.115-.053 2.178.85 1.912 1.859-.372 1.221.372 1.009 1.063 1.062.797.106.956-.212.903-.903-.053-1.062 0-2.07 0-3.133-.053-2.124-.266-4.248-1.435-6.16-1.222-2.07-3.825-3.291-6.216-2.76-2.178.477-3.453 2.017-4.515 3.823-2.125 3.61-2.019 7.7-2.338 11.841 2.763-1.327 5.632-2.07 8.554-2.496Zm67.736 63.455c-.053-.743-.053-1.487-.213-2.23-.106-.478-.265-.637-.796-.637-3.347.106-6.588.743-9.404 2.655-2.178 1.433-3.666 3.398-3.878 6.16-.213 2.973 1.806 4.938 4.781 4.672 5.419-.584 9.51-5.15 9.51-10.62Zm-65.93-61.33c.319-.532 1.222-2.709 1.328-3.027.106-.266-.053-.372-.16-.531-.424-.744-1.965-.797-2.602-.16-.16.16-.16.266-.054.425.638 1.01.957 2.177 1.488 3.292Z"/></svg>