<svg width="28" height="28" viewBox="0 0 28 28" fill="none" xmlns="http://www.w3.org/2000/svg">
<circle cx="14" cy="14" r="13.5" fill="url(#paint0_linear_6118_2416)" stroke="url(#paint1_linear_6118_2416)"/>
<path fill-rule="evenodd" clip-rule="evenodd" d="M21 14C21 17.866 17.866 21 14 21C10.134 21 7 17.866 7 14C7 10.134 10.134 7 14 7C17.866 7 21 10.134 21 14ZM13.5371 8.58055C13.7975 8.34508 13.9598 8.3125 14 8.3125C14.0402 8.3125 14.2025 8.34508 14.4629 8.58055C14.71 8.80394 14.9877 9.16049 15.2488 9.65694C15.7067 10.5279 16.0858 11.7784 16.17 13.3438H11.83C11.9142 11.7784 12.2933 10.5279 12.7512 9.65694C13.0123 9.16049 13.29 8.80394 13.5371 8.58055ZM10.5158 13.3438C10.6014 11.5765 11.0278 10.1146 11.5895 9.04618C11.6373 8.9552 11.6864 8.86668 11.7365 8.78075C9.91301 9.57265 8.58566 11.2922 8.34995 13.3438H10.5158ZM8.34995 14.6562H10.5158C10.6014 16.4235 11.0278 17.8854 11.5895 18.9538C11.6373 19.0448 11.6864 19.1333 11.7365 19.2193C9.91301 18.4273 8.58566 16.7078 8.34995 14.6562ZM11.83 14.6562H16.17C16.0858 16.2216 15.7067 17.4721 15.2488 18.3431C14.9877 18.8395 14.71 19.1961 14.4629 19.4195C14.2025 19.6549 14.0402 19.6875 14 19.6875C13.9598 19.6875 13.7975 19.6549 13.5371 19.4195C13.29 19.1961 13.0123 18.8395 12.7512 18.3431C12.2933 17.4721 11.9142 16.2216 11.83 14.6562ZM17.4842 14.6562C17.3986 16.4235 16.9722 17.8854 16.4105 18.9538C16.3626 19.0448 16.3136 19.1333 16.2635 19.2193C18.087 18.4273 19.4143 16.7078 19.65 14.6562H17.4842ZM19.65 13.3438C19.4143 11.2922 18.087 9.57265 16.2635 8.78075C16.3136 8.86668 16.3626 8.9552 16.4105 9.04618C16.9722 10.1146 17.3986 11.5765 17.4842 13.3438H19.65Z" fill="#00B899"/>
<defs>
<linearGradient id="paint0_linear_6118_2416" x1="14" y1="0" x2="14" y2="28" gradientUnits="userSpaceOnUse">
<stop stop-color="#18191B"/>
<stop offset="1" stop-color="#383838"/>
</linearGradient>
<linearGradient id="paint1_linear_6118_2416" x1="14" y1="0" x2="14" y2="28" gradientUnits="userSpaceOnUse">
<stop stop-color="#A4A4A4"/>
<stop offset="1" stop-color="#111317"/>
</linearGradient>
</defs>
</svg>
