<svg width="28" height="28" viewBox="0 0 28 28" fill="none" xmlns="http://www.w3.org/2000/svg">
<circle cx="14" cy="14" r="13.5" fill="url(#paint0_linear_6118_2411)" stroke="url(#paint1_linear_6118_2411)"/>
<path fill-rule="evenodd" clip-rule="evenodd" d="M14.3728 7.11602C14.1485 6.96133 13.8519 6.96133 13.6276 7.11602L7.28389 11.491C7.10627 11.6135 7.00021 11.8155 7.00021 12.0313V18.5938C7.00021 19.9227 8.07753 21 9.40646 21H18.594C19.9229 21 21.0002 19.9227 21.0002 18.5938V12.0313C21.0002 11.8155 20.8942 11.6135 20.7165 11.491L14.3728 7.11602ZM8.31271 18.5938V12.3758L14.0002 8.45343L19.6877 12.3758V18.5938C19.6877 19.1978 19.198 19.6875 18.594 19.6875H16.6247V17.2804C16.6247 15.9515 15.5474 14.8741 14.2184 14.8741H13.7809C12.452 14.8741 11.3747 15.9515 11.3747 17.2804V19.6875H9.40646C8.8024 19.6875 8.31271 19.1978 8.31271 18.5938ZM12.6872 17.2804C12.6872 16.6763 13.1769 16.1866 13.7809 16.1866H14.2184C14.8225 16.1866 15.3122 16.6763 15.3122 17.2804V19.6867H12.6872V17.2804Z" fill="#00B899"/>
<defs>
<linearGradient id="paint0_linear_6118_2411" x1="14" y1="0" x2="14" y2="28" gradientUnits="userSpaceOnUse">
<stop stop-color="#18191B"/>
<stop offset="1" stop-color="#383838"/>
</linearGradient>
<linearGradient id="paint1_linear_6118_2411" x1="14" y1="0" x2="14" y2="28" gradientUnits="userSpaceOnUse">
<stop stop-color="#A4A4A4"/>
<stop offset="1" stop-color="#111317"/>
</linearGradient>
</defs>
</svg>
