<svg width="15" height="16" fill="none" xmlns="http://www.w3.org/2000/svg"><path d="m7.078 15.87.422-.62.423.62a.752.752 0 0 1-.845 0Z" fill="#00B899"/><path fill-rule="evenodd" clip-rule="evenodd" d="M7.5 4a3 3 0 1 0 0 6 3 3 0 0 0 0-6ZM6 7a1.5 1.5 0 1 1 3 0 1.5 1.5 0 0 1-3 0Z" fill="#00B899"/><path fill-rule="evenodd" clip-rule="evenodd" d="m7.078 15.87.422-.62.423.62v-.001l.005-.003.016-.011a8.027 8.027 0 0 0 .265-.188 25.287 25.287 0 0 0 2.946-2.511c.806-.806 1.631-1.76 2.259-2.789C14.038 9.343 14.5 8.19 14.5 7c0-3.929-3.287-7-7-7s-7 3.071-7 7c0 1.19.462 2.343 1.086 3.367.628 1.03 1.453 1.983 2.259 2.788a25.295 25.295 0 0 0 3.211 2.7l.016.01.004.004.002.001ZM2 7c0-3.071 2.586-5.5 5.5-5.5S13 3.929 13 7c0 .81-.32 1.688-.867 2.586-.544.893-1.281 1.752-2.038 2.509A23.824 23.824 0 0 1 7.5 14.326a23.82 23.82 0 0 1-2.595-2.232c-.757-.756-1.494-1.615-2.038-2.508C2.319 8.688 2 7.81 2 7Z" fill="#00B899"/></svg>