<svg width="245" height="394" viewBox="0 0 245 394" fill="none" xmlns="http://www.w3.org/2000/svg">
<g clip-path="url(#clip0_10200_14444)">
<g clip-path="url(#clip1_10200_14444)">
<rect x="0.8" y="0.8" width="243.228" height="428.6" rx="36" fill="url(#paint0_linear_10200_14444)" stroke="url(#paint1_linear_10200_14444)" stroke-width="1.6"/>
<rect x="8.8" y="13.9279" width="227.2" height="400.324" rx="26.4" fill="url(#paint2_linear_10200_14444)" stroke="url(#paint3_linear_10200_14444)" stroke-width="1.6"/>
</g>
<g clip-path="url(#clip2_10200_14444)">
<rect x="21.6016" y="117.225" width="199.977" height="76.8" rx="7.89041" fill="#28292B"/>
<path d="M37.6005 136.473H40.0662V137.425H36.6056V131.369H37.6005V136.473ZM41.1651 131.369H42.1601V137.425H41.1651V131.369ZM49.5273 131.369V137.425H48.5324V133.108L46.6896 136.153H46.5685L44.7257 133.099V137.425H43.7308V131.369H44.8035L46.629 134.397L48.4632 131.369H49.5273ZM51.0953 131.369H52.0902V137.425H51.0953V131.369ZM57.5974 131.369V132.32H55.893V137.425H54.8981V132.32H53.1851V131.369H57.5974ZM63.449 137.537C62.1167 137.537 61.1564 136.724 61.1564 135.418V131.369H62.1513V135.357C62.1513 136.067 62.5579 136.568 63.449 136.568C64.3401 136.568 64.7468 136.067 64.7468 135.357V131.369H65.7417V135.418C65.7417 136.724 64.7727 137.537 63.449 137.537ZM69.2624 137.537C68.0685 137.537 67.2466 136.949 66.9264 136.049L67.7829 135.547C67.9992 136.162 68.4664 136.568 69.2883 136.568C70.0756 136.568 70.413 136.214 70.413 135.772C70.413 135.236 69.9372 135.054 69.0374 134.777C68.0944 134.492 67.1773 134.146 67.1773 133.004C67.1773 131.888 68.1031 131.256 69.1239 131.256C70.1189 131.256 70.8543 131.784 71.2349 132.589L70.3957 133.073C70.1794 132.589 69.7988 132.225 69.1239 132.225C68.5443 132.225 68.1723 132.519 68.1723 132.978C68.1723 133.445 68.5097 133.644 69.3921 133.921C70.3957 134.241 71.408 134.552 71.408 135.755C71.408 136.862 70.5255 137.537 69.2624 137.537ZM73.5783 136.473H76.2603V137.425H72.5834V131.369H76.217V132.32H73.5783V133.895H76.0007V134.838H73.5783V136.473ZM79.9107 131.369C81.5805 131.369 82.809 132.701 82.809 134.397C82.809 136.084 81.5805 137.425 79.9107 137.425H77.5315V131.369H79.9107ZM79.9107 136.473C81.0614 136.473 81.8487 135.591 81.8487 134.397C81.8487 133.194 81.0614 132.32 79.9107 132.32H78.5265V136.473H79.9107Z" fill="#878A8D"/>
<path d="M41.9152 149.46L41.6366 150.41H36.3277L36.6063 149.46H41.9152ZM39.4246 155.867L36.426 152.196L36.4096 151.508H37.9007C38.2885 151.508 38.619 151.454 38.892 151.344C39.1651 151.232 39.3741 151.066 39.5188 150.845C39.6635 150.621 39.7359 150.339 39.7359 150.001C39.7359 149.501 39.5857 149.109 39.2853 148.825C38.9849 148.538 38.5234 148.395 37.9007 148.395H36.3277L36.6063 147.477H37.9007C38.5671 147.477 39.1133 147.588 39.5393 147.809C39.968 148.028 40.2848 148.328 40.4896 148.71C40.6972 149.09 40.801 149.52 40.801 150.001C40.801 150.435 40.7054 150.835 40.5142 151.201C40.3258 151.564 40.0226 151.856 39.6048 152.078C39.1897 152.299 38.6408 152.409 37.9581 152.409H37.9335L40.7026 155.801V155.867H39.4246ZM41.9152 147.477L41.6366 148.428L37.4583 148.395L37.7369 147.477H41.9152ZM42.6766 155.867V154.569L46.1949 150.979C46.9158 150.258 47.4782 149.522 47.4782 148.758C47.4782 147.749 46.7861 147.201 45.9209 147.201C45.0846 147.201 44.4357 147.648 44.0464 148.455L42.6477 147.633C43.2966 146.249 44.5655 145.586 45.9065 145.586C47.5647 145.586 49.1364 146.696 49.1364 148.7C49.1364 149.955 48.3866 151.007 47.4205 151.988L45.1423 154.266H49.3239V155.867H42.6766ZM53.6861 149.58C55.5174 149.58 57.1179 150.705 57.1179 152.81C57.1179 154.929 55.4453 156.054 53.5852 156.054C52.0568 156.054 50.6869 155.348 50.1534 153.891L51.5809 153.069C51.8405 153.963 52.5326 154.439 53.5852 154.439C54.7099 154.439 55.4597 153.819 55.4597 152.81C55.4597 151.8 54.7099 151.195 53.614 151.195H50.6725L51.0618 145.773H56.6853V147.33H52.5903L52.4172 149.58H53.6861ZM62.0076 156.054C59.4698 156.054 58.0423 153.935 58.0423 150.82C58.0423 147.705 59.4698 145.586 62.0076 145.586C64.5454 145.586 65.9729 147.705 65.9729 150.82C65.9729 153.935 64.5454 156.054 62.0076 156.054ZM62.0076 154.439C63.5072 154.439 64.3147 153.141 64.3147 150.82C64.3147 148.498 63.5072 147.201 62.0076 147.201C60.5224 147.201 59.7005 148.498 59.7005 150.82C59.7005 153.141 60.5224 154.439 62.0076 154.439Z" fill="white"/>
<path d="M39.0425 177.733C39.415 177.929 39.6612 178.289 39.6612 178.762C39.6612 179.494 39.0678 180.024 38.3356 180.024H36.4419V175.606H38.1967C38.91 175.606 39.4907 176.123 39.4907 176.83C39.4907 177.215 39.3203 177.531 39.0425 177.733ZM38.1967 176.288H37.1678V177.449H38.1967C38.5186 177.449 38.7648 177.196 38.7648 176.868C38.7648 176.54 38.5186 176.288 38.1967 176.288ZM38.3356 179.343C38.6764 179.343 38.9352 179.071 38.9352 178.724C38.9352 178.377 38.6764 178.105 38.3356 178.105H37.1678V179.343H38.3356ZM40.8543 176.395C40.6144 176.395 40.4187 176.193 40.4187 175.959C40.4187 175.719 40.6144 175.524 40.8543 175.524C41.0942 175.524 41.2898 175.719 41.2898 175.959C41.2898 176.193 41.0942 176.395 40.8543 176.395ZM40.5134 180.024V176.868H41.1952V180.024H40.5134ZM42.2497 180.024V175.416H42.9315V180.024H42.2497ZM43.986 180.024V175.416H44.6678V180.024H43.986ZM46.0632 176.395C45.8233 176.395 45.6276 176.193 45.6276 175.959C45.6276 175.719 45.8233 175.524 46.0632 175.524C46.3031 175.524 46.4988 175.719 46.4988 175.959C46.4988 176.193 46.3031 176.395 46.0632 176.395ZM45.7223 180.024V176.868H46.4041V180.024H45.7223ZM49.1188 176.786C49.8258 176.786 50.3307 177.266 50.3307 178.087V180.024H49.649V178.156C49.649 177.676 49.3713 177.424 48.942 177.424C48.4939 177.424 48.1404 177.689 48.1404 178.333V180.024H47.4586V176.868H48.1404V177.272C48.3487 176.944 48.6895 176.786 49.1188 176.786ZM53.8401 176.868H54.5092V179.879C54.5092 180.896 53.7139 181.369 52.887 181.369C52.1926 181.369 51.6561 181.11 51.3909 180.605L51.978 180.264C52.1169 180.536 52.3504 180.75 52.8996 180.75C53.4866 180.75 53.8401 180.428 53.8401 179.879V179.494C53.6003 179.835 53.2278 180.043 52.7418 180.043C51.8517 180.043 51.1511 179.317 51.1511 178.415C51.1511 177.512 51.8517 176.786 52.7418 176.786C53.2278 176.786 53.6003 176.994 53.8401 177.335V176.868ZM52.8365 179.406C53.4109 179.406 53.8401 178.983 53.8401 178.415C53.8401 177.847 53.4109 177.424 52.8365 177.424C52.262 177.424 51.8328 177.847 51.8328 178.415C51.8328 178.983 52.262 179.406 52.8365 179.406ZM58.8977 180.106C57.9445 180.106 57.2312 179.381 57.2312 178.446C57.2312 177.506 57.9445 176.786 58.8977 176.786C59.5163 176.786 60.0528 177.108 60.3053 177.6L59.7183 177.941C59.5794 177.645 59.2701 177.455 58.8913 177.455C58.3359 177.455 57.9129 177.878 57.9129 178.446C57.9129 179.014 58.3359 179.437 58.8913 179.437C59.2701 179.437 59.5794 179.242 59.7309 178.951L60.3179 179.286C60.0528 179.785 59.5163 180.106 58.8977 180.106ZM63.2195 176.868H63.9454L62.7334 180.125C62.4367 180.927 61.9191 181.331 61.1932 181.287V180.649C61.6351 180.675 61.8749 180.447 62.0327 180.031L62.0643 179.968L60.7261 176.868H61.4709L62.4115 179.16L63.2195 176.868ZM66.0011 180.106C65.0479 180.106 64.3346 179.381 64.3346 178.446C64.3346 177.506 65.0479 176.786 66.0011 176.786C66.6197 176.786 67.1562 177.108 67.4087 177.6L66.8217 177.941C66.6828 177.645 66.3735 177.455 65.9948 177.455C65.4393 177.455 65.0164 177.878 65.0164 178.446C65.0164 179.014 65.4393 179.437 65.9948 179.437C66.3735 179.437 66.6828 179.242 66.8343 178.951L67.4214 179.286C67.1562 179.785 66.6197 180.106 66.0011 180.106ZM68.1771 180.024V175.416H68.8589V180.024H68.1771ZM70.45 178.737C70.5573 179.229 70.955 179.482 71.46 179.482C71.8387 179.482 72.1227 179.311 72.2742 179.09L72.836 179.418C72.5457 179.848 72.0722 180.106 71.4536 180.106C70.4121 180.106 69.7367 179.393 69.7367 178.446C69.7367 177.512 70.4121 176.786 71.4031 176.786C72.3437 176.786 72.9875 177.544 72.9875 178.453C72.9875 178.547 72.9749 178.648 72.9623 178.737H70.45ZM70.4437 178.181H72.2995C72.2048 177.638 71.8071 177.405 71.3968 177.405C70.8855 177.405 70.5384 177.708 70.4437 178.181ZM74.2607 177.733C73.9956 177.733 73.7873 177.518 73.7873 177.26C73.7873 176.994 73.9956 176.786 74.2607 176.786C74.5195 176.786 74.7341 176.994 74.7341 177.26C74.7341 177.518 74.5195 177.733 74.2607 177.733ZM74.2607 180.1C73.9956 180.1 73.7873 179.886 73.7873 179.627C73.7873 179.362 73.9956 179.153 74.2607 179.153C74.5195 179.153 74.7341 179.362 74.7341 179.627C74.7341 179.886 74.5195 180.1 74.2607 180.1ZM80.7196 178.554V179.229H80.2146V180.024H79.4824V179.229H77.3109V178.554L78.8322 175.606H79.6213L78.1 178.554H79.4824V177.405H80.2146V178.554H80.7196ZM83.2492 177.525H82.4665V179.04C82.4665 179.444 82.7316 179.437 83.2492 179.412V180.024C82.2014 180.151 81.7848 179.86 81.7848 179.04V177.525H81.204V176.868H81.7848V176.187L82.4665 175.985V176.868H83.2492V177.525ZM85.7907 176.786C86.4977 176.786 87.0027 177.266 87.0027 178.087V180.024H86.3209V178.156C86.3209 177.676 86.0432 177.424 85.614 177.424C85.1658 177.424 84.8123 177.689 84.8123 178.333V180.024H84.1306V175.606H84.8123V177.272C85.0206 176.944 85.3615 176.786 85.7907 176.786ZM92.4731 176.3H90.6109V177.537H92.4099V178.232H90.6109V180.024H89.885V175.606H92.4731V176.3ZM93.9075 178.737C94.0148 179.229 94.4125 179.482 94.9175 179.482C95.2962 179.482 95.5803 179.311 95.7318 179.09L96.2936 179.418C96.0032 179.848 95.5298 180.106 94.9112 180.106C93.8696 180.106 93.1942 179.393 93.1942 178.446C93.1942 177.512 93.8696 176.786 94.8607 176.786C95.8012 176.786 96.4451 177.544 96.4451 178.453C96.4451 178.547 96.4324 178.648 96.4198 178.737H93.9075ZM93.9012 178.181H95.757C95.6623 177.638 95.2647 177.405 94.8544 177.405C94.3431 177.405 93.9959 177.708 93.9012 178.181ZM99.0943 176.786C99.9528 176.786 100.666 177.506 100.666 178.446C100.666 179.381 99.9528 180.106 99.0943 180.106C98.602 180.106 98.2296 179.904 97.9897 179.57V180.024H97.308V175.606H97.9897V177.316C98.2296 176.988 98.602 176.786 99.0943 176.786ZM98.987 179.456C99.5551 179.456 99.9844 179.033 99.9844 178.446C99.9844 177.859 99.5551 177.436 98.987 177.436C98.4189 177.436 97.9897 177.859 97.9897 178.446C97.9897 179.033 98.4189 179.456 98.987 179.456ZM103.432 178.434V177.777H105.768V178.434H103.432ZM108.407 175.606H111.216V176.237L109.663 180.024H108.899L110.427 176.3H108.407V175.606ZM113.829 177.525H113.046V179.04C113.046 179.444 113.311 179.437 113.829 179.412V180.024C112.781 180.151 112.364 179.86 112.364 179.04V177.525H111.783V176.868H112.364V176.187L113.046 175.985V176.868H113.829V177.525ZM116.37 176.786C117.077 176.786 117.582 177.266 117.582 178.087V180.024H116.9V178.156C116.9 177.676 116.623 177.424 116.193 177.424C115.745 177.424 115.392 177.689 115.392 178.333V180.024H114.71V175.606H115.392V177.272C115.6 176.944 115.941 176.786 116.37 176.786ZM124.694 175.606V180.024H123.968V176.875L122.623 179.097H122.535L121.19 176.868V180.024H120.464V175.606H121.247L122.579 177.815L123.917 175.606H124.694ZM128.293 176.868H128.975V180.024H128.293V179.57C128.053 179.904 127.681 180.106 127.189 180.106C126.33 180.106 125.617 179.381 125.617 178.446C125.617 177.506 126.33 176.786 127.189 176.786C127.681 176.786 128.053 176.988 128.293 177.316V176.868ZM127.296 179.456C127.864 179.456 128.293 179.033 128.293 178.446C128.293 177.859 127.864 177.436 127.296 177.436C126.728 177.436 126.299 177.859 126.299 178.446C126.299 179.033 126.728 179.456 127.296 179.456ZM130.714 177.398C130.904 176.969 131.289 176.811 131.686 176.811V177.55C131.238 177.518 130.714 177.727 130.714 178.434V180.024H130.033V176.868H130.714V177.398Z" fill="#929599"/>
<path opacity="0.1" d="M206.674 167.879C206.814 167.879 206.928 167.765 206.928 167.625C206.928 167.485 206.814 167.371 206.674 167.371V167.879ZM36 167.879H206.674V167.371H36V167.879Z" fill="#F5F5F5"/>
<rect x="168" y="135.625" width="44.6247" height="16.3123" rx="6.83836" fill="#F1CE9B"/>
<path d="M176.728 140.626C177.7 140.626 178.437 141.363 178.437 142.32C178.437 143.27 177.7 144.014 176.728 144.014H175.675V145.781H174.828V140.626H176.728ZM176.728 143.218C177.229 143.218 177.59 142.835 177.59 142.32C177.59 141.797 177.229 141.422 176.728 141.422H175.675V143.218H176.728ZM181.778 142.099H182.573V145.781H181.778V145.251C181.498 145.641 181.063 145.877 180.489 145.877C179.487 145.877 178.655 145.03 178.655 143.94C178.655 142.843 179.487 142.003 180.489 142.003C181.063 142.003 181.498 142.239 181.778 142.622V142.099ZM180.614 145.118C181.277 145.118 181.778 144.625 181.778 143.94C181.778 143.255 181.277 142.762 180.614 142.762C179.951 142.762 179.451 143.255 179.451 143.94C179.451 144.625 179.951 145.118 180.614 145.118ZM185.982 142.099H186.829L185.415 145.899C185.069 146.834 184.465 147.306 183.618 147.254V146.51C184.133 146.54 184.413 146.275 184.597 145.789L184.634 145.715L183.073 142.099H183.942L185.039 144.772L185.982 142.099ZM189.793 144.279C189.918 144.853 190.382 145.148 190.971 145.148C191.413 145.148 191.745 144.949 191.921 144.691L192.577 145.074C192.238 145.575 191.686 145.877 190.964 145.877C189.749 145.877 188.961 145.045 188.961 143.94C188.961 142.85 189.749 142.003 190.905 142.003C192.002 142.003 192.754 142.887 192.754 143.948C192.754 144.058 192.739 144.176 192.724 144.279H189.793ZM189.786 143.631H191.951C191.84 142.998 191.377 142.725 190.898 142.725C190.301 142.725 189.896 143.079 189.786 143.631ZM196.348 142.099H197.144V145.781H196.348V145.251C196.068 145.641 195.634 145.877 195.059 145.877C194.058 145.877 193.226 145.03 193.226 143.94C193.226 142.843 194.058 142.003 195.059 142.003C195.634 142.003 196.068 142.239 196.348 142.622V142.099ZM195.185 145.118C195.847 145.118 196.348 144.625 196.348 143.94C196.348 143.255 195.847 142.762 195.185 142.762C194.522 142.762 194.021 143.255 194.021 143.94C194.021 144.625 194.522 145.118 195.185 145.118ZM198.866 142.718C199.087 142.217 199.536 142.033 200 142.033V142.894C199.477 142.858 198.866 143.101 198.866 143.925V145.781H198.071V142.099H198.866V142.718ZM200.588 145.781V140.405H201.383V145.781H200.588ZM204.788 142.099H205.635L204.221 145.899C203.875 146.834 203.271 147.306 202.424 147.254V146.51C202.94 146.54 203.22 146.275 203.404 145.789L203.441 145.715L201.879 142.099H202.748L203.846 144.772L204.788 142.099Z" fill="#C0723D"/>
<path d="M27.3117 98.1574H28.1586V103.312H27.4958L25.0655 99.8144V103.312H24.2186V98.1574H24.8814L27.3117 101.656V98.1574ZM29.7626 101.81C29.8878 102.385 30.3517 102.679 30.9409 102.679C31.3827 102.679 31.7141 102.48 31.8909 102.223L32.5463 102.606C32.2075 103.106 31.6552 103.408 30.9335 103.408C29.7184 103.408 28.9304 102.576 28.9304 101.471C28.9304 100.381 29.7184 99.5346 30.8746 99.5346C31.9719 99.5346 32.7231 100.418 32.7231 101.479C32.7231 101.589 32.7083 101.707 32.6936 101.81H29.7626ZM29.7552 101.162H31.9203C31.8099 100.529 31.3459 100.256 30.8672 100.256C30.2707 100.256 29.8657 100.61 29.7552 101.162ZM36.5278 103.312H35.6072L34.6941 102.053L33.7735 103.312H32.8456L34.2301 101.42L32.9192 99.6303H33.8398L34.6867 100.794L35.5336 99.6303H36.4615L35.1507 101.427L36.5278 103.312ZM39.1166 100.396H38.2034V102.164C38.2034 102.635 38.5127 102.628 39.1166 102.598V103.312C37.8941 103.46 37.4081 103.121 37.4081 102.164V100.396H36.7305V99.6303H37.4081V98.835L38.2034 98.5993V99.6303H39.1166V100.396ZM43.7991 99.5346C44.8007 99.5346 45.6329 100.374 45.6329 101.471C45.6329 102.561 44.8007 103.408 43.7991 103.408C43.2247 103.408 42.7902 103.173 42.5104 102.782V103.312H41.715V98.1574H42.5104V100.153C42.7902 99.7702 43.2247 99.5346 43.7991 99.5346ZM43.674 102.65C44.3367 102.65 44.8375 102.156 44.8375 101.471C44.8375 100.787 44.3367 100.293 43.674 100.293C43.0112 100.293 42.5104 100.787 42.5104 101.471C42.5104 102.156 43.0112 102.65 43.674 102.65ZM46.7514 99.078C46.4716 99.078 46.2433 98.8423 46.2433 98.5698C46.2433 98.29 46.4716 98.0617 46.7514 98.0617C47.0312 98.0617 47.2595 98.29 47.2595 98.5698C47.2595 98.8423 47.0312 99.078 46.7514 99.078ZM46.3537 103.312V99.6303H47.1491V103.312H46.3537ZM48.0726 103.312V97.9365H48.8679V103.312H48.0726ZM49.7914 103.312V97.9365H50.5867V103.312H49.7914ZM56.2676 99.6303H57.063V103.312H56.2676V102.782C55.9878 103.173 55.5533 103.408 54.9789 103.408C53.9773 103.408 53.1451 102.561 53.1451 101.471C53.1451 100.374 53.9773 99.5346 54.9789 99.5346C55.5533 99.5346 55.9878 99.7702 56.2676 100.153V99.6303ZM55.1041 102.65C55.7668 102.65 56.2676 102.156 56.2676 101.471C56.2676 100.787 55.7668 100.293 55.1041 100.293C54.4413 100.293 53.9405 100.787 53.9405 101.471C53.9405 102.156 54.4413 102.65 55.1041 102.65ZM60.4866 99.6303H61.3555L59.9195 103.312H58.9989L57.5629 99.6303H58.4319L59.4629 102.429L60.4866 99.6303ZM64.6317 99.6303H65.427V103.312H64.6317V102.782C64.3518 103.173 63.9173 103.408 63.3429 103.408C62.3413 103.408 61.5092 102.561 61.5092 101.471C61.5092 100.374 62.3413 99.5346 63.3429 99.5346C63.9173 99.5346 64.3518 99.7702 64.6317 100.153V99.6303ZM63.4681 102.65C64.1309 102.65 64.6317 102.156 64.6317 101.471C64.6317 100.787 64.1309 100.293 63.4681 100.293C62.8053 100.293 62.3045 100.787 62.3045 101.471C62.3045 102.156 62.8053 102.65 63.4681 102.65ZM66.7517 99.078C66.4719 99.078 66.2436 98.8423 66.2436 98.5698C66.2436 98.29 66.4719 98.0617 66.7517 98.0617C67.0316 98.0617 67.2599 98.29 67.2599 98.5698C67.2599 98.8423 67.0316 99.078 66.7517 99.078ZM66.3541 103.312V99.6303H67.1494V103.312H66.3541ZM68.0729 103.312V97.9365H68.8683V103.312H68.0729ZM72.708 99.6303H73.5034V103.312H72.708V102.782C72.4282 103.173 71.9937 103.408 71.4193 103.408C70.4177 103.408 69.5855 102.561 69.5855 101.471C69.5855 100.374 70.4177 99.5346 71.4193 99.5346C71.9937 99.5346 72.4282 99.7702 72.708 100.153V99.6303ZM71.5445 102.65C72.2073 102.65 72.708 102.156 72.708 101.471C72.708 100.787 72.2073 100.293 71.5445 100.293C70.8817 100.293 70.3809 100.787 70.3809 101.471C70.3809 102.156 70.8817 102.65 71.5445 102.65ZM76.5146 99.5346C77.5161 99.5346 78.3483 100.374 78.3483 101.471C78.3483 102.561 77.5161 103.408 76.5146 103.408C75.9401 103.408 75.5056 103.173 75.2258 102.782V103.312H74.4304V98.1574H75.2258V100.153C75.5056 99.7702 75.9401 99.5346 76.5146 99.5346ZM76.3894 102.65C77.0522 102.65 77.5529 102.156 77.5529 101.471C77.5529 100.787 77.0522 100.293 76.3894 100.293C75.7266 100.293 75.2258 100.787 75.2258 101.471C75.2258 102.156 75.7266 102.65 76.3894 102.65ZM79.0691 103.312V97.9365H79.8645V103.312H79.0691ZM81.4139 101.81C81.5391 102.385 82.0031 102.679 82.5922 102.679C83.0341 102.679 83.3655 102.48 83.5423 102.223L84.1977 102.606C83.8589 103.106 83.3066 103.408 82.5849 103.408C81.3698 103.408 80.5818 102.576 80.5818 101.471C80.5818 100.381 81.3698 99.5346 82.526 99.5346C83.6233 99.5346 84.3744 100.418 84.3744 101.479C84.3744 101.589 84.3597 101.707 84.345 101.81H81.4139ZM81.4066 101.162H83.5717C83.4612 100.529 82.9973 100.256 82.5186 100.256C81.9221 100.256 81.517 100.61 81.4066 101.162ZM88.6534 103.408C87.5782 103.408 86.7092 102.561 86.7092 101.471C86.7092 100.374 87.5782 99.5346 88.6534 99.5346C89.7359 99.5346 90.5976 100.374 90.5976 101.471C90.5976 102.561 89.7359 103.408 88.6534 103.408ZM88.6534 102.635C89.3014 102.635 89.8022 102.142 89.8022 101.471C89.8022 100.801 89.3014 100.308 88.6534 100.308C88.0053 100.308 87.5045 100.801 87.5045 101.471C87.5045 102.142 88.0053 102.635 88.6534 102.635ZM93.2536 99.5346C94.0784 99.5346 94.6675 100.094 94.6675 101.052V103.312H93.8722V101.133C93.8722 100.573 93.5481 100.278 93.0474 100.278C92.5245 100.278 92.1121 100.588 92.1121 101.339V103.312H91.3167V99.6303H92.1121V100.102C92.3551 99.7187 92.7528 99.5346 93.2536 99.5346ZM96.0026 100.639C95.6933 100.639 95.4503 100.389 95.4503 100.087C95.4503 99.7776 95.6933 99.5346 96.0026 99.5346C96.3046 99.5346 96.5549 99.7776 96.5549 100.087C96.5549 100.389 96.3046 100.639 96.0026 100.639ZM96.0026 103.401C95.6933 103.401 95.4503 103.15 95.4503 102.849C95.4503 102.539 95.6933 102.296 96.0026 102.296C96.3046 102.296 96.5549 102.539 96.5549 102.849C96.5549 103.15 96.3046 103.401 96.0026 103.401Z" fill="#F1CE9B"/>
<path d="M101.869 100.632C102.348 100.897 102.628 101.339 102.628 101.884C102.628 102.841 101.898 103.408 100.823 103.408C99.7481 103.408 99.0117 102.841 99.0117 101.884C99.0117 101.346 99.2989 100.897 99.7702 100.632C99.4241 100.404 99.1884 100.035 99.1884 99.5419C99.1884 98.5477 99.9617 98.0617 100.823 98.0617C101.678 98.0617 102.458 98.5477 102.458 99.5419C102.458 100.035 102.223 100.404 101.869 100.632ZM100.823 98.8644C100.389 98.8644 100.035 99.1001 100.035 99.5788C100.035 100.035 100.389 100.293 100.823 100.293C101.25 100.293 101.611 100.035 101.611 99.5788C101.611 99.1001 101.25 98.8644 100.823 98.8644ZM100.823 102.606C101.376 102.606 101.781 102.326 101.781 101.803C101.781 101.273 101.376 101 100.823 101C100.264 101 99.8586 101.273 99.8586 101.803C99.8586 102.326 100.264 102.606 100.823 102.606ZM110.173 98.1574V103.312H109.326V99.6377L107.757 102.23H107.654L106.085 99.6303V103.312H105.239V98.1574H106.152L107.706 100.735L109.267 98.1574H110.173ZM114.065 99.6303H114.861V103.312H114.065V102.782C113.785 103.173 113.351 103.408 112.777 103.408C111.775 103.408 110.943 102.561 110.943 101.471C110.943 100.374 111.775 99.5346 112.777 99.5346C113.351 99.5346 113.785 99.7702 114.065 100.153V99.6303ZM112.902 102.65C113.565 102.65 114.065 102.156 114.065 101.471C114.065 100.787 113.565 100.293 112.902 100.293C112.239 100.293 111.738 100.787 111.738 101.471C111.738 102.156 112.239 102.65 112.902 102.65ZM116.583 100.249C116.804 99.7481 117.253 99.564 117.717 99.564V100.426C117.194 100.389 116.583 100.632 116.583 101.457V103.312H115.788V99.6303H116.583V100.249ZM119.87 103.408C118.758 103.408 117.926 102.561 117.926 101.471C117.926 100.374 118.758 99.5346 119.87 99.5346C120.592 99.5346 121.218 99.9102 121.512 100.485L120.828 100.882C120.666 100.536 120.305 100.315 119.863 100.315C119.215 100.315 118.721 100.809 118.721 101.471C118.721 102.134 119.215 102.628 119.863 102.628C120.305 102.628 120.666 102.399 120.842 102.061L121.527 102.451C121.218 103.033 120.592 103.408 119.87 103.408ZM124.039 99.5346C124.864 99.5346 125.453 100.094 125.453 101.052V103.312H124.658V101.133C124.658 100.573 124.334 100.278 123.833 100.278C123.31 100.278 122.897 100.588 122.897 101.339V103.312H122.102V98.1574H122.897V100.102C123.14 99.7187 123.538 99.5346 124.039 99.5346Z" fill="#F1CE9B"/>
<path fill-rule="evenodd" clip-rule="evenodd" d="M215.853 102.775C215.699 102.929 215.449 102.929 215.295 102.775L213.049 100.529L210.803 102.775C210.649 102.929 210.399 102.929 210.245 102.775C210.091 102.621 210.091 102.371 210.245 102.217L212.77 99.6917C212.844 99.6177 212.945 99.5762 213.049 99.5762C213.154 99.5762 213.254 99.6177 213.328 99.6917L215.853 102.217C216.007 102.371 216.007 102.621 215.853 102.775Z" fill="#646464"/>
</g>
</g>
<defs>
<linearGradient id="paint0_linear_10200_14444" x1="122.414" y1="-1.7318e-08" x2="122" y2="369.5" gradientUnits="userSpaceOnUse">
<stop stop-color="#331D0C"/>
<stop offset="1" stop-color="#331D0C" stop-opacity="0"/>
</linearGradient>
<linearGradient id="paint1_linear_10200_14444" x1="141.44" y1="-89.1878" x2="121.777" y2="429.254" gradientUnits="userSpaceOnUse">
<stop stop-color="#F1CE9B"/>
<stop offset="0.816437" stop-color="#F1CE9B" stop-opacity="0"/>
</linearGradient>
<linearGradient id="paint2_linear_10200_14444" x1="122.4" y1="13.1279" x2="122.4" y2="339.5" gradientUnits="userSpaceOnUse">
<stop stop-color="#1F0E02"/>
<stop offset="1" stop-color="#331D0C" stop-opacity="0"/>
</linearGradient>
<linearGradient id="paint3_linear_10200_14444" x1="140.181" y1="-70.1978" x2="123.987" y2="356.886" gradientUnits="userSpaceOnUse">
<stop stop-color="#F1CE9B"/>
<stop offset="1" stop-color="#F1CE9B" stop-opacity="0"/>
</linearGradient>
<clipPath id="clip0_10200_14444">
<rect width="245" height="394" fill="white"/>
</clipPath>
<clipPath id="clip1_10200_14444">
<rect width="245" height="394" fill="white"/>
</clipPath>
<clipPath id="clip2_10200_14444">
<rect width="199.977" height="99.025" fill="white" transform="translate(21.6016 95)"/>
</clipPath>
</defs>
</svg>
