<svg xmlns="http://www.w3.org/2000/svg" width="42" height="42" fill="none"><g clip-path="url(#a)"><circle cx="21" cy="21" r="20.25" fill="url(#b)" stroke="url(#c)" stroke-width="1.5"/><path fill="#E8AD62" fill-rule="evenodd" d="M18.7045 12.1395c.7497-2.186 3.8413-2.186 4.591 0l1.3247 3.8624a.3467.3467 0 0 0 .328.2342h4.1205c2.3825 0 3.3385 3.075 1.3759 4.4259l-3.2023 2.2041a.3466.3466 0 0 0-.1313.398l1.2532 3.654c.7589 2.2129-1.7444 4.1127-3.6715 2.7863l-3.4961-2.4064a.3467.3467 0 0 0-.3932 0l-3.4961 2.4064c-1.9271 1.3264-4.4304-.5734-3.6715-2.7863l1.2532-3.654a.3466.3466 0 0 0-.1313-.398l-3.2023-2.2041c-1.9626-1.3509-1.0066-4.4259 1.3759-4.4259h4.1205a.3467.3467 0 0 0 .328-.2342l1.3247-3.8624Zm2.6234.6748c-.1071-.3123-.5487-.3123-.6558 0l-1.3247 3.8625a2.4269 2.4269 0 0 1-2.2956 1.6394h-4.1205c-.3403 0-.4769.4393-.1965.6323l3.2022 2.2041a2.4268 2.4268 0 0 1 .9196 2.7864l-1.2532 3.6539c-.1084.3161.2492.5875.5245.398l3.4962-2.4064a2.4269 2.4269 0 0 1 2.7518 0l3.4962 2.4064c.2753.1895.6329-.0819.5245-.398l-1.2532-3.6539a2.4268 2.4268 0 0 1 .9196-2.7864l3.2022-2.2041c.2804-.193.1438-.6323-.1965-.6323h-4.1205a2.4269 2.4269 0 0 1-2.2956-1.6394l-1.3247-3.8625Z" clip-rule="evenodd"/></g><defs><linearGradient id="b" x1="21" x2="21" y1="0" y2="42" gradientUnits="userSpaceOnUse"><stop stop-color="#211308"/><stop offset="1" stop-color="#6E4015"/></linearGradient><linearGradient id="c" x1="21" x2="21" y1="0" y2="42" gradientUnits="userSpaceOnUse"><stop stop-color="#F1CE9B"/><stop offset="1" stop-color="#332107"/></linearGradient><clipPath id="a"><path fill="#fff" d="M0 0h42v42H0z"/></clipPath></defs></svg>