<svg xmlns="http://www.w3.org/2000/svg" width="561" height="274" fill="none"><g filter="url(#a)"><rect width="561" height="249" fill="url(#b)" rx="24"/><rect width="559" height="247" x="1" y="1" stroke="url(#c)" stroke-opacity=".8" stroke-width="2" rx="23"/><path fill="#fff" d="M43.238 62.494c-8.094 0-13.908-6.08-13.908-13.794s5.814-13.794 13.908-13.794c4.864 0 9.196 2.47 11.438 6.346l-3.8 2.204c-1.406-2.622-4.294-4.294-7.638-4.294-5.738 0-9.538 4.066-9.538 9.538s3.8 9.538 9.538 9.538c3.344 0 6.27-1.672 7.638-4.294l3.8 2.166c-2.204 3.876-6.536 6.384-11.438 6.384Zm23.7334 0c-5.548 0-10.032-4.37-10.032-9.994 0-5.662 4.484-9.994 10.032-9.994 5.586 0 10.032 4.332 10.032 9.994 0 5.624-4.446 9.994-10.032 9.994Zm0-3.99c3.344 0 5.928-2.546 5.928-6.004 0-3.458-2.584-6.004-5.928-6.004s-5.928 2.546-5.928 6.004c0 3.458 2.584 6.004 5.928 6.004Zm23.7369-15.998c4.256 0 7.296 2.888 7.296 7.828V62h-4.104V50.752c0-2.888-1.672-4.408-4.256-4.408-2.698 0-4.826 1.596-4.826 5.472V62h-4.104V43h4.104v2.432c1.254-1.976 3.306-2.926 5.89-2.926ZM115.008 43h4.484l-7.41 19h-4.75l-7.4096-19h4.4836l5.32 14.44L115.008 43Zm9.571 11.248c.646 2.964 3.04 4.484 6.08 4.484 2.28 0 3.99-1.026 4.902-2.356l3.382 1.976c-1.748 2.584-4.598 4.142-8.322 4.142-6.27 0-10.336-4.294-10.336-9.994 0-5.624 4.066-9.994 10.032-9.994 5.662 0 9.538 4.56 9.538 10.032 0 .57-.076 1.178-.152 1.71h-15.124Zm-.038-3.344h11.172c-.57-3.268-2.964-4.674-5.434-4.674-3.078 0-5.168 1.824-5.738 4.674Zm23.029-4.712c1.14-2.584 3.458-3.534 5.852-3.534v4.446c-2.698-.19-5.852 1.064-5.852 5.32V62h-4.104V43h4.104v3.192Zm19.969.76h-4.712v9.12c0 2.432 1.596 2.394 4.712 2.242V62c-6.308.76-8.816-.988-8.816-5.928v-9.12h-3.496V43h3.496v-4.104l4.104-1.216V43h4.712v3.952ZM193.753 43h4.37l-7.296 19.608c-1.786 4.826-4.902 7.258-9.272 6.992v-3.838c2.66.152 4.104-1.216 5.054-3.724l.19-.38L178.743 43h4.484l5.662 13.794L193.753 43Zm15.162 19.494c-5.548 0-10.032-4.37-10.032-9.994 0-5.662 4.484-9.994 10.032-9.994 5.586 0 10.032 4.332 10.032 9.994 0 5.624-4.446 9.994-10.032 9.994Zm0-3.99c3.344 0 5.928-2.546 5.928-6.004 0-3.458-2.584-6.004-5.928-6.004s-5.928 2.546-5.928 6.004c0 3.458 2.584 6.004 5.928 6.004ZM235.464 43h4.104v19h-4.104v-2.432c-1.254 1.976-3.306 2.926-5.89 2.926-4.256 0-7.296-2.888-7.296-7.828V43h4.104v11.248c0 2.888 1.672 4.408 4.256 4.408 2.698 0 4.826-1.596 4.826-5.472V43Zm13.007 3.192c1.14-2.584 3.458-3.534 5.852-3.534v4.446c-2.698-.19-5.852 1.064-5.852 5.32V62h-4.104V43h4.104v3.192ZM34.08 90.244c0 3.458 10.222 1.368 10.222 8.398 0 3.8-3.306 5.852-7.41 5.852-3.8 0-6.536-1.71-7.752-4.446l3.534-2.052c.608 1.71 2.128 2.736 4.218 2.736 1.824 0 3.23-.608 3.23-2.128 0-3.382-10.222-1.482-10.222-8.284 0-3.572 3.078-5.814 6.954-5.814 3.116 0 5.7 1.444 7.03 3.952l-3.458 1.938c-.684-1.482-2.014-2.166-3.572-2.166-1.482 0-2.774.646-2.774 2.014Zm24.5836-5.738c5.168 0 9.462 4.37 9.462 9.994 0 5.662-4.294 9.994-9.462 9.994-2.964 0-5.206-1.216-6.65-3.192V111.6h-4.104V85h4.104v2.736c1.444-2.014 3.686-3.23 6.65-3.23Zm-.646 16.074c3.42 0 6.004-2.546 6.004-6.08 0-3.534-2.584-6.08-6.004-6.08-3.42 0-6.004 2.546-6.004 6.08 0 3.534 2.584 6.08 6.004 6.08Zm17.0576-4.332c.646 2.964 3.04 4.484 6.08 4.484 2.28 0 3.99-1.026 4.902-2.356l3.382 1.976c-1.748 2.584-4.598 4.142-8.322 4.142-6.27 0-10.336-4.294-10.336-9.994 0-5.624 4.066-9.994 10.032-9.994 5.662 0 9.538 4.56 9.538 10.032 0 .57-.076 1.178-.152 1.71h-15.124Zm-.038-3.344h11.172c-.57-3.268-2.964-4.674-5.434-4.674-3.078 0-5.168 1.824-5.738 4.674Zm28.9188-8.398c4.256 0 7.296 2.888 7.296 7.828V104h-4.104V92.752c0-2.888-1.672-4.408-4.256-4.408-2.698 0-4.8256 1.596-4.8256 5.472V104h-4.104V85h4.104v2.432c1.254-1.976 3.3056-2.926 5.8896-2.926Zm26.763-7.106h4.104V104h-4.104v-2.736c-1.444 2.014-3.686 3.23-6.65 3.23-5.168 0-9.462-4.37-9.462-9.994 0-5.662 4.294-9.994 9.462-9.994 2.964 0 5.206 1.216 6.65 3.192V77.4Zm-6.004 23.18c3.42 0 6.004-2.546 6.004-6.08 0-3.534-2.584-6.08-6.004-6.08-3.42 0-6.004 2.546-6.004 6.08 0 3.534 2.584 6.08 6.004 6.08Zm18.467-10.336c0 3.458 10.222 1.368 10.222 8.398 0 3.8-3.306 5.852-7.41 5.852-3.8 0-6.536-1.71-7.752-4.446l3.534-2.052c.608 1.71 2.128 2.736 4.218 2.736 1.824 0 3.23-.608 3.23-2.128 0-3.382-10.222-1.482-10.222-8.284 0-3.572 3.078-5.814 6.954-5.814 3.116 0 5.7 1.444 7.03 3.952l-3.458 1.938c-.684-1.482-2.014-2.166-3.572-2.166-1.482 0-2.774.646-2.774 2.014Zm33.931-1.292h-4.712v9.12c0 2.432 1.596 2.394 4.712 2.242V104c-6.308.76-8.816-.988-8.816-5.928v-9.12h-3.496V85h3.496v-4.104l4.104-1.216V85h4.712v3.952Zm11.911 15.542c-5.548 0-10.032-4.37-10.032-9.994 0-5.662 4.484-9.994 10.032-9.994 5.586 0 10.032 4.332 10.032 9.994 0 5.624-4.446 9.994-10.032 9.994Zm0-3.99c3.344 0 5.928-2.546 5.928-6.004 0-3.458-2.584-6.004-5.928-6.004s-5.928 2.546-5.928 6.004c0 3.458 2.584 6.004 5.928 6.004Zm27.879-.684h11.78V104h-16.15V77.4h15.96v4.18h-11.59v6.916h10.64v4.142h-10.64v7.182Zm41.24-22.42V104h-4.37V85.038l-8.094 13.376h-.532L237.053 85v19h-4.37V77.4h4.712l8.018 13.3 8.056-13.3h4.674Zm5.304 0h4.37V104h-4.37V77.4Zm13.106 12.844c0 3.458 10.222 1.368 10.222 8.398 0 3.8-3.306 5.852-7.41 5.852-3.8 0-6.536-1.71-7.752-4.446l3.534-2.052c.608 1.71 2.128 2.736 4.218 2.736 1.824 0 3.23-.608 3.23-2.128 0-3.382-10.222-1.482-10.222-8.284 0-3.572 3.078-5.814 6.954-5.814 3.116 0 5.7 1.444 7.03 3.952l-3.458 1.938c-.684-1.482-2.014-2.166-3.572-2.166-1.482 0-2.774.646-2.774 2.014Z"/><path fill="#F1CE9B" d="m431.962 168.205-.404 1.488h-7.54l.41-1.488h7.534Zm-3.79 8.795-3.977-4.784-.006-1.261h1.966c.47 0 .862-.078 1.176-.233.318-.16.559-.381.722-.665.166-.288.25-.625.25-1.012 0-.579-.171-1.045-.512-1.397-.341-.353-.886-.529-1.636-.529h-2.137l.444-1.755h1.693c.954 0 1.744.147 2.369.443.629.291 1.099.704 1.409 1.238.315.535.472 1.16.472 1.875 0 .633-.116 1.197-.347 1.694-.231.496-.594.903-1.091 1.221-.496.318-1.146.531-1.949.637l-.068.022 3.591 4.404V177h-2.369Zm3.801-11.636-.415 1.511-6.113-.023.414-1.488h6.114Zm.751.436h7.12v1.6l-3.936 9.6h-1.936l3.872-9.44h-5.12v-1.76Zm14.06 5.376c1.04.576 1.648 1.536 1.648 2.72 0 2.08-1.584 3.312-3.92 3.312s-3.936-1.232-3.936-3.312c0-1.168.624-2.144 1.648-2.72-.752-.496-1.264-1.296-1.264-2.368 0-2.16 1.68-3.216 3.552-3.216 1.856 0 3.552 1.056 3.552 3.216 0 1.072-.512 1.872-1.28 2.368Zm-2.272-3.84c-.944 0-1.712.512-1.712 1.552 0 .992.768 1.552 1.712 1.552.928 0 1.712-.56 1.712-1.552 0-1.04-.784-1.552-1.712-1.552Zm0 8.128c1.2 0 2.08-.608 2.08-1.744 0-1.152-.88-1.744-2.08-1.744-1.216 0-2.096.592-2.096 1.744 0 1.136.88 1.744 2.096 1.744Zm8.794-5.44c2.032 0 3.808 1.248 3.808 3.584 0 2.352-1.856 3.6-3.92 3.6-1.696 0-3.216-.784-3.808-2.4l1.584-.912c.288.992 1.056 1.52 2.224 1.52 1.248 0 2.08-.688 2.08-1.808s-.832-1.792-2.048-1.792h-3.264l.432-6.016h6.24v1.728h-4.544l-.192 2.496h1.408Zm9.759 8.576h-.88l6.4-14.4h.88l-6.4 14.4Zm20.71-9.808c1.808 0 3.024 1.248 3.024 3.248V177h-1.728v-4.848c0-1.12-.608-1.744-1.552-1.744-1.024 0-1.744.656-1.744 2.112V177h-1.728v-4.848c0-1.12-.56-1.744-1.504-1.744-.976 0-1.776.656-1.776 2.112V177h-1.728v-8h1.728v.96c.512-.784 1.296-1.168 2.288-1.168 1.04 0 1.808.464 2.272 1.264.528-.832 1.376-1.264 2.448-1.264Zm8.65 8.416c-2.336 0-4.224-1.84-4.224-4.208 0-2.384 1.888-4.208 4.224-4.208 2.352 0 4.224 1.824 4.224 4.208 0 2.368-1.872 4.208-4.224 4.208Zm0-1.68c1.408 0 2.496-1.072 2.496-2.528s-1.088-2.528-2.496-2.528-2.496 1.072-2.496 2.528 1.088 2.528 2.496 2.528Zm9.994-6.736c1.792 0 3.072 1.216 3.072 3.296V177h-1.728v-4.736c0-1.216-.704-1.856-1.792-1.856-1.136 0-2.032.672-2.032 2.304V177h-1.728v-8h1.728v1.024c.528-.832 1.392-1.232 2.48-1.232Zm9.397 1.872h-1.984v3.84c0 1.024.672 1.008 1.984.944V177c-2.656.32-3.712-.416-3.712-2.496v-3.84h-1.472V169h1.472v-1.728l1.728-.512V169h1.984v1.664Zm5.775-1.872c1.792 0 3.072 1.216 3.072 3.296V177h-1.728v-4.736c0-1.216-.704-1.856-1.792-1.856-1.136 0-2.032.672-2.032 2.304V177h-1.728v-11.2h1.728v4.224c.528-.832 1.392-1.232 2.48-1.232ZM31.6572 175.052h5.489V177H29.621v-12.394h7.4367v1.947h-5.4005v3.223h4.9578v1.93h-4.9578v3.346Zm19.2163-10.446V177h-2.0362v-8.836l-3.7715 6.233h-.2478l-3.7715-6.25V177h-2.0363v-12.394h2.1956l3.7361 6.197 3.7538-6.197h2.1778Zm2.4713 0h2.0363V177h-2.0363v-12.394ZM35.8165 211l-2.368-4.08h-2.176V211h-1.84v-11.2h4.48c2 0 3.6 1.6 3.6 3.6 0 1.44-.912 2.72-2.224 3.248l2.544 4.352h-2.016Zm-4.544-9.472v3.744h2.64c.976 0 1.76-.832 1.76-1.872 0-1.056-.784-1.872-1.76-1.872h-2.64Zm8.7986 6.208c.272 1.248 1.28 1.888 2.56 1.888.96 0 1.68-.432 2.064-.992l1.424.832c-.736 1.088-1.936 1.744-3.504 1.744-2.64 0-4.352-1.808-4.352-4.208 0-2.368 1.712-4.208 4.224-4.208 2.384 0 4.016 1.92 4.016 4.224 0 .24-.032.496-.064.72h-6.368Zm-.016-1.408h4.704c-.24-1.376-1.248-1.968-2.288-1.968-1.296 0-2.176.768-2.416 1.968Zm12.4965-3.536c2.176 0 3.984 1.84 3.984 4.208 0 2.384-1.808 4.208-3.984 4.208-1.248 0-2.192-.512-2.8-1.344v4.336h-1.728V203h1.728v1.152c.608-.848 1.552-1.36 2.8-1.36Zm-.272 6.768c1.44 0 2.528-1.072 2.528-2.56s-1.088-2.56-2.528-2.56-2.528 1.072-2.528 2.56 1.088 2.56 2.528 2.56ZM64.4378 203h1.728v8h-1.728v-1.152c-.608.848-1.552 1.36-2.8 1.36-2.176 0-3.984-1.84-3.984-4.208 0-2.384 1.808-4.208 3.984-4.208 1.248 0 2.192.512 2.8 1.344V203Zm-2.528 6.56c1.44 0 2.528-1.072 2.528-2.56s-1.088-2.56-2.528-2.56-2.528 1.072-2.528 2.56 1.088 2.56 2.528 2.56ZM73.5719 203h1.84l-3.072 8.256c-.752 2.032-2.064 3.056-3.904 2.944v-1.616c1.12.064 1.728-.512 2.128-1.568l.08-.16-3.392-7.856h1.888l2.384 5.808 2.048-5.808Zm7.7845-1.2c-.608 0-1.104-.512-1.104-1.104 0-.608.496-1.104 1.104-1.104.608 0 1.104.496 1.104 1.104 0 .592-.496 1.104-1.104 1.104Zm-.864 9.2v-8h1.728v8h-1.728Zm7.9424-8.208c1.792 0 3.072 1.216 3.072 3.296V211h-1.728v-4.736c0-1.216-.704-1.856-1.792-1.856-1.136 0-2.032.672-2.032 2.304V211h-1.728v-8h1.728v1.024c.528-.832 1.392-1.232 2.48-1.232ZM451.152 199.312h1.6v11.2h-1.84v-9.232l-2.256.64-.448-1.568 2.944-1.04Zm9.569 5.376c1.04.576 1.648 1.536 1.648 2.72 0 2.08-1.584 3.312-3.92 3.312s-3.936-1.232-3.936-3.312c0-1.168.624-2.144 1.648-2.72-.752-.496-1.264-1.296-1.264-2.368 0-2.16 1.68-3.216 3.552-3.216 1.856 0 3.552 1.056 3.552 3.216 0 1.072-.512 1.872-1.28 2.368Zm-2.272-3.84c-.944 0-1.712.512-1.712 1.552 0 .992.768 1.552 1.712 1.552.928 0 1.712-.56 1.712-1.552 0-1.04-.784-1.552-1.712-1.552Zm0 8.128c1.2 0 2.08-.608 2.08-1.744 0-1.152-.88-1.744-2.08-1.744-1.216 0-2.096.592-2.096 1.744 0 1.136.88 1.744 2.096 1.744Zm18.217-6.672c1.808 0 3.024 1.248 3.024 3.248v4.96h-1.728v-4.848c0-1.12-.608-1.744-1.552-1.744-1.024 0-1.744.656-1.744 2.112v4.48h-1.728v-4.848c0-1.12-.56-1.744-1.504-1.744-.976 0-1.776.656-1.776 2.112v4.48h-1.728v-8h1.728v.96c.512-.784 1.296-1.168 2.288-1.168 1.04 0 1.808.464 2.272 1.264.528-.832 1.376-1.264 2.448-1.264Zm8.649 8.416c-2.336 0-4.224-1.84-4.224-4.208 0-2.384 1.888-4.208 4.224-4.208 2.352 0 4.224 1.824 4.224 4.208 0 2.368-1.872 4.208-4.224 4.208Zm0-1.68c1.408 0 2.496-1.072 2.496-2.528s-1.088-2.528-2.496-2.528-2.496 1.072-2.496 2.528 1.088 2.528 2.496 2.528Zm9.995-6.736c1.792 0 3.072 1.216 3.072 3.296v4.912h-1.728v-4.736c0-1.216-.704-1.856-1.792-1.856-1.136 0-2.032.672-2.032 2.304v4.288h-1.728v-8h1.728v1.024c.528-.832 1.392-1.232 2.48-1.232Zm9.396 1.872h-1.984v3.84c0 1.024.672 1.008 1.984.944v1.552c-2.656.32-3.712-.416-3.712-2.496v-3.84h-1.472v-1.664h1.472v-1.728l1.728-.512v2.24h1.984v1.664Zm5.776-1.872c1.792 0 3.072 1.216 3.072 3.296v4.912h-1.728v-4.736c0-1.216-.704-1.856-1.792-1.856-1.136 0-2.032.672-2.032 2.304v4.288h-1.728v-11.2h1.728v4.224c.528-.832 1.392-1.232 2.48-1.232Zm6.484 2.416c0 1.456 4.304.576 4.304 3.536 0 1.6-1.392 2.464-3.12 2.464-1.6 0-2.752-.72-3.264-1.872l1.488-.864c.256.72.896 1.152 1.776 1.152.768 0 1.36-.256 1.36-.896 0-1.424-4.304-.624-4.304-3.488 0-1.504 1.296-2.448 2.928-2.448 1.312 0 2.4.608 2.96 1.664l-1.456.816c-.288-.624-.848-.912-1.504-.912-.624 0-1.168.272-1.168.848Z"/><rect width="302.001" height="5.8995" x="28" y="244.973" fill="#7E4B27" rx="2.9498"/><rect width="82.4427" height="5.8995" x="28" y="244.973" fill="#7E4B27" rx="2.9498"/><path fill="#7E4B27" d="M54.0352 245.709h255.911v4.4246H54.0352z"/><circle cx="56.2475" cy="247.921" r="2.2123" fill="#EDC582"/><circle cx="101.97" cy="247.921" r="2.2123" fill="#EDC582"/><circle cx="147.689" cy="247.921" r="2.2123" fill="#EDC582"/><circle cx="193.412" cy="247.921" r="2.2123" fill="#EDC582"/><circle cx="239.134" cy="247.921" r="2.2123" fill="#EDC582"/><circle cx="284.853" cy="247.921" r="2.2123" fill="#EDC582"/><path fill="#D2AC3D" stroke="#FEFEFE" stroke-width=".7872" d="M246.355 247.922c0 3.856-3.125 6.981-6.981 6.981-3.855 0-6.98-3.125-6.98-6.981 0-3.855 3.125-6.981 6.98-6.981 3.856 0 6.981 3.126 6.981 6.981Z"/><rect width="193.165" height="38.7216" x="342" y="28" fill="#3D230D" fill-opacity=".4" rx="19.3608"/><g fill="#FFB876" clip-path="url(#d)"><path d="M363.093 55.3608c-.363-.1304-.565-.3841-.698-.7205-.38-.9597-.789-1.91-1.169-2.8705-.122-.3073-.32-.4958-.651-.6096-1.054-.3617-2.1-.743-3.148-1.1199-.469-.1689-.725-.4545-.703-.8104.026-.4117.294-.6379.696-.7785 1.051-.3682 2.09-.7684 3.147-1.1235.356-.1196.542-.3168.668-.6343.389-.9822.803-1.9571 1.208-2.9343.177-.4269.454-.6378.847-.6212.422.0174.678.2349.825.6038.399.9924.826 1.9746 1.218 2.9691.122.3095.305.4973.642.6125 1.067.3653 2.123.756 3.181 1.1409.457.166.69.4342.673.7902-.02.4117-.281.6451-.684.7857-1.04.3624-2.07.751-3.113 1.1069-.357.1218-.574.3059-.706.648-.365.9518-.779 1.8876-1.155 2.8364-.133.3356-.336.5872-.689.7292h-.389ZM369.059 46.0077c-.198-.0711-.307-.2088-.38-.3922-.207-.5219-.43-1.0387-.637-1.5606-.066-.1675-.173-.2697-.354-.3313-.572-.1971-1.141-.4044-1.712-.6089-.255-.092-.394-.2471-.381-.4407.014-.224.159-.3465.378-.4233.572-.2001 1.136-.4183 1.711-.6111.194-.0652.296-.1718.364-.345.212-.5342.436-1.0641.657-1.5954.096-.232.247-.3472.461-.3378.23.0094.368.1276.449.3283.217.5393.449 1.0736.662 1.6143.066.1682.167.2704.35.3335.58.1986 1.154.411 1.73.6204.248.0907.375.2356.365.4299-.01.224-.152.3508-.371.4269-.566.1972-1.125.4081-1.693.6017-.193.0659-.312.1667-.384.3523-.199.5175-.423 1.0264-.628 1.5425-.072.1826-.182.3196-.374.3965h-.213ZM358.455 46.0078c-.099-.0355-.154-.1044-.19-.1957-.103-.2609-.215-.519-.318-.7807-.033-.0833-.087-.1348-.177-.166-.287-.0985-.571-.2022-.856-.3044-.127-.0457-.196-.1232-.191-.2204.007-.1116.08-.1732.189-.2116.286-.1001.568-.2088.856-.3052.097-.0326.147-.0863.181-.1725.106-.2675.219-.5321.329-.7981.048-.116.124-.1732.23-.1689.115.0051.184.0638.225.1646.108.2696.224.5371.331.8075.033.084.083.1355.175.1667.29.0993.577.2058.865.3102.124.045.187.1182.183.2146-.006.1116-.077.1754-.186.2138-.283.0986-.563.2044-.847.3008-.097.0334-.156.0834-.192.1762-.099.2588-.212.5132-.314.7712-.035.0914-.091.1595-.187.1987h-.106v-.0008Z"/></g><path fill="#FFB876" d="M399.561 45.3608h-1.586c-.093-.4559-.257-.8565-.492-1.2017-.23-.3451-.511-.6349-.843-.8693-.329-.2386-.693-.4176-1.093-.5369-.401-.1193-.819-.179-1.253-.179-.793 0-1.511.2003-2.154.6009-.64.4005-1.149.9907-1.528 1.7706-.375.7798-.563 1.7365-.563 2.87 0 1.1335.188 2.0902.563 2.87.379.7798.888 1.37 1.528 1.7706.643.4006 1.361.6009 2.154.6009.434 0 .852-.0597 1.253-.179.4-.1193.764-.2962 1.093-.5306.332-.2386.613-.5305.843-.8757.235-.3494.399-.75.492-1.2017h1.586c-.12.6691-.337 1.2678-.652 1.7962-.316.5284-.708.978-1.176 1.3487-.469.3665-.995.6456-1.579.8374-.58.1917-1.2.2876-1.86.2876-1.117 0-2.11-.2727-2.979-.8182-.869-.5454-1.553-1.321-2.052-2.3267-.498-1.0057-.748-2.1988-.748-3.5795s.25-2.5739.748-3.5796c.499-1.0056 1.183-1.7812 2.052-2.3267.869-.5454 1.862-.8181 2.979-.8181.66 0 1.28.0958 1.86.2876.584.1918 1.11.473 1.579.8437.468.3665.86.814 1.176 1.3424.315.5241.532 1.1228.652 1.7961Zm13.607 2.4546c0 1.3807-.249 2.5738-.748 3.5795s-1.183 1.7813-2.052 2.3267c-.869.5455-1.862.8182-2.979.8182-1.116 0-2.109-.2727-2.978-.8182-.87-.5454-1.554-1.321-2.052-2.3267-.499-1.0057-.748-2.1988-.748-3.5795s.249-2.5739.748-3.5796c.498-1.0056 1.182-1.7812 2.052-2.3267.869-.5454 1.862-.8181 2.978-.8181 1.117 0 2.11.2727 2.979.8181.869.5455 1.553 1.3211 2.052 2.3267.499 1.0057.748 2.1989.748 3.5796Zm-1.534 0c0-1.1335-.19-2.0902-.569-2.87-.375-.7799-.884-1.3701-1.528-1.7706-.639-.4006-1.355-.6009-2.148-.6009-.792 0-1.51.2003-2.154.6009-.639.4005-1.148.9907-1.527 1.7706-.375.7798-.563 1.7365-.563 2.87 0 1.1335.188 2.0902.563 2.87.379.7798.888 1.37 1.527 1.7706.644.4006 1.362.6009 2.154.6009.793 0 1.509-.2003 2.148-.6009.644-.4006 1.153-.9908 1.528-1.7706.379-.7798.569-1.7365.569-2.87Zm4.199-6.5455h1.892l4.449 10.8665h.154l4.448-10.8665h1.893v13.0909h-1.483v-9.946h-.128l-4.091 9.946h-1.432l-4.091-9.946h-.128v9.946h-1.483V41.2699Zm17.599 0v13.0909h-1.585V41.2699h1.585Zm13.559 0v13.0909h-1.534l-7.133-10.2784h-.128v10.2784h-1.585V41.2699h1.534l7.159 10.304h.128v-10.304h1.559Zm12.121 4.0909c-.14-.4304-.326-.816-.556-1.1569-.226-.3452-.496-.6392-.812-.8821-.311-.2429-.664-.4283-1.061-.5561-.396-.1279-.831-.1918-1.304-.1918-.775 0-1.481.2003-2.116.6009-.634.4005-1.139.9907-1.514 1.7706-.375.7798-.563 1.7365-.563 2.87 0 1.1335.19 2.0902.569 2.87.379.7798.893 1.37 1.54 1.7706.648.4006 1.377.6009 2.187.6009.75 0 1.41-.1598 1.981-.4794.575-.3239 1.023-.7799 1.342-1.3679.324-.5924.486-1.2891.486-2.0902l.486.1022h-3.938v-1.4062h4.986v1.4062c0 1.0782-.23 2.0157-.69 2.8125-.456.7969-1.087 1.4148-1.892 1.8537-.801.4347-1.722.652-2.761.652-1.16 0-2.178-.2727-3.056-.8182-.873-.5454-1.555-1.321-2.045-2.3267-.486-1.0057-.729-2.1988-.729-3.5795 0-1.0355.138-1.9666.415-2.7933.282-.831.678-1.5384 1.189-2.1222.512-.5838 1.117-1.0312 1.816-1.3423.699-.3111 1.468-.4666 2.307-.4666.691 0 1.334.1044 1.931.3132.601.2045 1.135.4964 1.604.8757.473.375.867.8245 1.183 1.3487.315.5199.532 1.0973.652 1.7322h-1.637Zm16.65-.8181c-.077-.6478-.388-1.1506-.933-1.5086-.546-.3579-1.215-.5369-2.007-.5369-.58 0-1.087.0938-1.522.2813-.43.1875-.767.4453-1.01.7734-.238.3281-.358.701-.358 1.1186 0 .3494.083.6499.25.9013.17.2471.387.4538.652.62.264.1619.541.2962.831.4027.289.1023.556.1854.799.2493l1.329.3579c.341.0895.72.2131 1.138.3708.422.1577.825.3729 1.208.6456.388.2684.707.6136.959 1.0355.251.4219.377.9396.377 1.5533 0 .7073-.185 1.3466-.556 1.9176-.367.571-.904 1.0248-1.611 1.3615-.703.3366-1.557.505-2.563.505-.938 0-1.749-.1513-2.436-.4539-.681-.3025-1.218-.7244-1.61-1.2656-.388-.5412-.608-1.1698-.659-1.8857h1.637c.042.4944.208.9034.498 1.2273.294.3196.665.5583 1.112.7159.452.1534.938.2301 1.458.2301.605 0 1.148-.098 1.63-.294.481-.2003.863-.4773 1.144-.831.281-.3579.422-.7755.422-1.2528 0-.4347-.122-.7884-.364-1.0611-.243-.2727-.563-.4943-.959-.6648-.397-.1704-.825-.3196-1.285-.4474l-1.611-.4602c-1.023-.2941-1.832-.7138-2.429-1.2593-.596-.5454-.895-1.2592-.895-2.1413 0-.733.198-1.3722.595-1.9176.4-.5497.937-.9759 1.611-1.2784.677-.3068 1.433-.4602 2.269-.4602.843 0 1.593.1512 2.25.4538.656.2983 1.176.7074 1.559 1.2273.388.5198.593 1.11.614 1.7706h-1.534Zm15.365 3.2727c0 1.3807-.25 2.5738-.748 3.5795-.499 1.0057-1.183 1.7813-2.052 2.3267-.869.5455-1.862.8182-2.979.8182-1.116 0-2.109-.2727-2.978-.8182-.87-.5454-1.554-1.321-2.052-2.3267-.499-1.0057-.748-2.1988-.748-3.5795s.249-2.5739.748-3.5796c.498-1.0056 1.182-1.7812 2.052-2.3267.869-.5454 1.862-.8181 2.978-.8181 1.117 0 2.11.2727 2.979.8181.869.5455 1.553 1.3211 2.052 2.3267.498 1.0057.748 2.1989.748 3.5796Zm-1.534 0c0-1.1335-.19-2.0902-.569-2.87-.375-.7799-.884-1.3701-1.528-1.7706-.639-.4006-1.355-.6009-2.148-.6009-.792 0-1.51.2003-2.154.6009-.639.4005-1.148.9907-1.527 1.7706-.375.7798-.563 1.7365-.563 2.87 0 1.1335.188 2.0902.563 2.87.379.7798.888 1.37 1.527 1.7706.644.4006 1.362.6009 2.154.6009.793 0 1.509-.2003 2.148-.6009.644-.4006 1.153-.9908 1.528-1.7706.379-.7798.569-1.7365.569-2.87Zm15.245 0c0 1.3807-.25 2.5738-.748 3.5795-.499 1.0057-1.183 1.7813-2.052 2.3267-.869.5455-1.862.8182-2.979.8182-1.116 0-2.109-.2727-2.978-.8182-.87-.5454-1.554-1.321-2.052-2.3267-.499-1.0057-.748-2.1988-.748-3.5795s.249-2.5739.748-3.5796c.498-1.0056 1.182-1.7812 2.052-2.3267.869-.5454 1.862-.8181 2.978-.8181 1.117 0 2.11.2727 2.979.8181.869.5455 1.553 1.3211 2.052 2.3267.498 1.0057.748 2.1989.748 3.5796Zm-1.534 0c0-1.1335-.19-2.0902-.569-2.87-.375-.7799-.885-1.3701-1.528-1.7706-.639-.4006-1.355-.6009-2.148-.6009-.792 0-1.51.2003-2.154.6009-.639.4005-1.148.9907-1.528 1.7706-.375.7798-.562 1.7365-.562 2.87 0 1.1335.187 2.0902.562 2.87.38.7798.889 1.37 1.528 1.7706.644.4006 1.362.6009 2.154.6009.793 0 1.509-.2003 2.148-.6009.643-.4006 1.153-.9908 1.528-1.7706.379-.7798.569-1.7365.569-2.87Zm14.58-6.5455v13.0909h-1.534l-7.134-10.2784h-.128v10.2784h-1.585V41.2699h1.534l7.159 10.304h.128v-10.304h1.56Z"/></g><defs><linearGradient id="b" x1="280.5" x2="280.5" y1="0" y2="319.5" gradientUnits="userSpaceOnUse"><stop stop-color="#201207"/><stop offset="1" stop-color="#201207" stop-opacity="0"/></linearGradient><linearGradient id="c" x1="280.5" x2="280.5" y1="0" y2="179.223" gradientUnits="userSpaceOnUse"><stop stop-color="#F1CE9B"/><stop offset="1" stop-color="#F1CE9B" stop-opacity="0"/></linearGradient><clipPath id="d"><path fill="#fff" d="M356.723 39.3608h16v16h-16z"/></clipPath><filter id="a" width="609" height="322" x="-24" y="-24" color-interpolation-filters="sRGB" filterUnits="userSpaceOnUse"><feFlood flood-opacity="0" result="BackgroundImageFix"/><feGaussianBlur in="BackgroundImageFix" stdDeviation="12"/><feComposite in2="SourceAlpha" operator="in" result="effect1_backgroundBlur_10225_16294"/><feBlend in="SourceGraphic" in2="effect1_backgroundBlur_10225_16294" result="shape"/></filter></defs></svg>