<svg xmlns="http://www.w3.org/2000/svg" width="331" height="318" fill="none"><g clip-path="url(#a)"><rect width="330" height="211" x=".5" y="35.5" fill="url(#b)" rx="23.5"/><rect width="330" height="211" x=".5" y="35.5" stroke="url(#c)" rx="23.5"/><path fill="#E8AD62" d="m38.52 136-.98-2.82h-5.96L30.6 136h-2.5l5.08-14h2.76L41 136h-2.48Zm-6.18-4.98h4.44l-2.22-6.32-2.22 6.32ZM45.2647 136l-4.86-14h2.52l3.72 11.22 3.74-11.22h2.5l-4.86 14h-2.76Zm11.4158-2.2h6.2v2.2h-8.5v-14h8.4v2.2h-6.1v3.64h5.6v2.18h-5.6v3.78Zm16.2854 2.2-2.96-5.1h-2.72v5.1h-2.3v-14h5.6c2.5 0 4.5 2 4.5 4.5 0 1.8-1.14 3.4-2.78 4.06l3.18 5.44h-2.52Zm-5.68-11.84v4.68h3.3c1.22 0 2.2-1.04 2.2-2.34 0-1.32-.98-2.34-2.2-2.34h-3.3ZM86.3716 136l-.98-2.82h-5.96l-.98 2.82h-2.5l5.08-14h2.76l5.06 14h-2.48Zm-6.18-4.98h4.44l-2.22-6.32-2.22 6.32Zm23.2584-2.26v.96c0 3.82-2.76 6.54-6.8603 6.54-4.36 0-7.46-3.24-7.46-7.26s3.14-7.26 7.34-7.26c2.66 0 4.9203 1.34 6.1003 3.32l-1.98 1.14c-.7203-1.3-2.2803-2.22-4.1203-2.22-2.96 0-5.04 2.18-5.04 5.04 0 2.82 2.04 5 5.18 5 2.54 0 4.1003-1.32 4.5203-3.2h-4.6803v-2.06h7.0003Zm4.402 5.04h6.2v2.2h-8.5v-14h8.4v2.2h-6.1v3.64h5.6v2.18h-5.6v3.78ZM34.06 160.26c-2.76 0-4.66-1.36-5.4-3.44l1.98-1.16c.5 1.42 1.58 2.36 3.48 2.36 1.82 0 2.6-.82 2.6-1.84 0-1.24-1.1-1.66-3.18-2.3-2.18-.66-4.3-1.46-4.3-4.1 0-2.58 2.14-4.04 4.5-4.04 2.3 0 4 1.22 4.88 3.08l-1.94 1.12c-.5-1.12-1.38-1.96-2.94-1.96-1.34 0-2.2.68-2.2 1.74 0 1.08.78 1.54 2.82 2.18 2.32.74 4.66 1.46 4.66 4.24 0 2.56-2.04 4.12-4.96 4.12ZM46.0639 146c2.64 0 4.64 2 4.64 4.6 0 2.58-2 4.6-4.64 4.6h-2.86v4.8h-2.3v-14h5.16Zm0 7.04c1.36 0 2.34-1.04 2.34-2.44 0-1.42-.98-2.44-2.34-2.44h-2.86v4.88h2.86Zm8.9369 4.76h6.2v2.2h-8.5v-14h8.4v2.2h-6.1v3.64h5.6v2.18h-5.6v3.78ZM71.7063 146h2.3v14h-1.8l-6.6-9.5v9.5h-2.3v-14h1.8l6.6 9.5V146Zm10.596 0c3.86 0 6.7 3.08 6.7 7 0 3.9-2.84 7-6.7 7h-5.5v-14h5.5Zm0 11.8c2.66 0 4.48-2.04 4.48-4.8 0-2.78-1.82-4.8-4.48-4.8h-3.2v9.6h3.2Zm12.9296 2.46c-2.76 0-4.66-1.36-5.4-3.44l1.98-1.16c.5 1.42 1.58 2.36 3.48 2.36 1.82 0 2.6-.82 2.6-1.84 0-1.24-1.1-1.66-3.18-2.3-2.18-.66-4.3-1.46-4.3-4.1 0-2.58 2.14-4.04 4.5-4.04 2.3 0 4 1.22 4.88 3.08l-1.94 1.12c-.5-1.12-1.38-1.96-2.94-1.96-1.34 0-2.2.68-2.2 1.74 0 1.08.78 1.54 2.82 2.18 2.32.74 4.6601 1.46 4.6601 4.24 0 2.56-2.0401 4.12-4.9601 4.12Z" opacity=".9"/><path fill="url(#d)" d="M249 39c0-2.2091 1.791-4 4-4h54c13.255 0 24 10.7452 24 24v164c0 13.255-10.745 24-24 24h-54c-2.209 0-4-1.791-4-4V39Z"><animate attributeName="opacity" begin="3s" dur="7s" repeatCount="indefinite" values="0;1;1;0"/></path><path fill="#98712F" d="M269.381 132.27c-2.868 0-4.842-1.413-5.611-3.574l2.057-1.206c.52 1.476 1.642 2.453 3.616 2.453 1.891 0 2.702-.852 2.702-1.912 0-1.289-1.143-1.725-3.305-2.39-2.265-.686-4.468-1.517-4.468-4.26 0-2.681 2.224-4.198 4.676-4.198 2.39 0 4.156 1.268 5.071 3.2l-2.016 1.164c-.519-1.164-1.434-2.037-3.055-2.037-1.392 0-2.286.707-2.286 1.808 0 1.123.811 1.601 2.93 2.266 2.411.768 4.842 1.517 4.842 4.405 0 2.66-2.119 4.281-5.153 4.281Zm16.506-.27-1.018-2.93h-6.193l-1.018 2.93h-2.598l5.278-14.547h2.868L288.464 132h-2.577Zm-6.421-5.175h4.613l-2.307-6.566-2.306 6.566ZM292.895 132l-5.05-14.547h2.619l3.865 11.658 3.886-11.658h2.598L295.763 132h-2.868Zm11.862-2.286h6.442V132h-8.832v-14.547h8.728v2.286h-6.338v3.782h5.819v2.265h-5.819v3.928Z"><animate attributeName="opacity" begin="3s" dur="7s" repeatCount="indefinite" values="0;1;1;0"/></path><path fill="#98712F" d="M263.967 163.333v-2.565l6.954-7.096c1.425-1.425 2.537-2.879 2.537-4.389 0-1.995-1.368-3.078-3.078-3.078-1.653 0-2.936.883-3.705 2.479l-2.765-1.624c1.283-2.736 3.791-4.047 6.441-4.047 3.278 0 6.384 2.194 6.384 6.156 0 2.479-1.482 4.56-3.391 6.498l-4.503 4.503h8.265v3.163h-13.139Zm22.901.371c-5.016 0-7.837-4.19-7.837-10.346s2.821-10.345 7.837-10.345 7.838 4.189 7.838 10.345c0 6.156-2.822 10.346-7.838 10.346Zm0-3.192c2.964 0 4.56-2.565 4.56-7.154 0-4.588-1.596-7.153-4.56-7.153-2.935 0-4.56 2.565-4.56 7.153 0 4.589 1.625 7.154 4.56 7.154Zm14.517-8.379c-2.679 0-4.674-2.052-4.674-4.56 0-2.537 1.995-4.56 4.674-4.56 2.65 0 4.645 1.995 4.645 4.56 0 2.508-1.966 4.56-4.645 4.56Zm-.029-2.508c1.226 0 2.052-.941 2.052-2.052 0-1.169-.826-2.081-2.052-2.081-1.197 0-2.023.912-2.023 2.081 0 1.14.826 2.052 2.023 2.052Zm-2.964 10.773 13.139-14.621 1.539.884-13.139 14.649-1.539-.912Zm12.113 3.277c-2.679 0-4.674-2.052-4.674-4.56 0-2.536 1.995-4.56 4.674-4.56 2.65 0 4.645 2.024 4.645 4.56 0 2.508-1.995 4.56-4.645 4.56Zm-.029-2.508c1.226 0 2.052-.94 2.052-2.052 0-1.168-.826-2.08-2.052-2.08-1.197 0-2.023.912-2.023 2.08 0 1.14.826 2.052 2.023 2.052Z"><animate attributeName="opacity" begin="3s" dur="7s" repeatCount="indefinite" values="0;1;1;0"/></path><path stroke="url(#e)" stroke-linecap="round" stroke-width="2" d="M249 1v318"><animate attributeName="opacity" begin="3s" dur="7s" repeatCount="indefinite" values="0;1;1;0"/></path></g><defs><linearGradient id="b" x1="165.5" x2="166" y1="35" y2="326.5" gradientUnits="userSpaceOnUse"><stop stop-color="#201207"/><stop offset="1" stop-color="#201207" stop-opacity="0"/></linearGradient><linearGradient id="c" x1="165.5" x2="49" y1="35" y2="290.5" gradientUnits="userSpaceOnUse"><stop stop-color="#F1CE9B"/><stop offset=".4171" stop-color="#C4913A"/><stop offset="1" stop-color="#F1CE9B"/></linearGradient><linearGradient id="d" x1="249" x2="331.001" y1="156.5" y2="156.817" gradientUnits="userSpaceOnUse"><stop stop-color="#F9ECD6"/><stop offset="1" stop-color="#F3D2A3"/></linearGradient><linearGradient id="e" x1="249" x2="249" y1="1" y2="302.99" gradientUnits="userSpaceOnUse"><stop stop-color="#FFD999" stop-opacity="0"/><stop offset=".098" stop-color="#FFD999"/><stop offset=".474" stop-color="#BB862D"/><stop offset=".8555" stop-color="#FFD999"/><stop offset=".9281" stop-color="#FFD999" stop-opacity="0"/></linearGradient><clipPath id="a"><path fill="#fff" d="M0 0h331v318H0z"/></clipPath></defs></svg>