<svg xmlns="http://www.w3.org/2000/svg" width="42" height="42" fill="none"><circle cx="21" cy="21" r="20.25" fill="url(#a)" stroke="url(#b)" stroke-width="1.5"/><path fill="#E8AD62" fill-rule="evenodd" d="M21.5589 10.674a.9846.9846 0 0 0-1.1178 0l-9.5156 6.5625a.9845.9845 0 0 0-.4255.8104v9.8437c0 1.9934 1.616 3.6094 3.6094 3.6094h13.7812c1.9934 0 3.6094-1.616 3.6094-3.6094v-9.8437a.9845.9845 0 0 0-.4255-.8104l-9.5156-6.5625Zm-9.0901 17.2166v-9.3268L21 12.6801l8.5313 5.8837v9.3268c0 .9061-.7346 1.6407-1.6407 1.6407h-2.9539v-3.6107c0-1.9934-1.616-3.6094-3.6094-3.6094h-.6562c-1.9934 0-3.6094 1.616-3.6094 3.6094v3.6107h-2.9523c-.9061 0-1.6406-.7346-1.6406-1.6407Zm6.5616-1.97c0-.9061.7346-1.6406 1.6407-1.6406h.6562c.9061 0 1.6406.7345 1.6406 1.6406V29.53h-3.9375v-3.6094Z" clip-rule="evenodd"/><defs><linearGradient id="a" x1="21" x2="21" y1="0" y2="42" gradientUnits="userSpaceOnUse"><stop stop-color="#211308"/><stop offset="1" stop-color="#6E4015"/></linearGradient><linearGradient id="b" x1="21" x2="21" y1="0" y2="42" gradientUnits="userSpaceOnUse"><stop stop-color="#F1CE9B"/><stop offset="1" stop-color="#332107"/></linearGradient></defs></svg>