<svg width="25" height="21" viewBox="0 0 25 21" fill="none" xmlns="http://www.w3.org/2000/svg">
<path id="Vector" d="M15.5292 3.05699C15.5292 1.37454 17.0626 0.0147503 18.9517 0.0147503C20.8408 0.0147503 22.3762 1.37731 22.3762 3.05699C22.3762 4.73668 20.8428 6.09923 18.9517 6.09923C17.0606 6.09923 15.5292 4.73944 15.5292 3.05699ZM25 15.0416H24.2348C22.665 15.0416 21.8735 14.0127 21.8735 12.393V9.35074H16.0724V13.6624C16.0724 18.3475 19.4351 20.3139 22.6893 20.3139H25V15.0416ZM5.81016 16.4889C5.81016 14.9217 6.74862 14.2091 8.65494 14.2091H13.3848V9.33691H5.81016V7.32535C5.81016 5.73416 7.2969 4.86943 9.07248 4.86943H13.3777V0H7.59283C3.04646 0 0 2.22176 0 6.88007V20.3019H5.81016V16.4889Z" fill="#F6F9FD"/>
</svg>
