<svg width="245" height="394" viewBox="0 0 245 394" fill="none" xmlns="http://www.w3.org/2000/svg">
<g clip-path="url(#clip0_10200_14371)">
<g clip-path="url(#clip1_10200_14371)">
<rect x="0.8" y="0.8" width="243.228" height="428.6" rx="36" fill="url(#paint0_linear_10200_14371)" stroke="url(#paint1_linear_10200_14371)" stroke-width="1.6"/>
<rect x="8.8" y="13.9279" width="227.2" height="400.324" rx="26.4" fill="url(#paint2_linear_10200_14371)" stroke="url(#paint3_linear_10200_14371)" stroke-width="1.6"/>
</g>
<path d="M34.2275 98.1098H35.5894V106.4H34.2275V98.1098ZM40.2779 100.324C41.6043 100.324 42.5517 101.224 42.5517 102.764V106.4H41.2727V102.894C41.2727 101.994 40.7516 101.521 39.9463 101.521C39.1054 101.521 38.4422 102.018 38.4422 103.226V106.4H37.1631V100.478H38.4422V101.236C38.833 100.62 39.4725 100.324 40.2779 100.324ZM47.2332 101.71H45.7646V104.552C45.7646 105.31 46.262 105.298 47.2332 105.251V106.4C45.2672 106.637 44.4856 106.092 44.4856 104.552V101.71H43.396V100.478H44.4856V99.1993L45.7646 98.8203V100.478H47.2332V101.71ZM49.157 103.984C49.3584 104.908 50.1045 105.381 51.0519 105.381C51.7625 105.381 52.2954 105.062 52.5797 104.647L53.6337 105.263C53.0889 106.068 52.2007 106.554 51.0401 106.554C49.086 106.554 47.8188 105.216 47.8188 103.439C47.8188 101.686 49.086 100.324 50.9453 100.324C52.7099 100.324 53.9179 101.746 53.9179 103.451C53.9179 103.629 53.8942 103.818 53.8706 103.984H49.157ZM49.1452 102.942H52.627C52.4494 101.923 51.7033 101.485 50.9335 101.485C49.9742 101.485 49.3228 102.053 49.1452 102.942ZM56.3224 101.473C56.6777 100.668 57.4002 100.372 58.1463 100.372V101.757C57.3054 101.698 56.3224 102.089 56.3224 103.415V106.4H55.0434V100.478H56.3224V101.473ZM62.206 100.324C63.5325 100.324 64.4799 101.224 64.4799 102.764V106.4H63.2009V102.894C63.2009 101.994 62.6798 101.521 61.8744 101.521C61.0336 101.521 60.3704 102.018 60.3704 103.226V106.4H59.0913V100.478H60.3704V101.236C60.7612 100.62 61.4007 100.324 62.206 100.324ZM70.547 100.478H71.826V106.4H70.547V105.547C70.0969 106.175 69.3982 106.554 68.4744 106.554C66.8638 106.554 65.5255 105.192 65.5255 103.439C65.5255 101.675 66.8638 100.324 68.4744 100.324C69.3982 100.324 70.0969 100.703 70.547 101.319V100.478ZM68.6758 105.334C69.7417 105.334 70.547 104.541 70.547 103.439C70.547 102.338 69.7417 101.544 68.6758 101.544C67.6099 101.544 66.8046 102.338 66.8046 103.439C66.8046 104.541 67.6099 105.334 68.6758 105.334ZM76.6211 101.71H75.1525V104.552C75.1525 105.31 75.65 105.298 76.6211 105.251V106.4C74.6551 106.637 73.8735 106.092 73.8735 104.552V101.71H72.7839V100.478H73.8735V99.1993L75.1525 98.8203V100.478H76.6211V101.71ZM78.4207 99.5901C77.9706 99.5901 77.6035 99.2112 77.6035 98.773C77.6035 98.3229 77.9706 97.9558 78.4207 97.9558C78.8707 97.9558 79.2378 98.3229 79.2378 98.773C79.2378 99.2112 78.8707 99.5901 78.4207 99.5901ZM77.7811 106.4V100.478H79.0602V106.4H77.7811ZM83.3403 106.554C81.6112 106.554 80.2137 105.192 80.2137 103.439C80.2137 101.675 81.6112 100.324 83.3403 100.324C85.0812 100.324 86.4668 101.675 86.4668 103.439C86.4668 105.192 85.0812 106.554 83.3403 106.554ZM83.3403 105.31C84.3825 105.31 85.1878 104.517 85.1878 103.439C85.1878 102.361 84.3825 101.568 83.3403 101.568C82.2981 101.568 81.4927 102.361 81.4927 103.439C81.4927 104.517 82.2981 105.31 83.3403 105.31ZM90.7381 100.324C92.0645 100.324 93.012 101.224 93.012 102.764V106.4H91.7329V102.894C91.7329 101.994 91.2118 101.521 90.4065 101.521C89.5656 101.521 88.9024 102.018 88.9024 103.226V106.4H87.6234V100.478H88.9024V101.236C89.2933 100.62 89.9328 100.324 90.7381 100.324ZM99.079 100.478H100.358V106.4H99.079V105.547C98.629 106.175 97.9303 106.554 97.0065 106.554C95.3959 106.554 94.0576 105.192 94.0576 103.439C94.0576 101.675 95.3959 100.324 97.0065 100.324C97.9303 100.324 98.629 100.703 99.079 101.319V100.478ZM97.2078 105.334C98.2737 105.334 99.079 104.541 99.079 103.439C99.079 102.338 98.2737 101.544 97.2078 101.544C96.142 101.544 95.3366 102.338 95.3366 103.439C95.3366 104.541 96.142 105.334 97.2078 105.334ZM101.849 106.4V97.7545H103.128V106.4H101.849ZM110.712 106.554C108.888 106.554 107.574 105.441 107.574 103.652V98.1098H108.936V103.569C108.936 104.541 109.492 105.227 110.712 105.227C111.932 105.227 112.489 104.541 112.489 103.569V98.1098H113.851V103.652C113.851 105.441 112.524 106.554 110.712 106.554ZM116.414 102.113C116.414 103.19 119.599 102.539 119.599 104.73C119.599 105.914 118.569 106.554 117.29 106.554C116.106 106.554 115.253 106.021 114.874 105.168L115.975 104.529C116.165 105.062 116.639 105.381 117.29 105.381C117.859 105.381 118.297 105.192 118.297 104.718C118.297 103.664 115.111 104.256 115.111 102.136C115.111 101.023 116.07 100.324 117.278 100.324C118.249 100.324 119.055 100.774 119.469 101.556L118.391 102.16C118.178 101.698 117.764 101.485 117.278 101.485C116.816 101.485 116.414 101.686 116.414 102.113ZM125.263 100.478H126.542V106.4H125.263V105.547C124.813 106.175 124.115 106.554 123.191 106.554C121.58 106.554 120.242 105.192 120.242 103.439C120.242 101.675 121.58 100.324 123.191 100.324C124.115 100.324 124.813 100.703 125.263 101.319V100.478ZM123.392 105.334C124.458 105.334 125.263 104.541 125.263 103.439C125.263 102.338 124.458 101.544 123.392 101.544C122.326 101.544 121.521 102.338 121.521 103.439C121.521 104.541 122.326 105.334 123.392 105.334ZM132.747 100.478H134.002V106.128C134.002 108.034 132.51 108.922 130.958 108.922C129.656 108.922 128.649 108.437 128.152 107.489L129.253 106.85C129.514 107.359 129.952 107.762 130.982 107.762C132.084 107.762 132.747 107.158 132.747 106.128V105.405C132.297 106.045 131.598 106.435 130.686 106.435C129.016 106.435 127.702 105.073 127.702 103.38C127.702 101.686 129.016 100.324 130.686 100.324C131.598 100.324 132.297 100.715 132.747 101.355V100.478ZM130.864 105.239C131.941 105.239 132.747 104.446 132.747 103.38C132.747 102.314 131.941 101.521 130.864 101.521C129.786 101.521 128.981 102.314 128.981 103.38C128.981 104.446 129.786 105.239 130.864 105.239ZM136.5 103.984C136.701 104.908 137.447 105.381 138.394 105.381C139.105 105.381 139.638 105.062 139.922 104.647L140.976 105.263C140.432 106.068 139.543 106.554 138.383 106.554C136.429 106.554 135.161 105.216 135.161 103.439C135.161 101.686 136.429 100.324 138.288 100.324C140.053 100.324 141.261 101.746 141.261 103.451C141.261 103.629 141.237 103.818 141.213 103.984H136.5ZM136.488 102.942H139.97C139.792 101.923 139.046 101.485 138.276 101.485C137.317 101.485 136.665 102.053 136.488 102.942Z" fill="#FBF3E6"/>
<rect width="15.3263" height="7.66316" rx="3.83158" transform="matrix(-1 0 0 1 215.926 98.4312)" fill="#C0723D"/>
<g filter="url(#filter0_d_10200_14371)">
<ellipse cx="5.10877" cy="5.10877" rx="5.10877" ry="5.10877" transform="matrix(-1 0 0 1 215.926 97.1548)" fill="white"/>
</g>
<g opacity="0.6">
<path d="M39.6279 136.8L39.0476 135.13H35.5183L34.938 136.8H33.4577L36.4658 128.51H38.1001L41.0964 136.8H39.6279ZM35.9684 133.851H38.5975L37.283 130.108L35.9684 133.851ZM46.7866 128.51V129.812H44.4536V136.8H43.0916V129.812H40.7467V128.51H46.7866ZM55.7286 128.51V136.8H54.3667V130.89L51.8441 135.059H51.6783L49.1557 130.878V136.8H47.7938V128.51H49.2623L51.7612 132.655L54.2719 128.51H55.7286ZM62.0951 136.8L59.7502 128.51H61.1832L62.9241 134.988L64.8072 128.51H66.0625L67.9337 134.988L69.6747 128.51H71.1077L68.7627 136.8H67.1876L65.4348 130.748L63.6702 136.8H62.0951ZM72.4991 129.99C72.0491 129.99 71.682 129.611 71.682 129.173C71.682 128.723 72.0491 128.356 72.4991 128.356C72.9492 128.356 73.3163 128.723 73.3163 129.173C73.3163 129.611 72.9492 129.99 72.4991 129.99ZM71.8596 136.8V130.878H73.1387V136.8H71.8596ZM77.928 132.11H76.4594V134.952C76.4594 135.71 76.9569 135.698 77.928 135.651V136.8C75.962 137.037 75.1804 136.492 75.1804 134.952V132.11H74.0908V130.878H75.1804V129.599L76.4594 129.22V130.878H77.928V132.11ZM82.2028 130.724C83.5292 130.724 84.4766 131.624 84.4766 133.164V136.8H83.1976V133.294C83.1976 132.394 82.6765 131.92 81.8712 131.92C81.0303 131.92 80.3671 132.418 80.3671 133.626V136.8H79.088V128.51H80.3671V131.636C80.7579 131.02 81.3974 130.724 82.2028 130.724ZM90.5437 128.51H91.8228V136.8H90.5437V135.947C90.0937 136.575 89.3949 136.954 88.4712 136.954C86.8605 136.954 85.5223 135.592 85.5223 133.839C85.5223 132.074 86.8605 130.724 88.4712 130.724C89.3949 130.724 90.0937 131.103 90.5437 131.719V128.51ZM88.6725 135.734C89.7384 135.734 90.5437 134.94 90.5437 133.839C90.5437 132.738 89.7384 131.944 88.6725 131.944C87.6066 131.944 86.8013 132.738 86.8013 133.839C86.8013 134.94 87.6066 135.734 88.6725 135.734ZM94.5926 131.873C94.9479 131.068 95.6704 130.772 96.4165 130.772V132.157C95.5756 132.098 94.5926 132.489 94.5926 133.815V136.8H93.3136V130.878H94.5926V131.873ZM101.774 130.878H103.053V136.8H101.774V135.947C101.324 136.575 100.625 136.954 99.7013 136.954C98.0906 136.954 96.7523 135.592 96.7523 133.839C96.7523 132.074 98.0906 130.724 99.7013 130.724C100.625 130.724 101.324 131.103 101.774 131.719V130.878ZM99.9026 135.734C100.968 135.734 101.774 134.94 101.774 133.839C101.774 132.738 100.968 131.944 99.9026 131.944C98.8367 131.944 98.0314 132.738 98.0314 133.839C98.0314 134.94 98.8367 135.734 99.9026 135.734ZM111.365 130.878H112.715L110.856 136.8H109.601L108.369 132.809L107.125 136.8H105.87L104.011 130.878H105.361L106.51 134.964L107.753 130.878H108.973L110.205 134.964L111.365 130.878ZM118.116 130.878H119.395V136.8H118.116V135.947C117.666 136.575 116.967 136.954 116.043 136.954C114.433 136.954 113.094 135.592 113.094 133.839C113.094 132.074 114.433 130.724 116.043 130.724C116.967 130.724 117.666 131.103 118.116 131.719V130.878ZM116.245 135.734C117.311 135.734 118.116 134.94 118.116 133.839C118.116 132.738 117.311 131.944 116.245 131.944C115.179 131.944 114.373 132.738 114.373 133.839C114.373 134.94 115.179 135.734 116.245 135.734ZM120.886 136.8V128.154H122.165V136.8H120.886ZM124.764 132.513C124.764 133.59 127.95 132.939 127.95 135.13C127.95 136.314 126.919 136.954 125.64 136.954C124.456 136.954 123.603 136.421 123.224 135.568L124.326 134.929C124.515 135.462 124.989 135.781 125.64 135.781C126.209 135.781 126.647 135.592 126.647 135.118C126.647 134.064 123.461 134.656 123.461 132.536C123.461 131.423 124.421 130.724 125.629 130.724C126.6 130.724 127.405 131.174 127.819 131.956L126.742 132.56C126.529 132.098 126.114 131.885 125.629 131.885C125.167 131.885 124.764 132.086 124.764 132.513Z" fill="#FBF3E6"/>
<rect width="15.3263" height="7.66316" rx="3.83158" transform="matrix(-1 0 0 1 215.926 128.831)" fill="#F1CE9B"/>
<g filter="url(#filter1_d_10200_14371)">
<ellipse cx="5.10877" cy="5.10877" rx="5.10877" ry="5.10877" transform="matrix(-1 0 0 1 210.816 127.555)" fill="white"/>
</g>
</g>
<g opacity="0.2">
<path d="M35.5894 162.697H39.2608V164H34.2275V155.71H39.2015V157.013H35.5894V159.168H38.9055V160.459H35.5894V162.697ZM43.5393 157.925C44.8658 157.925 45.8132 158.825 45.8132 160.364V164H44.5342V160.494C44.5342 159.594 44.0131 159.121 43.2077 159.121C42.3669 159.121 41.7037 159.618 41.7037 160.826V164H40.4246V158.078H41.7037V158.836C42.0945 158.221 42.734 157.925 43.5393 157.925ZM51.8803 158.078H53.1593V164H51.8803V163.147C51.4302 163.775 50.7315 164.154 49.8077 164.154C48.1971 164.154 46.8588 162.792 46.8588 161.039C46.8588 159.275 48.1971 157.925 49.8077 157.925C50.7315 157.925 51.4302 158.303 51.8803 158.919V158.078ZM50.0091 162.934C51.0749 162.934 51.8803 162.141 51.8803 161.039C51.8803 159.938 51.0749 159.144 50.0091 159.144C48.9432 159.144 48.1379 159.938 48.1379 161.039C48.1379 162.141 48.9432 162.934 50.0091 162.934ZM58.0018 157.925C59.6124 157.925 60.9507 159.275 60.9507 161.039C60.9507 162.792 59.6124 164.154 58.0018 164.154C57.078 164.154 56.3793 163.775 55.9292 163.147V164H54.6502V155.71H55.9292V158.919C56.3793 158.303 57.078 157.925 58.0018 157.925ZM57.8004 162.934C58.8663 162.934 59.6716 162.141 59.6716 161.039C59.6716 159.938 58.8663 159.144 57.8004 159.144C56.7345 159.144 55.9292 159.938 55.9292 161.039C55.9292 162.141 56.7345 162.934 57.8004 162.934ZM62.1099 164V155.355H63.389V164H62.1099ZM65.8807 161.584C66.0821 162.508 66.8282 162.981 67.7756 162.981C68.4862 162.981 69.0191 162.662 69.3034 162.247L70.3574 162.863C69.8126 163.668 68.9244 164.154 67.7638 164.154C65.8097 164.154 64.5425 162.816 64.5425 161.039C64.5425 159.286 65.8097 157.925 67.669 157.925C69.4336 157.925 70.6416 159.346 70.6416 161.051C70.6416 161.229 70.6179 161.418 70.5943 161.584H65.8807ZM65.8689 160.542H69.3507C69.1731 159.523 68.427 159.085 67.6572 159.085C66.6979 159.085 66.0465 159.654 65.8689 160.542ZM77.5228 164.154C75.7345 164.154 74.3963 162.792 74.3963 161.039C74.3963 159.275 75.7345 157.925 77.5228 157.925C78.6834 157.925 79.6901 158.529 80.1638 159.452L79.0624 160.092C78.8019 159.535 78.2216 159.18 77.511 159.18C76.4688 159.18 75.6753 159.973 75.6753 161.039C75.6753 162.105 76.4688 162.899 77.511 162.899C78.2216 162.899 78.8019 162.531 79.0861 161.987L80.1875 162.614C79.6901 163.55 78.6834 164.154 77.5228 164.154ZM83.8144 164.154C82.0854 164.154 80.6879 162.792 80.6879 161.039C80.6879 159.275 82.0854 157.925 83.8144 157.925C85.5554 157.925 86.941 159.275 86.941 161.039C86.941 162.792 85.5554 164.154 83.8144 164.154ZM83.8144 162.91C84.8566 162.91 85.662 162.117 85.662 161.039C85.662 159.962 84.8566 159.168 83.8144 159.168C82.7723 159.168 81.9669 159.962 81.9669 161.039C81.9669 162.117 82.7723 162.91 83.8144 162.91ZM91.2123 157.925C92.5387 157.925 93.4862 158.825 93.4862 160.364V164H92.2071V160.494C92.2071 159.594 91.686 159.121 90.8807 159.121C90.0398 159.121 89.3766 159.618 89.3766 160.826V164H88.0976V158.078H89.3766V158.836C89.7674 158.221 90.407 157.925 91.2123 157.925ZM98.1676 159.31H96.6991V162.152C96.6991 162.91 97.1965 162.899 98.1676 162.851V164C96.2016 164.237 95.42 163.692 95.42 162.152V159.31H94.3304V158.078H95.42V156.799L96.6991 156.42V158.078H98.1676V159.31ZM103.775 158.078H105.054V164H103.775V163.147C103.325 163.775 102.626 164.154 101.702 164.154C100.091 164.154 98.7532 162.792 98.7532 161.039C98.7532 159.275 100.091 157.925 101.702 157.925C102.626 157.925 103.325 158.303 103.775 158.919V158.078ZM101.903 162.934C102.969 162.934 103.775 162.141 103.775 161.039C103.775 159.938 102.969 159.144 101.903 159.144C100.838 159.144 100.032 159.938 100.032 161.039C100.032 162.141 100.838 162.934 101.903 162.934ZM109.339 164.154C107.551 164.154 106.213 162.792 106.213 161.039C106.213 159.275 107.551 157.925 109.339 157.925C110.5 157.925 111.507 158.529 111.98 159.452L110.879 160.092C110.619 159.535 110.038 159.18 109.328 159.18C108.285 159.18 107.492 159.973 107.492 161.039C107.492 162.105 108.285 162.899 109.328 162.899C110.038 162.899 110.619 162.531 110.903 161.987L112.004 162.614C111.507 163.55 110.5 164.154 109.339 164.154ZM116.233 159.31H114.764V162.152C114.764 162.91 115.262 162.899 116.233 162.851V164C114.267 164.237 113.485 163.692 113.485 162.152V159.31H112.396V158.078H113.485V156.799L114.764 156.42V158.078H116.233V159.31ZM117.393 164V155.355H118.672V164H117.393ZM121.164 161.584C121.365 162.508 122.111 162.981 123.059 162.981C123.769 162.981 124.302 162.662 124.586 162.247L125.64 162.863C125.096 163.668 124.207 164.154 123.047 164.154C121.093 164.154 119.825 162.816 119.825 161.039C119.825 159.286 121.093 157.925 122.952 157.925C124.717 157.925 125.925 159.346 125.925 161.051C125.925 161.229 125.901 161.418 125.877 161.584H121.164ZM121.152 160.542H124.634C124.456 159.523 123.71 159.085 122.94 159.085C121.981 159.085 121.33 159.654 121.152 160.542ZM127.968 159.713C127.968 160.791 131.153 160.139 131.153 162.33C131.153 163.514 130.123 164.154 128.844 164.154C127.66 164.154 126.807 163.621 126.428 162.768L127.529 162.129C127.719 162.662 128.193 162.981 128.844 162.981C129.412 162.981 129.851 162.792 129.851 162.318C129.851 161.264 126.665 161.856 126.665 159.736C126.665 158.623 127.624 157.925 128.832 157.925C129.803 157.925 130.609 158.375 131.023 159.156L129.945 159.76C129.732 159.298 129.318 159.085 128.832 159.085C128.37 159.085 127.968 159.286 127.968 159.713ZM133.068 159.713C133.068 160.791 136.254 160.139 136.254 162.33C136.254 163.514 135.223 164.154 133.944 164.154C132.76 164.154 131.907 163.621 131.528 162.768L132.63 162.129C132.819 162.662 133.293 162.981 133.944 162.981C134.513 162.981 134.951 162.792 134.951 162.318C134.951 161.264 131.765 161.856 131.765 159.736C131.765 158.623 132.725 157.925 133.933 157.925C134.904 157.925 135.709 158.375 136.123 159.156L135.046 159.76C134.833 159.298 134.418 159.085 133.933 159.085C133.471 159.085 133.068 159.286 133.068 159.713Z" fill="#FBF3E6"/>
<rect width="15.3263" height="7.66316" rx="3.83158" transform="matrix(-1 0 0 1 215.926 156.031)" fill="#C0723D"/>
<g filter="url(#filter2_d_10200_14371)">
<ellipse cx="5.10877" cy="5.10877" rx="5.10877" ry="5.10877" transform="matrix(-1 0 0 1 215.617 154.755)" fill="white"/>
</g>
</g>
<g opacity="0.1">
<path d="M37.6199 191.138C35.4774 191.138 33.7697 189.441 33.7697 187.288C33.7697 185.134 35.4774 183.437 37.6199 183.437C39.7731 183.437 41.4701 185.134 41.4701 187.288C41.4701 189.441 39.7731 191.138 37.6199 191.138ZM37.6199 189.95C39.1048 189.95 40.2504 188.815 40.2504 187.288C40.2504 185.76 39.1048 184.625 37.6199 184.625C36.135 184.625 34.9894 185.76 34.9894 187.288C34.9894 188.815 36.135 189.95 37.6199 189.95ZM45.2981 185.559C46.486 185.559 47.3346 186.365 47.3346 187.744V191H46.189V187.86C46.189 187.054 45.7223 186.63 45.0011 186.63C44.248 186.63 43.654 187.076 43.654 188.157V191H42.5085V185.697H43.654V186.375C44.0041 185.824 44.5768 185.559 45.2981 185.559ZM48.568 191V183.257H49.7135V191H48.568ZM51.6164 184.901C51.2133 184.901 50.8845 184.562 50.8845 184.169C50.8845 183.766 51.2133 183.437 51.6164 183.437C52.0194 183.437 52.3482 183.766 52.3482 184.169C52.3482 184.562 52.0194 184.901 51.6164 184.901ZM51.0436 191V185.697H52.1891V191H51.0436ZM56.3087 185.559C57.4967 185.559 58.3452 186.365 58.3452 187.744V191H57.1997V187.86C57.1997 187.054 56.733 186.63 56.0118 186.63C55.2587 186.63 54.6647 187.076 54.6647 188.157V191H53.5192V185.697H54.6647V186.375C55.0147 185.824 55.5875 185.559 56.3087 185.559ZM60.4802 188.836C60.6606 189.664 61.3288 190.088 62.1773 190.088C62.8137 190.088 63.291 189.801 63.5456 189.43L64.4896 189.982C64.0017 190.703 63.2062 191.138 62.1667 191.138C60.4166 191.138 59.2817 189.939 59.2817 188.348C59.2817 186.779 60.4166 185.559 62.0818 185.559C63.6622 185.559 64.7441 186.832 64.7441 188.359C64.7441 188.518 64.7229 188.688 64.7017 188.836H60.4802ZM60.4696 187.903H63.588C63.4289 186.991 62.7607 186.598 62.0712 186.598C61.2121 186.598 60.6287 187.107 60.4696 187.903ZM71.363 186.8H70.0478V189.345C70.0478 190.024 70.4933 190.014 71.363 189.971V191C69.6023 191.212 68.9023 190.724 68.9023 189.345V186.8H67.9265V185.697H68.9023V184.551L70.0478 184.212V185.697H71.363V186.8ZM73.5993 186.588C73.9175 185.866 74.5645 185.601 75.2327 185.601V186.842C74.4797 186.789 73.5993 187.139 73.5993 188.327V191H72.4538V185.697H73.5993V186.588ZM80.0308 185.697H81.1763V191H80.0308V190.236C79.6277 190.798 79.0019 191.138 78.1746 191.138C76.7321 191.138 75.5335 189.918 75.5335 188.348C75.5335 186.768 76.7321 185.559 78.1746 185.559C79.0019 185.559 79.6277 185.898 80.0308 186.45V185.697ZM78.3549 190.045C79.3095 190.045 80.0308 189.335 80.0308 188.348C80.0308 187.362 79.3095 186.651 78.3549 186.651C77.4003 186.651 76.6791 187.362 76.6791 188.348C76.6791 189.335 77.4003 190.045 78.3549 190.045ZM85.3011 185.559C86.489 185.559 87.3376 186.365 87.3376 187.744V191H86.192V187.86C86.192 187.054 85.7253 186.63 85.0041 186.63C84.251 186.63 83.657 187.076 83.657 188.157V191H82.5115V185.697H83.657V186.375C84.0071 185.824 84.5798 185.559 85.3011 185.559ZM89.5999 187.16C89.5999 188.126 92.4531 187.542 92.4531 189.504C92.4531 190.565 91.5303 191.138 90.3847 191.138C89.3241 191.138 88.5604 190.661 88.221 189.897L89.2074 189.324C89.3771 189.801 89.8014 190.088 90.3847 190.088C90.8939 190.088 91.2863 189.918 91.2863 189.494C91.2863 188.55 88.4331 189.08 88.4331 187.182C88.4331 186.185 89.2923 185.559 90.3741 185.559C91.2439 185.559 91.9651 185.962 92.3364 186.662L91.3712 187.203C91.1802 186.789 90.809 186.598 90.3741 186.598C89.9605 186.598 89.5999 186.779 89.5999 187.16ZM97.5256 185.697H98.6711V191H97.5256V190.236C97.1226 190.798 96.4968 191.138 95.6694 191.138C94.2269 191.138 93.0284 189.918 93.0284 188.348C93.0284 186.768 94.2269 185.559 95.6694 185.559C96.4968 185.559 97.1226 185.898 97.5256 186.45V185.697ZM95.8498 190.045C96.8044 190.045 97.5256 189.335 97.5256 188.348C97.5256 187.362 96.8044 186.651 95.8498 186.651C94.8952 186.651 94.1739 187.362 94.1739 188.348C94.1739 189.335 94.8952 190.045 95.8498 190.045ZM102.51 191.138C100.908 191.138 99.7094 189.918 99.7094 188.348C99.7094 186.768 100.908 185.559 102.51 185.559C103.549 185.559 104.451 186.1 104.875 186.927L103.888 187.5C103.655 187.001 103.135 186.683 102.499 186.683C101.566 186.683 100.855 187.394 100.855 188.348C100.855 189.303 101.566 190.014 102.499 190.014C103.135 190.014 103.655 189.685 103.91 189.197L104.896 189.759C104.451 190.597 103.549 191.138 102.51 191.138ZM108.683 186.8H107.368V189.345C107.368 190.024 107.814 190.014 108.683 189.971V191C106.923 191.212 106.223 190.724 106.223 189.345V186.8H105.247V185.697H106.223V184.551L107.368 184.212V185.697H108.683V186.8ZM110.295 184.901C109.892 184.901 109.563 184.562 109.563 184.169C109.563 183.766 109.892 183.437 110.295 183.437C110.698 183.437 111.027 183.766 111.027 184.169C111.027 184.562 110.698 184.901 110.295 184.901ZM109.722 191V185.697H110.868V191H109.722ZM114.701 191.138C113.152 191.138 111.901 189.918 111.901 188.348C111.901 186.768 113.152 185.559 114.701 185.559C116.26 185.559 117.501 186.768 117.501 188.348C117.501 189.918 116.26 191.138 114.701 191.138ZM114.701 190.024C115.634 190.024 116.356 189.314 116.356 188.348C116.356 187.383 115.634 186.672 114.701 186.672C113.768 186.672 113.046 187.383 113.046 188.348C113.046 189.314 113.768 190.024 114.701 190.024ZM121.327 185.559C122.515 185.559 123.363 186.365 123.363 187.744V191H122.218V187.86C122.218 187.054 121.751 186.63 121.03 186.63C120.276 186.63 119.683 187.076 119.683 188.157V191H118.537V185.697H119.683V186.375C120.033 185.824 120.605 185.559 121.327 185.559ZM125.625 187.16C125.625 188.126 128.479 187.542 128.479 189.504C128.479 190.565 127.556 191.138 126.41 191.138C125.35 191.138 124.586 190.661 124.246 189.897L125.233 189.324C125.403 189.801 125.827 190.088 126.41 190.088C126.919 190.088 127.312 189.918 127.312 189.494C127.312 188.55 124.459 189.08 124.459 187.182C124.459 186.185 125.318 185.559 126.4 185.559C127.269 185.559 127.991 185.962 128.362 186.662L127.397 187.203C127.206 186.789 126.834 186.598 126.4 186.598C125.986 186.598 125.625 186.779 125.625 187.16Z" fill="#FBF3E6"/>
<rect width="13.7263" height="6.86316" rx="3.43158" transform="matrix(-1 0 0 1 215.926 183.632)" fill="#C0723D"/>
<g filter="url(#filter3_d_10200_14371)">
<ellipse cx="4.57544" cy="4.57544" rx="4.57544" ry="4.57544" transform="matrix(-1 0 0 1 215.648 182.488)" fill="white"/>
</g>
</g>
</g>
<defs>
<filter id="filter0_d_10200_14371" x="204.612" y="96.6074" width="12.4082" height="12.4072" filterUnits="userSpaceOnUse" color-interpolation-filters="sRGB">
<feFlood flood-opacity="0" result="BackgroundImageFix"/>
<feColorMatrix in="SourceAlpha" type="matrix" values="0 0 0 0 0 0 0 0 0 0 0 0 0 0 0 0 0 0 127 0" result="hardAlpha"/>
<feOffset dy="0.547368"/>
<feGaussianBlur stdDeviation="0.547368"/>
<feColorMatrix type="matrix" values="0 0 0 0 0 0 0 0 0 0 0 0 0 0 0 0 0 0 0.25 0"/>
<feBlend mode="normal" in2="BackgroundImageFix" result="effect1_dropShadow_10200_14371"/>
<feBlend mode="normal" in="SourceGraphic" in2="effect1_dropShadow_10200_14371" result="shape"/>
</filter>
<filter id="filter1_d_10200_14371" x="199.503" y="127.007" width="12.4082" height="12.4072" filterUnits="userSpaceOnUse" color-interpolation-filters="sRGB">
<feFlood flood-opacity="0" result="BackgroundImageFix"/>
<feColorMatrix in="SourceAlpha" type="matrix" values="0 0 0 0 0 0 0 0 0 0 0 0 0 0 0 0 0 0 127 0" result="hardAlpha"/>
<feOffset dy="0.547368"/>
<feGaussianBlur stdDeviation="0.547368"/>
<feColorMatrix type="matrix" values="0 0 0 0 0 0 0 0 0 0 0 0 0 0 0 0 0 0 0.25 0"/>
<feBlend mode="normal" in2="BackgroundImageFix" result="effect1_dropShadow_10200_14371"/>
<feBlend mode="normal" in="SourceGraphic" in2="effect1_dropShadow_10200_14371" result="shape"/>
</filter>
<filter id="filter2_d_10200_14371" x="204.304" y="154.208" width="12.4082" height="12.4072" filterUnits="userSpaceOnUse" color-interpolation-filters="sRGB">
<feFlood flood-opacity="0" result="BackgroundImageFix"/>
<feColorMatrix in="SourceAlpha" type="matrix" values="0 0 0 0 0 0 0 0 0 0 0 0 0 0 0 0 0 0 127 0" result="hardAlpha"/>
<feOffset dy="0.547368"/>
<feGaussianBlur stdDeviation="0.547368"/>
<feColorMatrix type="matrix" values="0 0 0 0 0 0 0 0 0 0 0 0 0 0 0 0 0 0 0.25 0"/>
<feBlend mode="normal" in2="BackgroundImageFix" result="effect1_dropShadow_10200_14371"/>
<feBlend mode="normal" in="SourceGraphic" in2="effect1_dropShadow_10200_14371" result="shape"/>
</filter>
<filter id="filter3_d_10200_14371" x="205.516" y="181.998" width="11.1132" height="11.1118" filterUnits="userSpaceOnUse" color-interpolation-filters="sRGB">
<feFlood flood-opacity="0" result="BackgroundImageFix"/>
<feColorMatrix in="SourceAlpha" type="matrix" values="0 0 0 0 0 0 0 0 0 0 0 0 0 0 0 0 0 0 127 0" result="hardAlpha"/>
<feOffset dy="0.490226"/>
<feGaussianBlur stdDeviation="0.490226"/>
<feColorMatrix type="matrix" values="0 0 0 0 0 0 0 0 0 0 0 0 0 0 0 0 0 0 0.25 0"/>
<feBlend mode="normal" in2="BackgroundImageFix" result="effect1_dropShadow_10200_14371"/>
<feBlend mode="normal" in="SourceGraphic" in2="effect1_dropShadow_10200_14371" result="shape"/>
</filter>
<linearGradient id="paint0_linear_10200_14371" x1="122.414" y1="-1.7318e-08" x2="122" y2="369.5" gradientUnits="userSpaceOnUse">
<stop stop-color="#331D0C"/>
<stop offset="1" stop-color="#331D0C" stop-opacity="0"/>
</linearGradient>
<linearGradient id="paint1_linear_10200_14371" x1="141.44" y1="-89.1878" x2="121.777" y2="429.254" gradientUnits="userSpaceOnUse">
<stop stop-color="#F1CE9B"/>
<stop offset="0.816437" stop-color="#F1CE9B" stop-opacity="0"/>
</linearGradient>
<linearGradient id="paint2_linear_10200_14371" x1="122.4" y1="13.1279" x2="122.4" y2="339.5" gradientUnits="userSpaceOnUse">
<stop stop-color="#1F0E02"/>
<stop offset="1" stop-color="#331D0C" stop-opacity="0"/>
</linearGradient>
<linearGradient id="paint3_linear_10200_14371" x1="140.181" y1="-70.1978" x2="123.987" y2="356.886" gradientUnits="userSpaceOnUse">
<stop stop-color="#F1CE9B"/>
<stop offset="1" stop-color="#F1CE9B" stop-opacity="0"/>
</linearGradient>
<clipPath id="clip0_10200_14371">
<rect width="245" height="394" fill="white"/>
</clipPath>
<clipPath id="clip1_10200_14371">
<rect width="245" height="394" fill="white"/>
</clipPath>
</defs>
</svg>
