<svg width="24" height="24" viewBox="0 0 24 24" fill="none" xmlns="http://www.w3.org/2000/svg">
<g id="Group 1749572">
<path id="Vector" d="M0 12C0 5.37258 5.37258 0 12 0C18.6274 0 24 5.37258 24 12C24 18.6274 18.6274 24 12 24C5.37258 24 0 18.6274 0 12Z" fill="#C0723D"/>
<path id="Union" d="M8.41705 7.3559C8.12416 7.06301 7.64928 7.06301 7.35639 7.3559C7.0635 7.64879 7.0635 8.12367 7.35639 8.41656L10.9403 12.0005L7.35639 15.5845C7.0635 15.8774 7.0635 16.3522 7.35639 16.6451C7.64928 16.938 8.12416 16.938 8.41705 16.6451L12.001 13.0612L15.585 16.6451C15.8779 16.938 16.3527 16.938 16.6456 16.6451C16.9385 16.3522 16.9385 15.8774 16.6456 15.5845L13.0617 12.0005L16.6456 8.41656C16.9385 8.12367 16.9385 7.64879 16.6456 7.3559C16.3527 7.06301 15.8779 7.06301 15.585 7.3559L12.001 10.9399L8.41705 7.3559Z" fill="#FFF8CE"/>
</g>
</svg>
