<svg xmlns="http://www.w3.org/2000/svg" width="332" height="249" fill="none"><g filter="url(#a)"><rect width="332" height="249" fill="url(#b)" rx="24"/><rect width="331" height="248" x=".5" y=".5" stroke="url(#c)" stroke-opacity=".8" rx="23.5"/><path fill="#fff" d="M37.624 50.312c-5.112 0-8.784-3.84-8.784-8.712s3.672-8.712 8.784-8.712c3.072 0 5.808 1.56 7.224 4.008l-2.4 1.392c-.888-1.656-2.712-2.712-4.824-2.712-3.624 0-6.024 2.568-6.024 6.024s2.4 6.024 6.024 6.024c2.112 0 3.96-1.056 4.824-2.712l2.4 1.368c-1.392 2.448-4.128 4.032-7.224 4.032Zm14.9895 0c-3.504 0-6.336-2.76-6.336-6.312 0-3.576 2.832-6.312 6.336-6.312 3.528 0 6.336 2.736 6.336 6.312 0 3.552-2.808 6.312-6.336 6.312Zm0-2.52c2.112 0 3.744-1.608 3.744-3.792 0-2.184-1.632-3.792-3.744-3.792s-3.744 1.608-3.744 3.792c0 2.184 1.632 3.792 3.744 3.792Zm14.9918-10.104c2.688 0 4.608 1.824 4.608 4.944V50h-2.592v-7.104c0-1.824-1.056-2.784-2.688-2.784-1.704 0-3.048 1.008-3.048 3.456V50h-2.592V38h2.592v1.536c.792-1.248 2.088-1.848 3.72-1.848ZM82.9527 38h2.832l-4.68 12h-3l-4.68-12h2.832l3.36 9.12 3.336-9.12Zm6.0446 7.104c.408 1.872 1.92 2.832 3.84 2.832 1.44 0 2.52-.648 3.096-1.488l2.136 1.248c-1.104 1.632-2.904 2.616-5.256 2.616-3.96 0-6.528-2.712-6.528-6.312 0-3.552 2.568-6.312 6.336-6.312 3.576 0 6.024 2.88 6.024 6.336 0 .36-.048.744-.096 1.08h-9.552Zm-.024-2.112h7.056c-.36-2.064-1.872-2.952-3.432-2.952-1.944 0-3.264 1.152-3.624 2.952Zm14.5447-2.976c.72-1.632 2.184-2.232 3.696-2.232v2.808c-1.704-.12-3.696.672-3.696 3.36V50h-2.592V38h2.592v2.016Zm12.612.48h-2.976v5.76c0 1.536 1.008 1.512 2.976 1.416V50c-3.984.48-5.568-.624-5.568-3.744v-5.76h-2.208V38h2.208v-2.592l2.592-.768V38h2.976v2.496ZM132.686 38h2.76l-4.608 12.384c-1.128 3.048-3.096 4.584-5.856 4.416v-2.424c1.68.096 2.592-.768 3.192-2.352l.12-.24L123.206 38h2.832l3.576 8.712L132.686 38Zm9.576 12.312c-3.504 0-6.336-2.76-6.336-6.312 0-3.576 2.832-6.312 6.336-6.312 3.528 0 6.336 2.736 6.336 6.312 0 3.552-2.808 6.312-6.336 6.312Zm0-2.52c2.112 0 3.744-1.608 3.744-3.792 0-2.184-1.632-3.792-3.744-3.792s-3.744 1.608-3.744 3.792c0 2.184 1.632 3.792 3.744 3.792ZM159.03 38h2.592v12h-2.592v-1.536c-.792 1.248-2.088 1.848-3.72 1.848-2.688 0-4.608-1.824-4.608-4.944V38h2.592v7.104c0 1.824 1.056 2.784 2.688 2.784 1.704 0 3.048-1.008 3.048-3.456V38Zm8.215 2.016c.72-1.632 2.184-2.232 3.696-2.232v2.808c-1.704-.12-3.696.672-3.696 3.36V50h-2.592V38h2.592v2.016Zm13.939 1.296c0 2.184 6.456.864 6.456 5.304 0 2.4-2.088 3.696-4.68 3.696-2.4 0-4.128-1.08-4.896-2.808l2.232-1.296c.384 1.08 1.344 1.728 2.664 1.728 1.152 0 2.04-.384 2.04-1.344 0-2.136-6.456-.936-6.456-5.232 0-2.256 1.944-3.672 4.392-3.672 1.968 0 3.6.912 4.44 2.496l-2.184 1.224c-.432-.936-1.272-1.368-2.256-1.368-.936 0-1.752.408-1.752 1.272Zm15.526-3.624c3.264 0 5.976 2.76 5.976 6.312 0 3.576-2.712 6.312-5.976 6.312-1.872 0-3.288-.768-4.2-2.016V54.8h-2.592V38h2.592v1.728c.912-1.272 2.328-2.04 4.2-2.04Zm-.408 10.152c2.16 0 3.792-1.608 3.792-3.84 0-2.232-1.632-3.84-3.792-3.84s-3.792 1.608-3.792 3.84c0 2.232 1.632 3.84 3.792 3.84Zm10.773-2.736c.408 1.872 1.92 2.832 3.84 2.832 1.44 0 2.52-.648 3.096-1.488l2.136 1.248c-1.104 1.632-2.904 2.616-5.256 2.616-3.96 0-6.528-2.712-6.528-6.312 0-3.552 2.568-6.312 6.336-6.312 3.576 0 6.024 2.88 6.024 6.336 0 .36-.048.744-.096 1.08h-9.552Zm-.024-2.112h7.056c-.36-2.064-1.872-2.952-3.432-2.952-1.944 0-3.264 1.152-3.624 2.952Zm18.265-5.304c2.688 0 4.608 1.824 4.608 4.944V50h-2.592v-7.104c0-1.824-1.056-2.784-2.688-2.784-1.704 0-3.048 1.008-3.048 3.456V50h-2.592V38h2.592v1.536c.792-1.248 2.088-1.848 3.72-1.848Zm16.903-4.488h2.592V50h-2.592v-1.728c-.912 1.272-2.328 2.04-4.2 2.04-3.264 0-5.976-2.76-5.976-6.312 0-3.576 2.712-6.312 5.976-6.312 1.872 0 3.288.768 4.2 2.016V33.2Zm-3.792 14.64c2.16 0 3.792-1.608 3.792-3.84 0-2.232-1.632-3.84-3.792-3.84s-3.792 1.608-3.792 3.84c0 2.232 1.632 3.84 3.792 3.84Zm11.663-6.528c0 2.184 6.456.864 6.456 5.304 0 2.4-2.088 3.696-4.68 3.696-2.4 0-4.128-1.08-4.896-2.808l2.232-1.296c.384 1.08 1.344 1.728 2.664 1.728 1.152 0 2.04-.384 2.04-1.344 0-2.136-6.456-.936-6.456-5.232 0-2.256 1.944-3.672 4.392-3.672 1.968 0 3.6.912 4.44 2.496l-2.184 1.224c-.432-.936-1.272-1.368-2.256-1.368-.936 0-1.752.408-1.752 1.272ZM36.208 68.496h-2.976v5.76c0 1.536 1.008 1.512 2.976 1.416V78c-3.984.48-5.568-.624-5.568-3.744v-5.76h-2.208V66h2.208v-2.592l2.592-.768V66h2.976v2.496Zm7.5227 9.816c-3.504 0-6.336-2.76-6.336-6.312 0-3.576 2.832-6.312 6.336-6.312 3.528 0 6.336 2.736 6.336 6.312 0 3.552-2.808 6.312-6.336 6.312Zm0-2.52c2.112 0 3.744-1.608 3.744-3.792 0-2.184-1.632-3.792-3.744-3.792s-3.744 1.608-3.744 3.792c0 2.184 1.632 3.792 3.744 3.792Zm17.6077-.432h7.44V78h-10.2V61.2h10.08v2.64h-7.32v4.368h6.72v2.616h-6.72v4.536ZM87.385 61.2V78h-2.76V66.024l-5.112 8.448h-.336L74.065 66v12h-2.76V61.2h2.976l5.064 8.4 5.088-8.4h2.952Zm3.3497 0h2.76V78h-2.76V61.2Zm8.2772 8.112c0 2.184 6.4561.864 6.4561 5.304 0 2.4-2.088 3.696-4.68 3.696-2.4001 0-4.1281-1.08-4.8961-2.808l2.232-1.296c.384 1.08 1.344 1.728 2.6641 1.728 1.152 0 2.04-.384 2.04-1.344 0-2.136-6.4561-.936-6.4561-5.232 0-2.256 1.944-3.672 4.3921-3.672 1.968 0 3.6.912 4.44 2.496l-2.184 1.224c-.432-.936-1.272-1.368-2.256-1.368-.9361 0-1.7521.408-1.7521 1.272Z"/><path fill="#F1CE9B" d="m206.268 120.451-.37 1.364h-6.912l.375-1.364h6.907Zm-3.474 8.063-3.646-4.386-.006-1.156h1.803c.43 0 .79-.071 1.078-.214.292-.146.512-.349.661-.609.153-.264.23-.573.23-.927 0-.532-.157-.959-.469-1.282-.313-.323-.813-.484-1.5-.484h-1.959l.406-1.61h1.553c.875 0 1.599.136 2.172.406.576.268 1.007.646 1.292 1.136.288.49.432 1.063.432 1.719 0 .58-.106 1.097-.318 1.552-.212.455-.545.828-1 1.12-.455.292-1.05.486-1.787.584l-.062.02 3.292 4.037v.094h-2.172Zm3.485-10.668-.381 1.386-5.604-.021.38-1.365h5.605Zm3.679-.741h1.63v11.409h-1.874v-9.404l-2.298.652-.457-1.597 2.999-1.06Zm6.325 9.453-1.141 4.238h-1.467l.652-4.238h1.956Zm10.018-1.841v1.744h-1.304v2.053h-1.891v-2.053H217.5v-1.744l3.928-7.612h2.037l-3.928 7.612h3.569v-2.967h1.891v2.967h1.304Zm4.966-3.782c2.364 0 4.026 1.598 4.026 3.896s-1.662 3.895-4.026 3.895c-2.379 0-4.042-1.597-4.042-3.895 0-.88.245-1.663.685-2.298l3.618-5.428h2.135l-2.607 3.83h.211Zm0 6.015c1.239 0 2.152-.832 2.152-2.119 0-1.304-.913-2.119-2.152-2.119-1.254 0-2.167.815-2.167 2.119 0 1.304.913 2.119 2.167 2.119Zm9.796-5.183c1.565.374 2.787 1.515 2.787 3.292 0 2.396-1.89 3.667-3.993 3.667-1.678 0-3.194-.766-3.83-2.363l1.597-.929c.326.961 1.092 1.467 2.233 1.467 1.288 0 2.119-.701 2.119-1.842s-.831-1.826-2.119-1.826h-.423l-.75-1.124 2.461-3.243h-4.775v-1.761h7.008v1.598l-2.315 3.064Zm8.9 8.377h-.896l6.519-14.669h.896l-6.519 14.669Zm21.096-9.991c1.842 0 3.081 1.271 3.081 3.309v5.052h-1.76v-4.938c0-1.141-.62-1.777-1.581-1.777-1.043 0-1.777.668-1.777 2.152v4.563h-1.76v-4.938c0-1.141-.571-1.777-1.532-1.777-.994 0-1.809.668-1.809 2.152v4.563h-1.76v-8.149h1.76v.978c.521-.799 1.32-1.19 2.33-1.19 1.06 0 1.842.473 2.315 1.288.538-.848 1.401-1.288 2.493-1.288Zm8.811 8.573c-2.379 0-4.303-1.874-4.303-4.286 0-2.429 1.924-4.287 4.303-4.287 2.396 0 4.303 1.858 4.303 4.287 0 2.412-1.907 4.286-4.303 4.286Zm0-1.711c1.434 0 2.543-1.092 2.543-2.575 0-1.484-1.109-2.576-2.543-2.576-1.434 0-2.542 1.092-2.542 2.576 0 1.483 1.108 2.575 2.542 2.575Zm10.181-6.862c1.825 0 3.129 1.239 3.129 3.358v5.003h-1.76v-4.824c0-1.239-.717-1.891-1.825-1.891-1.158 0-2.07.685-2.07 2.347v4.368h-1.761v-8.149h1.761v1.043c.538-.847 1.418-1.255 2.526-1.255Zm9.572 1.907h-2.021v3.912c0 1.043.684 1.026 2.021.961v1.581c-2.706.326-3.781-.424-3.781-2.542v-3.912h-1.5v-1.695h1.5v-1.76l1.76-.522v2.282h2.021v1.695Zm5.883-1.907c1.825 0 3.129 1.239 3.129 3.358v5.003h-1.76v-4.824c0-1.239-.717-1.891-1.826-1.891-1.157 0-2.069.685-2.069 2.347v4.368h-1.761v-11.409h1.761v4.303c.537-.847 1.417-1.255 2.526-1.255ZM31.6572 127.052h5.489V129H29.621v-12.394h7.4367v1.947h-5.4005v3.223h4.9578v1.93h-4.9578v3.346Zm19.2163-10.446V129h-2.0362v-8.836l-3.7715 6.233h-.2478l-3.7715-6.25V129h-2.0363v-12.394h2.1956l3.7361 6.197 3.7538-6.197h2.1778Zm2.4713 0h2.0363V129h-2.0363v-12.394ZM34.0216 162l-1.8003-3.102h-1.6544V162h-1.399v-8.515h3.4061c1.5206 0 2.7371 1.216 2.7371 2.737 0 1.095-.6934 2.068-1.6909 2.469L35.5544 162h-1.5328Zm-3.4547-7.201v2.846h2.0071c.7421 0 1.3382-.633 1.3382-1.423 0-.803-.5961-1.423-1.3382-1.423h-2.0071Zm6.6895 4.719c.2068.949.9732 1.436 1.9464 1.436.7298 0 1.2772-.329 1.5692-.754l1.0827.632c-.5596.827-1.472 1.326-2.6641 1.326-2.0072 0-3.3088-1.374-3.3088-3.199 0-1.801 1.3016-3.199 3.2115-3.199 1.8125 0 3.0533 1.459 3.0533 3.211 0 .182-.0243.377-.0487.547h-4.8415Zm-.0122-1.07h3.5765c-.1825-1.046-.9489-1.496-1.7396-1.496-.9853 0-1.6544.584-1.8369 1.496Zm9.501-2.688c1.6544 0 3.029 1.398 3.029 3.199 0 1.812-1.3746 3.199-3.029 3.199-.9488 0-1.6665-.389-2.1288-1.022v3.297h-1.3138v-8.515h1.3138v.876c.4623-.645 1.18-1.034 2.1288-1.034Zm-.2068 5.145c1.0949 0 1.9221-.815 1.9221-1.946s-.8272-1.947-1.9221-1.947c-1.0948 0-1.922.816-1.922 1.947 0 1.131.8272 1.946 1.922 1.946Zm9.2438-4.987h1.3138V162h-1.3138v-.876c-.4623.645-1.18 1.034-2.1289 1.034-1.6543 0-3.029-1.399-3.029-3.199 0-1.813 1.3747-3.199 3.029-3.199.9489 0 1.6666.389 2.1289 1.021v-.863Zm-1.9221 4.987c1.0949 0 1.9221-.815 1.9221-1.946s-.8272-1.947-1.9221-1.947c-1.0948 0-1.922.816-1.922 1.947 0 1.131.8272 1.946 1.922 1.946Zm8.8667-4.987h1.3989l-2.3356 6.277c-.5717 1.545-1.5692 2.323-2.9682 2.238v-1.229c.8515.049 1.3138-.389 1.6179-1.192l.0608-.121-2.5789-5.973h1.4355l1.8125 4.415 1.5571-4.415Zm5.9185-.913c-.4623 0-.8394-.389-.8394-.839 0-.462.3771-.839.8394-.839.4622 0 .8393.377.8393.839 0 .45-.3771.839-.8393.839ZM67.9884 162v-6.082h1.3138V162h-1.3138Zm6.0385-6.24c1.3625 0 2.3356.924 2.3356 2.505V162h-1.3138v-3.601c0-.924-.5352-1.411-1.3624-1.411-.8637 0-1.5449.511-1.5449 1.752V162h-1.3138v-6.082h1.3138v.778c.4014-.632 1.0583-.936 1.8855-.936ZM253.326 155.746c0 .657-.183 1.241-.511 1.715l-2.689 4.051h-1.605l1.946-2.858h-.146c-1.764 0-3.017-1.193-3.017-2.908 0-1.715 1.253-2.907 3.017-2.907s3.005 1.192 3.005 2.907Zm-4.623 0c0 .961.693 1.582 1.618 1.582.924 0 1.606-.609 1.606-1.582 0-.973-.682-1.581-1.606-1.581-.925 0-1.618.608-1.618 1.581Zm15.375-.474c1.375 0 2.299.949 2.299 2.469v3.771h-1.313v-3.686c0-.851-.463-1.326-1.18-1.326-.779 0-1.326.499-1.326 1.606v3.406h-1.314v-3.686c0-.851-.426-1.326-1.144-1.326-.742 0-1.35.499-1.35 1.606v3.406h-1.314v-6.082h1.314v.73c.389-.596.985-.888 1.74-.888.79 0 1.374.353 1.727.961.402-.633 1.046-.961 1.861-.961Zm6.576 6.398c-1.776 0-3.211-1.399-3.211-3.199 0-1.813 1.435-3.199 3.211-3.199 1.789 0 3.212 1.386 3.212 3.199 0 1.8-1.423 3.199-3.212 3.199Zm0-1.277c1.071 0 1.898-.815 1.898-1.922s-.827-1.922-1.898-1.922c-1.07 0-1.897.815-1.897 1.922s.827 1.922 1.897 1.922Zm7.599-5.121c1.363 0 2.336.924 2.336 2.506v3.734h-1.314v-3.601c0-.924-.535-1.411-1.363-1.411-.863 0-1.544.511-1.544 1.752v3.26h-1.314v-6.082h1.314v.778c.401-.632 1.058-.936 1.885-.936Zm7.144 1.423h-1.508v2.92c0 .778.511.766 1.508.717v1.18c-2.019.244-2.822-.316-2.822-1.897v-2.92h-1.119v-1.265h1.119v-1.314l1.314-.389v1.703h1.508v1.265Zm4.391-1.423c1.363 0 2.336.924 2.336 2.506v3.734h-1.314v-3.601c0-.924-.535-1.411-1.362-1.411-.864 0-1.545.511-1.545 1.752v3.26h-1.314v-8.515h1.314v3.211c.401-.632 1.058-.936 1.885-.936Zm4.93 1.837c0 1.107 3.273.438 3.273 2.688 0 1.216-1.059 1.873-2.372 1.873-1.217 0-2.093-.547-2.482-1.423l1.131-.657c.195.548.681.876 1.351.876.583 0 1.034-.195 1.034-.681 0-1.083-3.273-.475-3.273-2.652 0-1.144.986-1.861 2.226-1.861.998 0 1.825.462 2.251 1.265l-1.107.62c-.219-.474-.645-.693-1.144-.693-.474 0-.888.207-.888.645Z"/><rect width="275.001" height="5.8995" x="28" y="176.324" fill="#22100A" rx="2.9498"/><rect width="75.072" height="5.8995" x="28" y="176.324" fill="#22100A" rx="2.9498"/><path fill="#22100A" d="M51.707 177.061h233.031v4.4246H51.707z"/><circle cx="53.9194" cy="179.273" r="2.2123" fill="#EDC582"/><circle cx="99.642" cy="179.273" r="2.2123" fill="#EDC582"/><circle cx="145.361" cy="179.273" r="2.2123" fill="#EDC582"/><circle cx="191.083" cy="179.273" r="2.2123" fill="#EDC582"/><circle cx="236.806" cy="179.273" r="2.2123" fill="#EDC582"/><circle cx="282.525" cy="179.273" r="2.2123" fill="#EDC582"/><path fill="#D2AC3D" stroke="#FEFEFE" stroke-width=".7872" d="M153.355 179.274c0 3.855-3.125 6.981-6.981 6.981-3.855 0-6.98-3.126-6.98-6.981 0-3.856 3.125-6.981 6.98-6.981 3.856 0 6.981 3.125 6.981 6.981Z"/><rect width="119" height="24" x="197" y="209" fill="#3D230D" fill-opacity=".4" rx="12"/><g fill="#FFB876" clip-path="url(#d)"><path d="M208.982 226c-.227-.081-.353-.24-.437-.45-.237-.6-.493-1.194-.731-1.794-.076-.192-.199-.31-.406-.381-.659-.226-1.313-.465-1.968-.7-.293-.106-.453-.284-.439-.507.016-.257.183-.398.435-.486.657-.23 1.306-.481 1.966-.702.223-.075.34-.198.418-.397.244-.614.502-1.223.755-1.834.111-.267.284-.398.53-.388.263.011.423.147.515.377.25.621.516 1.234.761 1.856.076.193.191.311.402.383.666.228 1.327.472 1.988.713.285.104.431.271.42.494-.012.257-.175.403-.427.491-.65.226-1.294.469-1.946.692-.223.076-.359.191-.441.405-.228.594-.487 1.179-.722 1.772-.083.21-.21.367-.43.456h-.243ZM212.712 220.154c-.123-.044-.191-.13-.237-.245-.129-.326-.269-.649-.398-.975-.041-.105-.108-.169-.221-.207-.358-.123-.714-.253-1.07-.381-.159-.057-.246-.154-.239-.275.009-.14.1-.217.237-.265.357-.125.71-.261 1.07-.382.121-.041.184-.107.227-.215.133-.334.272-.665.41-.998.061-.145.155-.217.288-.211.144.006.231.08.281.206.136.337.281.671.414 1.008.041.106.104.169.219.209.362.124.721.257 1.081.388.155.056.234.147.228.268-.006.14-.095.22-.232.267-.354.123-.703.255-1.058.376-.121.041-.195.104-.24.22-.124.324-.265.642-.392.964-.046.115-.114.2-.234.248h-.134ZM206.082 220.154c-.061-.022-.096-.065-.118-.122-.065-.163-.134-.324-.199-.488-.021-.052-.054-.084-.11-.104-.18-.061-.358-.126-.535-.19-.08-.028-.123-.077-.12-.138.005-.069.05-.108.118-.132.179-.062.355-.13.535-.191.061-.02.092-.053.114-.107.066-.168.136-.333.205-.499.03-.073.077-.108.144-.106.072.003.115.04.14.103.068.169.141.336.207.505.021.052.052.085.11.104.181.062.36.129.54.194.078.028.117.074.114.134-.003.07-.047.11-.116.134-.176.061-.351.127-.529.188-.06.021-.097.052-.12.11-.062.162-.132.321-.196.482-.022.057-.057.099-.117.124h-.066l-.001-.001Z"/></g><path fill="#FFB876" d="M227.08 219h-1.057c-.063-.304-.172-.571-.328-.801-.154-.23-.341-.423-.563-.58-.219-.159-.462-.278-.729-.358a2.9261 2.9261 0 0 0-.835-.119c-.528 0-1.007.134-1.436.401-.426.267-.766.66-1.018 1.18-.25.52-.375 1.158-.375 1.913 0 .756.125 1.394.375 1.914.252.52.592.913 1.018 1.18.429.267.908.401 1.436.401.29 0 .568-.04.835-.12.267-.079.51-.197.729-.353.222-.159.409-.354.563-.584.156-.233.265-.5.328-.801h1.057c-.08.446-.225.845-.435 1.197-.21.352-.472.652-.784.899-.313.245-.664.431-1.053.559-.386.127-.799.191-1.24.191-.744 0-1.406-.181-1.986-.545-.579-.364-1.035-.881-1.368-1.551-.332-.671-.498-1.466-.498-2.387 0-.92.166-1.716.498-2.386.333-.67.789-1.188 1.368-1.551.58-.364 1.242-.546 1.986-.546.441 0 .854.064 1.24.192.389.128.74.316 1.053.563.312.244.574.542.784.895.21.349.355.748.435 1.197Zm9.071 1.636c0 .921-.166 1.716-.499 2.387-.332.67-.788 1.187-1.368 1.551-.579.364-1.241.545-1.985.545-.745 0-1.407-.181-1.986-.545-.58-.364-1.036-.881-1.368-1.551-.332-.671-.499-1.466-.499-2.387 0-.92.167-1.716.499-2.386.332-.67.788-1.188 1.368-1.551.579-.364 1.241-.546 1.986-.546.744 0 1.406.182 1.985.546.58.363 1.036.881 1.368 1.551.333.67.499 1.466.499 2.386Zm-1.023 0c0-.755-.126-1.393-.379-1.913-.25-.52-.59-.913-1.019-1.18-.426-.267-.903-.401-1.431-.401-.529 0-1.007.134-1.436.401-.427.267-.766.66-1.019 1.18-.25.52-.375 1.158-.375 1.913 0 .756.125 1.394.375 1.914.253.52.592.913 1.019 1.18.429.267.907.401 1.436.401.528 0 1.005-.134 1.431-.401.429-.267.769-.66 1.019-1.18.253-.52.379-1.158.379-1.914Zm2.8-4.363h1.261l2.966 7.244h.102l2.966-7.244h1.262V225h-.989v-6.631h-.085L242.684 225h-.955l-2.727-6.631h-.085V225h-.989v-8.727Zm11.733 0V225h-1.057v-8.727h1.057Zm9.039 0V225h-1.023l-4.755-6.852h-.086V225h-1.057v-8.727h1.023l4.773 6.869h.085v-6.869h1.04Zm8.081 2.727c-.094-.287-.218-.544-.371-.771-.151-.23-.331-.426-.541-.588-.208-.162-.444-.286-.708-.371-.264-.085-.554-.128-.869-.128-.517 0-.987.134-1.411.401-.423.267-.76.66-1.01 1.18-.25.52-.375 1.158-.375 1.913 0 .756.127 1.394.38 1.914s.595.913 1.027 1.18c.432.267.917.401 1.457.401.5 0 .94-.107 1.321-.32.384-.216.682-.52.895-.912.216-.395.324-.859.324-1.393l.324.068h-2.625v-.938h3.324v.938c0 .719-.154 1.344-.461 1.875-.304.531-.724.943-1.261 1.236-.534.289-1.148.434-1.841.434-.773 0-1.452-.181-2.037-.545-.582-.364-1.037-.881-1.363-1.551-.324-.671-.486-1.466-.486-2.387 0-.69.092-1.311.277-1.862.187-.554.451-1.025.792-1.415.341-.389.745-.687 1.211-.895.465-.207.978-.311 1.538-.311.46 0 .889.07 1.287.209.4.137.757.331 1.069.584.316.25.579.55.789.899.21.347.355.732.434 1.155h-1.09Zm11.099-.545c-.051-.432-.258-.767-.622-1.006-.363-.239-.809-.358-1.338-.358-.386 0-.724.062-1.014.187-.287.125-.511.297-.673.516-.159.219-.239.467-.239.746 0 .233.055.433.166.601.114.164.259.302.435.413.176.108.361.197.554.268.193.069.371.124.532.167l.887.238c.227.06.48.142.758.247.282.106.55.249.806.431.258.179.471.409.639.69.168.281.251.627.251 1.036 0 .471-.123.897-.37 1.278-.245.381-.603.683-1.074.908-.469.224-1.039.336-1.709.336-.625 0-1.166-.1-1.624-.302-.454-.202-.812-.483-1.073-.844-.259-.361-.405-.78-.439-1.257h1.091c.028.33.139.602.332.818.196.213.443.372.741.477.302.103.625.154.972.154.403 0 .766-.065 1.087-.196.321-.134.575-.318.762-.554.188-.239.282-.517.282-.835 0-.29-.081-.526-.243-.708-.162-.182-.375-.329-.639-.443-.265-.114-.55-.213-.857-.298l-1.074-.307c-.682-.196-1.221-.476-1.619-.84-.398-.363-.597-.839-.597-1.427 0-.489.132-.915.397-1.279.267-.366.625-.65 1.073-.852.452-.204.956-.307 1.513-.307.563 0 1.063.101 1.5.303.438.199.784.472 1.04.818.258.347.395.74.409 1.181h-1.023Zm10.244 2.181c0 .921-.167 1.716-.499 2.387-.332.67-.788 1.187-1.368 1.551-.579.364-1.241.545-1.986.545-.744 0-1.406-.181-1.985-.545-.58-.364-1.036-.881-1.368-1.551-.333-.671-.499-1.466-.499-2.387 0-.92.166-1.716.499-2.386.332-.67.788-1.188 1.368-1.551.579-.364 1.241-.546 1.985-.546.745 0 1.407.182 1.986.546.58.363 1.036.881 1.368 1.551.332.67.499 1.466.499 2.386Zm-1.023 0c0-.755-.127-1.393-.379-1.913-.25-.52-.59-.913-1.019-1.18-.426-.267-.903-.401-1.432-.401-.528 0-1.007.134-1.436.401-.426.267-.765.66-1.018 1.18-.25.52-.375 1.158-.375 1.913 0 .756.125 1.394.375 1.914.253.52.592.913 1.018 1.18.429.267.908.401 1.436.401.529 0 1.006-.134 1.432-.401.429-.267.769-.66 1.019-1.18.252-.52.379-1.158.379-1.914Zm10.163 0c0 .921-.166 1.716-.498 2.387-.333.67-.789 1.187-1.368 1.551-.58.364-1.242.545-1.986.545s-1.406-.181-1.986-.545c-.579-.364-1.035-.881-1.368-1.551-.332-.671-.498-1.466-.498-2.387 0-.92.166-1.716.498-2.386.333-.67.789-1.188 1.368-1.551.58-.364 1.242-.546 1.986-.546s1.406.182 1.986.546c.579.363 1.035.881 1.368 1.551.332.67.498 1.466.498 2.386Zm-1.023 0c0-.755-.126-1.393-.379-1.913-.25-.52-.589-.913-1.018-1.18-.426-.267-.904-.401-1.432-.401-.528 0-1.007.134-1.436.401-.426.267-.766.66-1.019 1.18-.25.52-.375 1.158-.375 1.913 0 .756.125 1.394.375 1.914.253.52.593.913 1.019 1.18.429.267.908.401 1.436.401.528 0 1.006-.134 1.432-.401.429-.267.768-.66 1.018-1.18.253-.52.379-1.158.379-1.914Zm9.721-4.363V225h-1.023l-4.756-6.852h-.085V225h-1.057v-8.727h1.023l4.773 6.869h.085v-6.869h1.04Z"/></g><defs><linearGradient id="b" x1="166" x2="166" y1="0" y2="319.5" gradientUnits="userSpaceOnUse"><stop stop-color="#201207"/><stop offset="1" stop-color="#201207" stop-opacity="0"/></linearGradient><linearGradient id="c" x1="166" x2="166" y1="0" y2="179.223" gradientUnits="userSpaceOnUse"><stop stop-color="#F1CE9B"/><stop offset="1" stop-color="#F1CE9B" stop-opacity="0"/></linearGradient><clipPath id="d"><path fill="#fff" d="M205 216h10v10h-10z"/></clipPath><filter id="a" width="380" height="297" x="-24" y="-24" color-interpolation-filters="sRGB" filterUnits="userSpaceOnUse"><feFlood flood-opacity="0" result="BackgroundImageFix"/><feGaussianBlur in="BackgroundImageFix" stdDeviation="12"/><feComposite in2="SourceAlpha" operator="in" result="effect1_backgroundBlur_9797_1715"/><feBlend in="SourceGraphic" in2="effect1_backgroundBlur_9797_1715" result="shape"/></filter></defs></svg>