<svg xmlns="http://www.w3.org/2000/svg" width="28" height="29" fill="none"><circle cx="14" cy="14.5" r="13.5" fill="url(#a)" stroke="url(#b)"/><path fill="#E8AD62" fill-rule="evenodd" d="M16.1515 11.3485a.6561.6561 0 0 1 0 .928l-4.375 4.375a.6561.6561 0 0 1-.928 0 .6561.6561 0 0 1 0-.928l4.375-4.375a.6561.6561 0 0 1 .928 0Z" clip-rule="evenodd"/><path fill="#E8AD62" d="M11.75 11.8125a.4375.4375 0 1 0 0 .875.4375.4375 0 0 0 0-.875Z"/><path fill="#E8AD62" fill-rule="evenodd" d="M12.625 12.25a.875.875 0 1 1-1.7501-.0001.875.875 0 0 1 1.7501.0001Z" clip-rule="evenodd"/><path fill="#E8AD62" d="M15.25 16.1875a.4375.4375 0 1 0 0-.875.4375.4375 0 0 0 0 .875Z"/><path fill="#E8AD62" fill-rule="evenodd" d="M14.375 15.75a.875.875 0 1 1 1.7501.0001.875.875 0 0 1-1.7501-.0001Z" clip-rule="evenodd"/><path fill="#E8AD62" fill-rule="evenodd" d="M13.5 7.6563a1.0549 1.0549 0 0 0-.7482.311l-.0013.0014-.5445.5445-.0013.0013a2.3676 2.3676 0 0 1-1.6681.6888h-.7782a1.0551 1.0551 0 0 0-1.0551 1.0551v.7779a2.3684 2.3684 0 0 1-.6888 1.6684l-.0013.0013-.5445.5445-.0013.0013A1.056 1.056 0 0 0 7.1563 14a1.0549 1.0549 0 0 0 .311.7482l.0014.0013.5458.5458a2.3676 2.3676 0 0 1 .6888 1.6681v.7782a1.0551 1.0551 0 0 0 1.055 1.0551h.778a2.3687 2.3687 0 0 1 1.6684.6888l.0013.0013.5458.5458a1.0562 1.0562 0 0 0 .7482.3112 1.0547 1.0547 0 0 0 .7482-.3112l.0013-.0013.5445-.5445.0013-.0013a2.3678 2.3678 0 0 1 1.6681-.6888h.7782a1.055 1.055 0 0 0 1.0551-1.0551v-.7779a2.3687 2.3687 0 0 1 .6888-1.6684l.0013-.0013.5445-.5445.0013-.0013A1.0562 1.0562 0 0 0 19.8438 14a1.0547 1.0547 0 0 0-.3112-.7482l-.0013-.0013-.5445-.5445-.0013-.0013a2.3678 2.3678 0 0 1-.6888-1.6681v-.7782a1.055 1.055 0 0 0-1.0551-1.0551h-.7779a2.3684 2.3684 0 0 1-1.6684-.6888l-.0013-.0013-.5445-.5445-.0013-.0013a1.056 1.056 0 0 0-.7482-.3111Zm-.9091-1.131a2.3675 2.3675 0 0 1 2.5873.516l.0006.0006.542.542a1.0567 1.0567 0 0 0 .7432.307v-.0001h.7776a2.3676 2.3676 0 0 1 2.3676 2.3676v.7775c.0002.2783.1103.5452.3063.7427l.0007.0006.5419.542.0007.0007a2.3678 2.3678 0 0 1-.0007 3.3569l-.5419.542c-.0002.0001.0001-.0002 0 0a1.057 1.057 0 0 0-.307.7433v.7775a2.3676 2.3676 0 0 1-2.3676 2.3676h-.7775a1.0553 1.0553 0 0 0-.7428.3064c-.0002.0002.0002-.0001 0 0l-.5425.5425-.0006.0006a2.3677 2.3677 0 0 1-2.5873.5161 2.3686 2.3686 0 0 1-.769-.516l-.0007-.0007-.542-.5419-.0006-.0007a1.0554 1.0554 0 0 0-.7427-.3063h-.7775a2.3676 2.3676 0 0 1-2.3676-2.3676v-.7775s0 .0001 0 0a1.0553 1.0553 0 0 0-.3064-.7428l-.5425-.5425-.0006-.0006a2.3671 2.3671 0 0 1-.516-2.5873 2.3681 2.3681 0 0 1 .516-.7691l.0006-.0006.542-.542c-.0003.0002.0001-.0002 0 0a1.0569 1.0569 0 0 0 .3069-.7432s0 .0001 0 0v-.7776a2.3676 2.3676 0 0 1 2.3676-2.3676h.7775c-.0001 0 0 0 0 0a1.0557 1.0557 0 0 0 .7428-.3064c-.0002.0002.0002-.0002 0 0l.5425-.5425.0006-.0006a2.3681 2.3681 0 0 1 .7691-.516Z" clip-rule="evenodd"/><defs><linearGradient id="a" x1="14" x2="14" y1=".5" y2="38.4167" gradientUnits="userSpaceOnUse"><stop stop-color="#211308"/><stop offset="1" stop-color="#6F4015"/></linearGradient><linearGradient id="b" x1="14" x2="14" y1=".5" y2="28.5" gradientUnits="userSpaceOnUse"><stop stop-color="#F1CE9B"/><stop offset="1" stop-color="#2D1C02"/></linearGradient></defs></svg>