<svg width="112" height="28" viewBox="0 0 112 28" fill="none" xmlns="http://www.w3.org/2000/svg">
<g id="Federal 01">
<path id="path48" d="M0 28H112V0H0V28Z" fill="#00488E"/>
<path id="path50" d="M0 28H112V24.8015H0V28Z" fill="#F7A800"/>
<g id="Union">
<path d="M95.6613 7.70863L94.7505 14.3448L87.4924 7.23828L86.0527 18.5046H88.0875L89.0853 11.2036L96.2781 18.6611L97.8484 7.70863H95.6613Z" fill="white"/>
<path d="M19.1892 9.46439L19.435 7.70676L13.0786 7.72267L11.6235 18.5231C11.6235 18.5231 17.9092 18.6309 17.9092 18.5072C17.9092 18.3878 18.1242 16.7964 18.1242 16.7964H13.9168L14.3423 13.7064H18.566L18.8272 11.9028H14.6362L14.9791 9.46439H19.1892Z" fill="white"/>
<path d="M8.07042 9.48081H11.7389L11.9349 7.72583L6.15633 7.70992L4.66406 18.482H6.77591L7.47986 13.6945H11.1647L11.4096 11.921H7.72661L8.07042 9.48081Z" fill="white"/>
<path d="M36.6538 7.70676L36.4061 9.46439H32.1978L31.8549 11.9028H36.0469L35.7847 13.7064H31.5601L31.1328 16.7964H35.3429C35.3429 16.7964 35.1288 18.3878 35.1288 18.5072C35.1288 18.6309 28.8423 18.5231 28.8423 18.5231L30.2992 7.72267L36.6538 7.70676Z" fill="white"/>
<path fill-rule="evenodd" clip-rule="evenodd" d="M23.5562 7.73418L20.6996 7.72269L19.2563 18.5204H21.3401L21.341 18.5142L21.4789 18.5116C21.8381 18.5425 24.2693 18.7247 25.8595 17.9405C25.8595 17.9405 29.0799 16.8212 29.049 12.344C29.049 12.344 28.8613 8.23371 23.5562 7.73418ZM24.067 16.7805C24.067 16.7805 22.025 16.9025 21.6476 16.8212L21.644 16.8441L21.566 16.8415L22.5502 9.48651L24.1096 9.46087C24.1096 9.46087 26.3412 9.46087 26.9835 11.8825L26.9934 11.9276C27.6212 14.3951 25.7715 16.578 24.067 16.7805Z" fill="white"/>
<path fill-rule="evenodd" clip-rule="evenodd" d="M41.0418 7.73779C44.332 7.89869 44.2821 10.7128 44.2821 10.7128C44.0599 13.5279 41.7067 13.8939 41.7067 13.8939L44.4055 18.5382H42.2038L39.5459 14.0981L39.2619 14.0831L38.6659 18.5382H36.5142L37.9738 7.73779H41.0418ZM39.8797 9.45474L39.4787 12.4607L40.5419 12.4696C42.7046 12.2052 42.2283 10.208 42.2283 10.208C41.9571 9.13293 39.8797 9.45474 39.8797 9.45474Z" fill="white"/>
<path fill-rule="evenodd" clip-rule="evenodd" d="M44.666 18.5073H47.0936L48.5142 16.2121H52.6317L53.3202 18.5259H55.5301L51.8597 7.27544L44.666 18.5073ZM49.5891 14.4731L51.2937 11.7164L52.1183 14.4881L49.5891 14.4731Z" fill="white"/>
<path d="M57.4642 7.73643L59.508 7.72051L58.3758 16.7889H61.9382L61.7196 18.497H55.9683L57.4642 7.73643Z" fill="white"/>
<path fill-rule="evenodd" clip-rule="evenodd" d="M74.3545 18.5073H76.7802L78.2008 16.2121H82.3175L83.0069 18.5259H85.2159L81.5455 7.27544L74.3545 18.5073ZM79.2758 14.4731L80.9803 11.7164L81.804 14.4881L79.2758 14.4731Z" fill="white"/>
<path fill-rule="evenodd" clip-rule="evenodd" d="M74.4861 10.0318C74.9315 11.6603 73.2151 12.8954 73.2151 12.8954C76.0146 14.8211 74.1486 17.1958 74.1486 17.1958C73.1916 18.5503 70.3721 18.5503 70.3721 18.5503C69.934 18.5282 69.5829 18.5114 69.3135 18.499L69.3089 18.5299H67.1245L68.5678 7.73484H71.3673C74.2756 7.95145 74.4861 10.0318 74.4861 10.0318ZM69.6074 16.843C71.7292 17.0782 72.2808 16.3913 72.2808 16.3913C73.5308 14.2526 71.4525 13.8193 71.4525 13.8193C71.1704 13.6664 70.3386 13.7044 69.9839 13.7283L69.5457 16.8492L69.6074 16.843ZM70.6252 9.2847L70.5844 9.46064L70.2097 12.1289L71.3473 12.0732C73.2986 11.3668 72.3869 9.85408 72.3869 9.85408C71.9197 9.2069 70.6252 9.2847 70.6252 9.2847Z" fill="white"/>
<path d="M104.914 7.72988H107.332L102.387 12.4148L107.079 18.4861H104.595L100.812 13.9081L100.467 14.2343L99.8868 18.5259H97.6997L99.1629 7.71043L101.349 7.72988L100.838 11.5006L104.914 7.72988Z" fill="white"/>
</g>
</g>
</svg>
