<svg xmlns="http://www.w3.org/2000/svg" width="42" height="42" fill="none"><circle cx="21" cy="21" r="20.25" fill="url(#a)" stroke="url(#b)" stroke-width="1.5"/><path fill="#E8AD62" fill-rule="evenodd" d="M13.6504 17.9132c-.5442 0-.9852.4411-.9852.9852v10.5c0 .5441.441.9852.9852.9852h14.7c.5441 0 .9851-.4411.9851-.9852v-10.5c0-.5441-.441-.9852-.9851-.9852h-14.7Zm-3.2149.9852c0-1.7755 1.4394-3.2148 3.2149-3.2148h14.7c1.7754 0 3.2148 1.4393 3.2148 3.2148v10.5c0 1.7755-1.4394 3.2148-3.2148 3.2148h-14.7c-1.7755 0-3.2149-1.4393-3.2149-3.2148v-10.5Z" clip-rule="evenodd"/><path fill="#E8AD62" fill-rule="evenodd" d="M17.0183 9.4667a4.2648 4.2648 0 0 1 3.9821 1.3078 4.2641 4.2641 0 0 1 3.982-1.3078 4.2648 4.2648 0 0 1-.832 8.4477c-.6157 0-1.1149-.4991-1.1149-1.1148s.4992-1.1148 1.1149-1.1148a2.035 2.035 0 0 0 1.996-2.4323 2.0347 2.0347 0 0 0-1.599-1.599 2.0358 2.0358 0 0 0-2.0893.8654 2.0352 2.0352 0 0 0-.3429 1.1307v9.3852h8.3352c.6156 0 1.1148.4991 1.1148 1.1148s-.4992 1.1148-1.1148 1.1148h-8.3352v6.2352c0 .6157-.4992 1.1148-1.1148 1.1148-.6157 0-1.1149-.4991-1.1149-1.1148v-6.2352h-8.3351c-.6157 0-1.1149-.4991-1.1149-1.1148s.4992-1.1148 1.1149-1.1148h8.3351v-9.3852a2.0352 2.0352 0 1 0-2.0351 2.0352c.6156 0 1.1148.4991 1.1148 1.1148s-.4992 1.1148-1.1148 1.1148a4.265 4.265 0 0 1-.8321-8.4477Z" clip-rule="evenodd"/><defs><linearGradient id="a" x1="21" x2="21" y1="0" y2="42" gradientUnits="userSpaceOnUse"><stop stop-color="#211308"/><stop offset="1" stop-color="#6E4015"/></linearGradient><linearGradient id="b" x1="21" x2="21" y1="0" y2="42" gradientUnits="userSpaceOnUse"><stop stop-color="#F1CE9B"/><stop offset="1" stop-color="#332107"/></linearGradient></defs></svg>