<svg width="245" height="394" viewBox="0 0 245 394" fill="none" xmlns="http://www.w3.org/2000/svg">
<g clip-path="url(#clip0_10200_14370)">
<g clip-path="url(#clip1_10200_14370)">
<rect x="0.8" y="0.8" width="243.228" height="428.6" rx="36" fill="url(#paint0_linear_10200_14370)" stroke="url(#paint1_linear_10200_14370)" stroke-width="1.6"/>
<rect x="8.8" y="13.9279" width="227.2" height="400.324" rx="26.4" fill="url(#paint2_linear_10200_14370)" stroke="url(#paint3_linear_10200_14370)" stroke-width="1.6"/>
</g>
<g clip-path="url(#clip2_10200_14370)">
<rect x="28" y="84.3999" width="193.6" height="36.8" rx="9.6" fill="#C0723D"/>
<path fill-rule="evenodd" clip-rule="evenodd" d="M54.1306 95.0524C53.9678 95.0521 53.8109 95.0707 53.6617 95.106C53.4573 94.6513 53.1872 94.2433 52.8801 93.9333C52.3588 93.4072 51.5366 93.1997 50.3984 93.1997V95.0501C51.0937 95.0501 51.4938 95.151 51.5837 95.2417C51.9301 95.5914 52.2319 96.3019 52.2319 96.9005L52.2411 97.0313L53.1393 103.377C51.6363 103.456 50.472 104.634 50.3996 106.107L50.3984 107.078C50.4872 108.599 51.6477 109.769 53.0965 109.852L53.3047 109.852C53.6819 110.931 54.7009 111.704 55.8987 111.704C57.0962 111.704 58.1148 110.931 58.4924 109.853H60.6388C61.0163 110.931 62.035 111.704 63.2324 111.704C64.7513 111.704 65.9826 110.461 65.9826 108.928C65.9826 107.395 64.7513 106.152 63.2324 106.152C62.035 106.152 61.0163 106.925 60.6388 108.003H58.4924C58.1148 106.925 57.0962 106.152 55.8987 106.152C54.7013 106.152 53.6826 106.925 53.3051 108.003H53.1486C52.6811 107.975 52.2617 107.552 52.2302 107.022L52.2319 106.152C52.2566 105.673 52.6731 105.252 53.194 105.226L55.0037 105.227L55.0168 105.227H64.2563L64.3916 105.184C65.0866 104.961 65.6431 104.433 65.9065 103.749L66.0031 103.556L66.3169 102.929C66.6415 102.279 66.9661 101.629 67.2825 100.993C68.0573 99.4365 68.5446 98.4471 68.6525 98.2041C69.2067 96.9564 68.0841 95.9961 66.9366 95.9756L54.1306 95.0524ZM63.9373 103.377H55.085C55.0261 103.361 54.9813 103.31 54.9725 103.248L54.0742 96.9014L66.8011 97.8212C66.5784 98.2795 66.1736 99.0982 65.6436 100.163L65.6303 100.19C65.3278 100.797 65.0036 101.447 64.6795 102.096L64.3661 102.722L64.2473 102.96L64.2025 103.065C64.1547 103.199 64.0596 103.31 63.9373 103.377ZM63.2292 109.853C63.7355 109.853 64.1459 109.439 64.1459 108.928C64.1459 108.417 63.7355 108.002 63.2292 108.002C62.7229 108.002 62.3125 108.417 62.3125 108.928C62.3125 109.439 62.7229 109.853 63.2292 109.853ZM56.8178 108.928C56.8178 109.439 56.4074 109.853 55.9011 109.853C55.3948 109.853 54.9844 109.439 54.9844 108.928C54.9844 108.417 55.3948 108.003 55.9011 108.003C56.4074 108.003 56.8178 108.417 56.8178 108.928Z" fill="#FBF3E6"/>
<path d="M83.66 107.2V106.227L86.8216 103.001C87.5256 102.297 88.0888 101.581 88.0888 100.825C88.0888 99.7757 87.3336 99.2253 86.5016 99.2253C85.6824 99.2253 85.0424 99.6221 84.6584 100.429L83.66 99.8397C84.236 98.6493 85.324 98.0733 86.4888 98.0733C87.884 98.0733 89.2792 99.0461 89.2792 100.813C89.2792 101.926 88.5624 102.886 87.6792 103.769L85.388 106.048H89.4456V107.2H83.66ZM96.8794 104.384V105.497H95.7914V107.2H94.601V105.497H90.0314V104.384L93.2442 98.2397H94.5242L91.3114 104.384H94.601V101.849H95.7914V104.384H96.8794ZM99.658 105.881L98.826 108.992H97.866L98.378 105.881H99.658ZM105.609 102.566C106.467 103.001 107.004 103.769 107.004 104.742C107.004 106.419 105.686 107.366 103.932 107.366C102.192 107.366 100.873 106.419 100.873 104.742C100.873 103.769 101.411 103.001 102.268 102.566C101.616 102.157 101.168 101.491 101.168 100.608C101.168 98.8925 102.524 98.0733 103.932 98.0733C105.353 98.0733 106.71 98.8925 106.71 100.608C106.71 101.491 106.262 102.157 105.609 102.566ZM103.932 99.2125C103.1 99.2125 102.345 99.6349 102.345 100.633C102.345 101.581 103.1 102.067 103.932 102.067C104.777 102.067 105.52 101.581 105.52 100.633C105.52 99.6349 104.777 99.2125 103.932 99.2125ZM103.932 106.227C105.033 106.227 105.827 105.702 105.827 104.665C105.827 103.641 105.033 103.117 103.932 103.117C102.844 103.117 102.051 103.641 102.051 104.665C102.051 105.702 102.844 106.227 103.932 106.227ZM111.055 101.337C112.847 101.337 114.14 102.566 114.14 104.345C114.14 106.125 112.847 107.366 111.055 107.366C109.25 107.366 107.97 106.125 107.97 104.345C107.97 103.654 108.162 103.04 108.508 102.553L111.388 98.2397H112.745L110.633 101.363C110.773 101.35 110.914 101.337 111.055 101.337ZM111.055 106.227C112.169 106.227 112.962 105.485 112.962 104.345C112.962 103.219 112.169 102.477 111.055 102.477C109.929 102.477 109.148 103.206 109.148 104.345C109.148 105.485 109.929 106.227 111.055 106.227ZM114.342 98.2397H119.936V99.3021L116.672 107.2H115.43L118.669 99.3661H114.342V98.2397ZM127.44 107.366C125.571 107.366 124.073 105.894 124.073 104C124.073 102.105 125.571 100.633 127.44 100.633C129.308 100.633 130.819 102.105 130.819 104C130.819 105.894 129.308 107.366 127.44 107.366ZM127.44 106.278C128.72 106.278 129.705 105.293 129.705 104C129.705 102.707 128.72 101.721 127.44 101.721C126.172 101.721 125.187 102.707 125.187 104C125.187 105.293 126.172 106.278 127.44 106.278ZM135.319 100.633C136.816 100.633 137.802 101.632 137.802 103.27V107.2H136.688V103.334C136.688 102.285 136.087 101.696 135.101 101.696C134.077 101.696 133.245 102.297 133.245 103.808V107.2H132.132V100.8H133.245V101.721C133.719 100.966 134.423 100.633 135.319 100.633ZM145.565 107.366C143.862 107.366 142.646 106.509 142.173 105.165L143.197 104.576C143.517 105.561 144.285 106.201 145.59 106.201C146.857 106.201 147.485 105.625 147.485 104.819C147.485 103.897 146.691 103.59 145.373 103.181C143.939 102.72 142.557 102.272 142.557 100.608C142.557 98.9949 143.875 98.0733 145.373 98.0733C146.845 98.0733 147.907 98.9053 148.406 100.032L147.408 100.608C147.088 99.8397 146.461 99.2253 145.373 99.2253C144.413 99.2253 143.747 99.7373 143.747 100.557C143.747 101.389 144.374 101.696 145.629 102.093C147.19 102.605 148.662 103.065 148.662 104.793C148.662 106.368 147.395 107.366 145.565 107.366ZM153.144 100.633C154.641 100.633 155.627 101.632 155.627 103.27V107.2H154.513V103.334C154.513 102.285 153.912 101.696 152.926 101.696C151.902 101.696 151.07 102.297 151.07 103.808V107.2H149.957V98.2397H151.07V101.721C151.544 100.966 152.248 100.633 153.144 100.633ZM160.19 107.366C158.321 107.366 156.823 105.894 156.823 104C156.823 102.105 158.321 100.633 160.19 100.633C162.058 100.633 163.569 102.105 163.569 104C163.569 105.894 162.058 107.366 160.19 107.366ZM160.19 106.278C161.47 106.278 162.455 105.293 162.455 104C162.455 102.707 161.47 101.721 160.19 101.721C158.922 101.721 157.937 102.707 157.937 104C157.937 105.293 158.922 106.278 160.19 106.278ZM168.414 100.633C170.194 100.633 171.653 102.105 171.653 104C171.653 105.894 170.194 107.366 168.414 107.366C167.326 107.366 166.507 106.88 165.995 106.099V109.76H164.882V100.8H165.995V101.901C166.507 101.12 167.326 100.633 168.414 100.633ZM168.274 106.291C169.554 106.291 170.539 105.305 170.539 104C170.539 102.694 169.554 101.709 168.274 101.709C166.981 101.709 165.995 102.694 165.995 104C165.995 105.305 166.981 106.291 168.274 106.291ZM176.514 100.633C178.294 100.633 179.753 102.105 179.753 104C179.753 105.894 178.294 107.366 176.514 107.366C175.426 107.366 174.607 106.88 174.095 106.099V109.76H172.982V100.8H174.095V101.901C174.607 101.12 175.426 100.633 176.514 100.633ZM176.374 106.291C177.654 106.291 178.639 105.305 178.639 104C178.639 102.694 177.654 101.709 176.374 101.709C175.081 101.709 174.095 102.694 174.095 104C174.095 105.305 175.081 106.291 176.374 106.291ZM181.645 99.6349C181.222 99.6349 180.89 99.3021 180.89 98.8925C180.89 98.4829 181.222 98.1373 181.645 98.1373C182.054 98.1373 182.387 98.4829 182.387 98.8925C182.387 99.3021 182.054 99.6349 181.645 99.6349ZM181.082 107.2V100.8H182.195V107.2H181.082ZM187.081 100.633C188.579 100.633 189.564 101.632 189.564 103.27V107.2H188.451V103.334C188.451 102.285 187.849 101.696 186.864 101.696C185.84 101.696 185.008 102.297 185.008 103.808V107.2H183.894V100.8H185.008V101.721C185.481 100.966 186.185 100.633 187.081 100.633ZM196.431 100.8H197.532V106.931C197.532 108.928 195.932 109.926 194.268 109.926C192.834 109.926 191.759 109.376 191.234 108.365L192.207 107.814C192.501 108.416 193.039 108.889 194.293 108.889C195.625 108.889 196.431 108.134 196.431 106.931V106.022C195.919 106.803 195.1 107.302 194.025 107.302C192.207 107.302 190.761 105.83 190.761 103.961C190.761 102.105 192.207 100.633 194.025 100.633C195.1 100.633 195.919 101.12 196.431 101.901V100.8ZM194.153 106.24C195.445 106.24 196.431 105.254 196.431 103.961C196.431 102.681 195.445 101.696 194.153 101.696C192.86 101.696 191.874 102.681 191.874 103.961C191.874 105.254 192.86 106.24 194.153 106.24Z" fill="#FBF3E6"/>
<rect opacity="0.6" x="42.3984" y="126.8" width="165.6" height="36.8" rx="9.6" fill="#C0723D"/>
<g opacity="0.6">
<path d="M102.639 143.737C104.431 143.737 105.723 144.966 105.723 146.745C105.723 148.524 104.431 149.766 102.639 149.766C100.834 149.766 99.5537 148.524 99.5537 146.745C99.5537 146.054 99.7457 145.44 100.091 144.953L102.971 140.64H104.328L102.216 143.763C102.357 143.75 102.498 143.737 102.639 143.737ZM102.639 148.627C103.752 148.627 104.546 147.884 104.546 146.745C104.546 145.619 103.752 144.876 102.639 144.876C101.512 144.876 100.731 145.606 100.731 146.745C100.731 147.884 101.512 148.627 102.639 148.627ZM108.342 148.281L107.51 151.392H106.55L107.062 148.281H108.342ZM109.531 149.6V148.627L112.693 145.401C113.397 144.697 113.96 143.98 113.96 143.225C113.96 142.176 113.205 141.625 112.373 141.625C111.554 141.625 110.914 142.022 110.53 142.828L109.531 142.24C110.107 141.049 111.195 140.473 112.36 140.473C113.755 140.473 115.15 141.446 115.15 143.212C115.15 144.326 114.434 145.286 113.55 146.169L111.259 148.448H115.317V149.6H109.531ZM119.74 144.313C121.033 144.556 122.07 145.465 122.07 146.95C122.07 148.768 120.611 149.766 118.998 149.766C117.679 149.766 116.515 149.152 116.054 147.948L117.052 147.36C117.321 148.192 118.025 148.601 118.998 148.601C120.073 148.601 120.879 148.012 120.879 146.95C120.879 145.875 120.073 145.286 118.998 145.286H118.691L118.217 144.556L120.291 141.753H116.31V140.64H121.686V141.689L119.74 144.313ZM125.939 144.134C127.539 144.134 128.96 145.12 128.96 146.95C128.96 148.768 127.5 149.766 125.888 149.766C124.569 149.766 123.366 149.126 122.931 147.846L123.942 147.27C124.185 148.153 124.915 148.601 125.888 148.601C126.976 148.601 127.782 148.012 127.782 146.95C127.782 145.875 126.976 145.286 125.913 145.286H123.379L123.712 140.64H128.614V141.753H124.787L124.633 144.134H125.939ZM136.486 149.766C134.617 149.766 133.119 148.294 133.119 146.4C133.119 144.505 134.617 143.033 136.486 143.033C138.354 143.033 139.865 144.505 139.865 146.4C139.865 148.294 138.354 149.766 136.486 149.766ZM136.486 148.678C137.766 148.678 138.751 147.692 138.751 146.4C138.751 145.107 137.766 144.121 136.486 144.121C135.218 144.121 134.233 145.107 134.233 146.4C134.233 147.692 135.218 148.678 136.486 148.678ZM144.365 143.033C145.862 143.033 146.848 144.032 146.848 145.67V149.6H145.734V145.734C145.734 144.684 145.133 144.096 144.147 144.096C143.123 144.096 142.291 144.697 142.291 146.208V149.6H141.178V143.2H142.291V144.121C142.765 143.366 143.469 143.033 144.365 143.033ZM156.876 141.766H152.908V144.672H156.71V145.798H152.908V149.6H151.718V140.64H156.876V141.766ZM161.211 149.766C159.342 149.766 157.844 148.294 157.844 146.4C157.844 144.505 159.342 143.033 161.211 143.033C163.079 143.033 164.59 144.505 164.59 146.4C164.59 148.294 163.079 149.766 161.211 149.766ZM161.211 148.678C162.491 148.678 163.476 147.692 163.476 146.4C163.476 145.107 162.491 144.121 161.211 144.121C159.943 144.121 158.958 145.107 158.958 146.4C158.958 147.692 159.943 148.678 161.211 148.678ZM168.911 149.766C167.042 149.766 165.544 148.294 165.544 146.4C165.544 144.505 167.042 143.033 168.911 143.033C170.779 143.033 172.29 144.505 172.29 146.4C172.29 148.294 170.779 149.766 168.911 149.766ZM168.911 148.678C170.191 148.678 171.176 147.692 171.176 146.4C171.176 145.107 170.191 144.121 168.911 144.121C167.643 144.121 166.658 145.107 166.658 146.4C166.658 147.692 167.643 148.678 168.911 148.678ZM178.902 140.64H180.015V149.6H178.902V148.499C178.39 149.28 177.571 149.766 176.483 149.766C174.703 149.766 173.244 148.294 173.244 146.4C173.244 144.505 174.703 143.033 176.483 143.033C177.571 143.033 178.39 143.52 178.902 144.3V140.64ZM176.623 148.691C177.916 148.691 178.902 147.705 178.902 146.4C178.902 145.094 177.916 144.108 176.623 144.108C175.343 144.108 174.358 145.094 174.358 146.4C174.358 147.705 175.343 148.691 176.623 148.691Z" fill="#FBF3E6"/>
</g>
<g opacity="0.6">
<path d="M69.2749 144.141H81.0451C81.1696 144.141 81.2885 144.088 81.372 143.995C81.4551 143.902 81.495 143.778 81.4812 143.654C81.1252 140.43 78.4078 138 75.1599 138C71.912 138 69.1946 140.431 68.8386 143.654C68.8248 143.778 68.8648 143.902 68.9479 143.995C69.0311 144.088 69.1498 144.141 69.2747 144.141H69.2749ZM75.16 138.877C77.7937 138.877 80.023 140.731 80.5334 143.264H69.7865C70.2971 140.731 72.5263 138.877 75.16 138.877Z" fill="#FBF3E6" stroke="#FBF3E6" stroke-width="0.538958"/>
<path d="M77.9531 145.833C77.7171 146.022 77.5611 146.147 77.2027 146.147C76.845 146.147 76.6892 146.022 76.4534 145.833C76.1719 145.608 75.8217 145.328 75.1559 145.328C74.4902 145.328 74.1398 145.608 73.8582 145.833C73.6222 146.022 73.4664 146.147 73.1085 146.147C72.7508 146.147 72.595 146.022 72.3592 145.833C72.0775 145.608 71.7272 145.328 71.0617 145.328C70.3962 145.328 70.0461 145.608 69.7645 145.833C69.5289 146.022 69.3732 146.146 69.0156 146.146V147.024C69.6811 147.024 70.0312 146.744 70.3128 146.518C70.5486 146.33 70.7041 146.205 71.062 146.205C71.4197 146.205 71.5755 146.33 71.8113 146.518C72.0929 146.744 72.4432 147.024 73.1088 147.024C73.7745 147.024 74.125 146.744 74.4067 146.518C74.6427 146.33 74.7985 146.205 75.1564 146.205C75.5141 146.205 75.6699 146.33 75.9059 146.518C76.1873 146.744 76.5376 147.024 77.2031 147.024C77.869 147.024 78.2197 146.744 78.5014 146.518C78.7372 146.33 78.8932 146.205 79.2515 146.205C79.6099 146.205 79.7659 146.33 80.0019 146.518C80.2835 146.744 80.6341 147.024 81.2997 147.024V146.146C80.9415 146.146 80.7858 146.022 80.5497 145.833C80.2681 145.608 79.9173 145.328 79.2514 145.328C78.5852 145.328 78.2347 145.608 77.9531 145.833H77.9531Z" fill="#FBF3E6" stroke="#FBF3E6" stroke-width="0.538958"/>
<path d="M81.0805 148.09H69.2356C68.9934 148.09 68.7969 148.287 68.7969 148.529V149.845C68.7969 150.813 69.5841 151.6 70.5517 151.6H79.7644C80.732 151.6 81.5192 150.813 81.5192 149.845V148.529C81.5192 148.287 81.3227 148.09 81.0805 148.09ZM80.6418 149.845C80.6418 150.329 80.2483 150.723 79.7644 150.723H70.5517C70.0678 150.723 69.6743 150.329 69.6743 149.845V148.968H80.6418V149.845Z" fill="#FBF3E6" stroke="#FBF3E6" stroke-width="0.538958"/>
</g>
<g opacity="0.2">
<rect opacity="0.6" x="64.7969" y="169.2" width="120" height="36.8" rx="9.6" fill="#C0723D"/>
</g>
<g opacity="0.3">
<g opacity="0.6">
<path d="M101.633 188.814V189.691H100.776V191.031H99.8392V189.691H96.2418V188.814L98.7711 183.977H99.7787L97.2495 188.814H99.8392V186.819H100.776V188.814H101.633ZM103.82 189.993L103.165 192.441H102.41L102.813 189.993H103.82ZM107.104 186.416C108.515 186.416 109.533 187.383 109.533 188.784C109.533 190.184 108.515 191.162 107.104 191.162C105.684 191.162 104.676 190.184 104.676 188.784C104.676 188.24 104.827 187.756 105.099 187.373L107.366 183.977H108.435L106.772 186.436C106.883 186.426 106.994 186.416 107.104 186.416ZM107.104 190.265C107.981 190.265 108.606 189.68 108.606 188.784C108.606 187.897 107.981 187.312 107.104 187.312C106.218 187.312 105.603 187.887 105.603 188.784C105.603 189.68 106.218 190.265 107.104 190.265ZM109.692 183.977H114.096V184.814L111.526 191.031H110.549L113.098 184.864H109.692V183.977ZM116.866 186.728C118.126 186.728 119.245 187.504 119.245 188.945C119.245 190.376 118.096 191.162 116.826 191.162C115.788 191.162 114.841 190.658 114.498 189.65L115.294 189.197C115.486 189.892 116.06 190.245 116.826 190.245C117.683 190.245 118.317 189.781 118.317 188.945C118.317 188.098 117.683 187.635 116.846 187.635H114.851L115.113 183.977H118.972V184.854H115.96L115.839 186.728H116.866ZM125.169 191.162C123.698 191.162 122.519 190.003 122.519 188.512C122.519 187.02 123.698 185.861 125.169 185.861C126.64 185.861 127.829 187.02 127.829 188.512C127.829 190.003 126.64 191.162 125.169 191.162ZM125.169 190.305C126.177 190.305 126.953 189.529 126.953 188.512C126.953 187.494 126.177 186.718 125.169 186.718C124.172 186.718 123.396 187.494 123.396 188.512C123.396 189.529 124.172 190.305 125.169 190.305ZM131.372 185.861C132.551 185.861 133.327 186.647 133.327 187.937V191.031H132.45V187.988C132.45 187.161 131.977 186.698 131.201 186.698C130.395 186.698 129.74 187.171 129.74 188.36V191.031H128.863V185.992H129.74V186.718C130.112 186.123 130.667 185.861 131.372 185.861ZM141.524 183.977H142.451V191.031H141.524V187.857H138.098V191.031H137.161V183.977H138.098V186.97H141.524V183.977ZM146.238 191.162C144.766 191.162 143.587 190.003 143.587 188.512C143.587 187.02 144.766 185.861 146.238 185.861C147.709 185.861 148.898 187.02 148.898 188.512C148.898 190.003 147.709 191.162 146.238 191.162ZM146.238 190.305C147.245 190.305 148.021 189.529 148.021 188.512C148.021 187.494 147.245 186.718 146.238 186.718C145.24 186.718 144.464 187.494 144.464 188.512C144.464 189.529 145.24 190.305 146.238 190.305ZM153.408 185.992H154.284V191.031H153.408V190.305C153.035 190.9 152.481 191.162 151.775 191.162C150.596 191.162 149.82 190.376 149.82 189.086V185.992H150.697V189.036C150.697 189.862 151.171 190.325 151.947 190.325C152.753 190.325 153.408 189.852 153.408 188.663V185.992ZM156.365 187.353C156.365 188.431 159.186 187.796 159.186 189.65C159.186 190.587 158.38 191.162 157.302 191.162C156.294 191.162 155.589 190.678 155.297 189.983L156.053 189.55C156.214 190.033 156.677 190.335 157.302 190.335C157.836 190.335 158.3 190.144 158.3 189.65C158.3 188.572 155.478 189.187 155.478 187.363C155.478 186.476 156.244 185.861 157.262 185.861C158.088 185.861 158.753 186.254 159.076 186.909L158.34 187.323C158.149 186.869 157.705 186.678 157.262 186.678C156.808 186.678 156.365 186.899 156.365 187.353ZM160.619 185.075C160.286 185.075 160.024 184.814 160.024 184.491C160.024 184.169 160.286 183.897 160.619 183.897C160.941 183.897 161.203 184.169 161.203 184.491C161.203 184.814 160.941 185.075 160.619 185.075ZM160.175 191.031V185.992H161.052V191.031H160.175ZM164.898 185.861C166.077 185.861 166.853 186.647 166.853 187.937V191.031H165.977V187.988C165.977 187.161 165.503 186.698 164.727 186.698C163.921 186.698 163.266 187.171 163.266 188.36V191.031H162.389V185.992H163.266V186.718C163.639 186.123 164.193 185.861 164.898 185.861ZM172.259 185.992H173.125V190.819C173.125 192.391 171.866 193.177 170.556 193.177C169.427 193.177 168.581 192.744 168.168 191.948L168.934 191.514C169.165 191.988 169.589 192.361 170.576 192.361C171.624 192.361 172.259 191.766 172.259 190.819V190.104C171.856 190.718 171.211 191.111 170.364 191.111C168.934 191.111 167.795 189.953 167.795 188.481C167.795 187.02 168.934 185.861 170.364 185.861C171.211 185.861 171.856 186.244 172.259 186.859V185.992ZM170.465 190.275C171.483 190.275 172.259 189.499 172.259 188.481C172.259 187.474 171.483 186.698 170.465 186.698C169.447 186.698 168.672 187.474 168.672 188.481C168.672 189.499 169.447 190.275 170.465 190.275Z" fill="#FBF3E6"/>
</g>
<g opacity="0.6">
<path fill-rule="evenodd" clip-rule="evenodd" d="M79.4483 185.969L82.9626 182.455L86.4768 185.969H86.4751V191.824H79.4484V185.969H79.4483ZM78.2773 187.14L77.4134 188.004L76.5859 187.176L82.1352 181.627C82.5922 181.17 83.333 181.17 83.79 181.627L89.3393 187.176L88.5118 188.004L87.6462 187.138V191.824C87.6462 192.471 87.1218 192.995 86.4751 192.995H79.4484C78.8017 192.995 78.2773 192.471 78.2773 191.824V187.14Z" fill="#FBF3E6"/>
<path d="M82.7428 187.951H81.3281L83.5144 190.495L83.8858 190.066L82.5713 188.552H82.757C83.2428 188.537 83.6429 188.166 83.7573 187.637H84.4288V187.051H83.7573C83.7286 186.937 83.6858 186.823 83.6429 186.723H84.4289V186.137H81.5996V186.723H82.7284C82.9284 186.723 83.0999 186.851 83.1999 187.051H81.5996V187.637H83.1999C83.1142 187.823 82.9285 187.951 82.7427 187.951H82.7428Z" fill="#FBF3E6"/>
</g>
</g>
</g>
</g>
<defs>
<linearGradient id="paint0_linear_10200_14370" x1="122.414" y1="-1.7318e-08" x2="122" y2="369.5" gradientUnits="userSpaceOnUse">
<stop stop-color="#331D0C"/>
<stop offset="1" stop-color="#331D0C" stop-opacity="0"/>
</linearGradient>
<linearGradient id="paint1_linear_10200_14370" x1="141.44" y1="-89.1878" x2="121.777" y2="429.254" gradientUnits="userSpaceOnUse">
<stop stop-color="#F1CE9B"/>
<stop offset="0.816437" stop-color="#F1CE9B" stop-opacity="0"/>
</linearGradient>
<linearGradient id="paint2_linear_10200_14370" x1="122.4" y1="13.1279" x2="122.4" y2="339.5" gradientUnits="userSpaceOnUse">
<stop stop-color="#1F0E02"/>
<stop offset="1" stop-color="#331D0C" stop-opacity="0"/>
</linearGradient>
<linearGradient id="paint3_linear_10200_14370" x1="140.181" y1="-70.1978" x2="123.987" y2="356.886" gradientUnits="userSpaceOnUse">
<stop stop-color="#F1CE9B"/>
<stop offset="1" stop-color="#F1CE9B" stop-opacity="0"/>
</linearGradient>
<clipPath id="clip0_10200_14370">
<rect width="245" height="394" fill="white"/>
</clipPath>
<clipPath id="clip1_10200_14370">
<rect width="245" height="394" fill="white"/>
</clipPath>
<clipPath id="clip2_10200_14370">
<rect width="207" height="127" fill="white" transform="translate(21 81)"/>
</clipPath>
</defs>
</svg>
