<svg xmlns="http://www.w3.org/2000/svg" width="98" height="42" fill="none"><g fill="#fff" stroke="#fff" stroke-miterlimit="10" stroke-width=".0491" clip-path="url(#a)"><path d="M42.5404 13.5399v15.3804H40.513v-3.0197c-1.2909 2.0647-3.4728 3.3835-6.2092 3.3835-4.3365 0-7.9366-3.5108-7.9366-8.0585 0-4.5478 3.6001-8.0586 7.9366-8.0586 2.7364 0 4.9183 1.3188 6.2092 3.3835v-3.0197h2.0274v.0091Zm-2.0274 7.6948c0-3.4199-2.6455-6.094-6.0547-6.094-3.4092 0-6.0547 2.6741-6.0547 6.094 0 3.4198 2.6455 6.0848 6.0547 6.0848 3.4092 0 6.0547-2.6741 6.0547-6.0848ZM60.6068 13.5396v14.771c0 4.6751-3.7547 7.1399-7.7184 7.1399-3.5365 0-6.0911-1.3552-7.2911-3.7564l1.7818-1.0187c.7728 1.5644 2.1819 2.8014 5.5093 2.8014 3.5637 0 5.691-2.0283 5.691-5.1662v-2.4012c-1.2909 2.0647-3.4728 3.3835-6.2092 3.3835-4.3365 0-7.9366-3.5108-7.9366-8.0586 0-4.5477 3.6001-8.0585 7.9366-8.0585 2.7364 0 4.9183 1.3188 6.2092 3.3835v-3.0197h2.0274Zm-2.0274 7.6947c0-3.4198-2.6455-6.0939-6.0547-6.0939-3.4092 0-6.0547 2.6741-6.0547 6.0939 0 3.4199 2.6455 6.0849 6.0547 6.0849 3.4092 0 6.0547-2.6741 6.0547-6.0849ZM76.699 19.4789V28.92h-2.0273v-9.4411c0-2.7377-1.5091-4.3385-4.1819-4.3385-2.6728 0-4.982 1.6008-4.982 5.721V28.92h-2.0273V13.5396h2.0273v2.4012c1.2-1.9373 2.9819-2.765 5.1638-2.765 3.7546 0 6.0274 2.4648 6.0274 6.3031ZM79.5781 13.1758h2.0274v15.3804h-2.0274V13.1758ZM93.418 13.1758h2.0273v15.3804H93.418V13.1758ZM91.1696 8.6273V6.6535c-4.1547-.3092-6.4548 1.91-6.4548 5.903v15.9989h2.0274V15.1396h4.4274V13.175h-4.4274v-.6094c0-2.956 1.4455-4.184 4.4274-3.9383ZM18.708 12.9482c-1.9819 0-3.8638.9187-5.0093 2.8833 0 0 0-.0091-.0091-.0182 0 0 0 .0091-.0091.0182-1.1454-1.9646-3.0273-2.8833-5.0092-2.8833-3.391 0-5.7729 2.374-5.7729 6.3305v9.8685H4.935v-9.8685c0-2.8196 1.5727-4.3022 3.7728-4.3022 2.3819 0 3.991 1.4644 3.991 5.3845l-.0182 8.7862h1.9819l.0727-8.7953c0-3.9201 1.5637-5.3845 3.9456-5.3845 2.191 0 3.7728 1.4826 3.7728 4.3022v9.8685h2.0364v-9.8594c0-3.9565-2.3818-6.3305-5.7728-6.3305h-.0091Z"/></g><defs><clipPath id="a"><path fill="#fff" d="M2.5781 6.3076h93.0385v29.9615H2.5781z"/></clipPath></defs></svg>