<svg width="16" height="16" viewBox="0 0 16 16" fill="none" xmlns="http://www.w3.org/2000/svg">
<g id="arrow-right">
<path id="Union" d="M9.51321 4.13832C9.31346 3.94765 8.99696 3.95501 8.80629 4.15476C8.61562 4.35451 8.62298 4.67101 8.82273 4.86168L11.5867 7.5H3.16797C2.89183 7.5 2.66797 7.72386 2.66797 8C2.66797 8.27614 2.89183 8.5 3.16797 8.5H11.5867L8.82273 11.1383C8.62298 11.329 8.61562 11.6455 8.80629 11.8452C8.99696 12.045 9.31346 12.0523 9.51321 11.8617L13.1799 8.36168C13.2787 8.26733 13.3346 8.13664 13.3346 8C13.3346 7.86336 13.2787 7.73267 13.1799 7.63832L9.51321 4.13832Z" fill="#F6E1C1"/>
</g>
</svg>
