<svg width="16" height="16" fill="none" xmlns="http://www.w3.org/2000/svg"><path fill-rule="evenodd" clip-rule="evenodd" d="M2 3.5a3.5 3.5 0 1 1 7 0 3.5 3.5 0 0 1-7 0Zm3.5-2a2 2 0 1 0 0 4 2 2 0 0 0 0-4ZM5.5 9.25c-1.884 0-3.17.789-4.006 1.819-.811 1-1.176 2.19-1.343 3.01C-.07 15.17.821 16 1.783 16h7.436c.962 0 1.853-.83 1.631-1.92-.166-.82-.53-2.012-1.343-3.011-.836-1.03-2.12-1.819-4.006-1.819Zm-3.879 5.128c.144-.707.442-1.63 1.038-2.364.57-.702 1.438-1.264 2.842-1.264 1.404 0 2.272.562 2.842 1.264.596.733.894 1.657 1.037 2.364a.078.078 0 0 1 0 .038.074.074 0 0 1-.016.03.193.193 0 0 1-.145.054H1.783a.193.193 0 0 1-.145-.055.074.074 0 0 1-.017-.029.078.078 0 0 1 0-.038Z" fill="#00B899"/><path d="M11.75 9.25a.75.75 0 1 0 0 1.5c.732 0 1.26.36 1.676.95.432.613.704 1.425.867 2.159a.468.468 0 0 1-.111.429.671.671 0 0 1-.504.212h-.927a.75.75 0 1 0 0 1.5h.927c1.252 0 2.386-1.084 2.079-2.467-.18-.814-.507-1.85-1.106-2.698-.614-.87-1.553-1.585-2.9-1.585ZM10.75 0a.75.75 0 1 0 0 1.5c1.014 0 1.75.798 1.75 2s-.736 2-1.75 2a.75.75 0 1 0 0 1.5C12.776 7 14 5.335 14 3.5S12.776 0 10.75 0Z" fill="#00B899"/></svg>