<svg width="28" height="28" viewBox="0 0 28 28" fill="none" xmlns="http://www.w3.org/2000/svg">
<circle cx="14" cy="14" r="13.5" fill="url(#paint0_linear_6118_2401)" stroke="url(#paint1_linear_6118_2401)"/>
<path fill-rule="evenodd" clip-rule="evenodd" d="M16.1515 10.8485C16.4078 11.1047 16.4078 11.5203 16.1515 11.7765L11.7765 16.1515C11.5203 16.4078 11.1047 16.4078 10.8485 16.1515C10.5922 15.8953 10.5922 15.4797 10.8485 15.2235L15.2235 10.8485C15.4797 10.5922 15.8953 10.5922 16.1515 10.8485Z" fill="#00B899"/>
<path d="M11.75 11.3125C11.5084 11.3125 11.3125 11.5084 11.3125 11.75C11.3125 11.9916 11.5084 12.1875 11.75 12.1875C11.9916 12.1875 12.1875 11.9916 12.1875 11.75C12.1875 11.5084 11.9916 11.3125 11.75 11.3125Z" fill="#00B899"/>
<path fill-rule="evenodd" clip-rule="evenodd" d="M12.625 11.75C12.625 12.2332 12.2332 12.625 11.75 12.625C11.2668 12.625 10.875 12.2332 10.875 11.75C10.875 11.2668 11.2668 10.875 11.75 10.875C12.2332 10.875 12.625 11.2668 12.625 11.75Z" fill="#00B899"/>
<path d="M15.25 15.6875C15.4916 15.6875 15.6875 15.4916 15.6875 15.25C15.6875 15.0084 15.4916 14.8125 15.25 14.8125C15.0084 14.8125 14.8125 15.0084 14.8125 15.25C14.8125 15.4916 15.0084 15.6875 15.25 15.6875Z" fill="#00B899"/>
<path fill-rule="evenodd" clip-rule="evenodd" d="M14.375 15.25C14.375 14.7668 14.7668 14.375 15.25 14.375C15.7332 14.375 16.125 14.7668 16.125 15.25C16.125 15.7332 15.7332 16.125 15.25 16.125C14.7668 16.125 14.375 15.7332 14.375 15.25Z" fill="#00B899"/>
<path fill-rule="evenodd" clip-rule="evenodd" d="M13.5 7.15625C13.3609 7.15625 13.2233 7.18374 13.0949 7.23713C12.9665 7.29053 12.8499 7.36878 12.7518 7.46738L12.7505 7.46869L12.206 8.01321L12.2047 8.01451C11.7614 8.45532 11.1618 8.70291 10.5366 8.70327H9.75837C9.47854 8.70327 9.21017 8.81443 9.0123 9.0123C8.81443 9.21017 8.70327 9.47854 8.70327 9.75837V10.5363C8.70291 11.1614 8.45532 11.7614 8.01451 12.2047L8.01321 12.206L7.46869 12.7505L7.46738 12.7518C7.36878 12.8499 7.29053 12.9665 7.23713 13.0949C7.18374 13.2233 7.15625 13.3609 7.15625 13.5C7.15625 13.6391 7.18374 13.7767 7.23713 13.9051C7.29053 14.0335 7.36878 14.1501 7.46738 14.2482L7.46869 14.2495L8.01451 14.7953C8.45532 15.2386 8.70291 15.8382 8.70327 16.4634V17.2416C8.70327 17.5215 8.81443 17.7898 9.0123 17.9877C9.21017 18.1856 9.47854 18.2967 9.75837 18.2967H10.5363C11.1614 18.2971 11.7614 18.5447 12.2047 18.9855L12.206 18.9868L12.7518 19.5326C12.8499 19.6312 12.9665 19.7095 13.0949 19.7629C13.2233 19.8163 13.3609 19.8438 13.5 19.8438C13.6391 19.8438 13.7767 19.8163 13.9051 19.7629C14.0335 19.7095 14.1501 19.6312 14.2482 19.5326L14.2495 19.5313L14.794 18.9868L14.7953 18.9855C15.2386 18.5447 15.8382 18.2971 16.4634 18.2967H17.2416C17.5215 18.2967 17.7898 18.1856 17.9877 17.9877C18.1856 17.7898 18.2967 17.5215 18.2967 17.2416V16.4637C18.2971 15.8386 18.5447 15.2386 18.9855 14.7953L18.9868 14.794L19.5313 14.2495L19.5326 14.2482C19.6312 14.1501 19.7095 14.0335 19.7629 13.9051C19.8163 13.7767 19.8438 13.6391 19.8438 13.5C19.8438 13.3609 19.8163 13.2233 19.7629 13.0949C19.7095 12.9665 19.6312 12.8499 19.5326 12.7518L19.5313 12.7505L18.9868 12.206L18.9855 12.2047C18.5447 11.7614 18.2971 11.1618 18.2967 10.5366V9.75837C18.2967 9.47854 18.1856 9.21017 17.9877 9.0123C17.7898 8.81443 17.5215 8.70327 17.2416 8.70327H16.4637C15.8386 8.70291 15.2386 8.45532 14.7953 8.01451L14.794 8.01321L14.2495 7.46869L14.2482 7.46738C14.1501 7.36878 14.0335 7.29053 13.9051 7.23713C13.7767 7.18374 13.6391 7.15625 13.5 7.15625ZM12.5909 6.02525C12.879 5.90543 13.188 5.84375 13.5 5.84375C13.812 5.84375 14.121 5.90543 14.4091 6.02525C14.697 6.14495 14.9583 6.32032 15.1782 6.54128C15.1784 6.54149 15.1786 6.5417 15.1788 6.54191L15.7208 7.08383C15.7206 7.08365 15.7209 7.084 15.7208 7.08383C15.9182 7.27991 16.1857 7.39056 16.464 7.39077C16.4639 7.39077 16.464 7.39077 16.464 7.39077H17.2416C17.8696 7.39077 18.4718 7.64021 18.9158 8.08422C19.3598 8.52823 19.6092 9.13044 19.6092 9.75837V10.5359C19.6094 10.8142 19.7195 11.0811 19.9155 11.2786C19.9157 11.2788 19.916 11.279 19.9162 11.2792L20.4581 11.8212C20.4583 11.8214 20.4586 11.8216 20.4588 11.8219C20.6797 12.0418 20.8551 12.3031 20.9748 12.5909C21.0946 12.879 21.1562 13.188 21.1562 13.5C21.1562 13.812 21.0946 14.121 20.9748 14.4091C20.8551 14.6969 20.6797 14.9583 20.4587 15.1782C20.4585 15.1784 20.4583 15.1786 20.4581 15.1788L19.9162 15.7208C19.916 15.7209 19.9163 15.7206 19.9162 15.7208C19.7201 15.9183 19.6094 16.1858 19.6092 16.4641V17.2416C19.6092 17.8696 19.3598 18.4718 18.9158 18.9158C18.4718 19.3598 17.8696 19.6092 17.2416 19.6092H16.4641C16.1858 19.6094 15.9188 19.7195 15.7213 19.9156C15.7211 19.9158 15.7215 19.9155 15.7213 19.9156L15.1788 20.4581C15.1786 20.4583 15.1784 20.4585 15.1782 20.4587C14.9583 20.6797 14.6969 20.8551 14.4091 20.9748C14.121 21.0946 13.812 21.1562 13.5 21.1562C13.188 21.1562 12.879 21.0946 12.5909 20.9748C12.3031 20.8551 12.0418 20.6797 11.8219 20.4588C11.8216 20.4586 11.8214 20.4583 11.8212 20.4581L11.2792 19.9162C11.279 19.916 11.2788 19.9157 11.2786 19.9155C11.0811 19.7195 10.8142 19.6094 10.5359 19.6092H9.75837C9.13044 19.6092 8.52823 19.3598 8.08422 18.9158C7.64021 18.4718 7.39077 17.8696 7.39077 17.2416L7.39077 16.4641C7.39077 16.4641 7.39077 16.4642 7.39077 16.4641C7.39056 16.1858 7.28043 15.9187 7.08435 15.7213C7.08417 15.7211 7.08452 15.7215 7.08435 15.7213L6.54191 15.1788C6.5417 15.1786 6.54149 15.1784 6.54128 15.1782C6.32032 14.9583 6.14495 14.697 6.02525 14.4091C5.90543 14.121 5.84375 13.812 5.84375 13.5C5.84375 13.188 5.90543 12.879 6.02525 12.5909C6.14495 12.3031 6.32031 12.0417 6.54127 11.8218C6.54148 11.8216 6.5417 11.8214 6.54191 11.8212L7.08383 11.2792C7.08363 11.2794 7.08402 11.279 7.08383 11.2792C7.27987 11.0818 7.39056 10.8143 7.39077 10.536C7.39077 10.536 7.39077 10.5361 7.39077 10.536V9.75837C7.39077 9.13044 7.64021 8.52823 8.08422 8.08422C8.52823 7.64021 9.13044 7.39077 9.75837 7.39077L10.5359 7.39077C10.5358 7.39077 10.5359 7.39077 10.5359 7.39077C10.8141 7.39056 11.0812 7.28045 11.2787 7.08441C11.2785 7.08461 11.2789 7.08422 11.2787 7.08441L11.8212 6.54191C11.8214 6.5417 11.8216 6.54148 11.8218 6.54127C12.0417 6.32031 12.3031 6.14495 12.5909 6.02525Z" fill="#00B899"/>
<defs>
<linearGradient id="paint0_linear_6118_2401" x1="14" y1="0" x2="14" y2="37.9167" gradientUnits="userSpaceOnUse">
<stop stop-color="#18191B"/>
<stop offset="1" stop-color="#646464"/>
</linearGradient>
<linearGradient id="paint1_linear_6118_2401" x1="14" y1="0" x2="14" y2="28" gradientUnits="userSpaceOnUse">
<stop stop-color="#A4A4A4"/>
<stop offset="1" stop-color="#111317"/>
</linearGradient>
</defs>
</svg>
