<svg width="102" height="65" viewBox="0 0 102 65" fill="none" xmlns="http://www.w3.org/2000/svg">
<path d="M101.395 0.533088V7.73979C95.6246 7.98866 90.4989 9.82078 86.6411 13.9404C84.4575 16.2703 82.9133 19.1614 80.9085 22.0526C83.1029 22.7409 84.6472 23.1381 86.1209 23.7047C96.8491 27.8349 102.365 38.8858 99.0435 49.5397C95.695 60.2677 84.555 66.5689 73.3609 64.059C62.4647 61.6179 55.4155 51.1441 56.7918 40.1567C58.8453 23.7047 67.417 11.8753 82.4257 4.39855C88.0878 1.57623 96.5565 -0.0917395 101.406 0.533088H101.395Z" fill="#57595D"/>
<path d="M45.1271 0V7.67267C35.3688 8.45106 28.6447 13.1055 25.4209 21.5618C29.2082 23.6111 33.1744 25.0513 36.2303 27.5507C45.1867 34.8844 46.2216 47.4445 39.0695 56.531C32.3346 65.088 19.5474 67.2643 10.1792 61.1431C3.00003 56.4516 -0.229265 49.6208 0.502202 41.191C2.22521 21.2124 15.7601 5.72935 35.3255 1.37674C38.4356 0.683074 41.6594 0.476563 45.1325 0H45.1271Z" fill="#57595D"/>
</svg>
