<svg width="24" height="18" viewBox="0 0 24 18" fill="none" xmlns="http://www.w3.org/2000/svg">
<path d="M15.4013 0.311227C14.9519 -0.11778 14.2397 -0.101219 13.8107 0.348217C13.3817 0.797652 13.3983 1.50977 13.8477 1.93878L20.0666 7.875H1.12451C0.503191 7.875 -0.000488281 8.37868 -0.000488281 9C-0.000488281 9.62132 0.503191 10.125 1.12451 10.125H20.0666L13.8477 16.0612C13.3983 16.4902 13.3817 17.2024 13.8107 17.6518C14.2397 18.1012 14.9519 18.1178 15.4013 17.6888L23.6513 9.81378C23.8737 9.60149 23.9995 9.30744 23.9995 9C23.9995 8.69256 23.8737 8.39851 23.6513 8.18623L15.4013 0.311227Z" fill="#F6F9FD"/>
</svg>
