<svg width="17" height="16" fill="none" xmlns="http://www.w3.org/2000/svg"><path d="M5.899 4.514a.493.493 0 0 1 .367-.158h4.519c.137 0 .254.038.335.127.079.088.11.21.11.348 0 .13-.047.242-.121.335l-.005.007a.437.437 0 0 1-.32.134h-.993c.092.124.167.264.224.411a2.4 2.4 0 0 1 .16.598h.635c.137 0 .254.038.335.127.08.088.11.21.11.348 0 .13-.046.242-.12.335a.403.403 0 0 1-.325.154h-.65a2.38 2.38 0 0 1-.74 1.362c-.43.408-1.04.598-1.843.598h-.066l2.303 2.312a.682.682 0 0 1 .157.195.494.494 0 0 1 .063.258.493.493 0 0 1-.157.386.533.533 0 0 1-.365.142h-.013c-.171 0-.333-.082-.484-.24L6.07 9.327a3.272 3.272 0 0 0-.054-.066 1.662 1.662 0 0 1-.127-.166.603.603 0 0 1-.093-.357c0-.182.06-.324.165-.435l.004-.004a.597.597 0 0 1 .43-.157h1.17c.423 0 .748-.078.996-.239.22-.142.373-.341.446-.61H6.253a.403.403 0 0 1-.324-.153.53.53 0 0 1-.12-.336.48.48 0 0 1 .126-.34.436.436 0 0 1 .318-.135h2.74a1.108 1.108 0 0 0-.4-.614l-.003-.002c-.21-.17-.482-.26-.822-.26H6.266a.493.493 0 0 1-.37-.16.533.533 0 0 1-.152-.382c0-.148.043-.295.155-.397Z" fill="#00B899"/><path fill-rule="evenodd" clip-rule="evenodd" d="M8.5 0a8 8 0 1 0 0 16 8 8 0 0 0 0-16ZM2 8a6.5 6.5 0 1 1 13 0A6.5 6.5 0 0 1 2 8Z" fill="#00B899"/></svg>