<svg xmlns="http://www.w3.org/2000/svg" width="59" height="20" fill="none"><g fill="#F6F9FD" clip-path="url(#a)"><path d="M27.1284 13.1099v-3.94c0-.59-.1002-1.08-.3905-1.58-.3905-.79-1.0813-1.08-2.0725-1.08h-.1001c-1.3816 0-2.2727.89-2.563 2.27-.1001.49-.1001.99-.1001 1.48v4.31c0 .52-.4205.94-.9412.94a.9395.9395 0 0 1-.9411-.94v-5.39c0-.3 0-.69-.1001-.99-.3003-1.08-1.0813-1.77-2.2727-1.77h-.1001c-1.2815 0-2.0725.89-2.1726 2.27v5.86c0 .52-.4205.94-.9411.94a.9395.9395 0 0 1-.9411-.94v-5.96c0-1.18.3905-2.07.9912-2.76.6908-.69 1.5818-1.08 2.7632-1.08h.2003c.891 0 1.5819.2 2.1726.59.3904.2.6908.49.9911.89l.3905.69.4906-.69c.3003-.49.6908-.79 1.0813-.99.6908-.39 1.4817-.59 2.2727-.59.3904 0 .6908 0 1.0812.1.9912.2 1.682.69 2.2727 1.58.3905.59.5907 1.28.5907 1.87v6.43c0 .46-.3804.84-.841.84-.4605 0-.841-.38-.841-.84v-1.51h.0201v-.01ZM7.8959 12.6104c0 1.98-1.702 3.19-3.9848 3.19-1.682 0-2.9735-.64-3.7344-1.63-.3204-.42-.1902-1.03.2703-1.29l.05-.03c.3905-.22.8711-.11 1.1514.24.4806.61 1.2816.97 2.2727.97 1.1314 0 2.1025-.4 2.1025-1.45 0-2.28-5.967-.98-5.967-4.83 0-1.87 1.6219-3.17 3.7644-3.17 1.3316 0 2.463.48 3.2238 1.32.3805.42.2603 1.08-.2302 1.36-.3605.2-.821.12-1.1013-.19-.4806-.53-1.1915-.77-1.9023-.77-.9611 0-1.8922.47-1.8922 1.42 0 2.27 5.957.94 5.957 4.85h.02v.01ZM10.5305 4.8901c.5106 0 .9211.41.9211.92v8.78c0 .51-.4105.92-.9211.92a.9182.9182 0 0 1-.9211-.92v-8.78c0-.51.4105-.92.9211-.92ZM42.0073 10.2004c0 3.15-2.4229 5.59-5.3864 5.59-1.8122 0-3.1738-.81-4.0248-2.1v5.16c0 .51-.4105.92-.9211.92a.9181.9181 0 0 1-.9211-.92v-13.04c0-.51.4105-.92.9211-.92s.9211.41.9211.92v.9c.851-1.3 2.2126-2.1 4.0248-2.1 2.9635 0 5.3864 2.44 5.3864 5.59Zm-1.8522 0c0-2.17-1.642-3.81-3.7645-3.81s-3.7845 1.64-3.7845 3.81 1.642 3.81 3.7845 3.81 3.7645-1.64 3.7645-3.81ZM44.6398 0a.918.918 0 0 1 .9211.92v13.67c0 .51-.4104.92-.9211.92a.918.918 0 0 1-.921-.92V.92c0-.51.4104-.92.921-.92ZM48.5852 4.8901c.5106 0 .921.41.921.92v8.78c0 .51-.4104.92-.921.92a.918.918 0 0 1-.9211-.92v-8.78c0-.51.4104-.92.9211-.92ZM51.6484 4.89v-.32c0-2.51 1.2816-4.05 3.7044-4.21.5207-.03.9612.38.9612.89 0 .46-.3504.85-.801.89-1.3215.11-2.0024.87-2.0024 2.43v.32h1.9123c.4906 0 .8911.4.8911.89s-.4005.89-.8911.89h-1.9123v7.9199c0 .51-.4104.92-.921.92a.918.918 0 0 1-.9211-.92v-9.7h-.0201ZM58.2766 4.8901c.5106 0 .9211.41.9211.92v8.78c0 .51-.4105.92-.9211.92a.9181.9181 0 0 1-.9211-.92v-8.78c0-.51.4105-.92.9211-.92Z"/></g><defs><clipPath id="a"><path fill="#fff" d="M0 0h59v20H0z"/></clipPath></defs></svg>