<svg width="28" height="28" viewBox="0 0 28 28" fill="none" xmlns="http://www.w3.org/2000/svg">
<circle cx="14" cy="14" r="13.5" fill="url(#paint0_linear_6118_2406)" stroke="url(#paint1_linear_6118_2406)"/>
<path fill-rule="evenodd" clip-rule="evenodd" d="M11.9696 7.59299C12.4695 6.13567 14.5305 6.13566 15.0304 7.59299L15.9135 10.1679C15.9455 10.2614 16.0334 10.3241 16.1321 10.3241H18.8791C20.4675 10.3241 21.1048 12.3741 19.7964 13.2746L17.6616 14.7441C17.5761 14.8028 17.5403 14.9113 17.574 15.0094L18.4094 17.4454C18.9154 18.9207 17.2465 20.1872 15.9618 19.3029L13.631 17.6987C13.5521 17.6443 13.4479 17.6443 13.369 17.6987L11.0382 19.3029C9.75347 20.1872 8.08458 18.9207 8.59057 17.4454L9.42603 15.0094C9.45967 14.9113 9.42386 14.8028 9.33845 14.7441L7.2036 13.2746C5.89521 12.3741 6.53254 10.3241 8.12089 10.3241H10.8679C10.9666 10.3241 11.0545 10.2614 11.0865 10.1679L11.9696 7.59299ZM13.7186 8.04288C13.6472 7.83469 13.3528 7.83469 13.2814 8.04288L12.3982 10.6178C12.174 11.2717 11.5591 11.7108 10.8679 11.7108H8.12089C7.89398 11.7108 7.80294 12.0037 7.98985 12.1323L10.1247 13.6018C10.7226 14.0133 10.9732 14.7727 10.7378 15.4593L9.9023 17.8953C9.83001 18.106 10.0684 18.287 10.252 18.1606L12.5827 16.5564C13.1351 16.1761 13.8649 16.1761 14.4173 16.5564L16.748 18.1606C16.9316 18.287 17.17 18.106 17.0977 17.8953L16.2622 15.4593C16.0268 14.7727 16.2774 14.0133 16.8753 13.6018L19.0102 12.1323C19.1971 12.0037 19.106 11.7108 18.8791 11.7108H16.1321C15.4409 11.7108 14.826 11.2717 14.6018 10.6178L13.7186 8.04288Z" fill="#00B899"/>
<defs>
<linearGradient id="paint0_linear_6118_2406" x1="14" y1="0" x2="14" y2="37.9167" gradientUnits="userSpaceOnUse">
<stop stop-color="#18191B"/>
<stop offset="1" stop-color="#646464"/>
</linearGradient>
<linearGradient id="paint1_linear_6118_2406" x1="14" y1="0" x2="14" y2="28" gradientUnits="userSpaceOnUse">
<stop stop-color="#A4A4A4"/>
<stop offset="1" stop-color="#111317"/>
</linearGradient>
</defs>
</svg>
