<svg xmlns="http://www.w3.org/2000/svg" width="16" height="15" fill="none"><path fill="#004E2D" fill-rule="evenodd" d="M6.251 1.25c.571-1.666 2.927-1.666 3.498 0l1.01 2.942a.26.26 0 0 0 .25.178h3.139c1.815 0 2.543 2.343 1.048 3.372l-2.44 1.68a.264.264 0 0 0-.1.303l.955 2.784c.578 1.686-1.33 3.133-2.798 2.123L8.15 12.799a.26.26 0 0 0-.3 0l-2.663 1.833c-1.469 1.01-3.376-.437-2.798-2.123l.955-2.784a.264.264 0 0 0-.1-.303l-2.44-1.68C-.69 6.713.037 4.37 1.852 4.37h3.14a.26.26 0 0 0 .25-.178L6.25 1.249Zm1.999.513a.264.264 0 0 0-.5 0L6.74 4.706a1.85 1.85 0 0 1-1.748 1.25h-3.14a.264.264 0 0 0-.15.481l2.44 1.68c.684.47.97 1.338.701 2.122l-.955 2.784a.264.264 0 0 0 .4.303l2.664-1.833a1.85 1.85 0 0 1 2.096 0l2.664 1.833a.264.264 0 0 0 .4-.303l-.955-2.784a1.85 1.85 0 0 1 .7-2.123l2.44-1.679a.264.264 0 0 0-.15-.482h-3.139c-.79 0-1.493-.502-1.749-1.249z" clip-rule="evenodd"/></svg>