<svg xmlns="http://www.w3.org/2000/svg" width="138" height="138" fill="none"><path fill="#C0DAE0" d="M53.738 113.642c-10.66-3.031-38.724-7.865-36.346-50.038 2.378-42.172 39.926-53.59 55.002-52.493 15.077 1.097 44.76 8.727 47.974 55.185 3.214 46.431-51.58 51.631-66.63 47.346Z"/><path fill="#F0F3F7" d="M100.3 85.631s-.235-10.19-.235-10.451c0-.262-.392-1.046-.392-1.046.262-.81-.104-1.541-.104-1.541s-2.273-4.99-3.24-6.977c-.993-1.985-3.972-3.423-3.972-3.423s-4.703-2.273-6.898-3.213c-2.221-.941-4.207-.053-4.207-.053l-9.929 4.495s4.468-37.313 4.52-37.679c.053-.366.288-2.874-1.985-3.423-2.274-.549-3.476 1.934-3.476 1.934L59.2 61.932l-1.881-31.956s.13-5.409-2.979-5.357c-3.11.053-3.736 3.998-3.736 3.998l-2.404 40.631S38.296 49.26 37.355 47.3c-.94-1.96-2.77-4.416-5.304-3.345-2.56 1.072-1.464 4.076-1.464 4.076s8.78 25.215 10.374 28.612c1.568 3.397 1.254 7.525 1.254 7.525l-.052 35.275s-.314 1.698.104 2.377c.418.68 3.737 3.972 15.495 4.103 11.758.13 14.45-3.214 14.45-3.214s-1.385-9.172-1.647-10.739c-.261-1.594.915-2.117.915-2.117s23.647-15.73 26.417-18.133c2.769-2.404 2.403-6.089 2.403-6.089Zm-7.76-5.67c-1.202 5.305-4.703 8.963-10.112 8.963s-9.825-4.39-9.825-9.825a9.813 9.813 0 0 1 9.825-9.825s5.487-.104 9.825 4.024c0 0 2.325 2.378 3.083 2.43.026-.026-1.803-.209-2.796 4.233Z"/><path fill="#F4E7BF" d="M82.95 84.247a5.356 5.356 0 1 0 0-10.713 5.356 5.356 0 0 0 0 10.713Z"/><path fill="#313234" d="M41.876 83.28c0-2.692-.68-5.174-1.594-7.656a6442.6 6442.6 0 0 1-9.956-27.018c-.34-.914-.6-1.881-.34-2.9.576-2.273 3.371-3.266 5.253-1.855 1.15.862 1.881 2.012 2.456 3.266 3.135 6.82 6.61 13.456 9.825 20.224.13.261.208.523.417.758.236-.262.157-.575.183-.889.131-3.37 2.117-35.718 2.221-38.488.079-1.699.889-3.136 2.457-3.998 1.463-.81 3.057-.392 3.997.967.445.653.706 1.385.732 2.169.052 1.593 1.672 28.611 1.855 31.616 0 .13-.026.418.13.418.132 0 .158-.235.184-.366.548-1.907 9.537-34.15 10.739-36.058.496-.784 1.28-1.254 2.195-1.437 2.142-.392 3.998 1.567 3.58 3.736-.262 1.385-4.39 36.477-4.416 36.764-.027.157-.053.418.026.497.13.104.366-.053.522-.131 1.725-.993 8.179-4.102 9.746-4.494.941-.236 1.882-.236 2.77.104 2.848 1.124 5.722 2.273 8.414 3.737 1.568.836 2.77 1.985 3.527 3.658.94 2.064 2.038 4.076 2.9 6.192.262.627.445 1.202.393 1.856-.027.418.235.757.313 1.175.235 1.568.209 3.136.261 4.704.053 2.064.079 4.102 0 6.166-.078 2.378-.757 4.573-2.69 6.167-.863.731-1.856 1.306-2.797 1.96-7.76 5.278-15.468 10.634-23.255 15.86-.366.261-.836.444-.967.836-.13.392 0 .81.079 1.254.104.706 1.385 8.936 1.62 10.556.157 1.046-2.117 1.934-3.188 2.326-1.881.653-15.469 3.214-24.51-1.019a10.656 10.656 0 0 1-2.377-1.333c-.392-.287-.706-.784-.68-1.463 0-.81-.078-29.5-.026-37.861Zm.731 18.525s0 14.685-.052 19.232c0 .731.235 1.071.784 1.332 10.112 5.357 25.32 2.718 27.75.784.81-.653.81-.653.417-3.031-.392-2.639-.758-5.2-1.176-7.839-.261-1.777-.287-1.777 1.228-2.848 4.704-3.266 21.897-15.05 25.738-17.768 1.541-1.097 2.351-2.743 2.613-4.572.183-1.333.026-2.718.026-4.05 0-.236-.053-.392-.261-.523-.602-.366-.863-.967-1.02-1.594-.418-1.568-.26-3.083.079-4.65.026-.158.157-.419 0-.55-.13-.104-.314.079-.444.157-.784.34-1.594.444-2.404.21-.654-.184-1.045.025-1.411.496-.366.47-.654.966-.889 1.489-.548 1.124-.836 2.352-1.123 3.554-1.385 5.565-7.447 8.962-12.908 7.237a10.195 10.195 0 0 1-7.107-10.843c.235-2.195 1.202-4.73 2.848-6.324 2.953-2.822 6.689-3.475 10.974-2.273 3.083.862 5.592 2.665 7.813 4.886.47.47 1.019.81 1.62 1.046 1.228.444 2.325.156 3.292-.627.079-.053.183-.131.13-.236-.025-.104-.156-.078-.234-.078-.445-.078-.915-.157-1.307-.392-2.012-1.228-3.005-3.031-3.475-5.252-.105-.47.13-.94.549-1.071.653-.183 1.332-.079 2.064.052.104.026.261.078.34-.026.052-.079-.027-.183-.053-.261-.862-1.96-2.064-3.606-4.024-4.625-2.325-1.228-4.781-2.221-7.159-3.371-1.49-.706-2.953-.68-4.468-.157-2.927 1.045-9.276 4.364-9.72 4.547-.418.156-.653-.053-.601-.47.078-.47 4.65-37.496 4.572-38.463-.104-1.515-1.437-2.378-2.482-2.3-1.176.08-2.195.915-2.587 2.274-.888 3.057-7.97 27.802-10.66 37.103-.105.34-.026.967-.627.863-.523-.079-.419-.653-.445-1.02-.209-3.448-1.698-30.832-1.75-33.366-.026-1.15-.47-2.064-1.255-2.822-.836-.81-1.933-.889-2.9-.262-1.15.758-1.803 1.856-1.907 3.162-.131 1.907-2.117 39.194-2.195 40.736 0 .209-.079.391-.261.47-.21.078-.392-.052-.523-.157-.13-.104-9.276-19.022-10.87-22.21-.575-1.15-1.28-2.22-2.378-2.979-.888-.6-2.038-.522-2.926.053-.889.548-1.28 1.594-1.098 2.639.183.967.601 1.881.941 2.796 2.456 6.741 4.939 13.482 7.395 20.224 1.071 2.952 2.325 5.853 3.11 8.884.365 1.41.522 2.848.522 4.285a1455.13 1455.13 0 0 0-.105 18.499Zm39.9-32.19c-.784.025-5.488.208-7.813 4.023-1.359 2.247-1.803 4.703-1.333 7.29 1.15 6.559 8.806 9.799 14.32 6.062 2.35-1.568 3.71-3.815 4.363-6.506.34-1.359.758-2.691 1.541-3.867.262-.392.601-.68.967-.967-.575-.287-2.796-2.456-3.684-3.11-2.508-1.802-5.226-3.004-8.361-2.926Zm16.121 3.919c.889.026 1.098-.027.837-.706-.053-.13-1.15-2.404-1.568-3.449-.21-.523-.575-.888-1.072-1.045-.653-.21-1.201-.261-1.88-.157-.445.078-.34.444-.288.653.496 1.516 1.071 2.692 2.22 3.789.602.496 1.255.888 1.751.915Zm1.15 2.194c0-.496-.026-.679-.13-.679-.079 0-.105.13-.131.21-.523 1.54-.706 3.135-.418 4.755.078.47.235.94.444 1.384.078.157.13.34.34.288.13-.026.104-.235.104-.366 0-.444-.209-4.154-.209-5.592ZM102.6 66.27c-.183 0-.287-.026-.34-.157-.052-.13-.052-.261.053-.34.13-.104 2.09-.993 2.926-1.358.235-.105.497-.157.627.13.131.287-.052.47-.287.549-.941.366-2.848 1.176-2.979 1.176ZM105.082 82.679c.888.104 1.751.313 2.613.47.261.052.392.21.34.47-.079.314-.366.288-.601.262-.81-.157-1.647-.314-2.457-.497-.235-.052-.6-.078-.522-.444.104-.366.418-.287.627-.261Z"/><path fill="#313234" d="M89.796 52.16c.027-.235.157-.418.418-.366.21.052.262.209.21.444-.157.836-.445 2.43-.47 2.535-.027.156-.131.287-.288.287-.157-.026-.21-.157-.21-.34.027-.104.184-1.541.34-2.56ZM68.188 85.318c.209.026.366.157.34.392-.027.235-.184.313-.419.313-.444 0-8.988-.392-10.32-.522-.184-.026-.445-.026-.419-.34.026-.287.288-.235.444-.235.68 0 9.694.313 10.374.392ZM88.62 78.864c0 3.11-2.612 5.67-5.696 5.644-3.03-.026-5.513-2.56-5.513-5.644 0-3.083 2.535-5.618 5.644-5.592 2.822.052 5.566 2.3 5.566 5.592Zm-.783.104c.078-2.456-1.725-4.99-4.808-5.069-2.691-.052-4.938 2.169-4.99 4.913-.053 2.612 2.142 4.807 4.833 4.86 2.77.104 4.912-1.96 4.965-4.704Z"/><path fill="#313234" d="M82.924 82.34c-.966-.027-1.724-.445-2.404-1.36-.078-.13-.287-.392 0-.574.21-.131.314.052.419.156.365.392.784.758 1.28.967.81.34 1.62.183 2.325-.313.131-.079.236-.183.34-.288.21-.183.444-.287.627-.078.157.157.026.444-.183.627-.679.549-1.41.888-2.404.862ZM81.07 77.975c0 .392.025.837-.393.837-.34 0-.313-.47-.313-.837 0-.287 0-.783.392-.757.34 0 .313.522.313.757ZM85.015 77.975c0 .392-.026.837.392.837.34 0 .313-.47.313-.837 0-.287 0-.783-.392-.757-.34 0-.313.522-.313.757Z"/></svg>