<svg xmlns="http://www.w3.org/2000/svg" width="479" height="265" fill="none"><g filter="url(#a)"><rect width="479" height="259.668" fill="url(#b)" rx="30.253"/></g><path fill="#F4E7BF" d="M37.362 71.849c1.488.781 2.471 2.218 2.471 4.109 0 2.924-2.37 5.042-5.294 5.042h-7.563V63.353h7.008c2.849 0 5.168 2.067 5.168 4.89 0 1.538-.68 2.799-1.79 3.606Zm-3.378-5.774h-4.11v4.64h4.11c1.286 0 2.27-1.01 2.27-2.32 0-1.311-.984-2.32-2.27-2.32Zm.555 12.202c1.361 0 2.395-1.084 2.395-2.47 0-1.387-1.034-2.471-2.395-2.471h-4.664v4.941h4.664Zm13.72 3.05c-3.68 0-6.655-2.898-6.655-6.63 0-3.756 2.974-6.63 6.655-6.63 3.706 0 6.656 2.874 6.656 6.63 0 3.731-2.95 6.63-6.656 6.63Zm0-2.646c2.219 0 3.933-1.69 3.933-3.984s-1.714-3.983-3.933-3.983c-2.218 0-3.933 1.69-3.933 3.983 0 2.294 1.715 3.984 3.933 3.984Zm15.068 2.647c-3.681 0-6.656-2.9-6.656-6.63 0-3.757 2.975-6.631 6.656-6.631 3.705 0 6.655 2.874 6.655 6.63 0 3.731-2.95 6.63-6.655 6.63Zm0-2.647c2.218 0 3.932-1.69 3.932-3.984s-1.714-3.983-3.932-3.983c-2.219 0-3.933 1.69-3.933 3.983 0 2.294 1.714 3.984 3.933 3.984Zm11.316-6.807c0 2.294 6.782.907 6.782 5.571 0 2.521-2.193 3.883-4.916 3.883-2.521 0-4.336-1.135-5.143-2.95l2.344-1.361c.404 1.134 1.412 1.815 2.799 1.815 1.21 0 2.143-.403 2.143-1.412 0-2.244-6.782-.983-6.782-5.496 0-2.37 2.042-3.857 4.614-3.857 2.067 0 3.781.958 4.664 2.622l-2.295 1.286c-.453-.984-1.336-1.437-2.37-1.437-.983 0-1.84.428-1.84 1.336Zm15.717-.857h-3.126v6.05c0 1.614 1.058 1.588 3.126 1.488V81c-4.185.504-5.85-.656-5.85-3.933v-6.05h-2.319v-2.622h2.32v-2.723l2.723-.807v3.53h3.126v2.622Zm4.095 4.84c.429 1.966 2.017 2.975 4.034 2.975 1.512 0 2.647-.68 3.252-1.563l2.244 1.31c-1.16 1.715-3.051 2.749-5.522 2.749-4.16 0-6.857-2.85-6.857-6.63 0-3.732 2.698-6.631 6.656-6.631 3.756 0 6.328 3.025 6.328 6.656 0 .378-.051.781-.101 1.134H94.455Zm-.025-2.219h7.412c-.378-2.168-1.967-3.1-3.605-3.1-2.042 0-3.43 1.21-3.807 3.1Zm15.278-3.126c.756-1.714 2.294-2.344 3.883-2.344v2.95c-1.79-.127-3.883.705-3.883 3.529V81h-2.723V68.395h2.723v2.117Z"/><path fill="#CED2D6" d="M28.476 113.143h5.47v1.941h-7.5v-12.353h7.412v1.941h-5.382v3.212h4.941v1.924h-4.941v3.335Zm15.093 1.941h-2.206l-2.188-3.017-2.206 3.017h-2.224l3.318-4.535-3.141-4.288h2.206l2.03 2.788 2.029-2.788h2.223l-3.141 4.306 3.3 4.517Zm6.274-9.053c2.4 0 4.394 2.03 4.394 4.641 0 2.63-1.994 4.642-4.394 4.642-1.376 0-2.418-.565-3.088-1.483v4.783h-1.906v-12.353h1.906v1.27c.67-.935 1.712-1.5 3.088-1.5Zm-.3 7.465c1.589 0 2.788-1.182 2.788-2.824 0-1.641-1.2-2.823-2.788-2.823-1.588 0-2.788 1.182-2.788 2.823 0 1.642 1.2 2.824 2.788 2.824Zm7.922-2.012c.3 1.377 1.412 2.083 2.823 2.083 1.06 0 1.853-.477 2.277-1.095l1.57.918c-.811 1.2-2.135 1.924-3.864 1.924-2.912 0-4.8-1.995-4.8-4.642 0-2.611 1.888-4.641 4.659-4.641 2.629 0 4.43 2.118 4.43 4.659 0 .265-.036.547-.072.794h-7.023Zm-.018-1.553h5.188c-.264-1.517-1.376-2.17-2.523-2.17-1.43 0-2.4.847-2.665 2.17Zm10.695-2.188c.53-1.2 1.606-1.641 2.718-1.641v2.064c-1.253-.088-2.718.495-2.718 2.471v4.447h-1.906v-8.823h1.906v1.482Zm5.079-2.806c-.67 0-1.218-.565-1.218-1.218 0-.67.547-1.217 1.218-1.217.67 0 1.218.547 1.218 1.217 0 .653-.547 1.218-1.218 1.218Zm-.953 10.147v-8.823h1.906v8.823h-1.906Zm5.619-3.6c.3 1.377 1.412 2.083 2.823 2.083 1.06 0 1.853-.477 2.277-1.095l1.57.918c-.811 1.2-2.135 1.924-3.864 1.924-2.912 0-4.8-1.995-4.8-4.642 0-2.611 1.888-4.641 4.659-4.641 2.629 0 4.43 2.118 4.43 4.659 0 .265-.036.547-.072.794h-7.023Zm-.018-1.553h5.189c-.265-1.517-1.377-2.17-2.524-2.17-1.43 0-2.4.847-2.665 2.17Zm13.43-3.9c1.977 0 3.389 1.341 3.389 3.635v5.418h-1.906v-5.223c0-1.342-.777-2.047-1.977-2.047-1.253 0-2.241.741-2.241 2.541v4.729h-1.906v-8.823h1.906v1.129c.582-.918 1.535-1.359 2.735-1.359Zm9.606 9.283c-2.665 0-4.66-2.03-4.66-4.642 0-2.629 1.995-4.641 4.66-4.641 1.729 0 3.229.9 3.935 2.277l-1.641.953c-.388-.83-1.253-1.359-2.312-1.359-1.553 0-2.735 1.182-2.735 2.77 0 1.589 1.182 2.771 2.735 2.771 1.059 0 1.924-.547 2.347-1.359l1.641.935c-.741 1.395-2.241 2.295-3.97 2.295Zm6.71-3.83c.3 1.377 1.412 2.083 2.824 2.083 1.058 0 1.853-.477 2.276-1.095l1.571.918c-.812 1.2-2.136 1.924-3.865 1.924-2.912 0-4.8-1.995-4.8-4.642 0-2.611 1.888-4.641 4.659-4.641 2.629 0 4.429 2.118 4.429 4.659 0 .265-.035.547-.07.794h-7.024Zm-.018-1.553h5.189c-.265-1.517-1.377-2.17-2.524-2.17-1.429 0-2.4.847-2.665 2.17Zm18.125-1.835h-2.188v4.235c0 1.13.741 1.112 2.188 1.041v1.712c-2.93.353-4.094-.459-4.094-2.753v-4.235h-1.624v-1.835h1.624v-1.906l1.906-.565v2.471h2.188v1.835Zm6.37-2.065c1.976 0 3.388 1.341 3.388 3.635v5.418h-1.906v-5.223c0-1.342-.776-2.047-1.976-2.047-1.253 0-2.242.741-2.242 2.541v4.729h-1.906v-12.353h1.906v4.659c.583-.918 1.536-1.359 2.736-1.359Zm6.94 5.453c.3 1.377 1.412 2.083 2.824 2.083 1.059 0 1.853-.477 2.276-1.095l1.571.918c-.812 1.2-2.135 1.924-3.865 1.924-2.912 0-4.8-1.995-4.8-4.642 0-2.611 1.888-4.641 4.659-4.641 2.629 0 4.429 2.118 4.429 4.659 0 .265-.035.547-.07.794h-7.024Zm-.017-1.553h5.188c-.265-1.517-1.377-2.17-2.524-2.17-1.429 0-2.4.847-2.664 2.17Zm18.195-3.9c2.4 0 4.394 2.012 4.394 4.641 0 2.612-1.994 4.642-4.394 4.642-1.377 0-2.418-.565-3.089-1.5v1.27h-1.906v-12.353h1.906v4.783c.671-.918 1.712-1.483 3.089-1.483Zm-.3 7.465c1.588 0 2.788-1.182 2.788-2.824 0-1.641-1.2-2.823-2.788-2.823-1.589 0-2.789 1.182-2.789 2.823 0 1.642 1.2 2.824 2.789 2.824Zm7.921-2.012c.3 1.377 1.412 2.083 2.824 2.083 1.059 0 1.853-.477 2.276-1.095l1.571.918c-.812 1.2-2.136 1.924-3.865 1.924-2.912 0-4.8-1.995-4.8-4.642 0-2.611 1.888-4.641 4.659-4.641 2.629 0 4.429 2.118 4.429 4.659 0 .265-.035.547-.07.794h-7.024Zm-.018-1.553h5.189c-.265-1.517-1.377-2.17-2.524-2.17-1.429 0-2.4.847-2.665 2.17Zm10.157-1.235c0 1.606 4.747.635 4.747 3.9 0 1.765-1.536 2.718-3.442 2.718-1.764 0-3.035-.794-3.6-2.065l1.642-.953c.282.794.988 1.271 1.958 1.271.848 0 1.5-.283 1.5-.989 0-1.57-4.747-.688-4.747-3.847 0-1.659 1.43-2.7 3.23-2.7 1.447 0 2.647.671 3.265 1.835l-1.606.9c-.318-.688-.936-1.005-1.659-1.005-.688 0-1.288.3-1.288.935Zm11.001-.6h-2.188v4.235c0 1.13.741 1.112 2.188 1.041v1.712c-2.929.353-4.094-.459-4.094-2.753v-4.235h-1.624v-1.835h1.624v-1.906l1.906-.565v2.471h2.188v1.835Zm4.462 4.871-1.235 4.588h-1.589l.706-4.588h2.118Zm12.382-6.706h1.906v8.823h-1.906v-1.129c-.582.917-1.535 1.359-2.735 1.359-1.977 0-3.388-1.342-3.388-3.636v-5.417h1.905v5.223c0 1.341.777 2.047 1.977 2.047 1.253 0 2.241-.741 2.241-2.541v-4.729Zm9.129-.23c2.4 0 4.394 2.03 4.394 4.641 0 2.63-1.994 4.642-4.394 4.642-1.377 0-2.418-.565-3.088-1.483v4.783h-1.906v-12.353h1.906v1.27c.67-.935 1.711-1.5 3.088-1.5Zm-.3 7.465c1.588 0 2.788-1.182 2.788-2.824 0-1.641-1.2-2.823-2.788-2.823-1.588 0-2.788 1.182-2.788 2.823 0 1.642 1.2 2.824 2.788 2.824Zm15.757-5.4h-2.188v4.235c0 1.13.741 1.112 2.188 1.041v1.712c-2.93.353-4.094-.459-4.094-2.753v-4.235h-1.624v-1.835h1.624v-1.906l1.906-.565v2.471h2.188v1.835Zm5.531 7.218c-2.576 0-4.658-2.03-4.658-4.642 0-2.629 2.082-4.641 4.658-4.641 2.595 0 4.659 2.012 4.659 4.641 0 2.612-2.064 4.642-4.659 4.642Zm0-1.853c1.553 0 2.753-1.183 2.753-2.789s-1.2-2.788-2.753-2.788c-1.553 0-2.753 1.182-2.753 2.788 0 1.606 1.2 2.789 2.753 2.789Zm13.159-10.73h1.765v12.353h-2.029v-10.182l-2.489.706-.494-1.73 3.247-1.147Zm8.649 12.583c-3.106 0-4.853-2.595-4.853-6.406 0-3.812 1.747-6.406 4.853-6.406s4.853 2.594 4.853 6.406c0 3.811-1.747 6.406-4.853 6.406Zm0-1.977c1.835 0 2.823-1.588 2.823-4.429 0-2.842-.988-4.43-2.823-4.43-1.818 0-2.824 1.588-2.824 4.43 0 2.841 1.006 4.429 2.824 4.429Zm8.988-5.188c-1.658 0-2.894-1.271-2.894-2.824 0-1.57 1.236-2.823 2.894-2.823 1.642 0 2.877 1.235 2.877 2.823 0 1.553-1.218 2.824-2.877 2.824Zm-.017-1.553c.759 0 1.27-.583 1.27-1.271 0-.723-.511-1.288-1.27-1.288-.741 0-1.253.565-1.253 1.288 0 .706.512 1.271 1.253 1.271Zm-1.835 6.671 8.135-9.054.953.548-8.136 9.07-.952-.564Zm7.5 2.029c-1.659 0-2.895-1.271-2.895-2.824 0-1.57 1.236-2.823 2.895-2.823 1.641 0 2.876 1.253 2.876 2.823 0 1.553-1.235 2.824-2.876 2.824Zm-.018-1.553c.759 0 1.271-.582 1.271-1.271 0-.723-.512-1.288-1.271-1.288-.741 0-1.253.565-1.253 1.288 0 .706.512 1.271 1.253 1.271Zm7.388-11.107v.762l-.953-.063.562.762-.657.402-.466-.878-.466.878-.656-.402.572-.762-.964.063v-.762l.964.063-.572-.762.656-.402.466.879.466-.879.657.402-.562.762.953-.063Zm11.423 3.395c2.4 0 4.395 2.03 4.395 4.641 0 2.63-1.995 4.642-4.395 4.642-1.376 0-2.417-.565-3.088-1.483v4.783h-1.906v-12.353h1.906v1.27c.671-.935 1.712-1.5 3.088-1.5Zm-.3 7.465c1.589 0 2.789-1.182 2.789-2.824 0-1.641-1.2-2.823-2.789-2.823-1.588 0-2.788 1.182-2.788 2.823 0 1.642 1.2 2.824 2.788 2.824Zm6.862 1.8c-.741 0-1.323-.6-1.323-1.324a1.31 1.31 0 0 1 1.323-1.323c.724 0 1.324.582 1.324 1.323 0 .724-.6 1.324-1.324 1.324Zm9.633-9.035h1.906v8.823h-1.906v-1.27c-.67.935-1.712 1.5-3.088 1.5-2.4 0-4.394-2.03-4.394-4.642 0-2.629 1.994-4.641 4.394-4.641 1.376 0 2.418.565 3.088 1.483v-1.253Zm-2.788 7.235c1.588 0 2.788-1.182 2.788-2.824 0-1.641-1.2-2.823-2.788-2.823-1.588 0-2.788 1.182-2.788 2.823 0 1.642 1.2 2.824 2.788 2.824Zm8.063 1.8c-.742 0-1.324-.6-1.324-1.324a1.31 1.31 0 0 1 1.324-1.323c.723 0 1.323.582 1.323 1.323 0 .724-.6 1.324-1.323 1.324Zm-281.41 15.447c.53-1.2 1.605-1.641 2.717-1.641v2.064c-1.253-.088-2.717.495-2.717 2.471v4.447h-1.906v-8.823h1.906v1.482Zm5.212 3.741c.3 1.377 1.412 2.083 2.823 2.083 1.06 0 1.853-.477 2.277-1.095l1.57.918c-.811 1.2-2.135 1.924-3.864 1.924-2.912 0-4.8-1.995-4.8-4.642 0-2.611 1.888-4.641 4.659-4.641 2.63 0 4.43 2.118 4.43 4.659 0 .265-.036.547-.071.794H33.44Zm-.018-1.553h5.189c-.265-1.517-1.377-2.17-2.524-2.17-1.43 0-2.4.847-2.665 2.17Zm13.437-1.835h-2.188v4.235c0 1.13.741 1.112 2.188 1.041v1.712c-2.93.353-4.094-.459-4.094-2.753v-4.235h-1.624v-1.835h1.624v-1.906l1.906-.565v2.471h2.188v1.835Zm7.762-1.835h1.906v8.823h-1.906v-1.129c-.582.917-1.535 1.359-2.735 1.359-1.977 0-3.389-1.342-3.389-3.636v-5.417h1.906v5.223c0 1.341.777 2.047 1.977 2.047 1.253 0 2.241-.741 2.241-2.541v-4.729Zm6.04 1.482c.53-1.2 1.607-1.641 2.718-1.641v2.064c-1.253-.088-2.717.495-2.717 2.471v4.447h-1.906v-8.823h1.906v1.482Zm8.768-1.712c1.976 0 3.388 1.341 3.388 3.635v5.418h-1.906v-5.223c0-1.342-.776-2.047-1.976-2.047-1.253 0-2.242.741-2.242 2.541v4.729h-1.906v-8.823h1.906v1.129c.583-.918 1.536-1.359 2.736-1.359Zm7.152 2.665c0 1.606 4.747.635 4.747 3.9 0 1.765-1.535 2.718-3.441 2.718-1.765 0-3.035-.794-3.6-2.065l1.641-.953c.282.794.988 1.271 1.959 1.271.847 0 1.5-.283 1.5-.989 0-1.57-4.747-.688-4.747-3.847 0-1.659 1.43-2.7 3.23-2.7 1.446 0 2.646.671 3.264 1.835l-1.606.9c-.317-.688-.935-1.005-1.659-1.005-.688 0-1.288.3-1.288.935ZM43.814 173.942h1.764v12.353H43.55v-10.183l-2.488.706-.494-1.729 3.247-1.147Zm14.56 3.529h2.03l-3.389 9.106c-.83 2.241-2.276 3.371-4.306 3.247v-1.782c1.236.07 1.906-.565 2.347-1.73l.089-.176-3.742-8.665h2.083l2.63 6.406 2.258-6.406Zm4.377 5.224c.3 1.376 1.411 2.082 2.823 2.082 1.06 0 1.853-.476 2.277-1.094l1.57.918c-.811 1.2-2.135 1.923-3.864 1.923-2.912 0-4.8-1.994-4.8-4.641 0-2.612 1.888-4.641 4.658-4.641 2.63 0 4.43 2.117 4.43 4.659 0 .264-.035.547-.07.794H62.75Zm-.018-1.553h5.188c-.264-1.518-1.376-2.171-2.523-2.171-1.43 0-2.4.847-2.665 2.171Zm15.726-3.671h1.906v8.824h-1.906v-1.271c-.671.935-1.712 1.5-3.089 1.5-2.4 0-4.394-2.029-4.394-4.641 0-2.63 1.994-4.641 4.394-4.641 1.377 0 2.418.564 3.089 1.482v-1.253Zm-2.789 7.235c1.589 0 2.789-1.182 2.789-2.823s-1.2-2.824-2.789-2.824c-1.588 0-2.788 1.183-2.788 2.824 0 1.641 1.2 2.823 2.788 2.823Zm8.822-5.753c.53-1.2 1.606-1.641 2.718-1.641v2.065c-1.253-.088-2.718.494-2.718 2.471v4.447h-1.906v-8.824h1.906v1.482Z"/><rect width="76.362" height="41.278" x="26.156" y="160.156" stroke="#555" stroke-linecap="round" stroke-width="1.891" rx="20.639"/><path fill="#CED2D6" d="M137.321 173.942h2.03v12.353h-1.588l-5.824-8.383v8.383h-2.029v-12.353h1.588l5.823 8.382v-8.382Zm8.538 12.582c-2.576 0-4.659-2.029-4.659-4.641 0-2.63 2.083-4.641 4.659-4.641 2.594 0 4.659 2.011 4.659 4.641 0 2.612-2.065 4.641-4.659 4.641Zm0-1.853c1.553 0 2.753-1.182 2.753-2.788 0-1.606-1.2-2.788-2.753-2.788-1.553 0-2.753 1.182-2.753 2.788 0 1.606 1.2 2.788 2.753 2.788Zm12.294-1.976c.3 1.376 1.412 2.082 2.824 2.082 1.059 0 1.853-.476 2.277-1.094l1.57.918c-.812 1.2-2.135 1.923-3.865 1.923-2.911 0-4.8-1.994-4.8-4.641 0-2.612 1.889-4.641 4.659-4.641 2.63 0 4.43 2.117 4.43 4.659 0 .264-.036.547-.071.794h-7.024Zm-.017-1.553h5.188c-.265-1.518-1.376-2.171-2.523-2.171-1.43 0-2.401.847-2.665 2.171Zm15.725-3.671h1.906v8.824h-1.906v-1.271c-.67.935-1.711 1.5-3.088 1.5-2.4 0-4.394-2.029-4.394-4.641 0-2.63 1.994-4.641 4.394-4.641 1.377 0 2.418.564 3.088 1.482v-1.253Zm-2.788 7.235c1.588 0 2.788-1.182 2.788-2.823s-1.2-2.824-2.788-2.824c-1.588 0-2.788 1.183-2.788 2.824 0 1.641 1.2 2.823 2.788 2.823Zm8.822-5.753c.529-1.2 1.606-1.641 2.717-1.641v2.065c-1.253-.088-2.717.494-2.717 2.471v4.447h-1.906v-8.824h1.906v1.482Zm4.126 7.342v-12.883h1.906v12.883h-1.906Zm10.066-8.824h2.029l-3.388 9.106c-.83 2.241-2.277 3.371-4.306 3.247v-1.782c1.235.07 1.906-.565 2.347-1.73l.088-.176-3.741-8.665h2.082l2.63 6.406 2.259-6.406Zm17.798 0h2.011l-2.77 8.824h-1.871l-1.835-5.947-1.853 5.947h-1.871l-2.77-8.824h2.011l1.712 6.088 1.853-6.088h1.818l1.835 6.088 1.73-6.088Zm4.368-1.323a1.232 1.232 0 0 1-1.218-1.218 1.22 1.22 0 0 1 1.218-1.218c.67 0 1.218.547 1.218 1.218 0 .653-.548 1.218-1.218 1.218Zm-.953 10.147v-8.824h1.906v8.824H215.3Zm9.042-6.989h-2.188v4.236c0 1.129.741 1.112 2.188 1.041v1.712c-2.929.353-4.094-.459-4.094-2.753v-4.236h-1.623v-1.835h1.623v-1.906l1.906-.565v2.471h2.188v1.835Zm6.37-2.064c1.977 0 3.389 1.341 3.389 3.635v5.418h-1.906v-5.224c0-1.341-.777-2.047-1.977-2.047-1.253 0-2.241.741-2.241 2.541v4.73h-1.906v-12.353h1.906v4.658c.582-.917 1.535-1.358 2.735-1.358Zm12.429-3.3h1.906v12.353h-1.906v-1.271c-.671.935-1.712 1.5-3.088 1.5-2.4 0-4.394-2.029-4.394-4.641 0-2.63 1.994-4.641 4.394-4.641 1.376 0 2.417.564 3.088 1.482v-4.782Zm-2.788 10.764c1.588 0 2.788-1.182 2.788-2.823s-1.2-2.824-2.788-2.824c-1.588 0-2.788 1.183-2.788 2.824 0 1.641 1.2 2.823 2.788 2.823Zm8.821-5.753c.53-1.2 1.606-1.641 2.718-1.641v2.065c-1.253-.088-2.718.494-2.718 2.471v4.447h-1.906v-8.824h1.906v1.482Zm10.701-1.482h1.906v8.824h-1.906v-1.271c-.671.935-1.712 1.5-3.088 1.5-2.4 0-4.394-2.029-4.394-4.641 0-2.63 1.994-4.641 4.394-4.641 1.376 0 2.417.564 3.088 1.482v-1.253Zm-2.788 7.235c1.588 0 2.788-1.182 2.788-2.823s-1.2-2.824-2.788-2.824c-1.588 0-2.789 1.183-2.789 2.824 0 1.641 1.201 2.823 2.789 2.823Zm17.08-7.235h2.012l-2.77 8.824h-1.871l-1.835-5.947-1.853 5.947h-1.871l-2.771-8.824h2.012l1.712 6.088 1.853-6.088h1.818l1.835 6.088 1.729-6.088Zm10.059 0h1.906v8.824h-1.906v-1.271c-.67.935-1.711 1.5-3.088 1.5-2.4 0-4.394-2.029-4.394-4.641 0-2.63 1.994-4.641 4.394-4.641 1.377 0 2.418.564 3.088 1.482v-1.253Zm-2.788 7.235c1.588 0 2.788-1.182 2.788-2.823s-1.2-2.824-2.788-2.824c-1.588 0-2.788 1.183-2.788 2.824 0 1.641 1.2 2.823 2.788 2.823Zm6.916 1.589v-12.883h1.906v12.883h-1.906Zm5.779-6.389c0 1.606 4.747.636 4.747 3.9 0 1.765-1.535 2.718-3.441 2.718-1.765 0-3.036-.794-3.6-2.065l1.641-.953c.282.795.988 1.271 1.959 1.271.847 0 1.5-.282 1.5-.988 0-1.571-4.747-.688-4.747-3.847 0-1.659 1.429-2.7 3.229-2.7 1.447 0 2.647.67 3.265 1.835l-1.606.9c-.318-.688-.935-1.006-1.659-1.006-.688 0-1.288.3-1.288.935Z"/><rect width="194.32" height="41.278" x="114.493" y="160.156" stroke="#555" stroke-width="1.891" rx="20.639"/><mask id="d" width="89" height="94" x="365" y="68" maskUnits="userSpaceOnUse" style="mask-type:alpha"><path fill="#D35050" d="M395.52 71.798a28.263 28.263 0 0 1 28.302 0l15.816 9.146a28.354 28.354 0 0 1 14.151 24.549v18.293a28.355 28.355 0 0 1-14.151 24.549l-15.816 9.146a28.262 28.262 0 0 1-28.302 0l-15.816-9.146a28.355 28.355 0 0 1-14.151-24.549v-18.293a28.354 28.354 0 0 1 14.151-24.549l15.816-9.146Z"/><path fill="url(#c)" fill-opacity=".7" d="M395.52 71.798a28.263 28.263 0 0 1 28.302 0l15.816 9.146a28.354 28.354 0 0 1 14.151 24.549v18.293a28.355 28.355 0 0 1-14.151 24.549l-15.816 9.146a28.262 28.262 0 0 1-28.302 0l-15.816-9.146a28.355 28.355 0 0 1-14.151-24.549v-18.293a28.354 28.354 0 0 1 14.151-24.549l15.816-9.146Z"/></mask><g mask="url(#d)"><path fill="#996707" d="M395.52 71.798a28.263 28.263 0 0 1 28.302 0l15.816 9.146a28.354 28.354 0 0 1 14.151 24.549v18.293a28.355 28.355 0 0 1-14.151 24.549l-15.816 9.146a28.262 28.262 0 0 1-28.302 0l-15.816-9.146a28.355 28.355 0 0 1-14.151-24.549v-18.293a28.354 28.354 0 0 1 14.151-24.549l15.816-9.146Z"/><path fill="url(#e)" fill-opacity=".4" d="M395.52 71.798a28.263 28.263 0 0 1 28.302 0l15.816 9.146a28.354 28.354 0 0 1 14.151 24.549v18.293a28.355 28.355 0 0 1-14.151 24.549l-15.816 9.146a28.262 28.262 0 0 1-28.302 0l-15.816-9.146a28.355 28.355 0 0 1-14.151-24.549v-18.293a28.354 28.354 0 0 1 14.151-24.549l15.816-9.146Z"/><path stroke="url(#f)" stroke-opacity=".5" stroke-width="2.521" d="M396.151 72.889a27.002 27.002 0 0 1 27.04 0l15.816 9.146a27.094 27.094 0 0 1 13.522 23.458v18.293c0 9.678-5.155 18.62-13.522 23.458l-15.816 9.146a27.002 27.002 0 0 1-27.04 0l-15.816-9.146a27.094 27.094 0 0 1-13.522-23.458v-18.293c0-9.678 5.155-18.62 13.522-23.458l15.816-9.146Z"/><path fill="#fff" d="m390.765 111.475-5.567 1.966.847 2.965 4.266-1.21v17.456h3.479v-21.177h-3.025Zm14.826 21.57c5.324 0 8.319-4.447 8.319-10.982 0-6.534-2.995-10.981-8.319-10.981-5.325 0-8.32 4.447-8.32 10.981 0 6.535 2.995 10.982 8.32 10.982Zm0-3.388c-3.116 0-4.841-2.723-4.841-7.594 0-4.87 1.725-7.593 4.841-7.593 3.146 0 4.84 2.723 4.84 7.593 0 4.871-1.694 7.594-4.84 7.594ZM421.979 122.882c-2.369 0-4.134-1.815-4.134-4.034 0-2.244 1.765-4.034 4.134-4.034 2.345 0 4.11 1.765 4.11 4.034 0 2.219-1.74 4.034-4.11 4.034Zm-.025-2.219c1.084 0 1.815-.832 1.815-1.815 0-1.034-.731-1.84-1.815-1.84-1.059 0-1.79.806-1.79 1.84 0 1.008.731 1.815 1.79 1.815Zm-2.622 9.53 11.622-12.933 1.362.781L420.694 131l-1.362-.807Zm10.715 2.899c-2.37 0-4.135-1.815-4.135-4.034 0-2.243 1.765-4.033 4.135-4.033 2.344 0 4.109 1.79 4.109 4.033 0 2.219-1.765 4.034-4.109 4.034Zm-.025-2.219c1.084 0 1.815-.831 1.815-1.815 0-1.033-.731-1.84-1.815-1.84-1.059 0-1.79.807-1.79 1.84 0 1.009.731 1.815 1.79 1.815Zm10.554-16.295v1.089l-1.361-.091.802 1.089-.938.575-.666-1.256-.665 1.256-.938-.575.817-1.089-1.377.091v-1.089l1.377.09-.817-1.089.938-.575.665 1.256.666-1.256.938.575-.802 1.089 1.361-.09Z"/><path fill="#F4E7BF" d="M393.637 100.207c1.929 0 3.341-1.185 3.341-3.088v-5.9h-1.45v5.812c0 1.033-.592 1.764-1.891 1.764-1.298 0-1.89-.73-1.89-1.764V91.22h-1.45v5.899c0 1.903 1.399 3.088 3.34 3.088Zm8.89-8.987h-3.252v8.823h1.45v-3.025h1.802c1.664 0 2.925-1.273 2.925-2.9 0-1.638-1.261-2.898-2.925-2.898Zm0 4.437h-1.802V92.58h1.802c.858 0 1.475.643 1.475 1.538 0 .882-.617 1.538-1.475 1.538Zm14.331-4.437h-6.429v1.386h2.496v7.437h1.449v-7.437h2.484V91.22Zm5.332 8.987a4.535 4.535 0 0 0 4.575-4.576 4.535 4.535 0 0 0-4.575-4.575 4.543 4.543 0 0 0-4.576 4.575 4.543 4.543 0 0 0 4.576 4.576Zm0-1.412c-1.765 0-3.126-1.348-3.126-3.164 0-1.815 1.361-3.163 3.126-3.163 1.764 0 3.126 1.348 3.126 3.163 0 1.816-1.362 3.164-3.126 3.164Z" opacity=".8"/><g filter="url(#g)" style="mix-blend-mode:color-dodge"><path fill="url(#h)" fill-opacity=".5" d="M398.404 91.887c-1.78-12.972 27.448-15.54 38.947-12.837 11.498 2.703 18.495 15.61 0 22.295-11.963 4.324-36.721 6.757-38.947-9.458Z"/></g><g filter="url(#i)"><path fill="url(#j)" fill-opacity=".8" d="M369.867 130.37c-1.566-12.378 20.567-2.132 21.867 12.368 1.3 14.5-1.823 16.247-14.837 3.415-7.03-6.933-5.672-5.043-7.03-15.783Z"/></g></g><defs><radialGradient id="b" cx="0" cy="0" r="1" gradientTransform="matrix(223.74346 366.95232 -523.39149 319.1298 121.641 -84.05)" gradientUnits="userSpaceOnUse"><stop stop-color="#585858"/><stop offset="1" stop-color="#323232"/></radialGradient><radialGradient id="c" cx="0" cy="0" r="1" gradientTransform="matrix(-14.6553 93.27895 -69.40047 -10.90369 425.395 68)" gradientUnits="userSpaceOnUse"><stop stop-color="#FD7"/><stop offset="1" stop-color="#AE8816"/></radialGradient><radialGradient id="e" cx="0" cy="0" r="1" gradientTransform="matrix(-14.6553 93.27895 -69.40047 -10.90369 425.395 68)" gradientUnits="userSpaceOnUse"><stop stop-color="#fff"/><stop offset="1" stop-color="#A2A2A2"/></radialGradient><linearGradient id="f" x1="409.671" x2="409.671" y1="68" y2="161.279" gradientUnits="userSpaceOnUse"><stop stop-color="#F4E7BF"/><stop offset="1" stop-color="#F4E7BF" stop-opacity="0"/></linearGradient><linearGradient id="h" x1="422.946" x2="407.217" y1="79.552" y2="111.442" gradientUnits="userSpaceOnUse"><stop stop-color="#FEE9B7"/><stop offset="1" stop-color="#F8BA2F" stop-opacity="0"/></linearGradient><linearGradient id="j" x1="375.228" x2="362.163" y1="127.246" y2="159.35" gradientUnits="userSpaceOnUse"><stop stop-color="#FFDD91"/><stop offset="1" stop-color="#F9AC00" stop-opacity="0"/></linearGradient><filter id="a" width="479" height="264.711" x="0" y="0" color-interpolation-filters="sRGB" filterUnits="userSpaceOnUse"><feFlood flood-opacity="0" result="BackgroundImageFix"/><feColorMatrix in="SourceAlpha" result="hardAlpha" values="0 0 0 0 0 0 0 0 0 0 0 0 0 0 0 0 0 0 127 0"/><feOffset dy="5.042"/><feComposite in2="hardAlpha" operator="out"/><feColorMatrix values="0 0 0 0 0.0709999 0 0 0 0 0.0709999 0 0 0 0 0.0709999 0 0 0 0.25 0"/><feBlend in2="BackgroundImageFix" result="effect1_dropShadow_4940_9980"/><feBlend in="SourceGraphic" in2="effect1_dropShadow_4940_9980" result="shape"/></filter><filter id="g" width="105.884" height="81.934" x="370.595" y="50.353" color-interpolation-filters="sRGB" filterUnits="userSpaceOnUse"><feFlood flood-opacity="0" result="BackgroundImageFix"/><feBlend in="SourceGraphic" in2="BackgroundImageFix" result="shape"/><feGaussianBlur result="effect1_foregroundBlur_4940_9980" stdDeviation="13.866"/></filter><filter id="i" width="60.033" height="67.769" x="350.88" y="105.925" color-interpolation-filters="sRGB" filterUnits="userSpaceOnUse"><feFlood flood-opacity="0" result="BackgroundImageFix"/><feBlend in="SourceGraphic" in2="BackgroundImageFix" result="shape"/><feGaussianBlur result="effect1_foregroundBlur_4940_9980" stdDeviation="9.454"/></filter></defs></svg>