<svg xmlns="http://www.w3.org/2000/svg" width="481" height="266" fill="none"><g filter="url(#a)"><rect width="480.265" height="260.354" fill="url(#b)" rx="30.333"/></g><path fill="#D1DAF1" d="M37.41 66.087h-7.457v4.954h7.204v2.78h-7.204V81h-2.906V63.306H37.41v2.78ZM39.952 81V62.548h2.73V81h-2.73Zm8.049-5.156c.43 1.971 2.022 2.982 4.044 2.982 1.517 0 2.654-.682 3.26-1.567l2.25 1.314c-1.162 1.72-3.058 2.756-5.535 2.756-4.171 0-6.876-2.857-6.876-6.648 0-3.741 2.705-6.648 6.674-6.648 3.766 0 6.344 3.033 6.344 6.673 0 .38-.05.784-.101 1.138H48Zm-.026-2.225h7.432c-.38-2.174-1.972-3.109-3.615-3.109-2.047 0-3.438 1.213-3.817 3.11ZM71.221 81h-3.16l-3.134-4.322L61.767 81h-3.184l4.752-6.496-4.5-6.143h3.16l2.907 3.994 2.907-3.994h3.185l-4.5 6.168L71.221 81Zm3.199-14.534c-.96 0-1.745-.81-1.745-1.744 0-.961.784-1.745 1.745-1.745.96 0 1.744.784 1.744 1.745 0 .935-.784 1.744-1.744 1.744ZM73.055 81V68.361h2.73V81h-2.73Z"/><path fill="#CED2D6" d="M38.565 108.706v.849c0 3.379-2.441 5.786-6.069 5.786-3.857 0-6.6-2.867-6.6-6.423 0-3.557 2.778-6.423 6.494-6.423 2.353 0 4.353 1.186 5.397 2.937l-1.752 1.009c-.637-1.15-2.017-1.964-3.645-1.964-2.619 0-4.459 1.928-4.459 4.459 0 2.495 1.805 4.423 4.583 4.423 2.247 0 3.627-1.168 3.999-2.831h-4.14v-1.822h6.192Zm3.24 2.795c.301 1.38 1.416 2.088 2.832 2.088 1.061 0 1.858-.478 2.282-1.097l1.575.92c-.814 1.203-2.141 1.929-3.875 1.929-2.92 0-4.813-2-4.813-4.654 0-2.618 1.894-4.653 4.671-4.653 2.637 0 4.442 2.123 4.442 4.671 0 .265-.036.549-.071.796h-7.042Zm-.017-1.557h5.202c-.265-1.521-1.38-2.176-2.53-2.176-1.434 0-2.407.849-2.672 2.176Zm13.472-1.84h-2.194v4.247c0 1.132.743 1.114 2.194 1.044v1.716c-2.937.354-4.105-.46-4.105-2.76v-4.247h-1.628v-1.84h1.628v-1.911l1.911-.566v2.477h2.194v1.84Zm12.206-1.84h1.911v8.847h-1.91v-1.133c-.585.921-1.54 1.363-2.743 1.363-1.982 0-3.398-1.345-3.398-3.645v-5.432h1.911v5.237c0 1.345.779 2.053 1.982 2.053 1.256 0 2.247-.743 2.247-2.548v-4.742Zm9.153-.23c2.406 0 4.406 2.035 4.406 4.653 0 2.637-2 4.654-4.406 4.654-1.38 0-2.424-.566-3.096-1.486v4.795h-1.911v-12.386h1.91v1.274c.673-.938 1.717-1.504 3.097-1.504Zm-.3 7.484c1.592 0 2.795-1.185 2.795-2.831 0-1.645-1.203-2.831-2.796-2.831-1.592 0-2.795 1.186-2.795 2.831 0 1.646 1.203 2.831 2.795 2.831Zm15.798-5.414h-2.194v4.247c0 1.132.743 1.114 2.194 1.044v1.716c-2.937.354-4.105-.46-4.105-2.76v-4.247h-1.628v-1.84h1.628v-1.911l1.91-.566v2.477h2.195v1.84Zm5.546 7.237c-2.583 0-4.671-2.035-4.671-4.654 0-2.636 2.088-4.653 4.671-4.653 2.601 0 4.671 2.017 4.671 4.653 0 2.619-2.07 4.654-4.67 4.654Zm0-1.858c1.557 0 2.76-1.185 2.76-2.796 0-1.61-1.203-2.795-2.76-2.795-1.557 0-2.76 1.185-2.76 2.795 0 1.611 1.203 2.796 2.76 2.796Zm17.193-4.813c1.15.637 1.822 1.699 1.822 3.008 0 2.3-1.752 3.663-4.335 3.663s-4.353-1.363-4.353-3.663c0-1.291.69-2.371 1.823-3.008-.832-.548-1.398-1.433-1.398-2.618 0-2.389 1.858-3.557 3.928-3.557 2.053 0 3.928 1.168 3.928 3.557 0 1.185-.566 2.07-1.415 2.618Zm-2.513-4.246c-1.044 0-1.893.566-1.893 1.716 0 1.097.849 1.716 1.893 1.716 1.026 0 1.893-.619 1.893-1.716 0-1.15-.867-1.716-1.893-1.716Zm0 8.988c1.327 0 2.3-.672 2.3-1.928 0-1.274-.973-1.929-2.3-1.929-1.345 0-2.318.655-2.318 1.929 0 1.256.973 1.928 2.318 1.928Zm8.387-5.255c-1.663 0-2.902-1.274-2.902-2.831 0-1.575 1.239-2.831 2.902-2.831 1.646 0 2.884 1.239 2.884 2.831 0 1.557-1.221 2.831-2.884 2.831Zm-.017-1.557c.76 0 1.273-.584 1.273-1.274 0-.725-.513-1.292-1.273-1.292-.744 0-1.257.567-1.257 1.292 0 .708.513 1.274 1.257 1.274Zm-1.841 6.688 8.157-9.077.956.549-8.157 9.095-.956-.567Zm7.52 2.035c-1.663 0-2.902-1.274-2.902-2.831 0-1.575 1.239-2.831 2.902-2.831 1.646 0 2.884 1.256 2.884 2.831 0 1.557-1.238 2.831-2.884 2.831Zm-.017-1.557c.76 0 1.274-.584 1.274-1.274 0-.725-.514-1.292-1.274-1.292-.744 0-1.257.567-1.257 1.292 0 .708.513 1.274 1.257 1.274Zm7.408-10.121v.765l-.956-.064.563.765-.658.403-.468-.881-.467.881-.658-.403.573-.765-.966.064v-.765l.966.064-.573-.764.658-.404.467.882.468-.882.658.404-.563.764.956-.064Zm11.453 2.389c2.406 0 4.406 2.035 4.406 4.653 0 2.637-2 4.654-4.406 4.654-1.38 0-2.424-.566-3.097-1.486v4.795h-1.911v-12.386h1.911v1.274c.673-.938 1.717-1.504 3.097-1.504Zm-.301 7.484c1.592 0 2.796-1.185 2.796-2.831 0-1.645-1.204-2.831-2.796-2.831-1.593 0-2.796 1.186-2.796 2.831 0 1.646 1.203 2.831 2.796 2.831Zm6.88 1.805a1.325 1.325 0 0 1-1.327-1.327c0-.743.584-1.327 1.327-1.327.726 0 1.327.584 1.327 1.327 0 .726-.601 1.327-1.327 1.327Zm9.658-9.059h1.911v8.847h-1.911v-1.274c-.672.938-1.716 1.504-3.096 1.504-2.407 0-4.406-2.035-4.406-4.654 0-2.636 1.999-4.653 4.406-4.653 1.38 0 2.424.566 3.096 1.486v-1.256Zm-2.795 7.254c1.592 0 2.795-1.185 2.795-2.831 0-1.645-1.203-2.831-2.795-2.831-1.593 0-2.796 1.186-2.796 2.831 0 1.646 1.203 2.831 2.796 2.831Zm8.084 1.805a1.325 1.325 0 0 1-1.327-1.327c0-.743.584-1.327 1.327-1.327.725 0 1.327.584 1.327 1.327 0 .726-.602 1.327-1.327 1.327ZM33.947 125.725h2.035v12.386h-1.593l-5.839-8.405v8.405h-2.034v-12.386h1.592l5.84 8.405v-8.405Zm8.56 12.616c-2.583 0-4.67-2.035-4.67-4.654 0-2.636 2.087-4.653 4.67-4.653 2.602 0 4.672 2.017 4.672 4.653 0 2.619-2.07 4.654-4.671 4.654Zm0-1.858c1.558 0 2.76-1.185 2.76-2.796 0-1.61-1.202-2.795-2.76-2.795-1.556 0-2.76 1.185-2.76 2.795 0 1.611 1.203 2.796 2.76 2.796Zm14.999 1.858c-2.672 0-4.671-2.035-4.671-4.654 0-2.636 2-4.653 4.671-4.653 1.734 0 3.238.902 3.946 2.282l-1.646.956c-.389-.832-1.256-1.363-2.318-1.363-1.557 0-2.742 1.186-2.742 2.778 0 1.593 1.185 2.778 2.742 2.778 1.062 0 1.929-.548 2.354-1.362l1.645.938c-.743 1.397-2.247 2.3-3.981 2.3Zm9.4 0c-2.583 0-4.671-2.035-4.671-4.654 0-2.636 2.088-4.653 4.67-4.653 2.602 0 4.672 2.017 4.672 4.653 0 2.619-2.07 4.654-4.671 4.654Zm0-1.858c1.557 0 2.76-1.185 2.76-2.796 0-1.61-1.203-2.795-2.76-2.795-1.557 0-2.76 1.185-2.76 2.795 0 1.611 1.203 2.796 2.76 2.796Zm16.06-7.449c2 0 3.344 1.38 3.344 3.592v5.485H84.4v-5.361c0-1.239-.673-1.929-1.717-1.929-1.133 0-1.929.725-1.929 2.336v4.954h-1.91v-5.361c0-1.239-.62-1.929-1.664-1.929-1.08 0-1.964.725-1.964 2.336v4.954h-1.91v-8.847h1.91v1.061c.566-.867 1.433-1.291 2.53-1.291 1.15 0 2 .513 2.513 1.398.584-.92 1.522-1.398 2.707-1.398Zm15.05 0c2 0 3.344 1.38 3.344 3.592v5.485h-1.91v-5.361c0-1.239-.673-1.929-1.717-1.929-1.132 0-1.928.725-1.928 2.336v4.954h-1.911v-5.361c0-1.239-.62-1.929-1.664-1.929-1.079 0-1.964.725-1.964 2.336v4.954h-1.91v-8.847h1.91v1.061c.566-.867 1.433-1.291 2.53-1.291 1.15 0 2 .513 2.513 1.398.584-.92 1.522-1.398 2.707-1.398Zm6.345-1.097a1.235 1.235 0 0 1-1.221-1.221c0-.672.549-1.221 1.221-1.221s1.221.549 1.221 1.221c0 .655-.549 1.221-1.221 1.221Zm-.955 10.174v-8.847h1.911v8.847h-1.911Zm9.066-7.007h-2.194v4.247c0 1.132.743 1.114 2.194 1.044v1.716c-2.937.354-4.105-.46-4.105-2.76v-4.247h-1.628v-1.84h1.628v-1.911l1.911-.566v2.477h2.194v1.84Zm11.48-2.07c2 0 3.345 1.38 3.345 3.592v5.485h-1.911v-5.361c0-1.239-.673-1.929-1.717-1.929-1.132 0-1.928.725-1.928 2.336v4.954h-1.911v-5.361c0-1.239-.62-1.929-1.663-1.929-1.08 0-1.965.725-1.965 2.336v4.954h-1.91v-8.847h1.91v1.061c.567-.867 1.434-1.291 2.531-1.291 1.15 0 1.999.513 2.512 1.398.584-.92 1.522-1.398 2.707-1.398Zm6.894 5.467c.301 1.38 1.415 2.088 2.831 2.088 1.061 0 1.858-.478 2.282-1.097l1.575.92c-.814 1.203-2.141 1.929-3.875 1.929-2.919 0-4.813-2-4.813-4.654 0-2.618 1.894-4.653 4.672-4.653 2.636 0 4.441 2.123 4.441 4.671 0 .265-.036.549-.071.796h-7.042Zm-.018-1.557h5.202c-.265-1.521-1.38-2.176-2.53-2.176-1.433 0-2.406.849-2.672 2.176Zm13.466-3.91c1.982 0 3.397 1.345 3.397 3.645v5.432h-1.911v-5.238c0-1.344-.778-2.052-1.982-2.052-1.256 0-2.247.743-2.247 2.548v4.742h-1.911v-8.847h1.911v1.132c.584-.92 1.54-1.362 2.743-1.362Zm10.391 2.07h-2.194v4.247c0 1.132.743 1.114 2.194 1.044v1.716c-2.937.354-4.105-.46-4.105-2.76v-4.247h-1.628v-1.84h1.628v-1.911l1.911-.566v2.477h2.194v1.84Zm3.121.602c0 1.61 4.76.637 4.76 3.91 0 1.769-1.539 2.725-3.45 2.725-1.77 0-3.044-.796-3.61-2.07l1.646-.956c.283.796.991 1.274 1.964 1.274.849 0 1.504-.283 1.504-.991 0-1.574-4.76-.69-4.76-3.857 0-1.663 1.433-2.707 3.238-2.707 1.451 0 2.654.672 3.274 1.84l-1.611.902c-.318-.69-.937-1.008-1.663-1.008-.69 0-1.292.301-1.292.938Zm7.417 6.617a1.325 1.325 0 0 1-1.327-1.327c0-.743.584-1.327 1.327-1.327.726 0 1.327.584 1.327 1.327 0 .726-.601 1.327-1.327 1.327ZM43.93 174.002h1.769v12.386h-2.035v-10.209l-2.495.707-.496-1.734 3.256-1.15Zm14.598 3.539h2.035l-3.398 9.13c-.831 2.247-2.282 3.38-4.317 3.256v-1.787c1.239.07 1.911-.567 2.353-1.734l.089-.177-3.751-8.688h2.088l2.636 6.423 2.265-6.423Zm4.388 5.237c.3 1.381 1.416 2.088 2.831 2.088 1.062 0 1.858-.477 2.282-1.097l1.575.92c-.814 1.204-2.14 1.929-3.875 1.929-2.92 0-4.813-1.999-4.813-4.654 0-2.618 1.894-4.653 4.672-4.653 2.636 0 4.441 2.123 4.441 4.671 0 .266-.035.549-.07.796h-7.043Zm-.018-1.557H68.1c-.265-1.521-1.38-2.176-2.53-2.176-1.433 0-2.406.849-2.672 2.176Zm15.767-3.68h1.911v8.847h-1.91v-1.274c-.673.938-1.717 1.504-3.097 1.504-2.406 0-4.406-2.035-4.406-4.654 0-2.636 2-4.653 4.406-4.653 1.38 0 2.424.566 3.096 1.486v-1.256Zm-2.795 7.255c1.592 0 2.795-1.186 2.795-2.832 0-1.645-1.203-2.831-2.795-2.831-1.593 0-2.796 1.186-2.796 2.831 0 1.646 1.203 2.832 2.796 2.832Zm8.845-5.769c.53-1.203 1.61-1.645 2.725-1.645v2.07c-1.257-.089-2.725.495-2.725 2.477v4.459h-1.911v-8.847h1.91v1.486Z"/><rect width="76.437" height="41.326" x="26.225" y="160.225" stroke="#555" stroke-linecap="round" stroke-width="1.896" rx="20.663"/><path fill="#CED2D6" d="m132.744 186.388-3.503-12.386h2.141l2.601 9.679 2.813-9.679h1.875l2.796 9.679 2.601-9.679h2.141l-3.503 12.386h-2.354l-2.618-9.042-2.637 9.042h-2.353Zm15.544-10.174a1.235 1.235 0 0 1-1.221-1.221c0-.672.549-1.221 1.221-1.221s1.221.549 1.221 1.221c0 .655-.549 1.221-1.221 1.221Zm-.955 10.174v-8.847h1.911v8.847h-1.911Zm9.066-7.007h-2.194v4.247c0 1.132.743 1.114 2.194 1.044v1.716c-2.937.354-4.105-.46-4.105-2.76v-4.247h-1.628v-1.84h1.628v-1.911l1.911-.566v2.477h2.194v1.84Zm6.387-2.07c1.981 0 3.397 1.345 3.397 3.645v5.432h-1.911v-5.237c0-1.345-.779-2.053-1.982-2.053-1.256 0-2.247.743-2.247 2.548v4.742h-1.911v-12.386h1.911v4.671c.584-.92 1.539-1.362 2.743-1.362Zm12.461-3.309h1.911v12.386h-1.911v-1.274c-.672.938-1.716 1.504-3.096 1.504-2.407 0-4.406-2.035-4.406-4.654 0-2.636 1.999-4.653 4.406-4.653 1.38 0 2.424.566 3.096 1.486v-4.795Zm-2.795 10.794c1.592 0 2.795-1.186 2.795-2.832 0-1.645-1.203-2.831-2.795-2.831-1.593 0-2.796 1.186-2.796 2.831 0 1.646 1.203 2.832 2.796 2.832Zm8.845-5.769c.53-1.203 1.61-1.645 2.724-1.645v2.07c-1.256-.089-2.724.495-2.724 2.477v4.459h-1.911v-8.847h1.911v1.486Zm10.729-1.486h1.91v8.847h-1.91v-1.274c-.673.938-1.717 1.504-3.097 1.504-2.406 0-4.406-2.035-4.406-4.654 0-2.636 2-4.653 4.406-4.653 1.38 0 2.424.566 3.097 1.486v-1.256Zm-2.796 7.255c1.592 0 2.796-1.186 2.796-2.832 0-1.645-1.204-2.831-2.796-2.831-1.593 0-2.796 1.186-2.796 2.831 0 1.646 1.203 2.832 2.796 2.832Zm17.126-7.255h2.017l-2.778 8.847h-1.876l-1.84-5.963-1.858 5.963h-1.875l-2.778-8.847h2.017l1.716 6.104 1.858-6.104h1.822l1.841 6.104 1.734-6.104Zm14.854 0h1.911v8.847h-1.911v-1.274c-.672.938-1.716 1.504-3.096 1.504-2.407 0-4.406-2.035-4.406-4.654 0-2.636 1.999-4.653 4.406-4.653 1.38 0 2.424.566 3.096 1.486v-1.256Zm-2.795 7.255c1.592 0 2.795-1.186 2.795-2.832 0-1.645-1.203-2.831-2.795-2.831-1.593 0-2.796 1.186-2.796 2.831 0 1.646 1.203 2.832 2.796 2.832Zm11.587-7.485c1.982 0 3.397 1.345 3.397 3.645v5.432h-1.911v-5.237c0-1.345-.778-2.053-1.981-2.053-1.257 0-2.248.743-2.248 2.548v4.742h-1.91v-8.847h1.91v1.132c.584-.92 1.54-1.362 2.743-1.362Zm11.245.23h2.035l-3.397 9.13c-.832 2.247-2.283 3.38-4.318 3.256v-1.787c1.239.07 1.911-.567 2.354-1.734l.088-.177-3.751-8.688h2.088l2.636 6.423 2.265-6.423Zm8.166 1.84h-2.194v4.247c0 1.132.743 1.114 2.194 1.044v1.716c-2.937.354-4.105-.46-4.105-2.76v-4.247h-1.628v-1.84h1.628v-1.911l1.911-.566v2.477h2.194v1.84Zm2.689-3.167a1.235 1.235 0 0 1-1.221-1.221c0-.672.549-1.221 1.221-1.221s1.221.549 1.221 1.221c0 .655-.549 1.221-1.221 1.221Zm-.955 10.174v-8.847h1.91v8.847h-1.91Zm13.79-9.077c2 0 3.344 1.38 3.344 3.592v5.485h-1.911v-5.361c0-1.239-.672-1.929-1.716-1.929-1.132 0-1.929.726-1.929 2.336v4.954h-1.911v-5.361c0-1.239-.619-1.929-1.663-1.929-1.079 0-1.964.726-1.964 2.336v4.954h-1.911v-8.847h1.911v1.062c.566-.867 1.433-1.292 2.53-1.292 1.151 0 2 .513 2.513 1.398.584-.92 1.522-1.398 2.707-1.398Zm6.894 5.467c.3 1.381 1.415 2.088 2.831 2.088 1.061 0 1.857-.477 2.282-1.097l1.575.92c-.814 1.204-2.141 1.929-3.875 1.929-2.92 0-4.813-1.999-4.813-4.654 0-2.618 1.893-4.653 4.671-4.653 2.637 0 4.442 2.123 4.442 4.671 0 .266-.036.549-.071.796h-7.042Zm-.018-1.557h5.202c-.266-1.521-1.38-2.176-2.53-2.176-1.434 0-2.407.849-2.672 2.176Z"/><rect width="179.437" height="41.326" x="114.668" y="160.225" stroke="#555" stroke-width="1.896" rx="20.663"/><mask id="e" width="95" height="101" x="364" y="65" maskUnits="userSpaceOnUse" style="mask-type:alpha"><path fill="#5E38EF" d="M396.944 70.264a29.071 29.071 0 0 1 29.112 0l17.029 9.847a29.171 29.171 0 0 1 14.558 25.256v19.695a29.172 29.172 0 0 1-14.558 25.256l-17.029 9.847a29.07 29.07 0 0 1-29.112 0l-17.029-9.847a29.172 29.172 0 0 1-14.558-25.256v-19.695c0-10.42 5.55-20.047 14.558-25.256l17.029-9.847Z"/><path fill="url(#c)" fill-opacity=".6" d="M396.944 70.264a29.071 29.071 0 0 1 29.112 0l17.029 9.847a29.171 29.171 0 0 1 14.558 25.256v19.695a29.172 29.172 0 0 1-14.558 25.256l-17.029 9.847a29.07 29.07 0 0 1-29.112 0l-17.029-9.847a29.172 29.172 0 0 1-14.558-25.256v-19.695c0-10.42 5.55-20.047 14.558-25.256l17.029-9.847Z"/><path stroke="url(#d)" stroke-width="2.714" d="M396.944 70.264a29.071 29.071 0 0 1 29.112 0l17.029 9.847a29.171 29.171 0 0 1 14.558 25.256v19.695a29.172 29.172 0 0 1-14.558 25.256l-17.029 9.847a29.07 29.07 0 0 1-29.112 0l-17.029-9.847a29.172 29.172 0 0 1-14.558-25.256v-19.695c0-10.42 5.55-20.047 14.558-25.256l17.029-9.847Z"/></mask><g mask="url(#e)"><path fill="#6A4CE0" d="M397.118 70.566a28.723 28.723 0 0 1 28.763 0l17.029 9.847a28.822 28.822 0 0 1 14.384 24.954v19.695a28.824 28.824 0 0 1-14.384 24.954l-17.029 9.847a28.724 28.724 0 0 1-28.763 0l-17.028-9.847a28.824 28.824 0 0 1-14.384-24.954v-19.695a28.822 28.822 0 0 1 14.384-24.954l17.028-9.847Z"/><path fill="url(#f)" fill-opacity=".6" d="M397.118 70.566a28.723 28.723 0 0 1 28.763 0l17.029 9.847a28.822 28.822 0 0 1 14.384 24.954v19.695a28.824 28.824 0 0 1-14.384 24.954l-17.029 9.847a28.724 28.724 0 0 1-28.763 0l-17.028-9.847a28.824 28.824 0 0 1-14.384-24.954v-19.695a28.822 28.822 0 0 1 14.384-24.954l17.028-9.847Z"/><path stroke="url(#g)" stroke-width="3.412" d="M397.118 70.566a28.723 28.723 0 0 1 28.763 0l17.029 9.847a28.822 28.822 0 0 1 14.384 24.954v19.695a28.824 28.824 0 0 1-14.384 24.954l-17.029 9.847a28.724 28.724 0 0 1-28.763 0l-17.028-9.847a28.824 28.824 0 0 1-14.384-24.954v-19.695a28.822 28.822 0 0 1 14.384-24.954l17.028-9.847Z"/><g filter="url(#h)" style="mix-blend-mode:color-dodge"><path fill="url(#i)" fill-opacity=".5" d="M399.37 90.717c-1.917-13.966 29.551-16.73 41.931-13.82 12.38 2.91 19.913 16.806 0 24.004-12.879 4.656-39.535 7.274-41.931-10.184Z"/></g><g filter="url(#j)"><path fill="url(#k)" fill-opacity=".8" d="M368.645 132.15c-1.685-13.326 22.144-2.295 23.543 13.317 1.4 15.612-1.963 17.492-15.973 3.676-7.57-7.464-6.108-5.429-7.57-16.993Z"/></g><path fill="#fff" d="M395.918 100.091c-2.09 0-3.597-1.276-3.597-3.325v-6.352h1.561v6.257c0 1.113.638 1.9 2.036 1.9 1.397 0 2.035-.787 2.035-1.9v-6.257h1.561v6.352c0 2.049-1.52 3.325-3.596 3.325Zm9.571-9.677c1.792 0 3.149 1.357 3.149 3.122 0 1.75-1.357 3.121-3.149 3.121h-1.941v3.257h-1.56v-9.5h3.501Zm0 4.777c.923 0 1.588-.705 1.588-1.655 0-.964-.665-1.656-1.588-1.656h-1.941v3.311h1.941Zm15.429-4.777v1.493h-2.674v8.007h-1.561v-8.007h-2.687v-1.493h6.922Zm5.74 9.677a4.892 4.892 0 0 1-4.926-4.927 4.892 4.892 0 0 1 4.926-4.926 4.884 4.884 0 0 1 4.927 4.926 4.884 4.884 0 0 1-4.927 4.927Zm0-1.52c1.9 0 3.366-1.452 3.366-3.407 0-1.954-1.466-3.406-3.366-3.406-1.9 0-3.365 1.452-3.365 3.406 0 1.955 1.465 3.407 3.365 3.407Z" opacity=".4"/></g><path fill="#fff" d="M405.728 122.344c2.117 1.173 3.355 3.127 3.355 5.537 0 4.234-3.225 6.742-7.98 6.742-4.756 0-8.013-2.508-8.013-6.742 0-2.378 1.27-4.364 3.355-5.537-1.531-1.01-2.573-2.638-2.573-4.821 0-4.397 3.42-6.546 7.231-6.546 3.778 0 7.231 2.149 7.231 6.546 0 2.183-1.043 3.811-2.606 4.821Zm-4.625-7.817c-1.922 0-3.485 1.042-3.485 3.159 0 2.02 1.563 3.16 3.485 3.16 1.889 0 3.485-1.14 3.485-3.16 0-2.117-1.596-3.159-3.485-3.159Zm0 16.546c2.443 0 4.234-1.238 4.234-3.55 0-2.345-1.791-3.55-4.234-3.55-2.476 0-4.267 1.205-4.267 3.55 0 2.312 1.791 3.55 4.267 3.55ZM415.441 123.247c-2.551 0-4.451-1.954-4.451-4.343 0-2.415 1.9-4.343 4.451-4.343 2.525 0 4.425 1.9 4.425 4.343 0 2.389-1.873 4.343-4.425 4.343Zm-.027-2.388c1.167 0 1.954-.896 1.954-1.955 0-1.113-.787-1.981-1.954-1.981-1.14 0-1.927.868-1.927 1.981 0 1.086.787 1.955 1.927 1.955Zm-2.823 10.26 12.513-13.925 1.466.842-12.513 13.951-1.466-.868Zm11.536 3.121c-2.551 0-4.451-1.954-4.451-4.343 0-2.416 1.9-4.343 4.451-4.343 2.524 0 4.424 1.927 4.424 4.343 0 2.389-1.9 4.343-4.424 4.343Zm-.027-2.389c1.167 0 1.954-.895 1.954-1.954 0-1.113-.787-1.981-1.954-1.981-1.14 0-1.927.868-1.927 1.981 0 1.086.787 1.954 1.927 1.954Zm11.364-16.855v1.173l-1.466-.098.863 1.173-1.01.619-.716-1.352-.717 1.352-1.009-.619.879-1.173-1.482.098v-1.173l1.482.098-.879-1.173 1.009-.618.717 1.351.716-1.351 1.01.618-.863 1.173 1.466-.098Z"/><defs><linearGradient id="d" x1="411.5" x2="411.5" y1="65" y2="165.429" gradientUnits="userSpaceOnUse"><stop stop-color="#C0B7E1" stop-opacity="0"/><stop offset="1" stop-color="#C0B7E1"/></linearGradient><linearGradient id="g" x1="411.5" x2="411.5" y1="65" y2="165.429" gradientUnits="userSpaceOnUse"><stop stop-color="#C0B7E1"/><stop offset="1" stop-color="#C0B7E1" stop-opacity="0"/></linearGradient><linearGradient id="i" x1="425.793" x2="408.858" y1="77.437" y2="111.772" gradientUnits="userSpaceOnUse"><stop stop-color="#FFF2D6"/><stop offset="1" stop-color="#F8BD38" stop-opacity="0"/></linearGradient><linearGradient id="k" x1="374.417" x2="360.351" y1="128.787" y2="163.352" gradientUnits="userSpaceOnUse"><stop stop-color="#E6E4DF"/><stop offset="1" stop-color="#B7A479" stop-opacity="0"/></linearGradient><radialGradient id="b" cx="0" cy="0" r="1" gradientTransform="rotate(58.628 136.024 66.469) scale(430.92 614.63)" gradientUnits="userSpaceOnUse"><stop stop-color="#585858"/><stop offset="1" stop-color="#323232"/></radialGradient><radialGradient id="c" cx="0" cy="0" r="1" gradientTransform="matrix(-15.77867 100.42904 -74.71982 -11.73943 428.429 65)" gradientUnits="userSpaceOnUse"><stop stop-color="#fff"/><stop offset="1" stop-color="#A2A2A2"/></radialGradient><radialGradient id="f" cx="0" cy="0" r="1" gradientTransform="matrix(-15.77867 100.42904 -74.71982 -11.73943 428.429 65)" gradientUnits="userSpaceOnUse"><stop stop-color="#fff"/><stop offset="1" stop-color="#A2A2A2"/></radialGradient><filter id="a" width="480.265" height="265.41" x="0" y="0" color-interpolation-filters="sRGB" filterUnits="userSpaceOnUse"><feFlood flood-opacity="0" result="BackgroundImageFix"/><feColorMatrix in="SourceAlpha" result="hardAlpha" values="0 0 0 0 0 0 0 0 0 0 0 0 0 0 0 0 0 0 127 0"/><feOffset dy="5.055"/><feComposite in2="hardAlpha" operator="out"/><feColorMatrix values="0 0 0 0 0.0709999 0 0 0 0 0.0709999 0 0 0 0 0.0709999 0 0 0 0.25 0"/><feBlend in2="BackgroundImageFix" result="effect1_dropShadow_4940_10046"/><feBlend in="SourceGraphic" in2="effect1_dropShadow_4940_10046" result="shape"/></filter><filter id="h" width="114" height="88.214" x="369.429" y="46" color-interpolation-filters="sRGB" filterUnits="userSpaceOnUse"><feFlood flood-opacity="0" result="BackgroundImageFix"/><feBlend in="SourceGraphic" in2="BackgroundImageFix" result="shape"/><feGaussianBlur result="effect1_foregroundBlur_4940_10046" stdDeviation="14.929"/></filter><filter id="j" width="64.635" height="72.964" x="348.203" y="105.832" color-interpolation-filters="sRGB" filterUnits="userSpaceOnUse"><feFlood flood-opacity="0" result="BackgroundImageFix"/><feBlend in="SourceGraphic" in2="BackgroundImageFix" result="shape"/><feGaussianBlur result="effect1_foregroundBlur_4940_10046" stdDeviation="10.179"/></filter></defs></svg>