<svg xmlns="http://www.w3.org/2000/svg" width="479" height="388" fill="none"><path fill="#fff" d="M440.426 115.384v1.728l-2.16-.144 1.272 1.728-1.488.912-1.056-1.992-1.056 1.992-1.488-.912 1.296-1.728-2.184.144v-1.728l2.184.144-1.296-1.728 1.488-.912 1.056 1.992 1.056-1.992 1.488.912-1.272 1.728 2.16-.144Z"/><g filter="url(#a)"><rect width="477.911" height="259.078" x=".816" y="47.426" fill="url(#b)" rx="30.184"/></g><path fill="#BBC8E9" d="M33.154 128.327c-3.467 0-5.854-1.709-6.784-4.322l2.488-1.458c.628 1.784 1.985 2.965 4.372 2.965 2.287 0 3.267-1.03 3.267-2.311 0-1.558-1.383-2.086-3.996-2.89-2.739-.829-5.402-1.834-5.402-5.151 0-3.242 2.688-5.076 5.653-5.076 2.89 0 5.026 1.533 6.132 3.87l-2.438 1.407c-.628-1.407-1.734-2.463-3.694-2.463-1.683 0-2.764.855-2.764 2.186 0 1.357.98 1.935 3.543 2.739 2.915.93 5.855 1.835 5.855 5.327 0 3.217-2.563 5.177-6.232 5.177Zm15.179-13.218c2.814 0 4.825 1.91 4.825 5.177V128h-2.714v-7.438c0-1.91-1.106-2.915-2.815-2.915-1.784 0-3.19 1.056-3.19 3.619V128h-2.715v-17.589h2.714v6.633c.83-1.306 2.186-1.935 3.895-1.935Zm13.677 13.218c-3.669 0-6.634-2.89-6.634-6.609 0-3.744 2.965-6.609 6.634-6.609 3.694 0 6.634 2.865 6.634 6.609 0 3.719-2.94 6.609-6.634 6.609Zm0-2.639c2.211 0 3.92-1.683 3.92-3.97s-1.709-3.97-3.92-3.97-3.92 1.683-3.92 3.97 1.709 3.97 3.92 3.97Zm11.801-8.141c.754-1.709 2.287-2.337 3.87-2.337v2.94c-1.784-.126-3.87.703-3.87 3.518V128h-2.714v-12.564h2.714v2.111Zm13.205.502H83.9v6.031c0 1.608 1.055 1.583 3.116 1.483V128c-4.172.503-5.83-.653-5.83-3.92v-6.031h-2.312v-2.613h2.312v-2.714l2.714-.804v3.518h3.116v2.613Zm2.514 3.619v-2.613h9.297v2.613H89.53Zm19.399-3.619h-3.116v6.031c0 1.608 1.055 1.583 3.116 1.483V128c-4.171.503-5.83-.653-5.83-3.92v-6.031h-2.312v-2.613h2.312v-2.714l2.714-.804v3.518h3.116v2.613Zm4.082 4.825c.427 1.96 2.01 2.965 4.02 2.965 1.508 0 2.639-.678 3.242-1.558l2.236 1.307c-1.156 1.708-3.04 2.739-5.503 2.739-4.146 0-6.835-2.84-6.835-6.609 0-3.719 2.689-6.609 6.634-6.609 3.744 0 6.307 3.016 6.307 6.634 0 .377-.05.779-.1 1.131h-10.001Zm-.025-2.211h7.387c-.377-2.161-1.96-3.091-3.593-3.091-2.035 0-3.417 1.206-3.794 3.091Zm15.228-3.116c.754-1.709 2.286-2.337 3.87-2.337v2.94c-1.785-.126-3.87.703-3.87 3.518V128H125.5v-12.564h2.714v2.111Zm19.594-2.438c2.84 0 4.75 1.96 4.75 5.101V128h-2.714v-7.614c0-1.759-.955-2.739-2.438-2.739-1.608 0-2.739 1.031-2.739 3.317V128h-2.713v-7.614c0-1.759-.88-2.739-2.362-2.739-1.533 0-2.79 1.031-2.79 3.317V128h-2.713v-12.564h2.713v1.508c.805-1.231 2.036-1.835 3.594-1.835 1.633 0 2.839.729 3.568 1.986.829-1.307 2.161-1.986 3.844-1.986Z"/><path fill="#CED2D6" d="M38.75 155.684v.844c0 3.36-2.427 5.752-6.033 5.752-3.834 0-6.56-2.85-6.56-6.385 0-3.536 2.76-6.385 6.455-6.385 2.34 0 4.327 1.178 5.364 2.92l-1.74 1.002c-.634-1.143-2.006-1.952-3.624-1.952-2.604 0-4.433 1.917-4.433 4.432 0 2.481 1.794 4.398 4.556 4.398 2.234 0 3.606-1.161 3.975-2.815h-4.116v-1.811h6.156Zm3.222 2.779c.299 1.372 1.407 2.075 2.814 2.075 1.055 0 1.847-.474 2.269-1.09l1.566.915c-.81 1.196-2.129 1.917-3.853 1.917-2.902 0-4.784-1.988-4.784-4.626 0-2.603 1.882-4.626 4.644-4.626 2.62 0 4.415 2.11 4.415 4.643 0 .264-.036.546-.07.792h-7.001Zm-.018-1.548h5.171c-.264-1.513-1.372-2.164-2.515-2.164-1.425 0-2.392.845-2.656 2.164Zm13.393-1.829h-2.181v4.221c0 1.126.738 1.108 2.18 1.038v1.706c-2.92.352-4.08-.457-4.08-2.744v-4.221h-1.618v-1.83h1.618v-1.899l1.9-.563v2.462h2.18v1.83Zm10.832-2.058c1.97 0 3.377 1.337 3.377 3.623v5.4h-1.9v-5.206c0-1.337-.773-2.041-1.97-2.041-1.248 0-2.233.739-2.233 2.533v4.714h-1.9v-12.312h1.9v4.643c.58-.915 1.53-1.354 2.726-1.354Zm6.372-1.091a1.228 1.228 0 0 1-1.213-1.213c0-.669.545-1.214 1.213-1.214.669 0 1.214.545 1.214 1.214 0 .65-.545 1.213-1.214 1.213Zm-.95 10.114v-8.795h1.9v8.795h-1.9Zm11.107-8.795h1.864v8.391c0 2.831-2.216 4.151-4.52 4.151-1.935 0-3.43-.721-4.17-2.129l1.637-.949c.387.756 1.037 1.354 2.568 1.354 1.636 0 2.62-.897 2.62-2.427v-1.073c-.668.949-1.706 1.53-3.06 1.53-2.48 0-4.433-2.023-4.433-4.538s1.953-4.538 4.433-4.538c1.354 0 2.392.58 3.06 1.53v-1.302Zm-2.797 7.071c1.6 0 2.797-1.178 2.797-2.761 0-1.583-1.197-2.762-2.797-2.762s-2.797 1.179-2.797 2.762 1.196 2.761 2.797 2.761Zm11.501-7.299c1.97 0 3.377 1.337 3.377 3.623v5.4h-1.9v-5.206c0-1.337-.773-2.041-1.97-2.041-1.248 0-2.233.739-2.233 2.533v4.714h-1.9v-12.312h1.9v4.643c.58-.915 1.53-1.354 2.726-1.354Zm6.918 5.435c.299 1.372 1.407 2.075 2.814 2.075 1.056 0 1.847-.474 2.269-1.09l1.566.915c-.809 1.196-2.128 1.917-3.852 1.917-2.902 0-4.785-1.988-4.785-4.626 0-2.603 1.883-4.626 4.644-4.626 2.621 0 4.415 2.11 4.415 4.643 0 .264-.035.546-.07.792H98.33Zm-.018-1.548h5.172c-.264-1.513-1.372-2.164-2.516-2.164-1.424 0-2.392.845-2.656 2.164Zm10.66-2.181c.528-1.196 1.601-1.636 2.709-1.636v2.058c-1.249-.088-2.709.493-2.709 2.463v4.432h-1.899v-8.795h1.899v1.478Zm10.41 0c.527-1.196 1.6-1.636 2.708-1.636v2.058c-1.249-.088-2.708.493-2.708 2.463v4.432h-1.9v-8.795h1.9v1.478Zm5.195 3.729c.299 1.372 1.407 2.075 2.814 2.075 1.055 0 1.847-.474 2.269-1.09l1.566.915c-.81 1.196-2.129 1.917-3.853 1.917-2.902 0-4.784-1.988-4.784-4.626 0-2.603 1.882-4.626 4.644-4.626 2.621 0 4.415 2.11 4.415 4.643 0 .264-.035.546-.071.792h-7Zm-.018-1.548h5.171c-.263-1.513-1.372-2.164-2.515-2.164-1.425 0-2.392.845-2.656 2.164Zm13.393-1.829h-2.181v4.221c0 1.126.739 1.108 2.181 1.038v1.706c-2.92.352-4.081-.457-4.081-2.744v-4.221h-1.618v-1.83h1.618v-1.899l1.9-.563v2.462h2.181v1.83Zm7.736-1.83h1.9v8.795h-1.9v-1.126c-.58.915-1.53 1.355-2.726 1.355-1.97 0-3.377-1.337-3.377-3.624v-5.4h1.899v5.207c0 1.337.774 2.04 1.97 2.04 1.249 0 2.234-.739 2.234-2.533v-4.714Zm6.021 1.478c.528-1.196 1.601-1.636 2.709-1.636v2.058c-1.249-.088-2.709.493-2.709 2.463v4.432h-1.9v-8.795h1.9v1.478Zm8.738-1.706c1.97 0 3.378 1.337 3.378 3.623v5.4h-1.9v-5.206c0-1.337-.774-2.041-1.97-2.041-1.249 0-2.234.739-2.234 2.533v4.714h-1.9v-8.795h1.9v1.126c.581-.915 1.53-1.354 2.726-1.354Zm7.129 2.656c0 1.6 4.732.633 4.732 3.887 0 1.759-1.53 2.709-3.43 2.709-1.759 0-3.026-.792-3.588-2.058l1.635-.95c.282.792.985 1.266 1.953 1.266.844 0 1.495-.281 1.495-.985 0-1.565-4.732-.686-4.732-3.834 0-1.653 1.425-2.691 3.219-2.691 1.443 0 2.639.668 3.254 1.829l-1.6.897c-.317-.686-.933-1.003-1.654-1.003-.686 0-1.284.3-1.284.933Zm15.407-4.345c-1.336-.123-2.075.387-2.075 1.741v.176h2.075v1.83h-2.075v6.965h-1.9v-6.965h-1.337v-1.83h1.337v-.176c0-2.374 1.337-3.746 3.975-3.57v1.829Zm4.851 10.941c-2.568 0-4.644-2.023-4.644-4.626 0-2.621 2.076-4.626 4.644-4.626 2.586 0 4.644 2.005 4.644 4.626 0 2.603-2.058 4.626-4.644 4.626Zm0-1.847c1.548 0 2.744-1.179 2.744-2.779 0-1.601-1.196-2.779-2.744-2.779-1.548 0-2.744 1.178-2.744 2.779 0 1.6 1.196 2.779 2.744 2.779Zm8.261-5.699c.528-1.196 1.601-1.636 2.709-1.636v2.058c-1.249-.088-2.709.493-2.709 2.463v4.432h-1.9v-8.795h1.9v1.478Zm15.475-1.478h1.9v8.795h-1.9v-1.266c-.668.932-1.706 1.495-3.078 1.495-2.392 0-4.38-2.023-4.38-4.626 0-2.621 1.988-4.626 4.38-4.626 1.372 0 2.41.563 3.078 1.477v-1.249Zm-2.779 7.212c1.583 0 2.779-1.178 2.779-2.814 0-1.636-1.196-2.815-2.779-2.815s-2.779 1.179-2.779 2.815 1.196 2.814 2.779 2.814Zm12.996-4.784c0 1.6 4.732.633 4.732 3.887 0 1.759-1.53 2.709-3.43 2.709-1.759 0-3.025-.792-3.588-2.058l1.636-.95c.281.792.985 1.266 1.952 1.266.844 0 1.495-.281 1.495-.985 0-1.565-4.731-.686-4.731-3.834 0-1.653 1.424-2.691 3.218-2.691 1.443 0 2.639.668 3.255 1.829l-1.601.897c-.317-.686-.932-1.003-1.654-1.003-.686 0-1.284.3-1.284.933Zm10.925-2.656c1.97 0 3.377 1.337 3.377 3.623v5.4h-1.9v-5.206c0-1.337-.774-2.041-1.97-2.041-1.248 0-2.233.739-2.233 2.533v4.714h-1.9v-12.312h1.9v4.643c.58-.915 1.53-1.354 2.726-1.354Zm9.574 9.252c-2.568 0-4.644-2.023-4.644-4.626 0-2.621 2.076-4.626 4.644-4.626 2.585 0 4.643 2.005 4.643 4.626 0 2.603-2.058 4.626-4.643 4.626Zm0-1.847c1.547 0 2.744-1.179 2.744-2.779 0-1.601-1.197-2.779-2.744-2.779-1.548 0-2.744 1.178-2.744 2.779 0 1.6 1.196 2.779 2.744 2.779Zm8.261-5.699c.527-1.196 1.6-1.636 2.708-1.636v2.058c-1.248-.088-2.708.493-2.708 2.463v4.432h-1.9v-8.795h1.9v1.478Zm9.243.352h-2.181v4.221c0 1.126.738 1.108 2.181 1.038v1.706c-2.92.352-4.081-.457-4.081-2.744v-4.221h-1.618v-1.83h1.618v-1.899l1.9-.563v2.462h2.181v1.83Zm2.857 3.377c.299 1.372 1.407 2.075 2.814 2.075 1.056 0 1.847-.474 2.269-1.09l1.566.915c-.809 1.196-2.128 1.917-3.852 1.917-2.902 0-4.785-1.988-4.785-4.626 0-2.603 1.883-4.626 4.644-4.626 2.621 0 4.415 2.11 4.415 4.643 0 .264-.035.546-.07.792h-7.001Zm-.018-1.548h5.172c-.264-1.513-1.372-2.164-2.516-2.164-1.424 0-2.392.845-2.656 2.164Zm10.66-2.181c.528-1.196 1.601-1.636 2.709-1.636v2.058c-1.249-.088-2.709.493-2.709 2.463v4.432h-1.899v-8.795h1.899v1.478Zm-245.69 20.203a1.227 1.227 0 0 1-1.214-1.213c0-.669.545-1.214 1.214-1.214.668 0 1.213.545 1.213 1.214 0 .65-.545 1.213-1.213 1.213Zm-.95 10.114v-8.795h1.9v8.795h-1.9Zm8.731-9.023c1.97 0 3.377 1.337 3.377 3.623v5.4h-1.9v-5.206c0-1.337-.773-2.041-1.97-2.041-1.248 0-2.233.739-2.233 2.533v4.714h-1.9v-8.795h1.9v1.126c.58-.915 1.53-1.354 2.726-1.354Zm11.248.228h2.076l-3.43 8.795h-2.199l-3.43-8.795h2.076l2.462 6.684 2.445-6.684Zm4.43 5.207c.3 1.372 1.407 2.075 2.815 2.075 1.055 0 1.847-.474 2.269-1.09l1.565.915c-.809 1.196-2.128 1.917-3.852 1.917-2.902 0-4.784-1.988-4.784-4.626 0-2.603 1.882-4.626 4.643-4.626 2.621 0 4.415 2.11 4.415 4.643 0 .264-.035.546-.07.792h-7Zm-.017-1.548h5.171c-.264-1.513-1.372-2.164-2.515-2.164-1.425 0-2.392.845-2.656 2.164Zm10.123-1.231c0 1.6 4.731.633 4.731 3.887 0 1.759-1.53 2.709-3.43 2.709-1.759 0-3.025-.792-3.588-2.058l1.636-.95c.281.792.985 1.266 1.952 1.266.844 0 1.495-.281 1.495-.985 0-1.565-4.731-.686-4.731-3.834 0-1.653 1.424-2.691 3.218-2.691 1.443 0 2.639.668 3.255 1.829l-1.601.897c-.317-.686-.932-1.003-1.654-1.003-.685 0-1.284.3-1.284.933Zm10.965-.598h-2.181v4.221c0 1.126.739 1.108 2.18 1.038v1.706c-2.919.352-4.08-.457-4.08-2.744v-4.221H66.43v-1.83h1.618v-1.899l1.9-.563v2.462h2.18v1.83Zm11.413-2.058c1.987 0 3.324 1.372 3.324 3.57v5.453h-1.9v-5.329c0-1.232-.668-1.918-1.706-1.918-1.126 0-1.917.721-1.917 2.322v4.925h-1.9v-5.329c0-1.232-.615-1.918-1.653-1.918-1.073 0-1.953.721-1.953 2.322v4.925h-1.9v-8.795h1.9v1.056c.563-.862 1.425-1.284 2.516-1.284 1.143 0 1.987.51 2.497 1.389.58-.914 1.513-1.389 2.692-1.389Zm6.852 5.435c.3 1.372 1.407 2.075 2.814 2.075 1.056 0 1.847-.474 2.27-1.09l1.565.915c-.81 1.196-2.128 1.917-3.852 1.917-2.902 0-4.785-1.988-4.785-4.626 0-2.603 1.883-4.626 4.644-4.626 2.621 0 4.415 2.11 4.415 4.643 0 .264-.035.546-.07.792h-7Zm-.017-1.548h5.17c-.263-1.513-1.371-2.164-2.514-2.164-1.425 0-2.393.845-2.656 2.164Zm13.386-3.887c1.97 0 3.377 1.337 3.377 3.623v5.4h-1.9v-5.206c0-1.337-.774-2.041-1.97-2.041-1.249 0-2.234.739-2.234 2.533v4.714h-1.9v-8.795h1.9v1.126c.581-.915 1.531-1.354 2.727-1.354Zm10.33 2.058h-2.181v4.221c0 1.126.738 1.108 2.181 1.038v1.706c-2.92.352-4.081-.457-4.081-2.744v-4.221h-1.618v-1.83h1.618v-1.899l1.9-.563v2.462h2.181v1.83Zm11.184-2.058c2.392 0 4.38 2.023 4.38 4.626 0 2.621-1.988 4.626-4.38 4.626-1.372 0-2.41-.563-3.078-1.478v4.767h-1.9v-12.313h1.9v1.267c.668-.932 1.706-1.495 3.078-1.495Zm-.299 7.44c1.583 0 2.779-1.178 2.779-2.814 0-1.636-1.196-2.815-2.779-2.815s-2.779 1.179-2.779 2.815 1.196 2.814 2.779 2.814Zm7.895-2.005c.299 1.372 1.408 2.075 2.815 2.075 1.055 0 1.847-.474 2.269-1.09l1.565.915c-.809 1.196-2.128 1.917-3.852 1.917-2.902 0-4.784-1.988-4.784-4.626 0-2.603 1.882-4.626 4.643-4.626 2.621 0 4.415 2.11 4.415 4.643 0 .264-.035.546-.07.792h-7.001Zm-.017-1.548h5.171c-.264-1.513-1.372-2.164-2.515-2.164-1.425 0-2.392.845-2.656 2.164Zm10.66-2.181c.527-1.196 1.6-1.636 2.708-1.636v2.058c-1.249-.088-2.708.493-2.708 2.463v4.432h-1.9v-8.795h1.9v1.478Zm5.062-2.797a1.227 1.227 0 0 1-1.214-1.213c0-.669.545-1.214 1.214-1.214.668 0 1.213.545 1.213 1.214 0 .65-.545 1.213-1.213 1.213Zm-.95 10.114v-8.795h1.9v8.795h-1.9Zm8.256.229c-2.568 0-4.643-2.023-4.643-4.626 0-2.621 2.075-4.626 4.643-4.626 2.586 0 4.644 2.005 4.644 4.626 0 2.603-2.058 4.626-4.644 4.626Zm0-1.847c1.548 0 2.744-1.179 2.744-2.779 0-1.601-1.196-2.779-2.744-2.779-1.548 0-2.744 1.178-2.744 2.779 0 1.6 1.196 2.779 2.744 2.779Zm13.327-10.694h1.9v12.312h-1.9v-1.266c-.668.932-1.706 1.495-3.078 1.495-2.392 0-4.38-2.023-4.38-4.626 0-2.621 1.988-4.626 4.38-4.626 1.372 0 2.41.563 3.078 1.477v-4.766Zm-2.779 10.729c1.583 0 2.779-1.178 2.779-2.814 0-1.636-1.196-2.815-2.779-2.815s-2.779 1.179-2.779 2.815 1.196 2.814 2.779 2.814ZM45.42 225.033c2.55 0 4.344 1.724 4.344 4.204 0 2.48-1.794 4.204-4.345 4.204-2.568 0-4.362-1.724-4.362-4.204 0-.95.264-1.794.739-2.48l3.905-5.858h2.304l-2.814 4.134h.228Zm0 6.49c1.336 0 2.321-.897 2.321-2.286 0-1.407-.985-2.287-2.322-2.287-1.354 0-2.34.88-2.34 2.287s.986 2.286 2.34 2.286Zm19.891-7.334c1.988 0 3.325 1.372 3.325 3.57v5.453h-1.9v-5.33c0-1.231-.668-1.917-1.706-1.917-1.126 0-1.917.721-1.917 2.322v4.925h-1.9v-5.33c0-1.231-.616-1.917-1.653-1.917-1.073 0-1.953.721-1.953 2.322v4.925h-1.9v-8.795h1.9v1.056c.563-.862 1.425-1.284 2.516-1.284 1.143 0 1.987.51 2.497 1.389.58-.914 1.513-1.389 2.691-1.389Zm9.51 9.252c-2.569 0-4.644-2.023-4.644-4.626 0-2.621 2.075-4.626 4.643-4.626 2.586 0 4.644 2.005 4.644 4.626 0 2.603-2.058 4.626-4.644 4.626Zm0-1.847c1.547 0 2.743-1.179 2.743-2.779 0-1.601-1.196-2.779-2.744-2.779-1.548 0-2.744 1.178-2.744 2.779 0 1.6 1.196 2.779 2.744 2.779Zm10.987-7.405c1.97 0 3.377 1.336 3.377 3.623v5.4h-1.9v-5.206c0-1.337-.774-2.041-1.97-2.041-1.249 0-2.234.739-2.234 2.533v4.714h-1.9v-8.795h1.9v1.126c.58-.915 1.53-1.354 2.727-1.354Zm10.33 2.058h-2.181v4.221c0 1.126.738 1.108 2.18 1.038v1.706c-2.92.352-4.08-.457-4.08-2.744v-4.221h-1.618v-1.83h1.618v-1.899l1.9-.563v2.462h2.18v1.83Zm6.349-2.058c1.97 0 3.377 1.336 3.377 3.623v5.4h-1.9v-5.206c0-1.337-.774-2.041-1.97-2.041-1.249 0-2.234.739-2.234 2.533v4.714h-1.9v-12.313h1.9v4.644c.581-.915 1.53-1.354 2.727-1.354Zm7.128 2.656c0 1.6 4.732.633 4.732 3.887 0 1.759-1.53 2.709-3.43 2.709-1.759 0-3.025-.792-3.588-2.058l1.636-.95c.281.791.985 1.266 1.952 1.266.844 0 1.495-.281 1.495-.985 0-1.565-4.731-.686-4.731-3.834 0-1.654 1.424-2.691 3.218-2.691 1.443 0 2.639.668 3.254 1.829l-1.6.897c-.317-.686-.932-1.003-1.654-1.003-.686 0-1.284.299-1.284.933Z"/><rect width="103.269" height="41.218" x="26.483" y="207.103" stroke="#555" stroke-linecap="round" stroke-width="1.885" rx="20.609"/><path fill="#CED2D6" d="M164.519 220.859h2.029v12.353h-1.588l-5.824-8.382v8.382h-2.029v-12.353h1.588l5.824 8.382v-8.382Zm8.538 12.582c-2.577 0-4.659-2.029-4.659-4.641 0-2.629 2.082-4.641 4.659-4.641 2.594 0 4.659 2.012 4.659 4.641 0 2.612-2.065 4.641-4.659 4.641Zm0-1.853c1.553 0 2.753-1.182 2.753-2.788 0-1.606-1.2-2.788-2.753-2.788-1.553 0-2.753 1.182-2.753 2.788 0 1.606 1.2 2.788 2.753 2.788Zm12.294-1.976c.3 1.376 1.412 2.082 2.824 2.082 1.058 0 1.852-.476 2.276-1.094l1.571.918c-.812 1.2-2.136 1.923-3.865 1.923-2.912 0-4.8-1.994-4.8-4.641 0-2.612 1.888-4.641 4.659-4.641 2.629 0 4.429 2.118 4.429 4.659 0 .265-.035.547-.07.794h-7.024Zm-.018-1.553h5.189c-.265-1.518-1.377-2.171-2.524-2.171-1.429 0-2.4.847-2.665 2.171Zm15.726-3.671h1.906v8.824h-1.906v-1.271c-.671.936-1.712 1.5-3.088 1.5-2.4 0-4.395-2.029-4.395-4.641 0-2.629 1.995-4.641 4.395-4.641 1.376 0 2.417.565 3.088 1.482v-1.253Zm-2.788 7.236c1.588 0 2.788-1.183 2.788-2.824 0-1.641-1.2-2.823-2.788-2.823-1.589 0-2.789 1.182-2.789 2.823s1.2 2.824 2.789 2.824Zm8.821-5.753c.53-1.2 1.606-1.642 2.718-1.642v2.065c-1.253-.088-2.718.494-2.718 2.471v4.447h-1.906v-8.824h1.906v1.483Zm4.126 7.341v-12.883h1.906v12.883h-1.906Zm10.066-8.824h2.03l-3.389 9.106c-.829 2.242-2.276 3.371-4.306 3.247v-1.782c1.236.071 1.906-.565 2.347-1.729l.089-.177-3.742-8.665h2.083l2.629 6.406 2.259-6.406Zm17.798 0h2.012l-2.771 8.824h-1.87l-1.836-5.947-1.853 5.947h-1.87l-2.771-8.824h2.012l1.712 6.089 1.853-6.089h1.817l1.836 6.089 1.729-6.089Zm4.368-1.323c-.67 0-1.217-.565-1.217-1.218 0-.67.547-1.218 1.217-1.218a1.22 1.22 0 0 1 1.218 1.218c0 .653-.547 1.218-1.218 1.218Zm-.953 10.147v-8.824h1.906v8.824h-1.906Zm9.043-6.988h-2.188v4.235c0 1.129.741 1.112 2.188 1.041v1.712c-2.93.353-4.094-.459-4.094-2.753v-4.235h-1.624v-1.836h1.624v-1.906l1.906-.564v2.47h2.188v1.836Zm6.37-2.065c1.976 0 3.388 1.341 3.388 3.635v5.418h-1.906v-5.224c0-1.341-.776-2.047-1.976-2.047-1.253 0-2.242.741-2.242 2.542v4.729h-1.906v-12.353h1.906v4.659c.583-.918 1.536-1.359 2.736-1.359Zm12.429-3.3h1.906v12.353h-1.906v-1.271c-.671.936-1.712 1.5-3.089 1.5-2.4 0-4.394-2.029-4.394-4.641 0-2.629 1.994-4.641 4.394-4.641 1.377 0 2.418.565 3.089 1.482v-4.782Zm-2.789 10.765c1.589 0 2.789-1.183 2.789-2.824 0-1.641-1.2-2.823-2.789-2.823-1.588 0-2.788 1.182-2.788 2.823s1.2 2.824 2.788 2.824Zm8.822-5.753c.529-1.2 1.606-1.642 2.718-1.642v2.065c-1.253-.088-2.718.494-2.718 2.471v4.447h-1.906v-8.824h1.906v1.483Zm10.701-1.483h1.905v8.824h-1.905v-1.271c-.671.936-1.712 1.5-3.089 1.5-2.4 0-4.394-2.029-4.394-4.641 0-2.629 1.994-4.641 4.394-4.641 1.377 0 2.418.565 3.089 1.482v-1.253Zm-2.789 7.236c1.589 0 2.789-1.183 2.789-2.824 0-1.641-1.2-2.823-2.789-2.823-1.588 0-2.788 1.182-2.788 2.823s1.2 2.824 2.788 2.824Zm17.081-7.236h2.012l-2.771 8.824h-1.871l-1.835-5.947-1.853 5.947h-1.87l-2.771-8.824h2.012l1.711 6.089 1.853-6.089h1.818l1.835 6.089 1.73-6.089Zm10.059 0h1.906v8.824h-1.906v-1.271c-.671.936-1.712 1.5-3.088 1.5-2.4 0-4.395-2.029-4.395-4.641 0-2.629 1.995-4.641 4.395-4.641 1.376 0 2.417.565 3.088 1.482v-1.253Zm-2.788 7.236c1.588 0 2.788-1.183 2.788-2.824 0-1.641-1.2-2.823-2.788-2.823-1.589 0-2.789 1.182-2.789 2.823s1.2 2.824 2.789 2.824Zm6.915 1.588v-12.883h1.906v12.883h-1.906Zm5.779-6.388c0 1.606 4.747.635 4.747 3.9 0 1.764-1.535 2.717-3.441 2.717-1.765 0-3.035-.794-3.6-2.064l1.641-.953c.283.794.989 1.27 1.959 1.27.847 0 1.5-.282 1.5-.988 0-1.571-4.747-.688-4.747-3.847 0-1.659 1.429-2.7 3.23-2.7 1.447 0 2.647.671 3.264 1.835l-1.606.9c-.317-.688-.935-1.006-1.658-1.006-.689 0-1.289.3-1.289.936Z"/><rect width="194.32" height="41.278" x="141.691" y="207.073" stroke="#555" stroke-width="1.891" rx="20.639"/><mask id="d" width="90" height="94" x="364" y="130" maskUnits="userSpaceOnUse" style="mask-type:alpha"><path fill="#043EE0" d="M394.74 133.827a28.48 28.48 0 0 1 28.52 0l15.939 9.217a28.575 28.575 0 0 1 14.26 24.739v18.434a28.575 28.575 0 0 1-14.26 24.739l-15.939 9.217a28.48 28.48 0 0 1-28.52 0l-15.939-9.217a28.575 28.575 0 0 1-14.26-24.739v-18.434a28.575 28.575 0 0 1 14.26-24.739l15.939-9.217Z"/><path fill="url(#c)" fill-opacity=".6" d="M394.74 133.827a28.48 28.48 0 0 1 28.52 0l15.939 9.217a28.575 28.575 0 0 1 14.26 24.739v18.434a28.575 28.575 0 0 1-14.26 24.739l-15.939 9.217a28.48 28.48 0 0 1-28.52 0l-15.939-9.217a28.575 28.575 0 0 1-14.26-24.739v-18.434a28.575 28.575 0 0 1 14.26-24.739l15.939-9.217Z"/></mask><g mask="url(#d)"><path fill="#1B50E1" d="M395.375 134.927a27.208 27.208 0 0 1 27.249 0l15.939 9.217a27.303 27.303 0 0 1 13.626 23.639v18.434a27.303 27.303 0 0 1-13.626 23.639l-15.939 9.217a27.208 27.208 0 0 1-27.249 0l-15.938-9.217a27.303 27.303 0 0 1-13.626-23.639v-18.434a27.303 27.303 0 0 1 13.626-23.639l15.938-9.217Z"/><path fill="url(#e)" fill-opacity=".6" d="M395.375 134.927a27.208 27.208 0 0 1 27.249 0l15.939 9.217a27.303 27.303 0 0 1 13.626 23.639v18.434a27.303 27.303 0 0 1-13.626 23.639l-15.939 9.217a27.208 27.208 0 0 1-27.249 0l-15.938-9.217a27.303 27.303 0 0 1-13.626-23.639v-18.434a27.303 27.303 0 0 1 13.626-23.639l15.938-9.217Z"/><path stroke="url(#f)" stroke-width="2.541" d="M395.375 134.927a27.208 27.208 0 0 1 27.249 0l15.939 9.217a27.303 27.303 0 0 1 13.626 23.639v18.434a27.303 27.303 0 0 1-13.626 23.639l-15.939 9.217a27.208 27.208 0 0 1-27.249 0l-15.938-9.217a27.303 27.303 0 0 1-13.626-23.639v-18.434a27.303 27.303 0 0 1 13.626-23.639l15.938-9.217Z"/><g filter="url(#g)" style="mix-blend-mode:color-dodge"><path fill="url(#h)" fill-opacity=".5" d="M397.646 154.071c-1.794-13.072 27.66-15.659 39.248-12.935 11.587 2.723 18.638 15.73 0 22.467-12.055 4.358-37.005 6.809-39.248-9.532Z"/></g><g filter="url(#i)"><path fill="url(#j)" fill-opacity=".8" d="M368.888 192.852c-1.577-12.474 20.726-2.148 22.036 12.464 1.31 14.612-1.837 16.373-14.951 3.441-7.085-6.987-5.716-5.081-7.085-15.905Z"/></g><path fill="#fff" d="M406.793 181.479c0 1.646-.458 3.11-1.281 4.299l-6.737 10.152h-4.024l4.877-7.165h-.365c-4.421 0-7.561-2.987-7.561-7.286 0-4.298 3.14-7.286 7.561-7.286 4.42 0 7.53 2.988 7.53 7.286Zm-11.585 0c0 2.409 1.738 3.963 4.055 3.963 2.317 0 4.024-1.524 4.024-3.963s-1.707-3.963-4.024-3.963-4.055 1.524-4.055 3.963ZM416.925 185.016c-2.388 0-4.166-1.83-4.166-4.065 0-2.261 1.778-4.065 4.166-4.065 2.363 0 4.141 1.778 4.141 4.065 0 2.235-1.753 4.065-4.141 4.065Zm-.025-2.236c1.092 0 1.829-.838 1.829-1.829 0-1.042-.737-1.855-1.829-1.855-1.067 0-1.804.813-1.804 1.855 0 1.016.737 1.829 1.804 1.829Zm-2.642 9.603 11.712-13.033 1.371.788-11.711 13.058-1.372-.813Zm10.797 2.922c-2.388 0-4.167-1.829-4.167-4.065 0-2.261 1.779-4.065 4.167-4.065 2.363 0 4.141 1.804 4.141 4.065 0 2.236-1.778 4.065-4.141 4.065Zm-.025-2.236c1.092 0 1.829-.838 1.829-1.829 0-1.042-.737-1.855-1.829-1.855-1.067 0-1.804.813-1.804 1.855 0 1.016.737 1.829 1.804 1.829Zm10.636-15.352v1.097l-1.372-.091.808 1.097-.945.58-.671-1.266-.67 1.266-.946-.58.824-1.097-1.388.091v-1.097l1.388.091-.824-1.097.946-.579.67 1.265.671-1.265.945.579-.808 1.097 1.372-.091Z"/><path fill="#fff" d="M394.415 162.358c-1.956 0-3.366-1.194-3.366-3.112v-5.945h1.461v5.856c0 1.042.597 1.778 1.905 1.778 1.309 0 1.906-.736 1.906-1.778v-5.856h1.46v5.945c0 1.918-1.422 3.112-3.366 3.112Zm8.959-9.057c1.677 0 2.947 1.27 2.947 2.922 0 1.638-1.27 2.921-2.947 2.921h-1.816v3.049h-1.461v-8.892h3.277Zm0 4.471c.864 0 1.486-.66 1.486-1.549 0-.902-.622-1.55-1.486-1.55h-1.816v3.099h1.816Zm14.441-4.471v1.397h-2.502v7.495h-1.461v-7.495h-2.515v-1.397h6.478Zm5.373 9.057a4.578 4.578 0 0 1-4.611-4.611 4.578 4.578 0 0 1 4.611-4.611 4.57 4.57 0 0 1 4.611 4.611 4.57 4.57 0 0 1-4.611 4.611Zm0-1.423c1.779 0 3.151-1.359 3.151-3.188 0-1.829-1.372-3.188-3.151-3.188-1.778 0-3.15 1.359-3.15 3.188 0 1.829 1.372 3.188 3.15 3.188Z" opacity=".4"/></g><defs><radialGradient id="b" cx="0" cy="0" r="1" gradientTransform="matrix(223.23484 366.11816 -522.20129 318.4041 122.18 -36.433)" gradientUnits="userSpaceOnUse"><stop stop-color="#585858"/><stop offset="1" stop-color="#323232"/></radialGradient><radialGradient id="c" cx="0" cy="0" r="1" gradientTransform="matrix(-14.76859 94 -69.93689 -10.98797 424.845 130)" gradientUnits="userSpaceOnUse"><stop stop-color="#fff"/><stop offset="1" stop-color="#A2A2A2"/></radialGradient><radialGradient id="e" cx="0" cy="0" r="1" gradientTransform="matrix(-14.76859 94 -69.93689 -10.98797 424.845 130)" gradientUnits="userSpaceOnUse"><stop stop-color="#fff"/><stop offset="1" stop-color="#A2A2A2"/></radialGradient><linearGradient id="f" x1="409" x2="409" y1="130" y2="224" gradientUnits="userSpaceOnUse"><stop stop-color="#A8BAE9"/><stop offset="1" stop-color="#879EDB" stop-opacity="0"/></linearGradient><linearGradient id="h" x1="422.378" x2="406.527" y1="141.641" y2="173.778" gradientUnits="userSpaceOnUse"><stop stop-color="#FFF2D6"/><stop offset="1" stop-color="#F8BD38" stop-opacity="0"/></linearGradient><linearGradient id="j" x1="374.291" x2="361.125" y1="189.704" y2="222.056" gradientUnits="userSpaceOnUse"><stop stop-color="#E6E4DF"/><stop offset="1" stop-color="#B7A479" stop-opacity="0"/></linearGradient><filter id="a" width="477.911" height="264.109" x=".816" y="47.426" color-interpolation-filters="sRGB" filterUnits="userSpaceOnUse"><feFlood flood-opacity="0" result="BackgroundImageFix"/><feColorMatrix in="SourceAlpha" result="hardAlpha" values="0 0 0 0 0 0 0 0 0 0 0 0 0 0 0 0 0 0 127 0"/><feOffset dy="5.031"/><feComposite in2="hardAlpha" operator="out"/><feColorMatrix values="0 0 0 0 0.0709999 0 0 0 0 0.0709999 0 0 0 0 0.0709999 0 0 0 0.25 0"/><feBlend in2="BackgroundImageFix" result="effect1_dropShadow_4940_10006"/><feBlend in="SourceGraphic" in2="effect1_dropShadow_4940_10006" result="shape"/></filter><filter id="g" width="106.703" height="82.568" x="369.622" y="112.216" color-interpolation-filters="sRGB" filterUnits="userSpaceOnUse"><feFlood flood-opacity="0" result="BackgroundImageFix"/><feBlend in="SourceGraphic" in2="BackgroundImageFix" result="shape"/><feGaussianBlur result="effect1_foregroundBlur_4940_10006" stdDeviation="13.973"/></filter><filter id="i" width="60.497" height="68.293" x="349.754" y="168.218" color-interpolation-filters="sRGB" filterUnits="userSpaceOnUse"><feFlood flood-opacity="0" result="BackgroundImageFix"/><feBlend in="SourceGraphic" in2="BackgroundImageFix" result="shape"/><feGaussianBlur result="effect1_foregroundBlur_4940_10006" stdDeviation="9.527"/></filter></defs></svg>