<svg xmlns="http://www.w3.org/2000/svg" width="11" height="12" fill="none"><path fill="#646464" fill-rule="evenodd" d="M2.333 3.07a2.667 2.667 0 1 1 5.334 0 2.667 2.667 0 0 1-5.334 0ZM5 1.404a1.667 1.667 0 1 0 0 3.333 1.667 1.667 0 0 0 0-3.333Z" clip-rule="evenodd"/><path fill="#646464" d="M5.167 7.57c-2.498 0-3.585 1.056-4.076 1.885-.092.156-.069.279.01.383.092.121.281.232.532.232h3.534a.5.5 0 0 1 0 1H1.633c-.536 0-1.032-.236-1.33-.63A1.311 1.311 0 0 1 .23 8.947C.902 7.812 2.316 6.57 5.167 6.57a.5.5 0 0 1 0 1Zm5.072.293a.5.5 0 1 0-.811-.586l-1.79 2.478-.42-.505a.5.5 0 0 0-.769.64l.833 1a.5.5 0 0 0 .79-.027l2.167-3Z"/></svg>