<svg xmlns="http://www.w3.org/2000/svg" width="75" height="20" fill="none"><g clip-path="url(#a)"><path fill="#fff" d="M56.052 6.56c0-1.05.8-1.865 1.891-1.865.71 0 1.319.368 1.591.932l-.527.296c-.182-.376-.582-.627-1.064-.627a1.24 1.24 0 0 0-1.264 1.263c0 .717.546 1.255 1.264 1.255.491 0 .882-.251 1.082-.619l.528.305c-.3.556-.91.923-1.619.923-1.082 0-1.89-.815-1.89-1.864M62.008 4.731v.645c-.537-.018-1.119.251-1.119 1.085v1.872h-.627v-3.54h.627v.592c.227-.493.664-.663 1.118-.663M64.244 7.85c.491 0 .855-.225 1.037-.52l.527.295c-.318.484-.864.798-1.582.798-1.155 0-1.928-.798-1.928-1.864s.764-1.864 1.882-1.864c1.119 0 1.792.878 1.792 1.873 0 .09 0 .18-.018.278h-3.01c.118.636.627.994 1.3.994m-1.3-1.54h2.4c-.109-.7-.618-1.031-1.154-1.031-.673 0-1.146.412-1.246 1.03ZM70.363 3.378v4.955h-.627v-.609c-.291.43-.746.699-1.355.699-1 0-1.818-.815-1.818-1.864 0-1.048.818-1.864 1.818-1.864.61 0 1.073.27 1.355.7V3.368h.627v.01Zm-.627 3.19c0-.726-.555-1.263-1.282-1.263-.728 0-1.273.546-1.273 1.263 0 .717.555 1.264 1.273 1.264.718 0 1.282-.547 1.282-1.264ZM71.281 3.737c0-.224.182-.413.428-.413.245 0 .418.189.418.413a.42.42 0 0 1-.418.412.428.428 0 0 1-.428-.412Zm.11 1.057h.627v3.54h-.627v-3.54ZM74.045 5.385v1.918c0 .537.319.502.955.475v.555c-1.082.144-1.582-.143-1.582-1.03V5.385h-.71v-.591h.71v-.807l.627-.188v.995H75v.591h-.955ZM60.68 12.276c0-1.048.8-1.864 1.891-1.864.71 0 1.319.368 1.591.923l-.527.296c-.182-.377-.582-.619-1.064-.619a1.24 1.24 0 0 0-1.264 1.264c0 .717.546 1.255 1.264 1.255.491 0 .882-.242 1.082-.619l.527.305c-.3.555-.909.923-1.618.923-1.082 0-1.891-.816-1.891-1.864M68.326 10.502v3.54H67.7v-.61c-.29.43-.745.699-1.355.699-1 0-1.818-.816-1.818-1.864s.818-1.864 1.818-1.864c.61 0 1.073.269 1.355.7v-.61h.627v.009Zm-.627 1.774c0-.726-.555-1.264-1.282-1.264s-1.273.547-1.273 1.264.555 1.263 1.273 1.263c.718 0 1.282-.546 1.282-1.263ZM70.99 10.44v.644c-.536-.018-1.118.251-1.118 1.085v1.881h-.627v-3.54h.627v.592c.227-.493.664-.654 1.118-.654M74.973 9.086v4.955h-.628v-.61c-.29.431-.745.7-1.354.7-1 0-1.819-.816-1.819-1.864s.819-1.864 1.819-1.864c.609 0 1.073.269 1.354.7V9.076h.628v.009Zm-.628 3.19c0-.726-.554-1.264-1.282-1.264-.727 0-1.273.547-1.273 1.264s.555 1.263 1.273 1.263c.719 0 1.282-.546 1.282-1.263ZM23.53 14.06V8.395c0-.564-.109-1.021-.336-1.416-.391-.68-1.028-1.021-1.891-1.021h-.064c-1.264.027-2.137.788-2.328 2.043-.072.457-.072.923-.072 1.37v4.705H17.12V8.46c0-.305-.036-.592-.1-.86-.254-1.013-1.045-1.622-2.118-1.622h-.082c-1.218.036-1.955.788-2.01 2.088-.018.34-.018.69-.008 1.021v4.991h-1.7v-1.263c0-1.577 0-3.208.018-4.812.009-1.04.318-1.873.945-2.545.627-.672 1.455-.995 2.519-.995h.2c.845.036 1.49.206 2.045.538.346.215.637.493.864.842l.4.61.427-.583c.291-.403.61-.69.955-.878a4.376 4.376 0 0 1 2.128-.529c.327 0 .672.036 1.027.099.91.17 1.582.645 2.064 1.452a3.45 3.45 0 0 1 .518 1.747c.018 1.2.018 2.42.018 3.593V14.086h-1.709l.01-.027ZM46.124 14.041v-10c0-.94.182-1.675.582-2.303.482-.752 1.218-1.2 2.227-1.353.328-.053.673-.062 1.028-.08h.054V1.89c-.136 0-.282.018-.427.036-1.2.152-1.873 1.057-1.746 2.347l.046.448h2.127V6.3h-2.191v7.751h-1.71l.01-.009ZM40.25 0h-1.682v14.05h1.682V0ZM44.078 4.74h-1.682v9.31h1.682V4.74ZM51.452 14.05V4.731h1.7v9.32h-1.7ZM8.01 6.156v-1.12h1.555v4.713c.009.296.009.582 0 .887v3.432H8.019v-1.434c-1.327 1.828-3.391 1.703-3.391 1.703-.1 0-.21.009-.31.009-2.027 0-3.754-1.452-4.19-3.54-.346-1.64 0-3.082 1.027-4.292.8-.94 1.809-1.415 3.09-1.478.21-.01.383-.018.546-.018.673 0 1.155.116 1.619.269.5.152 1.6.86 1.6.86m-3.237.314c-1.845 0-3.2 1.353-3.218 3.216 0 .914.318 1.748.918 2.34.582.582 1.4.904 2.291.904h.018c.91 0 1.737-.322 2.328-.914.582-.582.9-1.416.9-2.32 0-1.864-1.364-3.217-3.237-3.217M28.503 12.527V20h-1.709V4.695h1.71V5.87s1.29-1.478 3.89-1.47c1.228 0 2.374.511 3.247 1.425.882.932 1.364 2.187 1.364 3.54 0 1.353-.482 2.607-1.364 3.54a4.436 4.436 0 0 1-3.246 1.415s-2.446.134-3.892-1.792Zm3.637-6.56c-.954 0-1.809.341-2.427.95-.619.619-.955 1.488-.955 2.447 0 1.971 1.428 3.396 3.382 3.396 1.955 0 3.41-1.425 3.41-3.396 0-1.972-1.437-3.396-3.41-3.396Z"/><path fill="#00A98F" d="M59.544 10.547h-1.028v3.566h1.028v-3.566ZM58.225 10.547h-.809v3.566h.81v-3.566ZM57.161 10.547h-.527v3.566h.527v-3.566Z"/></g><defs><clipPath id="a"><path fill="#fff" d="M0 0h75v20H0z"/></clipPath></defs></svg>