<svg width="21" height="21" fill="none" xmlns="http://www.w3.org/2000/svg"><path fill-rule="evenodd" clip-rule="evenodd" d="M5.703 7.703l4.892-3.665a.485.485 0 01.778.382v12.143c0 .417-.45.643-.778.4L5.703 13.28H2.78a.484.484 0 01-.484-.487V8.19c0-.26.207-.487.484-.487h2.922zm10.58-2.657a.797.797 0 00-1.141.07.807.807 0 00.069 1.146 5.726 5.726 0 011.884 4.239 5.726 5.726 0 01-1.884 4.238.822.822 0 00-.07 1.147c.156.173.381.278.606.278.19 0 .38-.07.536-.209a7.348 7.348 0 002.42-5.454 7.225 7.225 0 00-2.42-5.455zm-1.85 2.327a.811.811 0 00-1.14.018.82.82 0 00.016 1.146c.536.521.83 1.199.83 1.946 0 .747-.294 1.424-.83 1.945a.805.805 0 00-.017 1.147c.156.174.38.243.588.243.207 0 .397-.07.57-.226a4.302 4.302 0 001.314-3.127 4.43 4.43 0 00-1.33-3.092z" fill="#9E9C9F"/></svg>