<svg width="52" height="52" viewBox="0 0 52 52" fill="none" xmlns="http://www.w3.org/2000/svg">
<g clip-path="url(#clip0)">
<path fill-rule="evenodd" clip-rule="evenodd" d="M26 0.000488281L25.9949 0.000523389C23.5661 0.0173905 21.2558 0.32956 19.0667 0.940447C16.8849 1.54933 14.8202 2.42083 12.8741 3.55463C10.9285 4.68815 9.16743 6.04265 7.59245 7.61763C6.01842 9.19166 4.66431 10.9436 3.53085 12.8722C2.3952 14.8045 1.52328 16.8794 0.914493 19.0947C0.304264 21.3153 0 23.6179 0 26.0005L1.75538e-05 26.0055C0.0168847 28.4344 0.329054 30.7447 0.939942 32.9337C1.54883 35.1156 2.42033 37.1803 3.55412 39.1264C4.68765 41.0719 6.04215 42.833 7.61713 44.408C9.19116 45.9821 10.9431 47.3362 12.8717 48.4696C14.804 49.6053 16.8789 50.4772 19.0942 51.086C21.3148 51.6962 23.6174 52.0005 26 52.0005L26.0051 52.0005C28.402 51.9836 30.7034 51.6712 32.9071 51.0609C35.1055 50.4521 37.179 49.5806 39.1258 48.4463C41.0714 47.3128 42.8325 45.9583 44.4075 44.3833C45.9815 42.8093 47.3356 41.0573 48.4691 39.1287C49.6048 37.1965 50.4767 35.1216 51.0855 32.9063C51.6957 30.6857 52 28.3831 52 26.0005L51.9999 25.9954C51.9831 23.5984 51.6707 21.297 51.0604 19.0933C50.4516 16.895 49.5801 14.8215 48.4458 12.8746C47.3123 10.929 45.9578 9.16794 44.3828 7.59295C42.8088 6.01893 41.0568 4.66482 39.1282 3.53135C37.1959 2.39571 35.1211 1.52379 32.9058 0.914999C30.6852 0.30477 28.3826 0.000505835 26 0.000488281ZM26.006 4.6173C27.9445 4.60141 29.8332 4.85552 31.6741 5.37922C33.5259 5.90604 35.2281 6.63063 36.7835 7.55117C38.3433 8.47432 39.7851 9.58918 41.1093 10.8974C42.4292 12.2015 43.5492 13.6474 44.4707 15.2361C45.3935 16.8271 46.1102 18.5306 46.6205 20.3486C47.1283 22.1576 47.3831 24.0408 47.3831 26.0005L47.3832 26.0065C47.3991 27.945 47.145 29.8337 46.6212 31.6746C46.0944 33.5264 45.3698 35.2286 44.4493 36.784C43.5261 38.3438 42.4113 39.7856 41.103 41.1098C39.799 42.4298 38.3531 43.5498 36.7643 44.4712C35.1734 45.394 33.4698 46.1107 31.6518 46.6211C29.8428 47.1288 27.9596 47.3837 26 47.3837L25.994 47.3837C24.0554 47.3996 22.1668 47.1455 20.3259 46.6217C18.4741 46.0949 16.7719 45.3703 15.2165 44.4498C13.6567 43.5266 12.2149 42.4118 10.8907 41.1035C9.57072 39.7995 8.45071 38.3536 7.52923 36.7649C6.60649 35.1739 5.88973 33.4703 5.37941 31.6523C4.87162 29.8433 4.61682 27.9601 4.61684 26.0005L4.61679 25.9945C4.6009 24.0559 4.85501 22.1673 5.37872 20.3264C5.90553 18.4746 6.63013 16.7724 7.55067 15.217C8.47382 13.6572 9.58867 12.2154 10.8969 10.8912C12.201 9.57122 13.6469 8.45122 15.2356 7.52974C16.8266 6.60699 18.5301 5.89024 20.3481 5.37992C22.1571 4.87213 24.0403 4.61732 26 4.61732L26.006 4.6173ZM39.1509 16.0084C38.2529 15.1104 36.797 15.1104 35.8989 16.0084L21.2617 30.6457L16.101 25.485C15.203 24.587 13.747 24.587 12.849 25.485C11.951 26.383 11.951 27.839 12.849 28.737L19.3716 35.2597C20.4155 36.3035 22.1079 36.3035 23.1517 35.2597L39.1509 19.2604C40.049 18.3624 40.049 16.9064 39.1509 16.0084Z" fill="#00B899"/>
</g>
<defs>
<clipPath id="clip0">
<rect width="52" height="52" fill="white" transform="translate(0 0.000488281)"/>
</clipPath>
</defs>
</svg>
