<svg width="25" height="24" viewBox="0 0 25 24" fill="none" xmlns="http://www.w3.org/2000/svg">
<g clip-path="url(#clip0_14148_4270)">
<path d="M0.5 12C0.5 5.37258 5.87258 0 12.5 0C19.1274 0 24.5 5.37258 24.5 12C24.5 18.6274 19.1274 24 12.5 24C5.87258 24 0.5 18.6274 0.5 12Z" fill="#F7F9FA"/>
<path d="M8.91705 7.35541C8.62416 7.06252 8.14928 7.06252 7.85639 7.35541C7.5635 7.64831 7.5635 8.12318 7.85639 8.41607L11.4403 12L7.85639 15.584C7.5635 15.8769 7.5635 16.3518 7.85639 16.6446C8.14928 16.9375 8.62416 16.9375 8.91705 16.6446L12.501 13.0607L16.085 16.6446C16.3779 16.9375 16.8527 16.9375 17.1456 16.6446C17.4385 16.3518 17.4385 15.8769 17.1456 15.584L13.5617 12L17.1456 8.41607C17.4385 8.12318 17.4385 7.64831 17.1456 7.35541C16.8527 7.06252 16.3779 7.06252 16.085 7.35541L12.501 10.9394L8.91705 7.35541Z" fill="#646464"/>
</g>
<defs>
<clipPath id="clip0_14148_4270">
<rect width="24" height="24" fill="white" transform="translate(0.5)"/>
</clipPath>
</defs>
</svg>
