<svg width="50" height="50" viewBox="0 0 50 50" fill="none" xmlns="http://www.w3.org/2000/svg">
<path fill-rule="evenodd" clip-rule="evenodd" d="M0 25C0 11.1929 11.1929 0 25 0C38.8071 0 50 11.1929 50 25C50 38.8071 38.8071 50 25 50C11.1929 50 0 38.8071 0 25Z" fill="white"/>
<path d="M36.5023 13.4971C34.0614 11.0563 30.1043 11.0563 27.6634 13.4971L22.4398 18.7207C19.915 21.2456 20.1488 25.2685 22.4398 27.5596C22.8234 27.9432 23.2479 28.256 23.6961 28.513L24.6495 27.5596C25.2748 26.9342 25.0547 26.2031 25.0435 25.6755C24.9062 25.5782 24.7727 25.4731 24.6495 25.3498C23.4738 24.1743 23.421 22.159 24.6495 20.9304C24.832 20.748 29.7623 15.8176 29.8731 15.7069C31.0918 14.4882 33.0738 14.4882 34.2925 15.7069C35.5112 16.9256 35.5112 18.9076 34.2925 20.1263L30.8397 23.5791C30.9396 24.1315 31.5388 25.4402 31.2306 27.5989C31.2456 27.5841 31.2636 27.5746 31.2786 27.5596L36.5023 22.336C38.943 19.8952 38.943 15.938 36.5023 13.4971Z" fill="#00B899"/>
<path d="M27.9638 22.0354C27.5802 21.6518 27.1557 21.339 26.7076 21.082L25.7542 22.0354C25.1287 22.6607 25.3489 23.3918 25.3601 23.9194C25.4974 24.0167 25.6309 24.1218 25.7542 24.2451C26.9298 25.4207 26.9827 27.4359 25.7542 28.6645C25.5713 28.8473 20.2326 34.1861 20.1257 34.2929C18.907 35.5116 16.925 35.5116 15.7063 34.2929C14.4876 33.0742 14.4876 31.0922 15.7063 29.8735L19.564 26.0158C19.4641 25.4634 18.8648 24.1547 19.1731 21.996C19.1581 22.0108 19.1399 22.0204 19.1249 22.0354L13.4966 27.6639C11.0558 30.1047 11.0558 34.0619 13.4966 36.5027C15.9374 38.9434 19.8945 38.9434 22.3354 36.5027L27.9638 30.8743C30.4417 28.3964 30.3063 24.3779 27.9638 22.0354Z" fill="#00B899"/>
</svg>
