<svg width="58" height="58" fill="none" xmlns="http://www.w3.org/2000/svg"><g clip-path="url(#clip0)"><path d="M36.555 7.616l-21.413 13.96a.696.696 0 00-.202.963l1.17 1.795c.203.31.145.735-.151.957a.696.696 0 01-1-.177l-1.185-1.816a.696.696 0 00-.962-.202l-6.555 4.273a2.782 2.782 0 00-.81 3.85l2.091 3.209a2.757 2.757 0 002.55 1.254c4.224-.372 7.157 4.128 5.113 7.842a2.757 2.757 0 00.119 2.84l2.092 3.208a2.782 2.782 0 003.85.811l6.555-4.273a.696.696 0 00.202-.962l-1.17-1.797c-.203-.31-.146-.734.151-.956a.696.696 0 011 .177l1.185 1.816c.21.322.64.412.962.203L51.56 30.63a2.782 2.782 0 00.81-3.85L40.406 8.427a2.782 2.782 0 00-3.85-.811zM25.131 38.169a.696.696 0 01-1.166.76l-1.487-2.281a.696.696 0 011.165-.76l1.488 2.281zm-4.65-7.131a.696.696 0 11-1.165.76l-1.487-2.281a.696.696 0 011.165-.76l1.487 2.28zm6.35-4.748a1.378 1.378 0 01.4-1.905 1.378 1.378 0 011.906.4 1.378 1.378 0 01-2.306 1.504zm4.662 5.948a.696.696 0 01-.537-.824l1.986-9.425a.696.696 0 011.36.287L32.318 31.7a.696.696 0 01-.824.538zm6.667-3.561a1.378 1.378 0 01-1.905-.402 1.378 1.378 0 01.401-1.905 1.378 1.378 0 011.905.402c.415.635.235 1.49-.401 1.905z" fill="#878787"/></g><defs><clipPath id="clip0"><path fill="#fff" transform="rotate(-33.103 38.571 11.402)" d="M0 0h41.732v41.732H0z"/></clipPath></defs></svg>