<svg width="12" height="12" viewBox="0 0 12 12" fill="none" xmlns="http://www.w3.org/2000/svg">
<path d="M11.7796 1.28025C12.0724 0.987373 12.0724 0.51253 11.7796 0.219656C11.4867 -0.0732185 11.0118 -0.0732185 10.719 0.219656L5.99961 4.93902L1.28025 0.219656C0.987373 -0.0732185 0.51253 -0.0732185 0.219656 0.219656C-0.0732185 0.51253 -0.0732185 0.987373 0.219656 1.28025L4.93902 5.99961L0.219656 10.719C-0.0732185 11.0118 -0.0732185 11.4867 0.219656 11.7796C0.51253 12.0724 0.987373 12.0724 1.28025 11.7796L5.99961 7.0602L10.719 11.7796C11.0118 12.0724 11.4867 12.0724 11.7796 11.7796C12.0724 11.4867 12.0724 11.0118 11.7796 10.719L7.0602 5.99961L11.7796 1.28025Z" fill="white"/>
</svg>
