<svg xmlns="http://www.w3.org/2000/svg" width="416" height="330" fill="none"  xmlns:v="https://vecta.io/nano"><path d="M113.533 300.325c28.204 18.24 125.693 62.846 199.27-15.329s32.19-183.942-15.328-220.73C247.81 25.791 94.372-40.581 79.81 36.675 64.482 117.915 55.284 147.04 55.284 179.229c0 15.636 1.533 84.307 58.249 121.096z" fill="#f5f5f5"/><path d="M123.343 101.667c-2.146-1.379-4.599-2.146-7.051-2.606-.307 0-.92.307-.92.92s.307.92.766 1.073c1.84 1.073 3.833 1.993 5.979 2.453.919.306 2.146 0 1.839-1.227-.307-.153-.46-.459-.613-.613zm3.832-4.446c-.459-1.533-1.839-3.066-2.759-4.752-.306-.46-.919-.613-1.533-.307s-.613.767-.306 1.38l2.299 4.752c.307.613.92.92 1.686.613.46-.307.92-.766.613-1.686z" fill="#333"/><path d="M170.248 113.93s9.81-4.905 11.19-6.285 1.073-4.751-1.533-4.598-25.599 5.365-25.599 5.365l-28.051 11.65s-6.131 3.372-6.131 4.751 1.686 4.599 3.832 3.679c2.299-.919 5.518-2.912 5.825-.919s0 10.116 3.219 11.036c3.065.92 7.511.46 7.511 2.146s.306 7.051.306 7.051 1.533 3.526 4.292 4.752 10.73 3.832 15.329 3.526 5.211-3.219 5.211-3.219-1.226-2.913.307-4.446c1.533-1.379 3.372-5.671 4.752-13.642 1.379-8.124-.307-10.883 0-11.343s-2.146-7.205-1.686-8.737c.153-1.227 1.226-.767 1.226-.767z" fill="#fff"/><path d="M164.577 136.616c-1.38 0-3.373 2.452-3.373 3.985 0 1.38.92 1.84 1.993 1.686 2.453-.46 1.533-3.065 2.606-4.138 0-1.073-.307-1.533-1.226-1.533zm-7.052-15.634c-.153-.153-.919.153-.919.306-.767 1.533 0 3.833 1.379 3.526s.92-2.759-.46-3.832zm-.46-4.445c-.766-1.227-2.759-.307-3.678.919-.154.154 0 .92.153.92.766.92 2.299-.46 3.372-1.226.153 0 .307-.307.153-.613z" fill="#333"/><path d="M192.321 176.165l4.445 25.138c6.285 5.825 14.562 12.263 21.613 17.475l19.467-2.146 1.84-5.978s-24.986-14.562-42.46-35.256l-4.905.767zm44.606 44.146l-13.949 1.839c6.438 4.599 11.19 7.665 11.19 7.665l2.759-9.504zM85.175 233.494c3.526-9.044 11.803-11.19 11.803-11.19l1.686 1.993c5.058-1.38 7.205.306 12.11 2.146 4.905 1.686 2.605 3.219-.767 3.066-3.219-.154-1.533 2.759-1.533 2.759-1.073 2.146-.46 3.372.767 3.985-.767-.92-2.146-2.912 0-4.139l18.854-2.452-5.978-44.759-16.095.919 4.598-4.445 83.234-9.657-.153-.153c-17.475-22.84-28.205-18.548-28.205-18.548-5.058 9.197-25.445-2.912-25.445-2.912s-12.263 0-23.606 2.759c-11.19 2.759-38.321 27.285-43.379 33.57s9.657 46.905 9.657 46.905l2.453.153zm14.562-44.606c4.445-4.598 12.263-3.372 12.263-3.372l-15.329 30.81s-.613-3.372-2.606-11.65c-1.84-7.97 1.226-11.036 5.671-15.788zm103.774 35.561l-93.351 11.956c2.146.614 5.059.307 5.059.307-12.57 9.964-22.686.766-22.686.766l-3.679 1.993s-5.518 16.861-8.584 24.219-7.971 3.219-10.117 1.533S46.7 245.909 46.7 245.909l-10.423 11.19s13.796 21.307 30.044 38.628c16.095 17.168 26.518-.46 28.205-2.146 1.839-1.533 28.665-40.008 28.665-40.008s1.839-.613 24.679-7.357c22.686-6.745 35.408-6.285 41.54-5.059s36.022 21.92 36.022 21.92l8.89-13.029c-5.825-7.358-20.847-18.088-30.81-25.599zm-14.716-31.73c.92 1.227 1.993 2.453 3.219 3.833l-3.372-20.387-62.847 7.97 6.285 44.453 63.767-7.051-.614-3.526-.46-.459c-4.598-5.059-44.605 1.226-44.605 1.226-5.365-9.504 6.131-21.153 13.642-33.263s15.788-5.978 24.985 7.204zm-62.54-73.883c-.613-5.058 1.38-9.044 4.599-12.876 4.905-5.518 10.117-10.576 16.555-14.562.306-.153.613-.46.919-.613 6.745-3.525 9.657-2.606 12.876 4.292 1.227 2.606 2.3 5.212 3.526 7.664.46.767.613 1.38-.613 1.533-13.183 3.372-25.599 8.277-37.708 14.409 0 .153-.154.153-.154.153z" fill="#cdc6e9"/><g fill="#fff"><path d="M96.058 223.376s.766 1.073 2.606.92 4.445-.613 8.737.766c4.445 1.38 6.744 3.066 5.518 3.526s-2.452.613-3.985.613-.767 2.453-.767 2.453l-.153 3.832 4.599 1.686v1.993l-4.905 1.992-10.271.154-5.518-3.219-2.606-4.599-4.445.613 1.686-3.525 3.219-3.832 6.285-3.373zm-62.54-32.343l38.475-4.292-.613 4.598-37.095 4.139c.153.153-1.38-2.299-.766-4.445zm201.57 30.196l8.124-1.38c.46-.153 1.992-3.372 1.839-5.211s1.686-1.993 1.686-1.38c.154.613 1.38 2.299 1.38 2.299v-5.671c.153-.46 1.533-.613 2.452.766s2.3 5.672 2.3 5.672-1.993-7.971-.46-7.971 2.912 2.606 2.759 3.679.92 3.065.92 3.065-.92-5.058.153-5.365 3.832 5.519 3.679 9.811c0 4.292-.767 6.131-2.606 6.438-1.686.306-5.518 4.292-7.971 4.292s-10.576-2.453-12.569-4.446-3.832-4.751-1.686-4.598z"/><path d="M107.708 232.419l304.117-37.401s3.066-.154 3.066 1.839-1.533 3.066-3.526 3.066c-2.146 0-298.445 37.248-298.445 37.248s-3.526 0-4.599-1.686c-1.226-1.84-.613-3.066-.613-3.066zm-18.547 2.452l-51.044 5.365s-1.839 1.073-1.839 2.759 1.839 2.146 9.504 1.227l44.912-5.365s1.073-1.38 1.073-1.993-.613-2.146-2.606-1.993zm21.459-53.496l290.475-35.256s6.591-1.532 7.971-.459 1.073 4.138-.766 4.138-35.563 4.139-35.563 4.139l-266.715 32.037 4.598-4.599z"/></g><path d="M368.445 155.01l3.832 44.146 5.059-.613-4.599-44.759-4.292 1.226zm-55.642 6.285h2.759l5.672 44.453-4.599.766-3.832-45.219zm-59.628 7.512l5.212 42.46.613 2.452 2.913-.766-5.365-44.606-3.373.46zm-64.533 7.356l7.205 45.373 4.445-1.227-7.971-44.146h-3.679zm-66.525 8.738l3.679-.766 6.284 44.452-3.985 1.073-5.978-44.759z" fill="#f5f5f5"/><path d="M415.964 197.317c-.307-2.146-1.686-3.525-4.139-3.372-1.073 0-22.533 2.759-32.19 3.985-1.226.154-1.686-.153-1.839-1.379l-4.292-39.241c-.153-1.84.153-2.606 1.993-2.759l32.803-4.139c1.226-.153 1.992-.613 2.146-2.146.153-3.066-.614-3.832-3.526-3.526-4.445.46-200.803 23.913-209.387 25.139-2.146.307-3.219-.153-4.599-1.686-3.372-3.985-6.744-7.971-10.423-11.496-4.139-4.139-9.504-5.519-15.329-5.212-.613 0-1.533.46-1.839-.613-.153-.92.613-1.073 1.073-1.38 2.912-2.299 4.139-5.671 5.058-9.197.92-3.985-.306-8.277 1.84-12.109.46-.767.153-1.687-.307-2.146-2.146-2.3-1.686-5.519-2.759-8.124-.92-2.146.153-3.526 2.146-4.446 3.679-1.533 6.285-2.759 9.197-5.058 1.226-1.073 2.299-2.453 1.686-4.139-.613-1.839-2.299-1.993-3.985-1.993-3.526-.153-6.132.154-9.504.92-1.379.307-2.452-.153-3.372-2.146-1.226-2.759-1.993-4.598-3.219-7.664-2.912-7.204-6.591-10.117-13.489-6.745-9.81 4.905-17.321 12.569-23.606 21.46-2.146 2.913-2.759 6.438-2.146 9.964.307 1.686 0 2.452-1.38 3.372-1.839 1.38-4.445 2.759-3.219 5.518 1.227 2.606 4.139 1.993 6.285 1.533 2.453-.613 3.219-.306 3.219 2.453-.153 4.752 2.913 9.35 6.745 9.503 3.372.154 3.525 1.687 3.832 4.139.306 3.526-.153 3.832-3.526 3.985-5.978.307-11.956.92-17.934 2.146-8.124 1.687-37.861 23.146-44.913 33.57-.307.46-1.38.92-1.993.92L33.978 189.5c-1.993.153-1.993 1.992-1.839 3.832.153 1.533.767 3.679 2.912 3.372l33.723-4.292c.766-.153 1.226 0 1.38.92 2.299 11.649 12.109 40.773 12.109 40.773l-39.241 4.752c-.767.154-1.533 0-1.993-.613-2.453-2.912-5.825-5.058-8.277-8.124-2.453-3.219-4.139-3.372-7.358-.766-4.752 3.678-9.044 7.97-13.489 12.109-3.526 3.219-7.051 6.285-9.963 9.964-.92 1.073-2.759 2.299-1.533 3.832.92 1.226 2.912.46 4.292.153 4.752-1.226 9.657-2.759 14.562-3.372 5.978-.767 11.037 0 15.022 5.518 7.204 9.81 14.715 19.314 22.38 28.818 4.445 5.671 8.737 11.649 15.022 15.635 7.204 4.445 13.796 3.679 19.774-2.3 2.912-2.912 19.773-27.131 25.445-35.868 4.598-7.205 10.423-10.883 18.701-12.723 15.022-3.525 28.204-9.35 43.839-9.81 5.978-.153 12.876 1.993 17.781 5.671 3.219 2.3 35.409 21.92 46.446 32.037 2.452 2.299 4.751 4.905 7.817 6.591 1.533.92 3.066 1.533 4.599 0 8.737-8.124 17.014-16.708 25.138-25.292.613-.613 1.686-1.379 1.073-2.452-.613-1.227-1.839-1.687-3.065-1.687-1.073 0-2.146.46-3.219.767l-17.322 6.438c-3.372 1.379-6.438.92-9.35-1.226-1.073-.767-2.146-1.687-3.066-2.606-9.043-9.351-19.16-17.475-28.817-25.905-2.759-2.453-5.672-4.906-8.737-7.511l10.729-1.227c4.292-.459 7.511 2.3 10.73 4.292 2.606 1.533 4.599 2.759 6.592.307 2.452-2.913 7.664.306 8.124.46 4.598 2.299 6.131 1.226 9.197-1.073 1.686-1.227 2.452-1.993 4.445-2.606 2.299-.766 3.526-3.219 2.606-5.212-.92-2.146 4.139-2.299 4.599-2.452l147.153-18.088c1.686-.307 3.372-1.073 3.066-3.219zM69.08 190.266l-32.19 4.292c-.767.153-1.84.613-1.993-.92-.307-1.379.766-1.533 1.686-1.686l33.11-3.679c.613 0 1.38-.613 1.38.46-.307 1.38-1.073 1.38-1.993 1.533zm306.876 7.971c-.306 0-1.686.153-2.146.306l-4.292-43.073c.46 0 1.533-.153 1.84-.153l4.598 42.92zm-62.233-36.022l1.226-.153 5.212 43.379-1.686.307-4.752-43.533zm.306 43.686l-49.664 5.825c-1.533.153-1.993-.153-2.146-1.686l-4.445-39.241c-.154-1.073 0-1.686 1.379-1.84l51.044-6.284c2.146-.154 1.993.613 2.146 2.452l3.986 38.168c.153 1.993-.767 2.453-2.3 2.606zm2.913-43.993c11.496-1.226 44.606-5.518 49.664-6.284 1.226-.154 1.073.613 1.073 1.379l3.679 40.161c.153 1.533-.46 1.839-1.533 1.993-5.825.613-41.693 4.905-45.832 5.518-1.533.153-2.146.153-2.299-1.686l-4.752-41.081zm90.898-15.788c1.533-.307 1.686 2.606.153 2.606l-300.438 36.328 3.525-3.065 296.76-35.869zm-168.154 63.613l-30.963-24.679c-2.913-2.452-5.365-5.365-7.971-8.737l45.832-5.671c5.671-.92 5.825-.92 6.438 4.445 1.226 11.036 3.525 22.073 3.525 33.109 0 1.073-1.379 3.066-2.605.307-.46-1.073-2.453-.92-2.453.46-.153 3.679-1.993-.46-3.525 0-1.073.306-.154 4.905-.614 4.138-1.073-1.532-1.992-2.146-2.605-.306-.614 1.686-1.227 2.299-2.146 2.299-1.227 0-.767-1.533-.767-2.146-.153-1.379-.92-2.299-2.146-3.219zM98.971 225.215c4.445-1.226 8.124 0 12.569 2.146 1.379.613-.307 2.299-4.599.766-.459-.153-1.226 0-1.379.613s0 1.227.46 1.533c.613.307 1.073.46.766 1.686-1.226 3.986.307 5.979 4.599 5.979h1.379c-1.073 1.073-2.299 1.532-3.525 1.686-2.606.153-5.212.46-7.971.613-7.664.613-12.569-9.504-12.11-10.423 1.073-2.3 3.526-3.526 5.672-5.059.46-.306.766-.46 1.073.153.92.92 2.146.614 3.066.307zm-1.993-11.65c-1.226-5.211-2.299-9.657-2.606-14.255-.153-1.533.46-2.299 1.226-3.526 2.146-2.759 4.139-4.905 6.438-7.357 1.993-2.146 5.672-1.993 8.431-1.993-4.752 8.584-9.197 17.934-13.489 27.131zm14.409 16.402c1.226-.154 2.452-.46 2.605-1.686s-1.073-1.993-2.146-2.3c-3.678-.919-6.897-3.678-11.036-2.912-.92.153-.92-.46-1.38-1.226-1.839-3.066-.92-7.205.614-10.117 4.292-8.278 12.416-25.445 12.416-25.445l8.737-.92 5.671 40.467c.307 1.993-.153 3.066-3.525 3.526-4.599.613-14.102 2.605-14.256 1.379 0-.92 1.686-.613 2.3-.766zm11.649-44.606l1.993-.153 6.285 43.226-1.993.153-6.285-43.226zm4.292 2.759c-.306-1.533-.46-3.372 1.84-3.679 10.883-1.226 36.482-4.905 37.401-4.905-3.679 5.518-8.89 12.569-12.263 17.781-2.299 3.526-4.751 7.818-5.978 11.803-.919 2.606-.919 5.058.154 8.277.306.614-1.227.614-2.3.767-.766 0-1.533.766-.919 1.686.459.766 1.532.613 2.299.613 4.905-.46 32.956-5.518 42.613-3.985 1.686.306 4.599.46 4.445 3.065-.153 2.3-2.605 1.227-4.138 1.38l-46.292 5.672c-3.066.306-5.978.766-8.891 1.072-1.533.154-2.146-.153-2.299-1.839l-5.672-37.708zm62.541 7.204c1.532 1.38 1.379 3.066 1.532 4.599l2.606 15.175c-6.898-1.379-13.336-1.073-20.08-.46-6.898.613-13.029 2.146-19.927 3.066-3.219.46-4.139 0-4.139-3.219 0-4.292 1.073-7.818 3.219-11.343 3.986-6.438 8.737-13.336 13.336-19.774 1.839-2.759 3.066-3.525 5.978-3.525 1.38 0 2.299.459 3.219 1.379 4.599 4.752 9.35 9.504 14.256 14.102zm-13.49-16.248l10.424-.92c1.533-.153 1.379.92 1.533 1.84l2.146 12.876-14.103-13.796zm13.796-1.533l1.226-.153 7.358 42.46c-.307 0-1.686.307-1.686.307l-6.898-42.614zm8.124 25.446l16.402 14.868c-3.986.613-8.738 1.227-12.416 1.533-1.073.153-.767-.92-.92-1.379-.767-4.446-2.146-10.117-3.066-15.022zm.46-2.913c-2.146-1.992-2.146-4.905-2.606-7.357l-2.452-12.11c-.154-.766-.767-2.912.459-3.372s2.606-.767 3.833.613c4.751 4.598 9.503 9.197 14.562 13.336 8.124 6.744 15.788 13.949 25.598 19.314-2.146 1.379-3.832 2.759-5.211 4.445-.92 1.073-2.606 1.226-3.986 1.379-2.299.307-3.985.307-6.438.614-3.679.306-6.284 0-8.737-2.606-4.905-4.905-10.117-9.504-15.022-14.256zm-29.431-70.051c-.919.92-2.452 2.146.154 3.066.153 0 .153.919.153 1.379 0 4.139-.92 7.971-3.219 11.497-2.299 3.372-5.058 3.372-8.431 1.073-9.81-6.438-12.569-16.862-15.941-26.979-.307-1.073.306-1.532 1.226-1.839 6.744-2.759 13.489-5.058 20.847-5.365 3.525-.153 3.832.307 2.912 3.832-.153.307 0 .92.153 1.073 2.146.767 1.073 2.759 1.686 3.986-.919.459-1.992-.92-2.452.613-.307 1.073.46 1.686 1.073 2.452.46.46.766.767 1.226 1.073 2.146 1.073 2.606 2.3.613 4.139zm-6.897 24.219c0-1.226-.154-2.759-.154-3.526 2.453-.613 2.453 3.833.154 3.526zm-2.913-1.226c-.153 2.146-1.379 2.146-2.912 1.839-5.059-.306-9.504-2.299-13.796-5.058-1.686-1.073-.766-2.453-.46-3.526.46-1.226 1.38-.153 2.146.153 4.139 1.38 8.124 3.219 12.57 3.526 2.146.307 2.605 1.073 2.452 3.066zm-28.511-47.059c4.905-5.518 10.117-10.576 16.555-14.562.306-.153.613-.46.92-.613 6.744-3.526 9.657-2.606 12.876 4.292 1.226 2.606 2.299 5.212 3.525 7.664.46.767.613 1.38-.613 1.533-13.183 3.372-25.599 8.278-37.708 14.409h-.153c-.614-4.905 1.226-8.891 4.598-12.723zm-1.073 18.548c-1.993 1.839-4.445 3.372-7.204 3.065-.613 0-1.533-.613-1.686-1.532-.154-.767.459-1.227.919-1.687 2.606-2.146 5.365-3.678 8.431-5.211 13.949-6.591 28.358-11.343 43.533-13.949 1.226-.153 5.212-1.073 6.438-.613 5.212 1.992-10.117 7.817-10.27 7.664-5.365-3.372-10.883-1.686-15.942-.307-6.744 1.84-13.336 4.446-19.314 8.278-1.839 1.226-3.219 2.759-4.905 4.292zm9.044 13.949c-5.825.153-7.358-3.526-7.358-7.665 0-2.299.767-2.759 2.913-1.992 1.379.46 2.146 1.379 2.912 2.452 1.84 2.759 2.299 2.913 5.212.46 1.839 5.365 4.292 10.27 7.971 14.869-2.3-.92-4.599-1.84-7.052-2.606-1.226-.46-1.686-1.073-1.532-2.299.306-2.453-.92-3.219-3.066-3.219zm-65.606 57.022c-1.226-6.898 2.759-11.65 7.051-16.095 6.285-6.592 28.818-22.38 33.11-24.373 6.284-3.065 13.182-2.759 19.773-3.985 3.679-.613 7.511.153 10.577 2.299 3.832 2.606 14.869 3.832 15.635 3.832 2.299-.153 5.058.767 6.131-2.605.307-.92 1.227-.614 1.993-.614 7.971-.153 13.489 4.599 18.548 9.964 1.992 1.993 3.525 4.292 5.518 6.898l-74.803 9.044c.766-1.227.92-1.533 1.686-2.3 1.073-1.379 4.139-5.365-2.299-1.533-9.197 5.672-18.394 13.336-22.993 19.774-.92-1.073-3.679-4.138-3.066-1.992.613 1.992.766 2.146 2.146 4.598.766 7.204 2.759 15.022 3.985 21.46.153.613 1.533 2.146-1.533 2.453-4.905.459-9.964 8.737-10.577 9.503-4.292-9.503-9.963-31.117-10.883-36.328zm13.029 37.861c-.153-.766.613-1.686 1.38-2.146.306 1.073 1.38 2.453-1.38 2.146zM36.89 243.456c-.153-.92.46-1.533 1.38-1.686 1.226-.154 34.796-5.059 49.511-6.132 1.993-.153 3.066 0 2.912 1.073-.153 1.533-1.84.92-2.759 1.073l-49.204 6.438c-.766.154-1.686-.306-1.839-.766zm50.277-3.372c-2.453 7.97-5.058 15.328-8.737 23.452-1.38 3.526-2.146 3.986-5.212 1.993-8.584-5.825-16.248-12.723-24.679-20.08 7.971-1.38 32.037-4.599 38.628-5.365zm123.394-9.504c7.204 6.591 14.715 13.029 22.226 19.62-3.219 3.373-6.438 6.285-8.124 10.73l-27.591-17.474c-7.664-4.905-15.788-5.518-24.526-4.445-15.635 1.992-30.35 7.97-45.679 11.496-1.992.46 4.752-6.285 3.219-7.204-1.686-1.227-3.832 1.992-4.905 3.832-8.277 13.182-33.263 47.365-34.949 49.511-5.978 7.511-14.562 6.438-20.847.46-7.358-7.052-24.679-29.125-28.511-35.256-.92-1.686-1.073-2.299.306-3.679 2.759-2.606 4.905-5.978 6.898-9.35 6.591 5.671 23.146 19.467 25.292 20.387 3.372 1.379 5.671 0 7.204-3.373 3.372-7.664 6.131-15.635 8.584-23.759.46-1.379 3.219-2.299 4.599-1.533 5.518 3.373 11.496 1.993 17.321 1.227.46 0 1.226-.307 1.533-.767 4.598-5.671 11.19-4.445 17.168-5.211 11.803-1.687 23.606-2.913 35.409-4.292 11.649-1.38 23.299-2.606 34.795-4.446 4.752-.919 7.511.767 10.577 3.526zm14.562-6.898c4.445-1.226 4.445-.46 4.139 2.913-1.38-.92-3.066-2.146-4.139-2.913zm-114.504 11.19c-1.992.153-1.839-1.686-.613-1.686l133.358-16.095c0 .306 0 1.226-.153 1.226-3.066.613-128.147 16.095-132.592 16.555zm145.161-9.657c-1.226.766-2.606 1.379-3.679 2.452-.92.92-2.146 1.38-3.372 1.073-4.599-1.226-9.044-3.065-13.336-6.131 1.993-.306 3.526-.613 5.059-.766 4.292-.46 4.598-1.227 5.058-5.519 0-.613.307-3.832 1.226-1.839 1.227 2.759.92 3.679 1.533 5.212.153.46.46 1.073 1.226.919.613-.153.307-.766.307-1.226-.46-2.912-1.993-11.343 0-8.584 3.679 4.905 1.686 7.358 3.372 6.898 1.686-.307-2.606-9.964.46-7.818 1.533 1.073 2.146 8.278 3.066 7.665 1.226-.767-1.993-7.971 0-6.592 1.686 1.073 2.299 6.745 2.299 7.052.766 4.905.766 4.905-3.219 7.204zm3.372-12.263l-4.905-43.533 1.226-.153 5.212 43.38-1.533.306zm1.227 4.292c-.154-.46-.614-2.146-.614-2.759l151.446-18.547c2.606-.307 3.372 2.605.306 2.912L260.38 217.244z" fill="#333"/></svg>