<svg xmlns="http://www.w3.org/2000/svg" width="48" height="48" fill="none" xmlns:v="https://vecta.io/nano"><rect width="48" height="48" rx="16" fill="#00b899"/><path d="M26.715 17.211c0-1.657 1.374-2.997 3.067-2.997s3.068 1.342 3.068 2.997-1.374 2.997-3.068 2.997-3.067-1.339-3.067-2.997zm8.486 11.805h-.686c-1.407 0-2.116-1.013-2.116-2.609v-2.997h-5.198v4.247c0 4.615 3.013 6.552 5.929 6.552h2.07v-5.193zm-17.194 1.426c0-1.544.841-2.246 2.549-2.246h4.238v-4.799h-6.787v-1.981c0-1.567 1.332-2.419 2.923-2.419h3.857V14.2h-5.183c-4.074 0-6.803 2.188-6.803 6.777v13.22h5.206v-3.756z" fill="#fff"/></svg>