<svg xmlns="http://www.w3.org/2000/svg" width="64" height="44" fill="none" xmlns:v="https://vecta.io/nano"><g clip-path="url(#A)" fill="#00b899"><path d="M31.814 16.101c-2.984 0-5.412-2.381-5.412-5.308s2.428-5.306 5.412-5.306 5.415 2.381 5.415 5.306-2.429 5.308-5.415 5.308zm9.204 22.344h-4.581c-4.641 0-9.323-3.307-9.323-10.695v-7.653h9.462v6.279c0 2.203.726 2.606 2.156 2.606h2.286v9.462zm-38.03.024h9.525v-7.121c0-1.905.604-2.398 2.935-2.398h8.472v-8.88H12.512v-2.507c0-2.394.658-3.202 2.608-3.202h8.788V5.487h-10.53c-6.797 0-10.39 3.503-10.39 10.13v22.852zm49.042-4.468h-4.98v1.47h1.71v4.53h1.59v-4.53h1.68v-1.47zm5.49 0l-1.65 2.52-1.62-2.52h-1.56v6h1.56v-3.45l1.56 2.37h.15l1.56-2.4v3.48h1.56v-6h-1.56z"/></g><defs><clipPath id="A"><path fill="#fff" d="M0 0h64v44H0z"/></clipPath></defs></svg>
