<svg xmlns="http://www.w3.org/2000/svg" width="185" height="60" fill="none"  xmlns:v="https://vecta.io/nano"><g filter="url(#A)"><rect x="8" y="10" width="169" height="44" rx="10" fill="#fff"/></g><path d="M67.781 31.736h-4.914v1.708h2.968c-.336 1.12-1.316 1.862-2.856 1.862-2.044 0-3.346-1.372-3.346-3.192 0-1.862 1.344-3.234 3.206-3.234 1.19 0 2.184.574 2.632 1.358l1.652-.952c-.826-1.344-2.408-2.282-4.27-2.282-2.926 0-5.138 2.268-5.138 5.11 0 2.8 2.184 5.082 5.25 5.082 2.814 0 4.816-1.876 4.816-4.704v-.756zm3.756 3.416v-2.198h3.71v-1.82h-3.71v-2.086h4.06V27.2h-5.992V37h6.062v-1.848h-4.13zM83.961 27.2h-7.21v1.848h2.632V37h1.932v-7.952h2.646V27.2zm11.96 0h-7.21v1.848h2.632V37h1.932v-7.952h2.646V27.2zm7.101 0v3.892h-3.64V27.2H97.45V37h1.932v-4.06h3.64V37h1.918v-9.8h-1.918zm6.12 7.952v-2.198h3.71v-1.82h-3.71v-2.086h4.06V27.2h-5.992V37h6.062v-1.848h-4.13zm15.744-6.104V27.2h-5.852V37h1.932v-3.78h3.808v-1.848h-3.808v-2.324h3.92zm1.858-1.848V37h1.932v-9.8h-1.932zM141.19 37h2.1l-3.444-9.8h-2.394l-3.43 9.8h2.086l.588-1.764h3.906L141.19 37zm-3.878-3.57l1.344-4.004L140 33.43h-2.688zm11.034-6.23h-3.654V37h1.932v-3.22h1.722c1.89 0 3.346-1.456 3.346-3.29s-1.456-3.29-3.346-3.29zm0 4.774h-1.722v-2.968h1.722c.826 0 1.428.63 1.428 1.484 0 .84-.602 1.484-1.428 1.484zm8.707-4.774h-3.654V37h1.932v-3.22h1.722c1.89 0 3.346-1.456 3.346-3.29s-1.456-3.29-3.346-3.29zm0 4.774h-1.722v-2.968h1.722c.826 0 1.428.63 1.428 1.484 0 .84-.602 1.484-1.428 1.484z" fill="#424242"/><rect x="24" y="18" width="28" height="28" rx="5" fill="#fff"/><g clip-path="url(#B)"><g fill="#32bbff"><path d="M44.934 28.86l-11.836-6.625c-.39-.258-.839-.291-1.226-.16l9.924 9.924 3.139-3.139z"/><path d="M31.872 22.075a1.42 1.42 0 0 0-.211.09c-.428.231-.743.677-.743 1.241v17.186c0 .564.315 1.009.743 1.241a1.45 1.45 0 0 0 .211.09l9.924-9.924-9.924-9.924z"/><path d="M41.795 32l-9.924 9.924a1.38 1.38 0 0 0 1.227-.16l11.647-6.514.193-.108L41.795 32z"/></g><path d="M30.922 32v8.593c0 .563.314 1.009.743 1.241a1.43 1.43 0 0 0 .211.09L41.799 32H30.922z" fill="#2c9fd9"/><path d="M33.101 22.236a1.4 1.4 0 0 0-1.437-.07l9.984 9.984 3.29-3.29-11.836-6.625z" fill="#29cc5e"/><path d="M41.648 31.848l-9.984 9.984a1.39 1.39 0 0 0 1.437-.07l11.647-6.514.193-.108-3.293-3.293z" fill="#d93f21"/><path d="M49.08 32.001a1.39 1.39 0 0 0-.716-1.223l-3.62-2.024-3.247 3.247 3.25 3.25 3.617-2.027a1.39 1.39 0 0 0 .717-1.223z" fill="#ffd500"/><path d="M48.364 33.223A1.39 1.39 0 0 0 49.08 32h-7.584l3.25 3.25 3.617-2.027z" fill="#fa0"/></g><defs><filter id="A" x="0" y="0" width="185" height="60" filterUnits="userSpaceOnUse" color-interpolation-filters="sRGB"><feFlood flood-opacity="0" result="A"/><feColorMatrix in="SourceAlpha" values="0 0 0 0 0 0 0 0 0 0 0 0 0 0 0 0 0 0 127 0"/><feOffset dy="-2"/><feGaussianBlur stdDeviation="4"/><feColorMatrix values="0 0 0 0 0 0 0 0 0 0 0 0 0 0 0 0 0 0 0.1 0"/><feBlend in2="A"/><feBlend in="SourceGraphic"/></filter><clipPath id="B"><path fill="#fff" transform="translate(30 22)" d="M0 0h20v20H0z"/></clipPath></defs></svg>