<svg xmlns="http://www.w3.org/2000/svg" width="297" height="58" fill="none"  xmlns:v="https://vecta.io/nano"><rect width="297" height="58" rx="10" fill="#fff"/><path d="M118.075 28.608h-5.967v2.074h3.604c-.408 1.36-1.598 2.261-3.468 2.261-2.482 0-4.063-1.666-4.063-3.876 0-2.261 1.632-3.927 3.893-3.927 1.445 0 2.652.697 3.196 1.649l2.006-1.156c-1.003-1.632-2.924-2.771-5.185-2.771-3.553 0-6.239 2.754-6.239 6.205 0 3.4 2.652 6.171 6.375 6.171 3.417 0 5.848-2.278 5.848-5.712v-.918zm4.464 4.148v-2.669h4.505v-2.21h-4.505v-2.533h4.93V23.1h-7.276V35h7.361v-2.244h-5.015zm14.99-9.656h-8.755v2.244h3.196V35h2.346v-9.656h3.213V23.1zm14.331 0h-8.755v2.244h3.196V35h2.346v-9.656h3.213V23.1zm8.525 0v4.726h-4.42V23.1h-2.346V35h2.346v-4.93h4.42V35h2.329V23.1h-2.329zm7.336 9.656v-2.669h4.505v-2.21h-4.505v-2.533h4.93V23.1h-7.276V35h7.361v-2.244h-5.015zm18.925-7.412V23.1h-7.106V35h2.346v-4.59h4.624v-2.244h-4.624v-2.822h4.76zm2.159-2.244V35h2.346V23.1h-2.346zM206.154 35h2.55l-4.182-11.9h-2.907L197.45 35h2.533l.714-2.142h4.743l.714 2.142zm-4.709-4.335l1.632-4.862 1.632 4.862h-3.264zm13.301-7.565h-4.437V35h2.346v-3.91h2.091c2.295 0 4.063-1.768 4.063-3.995s-1.768-3.995-4.063-3.995zm0 5.797h-2.091v-3.604h2.091c1.003 0 1.734.765 1.734 1.802 0 1.02-.731 1.802-1.734 1.802zm10.478-5.797h-4.437V35h2.346v-3.91h2.091c2.295 0 4.063-1.768 4.063-3.995s-1.768-3.995-4.063-3.995zm0 5.797h-2.091v-3.604h2.091c1.003 0 1.734.765 1.734 1.802 0 1.02-.731 1.802-1.734 1.802z" fill="#424242"/><rect x="67" y="15" width="28" height="28" rx="5" fill="#fff"/><g clip-path="url(#A)"><g fill="#32bbff"><path d="M85.934 25.86l-11.836-6.625c-.39-.258-.839-.291-1.226-.16l9.924 9.924 3.139-3.139z"/><path d="M72.872 19.075a1.42 1.42 0 0 0-.211.09c-.428.231-.743.677-.743 1.241v17.186c0 .564.314 1.009.743 1.241a1.45 1.45 0 0 0 .211.09l9.924-9.924-9.924-9.924z"/><path d="M82.795 28.999l-9.924 9.924a1.38 1.38 0 0 0 1.227-.16l11.647-6.514.193-.108-3.142-3.142z"/></g><path d="M71.918 28.999v8.593c0 .564.314 1.009.743 1.241a1.45 1.45 0 0 0 .211.09l9.924-9.924H71.918z" fill="#2c9fd9"/><path d="M74.101 19.236a1.4 1.4 0 0 0-1.437-.07l9.984 9.984 3.289-3.29-11.836-6.625z" fill="#29cc5e"/><path d="M82.648 28.849l-9.984 9.984a1.39 1.39 0 0 0 1.437-.07l11.647-6.514.193-.108-3.292-3.293z" fill="#d93f21"/><path d="M90.08 28.999a1.39 1.39 0 0 0-.716-1.223l-3.62-2.024-3.247 3.247 3.25 3.25 3.617-2.027a1.39 1.39 0 0 0 .717-1.223z" fill="#ffd500"/><path d="M89.364 30.222a1.39 1.39 0 0 0 .716-1.223h-7.584l3.25 3.25 3.617-2.027z" fill="#fa0"/></g><defs><clipPath id="A"><path fill="#fff" transform="translate(71 19)" d="M0 0h20v20H0z"/></clipPath></defs></svg>