<svg xmlns="http://www.w3.org/2000/svg" width="44" height="49" fill="#00b899" fill-rule="evenodd" xmlns:v="https://vecta.io/nano"><path d="M6.813 17.636c-1.124 0-2.036.911-2.036 2.036v21.696c0 1.124.911 2.036 2.036 2.036h30.375c1.124 0 2.036-.912 2.036-2.036V19.672c0-1.124-.911-2.036-2.036-2.036H6.813zM.17 19.672c0-3.669 2.974-6.643 6.643-6.643h30.375c3.669 0 6.643 2.974 6.643 6.643v21.696c0 3.669-2.974 6.643-6.643 6.643H6.813c-3.669 0-6.643-2.974-6.643-6.643V19.672z"/><path d="M13.772.18c1.709-.34 3.481-.166 5.092.501A8.81 8.81 0 0 1 22 2.882 8.81 8.81 0 0 1 25.137.682c1.61-.667 3.382-.842 5.092-.501s3.28 1.179 4.512 2.412 2.072 2.803 2.412 4.512.166 3.481-.502 5.092a8.81 8.81 0 0 1-8.142 5.44c-1.272 0-2.303-1.031-2.303-2.304s1.031-2.303 2.303-2.303c.832 0 1.645-.247 2.336-.709s1.231-1.119 1.549-1.887.402-1.614.239-2.43-.563-1.565-1.151-2.153-1.338-.989-2.153-1.151-1.661-.079-2.43.239-1.425.857-1.887 1.549-.709 1.505-.709 2.336v19.393h17.223c1.272 0 2.303 1.031 2.303 2.303s-1.031 2.304-2.303 2.304H24.304v12.884c0 1.272-1.031 2.304-2.304 2.304s-2.303-1.031-2.303-2.304V32.823H2.473C1.201 32.823.17 31.792.17 30.52s1.031-2.303 2.304-2.303h17.223V8.823c0-.832-.247-1.645-.709-2.336S17.869 5.256 17.1 4.938s-1.614-.402-2.43-.239-1.565.563-2.153 1.151-.989 1.337-1.151 2.153-.079 1.661.239 2.43.857 1.425 1.549 1.887 1.505.709 2.336.709c1.272 0 2.303 1.031 2.303 2.303s-1.031 2.304-2.303 2.304a8.81 8.81 0 0 1-8.142-5.44c-.667-1.61-.842-3.382-.501-5.092A8.81 8.81 0 0 1 9.26 2.592C10.492 1.359 12.062.52 13.772.18z"/></svg>