<svg width="227" height="259" viewBox="0 0 227 259" fill="none" xmlns="http://www.w3.org/2000/svg">
<path d="M150.23 180.742C150.119 180.689 150.006 180.639 149.887 180.597C149.274 180.368 148.563 180.242 147.755 180.215C147.21 180.197 146.484 180.229 145.571 180.308C145.271 180.337 145.007 180.368 144.781 180.4C144.431 180.042 144.078 179.721 143.728 179.439C142.678 178.602 141.501 177.983 140.201 177.583C139.922 178.018 139.453 178.318 138.793 178.478C138.529 178.539 138.214 178.578 137.845 178.597C137.416 178.615 137.09 178.628 136.871 178.636C135.371 178.702 133.805 179.047 132.173 179.676C132.13 179.731 132.083 179.794 132.028 179.86C131.746 180.194 131.362 180.518 130.87 180.834C130.738 180.921 130.298 181.176 129.554 181.597C128.914 181.966 127.861 182.642 126.395 183.624C125.052 184.527 123.986 185.19 123.197 185.611C123.018 185.93 122.847 186.254 122.683 186.585C122.007 187.962 121.573 189.257 121.38 190.468C121.257 191.266 121.217 192.324 121.262 193.64C121.323 195.272 121.341 196.333 121.315 196.825C121.288 197.501 121.204 198.523 121.065 199.891C121.041 200.373 121.044 200.82 121.078 201.234C121.123 201.858 121.233 202.405 121.407 202.879C121.525 203.208 121.694 203.555 121.907 203.919C122.094 204.229 122.312 204.548 122.565 204.879C122.881 205.293 123.363 205.906 124.013 206.722C124.479 207.346 125.087 208.341 125.842 209.71C125.908 209.831 125.974 209.949 126.04 210.065C126.703 211.252 127.242 212.129 127.658 212.697C128.577 213.939 129.709 215.019 131.054 215.935C131.762 216.424 132.531 216.867 133.357 217.264C135.516 218.298 137.911 218.956 140.543 219.238C143.044 219.509 145.049 219.272 146.558 218.527C146.805 218.401 147.068 218.248 147.347 218.067C147.432 218.067 147.516 218.067 147.597 218.067C148.563 218.059 149.485 217.896 150.361 217.58C151.283 217.246 152.077 216.772 152.743 216.158C152.98 215.94 153.288 215.614 153.665 215.184C154.086 214.703 154.383 214.374 154.56 214.197C155.244 213.6 155.752 213.15 156.086 212.842C156.684 212.289 157.105 211.768 157.35 211.276C157.402 211.17 157.513 210.902 157.679 210.473C157.803 210.139 157.924 209.881 158.047 209.696C158.179 209.504 158.424 209.236 158.784 208.893C159.119 208.57 159.35 208.296 159.482 208.077C159.692 207.727 159.816 207.275 159.85 206.722C159.858 206.072 159.869 205.585 159.877 205.261C159.895 204.9 159.937 204.45 160.008 203.905C160.095 203.308 160.158 202.86 160.193 202.563C160.29 201.676 160.329 200.449 160.311 198.878C160.311 197.912 160.227 197.188 160.061 196.706C159.832 196.04 159.384 195.417 158.719 194.837C158.461 194.611 158.108 194.348 157.666 194.048C157.708 192.529 157.379 190.921 156.679 189.218C156.126 187.875 155.278 186.343 154.138 184.624C153.462 183.606 152.849 182.813 152.296 182.242C152.127 182.066 151.956 181.905 151.783 181.755C151.283 181.316 150.767 180.979 150.23 180.742ZM147.953 39.5101C147.655 39.8707 147.4 40.1339 147.189 40.2997C146.997 40.4577 146.708 40.6419 146.321 40.8525C145.9 41.0894 145.61 41.2658 145.452 41.379C144.926 41.7659 144.386 42.3845 143.833 43.2347C143.017 44.4797 142.551 45.1772 142.438 45.3273C142.078 45.7405 141.812 46.0511 141.635 46.2617C141.327 46.6302 141.114 46.9724 140.991 47.2883C140.867 47.5857 140.785 47.9595 140.74 48.407C140.714 48.6623 140.688 49.044 140.661 49.552C140.633 49.8626 140.577 50.2311 140.49 50.6575C140.161 50.7576 139.872 50.8786 139.622 51.026C139.114 51.3209 138.608 51.8025 138.108 52.4738C137.961 52.6317 137.806 52.8212 137.648 53.0397C136.876 54.0742 136.345 55.106 136.055 56.1326C136.018 56.2615 135.984 56.3931 135.95 56.5274C135.723 57.1749 135.547 57.8145 135.423 58.4489C135.173 58.7279 134.979 59.0569 134.844 59.436C134.642 60.0493 134.602 60.8363 134.726 61.7918C134.813 62.4051 135.015 63.3185 135.331 64.5293L136.108 67.5564C136.416 68.733 136.687 69.5885 136.924 70.1228C137.179 70.7019 137.627 71.4652 138.266 72.4128C138.951 73.4131 139.556 74.2028 140.082 74.7818C140.812 75.5899 141.562 76.2217 142.333 76.677C142.817 76.9666 143.515 77.2719 144.426 77.5983C144.549 77.7668 144.699 77.9379 144.873 78.1116C145.873 79.1382 147.129 79.9199 148.637 80.4543C150.006 80.936 151.488 81.1913 153.086 81.2176C154.815 81.2439 156.468 81.0149 158.047 80.5332C159.545 80.07 160.877 79.4093 162.048 78.5459C163.535 78.001 164.786 77.4535 165.799 76.9008C167.15 76.1716 168.279 75.3425 169.182 74.4133C169.884 73.6763 170.385 72.9577 170.682 72.2549C170.937 71.6811 171.087 71.0888 171.129 70.4782C171.314 70.1676 171.458 69.9017 171.564 69.6753C171.672 69.449 171.764 69.2252 171.84 69.0041C172.132 68.6988 172.398 68.375 172.643 68.0302C173.13 67.3458 173.538 66.5561 173.867 65.6612C174.417 64.8847 174.838 64.0687 175.13 63.2132C175.359 62.521 175.565 61.5286 175.749 60.2388C175.76 60.173 175.767 60.1072 175.775 60.0414C176.204 59.107 176.42 58.0278 176.42 56.8038C176.42 56.0931 176.349 55.3113 176.21 54.4611C176.104 53.8636 175.939 53.0923 175.71 52.1447C175.428 50.9945 175.144 50.0995 174.854 49.4599C174.741 49.2124 174.617 48.9808 174.486 48.7623C174.409 48.5096 174.325 48.2569 174.235 47.999C173.043 44.6218 171.082 41.9133 168.352 39.8786C166.439 38.4493 164.351 37.4912 162.088 37.0095C160.764 36.7199 159.158 36.583 157.271 36.6015C155.97 36.6146 154.778 36.6883 153.691 36.8252C153.243 36.8805 152.812 36.9463 152.401 37.0226C150.843 37.3306 149.653 37.8386 148.835 38.5493C148.792 38.5941 148.748 38.6388 148.703 38.6809C148.553 38.8204 148.303 39.0968 147.953 39.5101ZM178.197 225.476C177.997 225.645 177.776 225.882 177.539 226.187C176.433 226.761 175.407 227.519 174.459 228.464C174.433 228.49 174.407 228.517 174.38 228.543C174.056 228.875 173.754 229.212 173.472 229.556C171.769 231.696 170.919 234.189 170.919 237.032C170.919 240.314 172.056 243.123 174.328 245.455C174.912 247.084 175.865 248.558 177.184 249.877C179.553 252.246 182.409 253.431 185.751 253.431C189.094 253.431 191.945 252.246 194.306 249.877C194.912 249.274 195.438 248.637 195.885 247.969C197.202 246.026 197.86 243.813 197.86 241.322C197.86 238.045 196.72 235.234 194.438 232.886C193.859 231.262 192.906 229.788 191.582 228.464C189.497 226.379 187.028 225.213 184.172 224.963C183.209 224.618 182.216 224.46 181.198 224.489C179.961 224.524 178.96 224.853 178.197 225.476ZM177.039 226.911C176.981 227.003 176.926 227.095 176.868 227.187L176.262 228.148C176.26 228.13 176.254 228.114 176.249 228.096C176.268 228.035 176.283 227.969 176.302 227.898C176.283 227.838 176.275 227.772 176.275 227.701C176.31 227.648 176.354 227.588 176.407 227.516C176.415 227.456 176.433 227.39 176.46 227.319C176.512 227.274 176.565 227.227 176.618 227.174C176.689 227.13 176.749 227.077 176.802 227.016C176.881 226.982 176.96 226.948 177.039 226.911ZM35.7675 192.876C35.7675 192.929 35.7675 192.982 35.7675 193.034C34.8541 194.737 34.3987 196.627 34.3987 198.707C34.3987 202.05 35.5779 204.9 37.9391 207.262C38.8287 208.151 39.7842 208.875 40.8082 209.433C42.5191 210.354 44.4196 210.815 46.5069 210.815C49.8499 210.815 52.7006 209.631 55.0617 207.262C57.0779 205.253 58.2361 202.889 58.5362 200.168C60.0813 198.059 60.8525 195.63 60.8525 192.876C60.8525 189.41 59.6286 186.454 57.1806 184.006C57.0964 183.922 57.0069 183.837 56.9174 183.756C54.5247 181.474 51.6556 180.334 48.31 180.334C44.8434 180.334 41.8874 181.558 39.4394 184.006C36.9915 186.454 35.7675 189.41 35.7675 192.876ZM10.735 24.2432C9.40841 25.0381 8.1581 26.0199 6.98413 27.1913C3.31745 30.8659 1.48279 35.3012 1.48279 40.4972C1.48279 44.5192 2.58306 48.0832 4.78623 51.184C5.57852 54.3611 7.2105 57.1881 9.68216 59.6597C13.333 63.3106 17.7368 65.1348 22.8959 65.1348C26.6179 65.1348 29.9424 64.1819 32.872 62.2788C34.0065 61.5497 35.0805 60.6784 36.0965 59.6597C39.7474 56.0194 41.5715 51.6183 41.5715 46.4591C41.5715 42.7135 40.6108 39.3679 38.6892 36.4172C37.9601 32.9401 36.2571 29.8656 33.5827 27.1913C29.916 23.5246 25.4834 21.6899 20.29 21.6899C16.7523 21.6899 13.5673 22.5401 10.735 24.2432Z" fill="#F4E6C1"/>
<path d="M86.1385 90.9479C85.8937 92.5009 86.4228 94.0012 87.731 95.449C88.7654 96.6071 90.2 97.6469 92.0347 98.5681C95.0538 100.087 98.1493 101.327 101.326 102.293C102.661 102.695 104.677 103.28 107.381 104.043C109.689 104.78 111.587 105.617 113.079 106.557C113.266 106.675 113.445 106.794 113.619 106.912C114.996 107.884 115.956 108.95 116.501 110.11C116.87 110.892 117.033 111.703 116.988 112.545C116.943 113.44 116.672 114.204 116.172 114.835C117.067 114.914 117.875 115.314 118.594 116.033C119.094 116.533 119.673 117.341 120.331 118.455C121.165 119.876 121.713 120.776 121.976 121.153C122.668 122.1 123.403 122.766 124.174 123.153C124.903 123.522 125.867 123.719 127.07 123.745C127.746 123.764 128.767 123.766 130.136 123.758C131.242 123.837 132.21 124.188 133.045 124.811C133.966 125.496 134.369 126.312 134.255 127.259C134.177 127.944 133.813 128.554 133.163 129.089C132.618 129.528 131.934 129.884 131.11 130.155C129.188 130.61 127.746 130.952 126.78 131.181C125.061 131.595 123.732 132.155 122.792 132.866C122.363 133.19 121.613 133.953 120.542 135.156C119.639 136.156 118.831 136.833 118.12 137.183C117.304 137.586 115.948 137.82 114.053 137.88C112.192 137.941 110.85 138.191 110.026 138.631C109.176 139.078 108.297 139.952 107.394 141.25C106.254 142.882 105.472 143.895 105.051 144.29C104.095 145.185 102.822 145.856 101.234 146.303C100.2 146.593 98.7258 146.838 96.8121 147.04C96.7279 147.048 96.6463 147.059 96.5621 147.067C94.9906 147.233 93.7798 147.317 92.9296 147.317C91.4819 147.309 90.2132 147.125 89.1261 146.764C88.1521 146.448 87.1387 145.93 86.0858 145.211C85.7226 144.958 85.283 144.629 84.7697 144.224C84.3538 143.892 83.8879 143.511 83.3747 143.079C81.1109 141.192 79.4211 139.71 78.3076 138.631C76.5177 136.901 75.0753 135.201 73.9776 133.524C73.1537 132.287 72.4983 131.437 72.0166 130.971C71.1559 130.136 70.2741 129.781 69.3712 129.905C69.0211 129.949 68.521 130.128 67.8709 130.444C67.2207 130.752 66.718 130.926 66.3573 130.971C65.6993 131.05 65.0412 130.873 64.3832 130.444C63.962 130.173 63.3882 129.673 62.6591 128.944C61.8957 128.173 61.3245 127.649 60.9481 127.378C60.2716 126.904 59.611 126.672 58.9608 126.68C58.637 126.688 58.2317 126.767 57.75 126.917C57.0314 127.136 56.6313 127.254 56.5523 127.273C56.1048 127.378 55.6837 127.386 55.2889 127.299C54.8335 127.201 54.5071 126.983 54.3149 126.641C54.3413 126.612 54.3676 126.58 54.3939 126.549C54.3676 126.538 54.3413 126.525 54.3149 126.509C54.2886 126.493 54.2623 126.475 54.236 126.457C54.4834 142.079 58.9239 155.958 67.555 168.098C70.1135 171.702 73.0406 175.15 76.3335 178.443C83.014 185.123 90.3237 190.293 98.2599 193.947C105.298 197.187 112.832 199.235 120.857 200.093C120.921 200.48 120.994 200.862 121.081 201.238C121.047 200.825 121.044 200.377 121.068 199.896C121.208 198.527 121.292 197.505 121.318 196.829C121.344 196.337 121.326 195.276 121.265 193.644C121.221 192.328 121.26 191.27 121.384 190.472C121.576 189.261 122.01 187.966 122.687 186.59C122.85 186.258 123.021 185.934 123.2 185.616C123.99 185.195 125.056 184.531 126.398 183.628C127.864 182.647 128.917 181.97 129.557 181.602C130.302 181.18 130.741 180.925 130.873 180.838C131.365 180.522 131.75 180.199 132.031 179.864C132.087 179.798 132.134 179.735 132.176 179.68C132.3 179.53 132.397 179.412 132.466 179.325C132.642 179.114 132.808 178.956 132.966 178.851C133.176 178.701 133.447 178.596 133.782 178.535C133.932 178.509 134.229 178.474 134.677 178.43C136.198 178.322 138.049 178.027 140.231 177.548C140.22 177.561 140.212 177.574 140.204 177.587C141.505 177.988 142.681 178.606 143.731 179.443C144.082 179.725 144.434 180.046 144.784 180.404C145.011 180.372 145.274 180.341 145.574 180.312C146.487 180.233 147.214 180.201 147.759 180.22C148.567 180.246 149.278 180.372 149.891 180.601C150.009 180.643 150.123 180.693 150.233 180.746C150.267 180.433 150.378 180.064 150.562 179.641C151.036 178.58 151.436 177.79 151.76 177.272C152.286 176.437 152.884 175.816 153.55 175.403C154.41 174.858 155.569 174.579 157.024 174.56C158.946 174.534 160.78 174.884 162.526 175.613C162.965 175.798 163.623 176.087 164.5 176.482C165.271 176.79 165.961 176.948 166.566 176.956C167.311 176.974 167.982 176.74 168.58 176.258C169.211 175.74 169.48 175.145 169.382 174.468C169.348 174.239 169.153 173.752 168.803 173.007C168.532 172.428 168.456 171.954 168.58 171.586C168.651 171.383 168.974 170.973 169.554 170.349C169.975 169.875 170.101 169.472 169.935 169.138C169.864 168.988 169.738 168.862 169.554 168.756C169.335 168.643 169.167 168.554 169.053 168.493C167.956 167.922 167.429 166.914 167.474 165.466C167.519 164.018 168.106 163.044 169.238 162.544C169.704 162.342 170.462 162.207 171.515 162.136C172.56 162.057 173.318 161.907 173.791 161.689C174.739 161.26 175.35 160.46 175.621 159.293C175.884 158.154 175.721 157.122 175.134 156.201C174.581 155.332 173.765 154.695 172.686 154.292C171.667 153.916 170.612 153.811 169.514 153.976C168.074 154.345 167 154.6 166.29 154.74C165.034 154.995 164.031 154.89 163.276 154.424C162.67 154.047 162.189 153.424 161.828 152.555C161.723 152.31 161.473 151.51 161.078 150.16C160.815 149.246 160.428 148.501 159.92 147.922C159.314 147.219 158.635 146.89 157.88 146.935C157.308 146.969 156.643 147.312 155.879 147.962C154.984 148.707 154.339 149.154 153.944 149.304C153.347 149.523 152.694 149.536 151.983 149.344C151.36 149.178 150.752 148.878 150.154 148.449C149.793 148.186 149.28 147.746 148.614 147.133C147.956 146.519 147.443 146.08 147.074 145.817C145.924 145.124 145.074 144.593 144.521 144.224C143.547 143.574 142.915 142.874 142.626 142.118C142.363 141.426 142.342 140.663 142.56 139.828C142.763 139.083 143.126 138.373 143.653 137.696C144.003 137.249 144.547 136.677 145.284 135.985C146.1 135.214 146.659 134.656 146.956 134.314C147.817 133.332 148.583 132.097 149.259 130.615C149.68 129.686 150.199 128.307 150.812 126.483C151.873 123.358 152.676 120.95 153.221 119.257C154.081 116.573 154.808 114.138 155.405 111.953C155.792 110.497 156.161 109.405 156.511 108.676C157.056 107.526 157.761 106.696 158.63 106.188C159.227 105.838 159.941 105.622 160.775 105.544C161.415 105.472 162.183 105.483 163.078 105.57C164.597 105.72 167.435 106.294 171.594 107.294C175.139 108.136 177.982 108.544 180.122 108.518C181.525 108.5 182.759 108.268 183.82 107.82C185.084 107.286 185.939 106.491 186.387 105.438C186.51 105.141 186.681 104.391 186.9 103.188C187.066 102.248 187.342 101.564 187.729 101.135C188.142 100.669 188.879 100.298 189.94 100.016C191.159 99.6921 191.962 99.3973 192.349 99.1341C192.946 98.7392 193.423 98.1338 193.783 97.3178C194.028 96.7835 194.27 96.0096 194.507 95.0015L196.034 88.592C193.909 84.7964 191.409 81.156 188.532 77.6683C186.853 75.6204 185.039 73.6226 183.096 71.68C180.559 69.1425 177.932 66.8209 175.213 64.7178C176.242 62.7331 176.887 60.5878 177.148 58.282C177.234 57.4923 177.279 56.6895 177.279 55.8735C177.279 50.5038 175.379 45.9184 171.58 42.1201C171.362 41.9017 171.138 41.6858 170.909 41.4753C170.67 41.2568 170.425 41.0409 170.172 40.8304C166.663 37.8902 162.547 36.4214 157.827 36.4214C156.392 36.4214 155.016 36.5583 153.694 36.8294C154.782 36.6925 155.974 36.6188 157.274 36.6056C159.162 36.5872 160.767 36.7241 162.091 37.0136C164.355 37.4953 166.442 38.4535 168.356 39.8828C171.086 41.9175 173.047 44.626 174.239 48.0032C174.328 48.2611 174.413 48.5138 174.489 48.7665C174.623 48.985 174.744 49.2166 174.857 49.464C175.147 50.1037 175.431 50.9986 175.713 52.1489C175.942 53.0965 176.108 53.8678 176.213 54.4653C176.353 55.3155 176.424 56.0972 176.424 56.8079C176.424 58.0319 176.208 59.1111 175.779 60.0456C175.771 60.1114 175.763 60.1772 175.752 60.243C175.568 61.5328 175.363 62.5251 175.134 63.2174C174.842 64.0729 174.421 64.8889 173.87 65.6654C173.541 66.5603 173.133 67.35 172.646 68.0344C172.402 68.3792 172.136 68.703 171.844 69.0083C171.767 69.2294 171.675 69.4531 171.567 69.6795C171.462 69.9059 171.317 70.1717 171.133 70.4823C171.091 71.093 170.941 71.6853 170.685 72.2591C170.388 72.9619 169.888 73.6805 169.185 74.4175C168.282 75.3467 167.153 76.1758 165.803 76.905C164.789 77.4577 163.539 78.0052 162.052 78.5501C160.88 79.4135 159.548 80.0741 158.051 80.5374C156.471 81.0191 154.818 81.2481 153.089 81.2218C151.491 81.1955 150.009 80.9402 148.641 80.4585C147.132 79.9241 145.877 79.1423 144.876 78.1158C144.703 77.9421 144.553 77.771 144.429 77.6025C143.518 77.2761 142.821 76.9708 142.336 76.6812C141.565 76.2258 140.815 75.5941 140.086 74.786C139.559 74.2069 138.954 73.4173 138.27 72.417C137.63 71.4694 137.183 70.7061 136.927 70.127C136.69 69.5926 136.419 68.7372 136.111 67.5606L135.335 64.5335C135.019 63.3227 134.816 62.4093 134.729 61.796C134.606 60.8405 134.645 60.0535 134.848 59.4402C134.982 59.0611 135.177 58.7321 135.427 58.4531C135.551 57.8187 135.727 57.1791 135.953 56.5316C135.987 56.3973 136.022 56.2657 136.059 56.1367C136.348 55.1102 136.88 54.0783 137.651 53.0439C137.809 52.8254 137.964 52.6359 138.112 52.4779C138.612 51.8067 139.117 51.325 139.625 51.0302C139.875 50.8828 140.165 50.7617 140.494 50.6617C140.581 50.2353 140.636 49.8668 140.665 49.5562C140.691 49.0482 140.718 48.6665 140.744 48.4112C140.789 47.9637 140.87 47.5899 140.994 47.2925C141.118 46.9766 141.331 46.6344 141.639 46.2659C141.815 46.0553 142.081 45.7447 142.442 45.3315C142.555 45.1814 143.021 44.4839 143.837 43.2388C144.39 42.3886 144.929 41.7701 145.456 41.3831C145.614 41.2699 145.903 41.0936 146.324 40.8567C146.711 40.6461 147.001 40.4618 147.193 40.3039C147.403 40.1381 147.659 39.8749 147.956 39.5142C148.306 39.101 148.556 38.8246 148.706 38.6851C148.751 38.643 148.796 38.5982 148.838 38.5535C147.135 39.459 145.545 40.6487 144.074 42.1201C143.213 42.9809 142.455 43.8785 141.797 44.8182C141.173 45.6947 140.633 46.6081 140.178 47.5557C139.428 48.3348 138.751 49.1455 138.151 49.9905C135.398 49.7088 132.587 49.5693 129.715 49.5693C124.569 49.5693 119.607 50.0168 114.83 50.9118C114.909 51.0592 114.967 51.2224 115.001 51.3987C115.298 52.8017 114.785 54.589 113.461 56.7553C112.574 58.203 112.053 59.0717 111.895 59.3612C111.368 60.3799 111.052 61.3038 110.947 62.1382C110.85 62.9015 110.902 63.7649 111.105 64.7309C111.202 65.1705 111.439 66.0207 111.816 67.2842C112.124 68.3108 112.311 69.1741 112.382 69.8769C112.487 70.8508 112.408 71.7116 112.145 72.4565C111.847 73.3172 111.295 73.9885 110.487 74.4701C109.636 74.9624 108.82 75.0361 108.039 74.6939L112.382 77.0102C112.987 77.3261 113.448 77.6341 113.764 77.9315C114.219 78.3448 114.469 78.7923 114.514 79.274C114.601 80.161 114.045 80.9928 112.842 81.7746C111.06 82.9143 109.06 83.4855 106.841 83.4855C104.611 83.4776 102.611 82.9012 100.839 81.7614C100.2 81.7956 99.6813 82.1352 99.2864 82.7748C98.91 83.3802 98.7784 84.0251 98.8916 84.7095C98.9785 85.2965 99.2206 85.9072 99.6155 86.5389C99.8523 86.9153 100.255 87.4523 100.826 88.1445C101.353 88.8026 101.74 89.3554 101.984 89.8028C102.335 90.453 102.524 91.0742 102.55 91.6717C102.585 92.4877 102.321 93.2432 101.761 93.9354C101.2 94.6198 100.51 95.0594 99.6944 95.2515C98.9048 95.4358 98.0967 95.3753 97.2728 95.0673C96.4752 94.7698 95.8066 94.296 95.2723 93.6459C95.0959 93.4353 94.7195 92.8483 94.1404 91.8823C93.693 91.1453 93.2534 90.6136 92.8243 90.2898C91.982 89.6502 90.8975 89.4528 89.5735 89.6976C88.6259 89.8634 87.4809 90.2793 86.1385 90.9479Z" fill="#C0DFE6"/>
<path d="M64.0389 89.8637C64.0625 89.8769 64.0862 89.89 64.1047 89.9032C63.1492 91.472 62.1805 93.1435 61.1961 94.9176C60.5906 95.9889 60.0116 97.0681 59.4588 98.1552C58.6454 99.7793 57.9137 101.43 57.2609 103.104C56.8529 104.165 56.4739 105.236 56.129 106.315C55.542 108.139 55.063 109.913 54.6945 111.632C54.3181 113.377 53.8916 116.015 53.4178 119.542C53.2862 120.542 53.202 121.261 53.1678 121.7C53.0967 122.509 53.0809 123.232 53.1151 123.872C53.1494 124.688 53.3126 125.328 53.6021 125.794C53.7627 126.073 53.9732 126.291 54.2338 126.452C54.2601 126.47 54.2865 126.488 54.3128 126.504C54.3391 126.52 54.3654 126.533 54.3918 126.544C54.6734 126.699 54.963 126.76 55.2604 126.728C55.542 126.694 55.8079 126.575 56.0632 126.373C56.2527 126.215 56.4159 126.017 56.5502 125.78C56.6107 125.794 56.6713 125.801 56.7344 125.807C56.9529 125.825 57.4136 125.828 58.1164 125.82C58.6875 125.812 59.1429 125.841 59.4851 125.912C60.0826 126.036 60.7038 126.32 61.354 126.767C61.5382 126.899 62.0963 127.339 63.0255 128.084C64.4547 129.242 65.7287 129.721 66.8422 129.518C67.1238 129.465 67.724 129.229 68.6452 128.807C69.3744 128.484 69.9745 128.365 70.4483 128.452C70.7194 128.505 71.0063 128.628 71.3038 128.821C71.4801 128.934 71.7249 129.129 72.0408 129.4C72.9963 130.224 73.7044 130.855 74.1598 131.295C74.2729 131.403 74.3835 131.508 74.4888 131.611C74.4967 132.25 74.673 132.919 75.0152 133.611C75.3048 134.19 75.7707 134.869 76.4103 135.651C78.524 138.257 80.6298 140.337 82.7276 141.89C85.3256 143.811 88 145.035 90.7559 145.562C92.0194 145.806 93.6514 145.93 95.6519 145.93C97.476 145.912 98.8974 145.759 99.9161 145.469C101.785 144.943 103.693 143.745 105.641 141.876C105.907 141.618 106.12 141.387 106.286 141.179C107.381 140.405 108.331 139.615 109.142 138.81C109.924 138.028 110.387 137.573 110.537 137.441C111.098 136.967 111.648 136.657 112.182 136.507C112.648 136.383 113.322 136.357 114.209 136.428C115.157 136.507 115.836 136.507 116.249 136.428C117.11 136.278 118.013 135.762 118.96 134.875C119.1 134.746 119.221 134.619 119.329 134.493C119.747 134.351 120.182 134.153 120.632 133.901C120.913 133.743 121.395 133.445 122.079 133.006C122.685 132.611 123.166 132.321 123.527 132.137C123.888 131.953 124.443 131.711 125.199 131.413C126.744 130.808 128.247 130.242 129.713 129.716C130.273 129.505 130.653 129.36 130.845 129.281C131.258 129.089 131.595 128.879 131.858 128.649C131.937 128.589 132.153 128.378 132.503 128.018C132.748 127.773 132.877 127.644 132.885 127.636C133.024 127.478 133.129 127.328 133.201 127.189C133.358 126.881 133.385 126.552 133.279 126.202C133.174 125.841 132.971 125.591 132.674 125.451C132.482 125.364 132.24 125.32 131.95 125.32C131.608 125.338 131.353 125.341 131.187 125.333C130.608 125.262 130.173 125.233 129.884 125.241C129.839 125.243 129.794 125.243 129.752 125.241C129.742 125.243 129.734 125.243 129.726 125.241C128.647 124.891 127.257 124.675 125.554 124.596C124.862 124.57 124.377 124.535 124.106 124.491C123.572 124.404 123.127 124.246 122.777 124.017C122.548 123.867 122.322 123.661 122.093 123.398C121.961 123.259 121.769 123.009 121.513 122.648C120.953 121.866 120.558 121.279 120.329 120.884C119.776 119.824 119.347 119.034 119.039 118.515C118.505 117.62 117.926 116.968 117.302 116.554C116.783 116.22 116.302 116.067 115.854 116.094C115.749 116.096 115.649 116.11 115.551 116.133C115.28 115.938 115.096 115.773 114.999 115.633C114.954 115.581 114.88 115.428 114.775 115.173L114.512 114.607C114.641 114.504 114.759 114.385 114.867 114.251C115.333 113.664 115.525 112.94 115.446 112.08C115.375 111.348 115.128 110.677 114.709 110.066C114.67 110.005 114.625 109.942 114.578 109.882C114.327 109.555 114.025 109.245 113.669 108.947C113.417 108.734 113.135 108.526 112.827 108.329C112.335 108.013 111.637 107.636 110.734 107.197C108.884 106.31 106.07 105.052 102.298 103.42L97.9287 101.538C94.8938 100.222 92.6064 99.2607 91.0718 98.6553C89.9399 98.2158 89.116 97.8657 88.5975 97.6024C87.7104 97.155 86.9918 96.6496 86.4391 96.0889C85.781 95.423 85.352 94.6412 85.1493 93.7462C84.9387 92.7907 85.0624 91.9511 85.5178 91.2325C85.7205 90.9245 85.9969 90.6271 86.3469 90.3375C86.5496 90.1717 86.8787 89.9295 87.334 89.6137C87.9658 89.1846 88.479 88.8819 88.8739 88.7055C89.4477 88.4476 89.982 88.3265 90.4795 88.337C90.5506 88.3502 90.6217 88.3581 90.6901 88.3633C90.8112 88.3739 90.9586 88.3923 91.1376 88.416C91.3561 88.4423 91.5403 88.4371 91.6904 88.4028C91.7298 88.3923 91.7693 88.3791 91.8088 88.3633C92.2142 88.3818 92.5221 88.4555 92.7301 88.5871C92.9064 88.7003 93.0907 88.8845 93.2828 89.1399C93.3171 89.1846 93.7514 89.7532 94.5858 90.8508C95.1122 91.5431 95.5729 92.0958 95.9677 92.5091C96.3547 92.9118 96.7311 93.1987 97.0996 93.3646C97.4549 93.5093 97.8919 93.5699 98.4157 93.5488C98.7737 93.7094 99.2027 93.8068 99.7055 93.8384C100.232 93.8726 100.653 93.7936 100.969 93.6015C101.145 93.4883 101.29 93.3382 101.403 93.154C101.516 92.9618 101.58 92.7592 101.588 92.5486C101.601 92.1959 101.495 91.8932 101.272 91.6405C101.293 91.472 101.295 91.293 101.285 91.1009C101.266 90.6271 101.161 90.2059 100.969 89.8374C100.845 89.6268 100.672 89.4083 100.442 89.1793C100.408 89.1451 100.198 88.9503 99.8108 88.6003C99.3712 88.1975 98.9948 87.7843 98.6789 87.3631C98.2235 86.7761 97.9366 86.2497 97.8234 85.7838C97.7629 85.5127 97.7313 85.0941 97.7313 84.5335C97.7497 83.349 97.8103 82.5014 97.9156 81.9934C97.9182 81.9855 97.9182 81.975 97.9156 81.9671C98.1025 81.7196 98.3393 81.4432 98.6263 81.1379C99.0737 80.6562 99.4607 80.3877 99.7844 80.3351C99.9766 80.3009 100.198 80.3167 100.442 80.3877C100.548 80.4219 100.758 80.5062 101.074 80.6378C103.733 81.8302 106.075 82.1829 108.102 81.6907C108.229 81.6591 108.4 81.6117 108.616 81.5459C108.766 81.4985 108.931 81.4459 109.116 81.388C109.555 81.2485 109.892 81.1511 110.129 81.0984C110.211 81.08 110.305 81.0589 110.419 81.0326C110.582 80.9984 110.774 80.9589 110.998 80.9142C111.34 80.8352 111.622 80.7483 111.84 80.6509C112.122 80.5272 112.359 80.3561 112.551 80.1377C112.769 79.9008 112.898 79.6454 112.932 79.3743C112.985 78.8926 112.814 78.4609 112.419 78.0845C112.13 77.8029 111.716 77.5633 111.182 77.3607C110.821 77.2106 110.274 77.0237 109.537 76.7947C108.8 76.5499 108.252 76.3552 107.892 76.2156L107.879 76.2025C107.947 75.9314 107.934 75.6418 107.839 75.3339C107.663 74.939 107.542 74.6442 107.471 74.4521C107.339 74.1099 107.326 73.8282 107.431 73.6098C107.457 73.5545 107.497 73.4966 107.549 73.4387C107.815 73.5361 108.144 73.5834 108.537 73.5834C109.142 73.5834 109.655 73.4781 110.076 73.2676C110.629 72.9964 110.963 72.6016 111.077 72.0831C111.145 71.8435 111.145 71.554 111.077 71.2144C111.187 71.0697 111.285 70.9223 111.366 70.767C111.727 70.0563 111.832 69.206 111.682 68.2137C111.629 67.8531 111.532 67.4293 111.393 66.9371C111.216 66.3843 111.09 65.9684 111.011 65.6868C110.537 64.0548 110.348 62.5597 110.445 61.1988C110.49 60.7329 110.519 60.3881 110.537 60.1591C110.563 59.8538 110.571 59.5853 110.563 59.3563C111.348 58.3639 112.085 57.3031 112.774 56.1713C113.125 55.5843 113.38 55.0789 113.538 54.6578C113.74 54.0787 113.809 53.5391 113.748 53.0389C113.714 52.7494 113.625 52.4809 113.485 52.2361C113.417 52.1256 113.338 52.0229 113.248 51.9334C113.146 51.8281 113.027 51.7386 112.893 51.6702C112.651 51.557 112.319 51.5096 111.893 51.5254C111.882 51.5254 111.874 51.5254 111.866 51.5254C111.024 51.5702 110.116 51.7702 109.142 52.1308C108.937 52.2072 108.708 52.2993 108.458 52.4072C107.926 52.6362 107.294 52.9389 106.562 53.3153C105.091 54.0655 103.564 54.8683 101.982 55.7238C101.832 55.6922 101.666 55.6791 101.482 55.6843C101.053 55.7106 100.561 55.8344 100.008 56.0528C99.0079 56.4556 97.8419 57.0057 96.5073 57.698C89.8031 61.1909 83.6937 65.5157 78.1739 70.6748C72.5752 75.8945 67.8687 81.7117 64.052 88.1264C63.8335 88.5134 63.7046 88.8108 63.6703 89.0214C63.6519 89.1872 63.6756 89.3504 63.7362 89.5084C63.7967 89.6663 63.8993 89.7848 64.0389 89.8637ZM196.637 89.6926C196.942 90.5191 197.029 91.4746 196.9 92.5617C196.769 93.6857 196.361 95.1071 195.676 96.8259C195.237 97.9499 194.826 98.8054 194.439 99.3924C193.868 100.261 193.202 100.861 192.439 101.195C192.236 101.282 191.746 101.424 190.965 101.617C190.359 101.775 189.899 101.967 189.583 102.196C189.048 102.591 188.64 103.28 188.359 104.262C187.911 105.823 187.669 106.649 187.635 106.736C187.003 108.139 185.761 109.111 183.91 109.645C182.455 110.066 180.717 110.198 178.698 110.04C175.013 109.769 171.373 109.145 167.775 108.171C165.774 107.636 164.266 107.336 163.247 107.276C161.536 107.171 160.16 107.526 159.115 108.342C158.378 108.921 157.78 109.763 157.325 110.869C157.062 111.508 156.764 112.535 156.43 113.949C155.28 118.863 153.784 123.701 151.942 128.465C151.265 130.221 150.634 131.637 150.047 132.716C149.239 134.209 148.328 135.435 147.309 136.401C146.722 136.928 146.283 137.323 145.993 137.586C145.475 138.06 145.08 138.494 144.809 138.889C144.459 139.407 144.256 139.96 144.203 140.547C144.143 141.187 144.277 141.732 144.611 142.179C144.882 142.548 145.34 142.858 145.98 143.114C146.33 143.264 146.862 143.482 147.572 143.772C148.001 144.001 148.481 144.356 149.007 144.838C149.315 145.109 149.762 145.527 150.349 146.088C151.429 147.054 152.416 147.457 153.311 147.299C153.856 147.201 154.508 146.825 155.272 146.167C156.114 145.438 156.754 144.996 157.193 144.838C157.904 144.601 158.654 144.653 159.444 144.996C160.173 145.311 160.786 145.804 161.286 146.47C161.689 147.004 162.058 147.688 162.392 148.523C162.584 149.015 162.847 149.76 163.182 150.76C163.358 151.234 163.524 151.597 163.682 151.853C163.911 152.239 164.182 152.516 164.498 152.682C164.953 152.945 165.532 153.003 166.235 152.853C166.322 152.826 166.932 152.634 168.064 152.274C169.512 151.792 170.994 151.747 172.513 152.142C174.066 152.545 175.308 153.321 176.237 154.472C177.193 155.656 177.64 157.056 177.58 158.67C177.509 160.31 176.93 161.636 175.843 162.645C175.079 163.347 174.084 163.861 172.855 164.184C171.952 164.429 170.81 164.587 169.433 164.658L169.446 166.369C170.244 166.403 170.912 166.782 171.447 167.501C171.973 168.22 172.136 168.967 171.934 169.738C171.873 169.957 171.742 170.283 171.539 170.712C171.336 171.134 171.21 171.457 171.157 171.686C171.086 172.01 171.073 172.423 171.118 172.923C171.136 173.205 171.17 173.621 171.223 174.174C171.268 175.614 170.683 176.859 169.473 177.912C168.262 178.964 166.964 179.338 165.577 179.03C165.103 178.925 164.532 178.696 163.866 178.346C162.945 177.872 162.387 177.596 162.194 177.517C161.544 177.246 160.807 177.043 159.983 176.911C159.36 176.806 158.594 176.735 157.68 176.701C155.319 176.614 153.829 177.174 153.205 178.385C153.074 178.656 152.961 179.064 152.863 179.609C152.758 180.196 152.658 180.61 152.561 180.846C152.413 181.241 152.155 181.544 151.784 181.755C151.958 181.905 152.129 182.065 152.297 182.242C152.85 182.813 153.463 183.605 154.14 184.624C155.28 186.343 156.127 187.874 156.68 189.217C157.38 190.92 157.709 192.528 157.667 194.047C158.109 194.347 158.462 194.61 158.72 194.837C159.386 195.416 159.833 196.04 160.062 196.706C160.228 197.187 160.312 197.911 160.312 198.877C160.331 200.449 160.291 201.675 160.194 202.562C160.16 202.86 160.097 203.307 160.01 203.905C159.939 204.45 159.896 204.9 159.878 205.26C159.87 205.584 159.86 206.071 159.852 206.721C159.818 207.274 159.694 207.727 159.483 208.077C159.352 208.295 159.12 208.569 158.786 208.893C158.425 209.235 158.18 209.503 158.049 209.696C157.925 209.88 157.804 210.138 157.68 210.472C157.514 210.901 157.404 211.17 157.351 211.275C157.106 211.767 156.685 212.288 156.088 212.841C155.753 213.149 155.245 213.599 154.561 214.197C154.385 214.373 154.087 214.702 153.666 215.184C153.29 215.613 152.982 215.939 152.745 216.158C152.079 216.771 151.284 217.245 150.363 217.579C149.486 217.895 148.565 218.058 147.599 218.066C147.517 218.066 147.433 218.066 147.349 218.066C147.07 218.248 146.806 218.4 146.559 218.527C145.051 219.272 143.045 219.508 140.544 219.237C137.912 218.956 135.517 218.298 133.358 217.263C132.532 216.866 131.763 216.424 131.055 215.934C134.424 218.758 138.378 220.172 142.913 220.172C148.073 220.172 152.474 218.348 156.114 214.697C156.404 214.41 156.68 214.115 156.943 213.815C160.041 210.354 161.589 206.247 161.589 201.496C161.589 198.93 161.136 196.553 160.233 194.363C166.693 191.502 172.736 187.651 178.369 182.807C179.98 181.433 181.554 179.978 183.094 178.438C197.835 163.698 205.205 145.904 205.205 125.057C205.205 112.085 202.349 100.298 196.637 89.6926Z" fill="#CDE4C2"/>
<path d="M114.58 109.886C114.627 109.946 114.672 110.009 114.712 110.07C114.469 109.686 114.122 109.312 113.672 108.951C114.027 109.246 114.33 109.559 114.58 109.886ZM110.421 81.0365C110.308 81.0628 110.213 81.0839 110.132 81.1023C109.895 81.1549 109.558 81.2523 109.118 81.3918C108.934 81.4497 108.768 81.5024 108.618 81.5498C109.258 81.4392 109.858 81.2681 110.421 81.0365ZM111.895 51.5293C112.322 51.5135 112.653 51.5609 112.895 51.6741C113.03 51.7425 113.148 51.832 113.251 51.9373C113.219 51.6267 113.203 51.3924 113.198 51.2397C112.761 51.3319 112.327 51.4266 111.895 51.5293ZM64.1072 89.9071C64.0888 89.8939 64.0651 89.8808 64.0414 89.8676C63.9019 89.7886 63.7992 89.6702 63.7387 89.5122C63.6782 89.3543 63.6545 89.1911 63.6729 89.0253C63.7071 88.8147 63.8361 88.5173 64.0546 88.1303C67.8713 81.7156 72.5777 75.8984 78.1764 70.6787C83.6962 65.5195 89.8056 61.1948 96.5098 57.7018C97.8444 57.0096 99.0105 56.4594 100.011 56.0567C100.563 55.8382 101.056 55.7145 101.485 55.6882C101.669 55.6829 101.835 55.6961 101.985 55.7277C103.567 54.8722 105.094 54.0694 106.565 53.3192C107.297 52.9428 107.928 52.6401 108.46 52.4111C99.4132 54.9775 91.0822 59.2707 83.4672 65.2958C81.0166 67.2463 78.6397 69.3731 76.3339 71.6789C68.1661 79.8467 62.262 88.9489 58.619 98.9882C58.1268 100.346 57.6741 101.72 57.2634 103.108C57.9162 101.434 58.648 99.7832 59.4613 98.1591C60.0141 97.072 60.5932 95.9928 61.1986 94.9215C62.1831 93.1473 63.1517 91.4759 64.1072 89.9071ZM122.569 204.882C122.316 204.551 122.098 204.232 121.911 203.922C122.822 206.167 124.198 208.218 126.043 210.068C125.978 209.952 125.912 209.834 125.846 209.713C125.09 208.344 124.482 207.349 124.017 206.725C123.366 205.909 122.885 205.293 122.569 204.882Z" fill="white"/>
<path d="M196.044 88.5551L196.031 88.5814L194.505 94.9909C194.268 95.999 194.025 96.7729 193.781 97.3073C193.42 98.1232 192.944 98.7287 192.346 99.1235C191.959 99.3867 191.156 99.6815 189.938 100.005C188.877 100.287 188.14 100.658 187.727 101.124C187.34 101.553 187.063 102.237 186.897 103.177C186.679 104.38 186.508 105.13 186.384 105.428C185.937 106.481 185.081 107.275 183.818 107.81C182.757 108.257 181.522 108.489 180.119 108.507C177.979 108.534 175.137 108.126 171.591 107.283C167.432 106.283 164.595 105.709 163.076 105.559C162.181 105.472 161.412 105.462 160.773 105.533C159.938 105.612 159.225 105.828 158.627 106.178C157.759 106.686 157.053 107.515 156.508 108.665C156.158 109.394 155.79 110.487 155.403 111.942C154.805 114.127 154.079 116.562 153.218 119.247C152.673 120.939 151.87 123.348 150.81 126.472C150.196 128.296 149.678 129.676 149.257 130.605C148.58 132.087 147.814 133.321 146.953 134.303C146.656 134.645 146.098 135.203 145.282 135.975C144.545 136.667 144 137.238 143.65 137.686C143.124 138.362 142.76 139.073 142.558 139.818C142.339 140.652 142.36 141.415 142.623 142.108C142.913 142.863 143.545 143.563 144.519 144.213C145.071 144.582 145.922 145.114 147.072 145.806C147.44 146.069 147.954 146.509 148.612 147.122C149.278 147.735 149.791 148.175 150.152 148.438C150.749 148.867 151.357 149.167 151.981 149.333C152.692 149.525 153.344 149.512 153.942 149.294C154.337 149.144 154.982 148.696 155.877 147.951C156.64 147.301 157.306 146.959 157.877 146.925C158.633 146.88 159.312 147.209 159.917 147.912C160.425 148.491 160.812 149.236 161.075 150.149C161.47 151.499 161.72 152.3 161.826 152.544C162.186 153.413 162.668 154.037 163.273 154.413C164.029 154.879 165.032 154.984 166.287 154.729C166.998 154.59 168.072 154.334 169.512 153.966C170.609 153.8 171.665 153.905 172.683 154.282C173.763 154.684 174.579 155.321 175.131 156.19C175.718 157.111 175.882 158.143 175.618 159.283C175.347 160.449 174.737 161.249 173.789 161.678C173.315 161.897 172.557 162.047 171.512 162.126C170.459 162.197 169.701 162.331 169.235 162.534C168.103 163.034 167.516 164.008 167.472 165.455C167.427 166.903 167.953 167.911 169.051 168.483C169.164 168.543 169.333 168.633 169.551 168.746C169.735 168.851 169.862 168.977 169.933 169.127C170.099 169.462 169.972 169.864 169.551 170.338C168.972 170.962 168.648 171.373 168.577 171.575C168.453 171.944 168.53 172.418 168.801 172.997C169.151 173.742 169.346 174.229 169.38 174.458C169.477 175.134 169.209 175.729 168.577 176.248C167.98 176.729 167.308 176.964 166.564 176.945C165.958 176.937 165.268 176.779 164.497 176.471C163.621 176.076 162.963 175.787 162.523 175.603C160.778 174.874 158.943 174.523 157.022 174.55C155.566 174.568 154.408 174.847 153.547 175.392C152.881 175.805 152.284 176.427 151.757 177.261C151.434 177.78 151.033 178.569 150.56 179.63C150.112 180.657 150.12 181.359 150.586 181.736C150.894 181.999 151.265 182.017 151.705 181.788C152.118 181.578 152.402 181.262 152.56 180.841C152.657 180.604 152.757 180.191 152.863 179.604C152.96 179.059 153.073 178.651 153.205 178.38C153.829 177.169 155.319 176.608 157.68 176.695C158.593 176.729 159.359 176.8 159.983 176.906C160.807 177.037 161.544 177.24 162.194 177.511C162.386 177.59 162.944 177.866 163.865 178.34C164.531 178.69 165.103 178.919 165.576 179.025C166.964 179.333 168.261 178.959 169.472 177.906C170.683 176.853 171.267 175.608 171.223 174.168C171.17 173.615 171.136 173.199 171.117 172.918C171.072 172.418 171.086 172.004 171.157 171.681C171.209 171.452 171.336 171.128 171.538 170.707C171.741 170.278 171.873 169.951 171.933 169.733C172.136 168.962 171.973 168.214 171.446 167.495C170.912 166.777 170.243 166.398 169.446 166.364L169.433 164.653C170.809 164.582 171.952 164.424 172.855 164.179C174.084 163.855 175.079 163.342 175.842 162.639C176.929 161.631 177.508 160.304 177.579 158.664C177.64 157.051 177.192 155.65 176.237 154.466C175.308 153.316 174.065 152.539 172.512 152.136C170.994 151.742 169.512 151.786 168.064 152.268C166.932 152.629 166.321 152.821 166.234 152.847C165.532 152.997 164.953 152.939 164.497 152.676C164.181 152.51 163.91 152.234 163.681 151.847C163.523 151.592 163.357 151.228 163.181 150.755C162.847 149.754 162.584 149.009 162.391 148.517C162.057 147.683 161.689 146.998 161.286 146.464C160.786 145.798 160.172 145.306 159.443 144.99C158.654 144.648 157.903 144.595 157.193 144.832C156.753 144.99 156.114 145.432 155.271 146.161C154.508 146.819 153.855 147.196 153.31 147.293C152.415 147.451 151.428 147.048 150.349 146.082C149.762 145.522 149.315 145.103 149.007 144.832C148.48 144.35 148.001 143.995 147.572 143.766C146.861 143.476 146.33 143.258 145.98 143.108C145.34 142.853 144.882 142.542 144.611 142.173C144.276 141.726 144.142 141.181 144.203 140.541C144.255 139.955 144.458 139.402 144.808 138.883C145.079 138.488 145.474 138.054 145.993 137.58C146.282 137.317 146.722 136.922 147.309 136.396C148.327 135.43 149.238 134.203 150.046 132.711C150.633 131.631 151.265 130.215 151.941 128.46C153.784 123.695 155.279 118.857 156.429 113.943C156.764 112.529 157.061 111.503 157.324 110.863C157.78 109.758 158.377 108.915 159.114 108.336C160.159 107.52 161.536 107.165 163.247 107.27C164.266 107.331 165.774 107.631 167.774 108.165C171.373 109.139 175.013 109.763 178.698 110.034C180.717 110.192 182.454 110.06 183.91 109.639C185.76 109.105 187.003 108.134 187.634 106.731C187.669 106.644 187.911 105.817 188.358 104.256C188.64 103.275 189.048 102.585 189.582 102.19C189.898 101.961 190.359 101.769 190.964 101.611C191.746 101.419 192.236 101.277 192.438 101.19C193.202 100.855 193.868 100.255 194.439 99.3867C194.826 98.7997 195.236 97.9443 195.676 96.8203C196.36 95.1015 196.768 93.6801 196.9 92.5561C197.029 91.469 196.942 90.5135 196.637 89.687C196.495 89.2763 196.297 88.8999 196.044 88.5551ZM87.7285 95.4384C86.4202 93.9907 85.8912 92.4903 86.136 90.9373C87.4784 90.2713 88.6234 89.8528 89.571 89.687C90.895 89.4422 91.9795 89.6396 92.8218 90.2792C93.2509 90.603 93.6904 91.1347 94.1379 91.8717C94.717 92.8377 95.0934 93.4247 95.2698 93.6353C95.8041 94.2855 96.4727 94.7593 97.2703 95.0567C98.0941 95.3647 98.9022 95.4252 99.6919 95.241C100.508 95.0488 101.198 94.6092 101.758 93.9249C102.319 93.2326 102.582 92.4771 102.548 91.6611C102.522 91.0636 102.332 90.4424 101.982 89.7923C101.737 89.3448 101.35 88.792 100.824 88.134C100.253 87.4417 99.8498 86.9047 99.6129 86.5283C99.2181 85.8966 98.9759 85.2859 98.8891 84.6989C98.7759 84.0145 98.9075 83.3696 99.2839 82.7642C99.6787 82.1246 100.197 81.785 100.837 81.7508C102.608 82.8906 104.609 83.467 106.838 83.4749C109.057 83.4749 111.058 82.9037 112.84 81.764C114.043 80.9822 114.598 80.1504 114.511 79.2634C114.467 78.7817 114.216 78.3342 113.761 77.9209C113.445 77.6235 112.985 77.3155 112.379 76.9997L108.036 74.6833C108.818 75.0255 109.634 74.9518 110.484 74.4596C111.292 73.9779 111.845 73.3067 112.142 72.4459C112.406 71.701 112.484 70.8403 112.379 69.8663C112.308 69.1635 112.121 68.3002 111.813 67.2736C111.437 66.0101 111.2 65.1599 111.103 64.7203C110.9 63.7543 110.847 62.891 110.945 62.1276C111.05 61.2932 111.366 60.3693 111.892 59.3506C112.05 59.0611 112.571 58.1924 113.458 56.7447C114.782 54.5784 115.296 52.7911 114.998 51.3882C114.964 51.2118 114.906 51.0486 114.827 50.9012C114.761 50.7564 114.675 50.6248 114.564 50.5064C114.327 50.2431 114.064 50.1457 113.774 50.2168C113.406 50.3037 113.214 50.6064 113.195 51.1249C113.193 51.1539 113.193 51.1907 113.195 51.2302C113.2 51.4645 113.245 51.8909 113.327 52.5068C113.458 53.4887 113.077 54.5995 112.182 55.8366C111.655 56.521 111.261 57.0343 110.997 57.3765C110.523 58.0003 110.173 58.5346 109.944 58.9821C109.234 60.3851 109.057 62.1592 109.418 64.2992C109.621 65.5363 110.05 67.3921 110.708 69.8663C110.787 70.2875 110.826 70.6297 110.826 70.8929C110.818 71.2693 110.726 71.5852 110.55 71.8405C110.26 72.2696 109.602 72.5565 108.576 72.696C107.489 72.846 106.778 73.0961 106.444 73.4462C105.899 74.0253 105.891 74.7412 106.417 75.5914C106.899 76.3732 107.581 76.9128 108.457 77.2102C108.992 77.3945 109.826 77.6525 110.958 77.9867C111.887 78.3368 112.524 78.8291 112.866 79.4608C111.576 80.6637 110.005 81.377 108.154 81.606C106.304 81.8245 104.609 81.5087 103.074 80.6584C102.619 80.3873 102.271 80.1899 102.035 80.0662C101.621 79.8556 101.25 79.7319 100.916 79.6977C100.408 79.645 99.9025 79.7635 99.4024 80.053C98.9365 80.3084 98.5337 80.6637 98.1915 81.1191C97.4282 82.1114 97.0544 83.2722 97.0728 84.6068C97.0913 85.9413 97.4993 87.0863 98.2968 88.0418C98.6917 88.5235 99.3418 89.2737 100.245 90.2924C100.884 91.1952 101.008 91.9902 100.613 92.6745C100.253 93.3063 99.6393 93.5879 98.7706 93.5169C97.9625 93.4458 97.2703 93.1299 96.6912 92.5693C96.3569 92.2455 95.8936 91.6401 95.2961 90.753C94.7512 89.937 94.2748 89.3527 93.8615 89.0026C93.0982 88.3445 92.1453 87.9629 91.0056 87.8576C89.9711 87.7523 88.9077 87.876 87.8206 88.2261C86.365 88.692 85.3595 89.3843 84.8067 90.3055C84.1671 91.3663 84.1091 92.6035 84.6356 94.017C85.1015 95.2357 85.8859 96.3518 86.9914 97.3599C88.5366 98.7813 90.4265 100.005 92.6639 101.032C94.3301 101.803 96.4938 102.59 99.1523 103.388C100.634 103.835 102.872 104.501 105.864 105.388C108.418 106.223 110.558 107.104 112.287 108.034C112.387 108.089 112.484 108.141 112.577 108.191C114.353 109.234 115.214 110.382 115.156 111.64C115.138 111.956 114.959 112.574 114.617 113.495C114.335 114.251 114.267 114.856 114.406 115.312C114.556 115.804 114.946 116.241 115.577 116.628C115.938 116.846 116.499 117.159 117.262 117.562C118.052 118.081 118.886 119.155 119.763 120.787C120.665 122.471 121.474 123.582 122.184 124.116C123.177 124.861 124.909 125.28 127.383 125.367C129.928 125.464 131.694 125.841 132.687 126.499C132.397 127.709 131.147 128.546 128.936 129.012C127.085 129.407 125.817 129.715 125.132 129.934C123.737 130.373 122.6 130.952 121.724 131.671C121.408 131.934 120.776 132.579 119.828 133.606C119.073 134.422 118.399 135.001 117.802 135.343C116.941 135.835 115.477 136.167 113.406 136.343C111.371 136.509 109.913 136.856 109.036 137.383C108.299 137.83 107.502 138.638 106.641 139.804C105.596 141.218 104.864 142.116 104.443 142.502C103.435 143.432 102.092 144.116 100.416 144.556C99.355 144.827 97.8151 145.056 95.7962 145.24C95.5567 145.261 95.3251 145.279 95.0987 145.293C94.0668 145.38 93.2456 145.419 92.6376 145.411C91.4715 145.403 90.4396 145.272 89.5447 145.016C88.5181 144.727 87.4468 144.206 86.3334 143.45C86.1386 143.316 85.9175 143.158 85.6753 142.976C85.0778 142.531 84.3408 141.939 83.4643 141.2C81.6743 139.681 80.3767 138.533 79.5686 137.751C78.1814 136.417 77.0548 135.119 76.1862 133.856C75.5097 132.803 74.9964 132.018 74.6463 131.5C74.033 130.579 73.4408 129.86 72.8696 129.341C72.1325 128.675 71.3087 128.231 70.3953 128.012C69.3871 127.775 68.4948 127.875 67.7236 128.315C67.5393 128.42 67.2682 128.596 66.9076 128.841C66.5733 129.033 66.2758 129.136 66.0126 129.144C65.6783 129.152 65.3361 129.026 64.9861 128.762C64.8018 128.623 64.5202 128.349 64.1437 127.946C62.7039 126.385 61.1351 125.433 59.4321 125.09C58.4845 124.898 57.5553 124.932 56.6419 125.196C55.6864 125.467 54.9099 125.946 54.3124 126.63C54.5046 126.972 54.8309 127.191 55.2863 127.288C55.6812 127.375 56.1023 127.367 56.5498 127.262C56.6288 127.244 57.0289 127.125 57.7474 126.907C58.2291 126.757 58.6345 126.678 58.9583 126.67C59.6084 126.662 60.2691 126.893 60.9456 127.367C61.322 127.638 61.8932 128.162 62.6565 128.933C63.3857 129.663 63.9595 130.163 64.3806 130.434C65.0387 130.863 65.6968 131.039 66.3548 130.96C66.7154 130.915 67.2182 130.742 67.8683 130.434C68.5185 130.118 69.0186 129.939 69.3687 129.894C70.2716 129.77 71.1534 130.126 72.0141 130.96C72.4958 131.426 73.1512 132.276 73.9751 133.513C75.0727 135.19 76.5152 136.891 78.3051 138.62C79.4185 139.699 81.1084 141.181 83.3721 143.068C83.8854 143.5 84.3513 143.882 84.7672 144.213C85.2805 144.619 85.7201 144.948 86.0833 145.201C87.1362 145.919 88.1496 146.438 89.1235 146.754C90.2106 147.114 91.4794 147.298 92.9271 147.306C93.7773 147.306 94.9881 147.222 96.5596 147.056C96.6438 147.048 96.7254 147.038 96.8096 147.03C98.7232 146.827 100.197 146.582 101.232 146.293C102.819 145.845 104.093 145.174 105.048 144.279C105.47 143.884 106.251 142.871 107.391 141.239C108.294 139.941 109.173 139.067 110.023 138.62C110.847 138.18 112.19 137.93 114.051 137.87C115.946 137.809 117.301 137.575 118.117 137.172C118.828 136.822 119.636 136.146 120.539 135.145C121.61 133.943 122.361 133.179 122.79 132.855C123.729 132.145 125.059 131.584 126.777 131.171C127.743 130.942 129.186 130.6 131.107 130.144C131.931 129.873 132.616 129.518 133.161 129.078C133.811 128.544 134.174 127.933 134.253 127.249C134.366 126.301 133.963 125.485 133.042 124.801C132.208 124.177 131.239 123.827 130.134 123.748C128.765 123.756 127.743 123.753 127.067 123.735C125.864 123.708 124.901 123.511 124.172 123.143C123.4 122.756 122.666 122.09 121.974 121.142C121.71 120.766 121.163 119.865 120.329 118.444C119.67 117.331 119.091 116.522 118.591 116.022C117.873 115.304 117.065 114.904 116.17 114.825C116.67 114.193 116.941 113.43 116.986 112.535C117.03 111.692 116.867 110.882 116.499 110.1C115.954 108.939 114.993 107.873 113.616 106.902C113.443 106.783 113.264 106.665 113.077 106.546C111.584 105.607 109.686 104.77 107.378 104.033C104.675 103.269 102.658 102.685 101.324 102.282C98.1468 101.316 95.0513 100.076 92.0321 98.5576C90.1975 97.6363 88.7629 96.5966 87.7285 95.4384ZM186.489 231.274C186.392 231.248 186.297 231.214 186.2 231.169C185.463 231.156 184.726 231.143 183.989 231.129C182.596 231.108 181.207 231.087 179.817 231.064C179.817 231.071 179.822 231.085 179.83 231.103C179.585 231.095 179.335 231.09 179.08 231.09C178.956 231.108 178.848 231.135 178.751 231.169C178.698 231.203 178.645 231.243 178.593 231.287C178.574 231.332 178.548 231.372 178.514 231.406C178.495 231.451 178.474 231.49 178.448 231.524C178.44 231.577 178.44 231.622 178.448 231.656C178.43 231.708 178.416 231.753 178.409 231.787C178.416 231.832 178.43 231.874 178.448 231.919C178.456 231.964 178.461 232.006 178.461 232.051C178.487 232.095 178.514 232.138 178.54 232.182C178.566 232.217 178.593 232.256 178.619 232.301C178.664 232.345 178.716 232.393 178.777 232.446C178.801 232.451 178.822 232.456 178.843 232.459C178.927 232.485 179.011 232.511 179.093 232.538C179.356 232.546 179.611 232.564 179.856 232.59C180.385 232.601 180.912 232.611 181.436 232.617C182.102 232.632 182.762 232.646 183.423 232.656C183.439 232.827 183.452 232.993 183.462 233.156C183.483 233.477 183.497 233.788 183.502 234.091C182.896 234.083 182.291 234.07 181.686 234.051C181.694 234.077 181.699 234.099 181.699 234.117C181.522 234.109 181.357 234.104 181.199 234.104C181.12 234.104 181.049 234.112 180.988 234.13C180.97 234.156 180.943 234.17 180.909 234.17C180.875 234.196 180.83 234.228 180.778 234.262C180.751 234.306 180.717 234.346 180.672 234.38C180.664 234.433 180.651 234.478 180.633 234.512C180.641 234.543 180.641 234.575 180.633 234.604V234.617C180.625 234.67 180.612 234.717 180.593 234.762C180.612 234.807 180.627 234.849 180.646 234.893C180.654 234.938 180.667 234.98 180.685 235.025C180.712 235.059 180.738 235.099 180.764 235.144C180.825 235.188 180.883 235.23 180.935 235.275C181.022 235.309 181.114 235.336 181.212 235.354C181.388 235.38 181.559 235.407 181.725 235.433C182.073 235.433 182.417 235.433 182.765 235.433C182.996 235.444 183.231 235.452 183.462 235.459C183.402 236.117 183.304 236.762 183.173 237.394C182.733 237.518 182.404 237.578 182.186 237.578C182.049 237.581 181.917 237.568 181.791 237.539C181.578 237.499 181.388 237.413 181.225 237.276C181.172 237.231 181.085 237.131 180.962 236.973C180.849 236.849 180.746 236.768 180.659 236.723C180.456 236.583 180.238 236.565 180.001 236.67C179.764 236.757 179.611 236.915 179.54 237.144C179.482 237.336 179.488 237.547 179.554 237.776C179.632 238.007 179.772 238.257 179.975 238.526C180.246 238.868 180.717 239.363 181.383 240.013C181.675 240.303 181.93 240.566 182.146 240.803C182.404 241.074 182.61 241.311 182.765 241.514C182.896 241.706 183.089 242 183.344 242.395C183.599 242.745 183.831 243.014 184.041 243.198C184.428 243.532 184.786 243.651 185.121 243.553C185.331 243.475 185.476 243.311 185.555 243.067C185.652 242.811 185.642 242.572 185.529 242.343C185.468 242.193 185.358 242.04 185.2 241.882C185.007 241.69 184.863 241.545 184.765 241.448C184.66 241.335 184.494 241.113 184.265 240.79C184.02 240.434 183.747 240.1 183.449 239.789C183.328 239.653 183.202 239.521 183.068 239.395C183.139 239.308 183.26 239.25 183.436 239.223C183.691 239.171 183.836 239.137 183.87 239.118C183.891 239.11 183.91 239.1 183.923 239.092C184.199 238.95 184.423 238.644 184.594 238.171C184.71 237.849 184.797 237.499 184.857 237.118C184.897 236.865 184.923 236.597 184.936 236.315C184.955 236.07 184.963 235.796 184.963 235.499C185.402 235.507 185.837 235.517 186.266 235.525C186.345 235.507 186.418 235.491 186.489 235.473C186.524 235.438 186.56 235.407 186.595 235.38C186.655 235.336 186.713 235.296 186.766 235.262C186.774 235.228 186.784 235.183 186.792 235.13C186.818 235.104 186.845 235.065 186.871 235.012C186.871 234.978 186.871 234.933 186.871 234.88C186.871 234.846 186.871 234.807 186.871 234.762C186.853 234.728 186.84 234.683 186.832 234.63C186.813 234.585 186.797 234.543 186.779 234.499C186.745 234.464 186.718 234.425 186.7 234.38C186.647 234.335 186.6 234.288 186.555 234.235C186.45 234.217 186.35 234.188 186.253 234.143C185.813 234.135 185.376 234.13 184.936 234.13C184.918 233.735 184.892 233.34 184.857 232.946C184.857 232.848 184.852 232.767 184.844 232.696C185.247 232.703 185.655 232.709 186.068 232.709C186.121 232.709 186.174 232.709 186.226 232.709C186.297 232.69 186.363 232.682 186.424 232.682C186.468 232.664 186.508 232.648 186.542 232.63C186.568 232.611 186.6 232.585 186.634 232.551C186.668 232.517 186.705 232.477 186.739 232.432C186.774 232.388 186.8 232.34 186.818 232.288C186.826 232.261 186.84 232.227 186.858 232.182C186.866 232.138 186.884 232.09 186.911 232.038C186.903 232.003 186.897 231.964 186.897 231.919C186.89 231.885 186.89 231.84 186.897 231.787L186.884 231.774C186.874 231.74 186.861 231.701 186.845 231.656C186.818 231.622 186.792 231.582 186.766 231.537C186.739 231.503 186.718 231.464 186.7 231.419C186.629 231.374 186.56 231.327 186.489 231.274ZM134.621 187.29C134.524 187.334 134.424 187.374 134.319 187.408C134.258 187.479 134.195 187.535 134.135 187.579C134.074 187.632 134.016 187.679 133.963 187.724C133.945 187.795 133.929 187.861 133.911 187.921C133.866 187.982 133.824 188.045 133.779 188.106C133.779 188.166 133.787 188.229 133.806 188.29C133.798 188.361 133.779 188.429 133.753 188.501C133.779 188.58 133.8 188.659 133.819 188.737C133.863 188.809 133.892 188.877 133.911 188.948C133.971 189.035 134.035 189.127 134.095 189.224C134.271 189.303 134.429 189.39 134.569 189.488C134.982 189.601 135.385 189.73 135.78 189.869C137.693 190.377 139.604 190.891 141.518 191.409C141.405 192.046 141.268 192.675 141.11 193.291C141.084 193.389 141.057 193.486 141.031 193.581C140.057 193.325 139.091 193.067 138.136 192.804C138.117 192.838 138.109 192.865 138.109 192.883C137.838 192.804 137.564 192.733 137.293 192.673C137.198 192.659 137.106 192.646 137.017 192.633C136.99 192.636 136.964 192.636 136.938 192.633C136.904 192.652 136.859 192.659 136.806 192.659C136.727 192.686 136.648 192.712 136.569 192.738C136.49 192.791 136.411 192.838 136.332 192.883C136.288 192.944 136.248 193.002 136.214 193.054C136.196 193.115 136.182 193.178 136.174 193.239C136.13 193.299 136.088 193.362 136.043 193.423C136.051 193.483 136.061 193.549 136.069 193.62C136.069 193.699 136.069 193.773 136.069 193.844C136.088 193.915 136.114 193.983 136.148 194.055C136.219 194.152 136.288 194.239 136.359 194.318C136.509 194.397 136.643 194.481 136.767 194.568C137.038 194.665 137.306 194.76 137.57 194.857C138.509 195.113 139.438 195.363 140.36 195.608C140.27 195.847 140.173 196.084 140.07 196.318C139.781 197.029 139.452 197.721 139.083 198.398C138.328 198.39 137.767 198.35 137.398 198.279C136.775 198.129 136.306 197.85 135.99 197.437C135.93 197.35 135.824 197.166 135.674 196.884C135.535 196.647 135.406 196.471 135.293 196.358C135.029 196.087 134.682 195.971 134.253 196.016C133.832 196.068 133.521 196.252 133.319 196.568C133.258 196.653 133.211 196.742 133.174 196.832C132.971 197.337 133.05 197.984 133.411 198.779C133.55 199.082 133.748 199.456 134.003 199.898C134.282 200.377 134.627 200.94 135.043 201.583C135.788 202.775 136.306 203.71 136.596 204.386C136.746 204.728 136.946 205.255 137.201 205.965C137.393 206.447 137.591 206.852 137.793 207.176C137.851 207.274 137.909 207.36 137.964 207.439C138.446 208.079 138.973 208.392 139.544 208.374C139.912 208.355 140.223 208.171 140.478 207.821C140.723 207.487 140.812 207.129 140.741 206.742C140.697 206.497 140.583 206.221 140.399 205.913C140.162 205.552 139.991 205.281 139.886 205.097C139.762 204.886 139.596 204.486 139.386 203.899C139.017 202.996 138.562 202.141 138.017 201.333C138.175 201.235 138.404 201.196 138.701 201.214C139.123 201.241 139.367 201.254 139.438 201.254C139.973 201.201 140.499 200.825 141.018 200.122C141.549 199.419 141.992 198.564 142.347 197.555C142.358 197.534 142.365 197.513 142.373 197.49C142.505 197.129 142.642 196.721 142.781 196.266C143.492 196.458 144.195 196.642 144.887 196.818C145.019 196.826 145.142 196.837 145.256 196.845C145.327 196.81 145.395 196.779 145.466 196.753C145.579 196.718 145.685 196.679 145.782 196.634C145.816 196.581 145.856 196.524 145.901 196.463C145.961 196.418 146.024 196.366 146.085 196.305V196.292C146.095 196.234 146.109 196.173 146.124 196.108C146.151 196.047 146.172 195.984 146.19 195.923C146.172 195.863 146.169 195.797 146.177 195.726C146.159 195.647 146.151 195.576 146.151 195.515C146.124 195.444 146.093 195.365 146.058 195.279C145.998 195.207 145.935 195.126 145.874 195.028C145.735 194.95 145.593 194.863 145.453 194.765C145.029 194.649 144.608 194.536 144.19 194.423C143.905 194.352 143.626 194.284 143.347 194.212C143.479 193.607 143.605 193.007 143.729 192.409C143.763 192.27 143.795 192.138 143.821 192.015C144.55 192.217 145.287 192.415 146.032 192.607C146.145 192.615 146.256 192.628 146.361 192.646C146.448 192.638 146.519 192.628 146.572 192.62C146.624 192.594 146.682 192.562 146.743 192.528C146.822 192.483 146.901 192.441 146.98 192.396C147.051 192.344 147.117 192.286 147.177 192.225C147.204 192.165 147.238 192.112 147.282 192.067C147.317 192.007 147.356 191.944 147.401 191.883C147.427 191.822 147.448 191.751 147.467 191.672C147.467 191.662 147.467 191.649 147.467 191.633C147.472 191.599 147.48 191.554 147.493 191.501C147.493 191.43 147.493 191.362 147.493 191.291C147.459 191.22 147.433 191.146 147.414 191.067C147.388 190.988 147.361 190.914 147.335 190.843C147.248 190.746 147.159 190.651 147.072 190.554C146.932 190.475 146.79 190.391 146.651 190.304C145.722 190.056 144.79 189.806 143.861 189.553C141.373 188.893 138.88 188.229 136.385 187.566C136.385 187.592 136.385 187.614 136.385 187.632C136.34 187.621 136.298 187.608 136.253 187.592C135.893 187.503 135.53 187.411 135.161 187.316C134.985 187.306 134.806 187.298 134.621 187.29ZM45.4023 186.592C45.3681 186.574 45.3313 186.553 45.297 186.526C45.2523 186.518 45.2049 186.508 45.1523 186.5C45.118 186.5 45.068 186.505 45.0075 186.513C44.9628 186.513 44.9154 186.513 44.8627 186.513C44.7917 186.558 44.7232 186.597 44.6521 186.632C44.5732 186.703 44.5021 186.771 44.4416 186.842C43.336 188.764 42.2252 190.68 41.1118 192.594C41.1197 192.602 41.1302 192.612 41.1381 192.62C41.0144 192.849 40.8881 193.075 40.7565 193.304C40.7222 193.41 40.6907 193.52 40.6643 193.633C40.6722 193.704 40.6828 193.77 40.6907 193.831C40.7091 193.876 40.7301 193.918 40.7565 193.962C40.7749 194.015 40.7959 194.06 40.8223 194.094C40.867 194.12 40.9012 194.141 40.9276 194.16C40.9618 194.194 40.9881 194.226 41.0065 194.252C41.0592 194.27 41.1065 194.278 41.1513 194.278C41.1855 194.305 41.2224 194.326 41.2566 194.344C41.3013 194.344 41.3487 194.344 41.4014 194.344C41.4461 194.336 41.4987 194.331 41.5593 194.331C41.6119 194.305 41.6725 194.278 41.7435 194.252C41.8146 194.173 41.8936 194.089 41.9804 194.002C42.12 193.783 42.2621 193.562 42.4016 193.344C43.0254 192.273 43.6466 191.204 44.2705 190.133C44.6916 190.335 45.1049 190.548 45.5076 190.777C45.1918 191.322 44.8811 191.862 44.5732 192.396C44.5916 192.404 44.6048 192.415 44.6127 192.423C44.5153 192.581 44.4231 192.738 44.3363 192.896C44.31 192.967 44.2836 193.028 44.2573 193.081C44.2652 193.115 44.2652 193.146 44.2573 193.173C44.2652 193.225 44.2652 193.278 44.2573 193.331C44.2836 193.383 44.3047 193.441 44.3231 193.502C44.3494 193.528 44.3758 193.56 44.4021 193.594C44.4363 193.62 44.4732 193.641 44.5074 193.66C44.5337 193.694 44.5653 193.731 44.5995 193.765C44.6337 193.765 44.6732 193.77 44.718 193.778C44.7627 193.786 44.8048 193.797 44.8496 193.804C44.9022 193.812 44.9496 193.812 44.9943 193.804C45.0654 193.77 45.1259 193.733 45.1786 193.699C45.2576 193.639 45.3313 193.576 45.4023 193.515C45.4997 193.365 45.605 193.212 45.7182 193.054C46.0156 192.536 46.3157 192.02 46.6132 191.501C47.1317 191.878 47.6266 192.286 48.1004 192.725C47.9766 193.181 47.8635 193.515 47.7582 193.726C47.566 194.086 47.316 194.323 47.008 194.436C46.9553 194.463 46.829 194.502 46.6263 194.555C46.4605 194.599 46.3315 194.647 46.2446 194.699C46.042 194.813 45.9209 195.002 45.8761 195.265C45.8314 195.521 45.8893 195.739 46.0472 195.923C46.3183 196.231 46.7764 196.326 47.416 196.213C47.845 196.142 48.4899 195.968 49.3507 195.687C50.193 195.423 50.8458 195.26 51.3117 195.2C51.5486 195.165 51.8987 195.129 52.3646 195.094C52.7778 195.05 53.1147 194.976 53.378 194.871C53.8439 194.686 54.1202 194.423 54.2071 194.081C54.2413 193.844 54.1808 193.62 54.0229 193.41C53.857 193.207 53.6491 193.099 53.4043 193.081C53.2542 193.062 53.0674 193.089 52.8384 193.16C52.5936 193.246 52.404 193.304 52.2724 193.331C52.1224 193.375 51.8592 193.41 51.4828 193.436C50.8773 193.507 50.2798 193.641 49.6928 193.844C49.6586 193.739 49.6718 193.599 49.7323 193.423C49.8192 193.167 49.8692 193.02 49.8771 192.975C49.9219 192.641 49.7771 192.259 49.4428 191.83C49.1006 191.391 48.6452 190.975 48.074 190.58C47.8819 190.448 47.6581 190.304 47.4028 190.146C47.6318 189.743 47.8582 189.343 48.0872 188.948C48.1056 188.887 48.1267 188.824 48.153 188.764C48.1451 188.703 48.1346 188.651 48.1267 188.606C48.1267 188.535 48.1214 188.466 48.1135 188.395C48.0951 188.369 48.0661 188.335 48.0214 188.29C48.003 188.256 47.9872 188.211 47.9687 188.158C47.9345 188.14 47.8977 188.124 47.8635 188.106C47.8292 188.087 47.7924 188.066 47.7582 188.04C47.7134 188.04 47.6713 188.032 47.6266 188.014C47.5818 188.006 47.5397 187.995 47.4949 187.987C47.4502 187.987 47.3976 187.993 47.337 188C47.2844 188.035 47.2238 188.061 47.1528 188.079C47.0817 188.15 47.0132 188.219 46.9422 188.29C46.7132 188.693 46.4868 189.093 46.2578 189.488C45.9077 189.303 45.5655 189.124 45.2312 188.948C45.1444 188.903 45.068 188.869 45.0075 188.843C45.2444 188.43 45.4866 188.014 45.7314 187.592C45.7498 187.521 45.7708 187.456 45.7972 187.395C45.7972 187.342 45.8024 187.303 45.8103 187.277C45.8103 187.232 45.8024 187.192 45.784 187.158C45.7761 187.098 45.7629 187.034 45.7445 186.974C45.7182 186.929 45.6971 186.887 45.6787 186.842C45.6445 186.816 45.6129 186.782 45.5866 186.737C45.5603 186.711 45.5339 186.684 45.5076 186.658C45.4734 186.632 45.4366 186.608 45.4023 186.592ZM18.5142 30.9489C18.3378 30.8963 18.1641 30.8437 17.9877 30.791C17.8824 30.8094 17.7719 30.8226 17.6587 30.8305C17.5876 30.8752 17.5192 30.9095 17.4481 30.9358C17.3771 30.9805 17.3086 31.0148 17.2376 31.0411C17.2033 31.1016 17.1717 31.1595 17.1454 31.2122C17.0849 31.2648 17.027 31.3122 16.9743 31.3569C16.9559 31.428 16.948 31.4938 16.948 31.5544C16.9138 31.6149 16.8769 31.6728 16.8427 31.7255C16.8427 31.8123 16.8427 31.8965 16.8427 31.9755C16.8611 32.0545 16.869 32.1334 16.869 32.2124C16.9138 32.3098 16.9533 32.4098 16.9875 32.5151C17.0033 32.5283 17.0164 32.5414 17.027 32.5546C17.1533 32.6652 17.2718 32.7783 17.3823 32.8968C17.7429 33.1153 18.093 33.3443 18.4352 33.5812C19.8013 34.3682 21.1648 35.1552 22.5283 35.937C22.8863 36.145 23.2417 36.3529 23.5944 36.5556C23.4943 36.7635 23.3943 36.9715 23.2917 37.1742C23.0574 37.6374 22.81 38.0902 22.5546 38.5297C21.7702 38.077 20.9832 37.6269 20.1988 37.1742C20.1146 37.1268 20.033 37.0768 19.9487 37.0294C19.9303 37.0557 19.9172 37.0768 19.9093 37.0952C19.6645 36.9557 19.417 36.8135 19.1722 36.674C19.0669 36.6293 18.9617 36.5898 18.8564 36.5556C18.8037 36.5635 18.7563 36.5608 18.7116 36.5424C18.6326 36.5503 18.5484 36.5556 18.4615 36.5556C18.3747 36.5898 18.2852 36.6161 18.1983 36.6345C18.1457 36.6872 18.093 36.7319 18.0404 36.7662C18.0062 36.8267 17.9746 36.8846 17.9483 36.9373C17.8956 36.9899 17.8377 37.0373 17.7772 37.082C17.7745 37.1136 17.7693 37.1452 17.764 37.1742C17.7587 37.211 17.7561 37.2452 17.7508 37.2794C17.7324 37.3584 17.7166 37.4295 17.6982 37.49C17.6982 37.569 17.7061 37.648 17.7245 37.7269C17.7693 37.8322 17.8114 37.9322 17.8561 38.0296C17.9693 38.1428 18.0799 38.2613 18.1852 38.385C18.4221 38.5429 18.6537 38.7061 18.8827 38.8719C19.1275 39.0114 19.3749 39.1536 19.6197 39.2931C19.7645 39.3773 19.9093 39.4589 20.054 39.5432C20.4989 39.8037 20.9411 40.0617 21.3833 40.3197C20.7858 41.1435 20.133 41.9306 19.4223 42.6755C19.2038 42.615 19.0038 42.5544 18.8169 42.4912C18.3931 42.3623 18.0641 42.2385 17.8298 42.1227C17.2691 41.8148 16.8875 41.4199 16.6848 40.9382C16.6506 40.8408 16.5927 40.6408 16.5137 40.3328C16.4426 40.0696 16.3689 39.8669 16.29 39.7274C16.1057 39.3931 15.803 39.1957 15.3818 39.1352C14.9607 39.0641 14.6106 39.1562 14.3289 39.4115C13.8446 39.8274 13.6814 40.5329 13.842 41.5305C13.8473 41.5515 13.8525 41.5673 13.8552 41.5831C13.9683 42.2675 14.25 43.3072 14.6975 44.7023C14.7001 44.7128 14.7054 44.7234 14.7106 44.7286C15.116 46.0605 15.3687 47.0897 15.474 47.8215C15.5266 48.19 15.5845 48.748 15.6451 49.4929C15.724 50.151 15.8425 50.6959 16.0004 51.1249C16.2979 51.8698 16.7295 52.3042 17.2902 52.4279C17.6508 52.5068 17.9956 52.4095 18.3299 52.1383C18.6537 51.8751 18.8353 51.5513 18.8695 51.1644C18.8959 50.9196 18.8564 50.6195 18.7511 50.2695C18.6195 49.8667 18.5221 49.5588 18.4615 49.3482C18.4063 49.1376 18.3536 48.7717 18.3036 48.2558C18.301 48.2005 18.2957 48.1374 18.2904 48.0716C18.1773 47.1055 17.9562 46.1579 17.6324 45.2288C17.8166 45.1761 18.0483 45.2024 18.3299 45.3077C18.7327 45.4393 18.9669 45.5104 19.0275 45.5183C19.1512 45.5394 19.2775 45.542 19.4091 45.5315C19.8013 45.4893 20.2251 45.2972 20.6858 44.9524C20.7437 44.9181 20.8016 44.8787 20.8569 44.8339C21.0464 44.6839 21.2306 44.5233 21.4096 44.347C21.9124 43.8758 22.3888 43.3099 22.8442 42.6492C23.0627 42.3412 23.2996 41.9832 23.5549 41.57C24.1866 41.9385 24.8184 42.3017 25.4501 42.6623C25.5738 42.6966 25.6817 42.7334 25.7791 42.7676C25.866 42.7597 25.9449 42.7492 26.016 42.7413C26.1292 42.7334 26.245 42.7229 26.3582 42.715C26.403 42.6702 26.4503 42.6229 26.503 42.5702C26.5819 42.5439 26.6556 42.5097 26.7267 42.4649C26.753 42.4123 26.7846 42.3544 26.8188 42.2938C26.8531 42.2412 26.8899 42.1833 26.9241 42.1227C26.9241 42.0622 26.9373 41.9964 26.9636 41.9253C26.9715 41.8542 26.9847 41.7858 27.0031 41.7147C26.9952 41.6437 26.9847 41.5647 26.9768 41.4778C26.932 41.3804 26.8925 41.2804 26.8583 41.1751C26.7451 41.0619 26.6293 40.9435 26.5161 40.8198C25.8844 40.4513 25.2527 40.088 24.6209 39.7274C24.6999 39.5774 24.7789 39.4221 24.8578 39.2668C25.0658 38.8798 25.2658 38.4876 25.4632 38.0954C25.5343 37.9638 25.5949 37.8454 25.6475 37.7401C25.6528 37.7427 25.6554 37.7427 25.6607 37.7401C26.3135 38.1191 26.9715 38.5008 27.6348 38.8851C27.748 38.9193 27.8533 38.9588 27.9507 39.0035C28.0297 39.0114 28.1007 39.022 28.1613 39.0299C28.2139 39.022 28.2745 39.0088 28.3455 38.9904C28.4324 38.9641 28.5219 38.943 28.6088 38.9246C28.6877 38.8904 28.7614 38.8509 28.8325 38.8061C28.8851 38.7614 28.9378 38.7193 28.9904 38.6745C29.0352 38.6298 29.0878 38.5824 29.1484 38.5297C29.1826 38.4771 29.2194 38.4192 29.2536 38.3587C29.28 38.306 29.3116 38.2481 29.3458 38.1876C29.3537 38.127 29.3668 38.0612 29.3853 37.9901C29.3774 37.9112 29.3721 37.8322 29.3721 37.7532C29.3642 37.6743 29.3589 37.5953 29.3589 37.5163C29.2879 37.4032 29.2221 37.2873 29.1615 37.1742C29.0562 37.061 28.943 36.9425 28.8193 36.8188C27.6506 36.145 26.4793 35.4711 25.3053 34.792C24.0129 34.0497 22.7205 33.3022 21.4228 32.5546C20.8226 32.2071 20.2199 31.8623 19.6197 31.5149C19.6118 31.5412 19.6013 31.5623 19.5934 31.5807C19.2433 31.3701 18.8827 31.1595 18.5142 30.9489ZM164.352 51.7172C164.352 51.6566 164.352 51.5908 164.352 51.5198C164.352 51.4592 164.352 51.3934 164.352 51.3223C164.326 51.2618 164.305 51.196 164.287 51.1249C164.26 51.0644 164.239 50.9986 164.221 50.9275C164.176 50.867 164.129 50.8012 164.076 50.7301C163.989 50.6696 163.9 50.6038 163.813 50.5327C163.663 50.4879 163.51 50.4458 163.352 50.4011C162.615 50.4011 161.883 50.4011 161.154 50.4011C161.136 49.7772 161.11 49.1639 161.075 48.5585C161.067 48.419 161.057 48.2874 161.049 48.1637C161.812 48.1637 162.581 48.1637 163.352 48.1637C163.465 48.1374 163.576 48.1163 163.681 48.0979C163.752 48.0716 163.818 48.0505 163.879 48.0321C163.923 47.9873 163.965 47.9452 164.01 47.9005C164.081 47.8294 164.15 47.7636 164.221 47.703C164.266 47.632 164.308 47.5635 164.352 47.4925C164.371 47.4319 164.392 47.3661 164.418 47.295C164.437 47.2345 164.458 47.1687 164.484 47.0976C164.484 47.0371 164.484 46.9713 164.484 46.9002C164.484 46.8397 164.484 46.7739 164.484 46.7028C164.458 46.6423 164.437 46.5764 164.418 46.5054C164.373 46.4448 164.331 46.379 164.287 46.308C164.242 46.2474 164.2 46.1816 164.155 46.1105C164.042 46.05 163.926 45.9842 163.813 45.9131C163.663 45.8684 163.51 45.8263 163.352 45.7815C159.817 45.7815 156.277 45.7815 152.731 45.7815C152.731 45.8078 152.731 45.8289 152.731 45.8473C152.318 45.8473 151.902 45.8473 151.481 45.8473C151.305 45.8921 151.131 45.9342 150.954 45.9789C150.868 46.05 150.778 46.1158 150.691 46.1764C150.646 46.2474 150.604 46.3132 150.56 46.3738C150.515 46.4448 150.473 46.5106 150.428 46.5712C150.428 46.6423 150.428 46.7081 150.428 46.7686C150.402 46.8397 150.381 46.9055 150.362 46.966C150.381 47.0371 150.402 47.1029 150.428 47.1634C150.428 47.2345 150.428 47.3003 150.428 47.3609C150.473 47.4319 150.515 47.5004 150.56 47.5714C150.604 47.632 150.646 47.6978 150.691 47.7688C150.778 47.8294 150.868 47.8952 150.954 47.9663C151.131 48.011 151.305 48.0531 151.481 48.0979C151.902 48.1163 152.318 48.1374 152.731 48.1637C154.713 48.1637 156.698 48.1637 158.68 48.1637C158.741 48.9191 158.772 49.664 158.772 50.4011C157.772 50.4011 156.772 50.4011 155.771 50.4011C155.771 50.4274 155.771 50.4484 155.771 50.4669C155.482 50.4669 155.198 50.4669 154.916 50.4669C154.803 50.4932 154.692 50.5143 154.587 50.5327C154.542 50.559 154.5 50.5801 154.455 50.5985C154.384 50.6432 154.316 50.6853 154.245 50.7301C154.184 50.8012 154.118 50.867 154.047 50.9275C154.029 50.9986 154.008 51.0644 153.981 51.1249C153.981 51.196 153.981 51.2618 153.981 51.3223C153.963 51.3934 153.942 51.4592 153.916 51.5198C153.942 51.5908 153.963 51.6566 153.981 51.7172C154.008 51.7882 154.029 51.8541 154.047 51.9146C154.092 51.9857 154.134 52.0515 154.179 52.112C154.276 52.1831 154.368 52.2489 154.455 52.3094C154.605 52.3542 154.758 52.4016 154.916 52.4542C155.198 52.4726 155.482 52.4937 155.771 52.52C156.737 52.52 157.698 52.52 158.654 52.52C158.548 53.5387 158.377 54.5468 158.14 55.5471C157.403 55.7392 156.851 55.8445 156.482 55.8629C155.842 55.8814 155.316 55.7313 154.903 55.4154C154.816 55.3549 154.661 55.2049 154.442 54.968C154.25 54.7758 154.082 54.6389 153.942 54.56C153.618 54.3678 153.258 54.3494 152.863 54.5073C152.468 54.6574 152.21 54.9101 152.086 55.2707C151.876 55.884 152.105 56.5921 152.771 57.3896C153.21 57.924 153.968 58.6847 155.048 59.6665C156.082 60.622 156.83 61.3906 157.285 61.9697C157.522 62.2671 157.851 62.7251 158.272 63.3384C158.667 63.8728 159.043 64.286 159.404 64.5756C160.028 65.0757 160.609 65.2389 161.154 65.0625C161.515 64.9494 161.768 64.6888 161.918 64.286C162.068 63.8991 162.062 63.5306 161.904 63.1805C161.799 62.9515 161.61 62.712 161.339 62.4566C161.023 62.175 160.791 61.9618 160.641 61.8117C160.465 61.6354 160.201 61.2985 159.851 60.7983C159.272 60.0166 158.609 59.3032 157.864 58.6531C157.996 58.5215 158.206 58.4293 158.496 58.3767C158.917 58.2898 159.159 58.2319 159.22 58.2056C159.72 58.0135 160.133 57.5133 160.457 56.7052C160.781 55.8708 160.991 54.9074 161.088 53.8098C161.123 53.4413 161.146 53.0122 161.154 52.52C161.891 52.52 162.623 52.52 163.352 52.52C163.465 52.4937 163.576 52.4726 163.681 52.4542C163.752 52.4016 163.818 52.3542 163.879 52.3094C163.965 52.2489 164.058 52.1831 164.155 52.112C164.173 52.0515 164.195 51.9857 164.221 51.9146C164.266 51.8514 164.308 51.7856 164.352 51.7172Z" fill="#1E1E1E"/>
<path d="M183.422 232.653C182.761 232.642 182.098 232.629 181.435 232.613C182.109 232.795 182.785 232.976 183.462 233.153C183.451 232.99 183.438 232.824 183.422 232.653ZM22.5276 35.9336C22.5513 36.3442 22.5697 36.7575 22.5802 37.1707C22.8171 37.1707 23.054 37.1707 23.2909 37.1707C23.3936 36.9681 23.4936 36.7601 23.5936 36.5522C23.2409 36.3469 22.8856 36.1415 22.5276 35.9336Z" fill="white"/>
<path d="M26.0723 258.595C24.535 258.595 23.4822 258.108 22.6872 257.479C19.2732 254.786 17.278 246.911 39.0254 209.878C38.32 209.391 37.6435 208.828 37.0091 208.193C34.4032 205.587 33.0845 202.397 33.0845 198.707C33.0845 196.538 33.5451 194.524 34.4533 192.71C34.4927 188.97 35.8562 185.727 38.5095 183.074C41.2023 180.381 44.5004 179.018 48.3119 179.018C51.4574 179.018 54.2555 179.949 56.6508 181.789C59.6147 177.328 62.7365 172.734 65.9557 168.104C57.2957 155.601 52.9051 141.124 52.9051 125.057C52.9051 115.905 54.3292 107.211 57.1404 99.206C48.0539 86.9767 39.7598 75.1633 32.4659 64.0658C29.6047 65.6504 26.3934 66.4533 22.8978 66.4533C17.4017 66.4533 12.6427 64.4817 8.75225 60.5939C6.1832 58.0249 4.44067 55.0505 3.57204 51.7523C1.3136 48.4778 0.168579 44.6927 0.168579 40.4996C0.168579 34.9693 2.14801 30.1786 6.05422 26.2645C7.00446 25.3169 8.0126 24.4772 9.06285 23.756C3.97477 12.5533 3.16405 6.03851 6.50433 3.29047C9.88674 0.505575 18.094 0.247618 50.1939 30.0049C60.7649 39.8099 72.0045 51.0811 83.6126 63.521C92.4121 56.7719 102.267 52.2077 112.922 49.9492C113.238 49.8834 113.551 49.9361 113.815 50.0756C114.004 49.8439 114.273 49.6728 114.591 49.6149C119.424 48.7095 124.509 48.2488 129.713 48.2488C132.356 48.2488 134.983 48.3673 137.539 48.6042C138.015 47.9803 138.534 47.3749 139.089 46.7906C139.553 45.8482 140.1 44.9269 140.721 44.0531C141.416 43.0633 142.232 42.0947 143.14 41.1866C147.178 37.1487 152.119 35.1035 157.825 35.1035C162.763 35.1035 167.141 36.6407 170.842 39.6757C174.245 36.2117 177.641 32.8398 180.944 29.6443C212.402 -0.778949 220.612 -0.692087 224.052 2.02173C227.49 4.73292 229.49 12.7007 207.261 50.4046C202.163 59.0436 196.414 68.1826 190.17 77.5849C192.826 80.891 195.185 84.3734 197.188 87.9427C197.301 88.1454 197.356 88.3665 197.356 88.585C197.538 88.7008 197.693 88.864 197.804 89.0693C203.589 99.8193 206.522 111.928 206.522 125.057C206.522 146.167 198.954 164.44 184.027 179.368C182.758 180.636 181.45 181.868 180.128 183.034C185.648 191.084 190.789 198.954 195.416 206.435C218.443 243.657 216.611 251.662 213.231 254.444C210.17 256.963 204.742 255.476 196.193 249.764C195.895 250.122 195.577 250.469 195.24 250.806C192.639 253.417 189.446 254.744 185.756 254.744C182.068 254.744 178.87 253.417 176.259 250.806C174.88 249.427 173.85 247.866 173.2 246.166C170.815 243.628 169.607 240.556 169.607 237.029C169.607 234.326 170.318 231.878 171.724 229.741C171.008 229.082 170.278 228.414 169.541 227.729C165.448 223.934 161.226 219.891 156.975 215.698C153.111 219.538 148.381 221.486 142.917 221.486C137.42 221.486 132.661 219.514 128.771 215.627C127.442 214.297 126.323 212.85 125.444 211.323C125.341 211.223 125.239 211.123 125.139 211.02C122.338 208.219 120.524 204.948 119.742 201.286C112.304 200.397 105.199 198.464 98.5978 195.54C87.224 208.264 76.1924 219.807 65.7977 229.859C41.6182 253.23 31.1709 258.595 26.0723 258.595ZM41.3391 211.139C33.5662 224.366 28.2254 234.892 25.4642 242.428C22.0292 251.801 23.2716 254.586 24.3192 255.413C25.3642 256.239 28.357 256.8 36.667 251.269C43.466 246.745 52.6498 238.906 63.9683 227.966C74.1577 218.114 84.9629 206.819 96.1078 194.377C88.6717 190.723 81.7121 185.68 75.4027 179.37C72.5336 176.501 69.9119 173.482 67.5876 170.371C64.4843 174.848 61.473 179.286 58.6118 183.598C60.9755 186.19 62.1732 189.31 62.1732 192.879C62.1732 195.782 61.3782 198.401 59.8068 200.668C59.4146 203.534 58.1327 206.066 55.9953 208.196C53.3947 210.807 50.2018 212.134 46.5115 212.134C44.6636 212.134 42.929 211.799 41.3391 211.139ZM197.664 247.587C207.127 253.904 210.425 253.346 211.557 252.417C212.586 251.57 213.771 248.758 210.138 239.461C207.164 231.854 201.46 221.209 193.179 207.825C188.617 200.449 183.553 192.695 178.117 184.758C173.053 188.949 167.607 192.408 161.897 195.056C162.569 197.067 162.908 199.228 162.908 201.497C162.908 206.129 161.505 210.241 158.736 213.739C162.998 217.943 167.23 221.997 171.331 225.8C172.024 226.44 172.705 227.071 173.379 227.687C173.4 227.664 173.424 227.643 173.445 227.619L173.532 227.532C176.148 224.926 179.341 223.605 183.029 223.605C186.717 223.605 189.91 224.926 192.515 227.532C193.9 228.917 194.932 230.478 195.587 232.178C197.972 234.726 199.18 237.798 199.18 241.32C199.178 243.602 198.67 245.702 197.664 247.587ZM179.241 249.943C181.115 251.401 183.261 252.114 185.753 252.114C188.759 252.114 191.252 251.08 193.376 248.948C193.924 248.403 194.403 247.829 194.806 247.237C195.977 245.497 196.548 243.562 196.548 241.322C196.548 240.514 196.474 239.746 196.322 239.009C196.051 240.98 195.364 242.796 194.271 244.426C193.761 245.163 193.174 245.86 192.515 246.518C189.912 249.132 186.719 250.456 183.029 250.456C181.7 250.456 180.436 250.285 179.241 249.943ZM175.311 244.573C175.338 244.602 175.364 244.631 175.39 244.657C177.522 246.789 180.02 247.827 183.026 247.827C186.032 247.827 188.525 246.792 190.649 244.66C191.197 244.112 191.684 243.536 192.092 242.944C193.25 241.217 193.818 239.28 193.818 237.034C193.818 235.721 193.613 234.481 193.208 233.347C193.208 233.344 193.205 233.341 193.205 233.341C192.689 231.904 191.831 230.58 190.652 229.398C188.528 227.277 186.035 226.242 183.029 226.242C180.02 226.242 177.522 227.274 175.39 229.398L175.314 229.475C175.032 229.762 174.756 230.072 174.501 230.388C172.977 232.302 172.237 234.476 172.237 237.032C172.237 239.982 173.229 242.433 175.272 244.531C175.285 244.544 175.298 244.557 175.311 244.573ZM133.356 216.037C136.146 217.93 139.302 218.856 142.914 218.856C147.755 218.856 151.766 217.193 155.183 213.768C155.451 213.5 155.712 213.226 155.957 212.952C155.959 212.95 155.959 212.947 155.962 212.947C158.863 209.701 160.273 205.956 160.273 201.499C160.273 199.323 159.921 197.272 159.223 195.393C159.257 195.888 159.273 196.388 159.273 196.893C159.273 201.96 157.596 206.403 154.293 210.102C154.009 210.412 153.717 210.72 153.414 211.023C149.534 214.911 144.78 216.882 139.284 216.882C137.199 216.885 135.223 216.6 133.356 216.037ZM127.405 209.562C130.748 212.718 134.633 214.25 139.281 214.25C144.122 214.25 148.134 212.586 151.55 209.162C151.824 208.888 152.09 208.609 152.337 208.338C155.23 205.1 156.641 201.352 156.641 196.89C156.641 194.513 156.217 192.281 155.385 190.26C155.141 189.665 154.856 189.078 154.54 188.515C154.538 188.512 154.538 188.509 154.535 188.507C153.761 187.127 152.758 185.817 151.55 184.608C148.134 181.192 144.122 179.531 139.281 179.531C135.141 179.531 131.482 180.815 128.405 183.35C128.289 183.442 128.192 183.521 128.095 183.603C127.721 183.916 127.352 184.256 126.997 184.608C123.828 187.786 122.175 191.46 121.946 195.843C121.93 196.182 121.922 196.538 121.922 196.893C121.922 197.92 122.001 198.922 122.156 199.881C122.156 199.883 122.156 199.883 122.156 199.886C122.72 203.392 124.349 206.511 126.999 209.162C127.134 209.296 127.268 209.43 127.405 209.562ZM41.4497 208.28C42.9527 209.091 44.6557 209.499 46.5088 209.499C49.5148 209.499 52.0075 208.464 54.1317 206.332C54.6266 205.84 55.0609 205.329 55.4347 204.798C53.3236 206.085 50.9389 206.735 48.3119 206.735C44.5004 206.735 41.2023 205.369 38.5095 202.679C37.3171 201.486 36.3853 200.173 35.7167 198.751C35.7272 201.739 36.7591 204.218 38.8727 206.332C39.6677 207.127 40.5337 207.783 41.4471 208.277C41.4471 208.277 41.4471 208.28 41.4497 208.28ZM37.0855 193.026C37.1197 196.093 38.1963 198.641 40.3705 200.818C42.5816 203.029 45.1796 204.105 48.3119 204.105C51.4442 204.105 54.0396 203.031 56.2533 200.818C56.7061 200.365 57.1167 199.888 57.4773 199.402C58.8645 197.504 59.5409 195.369 59.5409 192.879C59.5409 189.747 58.467 187.151 56.2533 184.937C56.177 184.861 56.1006 184.787 56.0217 184.714L56.019 184.711C53.8554 182.653 51.3363 181.652 48.3119 181.652C45.1796 181.652 42.5842 182.726 40.3705 184.94C38.1594 187.151 37.0855 189.749 37.0855 192.879V193.026ZM98.8032 192.745C98.8032 192.745 98.8058 192.745 98.8084 192.747C105.205 195.69 112.109 197.651 119.356 198.586C119.313 198.028 119.29 197.462 119.29 196.89C119.29 196.496 119.3 196.098 119.319 195.709C119.582 190.713 121.538 186.354 125.136 182.747C125.22 182.663 125.307 182.579 125.394 182.495C122.477 179.26 119.495 175.906 116.518 172.508C109.727 164.759 102.673 156.481 95.5497 147.902C95.2391 147.526 95.1707 147.028 95.3286 146.602C94.8785 146.678 94.4047 146.518 94.0941 146.141C93.3966 145.296 92.6964 144.446 91.9936 143.593C91.0934 142.501 90.2011 141.414 89.314 140.329C88.4533 141.477 87.5899 142.63 86.7423 143.772C86.5712 144.001 86.3396 144.159 86.0869 144.241C86.0816 144.507 85.9974 144.772 85.8263 145.004C79.9723 152.88 74.3735 160.642 69.1749 168.089C71.5518 171.347 74.2682 174.511 77.2637 177.509C83.8021 184.048 91.0486 189.175 98.8032 192.745ZM156.736 187.051C156.841 187.151 156.944 187.251 157.046 187.354C158.652 188.96 159.939 190.726 160.887 192.624C166.762 189.883 172.353 186.254 177.52 181.818C177.522 181.816 177.522 181.816 177.525 181.813C179.099 180.463 180.66 179.015 182.163 177.509C189.375 170.297 194.858 162.229 198.462 153.535C202.063 144.841 203.889 135.26 203.889 125.057C203.889 112.367 201.062 100.68 195.485 90.317C195.379 90.1196 195.327 89.9064 195.327 89.6958C195.15 89.5826 195 89.4273 194.89 89.2325C192.808 85.5237 190.328 81.9123 187.52 78.5009C185.872 76.4952 184.069 74.5131 182.163 72.6074C180.047 70.4911 177.843 68.509 175.596 66.7007C174.848 67.8957 173.956 69.0407 172.937 70.1147C171.95 72.1336 170.584 74.0209 168.878 75.7266C164.84 79.7644 159.9 81.8096 154.193 81.8096C148.944 81.8096 144.341 80.0776 140.495 76.6558C133.148 85.1526 125.512 94.2916 117.787 103.839C116.742 105.128 115.697 106.426 114.644 107.737C114.446 107.982 114.181 108.14 113.894 108.2C113.894 108.49 113.802 108.782 113.604 109.027C111.514 111.641 109.372 114.336 107.239 117.042C101.588 124.212 96.1078 131.314 90.9407 138.168C91.9594 139.416 92.9859 140.666 94.023 141.924C94.7258 142.777 95.4234 143.625 96.1209 144.47C96.4315 144.846 96.4973 145.341 96.3394 145.767C96.7869 145.691 97.2607 145.849 97.5713 146.225C104.678 154.785 111.719 163.045 118.495 170.776C121.482 174.185 124.473 177.549 127.397 180.792C130.803 178.212 134.799 176.901 139.279 176.901C144.775 176.901 149.529 178.868 153.409 182.747C154.74 184.077 155.857 185.522 156.736 187.051ZM59.054 101.772C56.7192 109.027 55.5373 116.847 55.5373 125.057C55.5373 140.232 59.5831 153.925 67.564 165.793C72.6205 158.565 78.0481 151.053 83.71 143.433C83.8811 143.204 84.1127 143.046 84.3654 142.964C84.3707 142.698 84.4549 142.432 84.626 142.201C85.6078 140.882 86.6028 139.547 87.5978 138.229C77.3295 125.628 67.7377 113.378 59.054 101.772ZM60.099 98.7717C68.9248 110.614 78.7167 123.149 89.2298 136.068C94.2942 129.361 99.6534 122.42 105.176 115.413C107.313 112.704 109.456 110.001 111.551 107.384C111.748 107.137 112.017 106.982 112.301 106.921C112.301 106.632 112.396 106.339 112.591 106.095C113.644 104.781 114.694 103.481 115.739 102.188C123.528 92.5649 131.222 83.3548 138.626 74.7974C135.173 70.9412 133.425 66.319 133.425 61.0467C133.425 57.4195 134.257 54.0871 135.899 51.1127C133.867 50.96 131.795 50.8837 129.713 50.8837C124.673 50.8837 119.75 51.3285 115.078 52.2024C114.773 52.2603 114.47 52.2077 114.217 52.0708C114.033 52.2945 113.775 52.4604 113.47 52.5262C102.828 54.7794 93.0096 59.4252 84.2891 66.3322C84.2865 66.3348 84.2865 66.3348 84.2838 66.3374C81.8832 68.2432 79.5195 70.3516 77.2637 72.6074C69.4513 80.4198 63.6788 89.2193 60.099 98.7717ZM34.677 62.6339C41.6708 73.2733 49.5885 84.5761 58.2459 96.2737C61.9889 86.9714 67.7535 78.393 75.4027 70.7438C77.3848 68.7617 79.4458 66.8876 81.5463 65.1608C70.033 52.8262 58.8882 41.6525 48.404 31.9317C36.8617 21.2317 27.5121 13.5851 20.6183 9.20244C12.1926 3.85113 9.20763 4.47497 8.17843 5.32254C6.92286 6.35437 5.72256 9.94999 11.345 22.4109C14.0509 21.0606 17.0516 20.3762 20.2919 20.3762C25.8248 20.3762 30.6102 22.3556 34.5164 26.2619C37.3013 29.0468 39.1202 32.2897 39.9283 35.9063C41.8945 39.0097 42.8895 42.5606 42.8895 46.4589C42.8895 51.9576 40.918 56.7114 37.0276 60.5913C36.28 61.3415 35.493 62.0259 34.677 62.6339ZM141.34 73.8366L141.369 73.8656C144.943 77.4402 149.139 79.1774 154.19 79.1774C158.557 79.1774 162.284 77.8797 165.525 75.2186C163.145 76.1635 160.573 76.6373 157.823 76.6373C152.116 76.6373 147.175 74.5895 143.138 70.5516L143.098 70.5122C139.087 66.4822 137.055 61.5547 137.055 55.8665C137.055 55.5374 137.062 55.2084 137.076 54.882C136.397 56.7956 136.054 58.854 136.054 61.0388C136.054 66.0742 137.781 70.2568 141.329 73.8235C141.335 73.8314 141.337 73.834 141.34 73.8366ZM176.856 64.337C179.312 66.2901 181.721 68.4406 184.027 70.7438C185.561 72.2784 187.033 73.863 188.414 75.4713C194.463 66.3374 200.038 57.4616 204.995 49.0674C212.989 35.5089 218.467 24.7457 221.278 17.0754C224.713 7.69944 223.47 4.91455 222.423 4.08803C221.375 3.26151 218.377 2.70085 210.07 8.23115C203.271 12.7533 194.09 20.5947 182.776 31.5342C179.507 34.6955 176.148 38.0305 172.782 41.4577C176.643 45.4455 178.599 50.2914 178.599 55.8691C178.599 56.7298 178.552 57.5879 178.459 58.4223C178.217 60.5044 177.683 62.4891 176.856 64.337ZM141.369 48.1225C140.253 50.4546 139.689 53.0605 139.689 55.8717C139.689 60.9072 141.416 65.0898 144.964 68.6564L145.001 68.6933C148.576 72.2678 152.772 74.0077 157.823 74.0077C162.877 74.0077 167.07 72.2705 170.644 68.6933C170.726 68.6117 170.802 68.5327 170.879 68.4538C170.884 68.4485 170.887 68.4432 170.892 68.4406C172.187 67.1034 173.245 65.6478 174.04 64.1158C174.04 64.1158 174.04 64.1158 174.04 64.1132C174.99 62.2759 175.593 60.2623 175.835 58.1302C175.917 57.3932 175.959 56.6324 175.959 55.8691C175.959 50.8152 174.222 46.6221 170.644 43.0475C170.439 42.8422 170.228 42.6422 170.018 42.4474C169.792 42.2395 169.557 42.0341 169.32 41.8367C166.07 39.115 162.2 37.7357 157.82 37.7357C152.766 37.7357 148.573 39.473 144.999 43.0502C144.198 43.8504 143.48 44.7006 142.869 45.5718C142.293 46.3905 141.787 47.2433 141.369 48.1225C141.371 48.1198 141.371 48.1198 141.369 48.1225ZM9.51559 57.5353C9.86042 57.9433 10.2263 58.3434 10.6159 58.7303C14.0404 62.1548 18.0598 63.8184 22.9004 63.8184C26.346 63.8184 29.4599 62.9314 32.1606 61.1809C32.1606 61.1809 32.1632 61.1809 32.1632 61.1783C33.2135 60.4992 34.2243 59.6753 35.1692 58.7303C38.5964 55.3111 40.2599 51.2996 40.2599 46.4589C40.2599 45.6587 40.2126 44.8769 40.1178 44.1136C39.4282 48.1356 37.5514 51.6918 34.5164 54.7214C30.6128 58.6356 25.8275 60.6203 20.2945 60.6203C16.2962 60.6203 12.6874 59.5858 9.51559 57.5353ZM5.86734 50.4362C6.45959 51.2759 7.14923 52.0919 7.91784 52.8605C11.3687 56.3113 15.417 57.988 20.2919 57.988C25.1668 57.988 29.2099 56.3113 32.6528 52.8605C36.1063 49.4149 37.783 45.3718 37.783 40.4969C37.783 39.1808 37.6567 37.8989 37.404 36.6907C37.404 36.6907 37.404 36.6881 37.404 36.6855C36.7301 33.4794 35.1324 30.5971 32.6554 28.1202C29.2125 24.6773 25.1694 23.0058 20.2945 23.0058C17.0174 23.0058 14.0325 23.8007 11.4213 25.3695C11.4187 25.3695 11.4187 25.3722 11.4161 25.3722C10.1868 26.1092 9.01021 27.0331 7.91784 28.1228C4.47489 31.5737 2.8008 35.622 2.8008 40.4996C2.8008 44.2268 3.83 47.5671 5.86207 50.4309C5.86207 50.4336 5.8647 50.4336 5.86734 50.4362Z" fill="#646464"/>
</svg>
