<svg width="52" height="52" viewBox="0 0 52 52" fill="none" xmlns="http://www.w3.org/2000/svg">
<path d="M5.2726 43.9956H12.9085V25.4513L2 17.2704V40.7236C2.00061 42.5305 3.46575 43.9956 5.2726 43.9956Z" fill="#4285F4"/>
<path d="M39.0881 43.9956H46.7245C48.532 43.9956 49.9972 42.5305 49.9972 40.723V17.2698L39.0881 25.4513V43.9956Z" fill="#34A853"/>
<path d="M39.0881 11.272V25.4512L49.9965 17.2703V12.9083C49.9965 10.1977 47.7988 8 45.0876 8C44.0255 8 42.9925 8.34474 42.1428 8.98202L39.0881 11.272Z" fill="#FBBC04"/>
<path d="M12.9091 25.4513V11.2721L25.9983 21.0887L39.0875 11.2715V25.4513L25.9983 35.2679L12.9091 25.4513Z" fill="#EA4335"/>
<path d="M2.0014 12.9087V17.2708L12.9099 25.4523V11.273L9.85516 8.98244C7.68658 7.35585 4.61002 7.79528 2.98343 9.96386C2.34554 10.8136 2.0014 11.8472 2.0014 12.9087Z" fill="#C5221F"/>
</svg>
