<svg width="240" height="55" viewBox="0 0 240 55" fill="none" xmlns="http://www.w3.org/2000/svg">
<g filter="url(#filter0_d)">
<rect x="2" width="236" height="52" rx="2.62637" fill="#5186EC"/>
</g>
<rect x="4.6001" y="2.59985" width="46.8" height="46.8" rx="1.31319" fill="white"/>
<path fill-rule="evenodd" clip-rule="evenodd" d="M37.9841 26.2365C37.9841 25.4991 37.9179 24.79 37.795 24.1093H28.0001V28.1322H33.5972C33.3561 29.4322 32.6234 30.5336 31.5219 31.2711V33.8805H34.883C36.8496 32.07 37.9841 29.4038 37.9841 26.2365Z" fill="#4285F4"/>
<path fill-rule="evenodd" clip-rule="evenodd" d="M27.9999 36.4C30.8079 36.4 33.1621 35.4687 34.8828 33.8803L31.5217 31.2709C30.5904 31.8949 29.3991 32.2636 27.9999 32.2636C25.2911 32.2636 22.9984 30.4341 22.1806 27.976H18.7061V30.6705C20.4173 34.0694 23.9344 36.4 27.9999 36.4Z" fill="#34A853"/>
<path fill-rule="evenodd" clip-rule="evenodd" d="M22.1808 27.9761C21.9728 27.3521 21.8546 26.6856 21.8546 26.0001C21.8546 25.3147 21.9728 24.6481 22.1808 24.0241V21.3296H18.7063C18.0019 22.7336 17.6001 24.322 17.6001 26.0001C17.6001 27.6783 18.0019 29.2667 18.7063 30.6707L22.1808 27.9761Z" fill="#FBBC05"/>
<path fill-rule="evenodd" clip-rule="evenodd" d="M27.9999 19.7365C29.5268 19.7365 30.8977 20.2612 31.9755 21.2917L34.9584 18.3088C33.1573 16.6306 30.8031 15.6001 27.9999 15.6001C23.9344 15.6001 20.4173 17.9306 18.7061 21.3296L22.1806 24.0241C22.9984 21.5659 25.2911 19.7365 27.9999 19.7365Z" fill="#EA4335"/>
<path d="M74.8648 29.1054C74.8648 28.6018 74.6871 28.2167 74.3316 27.9501C73.9762 27.6776 73.3363 27.3932 72.4121 27.097C71.4879 26.7948 70.7562 26.4986 70.2171 26.2083C68.7478 25.4144 68.0132 24.3451 68.0132 23.0002C68.0132 22.3011 68.2087 21.679 68.5997 21.134C68.9966 20.583 69.5624 20.1535 70.2971 19.8454C71.0376 19.5373 71.8671 19.3833 72.7854 19.3833C73.7096 19.3833 74.5331 19.5521 75.2559 19.8898C75.9786 20.2216 76.5385 20.6926 76.9354 21.3028C77.3383 21.9131 77.5397 22.6062 77.5397 23.3823H74.8737C74.8737 22.7899 74.6871 22.3307 74.3139 22.0049C73.9406 21.6731 73.4163 21.5072 72.7409 21.5072C72.0892 21.5072 71.5827 21.6465 71.2213 21.9249C70.8599 22.1974 70.6792 22.5588 70.6792 23.0091C70.6792 23.4297 70.8895 23.7822 71.3102 24.0666C71.7367 24.351 72.3618 24.6176 73.1853 24.8664C74.7019 25.3226 75.8068 25.8884 76.5 26.5638C77.1932 27.2392 77.5397 28.0804 77.5397 29.0876C77.5397 30.2073 77.1161 31.0871 76.2689 31.727C75.4217 32.3609 74.2813 32.6778 72.8476 32.6778C71.8522 32.6778 70.9458 32.4971 70.1282 32.1357C69.3106 31.7684 68.6856 31.2678 68.2531 30.6339C67.8266 30 67.6133 29.2653 67.6133 28.43H70.2882C70.2882 29.8578 71.1413 30.5717 72.8476 30.5717C73.4815 30.5717 73.9762 30.4443 74.3316 30.1896C74.6871 29.9289 74.8648 29.5675 74.8648 29.1054Z" fill="white"/>
<path d="M81.8942 32.5001H79.3171V22.8847H81.8942V32.5001ZM79.166 20.3964C79.166 20.0113 79.2934 19.6943 79.5481 19.4455C79.8088 19.1967 80.1613 19.0723 80.6057 19.0723C81.0441 19.0723 81.3936 19.1967 81.6543 19.4455C81.915 19.6943 82.0453 20.0113 82.0453 20.3964C82.0453 20.7874 81.912 21.1073 81.6454 21.3562C81.3847 21.605 81.0382 21.7294 80.6057 21.7294C80.1732 21.7294 79.8236 21.605 79.557 21.3562C79.2964 21.1073 79.166 20.7874 79.166 20.3964Z" fill="white"/>
<path d="M83.6449 27.6213C83.6449 26.1461 83.9945 24.9582 84.6936 24.0577C85.3986 23.1572 86.3465 22.7069 87.5373 22.7069C88.5919 22.7069 89.4124 23.0683 89.9989 23.7911L90.1056 22.8847H92.4339V32.1802C92.4339 33.0215 92.2413 33.7531 91.8562 34.3752C91.4771 34.9973 90.9409 35.4712 90.2478 35.7971C89.5546 36.1229 88.7429 36.2858 87.8128 36.2858C87.1078 36.2858 86.4205 36.1437 85.7511 35.8593C85.0816 35.5808 84.5751 35.2194 84.2314 34.7751L85.3689 33.211C86.0088 33.9279 86.7849 34.2863 87.6973 34.2863C88.3786 34.2863 88.9088 34.1027 89.288 33.7354C89.6672 33.374 89.8567 32.8585 89.8567 32.1891V31.6736C89.2643 32.3431 88.4852 32.6778 87.5195 32.6778C86.3643 32.6778 85.4282 32.2276 84.7113 31.3271C84.0004 30.4206 83.6449 29.2209 83.6449 27.7279V27.6213ZM86.2132 27.8079C86.2132 28.6788 86.388 29.3631 86.7375 29.8607C87.087 30.3525 87.5669 30.5983 88.1771 30.5983C88.9592 30.5983 89.519 30.3051 89.8567 29.7186V25.6751C89.5131 25.0886 88.9592 24.7953 88.1949 24.7953C87.5788 24.7953 87.093 25.0471 86.7375 25.5507C86.388 26.0543 86.2132 26.8067 86.2132 27.8079Z" fill="white"/>
<path d="M96.7795 22.8847L96.8595 23.9955C97.5467 23.1365 98.468 22.7069 99.6232 22.7069C100.642 22.7069 101.401 23.0061 101.898 23.6045C102.396 24.2029 102.651 25.0975 102.662 26.2883V32.5001H100.094V26.3505C100.094 25.8054 99.9757 25.4115 99.7388 25.1686C99.5018 24.9197 99.1078 24.7953 98.5568 24.7953C97.834 24.7953 97.292 25.1034 96.9306 25.7195V32.5001H94.3623V22.8847H96.7795Z" fill="white"/>
<path d="M111.86 32.5001H109.283V22.8847H111.86V32.5001ZM109.132 20.3964C109.132 20.0113 109.259 19.6943 109.514 19.4455C109.775 19.1967 110.127 19.0723 110.572 19.0723C111.01 19.0723 111.36 19.1967 111.62 19.4455C111.881 19.6943 112.011 20.0113 112.011 20.3964C112.011 20.7874 111.878 21.1073 111.611 21.3562C111.351 21.605 111.004 21.7294 110.572 21.7294C110.139 21.7294 109.79 21.605 109.523 21.3562C109.262 21.1073 109.132 20.7874 109.132 20.3964Z" fill="white"/>
<path d="M116.348 22.8847L116.428 23.9955C117.115 23.1365 118.037 22.7069 119.192 22.7069C120.211 22.7069 120.969 23.0061 121.467 23.6045C121.964 24.2029 122.219 25.0975 122.231 26.2883V32.5001H119.663V26.3505C119.663 25.8054 119.544 25.4115 119.307 25.1686C119.07 24.9197 118.676 24.7953 118.125 24.7953C117.403 24.7953 116.861 25.1034 116.499 25.7195V32.5001H113.931V22.8847H116.348Z" fill="white"/>
<path d="M137.081 29.0076L138.343 22.8847H140.822L138.369 32.5001H136.219L134.397 26.4482L132.575 32.5001H130.433L127.981 22.8847H130.46L131.713 28.9987L133.473 22.8847H135.33L137.081 29.0076Z" fill="white"/>
<path d="M144.812 32.5001H142.235V22.8847H144.812V32.5001ZM142.084 20.3964C142.084 20.0113 142.211 19.6943 142.466 19.4455C142.727 19.1967 143.079 19.0723 143.524 19.0723C143.962 19.0723 144.312 19.1967 144.572 19.4455C144.833 19.6943 144.963 20.0113 144.963 20.3964C144.963 20.7874 144.83 21.1073 144.563 21.3562C144.303 21.605 143.956 21.7294 143.524 21.7294C143.091 21.7294 142.742 21.605 142.475 21.3562C142.214 21.1073 142.084 20.7874 142.084 20.3964Z" fill="white"/>
<path d="M150.011 20.5208V22.8847H151.655V24.7687H150.011V29.5675C150.011 29.9229 150.079 30.1777 150.215 30.3317C150.352 30.4858 150.612 30.5628 150.997 30.5628C151.282 30.5628 151.534 30.5421 151.753 30.5006V32.4468C151.249 32.6008 150.731 32.6778 150.198 32.6778C148.397 32.6778 147.478 31.7684 147.443 29.9496V24.7687H146.039V22.8847H147.443V20.5208H150.011Z" fill="white"/>
<path d="M155.592 23.9333C156.273 23.1157 157.129 22.7069 158.16 22.7069C160.245 22.7069 161.303 23.9185 161.333 26.3416V32.5001H158.764V26.4127C158.764 25.8617 158.646 25.4559 158.409 25.1952C158.172 24.9286 157.778 24.7953 157.227 24.7953C156.475 24.7953 155.929 25.0856 155.592 25.6662V32.5001H153.024V18.8501H155.592V23.9333Z" fill="white"/>
<path d="M178.208 30.8649C177.729 31.4396 177.05 31.8869 176.173 32.2068C175.297 32.5208 174.325 32.6778 173.259 32.6778C172.139 32.6778 171.155 32.4349 170.308 31.9491C169.467 31.4574 168.815 30.7465 168.353 29.8163C167.897 28.8862 167.663 27.7931 167.651 26.5371V25.6573C167.651 24.3658 167.867 23.249 168.3 22.307C168.738 21.3591 169.366 20.6363 170.184 20.1387C171.007 19.6351 171.97 19.3833 173.072 19.3833C174.606 19.3833 175.806 19.7506 176.671 20.4853C177.536 21.214 178.049 22.2774 178.208 23.6756H175.614C175.495 22.935 175.231 22.3929 174.823 22.0493C174.42 21.7057 173.863 21.5339 173.152 21.5339C172.246 21.5339 171.555 21.8745 171.081 22.5559C170.607 23.2372 170.367 24.2503 170.362 25.5951V26.4216C170.362 27.7783 170.619 28.8032 171.135 29.4964C171.65 30.1896 172.405 30.5361 173.401 30.5361C174.402 30.5361 175.116 30.3229 175.542 29.8963V27.6657H173.116V25.7018H178.208V30.8649Z" fill="white"/>
<path d="M179.808 27.6035C179.808 26.6497 179.992 25.7995 180.359 25.053C180.726 24.3065 181.254 23.7289 181.941 23.3201C182.634 22.9113 183.437 22.7069 184.349 22.7069C185.647 22.7069 186.704 23.1039 187.522 23.8978C188.345 24.6916 188.804 25.7699 188.899 27.1325L188.917 27.7901C188.917 29.2653 188.505 30.4502 187.682 31.3448C186.858 32.2335 185.753 32.6778 184.367 32.6778C182.981 32.6778 181.873 32.2335 181.043 31.3448C180.22 30.4562 179.808 29.2476 179.808 27.719V27.6035ZM182.376 27.7901C182.376 28.7025 182.548 29.4016 182.892 29.8874C183.235 30.3673 183.727 30.6072 184.367 30.6072C184.989 30.6072 185.475 30.3702 185.824 29.8963C186.174 29.4164 186.349 28.6521 186.349 27.6035C186.349 26.7089 186.174 26.0158 185.824 25.524C185.475 25.0323 184.983 24.7864 184.349 24.7864C183.721 24.7864 183.235 25.0323 182.892 25.524C182.548 26.0098 182.376 26.7652 182.376 27.7901Z" fill="white"/>
<path d="M190.099 27.6035C190.099 26.6497 190.283 25.7995 190.65 25.053C191.017 24.3065 191.544 23.7289 192.232 23.3201C192.925 22.9113 193.728 22.7069 194.64 22.7069C195.938 22.7069 196.995 23.1039 197.813 23.8978C198.636 24.6916 199.095 25.7699 199.19 27.1325L199.208 27.7901C199.208 29.2653 198.796 30.4502 197.973 31.3448C197.149 32.2335 196.044 32.6778 194.658 32.6778C193.271 32.6778 192.164 32.2335 191.334 31.3448C190.511 30.4562 190.099 29.2476 190.099 27.719V27.6035ZM192.667 27.7901C192.667 28.7025 192.839 29.4016 193.183 29.8874C193.526 30.3673 194.018 30.6072 194.658 30.6072C195.28 30.6072 195.766 30.3702 196.115 29.8963C196.465 29.4164 196.64 28.6521 196.64 27.6035C196.64 26.7089 196.465 26.0158 196.115 25.524C195.766 25.0323 195.274 24.7864 194.64 24.7864C194.012 24.7864 193.526 25.0323 193.183 25.524C192.839 26.0098 192.667 26.7652 192.667 27.7901Z" fill="white"/>
<path d="M200.416 27.6213C200.416 26.1461 200.766 24.9582 201.465 24.0577C202.17 23.1572 203.118 22.7069 204.309 22.7069C205.363 22.7069 206.184 23.0683 206.77 23.7911L206.877 22.8847H209.205V32.1802C209.205 33.0215 209.013 33.7531 208.628 34.3752C208.249 34.9973 207.712 35.4712 207.019 35.7971C206.326 36.1229 205.514 36.2858 204.584 36.2858C203.879 36.2858 203.192 36.1437 202.523 35.8593C201.853 35.5808 201.347 35.2194 201.003 34.7751L202.14 33.211C202.78 33.9279 203.556 34.2863 204.469 34.2863C205.15 34.2863 205.68 34.1027 206.059 33.7354C206.439 33.374 206.628 32.8585 206.628 32.1891V31.6736C206.036 32.3431 205.257 32.6778 204.291 32.6778C203.136 32.6778 202.2 32.2276 201.483 31.3271C200.772 30.4206 200.416 29.2209 200.416 27.7279V27.6213ZM202.985 27.8079C202.985 28.6788 203.159 29.3631 203.509 29.8607C203.859 30.3525 204.338 30.5983 204.949 30.5983C205.731 30.5983 206.291 30.3051 206.628 29.7186V25.6751C206.285 25.0886 205.731 24.7953 204.966 24.7953C204.35 24.7953 203.864 25.0471 203.509 25.5507C203.159 26.0543 202.985 26.8067 202.985 27.8079Z" fill="white"/>
<path d="M213.898 32.5001H211.32V18.8501H213.898V32.5001Z" fill="white"/>
<path d="M220.447 32.6778C219.037 32.6778 217.888 32.2453 216.999 31.3804C216.116 30.5154 215.675 29.3631 215.675 27.9234V27.6746C215.675 26.7089 215.862 25.8469 216.235 25.0886C216.608 24.3243 217.135 23.7378 217.817 23.329C218.504 22.9143 219.286 22.7069 220.163 22.7069C221.478 22.7069 222.512 23.1216 223.264 23.9511C224.022 24.7805 224.402 25.9565 224.402 27.4791V28.5277H218.279C218.362 29.1557 218.61 29.6593 219.025 30.0385C219.446 30.4176 219.976 30.6072 220.616 30.6072C221.605 30.6072 222.378 30.2488 222.935 29.5319L224.197 30.9449C223.812 31.49 223.291 31.9165 222.633 32.2246C221.976 32.5268 221.247 32.6778 220.447 32.6778ZM220.154 24.7864C219.644 24.7864 219.23 24.9582 218.91 25.3019C218.596 25.6455 218.394 26.1372 218.305 26.7771H221.878V26.5727C221.866 26.0039 221.712 25.5655 221.416 25.2574C221.119 24.9434 220.699 24.7864 220.154 24.7864Z" fill="white"/>
<defs>
<filter id="filter0_d" x="0.686813" y="0" width="238.626" height="54.6264" filterUnits="userSpaceOnUse" color-interpolation-filters="sRGB">
<feFlood flood-opacity="0" result="BackgroundImageFix"/>
<feColorMatrix in="SourceAlpha" type="matrix" values="0 0 0 0 0 0 0 0 0 0 0 0 0 0 0 0 0 0 127 0"/>
<feOffset dy="1.31319"/>
<feGaussianBlur stdDeviation="0.656593"/>
<feColorMatrix type="matrix" values="0 0 0 0 0 0 0 0 0 0 0 0 0 0 0 0 0 0 0.14 0"/>
<feBlend mode="normal" in2="BackgroundImageFix" result="effect1_dropShadow"/>
<feBlend mode="normal" in="SourceGraphic" in2="effect1_dropShadow" result="shape"/>
</filter>
</defs>
</svg>
