<svg xmlns="http://www.w3.org/2000/svg" width="48" height="49" fill="none" xmlns:v="https://vecta.io/nano"><path fill-rule="evenodd" d="M25.277.409a2.25 2.25 0 0 0-2.555 0l-21.75 15A2.25 2.25 0 0 0 0 17.261v22.5a8.25 8.25 0 0 0 8.25 8.25h31.5a8.25 8.25 0 0 0 8.25-8.25v-22.5a2.25 2.25 0 0 0-.973-1.852l-21.75-15zM4.5 39.761V18.442L24 4.994l19.5 13.448v21.319a3.75 3.75 0 0 1-3.75 3.75h-6.752v-8.253a8.25 8.25 0 0 0-8.25-8.25h-1.5a8.25 8.25 0 0 0-8.25 8.25v8.253H8.25a3.75 3.75 0 0 1-3.75-3.75zm14.998-4.503a3.75 3.75 0 0 1 3.75-3.75h1.5a3.75 3.75 0 0 1 3.75 3.75v8.25h-9v-8.25z" fill="#00b899"/></svg>