<svg xmlns="http://www.w3.org/2000/svg" width="98" height="35" fill="none" xmlns:v="https://vecta.io/nano"><g clip-path="url(#A)"><path d="M.292 34.889h97.235V.111H.292v34.777z" fill="#9d1d27"/><g fill="#fefefe"><path d="M7.579 7.444h19.935v20.044H7.579V7.444zM29.2 5.754H5.906v23.411h23.28V5.754h.013zM9.782 13.553h15.529v-3.9H9.782v3.9zm0 11.712h3.876v-3.913H9.782v3.913zm0-5.856h9.689v-3.913H9.782v3.913zm29.266-8.424v5.044h1.394c1.526 0 1.885-.586 1.885-2.542 0-2.09-.226-2.502-2.057-2.502h-1.221zm1.606-1.318c2.402 0 3.265 1.051 3.265 3.793s-.916 3.873-3.278 3.873h-3.172V9.667h3.185zm-6.238 7.666h1.579V9.667h-1.579v7.666zm10.737-7.666h5.362v1.318H46.72v1.797h3.318V14.1H46.72v3.248h-1.58l.013-7.679zm12.715 5.151c-.106 1.504-.929 2.702-3.292 2.702s-3.464-1.145-3.464-3.966 1.102-4.046 3.464-4.046c1.871 0 3.026.799 3.278 2.555h-1.579c-.186-.679-.398-1.211-1.699-1.211s-1.871.785-1.871 2.835c0 1.597.425 2.489 1.898 2.489 1.062 0 1.553-.333 1.686-1.344h1.579v-.013zm4.194-5.151h5.362v1.318h-3.783v1.797h3.318V14.1h-3.318v3.248h-1.579V9.667zm6.397 7.666h1.579V9.667H68.46v7.666zm4.632-6.349v2.023h1.42c1.261 0 1.699-.133 1.699-1.091 0-.772-.265-.932-1.593-.932h-1.526zm-1.579-1.318h3.318c1.593 0 2.973.04 2.973 2.302 0 1.504-.624 2.05-1.486 2.263l1.991 3.114h-1.924l-1.871-3.021h-1.42v3.021h-1.579V9.667zm8.773 5.257c.066.799.186 1.225 1.699 1.225.796 0 1.38-.12 1.38-.905 0-.466-.212-.732-.889-.905l-1.858-.506c-.929-.253-1.752-.692-1.752-2.103 0-1.105.504-2.263 2.867-2.263s2.947 1.051 2.986 2.422h-1.566c-.08-.639-.106-1.065-1.473-1.065-.796 0-1.208.146-1.208.759 0 .559.332.719.77.838l1.699.466c1.088.293 2.004.719 2.004 2.249 0 2.156-1.845 2.369-2.986 2.369-2.495 0-3.172-.985-3.265-2.582h1.593zm7.353-3.913h-2.296V9.667h6.172v1.344h-2.283v6.322h-1.579v-6.322h-.013zM35.995 25.479v2.023h1.42c1.433 0 1.752-.106 1.752-.985s-.292-1.038-1.447-1.038h-1.725zm0-3.021v1.704h1.765c.942 0 1.181-.12 1.181-.905 0-.639-.146-.799-1.473-.799h-1.473zm2.15-1.318c1.5 0 2.323.532 2.323 1.996 0 1.185-.544 1.437-.876 1.57.942.373 1.168 1.091 1.168 1.89 0 1.264-.571 2.209-2.681 2.209h-3.663v-7.68l3.73.013zm6.981 5.071l-1.035.173c-.571.08-.969.2-.969.799 0 .426.212.665.876.665.903 0 1.128-.492 1.128-1.184v-.453zm-3.318-1.331c.08-1.451.903-1.85 2.416-1.85s2.376.413 2.376 1.65v4.126h-1.407v-.426c-.292.293-.836.572-1.725.572-1.34 0-1.818-.599-1.818-1.557 0-1.251.81-1.73 1.632-1.85l1.858-.293v-.346c0-.532-.265-.679-.956-.679-.73 0-.889.173-.956.652h-1.42zm9.702.692c0-.865-.013-1.318-.956-1.318-1.062 0-1.168.559-1.168 1.89v2.675h-1.473v-5.643h1.407v.732c.398-.546.836-.865 1.871-.865 1.433 0 1.805.626 1.805 2.329v3.447h-1.487v-3.248zm2.907-4.432h1.473v4.126l1.818-2.09h1.818l-1.964 2.143 2.044 3.5h-1.712l-1.367-2.449-.637.665v1.784h-1.486l.013-7.68z"/></g></g><defs><clipPath id="A"><path fill="#fff" transform="translate(.292 .111)" d="M0 0h97.235v34.777H0z"/></clipPath></defs></svg>