<svg width="22" height="22" viewBox="0 0 22 22" fill="none" xmlns="http://www.w3.org/2000/svg">
<path d="M10.0833 16.5H11.9166V14.6667H10.0833V16.5ZM10.9999 1.83334C5.93992 1.83334 1.83325 5.94001 1.83325 11C1.83325 16.06 5.93992 20.1667 10.9999 20.1667C16.0599 20.1667 20.1666 16.06 20.1666 11C20.1666 5.94001 16.0599 1.83334 10.9999 1.83334ZM10.9999 18.83C6.95742 18.83 3.16976 15.0425 3.16976 11C3.16976 6.95751 6.95742 3.17 10.9999 3.17C15.0424 3.17 18.8298 6.95751 18.8298 11C18.8298 15.0425 15.0424 18.83 10.9999 18.83ZM10.9999 5.50001C8.97409 5.50001 7.33325 7.14084 7.33325 9.16668H9.16659C9.16659 8.15834 9.99159 7.33334 10.9999 7.33334C12.0083 7.33334 12.8333 8.15834 12.8333 9.16668C12.8333 11 10.0833 10.7708 10.0833 13.75H11.9166C11.9166 11.6875 14.6666 11.4583 14.6666 9.16668C14.6666 7.14084 13.0258 5.50001 10.9999 5.50001Z" fill="#00B899"/>
</svg>
