<svg xmlns="http://www.w3.org/2000/svg" width="195" height="130" fill="none"  xmlns:v="https://vecta.io/nano"><g clip-path="url(#A)"><rect x="6.842" y="27.368" width="16.421" height="102.632" rx="4.105" fill="#e7e7e7"/><rect x="36.947" width="16.421" height="130" rx="4.105" fill="#00b899"/><g fill="#e7e7e7"><rect x="67.052" y="93.737" width="16.421" height="36.263" rx="4.105"/><rect x="97.158" y="69.105" width="16.421" height="60.895" rx="4.105"/></g><rect y="57.474" width="195" height="2.737" rx="1.368" fill="#646464"/><path d="M137.021 43.158l.731-2.107h3.11l.727 2.107h1.275l-2.865-7.962h-1.388l-2.865 7.962h1.275zm1.081-3.118l1.174-3.398h.062l1.174 3.398h-2.41zm10.178-2.853h-1.248l-1.508 4.595h-.062l-1.512-4.595h-1.248l2.169 5.971h1.244l2.165-5.971zm3.382 8.335c1.521 0 2.695-.696 2.695-2.231v-6.103h-1.14v.968h-.085c-.206-.369-.618-1.046-1.73-1.046-1.442 0-2.504 1.139-2.504 3.04s1.085 2.919 2.496 2.919c1.097 0 1.52-.618 1.73-.999h.074v1.174c0 .937-.641 1.341-1.524 1.341-.968 0-1.345-.486-1.551-.828l-.999.412c.315.731 1.112 1.353 2.538 1.353zm-.011-3.417c-1.038 0-1.579-.797-1.579-1.971 0-1.147.529-2.037 1.579-2.037 1.014 0 1.559.828 1.559 2.037 0 1.232-.556 1.971-1.559 1.971zm5.03 1.127a.78.78 0 0 0 .778-.777c0-.424-.354-.774-.778-.774a.78.78 0 0 0-.777.774c0 .431.35.777.777.777zm9.539-5.944h1.159c-.035-1.275-1.162-2.2-2.78-2.2-1.597 0-2.822.914-2.822 2.286 0 1.108.793 1.757 2.072 2.103l.941.257c.851.226 1.508.505 1.508 1.213 0 .777-.742 1.291-1.765 1.291-.925 0-1.695-.412-1.765-1.279h-1.205c.078 1.442 1.194 2.333 2.978 2.333 1.87 0 2.947-.983 2.947-2.333 0-1.434-1.279-1.99-2.29-2.239l-.778-.202c-.622-.159-1.45-.451-1.446-1.213 0-.676.618-1.178 1.598-1.178.914 0 1.563.428 1.648 1.162zm2.61 8.109h1.162v-3.168h.07c.21.381.638 1.046 1.726 1.046 1.447 0 2.496-1.158 2.496-3.091s-1.065-3.075-2.507-3.075c-1.108 0-1.509.677-1.715 1.046h-.097v-.968h-1.135v8.21zm1.139-5.225c0-1.248.544-2.076 1.559-2.076 1.053 0 1.582.89 1.582 2.076 0 1.197-.544 2.111-1.582 2.111-.999 0-1.559-.855-1.559-2.111zm8.191 3.106c1.302 0 2.224-.642 2.488-1.613l-1.1-.198c-.21.564-.715.851-1.376.851-.995 0-1.664-.645-1.695-1.796h4.245v-.412c0-2.158-1.291-3.001-2.644-3.001-1.663 0-2.76 1.267-2.76 3.102 0 1.854 1.081 3.067 2.842 3.067zm-1.679-3.627c.046-.848.661-1.582 1.605-1.582.902 0 1.493.669 1.497 1.582h-3.102zm6.693-.039c0-.952.583-1.497 1.392-1.497.789 0 1.267.517 1.267 1.384v3.658h1.163V39.36c0-1.477-.813-2.251-2.034-2.251-.898 0-1.485.416-1.761 1.05h-.074v-.972h-1.115v5.971h1.162v-3.546zm7.616 3.662c1.088 0 1.516-.665 1.726-1.046h.097v.929h1.135v-7.962h-1.162v2.959h-.07c-.21-.369-.607-1.046-1.718-1.046-1.443 0-2.504 1.139-2.504 3.075s1.046 3.091 2.496 3.091zm.256-.991c-1.038 0-1.578-.914-1.578-2.111 0-1.186.529-2.076 1.578-2.076 1.015 0 1.559.828 1.559 2.076 0 1.256-.556 2.111-1.559 2.111z" fill="#b9b9b9"/><path d="M141.356 80.951h-1.38c-.069-.428-.219-.811-.448-1.142l1.483.005.354-1.293h-6.424l-.379 1.501h1.827c.938 0 1.487.35 1.711.928h-3.188l-.35 1.273h3.586c-.204.671-.801 1.079-1.759 1.079h-1.681l.005 1.079 3.401 4.092h2.027v-.087l-3.071-3.766.058-.019c1.769-.233 2.634-1.103 2.843-2.376h1.04l.345-1.273zm3.45-5.512l.575 2.012 2.894-.821v11.844h2.361V74.105h-2.053l-3.777 1.334zm7.638 0l.574 2.012 2.895-.821v11.844h2.36V74.105h-2.053l-3.776 1.334zm9.279 10.571l-.821 5.337h1.847l1.437-5.337h-2.463zm13.294-9.894v-2.012h-8.827v2.217h6.015l-3.1 4.085.944 1.416h.534c1.642 0 2.668.883 2.668 2.299s-1.026 2.319-2.668 2.319c-1.457 0-2.381-.616-2.812-1.847l-2.012 1.17c.76 1.95 2.628 2.976 4.824 2.976 1.416 0 2.607-.411 3.572-1.232s1.457-1.95 1.457-3.387c0-2.155-1.437-3.654-3.51-4.146l2.915-3.859zm11.387 2.627c0-1.457-.473-2.627-1.417-3.531-.944-.924-2.155-1.375-3.653-1.375s-2.71.452-3.675 1.375c-.944.903-1.416 2.073-1.416 3.531s.472 2.627 1.416 3.551c.965.903 2.176 1.355 3.675 1.355h.246l-3.284 4.824h2.709l4.536-6.835c.575-.842.863-1.806.863-2.894zm-7.8 0c0-1.622 1.149-2.669 2.73-2.669s2.709 1.047 2.709 2.669-1.129 2.668-2.709 2.668-2.73-1.088-2.73-2.668zm8.578-3.305l.575 2.012 2.894-.821v11.844h2.36V74.105h-2.052l-3.777 1.334z" fill="#333"/></g><defs><clipPath id="A"><path fill="#fff" d="M0 0h195v130H0z"/></clipPath></defs></svg>