<svg xmlns="http://www.w3.org/2000/svg" width="286" height="158" fill="none"  xmlns:v="https://vecta.io/nano"><g clip-path="url(#A)"><path d="M1.205 6.875H4.83V17h1.75V6.875h3.631V5.364H1.205v1.511zm12.558 4.943c0-1.392.881-2.188 2.091-2.188 1.17 0 1.869.744 1.869 2.023V17h1.699v-5.551c0-2.176-1.193-3.29-2.989-3.29-1.358 0-2.176.591-2.585 1.534h-.108v-4.33h-1.676V17h1.699v-5.182zM21.689 17h1.699V8.273h-1.699V17zm.858-10.074c.585 0 1.074-.455 1.074-1.011s-.489-1.017-1.074-1.017c-.591 0-1.074.46-1.074 1.017s.483 1.011 1.074 1.011zm9.666 3.477c-.352-1.358-1.415-2.244-3.301-2.244-1.972 0-3.369 1.04-3.369 2.585 0 1.239.75 2.063 2.386 2.426l1.477.324c.841.188 1.233.563 1.233 1.108 0 .676-.722 1.205-1.835 1.205-1.017 0-1.67-.437-1.875-1.295l-1.642.25c.284 1.545 1.568 2.415 3.528 2.415 2.108 0 3.568-1.119 3.568-2.699 0-1.233-.784-1.994-2.386-2.364l-1.386-.318c-.96-.227-1.375-.551-1.369-1.142-.006-.67.722-1.148 1.688-1.148 1.057 0 1.545.585 1.744 1.17l1.54-.273zm5.511-5.04l4.222 7.068V17h1.75v-4.568l4.222-7.068h-1.994l-3.04 5.29h-.125l-3.04-5.29h-1.994zm14.054 11.812c1.903 0 3.25-.937 3.636-2.358l-1.608-.29c-.307.824-1.045 1.244-2.011 1.244-1.455 0-2.432-.943-2.477-2.625h6.205v-.602c0-3.153-1.886-4.386-3.864-4.386-2.432 0-4.034 1.852-4.034 4.534 0 2.71 1.58 4.483 4.153 4.483zm-2.454-5.301c.068-1.239.966-2.312 2.347-2.312 1.318 0 2.182.977 2.188 2.313h-4.534zm10.624 5.318c1.443 0 2.256-.733 2.58-1.386h.068V17h1.659v-5.796c0-2.54-2-3.045-3.386-3.045-1.579 0-3.034.636-3.602 2.227l1.597.364c.25-.619.886-1.216 2.028-1.216 1.097 0 1.659.574 1.659 1.563v.04c0 .619-.636.608-2.205.79-1.653.193-3.347.625-3.347 2.608 0 1.716 1.29 2.659 2.949 2.659zm.369-1.364c-.96 0-1.653-.432-1.653-1.273 0-.909.807-1.233 1.79-1.364.551-.074 1.858-.222 2.102-.466v1.125c0 1.034-.824 1.977-2.239 1.977zm6.2 1.171h1.699v-5.329c0-1.142.881-1.966 2.085-1.966.352 0 .75.063.886.102V8.182a6.9 6.9 0 0 0-.722-.04c-1.023 0-1.898.58-2.216 1.517h-.091V8.273h-1.642V17z" fill="#00b899"/><path d="M8.977 39.205H7.364c-.08-.5-.256-.949-.523-1.335l1.733.006.415-1.511H1.477l-.443 1.756H3.17c1.097 0 1.739.409 2 1.085H1.443l-.409 1.489h4.193c-.239.784-.937 1.261-2.057 1.261H1.205l.006 1.261L5.188 48h2.369v-.102l-3.591-4.403.068-.023c2.068-.273 3.08-1.29 3.324-2.778h1.216l.403-1.489zm4.035-6.445l.672 2.352 3.384-.96V48h2.76V31.2h-2.4l-4.416 1.56zm8.93 0l.672 2.352 3.384-.96V48h2.76V31.2h-2.4l-4.416 1.56zm10.85 12.36l-.96 6.24h2.16l1.68-6.24h-2.88zm15.543-11.568V31.2h-10.32v2.592h7.032l-3.624 4.776 1.104 1.656h.624c1.92 0 3.12 1.032 3.12 2.688s-1.2 2.712-3.12 2.712c-1.704 0-2.784-.72-3.288-2.16l-2.352 1.368c.888 2.28 3.072 3.48 5.64 3.48 1.656 0 3.048-.48 4.176-1.44s1.704-2.28 1.704-3.96c0-2.52-1.68-4.272-4.104-4.848l3.408-4.512zm13.314 3.072c0-1.704-.552-3.072-1.656-4.128-1.104-1.08-2.52-1.608-4.272-1.608s-3.168.528-4.296 1.608c-1.104 1.056-1.656 2.424-1.656 4.128s.552 3.072 1.656 4.152c1.128 1.056 2.544 1.584 4.296 1.584h.288L52.169 48h3.168l5.304-7.992c.672-.984 1.008-2.112 1.008-3.384zm-9.12 0c0-1.896 1.344-3.12 3.192-3.12s3.168 1.224 3.168 3.12-1.32 3.12-3.168 3.12-3.192-1.272-3.192-3.12zm10.03-3.864l.672 2.352 3.384-.96V48h2.76V31.2h-2.4l-4.416 1.56z" fill="#333"/><path d="M145.261 17l1.069-3.079h4.545L151.938 17h1.863l-4.187-11.636h-2.029L143.398 17h1.863zm1.58-4.557l1.716-4.966h.091l1.716 4.966h-3.523zm14.876-4.17h-1.824l-2.204 6.716h-.091l-2.21-6.716h-1.824l3.17 8.727h1.819l3.164-8.727zm5.046 8.903c1.903 0 3.25-.937 3.636-2.358l-1.608-.29c-.307.824-1.045 1.244-2.011 1.244-1.455 0-2.432-.943-2.477-2.625h6.204v-.602c0-3.153-1.886-4.386-3.864-4.386-2.431 0-4.034 1.852-4.034 4.534 0 2.71 1.58 4.483 4.154 4.483zm-2.455-5.301c.068-1.239.966-2.312 2.347-2.312 1.318 0 2.182.977 2.187 2.313h-4.534zM172.392 17h1.699v-5.329c0-1.142.881-1.966 2.085-1.966a4.01 4.01 0 0 1 .886.102V8.182a6.88 6.88 0 0 0-.721-.04c-1.023 0-1.898.58-2.216 1.517h-.091V8.273h-1.642V17zm8.602.193c1.444 0 2.256-.733 2.58-1.386h.068V17h1.659v-5.796c0-2.54-2-3.045-3.386-3.045-1.58 0-3.034.636-3.603 2.227l1.597.364c.25-.619.886-1.216 2.029-1.216 1.096 0 1.659.574 1.659 1.563v.04c0 .619-.637.608-2.205.79-1.653.193-3.347.625-3.347 2.608 0 1.716 1.29 2.659 2.949 2.659zm.37-1.364c-.961 0-1.654-.432-1.654-1.273 0-.909.807-1.233 1.79-1.364.551-.074 1.858-.222 2.102-.466v1.125c0 1.034-.824 1.977-2.238 1.977zm9.859 4.625c2.222 0 3.938-1.017 3.938-3.261v-8.92h-1.665v1.415h-.125c-.301-.54-.904-1.528-2.529-1.528-2.108 0-3.659 1.665-3.659 4.443 0 2.784 1.585 4.267 3.648 4.267 1.602 0 2.222-.903 2.528-1.46h.108v1.716c0 1.369-.937 1.96-2.227 1.96-1.415 0-1.966-.71-2.267-1.21l-1.46.602c.46 1.068 1.625 1.977 3.71 1.977zm-.017-4.994c-1.517 0-2.307-1.165-2.307-2.881 0-1.676.773-2.977 2.307-2.977 1.483 0 2.278 1.21 2.278 2.977 0 1.801-.812 2.881-2.278 2.881zm9.994 1.716c1.904 0 3.25-.937 3.637-2.358l-1.608-.29c-.307.824-1.046 1.244-2.012 1.244-1.454 0-2.431-.943-2.477-2.625h6.205v-.602c0-3.153-1.887-4.386-3.864-4.386-2.432 0-4.034 1.852-4.034 4.534 0 2.71 1.579 4.483 4.153 4.483zm-2.454-5.301c.068-1.239.966-2.312 2.346-2.312 1.319 0 2.182.977 2.188 2.313h-4.534z" fill="#b9b9b9"/><path d="M151.477 39.205h-1.613a3.22 3.22 0 0 0-.523-1.335l1.733.006.415-1.511h-7.512l-.443 1.756h2.136c1.097 0 1.739.409 2 1.085h-3.727l-.409 1.489h4.193c-.238.784-.937 1.261-2.057 1.261h-1.965l.005 1.261L147.688 48h2.369v-.102l-3.591-4.403.068-.023c2.068-.273 3.08-1.29 3.324-2.778h1.216l.403-1.489zm4.083-5.364h7.68L157.432 48h2.904l5.904-14.4v-2.4h-10.68v2.64zm10.028 11.28l-.96 6.24h2.16l1.68-6.24h-2.88zM181.516 48v-2.664h-6.96l3.792-3.792c1.896-1.944 2.856-3.768 2.856-5.472 0-1.608-.528-2.856-1.584-3.792s-2.328-1.392-3.792-1.392c-2.328 0-4.368 1.176-5.424 3.408l2.328 1.368c.672-1.392 1.704-2.088 3.12-2.088 1.512 0 2.592.96 2.592 2.592 0 1.032-.72 2.28-2.136 3.696l-5.856 5.976V48h11.064zm12.085-14.448V31.2h-10.32v2.592h7.032l-3.624 4.776 1.104 1.656h.624c1.92 0 3.12 1.032 3.12 2.688s-1.2 2.712-3.12 2.712c-1.704 0-2.784-.72-3.288-2.16l-2.352 1.368c.888 2.28 3.072 3.48 5.64 3.48 1.656 0 3.048-.48 4.176-1.44s1.704-2.28 1.704-3.96c0-2.52-1.68-4.272-4.104-4.848l3.408-4.512zm13.597 8.856V38.04h-2.784v4.368h-5.256l5.784-11.208h-3l-5.784 11.208v2.568h8.256V48h2.784v-3.024h1.92v-2.568h-1.92z" fill="#8d8d8d"/><g fill="#b9b9b9"><path d="M4.14 155.182c.98 0 1.792-.266 2.422-.812s.952-1.33.952-2.338V145.2h-1.61v6.832c0 1.008-.63 1.582-1.75 1.582-.868 0-1.456-.35-1.778-1.036l-1.386.812c.574 1.19 1.624 1.792 3.15 1.792zM17.679 155l-3.542-9.8h-1.932L8.649 155h1.75l.686-1.974h4.172l.686 1.974h1.736zm-4.508-7.91l1.554 4.424h-3.108l1.554-4.424zm11.892 4.76l-4.62-6.65h-1.26v9.8h1.61v-6.65l4.62 6.65h1.26v-9.8h-1.61v6.65zm217.417-6.65v9.8h3.85c1.344 0 2.464-.476 3.346-1.414.896-.952 1.344-2.114 1.344-3.486 0-1.386-.448-2.548-1.344-3.486-.882-.938-2.002-1.414-3.346-1.414h-3.85zm1.61 8.26v-6.72h2.24c.924 0 1.68.322 2.254.952.588.63.882 1.428.882 2.408 0 .966-.294 1.778-.882 2.408-.574.63-1.33.952-2.254.952h-2.24zm10.458-2.646h3.92v-1.526h-3.92v-2.548h4.27v-1.54h-5.88v9.8h5.95v-1.54h-4.34v-2.646zm10.816 4.368c.896 0 1.722-.21 2.464-.63.756-.434 1.344-1.008 1.75-1.722l-1.4-.798c-.504.966-1.582 1.582-2.814 1.582-1.05 0-1.89-.336-2.548-.994-.644-.658-.966-1.498-.966-2.52s.322-1.862.966-2.52c.658-.658 1.498-.994 2.548-.994 1.232 0 2.296.616 2.814 1.582l1.4-.812c-.84-1.442-2.436-2.338-4.214-2.338-1.47 0-2.702.49-3.668 1.47-.966.966-1.456 2.17-1.456 3.612s.49 2.646 1.456 3.626c.966.966 2.198 1.456 3.668 1.456zM1.747 138.175a1.5 1.5 0 1 0 2.506 1.65l-2.506-1.65zM70.5 120l-.127-1.495-.055.006L70.5 120zm15.197-1.29v-1.5h-.064l-.063.006.127 1.494zm32.066 0v1.5h.048l.048-.003-.096-1.497zm27.003-1.739l.096 1.497.04-.003.039-.004-.175-1.49zm29.534-3.478l-.152-1.493-.011.002-.012.001.175 1.49zm22.784-2.319l.152 1.492.063-.006.061-.012-.276-1.474zm27.847-5.217l.276 1.474.068-.013.066-.019-.41-1.442zM256 100.5a1.5 1.5 0 1 0 0-3v3zm-7.536-1.233l.41 1.443-.41-1.443zM44.859 122.759l-.31 1.467.31-1.467zm2.3.099l-.182-1.489.182 1.489zM4.253 139.825l11.875-18.041-2.506-1.65-11.875 18.041 2.506 1.65zm17.607-20.398l22.688 4.799.621-2.935-22.688-4.799-.621 2.935zm25.48 4.92l23.342-2.858-.365-2.978-23.342 2.858.365 2.978zm23.287-2.852l15.197-1.29-.254-2.989-15.197 1.289.254 2.99zm15.07-1.285h32.066v-3H85.697v3zm32.162-.003l27.003-1.739-.193-2.994-27.003 1.739.193 2.994zm27.082-1.746l29.535-3.479-.351-2.979-29.535 3.478.351 2.98zm29.511-3.476l22.784-2.319-.304-2.984L174.148 112l.304 2.985zm22.908-2.337l27.847-5.217-.552-2.949-27.847 5.218.552 2.948zm27.981-5.249l23.533-6.689-.82-2.886-23.533 6.69.82 2.885zm25.037-6.899H256v-3h-5.622v3zm-1.504.21a5.5 5.5 0 0 1 1.504-.21v-3a8.5 8.5 0 0 0-2.324.324l.82 2.886zM44.548 124.226c.918.194 1.861.235 2.792.121l-.365-2.978c-.602.074-1.213.048-1.807-.078l-.621 2.935zm-28.42-2.442a5.5 5.5 0 0 1 5.732-2.357l.621-2.935a8.5 8.5 0 0 0-8.859 3.642l2.506 1.65z"/></g><path d="M2.073 137.821a1.5 1.5 0 0 0-.253 2.106 1.5 1.5 0 0 0 2.106.252l-1.853-2.358zM29 123.5l.527 1.404.049-.018.047-.022L29 123.5zm19.06-8.703l-.445-1.433-.091.029-.087.039.623 1.365zm44.225-5.187v1.5h.084l.083-.009-.167-1.491zm30.874-3.457l.167 1.49.057-.006.057-.011-.281-1.473zm131.789-32.501a1.5 1.5 0 1 0 .104-2.998l-.104 2.998zm-37.508-.934l.57 1.387-.57-1.387zm-49.463 12.475l.932 1.175-.932-1.175zm-22.31 16.671l-.281-1.473.281 1.473zm3.039-1.391l-.932-1.175.932 1.175zm43.32-17.32l-.57-1.388.57 1.388zM63.734 109.926l-.445-1.433.445 1.433zM16.148 128.67l.927 1.179-.927-1.179zm1.867-1.051l-.527-1.404.527 1.404zm-14.088 12.56l13.148-10.33-1.854-2.359-13.148 10.331 1.853 2.358zm14.615-11.155l10.985-4.12-1.053-2.808-10.985 4.119 1.053 2.809zm11.082-4.16l19.06-8.703-1.246-2.729-19.06 8.704 1.246 2.728zm18.882-8.635l15.674-4.871-.89-2.865-15.674 4.871.89 2.865zm17.306-5.119h26.474v-3H65.811v3zm26.641-.009l30.874-3.458-.334-2.981-30.874 3.457.334 2.982zm30.988-3.475l22.508-4.288-.562-2.947-22.508 4.288.562 2.947zm26.198-5.978l19.271-15.28-1.864-2.351-19.271 15.28 1.864 2.35zm22.688-16.47h17.041v-3h-17.041v3zm20.27-.637l25.414-10.436-1.14-2.775-25.414 10.436 1.14 2.775zm33.494-11.886l28.858.996.104-2.998-28.859-.997-.103 2.998zm-8.08 1.45a19.5 19.5 0 0 1 8.08-1.45l.103-2.998a22.5 22.5 0 0 0-9.323 1.673l1.14 2.775zm-49.101 12.263a5.5 5.5 0 0 1 3.417-1.19v-3c-1.918 0-3.779.648-5.281 1.84l1.864 2.351zm-22.961 16.97c1.348-.257 2.614-.837 3.69-1.69l-1.864-2.35c-.696.552-1.515.927-2.388 1.093l.562 2.947zm43.419-18.16c1.108 0 2.204-.216 3.229-.637l-1.14-2.775a5.5 5.5 0 0 1-2.089.412v3zm-125.188 26.18a5.51 5.51 0 0 1 1.632-.248v-3c-.855 0-1.706.129-2.523.383l.89 2.865zm-47.104 18.491c.444-.349.938-.627 1.467-.825l-1.053-2.809a8.49 8.49 0 0 0-2.267 1.275l1.854 2.359z" fill="#00b899"/><path stroke="#e7e7e7" stroke-linecap="round" stroke-linejoin="round" stroke-dasharray="6 5" d="M256 63.5v70"/><circle cx="256" cy="72.25" r="2.5" fill="#00b899"/><circle cx="256.5" cy="99" r="2.5" fill="#b9b9b9"/></g><defs><clipPath id="A"><path fill="#fff" transform="translate(.5)" d="M0 0h285v158H0z"/></clipPath></defs></svg>