<svg width="39" height="32" fill="none" xmlns="http://www.w3.org/2000/svg"><path fill-rule="evenodd" clip-rule="evenodd" d="M19.108 4.828c-3.063 0-3.448.013-4.65.068-1.201.054-2.02.242-2.738.519a5.528 5.528 0 00-1.997 1.288A5.479 5.479 0 008.42 8.68c-.28.71-.47 1.523-.524 2.712-.054 1.191-.068 1.572-.068 4.606s.014 3.413.068 4.605c.055 1.19.246 2.001.524 2.711a5.47 5.47 0 001.3 1.98 5.53 5.53 0 001.998 1.288c.717.277 1.537.465 2.738.52 1.202.054 1.587.067 4.649.067 3.063 0 3.446-.013 4.65-.068 1.2-.054 2.02-.242 2.738-.518a5.525 5.525 0 001.996-1.29 5.479 5.479 0 001.302-1.979c.277-.71.467-1.522.524-2.71.054-1.192.068-1.572.068-4.606s-.014-3.415-.068-4.606c-.057-1.19-.247-2.001-.524-2.711a5.477 5.477 0 00-1.302-1.98 5.517 5.517 0 00-1.997-1.287c-.719-.277-1.539-.465-2.74-.52-1.202-.054-1.585-.067-4.65-.067h.005zm-1.012 2.015h1.011c3.012 0 3.368.01 4.558.064 1.099.05 1.696.232 2.093.385.527.202.902.444 1.296.835.395.391.64.763.844 1.285.154.393.338.984.389 2.073.054 1.178.065 1.532.065 4.513s-.011 3.335-.066 4.513c-.05 1.089-.234 1.68-.388 2.073a3.45 3.45 0 01-.844 1.283 3.49 3.49 0 01-1.296.836c-.397.153-.994.335-2.093.385-1.19.053-1.546.065-4.558.065-3.01 0-3.368-.012-4.557-.065-1.1-.05-1.696-.233-2.094-.385a3.498 3.498 0 01-1.297-.836 3.46 3.46 0 01-.844-1.284c-.154-.393-.338-.984-.388-2.073-.054-1.178-.065-1.532-.065-4.515 0-2.983.011-3.335.065-4.512.05-1.09.234-1.68.389-2.075.204-.52.449-.893.843-1.284.395-.391.771-.633 1.297-.836.398-.154.995-.335 2.094-.385 1.04-.047 1.444-.06 3.546-.063v.003zm7.031 1.853c-.747 0-1.353.6-1.353 1.34 0 .74.606 1.34 1.353 1.34.748 0 1.354-.6 1.354-1.34 0-.74-.606-1.34-1.354-1.34zm-6.02 1.566c-3.198 0-5.79 2.569-5.79 5.737s2.592 5.736 5.79 5.736c3.199 0 5.791-2.568 5.791-5.736 0-3.168-2.592-5.737-5.79-5.737zm0 2.015c2.077 0 3.76 1.667 3.76 3.724 0 2.056-1.683 3.724-3.76 3.724-2.075 0-3.758-1.668-3.758-3.724 0-2.057 1.683-3.724 3.759-3.724z" fill="#fff"/></svg>