<svg width="36" height="36" fill="none" xmlns="http://www.w3.org/2000/svg"><path fill-rule="evenodd" clip-rule="evenodd" d="M18.166.72c-4.738 0-5.332.02-7.193.105-1.857.084-3.125.375-4.234.802A8.551 8.551 0 003.65 3.62a8.475 8.475 0 00-2.014 3.06c-.432 1.1-.726 2.356-.81 4.195C.742 12.718.72 13.307.72 18s.021 5.28.105 7.123c.086 1.84.38 3.096.81 4.194a8.459 8.459 0 002.013 3.062 8.55 8.55 0 003.089 1.994c1.11.427 2.378.719 4.235.803 1.86.084 2.455.104 7.192.104 4.738 0 5.33-.02 7.192-.104 1.857-.084 3.126-.376 4.236-.803a8.543 8.543 0 003.088-1.994 8.475 8.475 0 002.013-3.061c.43-1.1.724-2.355.81-4.194.084-1.843.106-2.43.106-7.124 0-4.693-.022-5.282-.105-7.125-.087-1.84-.382-3.095-.81-4.194A8.474 8.474 0 0032.68 3.62a8.535 8.535 0 00-3.09-1.993C28.48 1.2 27.21.91 25.354.825 23.493.74 22.9.72 18.161.72h.005zm-1.565 3.114h1.565c4.658 0 5.21.017 7.05.1 1.7.077 2.623.358 3.238.595A5.4 5.4 0 0130.46 5.82c.61.605.989 1.181 1.305 1.987.24.609.524 1.523.601 3.208.084 1.822.102 2.369.102 6.98 0 4.612-.018 5.16-.102 6.98-.078 1.686-.362 2.6-.6 3.208a5.339 5.339 0 01-1.306 1.985 5.4 5.4 0 01-2.005 1.293c-.614.237-1.538.518-3.239.595-1.839.083-2.391.101-7.049.101s-5.21-.018-7.049-.1c-1.7-.078-2.624-.36-3.24-.597a5.409 5.409 0 01-2.005-1.292 5.351 5.351 0 01-1.306-1.986c-.239-.608-.523-1.523-.6-3.208-.084-1.821-.1-2.369-.1-6.983 0-4.614.016-5.159.1-6.98.077-1.685.361-2.6.6-3.209a5.35 5.35 0 011.306-1.987 5.42 5.42 0 012.006-1.293c.615-.238 1.538-.518 3.24-.596 1.608-.072 2.232-.093 5.483-.097v.004zm10.877 2.87a2.083 2.083 0 00-2.093 2.073c0 1.144.937 2.073 2.093 2.073a2.084 2.084 0 002.093-2.073 2.084 2.084 0 00-2.093-2.074zm-9.312 2.422C13.22 9.126 9.208 13.1 9.208 18c0 4.9 4.01 8.872 8.958 8.872s8.957-3.971 8.957-8.872c0-4.9-4.01-8.874-8.957-8.874zm0 3.114c3.212 0 5.815 2.579 5.815 5.76 0 3.181-2.604 5.76-5.815 5.76-3.211 0-5.815-2.579-5.815-5.76 0-3.181 2.604-5.76 5.815-5.76z" fill="#424242"/></svg>