<svg xmlns="http://www.w3.org/2000/svg" width="24" height="24" fill="none" xmlns:v="https://vecta.io/nano"><g clip-path="url(#A)" fill="#8d8d8d"><path d="M17.377 0H6.623C2.971 0 0 2.971 0 6.623v10.754C0 21.029 2.971 24 6.623 24h10.754C21.029 24 24 21.029 24 17.377V6.623C24 2.971 21.029 0 17.377 0zm4.494 17.377a4.5 4.5 0 0 1-4.494 4.494H6.623a4.5 4.5 0 0 1-4.494-4.494V6.623a4.5 4.5 0 0 1 4.494-4.494h10.754a4.5 4.5 0 0 1 4.494 4.494v10.754h0zm-9.87-11.561c-3.41 0-6.184 2.774-6.184 6.184s2.774 6.184 6.184 6.184S18.185 15.41 18.185 12s-2.774-6.184-6.184-6.184zm0 10.238A4.06 4.06 0 0 1 7.946 12a4.06 4.06 0 0 1 4.055-4.055A4.06 4.06 0 0 1 16.055 12 4.06 4.06 0 0 1 12 16.054zm6.443-12.043a1.57 1.57 0 0 0-1.562 1.562c0 .41.168.813.459 1.104a1.57 1.57 0 0 0 1.103.457 1.58 1.58 0 0 0 1.104-.457 1.57 1.57 0 0 0 .457-1.104 1.57 1.57 0 0 0-1.561-1.562z"/></g><defs><clipPath id="A"><path fill="#fff" d="M0 0h24v24H0z"/></clipPath></defs></svg>