<svg width="32" height="32" viewBox="0 0 32 32" fill="none" xmlns="http://www.w3.org/2000/svg">
<path fill-rule="evenodd" clip-rule="evenodd" d="M16.3129 2.56738C12.5801 2.56738 12.1117 2.58355 10.6456 2.64964C9.18242 2.71601 8.18367 2.94547 7.30976 3.28215C6.40578 3.62988 5.63896 4.09505 4.875 4.85207C4.11047 5.60882 3.64087 6.36839 3.28867 7.26355C2.94793 8.12949 2.71599 9.1191 2.65014 10.5679C2.58456 12.0201 2.56738 12.4844 2.56738 16.1819C2.56738 19.8794 2.58399 20.342 2.65042 21.7942C2.71771 23.2436 2.94936 24.2329 3.28896 25.0986C3.6403 25.994 4.1099 26.7536 4.87414 27.5104C5.63781 28.2677 6.40463 28.734 7.30804 29.0817C8.18252 29.4184 9.18156 29.6479 10.6445 29.7142C12.1105 29.7803 12.5787 29.7965 16.3112 29.7965C20.0442 29.7965 20.5112 29.7803 21.9773 29.7142C23.4405 29.6479 24.4404 29.4184 25.3149 29.0817C26.2185 28.734 26.9842 28.2677 27.7479 27.5104C28.5124 26.7536 28.982 25.994 29.3342 25.0989C29.6721 24.2329 29.904 23.2433 29.9728 21.7945C30.0386 20.3423 30.0558 19.8794 30.0558 16.1819C30.0558 12.4844 30.0386 12.0204 29.9728 10.5682C29.904 9.11882 29.6721 8.12949 29.3342 7.26383C28.982 6.36839 28.5124 5.60882 27.7479 4.85207C26.9834 4.09476 26.2188 3.6296 25.314 3.28215C24.4378 2.94547 23.4385 2.71601 21.9753 2.64964C20.5092 2.58355 20.0425 2.56738 16.3086 2.56738H16.3129ZM15.0801 5.02085C15.446 5.02028 15.8544 5.02085 16.3131 5.02085C19.9828 5.02085 20.4178 5.0339 21.8669 5.09913C23.207 5.15983 23.9343 5.38163 24.4188 5.56798C25.0602 5.81475 25.5175 6.10973 25.9983 6.58624C26.4793 7.06275 26.7771 7.51656 27.0268 8.15191C27.2149 8.63126 27.4391 9.35169 27.5001 10.6791C27.566 12.1143 27.5803 12.5454 27.5803 16.1788C27.5803 19.8122 27.566 20.2433 27.5001 21.6785C27.4388 23.0059 27.2149 23.7264 27.0268 24.2057C26.7777 24.8411 26.4793 25.2935 25.9983 25.7697C25.5172 26.2462 25.0605 26.5412 24.4188 26.788C23.9349 26.9752 23.207 27.1964 21.8669 27.2571C20.4181 27.3223 19.9828 27.3365 16.3131 27.3365C12.6431 27.3365 12.2081 27.3223 10.7592 27.2571C9.41914 27.1958 8.69184 26.974 8.20706 26.7877C7.56566 26.5409 7.10752 26.2459 6.62646 25.7694C6.14541 25.2929 5.84762 24.8402 5.59793 24.2046C5.4098 23.7252 5.1856 23.0048 5.12461 21.6774C5.05875 20.2422 5.04558 19.8111 5.04558 16.1754C5.04558 12.5398 5.05875 12.1109 5.12461 10.6757C5.18588 9.34829 5.4098 8.62785 5.59793 8.14794C5.84704 7.51259 6.14541 7.05878 6.62646 6.58227C7.10752 6.10576 7.56566 5.81078 8.20706 5.56344C8.69155 5.37624 9.41914 5.15501 10.7592 5.09403C12.0271 5.0373 12.5185 5.02028 15.0801 5.01744V5.02085ZM23.6496 7.28153C22.7391 7.28153 22.0003 8.01246 22.0003 8.91471C22.0003 9.81667 22.7391 10.5485 23.6496 10.5485C24.5602 10.5485 25.299 9.81667 25.299 8.91471C25.299 8.01274 24.5602 7.28096 23.6496 7.28096V7.28153ZM16.3128 9.18959C12.4148 9.18959 9.25451 12.3201 9.25451 16.1812C9.25451 20.0424 12.4148 23.1714 16.3128 23.1714C20.2108 23.1714 23.37 20.0424 23.37 16.1812C23.37 12.3201 20.2105 9.18959 16.3125 9.18959H16.3128ZM16.3128 11.6435C18.8429 11.6435 20.8943 13.6752 20.8943 16.1817C20.8943 18.6879 18.8429 20.7199 16.3128 20.7199C13.7824 20.7199 11.7314 18.6879 11.7314 16.1817C11.7314 13.6752 13.7824 11.6435 16.3128 11.6435V11.6435Z" fill="white"/>
</svg>
