<svg width="182" height="72" viewBox="0 0 182 72" fill="none" xmlns="http://www.w3.org/2000/svg">
<rect width="182" height="72" rx="12" fill="#E7E7E7"/>
<path fill-rule="evenodd" clip-rule="evenodd" d="M39.8627 16.8688C39.9971 18.8844 39.1908 20.7656 38.1158 22.2438C36.9064 23.5875 35.0252 24.6625 33.2783 24.5281C33.0096 22.6469 33.9502 20.6313 35.0252 19.4219C36.1002 17.9438 38.2502 17.0031 39.8627 16.8688ZM45.7961 28.3732C45.1731 28.8062 42.2813 30.8165 42.2813 34.6063C42.2813 39.0579 45.8362 40.8164 46.6766 41.2322C46.7749 41.2807 46.836 41.311 46.8501 41.3251C46.8501 41.4594 46.1782 43.7438 44.5657 46.0282C43.2219 48.0438 41.7438 50.0594 39.4594 50.0594C38.349 50.0594 37.6196 49.7419 36.8699 49.4156C36.0773 49.0706 35.2621 48.7157 33.9501 48.7157C32.5659 48.7157 31.6952 49.0711 30.8454 49.4181C30.1278 49.711 29.4251 49.9979 28.4407 50.0594C26.3473 50.1903 24.7635 48.0281 23.3172 46.0536C23.278 46.0002 23.239 45.9469 23.2001 45.8938C20.3782 41.7282 18.2282 34.2032 21.1844 29.0969C22.6626 26.5438 25.2157 24.9313 28.0376 24.9313C29.2383 24.9313 30.3971 25.3923 31.4204 25.7994C32.2294 26.1213 32.9536 26.4094 33.5469 26.4094C34.0051 26.4094 34.6562 26.1587 35.427 25.8618C36.6908 25.3751 38.2767 24.7644 39.8626 24.9313C40.9376 25.0657 43.8938 25.4688 45.9094 28.2907C45.8973 28.3028 45.8579 28.3302 45.7961 28.3732Z" fill="#383838"/>
<path fill-rule="evenodd" clip-rule="evenodd" d="M111.776 41.5302C112.642 40.6634 113.138 39.549 113.138 38.1869C113.138 37.0724 112.766 36.2057 112.395 35.5865C111.652 34.8436 110.661 34.1006 109.299 33.6053L109.102 33.5179L109.102 33.5179C108.083 33.0657 107.296 32.7164 106.946 32.3671C106.451 31.8718 106.203 31.3764 106.203 30.7573C106.203 30.1382 106.451 29.6429 106.823 29.2714C107.318 28.8999 108.061 28.6523 108.928 28.6523C110.166 28.6523 111.156 28.8999 112.023 29.3952L112.642 27.2902C111.652 26.7949 110.537 26.5472 109.051 26.5472C107.318 26.5472 106.08 26.9187 105.089 27.7855C104.098 28.6523 103.603 29.6429 103.603 31.005C103.603 32.9862 104.965 34.5959 107.813 35.5865C108.804 35.958 109.547 36.3295 110.042 36.8248C110.413 37.1963 110.661 37.8154 110.661 38.4345C110.661 39.1775 110.413 39.6728 109.918 40.1681C109.423 40.5396 108.68 40.7872 107.689 40.7872C106.327 40.7872 105.089 40.4157 103.975 39.7966L103.355 41.9016C104.346 42.5208 105.708 42.8922 107.442 42.8922C109.299 42.8922 110.785 42.5208 111.776 41.5302ZM69.0553 42.6446H71.7794L66.8264 26.6711H63.6069L58.4062 42.6446H61.0066L62.3687 37.9393H67.5694L69.0553 42.6446ZM65.712 31.748L67.0741 35.958H62.7402L64.1022 31.748C64.4737 30.5097 64.7214 29.3953 64.8452 28.7762C65.1754 29.7668 65.3955 30.5923 65.5423 31.1426L65.5423 31.1426C65.6157 31.4178 65.6707 31.6241 65.712 31.748ZM83.4187 41.5302C84.5332 40.2919 85.0285 38.806 85.0285 36.8248C85.0285 34.9674 84.5332 33.6053 83.4187 32.6147C82.552 31.5003 81.4375 31.005 80.0754 31.005C78.3419 31.005 77.1036 31.748 76.2368 33.11L76.113 31.2526H73.8842C74.008 32.6147 74.008 33.853 74.008 35.0912V47.4738H76.6083V41.4064C77.2275 42.5208 78.3419 43.0161 79.8278 43.0161C81.3137 43.0161 82.4281 42.5208 83.4187 41.5302ZM81.6852 34.1006C82.1805 34.7198 82.4281 35.7104 82.4281 36.8248C82.4281 38.0631 82.1805 39.0537 81.5614 39.7966C81.0661 40.5396 80.3231 40.9111 79.3325 40.9111C78.5895 40.9111 77.8466 40.6634 77.3513 40.0443C76.856 39.4251 76.6083 38.806 76.6083 37.9392V35.958C76.6083 35.8342 76.6083 35.5865 76.7322 35.2151C76.856 34.5959 77.2275 33.9768 77.7228 33.6053C78.2181 33.2339 78.8372 32.9862 79.4563 32.9862C80.4469 32.9862 81.1899 33.3577 81.6852 34.1006ZM98.2781 36.8248C98.2781 38.806 97.7828 40.2919 96.6684 41.5302C95.6778 42.5208 94.5633 43.0161 93.0774 43.0161C91.5915 43.0161 90.4771 42.5208 89.8579 41.4064V47.4738H87.2576V35.0912V35.0912C87.2576 33.8529 87.2576 32.6147 87.1338 31.2526H89.3626L89.4865 33.11C90.3533 31.748 91.5915 31.005 93.3251 31.005C94.6872 31.005 95.8016 31.5003 96.6684 32.6147C97.7828 33.6053 98.2781 34.9674 98.2781 36.8248ZM95.6778 36.8248C95.6778 35.7104 95.4301 34.7198 94.9348 34.1006C94.4395 33.3577 93.6965 32.9862 92.7059 32.9862C92.0868 32.9862 91.4677 33.2339 90.9724 33.6053C90.4771 33.9768 90.1056 34.5959 89.9818 35.2151C89.8579 35.5865 89.8579 35.8342 89.8579 35.958V37.9392C89.8579 38.806 90.1056 39.4251 90.6009 40.0443C91.0962 40.6634 91.8392 40.9111 92.5821 40.9111C93.5727 40.9111 94.3157 40.5396 94.811 39.7966C95.4301 39.0537 95.6778 38.0631 95.6778 36.8248ZM121.558 33.11H118.71V38.6821C118.71 40.0442 119.205 40.7872 120.196 40.7872C120.691 40.7872 121.062 40.7872 121.31 40.6633L121.434 42.6445C120.939 42.8922 120.319 42.8922 119.453 42.8922C118.462 42.8922 117.595 42.6445 117.1 42.0254C116.481 41.4063 116.233 40.4157 116.233 38.9298V33.11H114.5V31.1287H116.233V29.0237L118.71 28.2807V31.1287H121.558V33.11ZM132.825 41.1587C133.816 40.0442 134.311 38.5583 134.311 36.8248C134.311 35.0912 133.816 33.7291 132.949 32.6147C131.959 31.5003 130.596 30.8811 128.863 30.8811C127.129 30.8811 125.643 31.5003 124.653 32.6147C123.538 33.7291 123.043 35.215 123.043 36.9486C123.043 38.6821 123.538 40.0442 124.529 41.1587C125.52 42.2731 126.882 42.8922 128.615 42.8922C130.349 42.8922 131.711 42.2731 132.825 41.1587ZM130.844 34.2244C131.339 34.9674 131.587 35.8342 131.587 36.9486C131.587 37.9392 131.339 38.9298 130.844 39.6728C130.225 40.5395 129.482 41.0348 128.491 41.0348C127.501 41.0348 126.634 40.5395 126.139 39.6728C125.643 38.9298 125.396 38.063 125.396 36.9486C125.396 35.958 125.643 34.9674 126.139 34.2244C126.634 33.3576 127.501 32.8623 128.491 32.8623C129.482 32.8623 130.349 33.3576 130.844 34.2244ZM142.608 33.3577C142.567 33.3577 142.526 33.3543 142.484 33.3486V30.7574H141.865C141.246 30.7574 140.627 31.005 140.007 31.3765C139.512 31.8718 139.017 32.4909 138.769 33.2339H138.645L138.522 31.005H136.293C136.417 32.1194 136.417 33.2337 136.417 34.5957V34.596V42.5208H139.017V36.4534C139.017 35.5866 139.265 34.8436 139.636 34.2245C140.131 33.6054 140.874 33.2339 141.741 33.2339C141.946 33.2339 142.113 33.2714 142.263 33.3051C142.34 33.3225 142.413 33.3389 142.484 33.3486V33.3577H142.608ZM154 36.3296V36.3295C154 34.9674 153.753 33.7291 152.886 32.7385C152.143 31.5003 150.781 30.8811 149.171 30.8811C147.437 30.8811 146.075 31.5003 145.085 32.7385C144.218 33.8529 143.723 35.3389 143.723 37.0724C143.723 38.806 144.218 40.2919 145.209 41.2825C146.199 42.3969 147.685 42.8922 149.419 42.8922C150.905 42.8922 152.143 42.6446 153.257 42.1493L152.886 40.4157C152.019 40.7872 150.905 40.911 149.79 40.911C148.8 40.911 147.933 40.5395 147.314 40.0442C146.571 39.4251 146.199 38.5583 146.199 37.4439H153.876C154 37.1963 154 36.8249 154 36.3296ZM151.646 35.5865C151.633 34.8979 151.503 34.3135 151.152 33.7291C150.657 32.9862 150.038 32.6147 149.171 32.6147C148.304 32.6147 147.685 32.9862 147.19 33.6053C146.818 34.1006 146.571 34.8436 146.447 35.5865H151.646Z" fill="#383838"/>
</svg>
