<svg width="60" height="61" viewBox="0 0 60 61" fill="none" xmlns="http://www.w3.org/2000/svg">
<ellipse cx="30.3137" cy="30.4558" rx="29.5793" ry="29.6111" fill="#EAD8A3"/>
<path fill-rule="evenodd" clip-rule="evenodd" d="M11.1406 29.6887C11.1406 20.5726 19.7233 13.1832 30.3121 13.1832C40.9015 13.1832 49.4842 20.5726 49.4842 29.6887C49.4842 38.8059 40.9015 46.1959 30.3121 46.1959C19.7233 46.1959 11.1406 38.8059 11.1406 29.6887Z" fill="#1F4578"/>
<path fill-rule="evenodd" clip-rule="evenodd" d="M27.9847 18.4825L32.438 17.0091L32.4599 41.1147L27.9688 42.6212L27.9847 18.4825Z" fill="#ED3338"/>
<path fill-rule="evenodd" clip-rule="evenodd" d="M30.6284 33.517C28.6926 35.8516 26.8218 38.2385 23.3172 38.2385C18.3664 38.2385 16.0215 33.4477 16.0215 29.4424C16.0215 25.5944 17.8555 21.0387 22.6758 21.0387C24.7677 21.0387 26.7834 22.3196 27.9814 23.6735L27.9784 26.9408C26.9769 26.2646 24.7306 25.6013 23.2641 25.5778C20.2065 25.5261 17.5095 26.8523 17.5579 29.8743C17.5893 31.9546 19.6471 33.3698 21.6959 33.3698C24.8339 33.3698 26.7335 30.5004 28.323 28.322C28.7657 27.7535 30.0165 26.0802 30.2109 25.8125C31.9757 23.345 34.018 21.0904 37.5221 21.0904C41.6488 21.0904 43.9655 24.4222 44.6218 27.8516H42.7606C42.0116 26.7398 40.5701 26.0594 39.1484 26.0594C35.9053 26.0594 33.968 29.0456 32.347 31.2443C32.347 31.2443 31.085 32.9667 30.6285 33.517H30.6284ZM44.7297 31.3531C44.3116 34.8017 42.3806 38.2833 38.1611 38.2908C35.6996 38.2953 33.7744 36.6067 32.4411 34.5414V32.1498C34.1095 32.979 35.6676 33.8663 37.5587 33.8951C39.8876 33.9297 41.9933 33.0323 42.8643 31.3531H44.7297Z" fill="white"/>
</svg>
