<svg width="39" height="32" fill="none" xmlns="http://www.w3.org/2000/svg"><path d="M8.607 9.483a4.655 4.655 0 014.655-4.655h13.032a4.655 4.655 0 014.655 4.655v13.032a4.655 4.655 0 01-4.655 4.655H13.261a4.655 4.655 0 01-4.654-4.655V9.483z" fill="#fff"/><path fill-rule="evenodd" clip-rule="evenodd" d="M17.066 10.931c-.016-.746-.55-1.314-1.415-1.314-.867 0-1.433.568-1.433 1.314 0 .73.55 1.315 1.4 1.315h.016c.883 0 1.432-.585 1.432-1.315zm-.166 2.353h-2.532v7.606H16.9v-7.606zm6.215-.179c1.666 0 2.914 1.088 2.914 3.424v4.361h-2.531v-4.07c0-1.021-.367-1.719-1.283-1.719-.7 0-1.116.47-1.299.925-.067.162-.083.389-.083.616v4.248H18.3s.033-6.892 0-7.606h2.532v1.077c.336-.518.938-1.256 2.282-1.256z" fill="#333"/></svg>