<svg xmlns="http://www.w3.org/2000/svg" width="24" height="24" fill="none" xmlns:v="https://vecta.io/nano"><g clip-path="url(#A)"><path d="M22.269 0H1.731A1.73 1.73 0 0 0 0 1.731v20.538A1.73 1.73 0 0 0 1.731 24h20.538A1.73 1.73 0 0 0 24 22.269V1.731A1.73 1.73 0 0 0 22.269 0h0zM8.513 18.141H5.59V9.348h2.923v8.793zM7.052 8.147h-.019c-.981 0-1.615-.675-1.615-1.519 0-.863.654-1.519 1.653-1.519s1.615.656 1.634 1.519c0 .844-.634 1.519-1.653 1.519zm11.999 9.993h-2.922v-4.704c0-1.182-.423-1.988-1.48-1.988-.807 0-1.288.544-1.5 1.069-.077.188-.096.45-.096.713v4.91H10.13V9.348h2.922v1.245c.388-.599 1.083-1.451 2.634-1.451 1.923 0 3.364 1.257 3.364 3.957v5.042z" fill="#8d8d8d"/></g><defs><clipPath id="A"><path fill="#fff" d="M0 0h24v24H0z"/></clipPath></defs></svg>