<svg width="32" height="32" viewBox="0 0 32 32" fill="none" xmlns="http://www.w3.org/2000/svg">
<path d="M2.82715 8.24011C2.82715 5.10715 5.36691 2.56738 8.49988 2.56738H24.3835C27.5165 2.56738 30.0562 5.10715 30.0562 8.24011V24.1237C30.0562 27.2567 27.5165 29.7965 24.3835 29.7965H8.49988C5.36691 29.7965 2.82715 27.2567 2.82715 24.1237V8.24011Z" fill="white"/>
<path fill-rule="evenodd" clip-rule="evenodd" d="M13.138 10.0031C13.118 9.09416 12.468 8.40186 11.4125 8.40186C10.357 8.40186 9.66699 9.09416 9.66699 10.0031C9.66699 10.8932 10.3366 11.6054 11.3725 11.6054H11.3922C12.468 11.6054 13.138 10.8932 13.138 10.0031ZM12.9349 12.8708H9.84951V22.141H12.9349V12.8708ZM20.5094 12.6529C22.5397 12.6529 24.0618 13.9781 24.0618 16.8255L24.0617 22.1408H20.9764V17.1812C20.9764 15.9355 20.53 15.0854 19.4131 15.0854C18.5607 15.0854 18.053 15.6585 17.83 16.212C17.7484 16.4103 17.7284 16.6867 17.7284 16.9638V22.141H14.6426C14.6426 22.141 14.6833 13.7407 14.6426 12.8708H17.7284V14.1839C18.1379 13.5526 18.8713 12.6529 20.5094 12.6529Z" fill="#333333"/>
</svg>
