<svg width="36" height="36" fill="none" xmlns="http://www.w3.org/2000/svg"><path d="M1.05 7.92a7.2 7.2 0 017.2-7.2h20.16a7.2 7.2 0 017.2 7.2v20.16a7.2 7.2 0 01-7.2 7.2H8.25a7.2 7.2 0 01-7.2-7.2V7.92z" fill="#0077B5"/><path fill-rule="evenodd" clip-rule="evenodd" d="M14.136 10.158c-.026-1.153-.85-2.032-2.19-2.032-1.34 0-2.216.879-2.216 2.032 0 1.13.85 2.034 2.165 2.034h.025c1.365 0 2.216-.904 2.216-2.034zm-.258 3.64H9.962v11.766h3.916V13.798zm9.614-.277c2.577 0 4.508 1.682 4.508 5.296v6.747h-3.916v-6.295c0-1.581-.566-2.66-1.984-2.66-1.082 0-1.726.727-2.01 1.43-.103.252-.128.602-.128.954v6.571h-3.917s.052-10.662 0-11.766h3.917v1.667c.52-.801 1.45-1.944 3.53-1.944z" fill="#fff"/></svg>