<svg width="180" height="46" viewBox="0 0 180 46" fill="none" xmlns="http://www.w3.org/2000/svg">
<path d="M0 45.5688H179.997V-1.52588e-05H0V45.5688Z" fill="#00488E"/>
<path d="M0 45.5688H179.997V40.3634H0V45.5688Z" fill="#F7A800"/>
<path d="M12.9764 15.4256H18.8721L19.187 12.5694L9.9002 12.5435L7.50195 30.0747H10.8959L12.0273 22.2832H17.9493L18.3429 19.3969H12.4238L12.9764 15.4256Z" fill="white"/>
<path d="M30.8444 15.4023L31.2395 12.5418L21.024 12.5677L18.6855 30.1449C18.6855 30.1449 28.7873 30.3205 28.7873 30.119C28.7873 29.9248 29.1328 27.3348 29.1328 27.3348H22.3711L23.0549 22.306H29.8428L30.2627 19.3707H23.5272L24.0783 15.4023H30.8444Z" fill="white"/>
<path d="M58.5153 15.4023L58.9133 12.5418L48.7008 12.5677L46.3594 30.1449C46.3594 30.1449 56.4626 30.3205 56.4626 30.119C56.4626 29.9248 56.8067 27.3348 56.8067 27.3348H50.0406L50.7272 22.306H57.5167L57.938 19.3707H51.2011L51.7521 15.4023H58.5153Z" fill="white"/>
<path d="M38.6844 27.3132C38.6844 27.3132 35.4026 27.5117 34.7961 27.3794L34.7903 27.4168L34.6649 27.4125L36.2468 15.4425L38.7529 15.4008C38.7529 15.4008 42.3393 15.4008 43.3715 19.3418L43.3875 19.4152C44.3964 23.4311 41.4238 26.9837 38.6844 27.3132ZM37.8636 12.5907L33.2726 12.572L30.9531 30.1449H34.3019L34.3034 30.1348L34.525 30.1305C35.1023 30.1808 39.0095 30.4772 41.5652 29.201C41.5652 29.201 46.7407 27.3794 46.6911 20.0929C46.6911 20.0929 46.3894 13.4036 37.8636 12.5907Z" fill="white"/>
<path d="M63.4578 20.2728L64.1022 15.3807C64.1022 15.3807 67.4408 14.8569 67.8767 16.6066C67.8767 16.6066 68.6421 19.857 65.1664 20.2872L63.4578 20.2728ZM71.1774 17.4282C71.1774 17.4282 71.2576 12.8482 65.9698 12.5864H61.0391L58.6934 30.1636H62.1515L63.1093 22.9131L63.5642 22.9405L63.5657 22.9376L67.8373 30.1636H71.3757L67.0384 22.6052C67.0384 22.6052 70.8202 22.0095 71.1774 17.4282Z" fill="white"/>
<path d="M79.6952 23.5659L82.4346 19.0795L83.7598 23.5903L79.6952 23.5659ZM71.7832 30.1314H75.6845L77.9676 26.3961H84.585L85.6916 30.1616H89.243L83.3443 11.852L71.7832 30.1314Z" fill="white"/>
<path d="M95.6438 12.5647L92.3592 12.5906L89.9551 30.103H99.1982L99.5495 27.3231H93.8244L95.6438 12.5647Z" fill="white"/>
<path d="M127.411 23.5668L130.15 19.0804L131.474 23.5913L127.411 23.5668ZM119.502 30.1324H123.4L125.683 26.3971H132.299L133.407 30.1626H136.957L131.059 11.853L119.502 30.1324Z" fill="white"/>
<path d="M116.168 26.6762C116.168 26.6762 115.281 27.7942 111.871 27.4115L111.772 27.4216L112.476 22.3424C113.046 22.3035 114.383 22.2416 114.837 22.4906C114.837 22.4906 118.177 23.1956 116.168 26.6762ZM113.441 15.3969L113.507 15.1106C113.507 15.1106 115.587 14.984 116.338 16.0372C116.338 16.0372 117.803 18.4991 114.667 19.6488L112.839 19.7394L113.441 15.3969ZM117.669 20.9869C117.669 20.9869 120.428 18.9768 119.712 16.3265C119.712 16.3265 119.374 12.9408 114.699 12.5883H110.2L107.881 30.1568H110.916H111.391L111.399 30.1065C111.832 30.1266 112.396 30.154 113.1 30.1899C113.1 30.1899 117.631 30.1899 119.169 27.9856C119.169 27.9856 122.168 24.1208 117.669 20.9869Z" fill="white"/>
<path d="M153.745 12.5542L152.281 23.3544L140.616 11.7887L138.303 30.1242H141.573L143.176 18.2421L154.736 30.3789L157.26 12.5542H153.745Z" fill="white"/>
<path d="M172.496 12.5897H168.61L162.06 18.7264L162.881 12.5897L159.367 12.558L157.016 30.1597H160.531L161.464 23.1754L162.018 22.6445L168.097 30.0949H172.089L164.549 20.2142L172.496 12.5897Z" fill="white"/>
</svg>
