<svg xmlns="http://www.w3.org/2000/svg" width="48" height="49" fill="none" xmlns:v="https://vecta.io/nano"><path fill-rule="evenodd" d="M25.591 4.401c-5.854-5.854-15.346-5.854-21.2 0s-5.854 15.346 0 21.2L22.409 43.62c5.854 5.854 15.346 5.854 21.2 0s5.854-15.346 0-21.2L25.591 4.401zM7.573 7.583c4.097-4.097 10.739-4.097 14.836 0l7.418 7.418-14.836 14.836-7.418-7.418c-4.097-4.097-4.097-10.739 0-14.836zm10.6 25.436l7.418 7.418c4.097 4.097 10.739 4.097 14.836 0s4.097-10.739 0-14.836l-7.418-7.418L18.173 33.02z" fill="#00b899"/></svg>