<svg width="60" height="60" fill="none" xmlns="http://www.w3.org/2000/svg"><path d="M37.005 14.718c0 3.42 2.845 6.238 6.38 6.238 3.537 0 6.383-2.819 6.383-6.238 0-3.418-2.845-6.236-6.383-6.236-3.535 0-6.38 2.817-6.38 6.236zM49.688 51.424h5.247V40.521h-2.117c-1.01 0-2.126-.126-2.923-.959-.776-.81-1.017-2.047-1.017-3.595v-7.562H37.974v9.436c0 4.817 1.521 8.193 3.691 10.362 2.18 2.178 5.093 3.221 8.023 3.221zM20.618 18.585h10.984V8.482h-13.36c-4.473 0-7.726 1.152-9.862 3.234-2.132 2.079-3.306 5.237-3.306 9.58V51.46h10.988v-8.71c0-1.334.193-2.58 1.176-3.384.91-.743 2.257-.886 3.827-.886h10.553V28.37H16.062V23.951c0-1.66.214-3.066 1.006-4.039.843-1.035 2.117-1.327 3.55-1.327z" stroke="#00B899" stroke-width="2"/></svg>