<svg xmlns="http://www.w3.org/2000/svg" width="245" height="241" fill="none" xmlns:v="https://vecta.io/nano"><path d="M37.954 199.286C-3.718 165.648-20.386 93.25 36.749 40.232s153.933-52.717 190.483-4.519 11.347 114.873-27.212 151.423-99.409 62.758-162.066 12.15z" fill="#cde5c1"/><path d="M61.451 148.276s6.125 3.916 9.439 3.214 4.318-2.109 4.318-2.712 1.807.201 1.205 2.511-3.816 21.287-4.217 24.4c0 0 3.213-4.418 5.724-6.527s5.824-8.535 6.426-9.639c0 0-.402 17.572.904 19.781 1.305 2.109 5.824 4.82 6.728 6.828s5.121 12.25 11.146 13.255c6.125 1.004 16.668-2.812 17.974-13.958s-8.536-21.287-9.941-25.906c0 0 6.125 3.614 11.246 2.008 5.121-1.707 3.615-6.929 3.615-6.929s2.811 1.908 6.527 2.31 12.652 3.816 13.555 14.158 1.105 34.141 1.105 34.141l9.439-13.857s5.824 5.422 10.744 4.317c0 0 .703 2.812-1.305 6.025s-6.527 10.242-8.937 16.669c-2.41 6.527-7.23 18.877-14.761 18.877-7.531.101-9.639-2.008-9.639-2.008l.1 4.92h-43.48s-2.109-7.731 0-18.877c2.209-11.146-.502-24.3-3.113-27.915 0 0-5.623 3.715-10.845 11.146s-12.752 13.857-19.581 10.543-7.933-8.937-6.326-18.175c1.506-9.238 11.949-48.6 11.949-48.6zm162.165-67.577c0 19.48-17.873 34.642-36.952 33.739-16.668-.703-31.529-12.452-31.529-31.932s19.781-36.048 38.96-36.048c16.669 0 29.521 14.761 29.521 34.241z" fill="#fff"/><path d="M177.228 75.076s6.728 0 7.833-.602c1.205-.603 2.209-1.607 2.309-4.217s3.113-2.611 3.414-1.406.603 3.615.603 3.615l4.518-1.004s1.506.703 2.109 3.816.904 3.715 1.305 4.82-.201 3.715-3.313 5.021l-8.033 2.912c-1.908.502-9.038 1.105-9.038 1.105s-5.221-1.607-1.707-14.058z" fill="#cde5c1"/><path d="M118.182 109.919l-5.724.301c-.703 0-1.907.101-1.807-1.004s1.305-.703 2.008-.703c6.929 0 13.456-1.506 19.28-5.322 2.911-1.908 5.221-4.318 6.627-7.531.903-2.008 2.309-2.309 4.217-1.607 7.933 3.113 10.443 13.756 4.519 20.383-1.406 1.607-1.506 3.013-1.406 4.921.402 9.037-.904 17.773-7.029 25.003-2.711 3.213-6.125 5.321-10.443 5.924-.703.1-2.209 0-2.209.904 0 1.506-.201 3.213 1.908 3.815 1.908.603 3.816.804 5.723 1.205 7.833 1.808 12.452 7.933 13.255 16.468.703 6.728 0 13.455.301 20.183l.301 8.535c0 .402 0 1.205.101 1.607.301-.301.703-1.004.903-1.406l13.155-19.48c1.506-2.209 2.008-4.519.1-6.326-1.105-1.105-.904-2.611-.904-2.912.402-3.213.402-2.912-3.815-3.715-1.607-.302-2.41-1.406-2.812-2.812-.301-.803 0-1.707.803-1.807 2.109-.302 1.707 0 2.511-3.615 1.305-5.523 2.108-10.142 3.313-15.665.302-1.406 1.004-1.506 2.109-1.305l12.451 2.51c1.406.301 2.31.703 1.808 2.611-.904 3.414-1.507 6.928-2.31 10.443-.402 1.707.301 3.012.703 4.619 2.209 8.937-.502 18.275-4.719 25.204-1.607 2.61-2.611 3.614-2.611 5.723 0 4.619-2.008 8.134-4.318 11.748-2.109 3.314-4.217 6.527-5.422 10.243-2.511 5.422-4.519 11.045-7.933 16.066s-11.347 7.33-15.966 4.317c-1.405-.903-1.104.603-1.204 1.205 0 1.005-.101 1.707-.904 1.607-.603-.1-.502-1.105-.603-1.707-1.506-9.84.804-19.681.703-29.521 0-.502-.1-.904-.1-1.406a9.22 9.22 0 0 1-1.406.703c-.502.2-1.205.602-1.506.401-.301-.301.401-.803.803-1.104 6.828-6.226 10.343-13.054 8.937-23.095 0-.502-.301-1.205.402-1.205.903 0 1.004 1.004 1.104 1.606.703 5.724.603 11.849-2.912 16.368-4.418 5.623-3.514 10.543-3.916 16.769-1.004 14.66-1.908 15.865.904 17.271 5.623 3.012 11.346.803 14.76-4.619 1.908-3.013 3.314-6.226 4.72-9.439 2.711-6.627 5.924-12.853 9.84-18.777.502-.703 2.912-3.314 2.31-5.423-.301-1.004-2.109-.702-3.314-.903-1.908-.402-3.615-1.306-4.92-2.611-1.506-1.506-2.109-.402-3.113 1.004l-14.258 21.589c-.503.703-1.105 2.209-2.109 1.506-.803-.502.1-1.607.502-2.41 6.828-9.137 7.43-9.037 6.527-23.597-.502-5.121-.101-10.443-.402-15.564-.502-7.43-3.514-16.066-11.347-17.873-2.108-.503-4.217-.904-6.326-1.306-.602-.1-.803.201-1.004.603-2.61 5.02-5.121 6.225-10.644 4.418-1.506-.502-2.61-1.506-3.112-.803-.603.702.703 2.008 1.205 3.012 1.907 3.916 4.016 7.732 5.824 11.748 5.02 11.347-1.306 22.894-13.355 24.601-4.72.703-8.636-1.506-11.548-5.321-.703-.904-1.205-1.908-1.707-2.912-1.707-3.615-2.912-7.331-6.928-9.54-2.711-1.506-3.213-5.02-3.314-8.133-.1-3.715 0-7.431 0-11.146 0-.301 0-1.506-.803-.201-1.908 3.213-3.414 5.523-6.828 8.937-2.912 2.912-3.514 4.519-3.715 7.832-.201 4.418-.502 7.13-1.004 11.548-.1.401-.1 1.305-.803 1.205-.602-.101-.301-.904-.301-1.406.402-12.351 1.506-20.685 4.92-36.651.1-.502 1.105-3.916.201-4.518-.502.903-1.305 1.506-2.008 1.907-3.414 1.808-7.029.603-10.343-1.305-1.004-.602-1.205-.904-1.506.502l-10.744 44.684c-.602 2.811-1.205 5.623-1.105 8.535.201 4.82 4.117 9.539 8.937 10.543 2.31.502 4.92-.2 6.828-1.405 4.017-2.511 6.627-5.925 9.238-9.841a35.69 35.69 0 0 1 9.74-10.041c1.104-.703 2.209-1.506 2.912-2.611.402-.703 1.004-1.607 1.506-1.305.602.301.1 1.405-.603 2.309-1.105 1.406-.703 1.607-.201 3.113 3.213 8.535 3.314 17.874 2.209 26.81-.703 5.724-.904 11.447-.703 17.171 0 .402.201 1.104-.201 1.205s-.603-.603-.803-.904c-2.611-6.326 0-19.38.201-21.89.803-7.933.201-13.355-1.808-21.087 0 0-.301-2.209-1.506-1.004-3.012 2.812-6.226 5.322-8.736 8.736-3.615 5.121-8.334 11.246-14.66 12.753-4.82 1.205-11.648-1.105-13.556-9.238-1.707-7.23 1.506-15.665 3.113-22.694l11.246-47.696c1.004-4.217.602-8.635 0-12.953-1.105-8.134 1.105-15.464 5.422-22.292.301-.502 2.109-2.51 3.414-1.908.803.402.603 1.205.502 2.008-.201 1.105-.703 2.109-.803 3.214.703-.904 2.811-3.314 3.113-3.615.603-.603 1.305-1.808 2.41-1.205 1.305.703.703 2.008.502 2.912-.1.301-.1.703-.201 1.004.301-.201.502-.502.803-.703 1.105-.904 1.908-2.811 3.414-1.707 1.305.904.301 2.611-.201 3.916-.803 1.908-3.213 5.724-2.912 6.929 1.205-.402 4.016-1.205 5.924-1.306 2.51 0 3.916 1.105 4.016 3.214.1 1.305 0 2.711.603 3.916.1-1.205.201-2.41.402-3.615 2.912-15.163 13.053-25.806 27.915-28.718 7.33-1.506 14.258 0 20.584 4.017.804.502 1.506 1.105.904 2.109-.402.703-1.205.502-1.807.1-14.259-9.539-32.334-2.611-40.768 9.64-3.113 4.518-4.92 9.539-5.724 14.861-.1.904-.201 1.707.602 2.611s.502 1.606 0 2.41c-.602 1.004-4.117 3.715-5.623 6.928-1.205 2.511-2.711 5.222-5.322 6.226-3.514 1.406-3.816 3.916-4.117 6.928-.201 1.506-.502 3.013-.703 4.519-.1.502-.402 1.205.201 1.506 1.707 1.004 1.506 2.611 1.305 4.117-1.406 8.334-2.51 12.652-3.615 18.978-.602 2.611.904 1.004 1.105.803 4.519-4.418 8.435-9.137 9.74-15.463.301-1.607 3.515-22.694 4.92-31.63 1.305-.201 1.205.703 1.104 1.506-.703 7.029-1.406 13.957-2.812 20.886-1.807 9.338-2.611 18.677-1.707 28.216.301 3.113 1.808 5.623 4.217 7.531.201.201.603.401.803.602v-1.104c0-1.004-.703-2.611.201-2.711 1.104-.101 1.406 1.907 1.506 2.811.402 3.515 1.406 6.226 3.213 9.238 4.117 6.929 12.049 8.535 18.376 3.515 5.924-4.72 7.53-10.544 4.619-17.573-3.314-8.033-7.933-15.463-10.745-23.697-2.41-6.929-4.418-13.958-3.916-21.489.101-1.004-1.205-1.104-1.707-1.204-2.811-.703-4.117-2.41-4.719-5.122-.502-2.108.602-3.815 2.41-4.92 1.305-.803 2.711-.803 3.815 0 2.611 2.209 5.021 1.205 7.23-.301 4.92-2.912 8.234-6.125 7.732-11.447 2.309-.402 2.109 1.205 1.707 2.611-.904 3.815-2.812 6.125-5.724 8.635-1.707 1.506-6.225 4.92-9.74 2.711-1.405-.903-2.811-1.807-4.217-.1-1.305 1.707-.703 3.314.502 4.619 1.506 1.606 3.414 2.109 5.623 1.908.402 0 1.105-.101 1.105.201.1.602-.502.702-.804.702-1.205.101-1.205.904-1.104 1.808.402 8.435 3.012 16.468 6.025 24.3.2.401.401.703.803.904 2.611 1.004 5.121 2.008 7.933 2.51 3.012.502 5.723-2.008 5.121-4.619-.302-1.607-.703-3.113-.703-4.72 0-1.004-.402-1.104-1.306-1.305-5.02-.904-9.137-3.615-12.551-7.33-.402-.502-1.105-1.105-.301-1.707.702-.502 1.104.201 1.606.502 1.707 1.305 3.213 2.711 5.021 3.816 6.426 4.016 13.254 3.815 18.777-.804 6.226-5.221 8.234-12.35 8.736-20.082.502-6.828-1.004-13.456-3.113-19.982-.201-.603-.703-1.707-.301-1.908.602-.302.904.903 1.305 1.506 1.406 2.711 2.109 5.623 2.812 8.535.1.301.201.904.301 1.205.201-.201.402-.603.603-.904 4.317-5.824 2.61-13.555-3.716-16.969-1.205-.703-1.807-.803-2.41.803s-1.907 2.912-3.112 4.117c-5.423 5.121-11.95 7.43-18.878 9.037zm-43.881 27.212c-1.707.201-2.109-.301-2.109-.402.1-.703 1.205-.401 1.808-.502 4.117-.803 7.33-2.912 9.338-6.426 1.506-2.611 3.213-4.921 5.422-6.929.301-.301.602-.602.803-1.004.301-.502.904-1.004.402-1.607-.101-.2-.402-.301-.603-.2-.703.1-1.105.602-1.004 1.305.1.904-.602 1.406-1.205 1.305-1.908-.2-2.912.804-4.519 1.808-.201.1-.703.1-1.004.1-3.012-.602-2.309-2.912-2.109-4.82.301-2.008 1.406-3.514 3.916-3.313 1.004.1 1.305.703 1.506 1.506.301.904.502 1.908.803 2.811.201.503.602.904 1.104.804.703-.101.402-.804.402-1.205-.201-2.008-.502-4.017-.703-6.025-.1-.602-.301-1.004-.904-1.305-2.008-1.004-7.431 1.104-8.334 3.012-.1.301-.1.803-.402.803s-.402-.502-.402-.803c-.1-1.908 0-3.816 1.004-5.523 1.105-2.008 2.008-4.117 3.012-6.125.1-.301.301-.703.1-.904-.1-.1-.402 0-.402.101-2.611 3.113-6.025 5.824-6.627 10.242-.1.703.201 1.908-.603 1.908-1.004-.101-.301-2.711-.201-3.113.803-3.414 2.209-6.627 3.515-9.84.1-.302.402-.703.1-.904-.1-.101-.402.1-.502.301-2.811 3.816-6.928 6.929-6.527 12.451 0 .502.402 1.506-.402 1.506-.803.101-.603-.903-.803-1.405-.904-3.916.904-7.33 1.908-10.945.201-.603.502-1.406.201-1.507s-.803.804-.904 1.105c-4.017 6.125-6.125 12.752-5.021 20.283.703 5.122 1.105 10.443-.201 15.564-.402 1.708.301 2.21 1.506 2.812 5.422 2.812 8.736 1.506 9.64-3.514.402-1.607 0-1.507-1.004-1.406zm94.59 25.203h-4.318c-.301 0-.904.101-.904.503 0 .301.502.602.703.602 2.209.703 4.117.803 6.326 1.004.402 0 1.205-.201 1.205.502 0 .603-.703.502-1.004.603-2.511.401-5.021.602-7.531.903-.301 0-.804.101-.804.402s.603.301.804.301c2.309.302 4.518.402 6.828.804.602.1 1.707 0 1.607.703 0 .803-1.105.702-1.708.803-1.807.301-3.614.301-5.422.602-.401.101-1.205.101-1.205.502s.703.502 1.105.502c2.008.402 4.117.703 6.125 1.105.402.1 1.104.1 1.004.703-.1.502-.703.402-1.104.402-1.808.1-3.615.2-5.322.401-.402 0-1.105.101-1.205.201-.201.301.803.402 1.305.602 2.008.503 4.017 1.005 6.025 1.607.401.1.904.301.602.803-.1.201-.301.201-.703.101-1.606-.201-3.313-.301-4.92-.703-1.807-.402-2.209.402-1.807 1.908.301 1.205 1.004 2.309 1.406 3.414.1.401.301 1.004-.101 1.305-.1.101-.703-.401-.904-.703-.903-1.004-1.004-1.004-1.104-.703-.201 1.105-2.31 1.908-1.004 3.214a10.66 10.66 0 0 0 5.422 2.912c.803.1 1.908.702 2.41-.502 3.213-6.226 5.322-12.753 4.117-19.882-.904-5.021-.904-5.021-5.924-4.921zm7.129-13.756c.201-.803-.402-.803-.904-.904l-8.937-2.008c-.803-.201-.903.402-1.104.904l-3.314 14.057c-.1.302-.401 1.005.402.703 3.313-1.205 6.728-.502 10.041-.2.603.1 1.105.1 1.306-.603l2.51-11.949zm-105.534 2.41c1.004 0 2.812-.101 3.213-1.707s.402-2.912.703-4.519c.1-.803-.1-1.004-.904-.703-2.812.904-5.422.302-8.234-.703-.502-.2-1.707-1.305-2.008 0-.402 1.707-1.305 3.716-.1 4.82 1.908 1.808 4.418 2.812 7.33 2.812zm94.388 44.081c2.912.201 1.908-1.707 3.414-3.615 1.004-1.305 1.506-2.51-1.205-2.41-.904 0-2.008-.401-2.711-1.004-2.711-2.41-3.916-1.406-5.523 1.306-.401.602-1.406 1.606-.703 2.309 2.009 1.707 3.916 3.213 6.728 3.414zm-6.527-30.325c.101.201.703 1.908.904 2.41l4.92-20.685c.101-.401.402-1.004-.502-1.205-.803-.201-1.105.201-1.305.904-.201 1.506-2.912 13.857-4.017 18.576zm-76.816-41.671c.904.402 1.406-.402 2.109-.803 1.506-.904.201-2.109 0-3.113-.1-.502.402-1.506-.502-1.607-.803 0-1.506.603-1.808 1.406-.301.703-1.406 3.314.201 4.117zm82.64 45.487c.101-.803-.602-.502-1.707-.703-.602-.1-1.104-.401-1.004-1.205 0-.602.402-1.004 1.004-1.205.703-.201 2.51-.602 2.611-.703-.101-.1-.703-.502-.803-.602-2.21-1.707-3.013-1.105-3.615 1.707-.402 1.707-.201 2.912 1.907 3.113.101 0 1.507.201 1.607-.402zm-7.43-3.012c-.201 0-.703.1-.503.703s.603 1.305 1.205 1.104c.101 0 .502-.502.502-.803-.1-.703-.602-1.105-1.204-1.004zm-59.746 38.659c.201-.703.603-.703 1.305-.502 4.618 1.305 9.037 3.012 13.957 2.811.201 0 .602.101.602.201.101.502-.401.603-.703.703-3.614 1.306-11.949-1.606-13.856-2.209-.502-.1-1.205-.201-1.305-1.004zm90.574-88.263c-3.716 0-7.33-.402-10.745-1.707-1.907-.703-1.907.301-2.209 1.506l-3.313 18.677c-.101.602 0 1.506-.804 1.406-.702-.101-.401-1.105-.301-1.607l3.113-18.677c.301-1.807 0-2.611-1.707-3.514-11.748-5.523-18.777-19.681-17.271-32.735 1.908-15.865 14.861-31.63 34.14-33.839 17.974-2.109 33.84 9.539 36.249 27.714 3.113 22.392-14.559 42.575-37.152 42.776zm-1.105-2.31c11.146-.301 20.484-4.619 27.815-13.053 12.551-14.56 10.744-35.747-3.816-46.492-14.861-10.945-36.751-6.828-47.998 9.138-11.748 16.669-7.129 38.257 10.142 47.395.904.502 1.506.803 1.707-.603.101-.702.301-1.405 1.004-1.305.804.201.904.502.603 1.506-.402 1.506.301 1.908 1.506 2.209 2.912.603 5.824 1.205 9.037 1.205zm-3.515 26.71c-.703 0-.502-.703-.302-1.005.804-1.305 1.707-2.711 2.712-3.916.502-.602 1.606-.602 1.506.302s-3.214 4.619-3.916 4.619zm6.025 1.104c.703-.201 1.205 0 1.306.602.1.502-.402.804-.804.904l-3.916 1.205c-.402.1-.904.1-1.104-.402-.201-.401 0-.803.401-.903 1.406-.603 2.812-1.105 4.117-1.406zm-77.115-34.542c-.402-.101-.804-.402-.703-.904.2-.603.703-.502 1.205-.402 1.405.402 2.711.502 4.117.502.502 0 1.506-.301 1.506.502s-1.004.703-1.607.703c-.301 0-3.414-.2-4.518-.401zm14.959 35.145c-4.518.301-7.33-1.908-7.23-5.021.101-2.812 2.511-4.418 5.121-3.414 1.205.502 2.21 1.305 3.113 2.209 1.105 1.105 2.209 2.31 3.615 3.213.502.301 1.105.603 1.105 1.004.1.703-2.41 1.808-5.724 2.009zm-.1-1.707c.803 0 1.606 0 2.51-.201.703-.201.502-.502.1-.703l-4.619-3.715c-1.004-.703-2.209-1.005-2.911.2s-.302 2.41.803 3.214c1.305.903 2.711 1.205 4.117 1.205zm12.252-11.448c0 3.214-2.108 4.218-4.117 5.423-.2.1-.602.2-.702 0s.1-.502.2-.603c3.816-2.611 2.611-5.824 1.406-9.137-.201-.603-.502-1.205-.602-1.808 0-.301-.101-.803.401-.904.402-.1.703.101.904.502 1.105 2.21 2.209 4.519 2.51 6.527zm-10.643-7.43c1.004.301 2.611.804 2.31 1.707-.402 1.205-1.707.101-2.51-.1-.904-.201-1.708-.301-2.712-.101-.502.101-1.305.503-1.606-.1-.302-.803.602-1.105 1.205-1.305 1.104-.402 2.711-.302 3.313-.101zm14.255 2.209c0 .603-.1 1.105-.904 1.105-.703 0-.703-.703-.703-1.105 0-.502 0-1.205.904-1.104.703 0 .703.602.703 1.104zm-39.759 3.414c0 .301.401.804-.201.703-.502-.1-.602-.502-.602-.904 0-.301.1-1.004.502-1.004.803.101.401.804.301 1.205zm-37.959 20.283c-.502.201-.603-.502-.502-.903.1-.302.301-.703.502-.804.402-.1.602.201.502.703-.201.301-.201.803-.502 1.004zM180.64 73.87h1.707c2.008 0 4.117 0 4.217-2.912 0-.603.904-3.615 3.414-3.414 1.406.1 1.808 1.506 1.808 2.51-.101 2.008.401 2.008 2.209 1.406 2.61-1.004 3.414.201 4.518 2.611.703 1.506.402 3.414 1.105 4.719 1.406 2.812.301 6.426-3.013 7.129-3.012.703-5.824 2.51-8.936 2.912l-8.033 1.105c-2.41.1-3.214-1.908-3.816-3.715-1.105-3.314-.904-6.728 0-10.041.502-2.209.803-2.309 4.82-2.309zm-3.816 6.728c-.1 2.109.201 4.318 1.004 6.527.201.703.904 1.707 2.008 1.506 4.017-.703 8.234-.803 12.05-2.41.301-.1.502-.301.803-.402-.301-.1-.602-.1-.803-.201-1.707-.602-2.711-1.305-1.205-3.314.603-.703.502-2.109-.301-3.012-.703-.703-.904-1.305-.402-2.109.101-.201.904-.301.301-.803-1.405-1.105-.602-2.008.101-3.113.803-1.105.904-4.719-.904-4.418-.904.201-1.406 2.008-1.506 2.711-.301 3.816-2.812 3.715-5.422 3.715-5.121.1-5.423.1-5.724 5.322zm15.865-1.908c1.506-.301 2.912-.703 4.418-1.004.703-.201 1.105-.703.804-1.305-.201-.502-.703-1.105-1.205-.904-1.506.502-3.013 1.205-4.519 1.807-.401.201-.903.502-.703.904s.703.502 1.205.502zm1.707 6.125c.804.1 1.707-.402 2.41-.803s1.607-1.205 1.205-2.008c-.401-1.004-1.205-.301-1.807 0-.703.301-1.406.502-2.31.803-.703.201-2.008.301-1.908 1.105.201 1.004 1.507.904 2.41.904zm.302-3.514c1.305-.301 2.108-.703 3.213-1.105.401-.1.703-.402.602-.803-.1-.703-.703-.402-1.004-.301-1.004.201-2.008.502-3.012.703-.603.201-1.607.201-1.707.904-.201 1.105 1.104.803 1.908.602zm2.008-8.234c-.402-1.004-1.808-.301-2.812.1-.803.301-2.51.803-2.41 1.607 0 .502 1.808.301 2.611 0 1.004-.402 2.912-.803 2.611-1.707zm-22.483 77.677c.149-.875-.085-1.644-.523-1.719s-.912.575-1.06 1.45.085 1.644.523 1.718.912-.574 1.06-1.449z" fill="#333"/></svg>
