<svg width="182" height="72" viewBox="0 0 182 72" fill="none" xmlns="http://www.w3.org/2000/svg">
<rect width="182" height="72" rx="12" fill="#E7E7E7"/>
<path fill-rule="evenodd" clip-rule="evenodd" d="M23.355 19.2333L41.0591 29.2894L35.9434 34.4051L20.838 19.3148C21.3879 18.7226 22.3186 18.641 23.355 19.2333ZM19.6543 21.6417C19.6543 20.8863 19.8567 20.3092 20.2073 19.9315L20.3009 19.8499L35.3247 34.8646V35.2L20.313 50.2118L20.2194 50.1302C19.8567 49.7676 19.6543 49.1904 19.6543 48.435V21.6417ZM36.5845 35.2113L41.5913 40.2183L41.7001 40.1518L47.6225 36.7856C49.3176 35.8187 49.3176 34.2414 47.6225 33.2865L41.7001 29.9203L41.5913 29.8539L36.5845 34.8608V35.2113ZM41.0591 40.7793L35.9434 35.6636L20.838 50.769C21.3909 51.3613 22.3186 51.4277 23.355 50.8506L41.0591 40.7793Z" fill="#383838"/>
<path fill-rule="evenodd" clip-rule="evenodd" d="M101.866 46.3656C101.194 45.8281 100.657 44.8875 100.388 44.35L102.538 43.4094C102.673 43.6781 102.941 44.0812 103.21 44.4844C103.748 45.0219 104.554 45.5594 105.36 45.5594C106.166 45.5594 107.107 45.1562 107.644 44.4844C108.047 43.8125 108.316 43.1406 108.316 42.2V41.3938C106.704 43.4094 103.344 43.1406 101.463 40.9906C99.4475 38.8406 99.4475 35.2125 101.463 33.0625C103.479 31.0469 106.435 30.7781 108.182 32.6594V31.7188H110.466V41.7969C110.466 44.35 109.526 45.8281 108.316 46.7688C107.51 47.4406 106.301 47.7094 105.226 47.7094C104.016 47.575 102.807 47.1719 101.866 46.3656ZM158.169 46.9031L160.454 41.5281L156.423 32.2563H158.707L161.529 38.8406L164.351 32.2563H166.635L160.454 46.9031H158.169ZM147.285 41.7969C146.613 41.125 146.344 40.1844 146.344 39.2437C146.344 38.4375 146.613 37.6313 147.151 37.0938C148.091 36.1531 149.435 35.75 150.913 35.75C151.854 35.75 152.66 35.8844 153.332 36.2875C153.332 34.675 151.988 34.0031 150.913 34.0031C149.972 34.0031 149.032 34.5406 148.629 35.4812L146.613 34.675C147.016 33.7344 148.091 31.9875 150.779 31.9875C152.122 31.9875 153.466 32.3906 154.272 33.3313C155.079 34.2719 155.347 35.3469 155.347 36.825V42.4688H153.063V41.5281C152.794 41.9312 152.257 42.2 151.854 42.4688C151.316 42.7375 150.644 42.8719 149.972 42.8719C149.166 42.7375 147.957 42.4688 147.285 41.7969ZM75.6631 36.9594C75.6631 34.2719 77.6787 31.3156 81.3069 31.3156C84.8006 31.3156 86.9506 34.2719 86.9506 36.9594C86.9506 39.6469 84.935 42.6031 81.3069 42.6031C77.6787 42.6031 75.6631 39.6469 75.6631 36.9594ZM87.7569 36.9594C87.7569 34.2719 89.7725 31.3156 93.4006 31.3156C96.8944 31.3156 99.0444 34.2719 99.0444 36.9594C99.0444 39.6469 97.0287 42.6031 93.4006 42.6031C89.9069 42.6031 87.7569 39.6469 87.7569 36.9594ZM60.4787 39.9156C57.1194 36.5562 57.2537 31.0469 60.6131 27.5531C62.36 25.8063 64.51 25 66.7944 25C68.9444 25 71.0944 25.8062 72.7069 27.4187L71.0944 29.1656C68.6756 26.7469 64.7787 26.8813 62.4944 29.3C60.0756 31.8531 60.0756 35.75 62.4944 38.3031C64.9131 40.8563 68.9444 40.9906 71.3631 38.4375C72.1694 37.6313 72.4381 36.5562 72.5725 35.4812H66.9288V33.0625H74.8569C74.9912 33.6 74.9913 34.2719 74.9913 34.9438C74.9913 36.9594 74.185 38.975 72.8412 40.3188C71.3631 41.7969 69.2131 42.6031 67.0631 42.6031C64.6444 42.4687 62.2256 41.6625 60.4787 39.9156ZM117.319 40.8562C115.304 38.7062 115.304 35.0781 117.319 32.7937C119.335 30.6437 122.694 30.6437 124.576 32.7937C125.247 33.4656 125.651 34.4063 126.054 35.3469L118.663 38.4375C119.066 39.3781 120.007 40.1844 121.351 40.1844C122.56 40.1844 123.366 39.7812 124.173 38.5719L126.188 39.9156C125.919 40.1844 125.651 40.4531 125.516 40.7219C123.232 43.0063 119.335 43.0062 117.319 40.8562ZM131.294 42.4688V27.5531H136.132C138.954 27.5531 141.238 29.5688 141.238 31.9875C141.238 34.4063 139.222 36.4219 136.669 36.4219H133.713V42.3344H131.294V42.4688ZM142.582 42.4688V27.5531H144.866V42.4688H142.582ZM112.213 42.2V25.5375H114.632V42.2H112.213ZM153.197 38.0344C152.66 37.6313 151.854 37.4969 151.048 37.4969C149.435 37.4969 148.494 38.3031 148.494 39.2437C148.494 40.1844 149.435 40.7219 150.376 40.7219C151.719 40.7219 153.197 39.6469 153.197 38.0344ZM84.3975 36.9594C84.3975 35.3469 83.3225 33.6 81.3069 33.6C79.2912 33.6 78.2162 35.3469 78.2162 36.9594C78.2162 38.5719 79.2912 40.3188 81.3069 40.3188C83.1881 40.3188 84.3975 38.5719 84.3975 36.9594ZM96.4913 36.9594C96.4913 35.3469 95.4162 33.6 93.4006 33.6C91.385 33.6 90.31 35.3469 90.31 36.9594C90.31 38.5719 91.385 40.3188 93.4006 40.3188C95.4162 40.3188 96.4913 38.5719 96.4913 36.9594ZM108.451 37.9C108.451 37.7656 108.451 37.6312 108.585 37.4969C108.585 37.3625 108.585 37.0938 108.585 36.9594C108.585 36.825 108.585 36.5562 108.585 36.4219V36.2875C108.585 36.1531 108.451 35.8844 108.451 35.75C108.047 34.4062 106.838 33.4656 105.629 33.4656C104.016 33.4656 102.673 35.0781 102.673 36.825C102.673 38.7062 104.016 40.1844 105.763 40.1844C106.838 40.3187 107.913 39.3781 108.451 37.9ZM118.26 36.6906L123.232 34.5406C122.694 33.6 121.888 33.3313 121.216 33.3313C119.201 33.4656 117.991 35.6156 118.26 36.6906ZM138.819 32.1219C138.819 30.7781 137.744 29.8375 136.266 29.8375H133.579V34.5406H136.401C137.744 34.5406 138.819 33.4656 138.819 32.1219Z" fill="#383838"/>
</svg>
