<svg width="36" height="36" viewBox="0 0 36 36" fill="none" xmlns="http://www.w3.org/2000/svg">
<path d="M6.10352e-05 18C6.10352e-05 8.05888 8.05894 0 18.0001 0C27.9412 0 36.0001 8.05888 36.0001 18C36.0001 27.9411 27.9412 36 18.0001 36C8.05894 36 6.10352e-05 27.9411 6.10352e-05 18Z" fill="#F7F9FC"/>
<path fill-rule="evenodd" clip-rule="evenodd" d="M21.3339 10.0233C21.7629 10.4727 21.7464 11.1848 21.2969 11.6138L14.2295 18.3601L21.2969 25.1063C21.7464 25.5353 21.7629 26.2474 21.3339 26.6968C20.9049 27.1463 20.1928 27.1628 19.7434 26.7338L11.8234 19.1738C11.601 18.9615 11.4752 18.6675 11.4752 18.3601C11.4752 18.0526 11.601 17.7586 11.8234 17.5463L19.7434 9.98628C20.1928 9.55727 20.9049 9.57383 21.3339 10.0233Z" fill="#646464"/>
</svg>
