<svg width="240" height="143" viewBox="0 0 240 143" fill="none" xmlns="http://www.w3.org/2000/svg">
<path d="M233.605 79.7719C234.204 77.0905 234.251 73.573 233.747 69.2193C233.097 63.6903 231.623 58.2352 229.323 52.8573C226.452 46.1412 222.469 40.0464 217.377 34.5728C211.304 28.0415 203.824 22.5931 194.937 18.2276C185.333 13.5314 175.171 9.97022 164.454 7.54068C153.882 5.15144 143.168 3.95095 132.31 3.93919C127.983 3.93416 122.373 4.22127 115.477 4.80389C106.506 5.55944 100.899 5.99599 98.6537 6.11352C96.2745 6.23609 93.0575 5.91204 88.9993 5.13969C83.9069 4.04329 79.8957 3.19707 76.9692 2.60438C71.6517 1.51302 66.9069 0.774248 62.7311 0.388075C57.0846 -0.13242 51.6463 -0.129062 46.4195 0.39647C38.9361 1.15203 32.3158 3.28773 26.5568 6.80191C20.7809 10.3161 16.0797 15.0929 12.453 21.1323C8.75919 27.2893 6.30447 34.5443 5.09054 42.9007C3.83632 51.5426 3.95385 61.1097 5.44314 71.6035C6.5345 79.332 9.2545 86.5585 13.6031 93.2796C18.0576 100.164 23.5731 105.494 30.1498 109.272C30.6989 109.591 31.0683 109.813 31.258 109.935C31.661 110.199 31.9934 110.461 32.257 110.725C32.3074 110.775 32.4669 110.946 32.7355 111.237C32.932 111.45 33.1016 111.611 33.2476 111.724C33.5381 111.954 33.9411 112.147 34.4565 112.303C34.742 112.387 35.1785 112.509 35.7662 112.672C36.2699 112.84 36.9465 113.163 37.7978 113.638C38.6994 114.146 39.3676 114.482 39.8042 114.645C40.6605 114.969 41.6713 115.149 42.8348 115.182C43.4779 115.199 44.5189 115.157 45.9578 115.056C48.666 114.877 51.1426 114.801 53.3874 114.83C56.0184 114.863 58.4832 115.036 60.7835 115.35C62.3668 115.569 64.2708 115.916 66.4921 116.391C67.7564 116.66 69.6487 117.075 72.1672 117.634C74.5296 118.137 77.2127 118.636 80.2181 119.128C81.9189 119.408 84.6205 119.821 88.3193 120.371C91.0679 120.785 93.2137 121.098 94.7584 121.311C97.1375 121.635 99.2917 121.893 101.223 122.083C106.936 122.649 114.274 122.926 123.234 122.914C125.686 122.914 129.363 122.901 134.266 122.872C138.581 122.861 142.258 122.901 145.297 122.99C146.249 123.018 149.024 123.127 153.625 123.317C157.021 123.463 159.798 123.541 161.953 123.552C168.328 123.598 173.82 123.127 178.432 122.142C200.797 117.373 216.403 109.709 225.251 99.1478C228.223 95.6 230.403 91.7232 231.791 87.5206C232.25 86.127 232.648 84.6108 232.983 82.9705C233.281 81.3754 233.487 80.3092 233.605 79.7719ZM111.993 74.9531C112.269 75.1395 112.527 75.3528 112.766 75.5912C112.969 75.791 113.142 75.9975 113.286 76.2124C110.806 77.25 108.276 78.061 105.697 78.647C107.741 77.2937 109.839 76.063 111.993 74.9531Z" fill="#CDC6E9"/>
<path d="M212.709 118.75C218.144 117.731 220.861 116.621 220.861 115.417C220.861 113.146 211.111 111.203 191.613 109.591C172.114 107.984 148.574 107.182 120.993 107.182C93.412 107.182 69.8722 107.984 50.3738 109.591C30.8754 111.203 21.1254 113.146 21.1254 115.417C21.1254 116.621 23.842 117.731 29.277 118.75C34.1344 119.657 41.1678 120.488 50.3738 121.243C69.8722 122.85 93.412 123.653 120.993 123.653C148.574 123.653 172.114 122.85 191.613 121.243C200.82 120.488 207.852 119.657 212.709 118.75Z" fill="#010101"/>
<path d="M116.753 29.9388C117.19 28.1641 117.655 26.6681 118.147 25.4475C118.382 24.9555 118.63 24.4602 118.894 23.9616C119.409 22.9709 119.955 21.977 120.531 20.9813C120.821 20.528 121.172 19.994 121.58 19.3778C122.134 18.5383 122.557 17.9137 122.848 17.5057C123.323 16.8173 123.776 16.2163 124.208 15.7008C124.812 14.9906 125.622 14.1477 126.634 13.1739C128.414 11.4831 129.995 10.1886 131.377 9.28696C131.752 9.04686 132.595 8.60696 133.904 7.96893C135.348 7.26878 136.334 6.84735 136.859 6.70127C137.749 6.45446 138.757 6.26473 139.881 6.13041C140.474 6.05821 141.22 5.99105 142.115 5.92893C142.249 5.95075 142.408 5.94068 142.593 5.89535C142.828 5.83322 142.937 5.73584 142.921 5.60152C142.899 5.42858 142.749 5.28251 142.476 5.16497C142.212 5.0592 141.883 4.99707 141.485 4.98028C140.298 4.91312 139.415 4.91816 138.832 4.99707C136.973 5.24892 135.21 5.69051 133.543 6.32349C131.97 6.9229 130.407 7.72044 128.85 8.71609C127.776 9.40449 126.715 10.286 125.669 11.3605C125.316 11.6745 124.933 12.0523 124.519 12.4939C121.468 15.7512 118.731 19.7892 116.308 24.608C114.674 27.8653 113.491 30.8909 112.757 33.6831C112.057 36.4081 111.741 39.0139 111.808 41.4989C111.813 41.8061 111.828 42.1117 111.85 42.4139C111.812 42.5483 111.787 42.696 111.775 42.8589C111.763 43.015 111.766 43.2484 111.783 43.5557L111.901 45.411C111.946 46.1212 112.013 46.6484 112.102 46.9892C112.131 47.1068 112.215 47.367 112.354 47.77C112.46 48.084 112.527 48.3442 112.556 48.5507C112.601 48.8865 112.631 49.0847 112.648 49.1468C112.653 49.1686 112.66 49.1921 112.665 49.2139C112.492 49.2307 112.32 49.2475 112.153 49.2643C112.148 49.2643 112.139 49.2643 112.127 49.2643C109.631 49.8352 107.07 50.8812 104.446 52.4041C103.433 52.9867 102.586 53.5492 101.902 54.0915C99.9662 55.6479 98.3426 57.8239 97.033 60.6229C96.7862 61.1484 96.5461 61.7193 96.311 62.3355C96.0474 62.9903 95.7905 63.6954 95.5387 64.451C95.265 65.2569 94.8587 66.5666 94.3214 68.3799C94.3164 68.3917 94.313 68.4051 94.313 68.4219L93.9436 69.0515C93.8261 69.2647 93.6968 69.3655 93.5575 69.3537C93.4903 69.3487 93.4181 69.3151 93.3392 69.253L93.1293 69.1103C93.1075 68.7913 93.1008 68.4605 93.1125 68.1197C93.1411 67.5488 93.2216 66.8805 93.356 66.1132C93.8714 63.2707 94.7999 60.6598 96.1431 58.2806C95.9971 57.8105 95.8376 57.3437 95.6646 56.8787C95.1273 56.8736 94.6371 57.1221 94.1955 57.6258C93.8479 58.017 93.544 58.5459 93.2804 59.2125C92.5416 61.093 91.9506 63.1884 91.5091 65.5004C91.1514 67.3641 90.866 69.5351 90.6527 72.015C89.8418 81.3671 90.2129 90.6806 91.7693 99.9538C91.9657 101.129 92.1555 102.086 92.3402 102.825C92.6038 103.854 92.9245 104.768 93.3056 105.562C93.8211 106.648 94.4943 107.632 95.3288 108.517C95.6814 108.898 96.0558 109.25 96.4538 109.575C96.4705 109.507 96.4957 109.435 96.5293 109.356C96.8198 108.74 97.0045 108.092 97.0834 107.409C97.1556 106.72 97.1203 106.045 96.9742 105.385C96.9239 105.167 96.9071 105.013 96.9239 104.924C96.9457 104.734 97.0297 104.616 97.1757 104.571C97.2597 104.739 97.3352 104.979 97.4024 105.293C97.6761 106.732 97.5501 108.127 97.0246 109.482C96.9692 109.622 96.902 109.734 96.8231 109.818C96.8114 109.823 96.803 109.831 96.798 109.843C97.2227 110.167 97.6744 110.461 98.1496 110.725C98.5072 110.926 98.8547 111.091 99.1905 111.22C99.2795 111.035 99.4474 110.688 99.6943 110.179C99.9243 109.697 100.052 109.284 100.08 108.937C100.097 108.735 100.085 108.487 100.047 108.189C99.9914 107.859 99.9511 107.61 99.9293 107.442C99.8907 107.09 99.8924 106.557 99.9377 105.847C99.9427 105.751 99.9663 105.674 100.005 105.612C100.055 105.533 100.117 105.503 100.19 105.52C100.262 105.542 100.31 105.615 100.332 105.738C100.371 105.945 100.394 106.213 100.399 106.544C100.411 106.986 100.42 107.254 100.425 107.35C100.436 107.439 100.463 107.64 100.509 107.954C100.547 108.206 100.571 108.408 100.576 108.559C100.593 109.012 100.504 109.511 100.307 110.053C100.195 110.377 99.9965 110.822 99.711 111.388C100.31 111.551 100.873 111.584 101.398 111.489C101.768 111.421 101.983 111.385 102.045 111.379C102.107 111.374 102.166 111.376 102.221 111.388V111.379C102.272 110.501 102.235 109.638 102.112 108.794L101.726 106.611C101.558 105.704 101.398 104.986 101.247 104.454C101.175 104.19 101.105 103.97 101.037 103.79L100.912 103.463C100.475 103.082 100.052 102.657 99.6439 102.187C98.5307 100.916 97.5065 99.257 96.5713 97.2086C95.4128 94.6951 94.5565 92.0708 94.0024 89.334C93.4433 86.5972 93.2049 83.847 93.2888 81.0817C93.3006 80.8181 93.3728 80.6669 93.5071 80.6283C93.6246 80.5897 93.722 80.6418 93.8009 80.7878C93.8681 80.9104 93.8983 81.0531 93.8933 81.216C93.8765 82.8329 94.041 84.5539 94.3886 86.379C94.679 87.9018 95.1189 89.5775 95.7066 91.4076C96.5343 93.9933 97.4578 96.1844 98.477 97.9809C99.2157 99.2855 100.03 100.437 100.92 101.44C100.925 101.411 100.932 101.386 100.937 101.364C101.704 102.12 102.574 102.758 103.548 103.278C103.737 103.434 103.93 103.575 104.127 103.698C104.491 103.928 104.928 104.143 105.436 104.344C105.47 104.356 105.507 104.37 105.546 104.386C104.416 101.582 103.475 99.0438 102.725 96.772C101.466 92.9724 100.546 89.3961 99.9629 86.0432C99.9008 85.6906 99.9579 85.4689 100.131 85.3799C100.265 85.3128 100.399 85.3514 100.534 85.4975C100.646 85.615 100.73 85.7695 100.786 85.9592C101.843 89.4734 102.997 92.9473 104.244 96.3775C104.266 96.4497 104.295 96.5252 104.328 96.6041C104.384 96.8174 104.446 97.0441 104.513 97.2841C105.319 100.105 106.447 103.265 107.896 106.762C108.517 108.262 109.872 111.343 111.959 116.005C112.408 117.008 112.765 117.756 113.034 118.255C113.286 118.708 113.546 119.12 113.815 119.489C114.162 120.178 114.475 120.76 114.755 121.235C114.777 121.308 114.802 121.366 114.831 121.412C114.847 121.44 114.864 121.465 114.881 121.487C115.346 121.593 115.867 121.672 116.442 121.722C116.946 121.768 117.702 121.818 118.709 121.873C118.956 121.895 119.193 121.92 119.423 121.949C133.98 121.999 148.596 121.828 163.27 121.437C162.688 120.962 162.115 120.391 161.549 119.724C160.983 119.058 160.228 118.025 159.283 116.626C157.86 114.511 156.828 112.904 156.185 111.808C154.484 108.903 152.995 105.641 151.719 102.019C150.644 98.9581 149.674 95.4926 148.805 91.6259C148.235 89.0788 147.55 85.5512 146.749 81.0397C145.854 75.9976 145.196 72.4599 144.776 70.4283C144.541 69.3084 144.334 68.4051 144.155 67.7167C143.891 66.7311 143.597 65.8496 143.273 65.0722C142.781 63.8919 142.027 62.5336 141.015 61.0006C139.71 59.0244 138.404 57.3622 137.094 56.014C136.461 55.3642 135.818 54.7765 135.163 54.251C134.844 53.9034 134.445 53.5676 133.963 53.2436C133.157 52.6945 131.999 52.0817 130.487 51.4051C129.312 50.8846 128.293 50.4732 127.432 50.171C126.307 49.7798 125.249 49.4994 124.258 49.3315C124.011 49.2929 123.405 49.2106 122.437 49.088C122.285 49.0712 122.139 49.0511 122 49.0293C121.626 48.9067 121.08 48.7774 120.363 48.6431C120.15 48.6045 119.963 48.5726 119.8 48.5507C119.577 48.4718 119.364 48.3862 119.162 48.2905C119.095 48.2569 119.031 48.2233 118.969 48.1897C118.712 48.0218 118.466 47.8405 118.231 47.6441C118.214 47.6222 118.197 47.5987 118.18 47.5769C117.374 46.363 116.753 44.9879 116.316 43.4549C115.914 42.0395 115.684 40.5385 115.628 38.9552C115.578 37.5397 115.662 36.0253 115.88 34.4134C116.065 33.082 116.357 31.591 116.753 29.9388ZM131.663 59.2041C131.864 59.3048 132.103 59.5349 132.376 59.8925C132.64 60.2232 132.816 60.4936 132.905 60.7068C133.001 60.9368 133.07 61.2978 133.115 61.7898L132.947 61.8317C132.578 60.774 132.057 60.0016 131.386 59.5147C131.29 59.4425 131.24 59.3804 131.235 59.33C131.23 59.2847 131.243 59.2427 131.277 59.2041C131.31 59.1705 131.349 59.1487 131.394 59.1369C131.461 59.1269 131.552 59.1487 131.663 59.2041ZM136.406 67.4816C136.322 67.3356 136.209 67.1626 136.07 66.9611C135.89 66.6875 135.731 66.5044 135.592 66.4155C135.603 66.3365 135.642 66.2727 135.709 66.2224C135.776 66.167 135.848 66.1418 135.927 66.1468C135.995 66.1183 136.065 66.125 136.137 66.1636C136.204 66.1922 136.26 66.2392 136.305 66.3063C136.361 66.3903 136.423 66.5246 136.49 66.7093C136.545 66.81 136.649 66.9561 136.8 67.1458C136.93 67.3641 136.977 67.6025 136.943 67.8594C136.931 67.9316 136.915 67.982 136.893 68.0105C136.842 68.0609 136.797 68.0743 136.759 68.0525C136.737 68.0475 136.705 68.0189 136.666 67.9685L136.406 67.4816ZM134.912 70.7305C135.007 71.1839 134.954 71.4995 134.752 71.6792C134.63 71.607 134.547 71.424 134.509 71.1335C134.386 70.1932 134.106 69.3336 133.669 68.5562C133.513 68.2825 133.337 68.0223 133.14 67.7755C132.994 67.5908 132.9 67.4531 132.855 67.3641C132.766 67.2012 132.734 67.0501 132.762 66.9108C132.616 66.894 132.531 66.8184 132.502 66.6841C132.541 66.5951 132.62 66.5531 132.737 66.5582C132.843 66.5632 132.934 66.6052 133.006 66.6841C133.09 66.7848 133.17 66.9662 133.249 67.2298C133.305 67.3523 133.404 67.4951 133.543 67.6579C133.745 67.888 133.859 68.0223 133.887 68.0609C134 68.212 134.128 68.4605 134.274 68.8081C134.593 69.5754 134.806 70.2168 134.912 70.7305ZM139.84 73.4337C139.912 73.4505 139.97 73.4337 140.016 73.3834C140.306 73.6738 140.503 74.0164 140.603 74.4076C140.649 74.5536 140.687 74.777 140.721 75.0792C140.755 75.4032 140.743 75.6383 140.687 75.7844C140.615 75.8012 140.561 75.7709 140.528 75.692C140.516 75.6702 140.506 75.6047 140.494 75.4989C140.483 75.4435 140.452 75.373 140.402 75.2891C140.347 75.1883 140.313 75.1178 140.301 75.0792C140.284 75.0171 140.271 74.9365 140.259 74.8357C140.254 74.7064 140.248 74.6258 140.242 74.5923C140.221 74.4747 140.17 74.3454 140.091 74.2061C139.991 74.0499 139.915 73.9291 139.865 73.8451C139.754 73.6604 139.745 73.5244 139.84 73.4337ZM137.934 77.0016C138.001 77.047 138.06 77.1309 138.11 77.2535C138.525 78.088 138.765 78.9745 138.832 79.9147C138.854 80.133 138.844 80.3143 138.799 80.4604C138.787 80.5225 138.762 80.5729 138.723 80.6115C138.684 80.6501 138.639 80.6669 138.589 80.6619C138.476 80.3983 138.375 80.0037 138.286 79.4782C138.186 78.9241 138.09 78.5262 138.001 78.2861C137.883 78.0057 137.8 77.7958 137.749 77.6565C137.66 77.4097 137.627 77.1914 137.648 77.0016C137.682 76.9681 137.727 76.9513 137.783 76.9513C137.838 76.9513 137.89 76.9681 137.934 77.0016ZM134.626 81.2328C134.609 81.1539 134.618 81.0783 134.651 81.0061C134.685 80.9272 134.732 80.9003 134.794 80.9221C135.37 83.345 135.714 85.8165 135.827 88.335C135.664 88.0949 135.555 87.786 135.499 87.4115C135.477 87.2655 135.452 86.9297 135.424 86.4041C135.39 85.6654 135.286 84.8007 135.113 83.8101C134.895 82.6633 134.734 81.8036 134.626 81.2328ZM137.741 82.6767C137.875 82.9067 137.956 83.167 137.984 83.4575L138.001 83.8772C138.006 83.9158 138.026 84.025 138.06 84.2046C138.088 84.339 138.098 84.4481 138.093 84.532C138.082 84.6546 138.048 84.7386 137.993 84.7839C137.892 84.7453 137.82 84.6277 137.774 84.4313L137.472 83.0125C137.45 82.9067 137.45 82.8278 137.472 82.7775C137.489 82.7271 137.526 82.6902 137.581 82.6683C137.643 82.6465 137.697 82.6499 137.741 82.6767Z" fill="white"/>
<path d="M119.616 16.5069C118.278 18.3084 117.111 20.0462 116.116 21.7202C115.07 23.4882 114.113 25.3502 113.245 27.3029C112.837 28.2314 112.439 29.2472 112.053 30.3503C111.482 31.9454 111.032 33.4011 110.701 34.7158C110.298 36.289 110.033 37.7833 109.903 39.1988C109.606 42.4057 109.982 45.2734 111.028 47.8037C110.62 47.8877 110.206 47.9884 109.786 48.1059C108.589 48.4468 107.234 48.9622 105.723 49.6506C104.502 50.2097 103.506 50.7302 102.734 51.2121C100.472 52.6175 98.5499 54.5231 96.9666 56.9292C96.6593 56.2693 96.2664 55.8546 95.7913 55.6867C95.3497 55.5238 94.8728 55.5742 94.3641 55.8378C93.9275 56.0561 93.5296 56.3885 93.172 56.8368C92.7858 57.3237 92.4383 57.903 92.131 58.5746C91.8909 59.09 91.6441 59.7247 91.3922 60.4803C90.6199 62.8259 90.0289 65.4132 89.6209 68.2457C89.2901 70.5577 89.0584 73.2106 88.9241 76.2043C88.6269 83.1268 88.8955 90.0175 89.73 96.8729C89.9936 99.0557 90.2975 100.844 90.6451 102.237C91.1152 104.168 91.7566 105.844 92.5675 107.266C93.5028 108.923 94.7032 110.275 96.169 111.321C97.7523 112.458 99.4129 113.055 101.147 113.117C101.769 113.151 102.23 113.042 102.532 112.79C102.621 112.718 102.695 112.634 102.751 112.538C102.796 112.543 102.846 112.543 102.902 112.538C103.098 112.521 103.243 112.441 103.338 112.295C103.417 112.177 103.461 111.971 103.473 111.673C103.49 111.203 103.495 110.78 103.49 110.406C103.49 109.919 103.469 109.462 103.431 109.037C103.419 108.908 103.364 108.514 103.263 107.854C103.028 106.443 102.813 105.394 102.616 104.706V104.697C102.964 104.899 103.318 105.078 103.683 105.234C103.845 105.323 104.015 105.411 104.195 105.495C104.682 105.725 105.399 106.002 106.344 106.326C106.456 106.599 106.571 106.877 106.688 107.157C108.036 110.364 109.249 112.986 110.323 115.023C110.916 116.143 111.524 117.201 112.145 118.196C112.246 118.527 112.346 118.86 112.447 119.195C112.581 119.649 112.761 119.951 112.984 120.102C113.018 120.337 113.077 120.592 113.161 120.866C112.82 120.681 112.518 120.466 112.254 120.22C112.131 120.102 112.049 120.027 112.011 119.993C111.91 119.914 111.814 119.862 111.725 119.833C111.552 119.778 111.381 119.805 111.213 119.917C111.04 120.03 110.941 120.174 110.919 120.354C110.891 120.555 110.965 120.785 111.137 121.042C111.495 121.596 111.994 122.055 112.632 122.419C112.644 122.431 112.657 122.444 112.674 122.461C112.741 122.528 112.833 122.575 112.951 122.604C112.963 122.604 112.984 122.609 113.018 122.621C113.32 122.76 113.669 122.889 114.067 123.007C114.123 123.103 114.18 123.183 114.235 123.25C114.398 123.447 114.576 123.564 114.773 123.603C114.945 123.636 115.113 123.603 115.276 123.502C115.365 123.447 115.439 123.381 115.495 123.309C116.984 123.539 118.374 123.547 119.667 123.334C134.733 123.524 149.861 123.418 165.051 123.015C165.425 123.003 165.744 122.936 166.008 122.814C166.332 122.651 166.49 122.431 166.478 122.151C166.478 122.055 166.458 121.971 166.419 121.899C166.436 121.776 166.424 121.643 166.385 121.504C166.318 121.291 166.197 121.104 166.024 120.942C165.89 120.819 165.711 120.695 165.487 120.572C165.224 120.443 165.029 120.342 164.9 120.27C164.216 119.906 163.56 119.36 162.927 118.633C162.524 118.18 162.007 117.483 161.374 116.543C160.512 115.262 159.933 114.397 159.636 113.949C158.993 112.97 158.439 112.085 157.974 111.296C155.662 107.379 153.726 102.842 152.164 97.6873C150.95 93.6795 149.839 88.8338 148.831 83.147C148.356 80.3766 147.997 78.2997 147.757 76.9178C147.332 74.4547 146.939 72.3879 146.581 70.7139C146.095 68.3968 145.579 66.5281 145.037 65.106C144.236 63.0122 143.067 60.8832 141.528 58.7173C138.729 54.7767 135.604 52.013 132.15 50.423C131.277 50.02 130.266 49.6456 129.12 49.298C128.415 49.0848 127.37 48.8027 125.988 48.4501C124.523 48.069 123.386 47.8155 122.58 47.6862C122.088 47.6022 121.615 47.5435 121.161 47.5099C120.646 47.3369 120.167 47.1153 119.726 46.8467C119.625 46.7913 119.538 46.7459 119.465 46.7123C119.41 46.6284 119.339 46.5226 119.255 46.3933C118.119 44.7093 117.397 42.7029 117.09 40.3741C116.826 38.376 116.875 36.1933 117.232 33.8259C117.765 30.2832 118.827 26.8781 120.422 23.6091C122.017 20.3401 124.049 17.4085 126.517 14.8111C128.594 12.6283 130.827 10.8654 133.217 9.52216C135.539 8.22428 137.889 7.3982 140.268 7.04561C140.475 7.03386 140.775 7.01707 141.167 6.99524C141.502 6.97845 141.791 6.97341 142.031 6.97845C142.59 6.9902 143.076 6.88946 143.484 6.67623C143.92 6.4462 144.142 6.15069 144.147 5.78635C144.147 5.44551 143.949 5.16511 143.551 4.94684C142.795 4.53212 141.914 4.27188 140.906 4.1661C140.089 4.07711 139.152 4.08718 138.094 4.19968C136.343 4.37262 134.674 4.72353 133.091 5.24906C131.412 5.80818 129.88 6.54694 128.498 7.46536C125.661 9.33579 122.701 12.3496 119.616 16.5069ZM118.147 25.4476C117.655 26.6683 117.19 28.1643 116.754 29.939C116.356 31.5895 116.065 33.0821 115.881 34.4136C115.662 36.0254 115.578 37.5399 115.629 38.9553C115.684 40.5386 115.914 42.0396 116.317 43.4551C116.754 44.988 117.375 46.3631 118.181 47.577C118.198 47.5989 118.214 47.6224 118.231 47.6442C118.466 47.8406 118.713 48.022 118.97 48.1899C119.032 48.2235 119.096 48.257 119.163 48.2906C119.365 48.3863 119.578 48.472 119.801 48.5509C119.964 48.5727 120.15 48.6046 120.364 48.6432C121.081 48.7775 121.626 48.9068 122.001 49.0294C122.14 49.0512 122.286 49.0714 122.437 49.0882C123.406 49.2107 124.012 49.293 124.259 49.3316C125.25 49.4995 126.307 49.7799 127.432 50.1711C128.294 50.4733 129.313 50.8847 130.488 51.4052C131.999 52.0818 133.158 52.6947 133.964 53.2437C134.446 53.5678 134.845 53.9036 135.164 54.2511C135.819 54.7767 136.462 55.3643 137.095 56.0141C138.405 57.3623 139.711 59.0246 141.016 61.0008C142.028 62.5337 142.782 63.892 143.274 65.0724C143.598 65.8498 143.892 66.7313 144.155 67.7168C144.335 68.4052 144.541 69.3085 144.777 70.4284C145.196 72.4601 145.854 75.9977 146.749 81.0398C147.55 85.5513 148.235 89.0789 148.806 91.626C149.674 95.4928 150.645 98.9583 151.719 102.019C152.995 105.641 154.485 108.903 156.185 111.808C156.829 112.904 157.861 114.511 159.283 116.627C160.229 118.025 160.984 119.058 161.55 119.724C162.116 120.391 162.688 120.962 163.271 121.437C148.596 121.828 133.98 121.999 119.423 121.949C119.193 121.92 118.957 121.895 118.71 121.873C117.702 121.818 116.947 121.768 116.443 121.722C115.867 121.672 115.347 121.593 114.882 121.487C114.865 121.465 114.848 121.44 114.831 121.412C114.803 121.366 114.778 121.308 114.756 121.235C114.475 120.76 114.163 120.178 113.815 119.489C113.547 119.12 113.287 118.709 113.035 118.255C112.766 117.757 112.408 117.008 111.96 116.005C109.873 111.343 108.518 108.262 107.897 106.762C106.448 103.265 105.32 100.105 104.514 97.2843C104.447 97.0442 104.384 96.8175 104.329 96.6043C104.295 96.5254 104.267 96.4498 104.245 96.3776C102.998 92.9474 101.844 89.4735 100.786 85.9593C100.731 85.7696 100.647 85.6151 100.534 85.4976C100.4 85.3515 100.266 85.3129 100.132 85.3801C99.9586 85.4691 99.9015 85.6907 99.9636 86.0433C100.546 89.3963 101.466 92.9726 102.726 96.7722C103.476 99.0439 104.416 101.583 105.546 104.387C105.508 104.37 105.471 104.356 105.437 104.345C104.928 104.143 104.492 103.928 104.128 103.698C103.931 103.576 103.738 103.435 103.548 103.278C102.574 102.758 101.705 102.12 100.937 101.364C100.932 101.386 100.926 101.411 100.921 101.44C100.031 100.437 99.2164 99.2857 98.4777 97.9811C97.4585 96.1845 96.5351 93.9934 95.7073 91.4077C95.1196 89.5776 94.6797 87.902 94.3893 86.3791C94.0417 84.554 93.8772 82.833 93.894 81.2161C93.899 81.0533 93.8688 80.9105 93.8016 80.788C93.7227 80.6419 93.6253 80.5898 93.5078 80.6285C93.3735 80.6671 93.3013 80.8182 93.2895 81.0818C93.2056 83.8471 93.444 86.5974 94.0031 89.3342C94.5572 92.071 95.4135 94.6953 96.572 97.2087C97.5072 99.2571 98.5314 100.916 99.6446 102.187C100.053 102.657 100.476 103.082 100.912 103.463L101.038 103.79C101.105 103.97 101.176 104.19 101.248 104.454C101.399 104.986 101.559 105.705 101.727 106.611L102.113 108.794C102.235 109.638 102.272 110.502 102.222 111.38V111.388C102.166 111.376 102.108 111.375 102.046 111.38C101.983 111.385 101.769 111.422 101.399 111.489C100.874 111.584 100.311 111.551 99.7117 111.388C99.9972 110.822 100.195 110.377 100.308 110.053C100.504 109.511 100.593 109.012 100.576 108.559C100.571 108.408 100.548 108.206 100.509 107.954C100.464 107.64 100.437 107.439 100.425 107.35C100.42 107.254 100.412 106.986 100.4 106.544C100.395 106.213 100.372 105.945 100.333 105.738C100.311 105.616 100.262 105.542 100.19 105.52C100.118 105.503 100.056 105.533 100.006 105.612C99.967 105.674 99.9435 105.752 99.9384 105.847C99.8931 106.557 99.8914 107.09 99.93 107.442C99.9518 107.61 99.9921 107.859 100.048 108.189C100.086 108.487 100.098 108.735 100.081 108.937C100.053 109.284 99.925 109.697 99.695 110.179C99.4481 110.688 99.2802 111.035 99.1913 111.22C98.8555 111.091 98.5079 110.926 98.1503 110.725C97.6751 110.461 97.2235 110.167 96.7987 109.843C96.8037 109.832 96.8121 109.823 96.8238 109.818C96.9028 109.734 96.9699 109.622 97.0253 109.482C97.5509 108.127 97.6768 106.732 97.4031 105.293C97.3359 104.979 97.2604 104.739 97.1764 104.571C97.0304 104.617 96.9464 104.734 96.9246 104.924C96.9078 105.013 96.9246 105.167 96.975 105.386C97.121 106.045 97.1563 106.72 97.0841 107.409C97.0052 108.092 96.8205 108.74 96.53 109.356C96.4964 109.435 96.4713 109.508 96.4545 109.575C96.0565 109.251 95.6821 108.898 95.3295 108.517C94.4951 107.632 93.8218 106.648 93.3063 105.562C92.9252 104.768 92.6045 103.854 92.3409 102.825C92.1562 102.086 91.9665 101.129 91.77 99.9539C90.2136 90.6807 89.8425 81.3672 90.6535 72.0151C90.8667 69.5352 91.1521 67.3642 91.5098 65.5005C91.9513 63.1885 92.5424 61.0931 93.2811 59.2126C93.5447 58.5461 93.8486 58.0172 94.1962 57.6259C94.6378 57.1222 95.128 56.8738 95.6653 56.8788C95.8383 57.3439 95.9978 57.8106 96.1438 58.2808C94.8006 60.6599 93.8721 63.2708 93.3567 66.1134C93.2224 66.8807 93.1418 67.5489 93.1132 68.1198C93.1015 68.4606 93.1082 68.7914 93.13 69.1104L93.3399 69.2531C93.4188 69.3153 93.491 69.3488 93.5582 69.3539C93.6975 69.3656 93.8268 69.2649 93.9443 69.0517L94.3137 68.422C94.3137 68.4052 94.3171 68.3918 94.3221 68.38C94.8594 66.5667 95.2657 65.2571 95.5394 64.4511C95.7913 63.6956 96.0481 62.9904 96.3117 62.3356C96.5468 61.7194 96.7869 61.1485 97.0337 60.623C98.3433 57.8241 99.967 55.6481 101.903 54.0916C102.586 53.5493 103.434 52.9868 104.447 52.4042C107.071 50.8813 109.631 49.8353 112.128 49.2645C112.14 49.2645 112.148 49.2645 112.153 49.2645C112.434 49.2359 112.721 49.2107 113.018 49.1889C113.325 49.1671 113.552 49.1419 113.698 49.1133C113.95 49.063 114.156 48.979 114.319 48.8615C114.353 48.8329 114.386 48.8061 114.42 48.7775C114.487 48.744 114.546 48.707 114.596 48.6684C114.742 48.5509 114.836 48.3998 114.882 48.2151C114.927 48.0186 114.893 47.8574 114.781 47.7282C114.692 47.6224 114.532 47.5519 114.302 47.5183C114.19 47.4729 114.059 47.4478 113.908 47.4427C113.807 47.4545 113.703 47.4646 113.597 47.4763C113.172 47.5048 112.853 47.5233 112.64 47.5351C112.506 47.5519 112.38 47.5653 112.262 47.577C112.257 47.4427 112.246 47.3034 112.229 47.1573C112.212 46.9843 112.167 46.662 112.094 46.1919C111.864 44.6639 111.77 43.0991 111.809 41.499C111.742 39.0141 112.058 36.4082 112.758 33.6832C113.491 30.891 114.675 27.8654 116.309 24.6081C118.732 19.7893 121.468 15.7513 124.519 12.494C124.934 12.0524 125.317 11.6747 125.669 11.3607C126.715 10.2861 127.776 9.40463 128.851 8.71623C130.408 7.72057 131.971 6.92304 133.544 6.32363C135.211 5.69064 136.974 5.24906 138.833 4.99721C139.415 4.9183 140.299 4.91326 141.486 4.98042C141.884 4.99721 142.213 5.05933 142.476 5.16511C142.75 5.28264 142.899 5.42872 142.921 5.60166C142.938 5.73598 142.829 5.83336 142.594 5.89548C142.409 5.94082 142.25 5.95089 142.115 5.92906C141.22 5.99119 140.475 6.05835 139.882 6.13055C138.757 6.26487 137.75 6.4546 136.86 6.70141C136.334 6.84749 135.349 7.26892 133.905 7.96907C132.595 8.60709 131.752 9.047 131.378 9.2871C129.996 10.1887 128.415 11.4832 126.635 13.174C125.622 14.1478 124.813 14.9907 124.209 15.7009C123.777 16.2164 123.324 16.8175 122.849 17.5059C122.558 17.9139 122.135 18.5385 121.581 19.378C121.173 19.9942 120.822 20.5281 120.532 20.9814C119.956 21.9771 119.41 22.9711 118.895 23.9617C118.633 24.4604 118.382 24.9557 118.147 25.4476ZM137.985 83.4576C137.956 83.1671 137.876 82.9069 137.741 82.6769C137.696 82.6483 137.644 82.6466 137.582 82.6685C137.527 82.6903 137.49 82.7272 137.473 82.7776C137.451 82.828 137.451 82.9069 137.473 83.0127L137.775 84.4314C137.82 84.6279 137.893 84.7454 137.993 84.784C138.049 84.7387 138.082 84.6547 138.094 84.5322C138.099 84.4482 138.089 84.3391 138.06 84.2048C138.027 84.0251 138.007 83.916 138.002 83.8774L137.985 83.4576ZM134.795 80.9223C134.733 80.9005 134.686 80.9273 134.652 81.0062C134.618 81.0784 134.61 81.154 134.627 81.2329C134.733 81.8038 134.896 82.6634 135.114 83.8102C135.287 84.8008 135.391 85.6655 135.424 86.4043C135.453 86.9298 135.478 87.2656 135.5 87.4117C135.555 87.7861 135.665 88.095 135.827 88.3351C135.717 85.8166 135.372 83.3468 134.795 80.9223ZM137.783 76.9514C137.728 76.9514 137.683 76.9682 137.649 77.0018C137.627 77.1915 137.661 77.4098 137.75 77.6566C137.8 77.796 137.884 78.0058 138.002 78.2862C138.091 78.5263 138.186 78.9243 138.287 79.4783C138.376 80.0039 138.477 80.3984 138.589 80.662C138.64 80.6671 138.685 80.6503 138.724 80.6117C138.762 80.5731 138.787 80.5227 138.799 80.4606C138.845 80.3145 138.855 80.1331 138.833 79.9149C138.766 78.9746 138.526 78.0881 138.111 77.2536C138.06 77.1311 138.002 77.0471 137.935 77.0018C137.891 76.9682 137.841 76.9514 137.783 76.9514ZM140.017 73.3835C139.971 73.4339 139.912 73.4507 139.84 73.4339C139.745 73.5229 139.753 73.6605 139.865 73.8452C139.916 73.9292 139.991 74.0501 140.092 74.2062C140.171 74.3456 140.221 74.4749 140.243 74.5924C140.248 74.626 140.255 74.7066 140.26 74.8359C140.272 74.9366 140.285 75.0172 140.302 75.0793C140.314 75.1179 140.347 75.1885 140.403 75.2892C140.453 75.3731 140.483 75.4437 140.495 75.4991C140.507 75.6049 140.517 75.6703 140.529 75.6922C140.562 75.7711 140.616 75.8013 140.688 75.7845C140.744 75.6384 140.755 75.4034 140.722 75.0793C140.688 74.7771 140.65 74.5538 140.604 74.4077C140.503 74.0165 140.309 73.6757 140.017 73.3835ZM134.753 71.6793C134.954 71.4997 135.008 71.184 134.912 70.7307C134.807 70.2152 134.593 69.5755 134.274 68.8082C134.128 68.4606 134.001 68.2121 133.888 68.061C133.86 68.0224 133.745 67.8881 133.544 67.6581C133.405 67.4952 133.306 67.3525 133.25 67.2299C133.171 66.9663 133.091 66.785 133.007 66.6842C132.934 66.6053 132.844 66.5634 132.738 66.5583C132.62 66.5533 132.542 66.5953 132.503 66.6842C132.531 66.8186 132.617 66.8941 132.763 66.9109C132.735 67.0503 132.767 67.2014 132.856 67.3642C132.901 67.4532 132.995 67.5909 133.141 67.7756C133.337 68.0224 133.514 68.2827 133.67 68.5563C134.106 69.3337 134.387 70.1934 134.509 71.1336C134.55 71.4258 134.63 71.6071 134.753 71.6793ZM136.071 66.9613C136.21 67.1628 136.323 67.3357 136.407 67.4818L136.667 67.9687C136.706 68.0191 136.737 68.0476 136.759 68.0526C136.798 68.0745 136.843 68.061 136.894 68.0107C136.915 67.9821 136.932 67.9317 136.944 67.8596C136.978 67.6027 136.93 67.3642 136.801 67.146C136.65 66.9562 136.546 66.8102 136.491 66.7094C136.423 66.5247 136.361 66.3904 136.306 66.3065C136.261 66.2393 136.205 66.1923 136.138 66.1637C136.066 66.1251 135.995 66.1184 135.928 66.147C135.849 66.1419 135.777 66.1671 135.71 66.2225C135.643 66.2729 135.604 66.3367 135.592 66.4156C135.733 66.5063 135.893 66.6876 136.071 66.9613ZM132.377 59.8926C132.103 59.535 131.865 59.305 131.663 59.2042C131.551 59.1488 131.462 59.1253 131.395 59.1371C131.349 59.1488 131.311 59.1706 131.277 59.2042C131.244 59.2428 131.23 59.2848 131.235 59.3302C131.24 59.3805 131.291 59.4426 131.386 59.5148C132.058 60.0018 132.578 60.7741 132.948 61.8319L133.116 61.7899C133.07 61.298 133.002 60.937 132.906 60.7069C132.817 60.4954 132.641 60.2234 132.377 59.8926Z" fill="#010101"/>
<path d="M10.908 137.715C10.9248 137.72 10.9416 137.727 10.9584 137.732C13.8849 138.952 16.9323 139.76 20.1006 140.158C21.108 140.28 22.2246 140.373 23.4502 140.435C24.3351 140.473 25.4567 140.507 26.8167 140.536C32.2449 140.648 36.6305 140.608 39.9718 140.418C44.7855 140.138 49.1022 139.503 52.9254 138.512C52.9925 138.496 53.0597 138.482 53.1268 138.47C52.9875 138.291 52.8784 138.155 52.7994 138.059C52.5812 137.795 52.2739 137.488 51.876 137.136C51.2766 136.598 50.9492 136.304 50.8937 136.254C50.5412 135.913 50.155 135.478 49.7352 134.953C49.2651 134.343 48.9092 133.883 48.6691 133.576C48.0764 132.809 47.4635 132.062 46.8305 131.335C46.7684 131.267 46.7096 131.2 46.6542 131.133C45.1599 129.442 43.5447 127.871 41.8103 126.415C40.9489 125.688 40.1816 125.144 39.51 124.786C38.5983 124.304 37.7185 124.076 36.874 124.098C36.2074 124.12 35.43 124.316 34.5401 124.686C33.1516 125.262 31.8755 125.999 30.712 126.894C30.1697 127.313 29.8607 127.548 29.7885 127.599C29.4242 127.846 29.08 128.013 28.7559 128.102C28.5998 128.148 28.4587 128.173 28.3362 128.178C28.2573 128.19 28.1716 128.19 28.0759 128.178C27.992 128.166 27.8493 128.133 27.6478 128.077C26.8536 127.859 25.9637 127.804 24.9781 127.909C24.2226 127.993 23.3327 128.186 22.3085 128.489C21.4237 128.752 20.7051 129.017 20.151 129.286C19.7262 129.499 19.1604 129.84 18.4552 130.31C17.2345 131.104 16.348 131.737 15.7939 132.208C15.1274 132.767 14.3718 133.529 13.5273 134.491C12.6156 135.532 11.7425 136.607 10.908 137.715ZM39.1658 130.822C39.1608 130.861 39.144 130.898 39.1155 130.932C39.0651 131.004 38.961 131.046 38.8048 131.057H38.6369C38.5916 131.057 38.5614 131.052 38.5446 131.041L38.4774 130.999C38.3985 130.92 38.3549 130.853 38.3431 130.797C38.3263 130.696 38.3649 130.599 38.4606 130.503L38.5446 130.436C38.5614 130.431 38.6151 130.428 38.7041 130.428V130.377C38.7662 130.399 38.8603 130.431 38.9895 130.47C39.1071 130.532 39.1692 130.608 39.1742 130.696C39.186 130.742 39.1826 130.784 39.1658 130.822ZM35.5392 131.377V131.326L35.7994 131.368C35.8212 131.368 35.838 131.373 35.8498 131.385L35.8918 131.427L35.9505 131.536L35.9589 131.62C35.9589 131.682 35.9505 131.726 35.9337 131.754C35.8951 131.816 35.8246 131.847 35.7239 131.847L35.4384 131.805L35.3797 131.788L35.3461 131.754L35.2957 131.679L35.2789 131.637L35.2873 131.586L35.3797 131.377H35.5392ZM36.9076 128.17C36.9294 128.175 36.9529 128.195 36.9747 128.228L37.0587 128.312C37.0973 128.358 37.1124 128.425 37.1006 128.514C37.0956 128.559 37.0755 128.626 37.0419 128.715C37.0368 128.744 37.02 128.771 36.9915 128.799L36.9411 128.833L36.8572 128.875L36.8068 128.892L36.7564 128.883L36.5466 128.791C36.5348 128.779 36.5247 128.754 36.513 128.715C36.4626 128.547 36.4844 128.388 36.5801 128.237C36.6087 128.198 36.6339 128.175 36.6557 128.17C36.6725 128.165 36.7111 128.161 36.7732 128.161C36.8521 128.161 36.8975 128.165 36.9076 128.17ZM41.7179 132.804C41.7633 132.82 41.8052 132.842 41.8439 132.871C41.8993 132.926 41.9278 132.992 41.9278 133.064C41.9278 133.092 41.9194 133.131 41.9026 133.181C41.8909 133.22 41.8774 133.249 41.8606 133.265C41.8439 133.294 41.8187 133.311 41.7851 133.316C41.7179 133.354 41.6709 133.375 41.6424 133.375L41.3569 133.341C41.3284 133.341 41.3099 133.336 41.2982 133.324L41.2562 133.282L41.1974 133.19C41.1471 133.111 41.1336 133.042 41.1555 132.98C41.1723 132.93 41.2109 132.888 41.273 132.854L41.4493 132.804V132.745C41.6004 132.773 41.6911 132.794 41.7179 132.804ZM56.4345 97.9389C55.3213 97.9674 54.5036 98.0178 53.9831 98.09C52.6114 98.2797 51.2094 98.7566 49.7772 99.5172C48.6069 100.138 47.3678 100.983 46.0582 102.052C43.1921 104.391 40.4721 107.311 37.8982 110.809C35.8498 113.596 33.7225 117.007 31.5179 121.042C30.7624 122.419 30.2368 123.351 29.9396 123.838C29.3067 124.857 28.6669 125.701 28.0172 126.373C27.9282 126.462 27.8442 126.536 27.7653 126.591C28.0457 126.647 28.269 126.737 28.4369 126.86C28.672 126.754 28.9272 126.608 29.2009 126.423C29.2177 126.412 29.4746 126.222 29.9732 125.853C31.4222 124.756 33.0005 123.863 34.708 123.174C35.5308 122.844 36.2276 122.659 36.7984 122.62C37.6379 122.558 38.5194 122.741 39.4429 123.166C40.143 123.485 40.9288 123.977 41.8019 124.644C43.951 126.284 45.9877 128.22 47.9135 130.453C58.0665 131.751 69.1531 131.62 81.1748 130.058C82.3551 129.907 83.3038 129.76 84.0207 129.614C85.0567 129.407 85.9768 129.143 86.7827 128.824C87.0295 128.729 87.1857 128.673 87.2528 128.656C87.2646 128.651 87.2747 128.648 87.2864 128.648C87.2914 128.626 87.2998 128.606 87.3116 128.589C87.3502 128.517 87.4006 128.452 87.4627 128.396C87.2226 127.971 86.8415 127.59 86.321 127.255C85.9969 127.041 85.5016 126.784 84.8351 126.482C83.9334 126.084 83.2769 125.824 82.8622 125.701C82.3367 125.545 81.7406 125.424 81.0741 125.34C80.609 125.278 79.9995 125.228 79.2439 125.189C78.9635 125.173 78.7688 125.156 78.6563 125.139C78.438 125.105 78.2533 125.047 78.1022 124.963C77.946 124.879 77.7882 124.756 77.6321 124.593C77.5649 124.526 77.4306 124.372 77.2291 124.132C76.754 123.566 75.9866 122.834 74.9289 121.932C74.0272 121.155 73.322 120.614 72.8133 120.312C71.952 119.803 71.0117 119.476 69.9926 119.33C68.9734 119.183 67.9777 119.237 67.0039 119.489C66.8813 119.444 66.8192 119.343 66.8192 119.187C66.8142 119.031 66.8645 118.905 66.9703 118.809C67.066 118.73 67.1886 118.678 67.3397 118.65C67.4237 118.633 67.5613 118.621 67.7511 118.616C68.5855 118.599 69.2336 118.608 69.6987 118.641C70.4157 118.697 71.047 118.817 71.596 119.002C72.1786 119.204 72.8721 119.578 73.678 120.127C75.0212 121.067 76.2217 122.12 77.2795 123.284C77.5481 123.591 77.7546 123.809 77.9007 123.938C78.1475 124.157 78.3927 124.313 78.6395 124.409C78.8023 124.471 79.0005 124.513 79.2355 124.535C79.3195 124.546 79.5243 124.556 79.8484 124.568C81.5156 124.635 83.1141 124.983 84.642 125.609C86.2706 126.269 87.409 127.134 88.0588 128.203C88.1478 128.191 88.2468 128.186 88.3526 128.186C90.4682 128.186 91.9843 128.165 92.9027 128.119C94.5985 128.04 96.1012 127.864 97.4109 127.59C97.7971 127.511 98.3713 127.375 99.1319 127.179C99.6574 127.045 100.094 126.939 100.442 126.86C99.3955 125.416 97.8021 123.065 95.6647 119.808C93.5491 116.579 91.7946 114.103 90.401 112.378C88.6716 110.224 86.6148 108.026 84.2306 105.788C82.3887 104.059 80.1086 102.083 77.3886 99.8614C76.2418 98.9262 75.3234 98.2294 74.635 97.771C73.5722 97.0708 72.5531 96.5655 71.5792 96.2515C69.19 95.4842 66.3038 95.6168 62.9239 96.6461C62.034 96.9365 61.3658 97.1498 60.9175 97.2841C60.1401 97.5191 59.4618 97.682 58.8859 97.771C58.3318 97.8549 57.5158 97.912 56.4345 97.9389ZM48.35 105.243C48.3786 105.142 48.4424 105.063 48.5431 105.008C48.6388 104.945 48.7362 104.924 48.837 104.94V104.89C49.067 104.969 49.2114 105.075 49.2735 105.209C49.3188 105.31 49.3205 105.431 49.2819 105.57C49.2433 105.726 49.1761 105.83 49.0804 105.881C48.9511 105.953 48.7816 105.944 48.5683 105.855C48.4844 105.817 48.4306 105.775 48.4088 105.73C48.392 105.713 48.3786 105.679 48.3668 105.629C48.3232 105.468 48.3165 105.338 48.35 105.243ZM45.7811 109.583C45.6351 109.554 45.5343 109.474 45.4789 109.339C45.4571 109.289 45.4453 109.227 45.4453 109.155C45.4453 109.042 45.4588 108.948 45.4873 108.869C45.5259 108.769 45.5847 108.698 45.6636 108.659C45.7308 108.638 45.7811 108.626 45.8147 108.626C45.9272 108.626 46.0196 108.654 46.0918 108.71C46.1589 108.755 46.2127 108.831 46.2513 108.936C46.2899 109.059 46.2966 109.168 46.2681 109.264C46.2513 109.336 46.2127 109.403 46.1505 109.465C46.0397 109.573 45.9155 109.611 45.7811 109.583ZM49.2483 109.046C49.3323 109.146 49.3692 109.259 49.3575 109.381C49.3457 109.516 49.2937 109.621 49.1979 109.7C49.1644 109.722 49.1425 109.734 49.1308 109.734L49.0636 109.742H48.9629L48.9041 109.734C48.8873 109.734 48.8672 109.722 48.8453 109.7C48.7329 109.605 48.6774 109.494 48.6774 109.365C48.6724 109.235 48.7194 109.118 48.8202 109.012L48.8957 108.962L48.9965 108.953C49.0519 108.941 49.1006 108.945 49.1392 108.962C49.1677 108.973 49.2047 109.002 49.2483 109.046ZM35.388 71.7295C35.158 72.1492 34.9968 72.4296 34.9011 72.569C34.7383 72.799 34.5653 72.977 34.3806 73.1063C34.3974 73.1113 34.4142 73.118 34.431 73.123C35.3545 73.4034 36.2947 73.5764 37.2518 73.6435C37.5204 73.6603 38.108 73.6721 39.0147 73.6771C39.7417 73.6822 40.3277 73.7157 40.7693 73.7779C41.4023 73.8618 41.9698 74.0213 42.4735 74.2564C43.0494 74.525 43.5094 74.8776 43.8503 75.3142C43.9174 75.4031 43.9628 75.4938 43.9846 75.5828C44.0132 75.6953 43.993 75.7843 43.9258 75.8514C43.7915 75.9908 43.5783 75.9236 43.2878 75.65C42.7673 75.1412 42.0823 74.7769 41.231 74.5586C40.588 74.3907 39.7871 74.2933 38.83 74.2648C37.4415 74.2312 36.6356 74.2027 36.4122 74.1808C35.5106 74.0969 34.7467 73.9071 34.1204 73.61C33.9407 73.521 33.798 73.4286 33.6922 73.3329C33.4404 73.3548 33.1667 73.3245 32.8695 73.2406C32.2483 73.0105 31.7899 72.841 31.4927 72.7285C30.351 72.3087 29.1169 72.2634 27.7905 72.5942C26.5648 72.8913 25.4281 73.4555 24.3821 74.29C23.4922 74.9951 22.6275 75.9152 21.788 77.0519C21.2339 77.8025 20.5422 78.8703 19.7144 80.2589C12.4493 92.4317 6.33604 105.179 1.37119 118.498C1.30907 118.666 1.24023 118.812 1.16132 118.935C1.2503 118.947 1.35944 118.964 1.48872 118.985C5.98848 119.803 9.87037 120.27 13.1327 120.387C13.7036 120.409 14.8503 120.426 16.5747 120.438L26.6404 120.471C27.9618 120.483 28.9826 120.443 29.7046 120.354C29.9514 120.32 30.1294 120.3 30.2419 120.295C30.3208 120.29 30.3963 120.29 30.4685 120.295C32.663 116.327 34.8038 112.933 36.8908 110.112C39.6611 106.363 42.5994 103.241 45.7056 100.751C46.9817 99.7271 48.1855 98.9077 49.3155 98.2915C50.6923 97.541 52.0439 97.049 53.3703 96.814C53.9798 96.7082 54.8512 96.6259 55.9812 96.5705C57.2018 96.5084 58.0715 96.4412 58.592 96.369C59.4366 96.2515 61.0568 95.8401 63.4528 95.1349C65.4676 94.5355 67.0963 94.2417 68.3387 94.2535C70.2478 94.2652 72.234 94.8445 74.2992 95.9912C75.7482 96.7972 77.4843 98.0531 79.5042 99.7606C81.7658 101.658 83.7638 103.441 85.4983 105.108C85.5369 105.147 85.5789 105.187 85.6242 105.226C84.7175 102.187 83.9905 99.8815 83.4415 98.3083C82.4005 95.3028 81.2453 92.8011 79.9743 90.8031C78.4682 88.4642 76.8127 86.8775 75.0044 86.0431C74.5964 85.8533 74.002 85.6317 73.2247 85.3799C72.3851 85.1112 71.7891 84.9013 71.4365 84.7502C70.8707 84.5034 70.2696 84.1743 69.6316 83.7596C69.2118 83.4859 68.6493 83.0846 67.9442 82.5591C64.435 79.8609 61.799 77.8411 60.036 76.4979C56.8962 74.0969 54.2014 72.166 51.9515 70.7053C50.6872 69.8825 49.5875 69.2395 48.6523 68.7744C47.4098 68.1532 46.2227 67.7133 45.0928 67.4564C43.7882 67.1592 42.5188 67.1038 41.2814 67.2885C39.9432 67.495 38.7914 67.9685 37.8226 68.7072C36.8992 69.4074 36.0882 70.4148 35.388 71.7295ZM60.078 85.5562C60.083 85.489 60.1367 85.405 60.2375 85.3043C60.2593 85.2825 60.2794 85.2674 60.2962 85.2623H60.3802C60.4188 85.2674 60.4725 85.2707 60.5397 85.2707C60.5565 85.2758 60.5817 85.2959 60.6153 85.3295L60.7076 85.4386C60.763 85.5276 60.7664 85.62 60.716 85.7157C60.6874 85.766 60.6488 85.8114 60.5985 85.85L60.5397 85.892L60.4809 85.9004H60.3466L60.2878 85.892L60.2375 85.8584C60.1199 85.7526 60.0679 85.6519 60.078 85.5562ZM55.8552 86.6643C55.8502 86.5753 55.8939 86.483 55.9896 86.3873C56.0231 86.3537 56.0517 86.3335 56.0735 86.3285L56.1491 86.3201H56.2498L56.317 86.3285C56.3455 86.3335 56.3673 86.3503 56.3841 86.3789C56.4345 86.4175 56.4714 86.4595 56.4933 86.5048C56.5436 86.5938 56.5403 86.6845 56.4849 86.7734C56.463 86.8121 56.4228 86.8574 56.3673 86.9078L56.317 86.9413L56.2582 86.9497H56.1323L56.0735 86.9413L56.0147 86.8994C55.9207 86.8053 55.867 86.7264 55.8552 86.6643ZM59.0538 88.8638C59.0655 88.8638 59.0873 88.8756 59.1209 88.8974C59.2385 88.9931 59.2888 89.0989 59.272 89.2164C59.2603 89.2836 59.2099 89.3558 59.1209 89.4347C59.0991 89.4565 59.079 89.4716 59.0622 89.4767L59.0034 89.4851H58.8607L58.8019 89.4767L58.7599 89.4431L58.676 89.3507C58.6424 89.3121 58.6172 89.2634 58.6004 89.208C58.5887 89.1123 58.6374 89.0116 58.7431 88.9058L58.8103 88.8638C58.8271 88.8588 58.8691 88.8554 58.9362 88.8554C59.0034 88.8554 59.0437 88.8588 59.0538 88.8638ZM10.9836 107.425H11.0843L11.1515 107.434C11.18 107.445 11.2018 107.462 11.2186 107.484L11.3278 107.602C11.3731 107.697 11.3731 107.79 11.3278 107.879L11.2102 108.013L11.1515 108.047L11.0927 108.055H10.9668L10.9164 108.047C10.9114 108.047 10.8912 108.038 10.8576 108.021C10.7401 107.916 10.6864 107.808 10.6981 107.702C10.7149 107.63 10.7602 107.56 10.8324 107.493C10.866 107.459 10.8946 107.439 10.9164 107.434L10.9836 107.425ZM10.0013 113.235V113.184C10.1306 113.196 10.233 113.248 10.3119 113.344C10.3573 113.399 10.3875 113.458 10.4043 113.52C10.4328 113.616 10.4328 113.71 10.4043 113.806C10.3825 113.885 10.3405 113.952 10.2784 114.007C10.2162 114.069 10.1474 114.103 10.0685 114.108C9.95096 114.12 9.81664 114.066 9.66553 113.948L9.57318 113.839C9.52785 113.755 9.5396 113.633 9.60676 113.47C9.64034 113.386 9.67728 113.327 9.7159 113.294C9.79985 113.221 9.89555 113.201 10.0013 113.235ZM42.4399 43.6731C42.1427 43.2752 41.6726 42.7799 41.0295 42.1872C40.4419 41.6499 39.9348 41.2587 39.51 41.0119C38.9005 40.6542 38.3129 40.483 37.7471 40.4998C37.507 40.9414 37.4499 41.4686 37.5792 42.078C37.6749 42.5314 37.878 43.0603 38.192 43.6647C38.8015 44.84 39.3841 45.7182 39.9382 46.3008C40.7726 47.1739 41.6793 47.6809 42.6582 47.8203C43.1115 47.8874 43.444 47.8169 43.6572 47.6104C43.9594 47.3132 43.9594 46.7994 43.6572 46.0657C43.4389 45.5234 43.2626 45.112 43.1283 44.8316C42.91 44.385 42.6817 43.9988 42.4399 43.6731ZM59.2133 41.3141L58.8103 41.7255C58.6474 41.8883 58.4947 41.9807 58.3486 42.0025C58.1421 42.031 57.8902 41.9236 57.593 41.6835C56.3959 40.6375 55.4909 39.8617 54.8814 39.358C53.8018 38.4564 52.8129 37.8167 51.918 37.4356C51.2799 37.1669 50.8098 37.1703 50.5076 37.444C50.3061 37.6287 50.2003 37.9443 50.1886 38.3926C50.16 39.3715 50.343 40.3016 50.7342 41.1798C50.8518 41.4434 50.9273 41.6365 50.9609 41.759C51.0163 41.9891 51.0062 42.1821 50.9273 42.3383C50.8887 42.4273 50.8098 42.528 50.6923 42.6405C50.5412 42.7866 50.4488 42.8789 50.4152 42.9176C50.2255 43.1744 50.1499 43.5354 50.1886 44.0005C50.2272 44.4757 50.3649 44.9878 50.5999 45.5368C50.746 45.8726 50.9911 46.3511 51.3387 46.9724C52.1228 48.3777 52.7575 49.4204 53.2444 50.1037C54.0285 51.2069 54.8613 52.0732 55.7461 52.7062C56.0601 52.9245 56.27 53.084 56.3757 53.1847C56.589 53.3862 56.7199 53.5961 56.7703 53.8144C56.7988 53.9201 56.8089 54.0545 56.8039 54.2173C56.7989 54.3063 56.7905 54.439 56.7787 54.6119C56.7619 55.0484 56.8459 55.5186 57.0306 56.0223C57.1598 56.3698 57.3714 56.8064 57.6686 57.3319C58.3906 58.6247 59.1041 59.7497 59.8093 60.7067C60.6539 61.8535 61.5387 62.8424 62.4622 63.6702C63.5032 64.5987 64.6113 65.3358 65.7866 65.8781C67.0627 66.4708 68.3387 66.8016 69.6148 66.8687C70.9748 66.9476 72.0493 66.684 72.8385 66.0796C73.2414 65.7656 73.5722 65.3542 73.8291 64.8455C74.0642 64.3804 74.2203 63.8683 74.2992 63.3092C74.3714 62.8391 74.3916 62.3068 74.358 61.7141C74.3412 61.328 74.2875 60.794 74.1985 60.1107C73.9517 58.1345 73.6528 56.5394 73.3002 55.3255C72.8015 53.6078 72.1031 52.1773 71.2014 51.0356C70.7867 50.5201 70.3905 50.2347 70.0093 50.1793C69.8582 50.1575 69.6097 50.1743 69.2622 50.2297C68.9381 50.2851 68.6913 50.2884 68.5234 50.2381C68.2598 50.1659 68.0331 49.9812 67.8434 49.684C67.7208 49.4993 67.5865 49.2105 67.4404 48.8193C66.8813 47.3636 66.1023 46.0187 65.1066 44.7813C64.116 43.5438 62.9692 42.4978 61.6646 41.6415C61.2281 41.351 60.8117 41.1663 60.4138 41.0874C59.9218 40.9817 59.5222 41.0572 59.2133 41.3141ZM56.8711 44.6637C56.9214 44.6856 56.96 44.7091 56.9886 44.7309C57.0222 44.7477 57.0557 44.7863 57.0893 44.8484C57.1682 45.0046 57.1783 45.154 57.1229 45.2934C57.0944 45.3656 57.0507 45.4243 56.9886 45.4697C56.9214 45.52 56.8509 45.5452 56.7787 45.5452C56.6729 45.5503 56.5638 45.5083 56.4513 45.4193C56.3791 45.374 56.3254 45.3152 56.2918 45.243C56.2582 45.159 56.275 45.0499 56.3422 44.9156C56.3976 44.793 56.4563 44.7175 56.5185 44.6889C56.5739 44.6604 56.6477 44.652 56.7367 44.6637V44.6134C56.7485 44.6201 56.7938 44.6369 56.8711 44.6637ZM54.4785 45.2262C54.4835 45.2934 54.4751 45.3639 54.4533 45.4361C54.4146 45.609 54.3307 45.7249 54.2014 45.7803C54.0956 45.8307 53.9546 45.8223 53.7817 45.7551C53.6692 45.7098 53.597 45.6544 53.5634 45.5872C53.5416 45.5586 53.5248 45.5083 53.513 45.4361C53.5013 45.3236 53.4996 45.2396 53.5046 45.1842C53.5214 45.0717 53.5802 44.9794 53.6809 44.9072C53.7817 44.8283 53.8874 44.8014 53.9999 44.8232V44.7729C54.1343 44.8115 54.2384 44.8619 54.3106 44.924C54.418 45.0079 54.4734 45.1087 54.4785 45.2262ZM55.4523 48.6094C55.4976 48.4869 55.548 48.3945 55.6034 48.3324C55.6991 48.2367 55.7965 48.2115 55.8972 48.2568V48.2065C56.0315 48.2182 56.1407 48.282 56.2246 48.3995C56.2582 48.4449 56.2884 48.512 56.317 48.601C56.3388 48.6799 56.3506 48.7353 56.3506 48.7689C56.3506 48.831 56.3422 48.8865 56.3254 48.9368C56.275 49.093 56.1961 49.1971 56.0903 49.2474C55.9274 49.3264 55.7663 49.2978 55.6034 49.1635C55.5194 49.0913 55.4657 49.0157 55.4439 48.9368C55.417 48.8596 55.4187 48.7505 55.4523 48.6094ZM61.8661 59.2796C61.8208 59.2342 61.7939 59.199 61.7822 59.1704C61.7318 59.0747 61.7519 58.9404 61.8409 58.7675C61.8745 58.7003 61.9047 58.6533 61.9333 58.6247C62.0122 58.5525 62.1045 58.5358 62.2103 58.5744V58.5072C62.2657 58.5358 62.3497 58.571 62.4622 58.6163C62.4958 58.6449 62.5293 58.6869 62.5629 58.7423C62.6418 58.8766 62.6586 59.016 62.6133 59.162C62.5679 59.3131 62.4672 59.4055 62.3111 59.4391C62.1549 59.4626 62.0072 59.4088 61.8661 59.2796ZM32.0888 12.9891C31.0982 12.1832 30.0202 11.4998 28.8567 10.9407C27.6982 10.3816 26.4943 9.96352 25.2468 9.68984C24.8657 9.61092 24.5869 9.62268 24.4073 9.72342C24.2008 9.84598 24.058 10.1012 23.9791 10.4874C23.8331 11.2429 23.8918 12.0858 24.1554 13.0143C24.3183 13.6019 24.6339 14.4129 25.1041 15.4489C25.6027 16.5402 26.0023 17.3512 26.3046 17.8834C26.7965 18.7565 27.3237 19.4819 27.8828 20.0578C28.0172 20.1971 28.222 20.4053 28.4957 20.679C28.7257 20.9258 28.8903 21.1609 28.991 21.3842C29.08 21.5806 29.1505 21.8241 29.2009 22.1146C29.2294 22.2825 29.263 22.5377 29.3016 22.8785C29.4359 23.8137 29.7583 24.7288 30.267 25.6237C30.7372 26.4464 31.3416 27.2137 32.0804 27.9239C32.7352 28.5569 33.5109 29.1547 34.4058 29.7205C35.1278 30.1738 35.9841 30.644 36.9747 31.1309C38.3062 31.7974 39.4479 32.2172 40.3999 32.3901C40.8247 32.469 41.3099 32.5194 41.8523 32.5412C42.1763 32.553 42.6615 32.5547 43.3046 32.5496C43.7361 32.5496 44.0719 32.5362 44.312 32.5077C44.6814 32.4573 45.0004 32.3649 45.2691 32.2306C45.8903 31.9116 46.4024 31.245 46.8054 30.2326C47.3426 28.8776 47.6062 27.4572 47.5945 25.9679C47.5777 24.4786 47.2889 23.0632 46.7298 21.72C46.4108 20.9594 45.9289 20.0829 45.2858 19.0923C43.9208 16.9936 42.4869 15.4153 40.9876 14.3575C40.0759 13.7077 39.1155 13.2326 38.1081 12.9303C37.0284 12.6063 35.9723 12.5055 34.9431 12.6281C34.8877 12.885 34.7282 13.0814 34.4646 13.2158C34.2077 13.3451 33.9558 13.3618 33.709 13.2661C33.6251 13.3887 33.4992 13.4676 33.3313 13.5012C33.1801 13.5398 33.0257 13.5348 32.8695 13.4844C32.7402 13.4458 32.6042 13.3753 32.4582 13.2745C32.4028 13.2359 32.2802 13.1402 32.0888 12.9891ZM32.5169 21.2834C32.4279 21.3338 32.3373 21.3472 32.2483 21.3254C32.1694 21.3137 32.0854 21.2666 31.9964 21.1827C31.941 21.1323 31.9007 21.0853 31.8789 21.04C31.8403 20.956 31.8537 20.8435 31.9209 20.7042C31.9377 20.6488 31.9629 20.5984 31.9964 20.5531C32.0854 20.4473 32.1929 20.4154 32.3155 20.4607V20.4103C32.4666 20.4271 32.5807 20.4977 32.6596 20.6202C32.7151 20.7159 32.7402 20.8083 32.7352 20.8973C32.7352 20.9695 32.7234 21.0316 32.7016 21.082C32.668 21.1659 32.6076 21.2331 32.5169 21.2834ZM32.4582 23.8523C32.3792 23.8406 32.2953 23.7936 32.2063 23.7096C32.1509 23.6592 32.1106 23.6122 32.0888 23.5669C32.0502 23.4829 32.0636 23.3705 32.1308 23.2311C32.1475 23.1757 32.1727 23.1253 32.2063 23.08C32.2953 22.9742 32.4028 22.9423 32.5253 22.9876V22.9373C32.6764 22.9541 32.7906 23.0246 32.8695 23.1471C32.9249 23.2428 32.9501 23.3352 32.9451 23.4242C32.9451 23.4964 32.9333 23.5585 32.9115 23.6089C32.8779 23.6928 32.8158 23.76 32.7268 23.8104C32.6378 23.8607 32.5488 23.8758 32.4582 23.8523ZM30.8379 17.2034C30.8883 17.237 30.9269 17.2823 30.9554 17.3378C30.989 17.4049 31.0025 17.4754 30.9974 17.5476C30.9924 17.6265 30.9638 17.687 30.9135 17.7323C30.8681 17.7827 30.7993 17.8213 30.7036 17.8499L30.6196 17.8666L30.5525 17.8499L30.3846 17.7911L30.3342 17.7659C30.3124 17.7491 30.2956 17.7206 30.2838 17.682C30.2385 17.5695 30.22 17.4838 30.2251 17.4217C30.2368 17.3159 30.2922 17.2337 30.393 17.1782C30.4719 17.1329 30.5693 17.1195 30.6868 17.1363C30.7489 17.1531 30.7993 17.1766 30.8379 17.2034ZM217.267 112.311C217.032 112.11 216.671 111.745 216.184 111.22C214.477 109.39 212.39 107.565 209.922 105.746C208.226 104.499 205.906 102.954 202.962 101.112C201.926 100.457 201.093 99.9873 200.46 99.7019C199.492 99.2603 198.583 99.0135 197.732 98.9631C196.775 98.9127 195.771 99.1008 194.718 99.5256C193.867 99.8664 192.955 100.379 191.981 101.062C190.24 102.288 188.467 103.878 186.659 105.83C185.563 107.011 184.018 108.841 182.025 111.321L178.281 115.98C177.194 117.335 176.414 118.317 175.938 118.927C175.082 120.035 174.34 121.047 173.714 121.966C172.522 123.712 171.439 125.539 170.465 127.448C170.443 127.493 170.42 127.537 170.398 127.582C170.465 127.604 170.537 127.632 170.616 127.666C171.942 128.225 173.638 128.735 175.703 129.194C181.827 130.576 188.056 131.234 194.391 131.167C200.726 131.099 206.941 130.305 213.036 128.782C213.377 128.698 213.652 128.668 213.859 128.69C213.876 128.685 213.896 128.678 213.918 128.673C213.795 128.232 213.582 127.822 213.28 127.448L212.978 127.103C212.86 126.964 212.768 126.843 212.7 126.742C212.566 126.507 212.465 126.334 212.398 126.222C212.264 125.999 212.041 125.713 211.727 125.366C211.357 124.951 211.067 124.655 210.854 124.476C210.17 123.927 209.398 123.631 208.537 123.586C208.347 123.574 208.221 123.535 208.159 123.468C208.113 123.418 208.08 123.322 208.058 123.183C207.952 122.343 207.685 121.549 207.26 120.799C206.992 120.324 206.627 119.828 206.169 119.313C205.9 119.016 205.467 118.574 204.868 117.986C204.431 117.562 204.09 117.256 203.844 117.071C203.335 116.697 202.73 116.4 202.03 116.181C201.879 116.131 201.8 116.067 201.795 115.988C201.79 115.926 201.824 115.879 201.896 115.846C201.958 115.812 202.027 115.795 202.106 115.795C202.694 115.8 203.293 116.01 203.902 116.425C204.305 116.699 204.804 117.138 205.397 117.743C206.073 118.431 206.586 118.985 206.933 119.405C207.969 120.664 208.515 121.865 208.57 123.007C209.292 122.901 210.011 123.079 210.728 123.544C211.231 123.858 211.782 124.375 212.381 125.097C212.611 125.377 212.784 125.623 212.902 125.836C212.957 125.942 213.04 126.101 213.145 126.314C213.213 126.42 213.372 126.62 213.624 126.91C213.971 127.308 214.217 127.704 214.363 128.102C214.425 128.275 214.467 128.443 214.489 128.606C214.589 128.606 214.719 128.615 214.875 128.631C217.511 128.939 220.159 129.006 222.817 128.833C225.481 128.653 228.097 128.24 230.666 127.59C231.383 127.417 231.811 127.317 231.95 127.288C232.437 127.187 232.87 127.134 233.252 127.129C233.431 127.129 233.784 127.149 234.309 127.187C234.746 127.221 235.095 127.224 235.359 127.196C235.8 127.157 236.287 127.028 236.82 126.81C237.021 126.721 237.399 126.541 237.953 126.272C235.523 122.483 232.669 119.047 229.39 115.963C228.701 115.313 228.105 114.808 227.602 114.444C226.908 113.94 226.228 113.576 225.562 113.352C224.895 113.129 224.146 113.003 223.312 112.974C222.669 112.958 221.901 113 221.012 113.1C220.395 113.168 219.984 113.206 219.778 113.218C219.312 113.23 218.908 113.181 218.56 113.075C218.13 112.941 217.699 112.687 217.267 112.311ZM184.77 121.957C184.792 121.885 184.837 121.826 184.904 121.781C184.972 121.736 185.044 121.714 185.123 121.714C185.185 121.714 185.249 121.727 185.316 121.756C185.405 121.794 185.47 121.862 185.509 121.957C185.564 122.103 185.546 122.223 185.45 122.318C185.428 122.34 185.354 122.38 185.232 122.436L185.156 122.453L184.913 122.377L184.862 122.352L184.829 122.301C184.768 122.145 184.748 122.031 184.77 121.957ZM182.487 125.466C182.475 125.445 182.473 125.424 182.478 125.408L182.495 125.374L182.579 125.265L182.638 125.24L182.822 125.206H182.89L182.932 125.24L183.015 125.324L183.049 125.366L183.057 125.424C183.057 125.52 183.037 125.604 182.999 125.676L182.629 125.735C182.562 125.641 182.515 125.55 182.487 125.466ZM189.496 122.57C189.552 122.553 189.601 122.553 189.639 122.57C189.695 122.592 189.735 122.659 189.757 122.772V122.881C189.752 122.892 189.727 122.928 189.681 122.99C189.653 123.035 189.627 123.096 189.606 123.174L189.53 123.3L189.48 123.351L189.421 123.359H189.245L189.186 123.351C189.164 123.346 189.147 123.329 189.135 123.3C189.097 123.245 189.055 123.154 189.01 123.032C188.964 122.919 188.959 122.83 188.993 122.763C189.021 122.718 189.073 122.684 189.152 122.662L189.345 122.629C189.379 122.619 189.429 122.599 189.496 122.57Z" fill="#F4E6C1"/>
<path d="M34.3054 70.722C34.1543 70.9739 34.0368 71.1502 33.9528 71.2509C33.8068 71.4356 33.6473 71.5666 33.4743 71.6455C33.2275 71.758 32.932 71.7664 32.5844 71.6707C32.4552 71.6371 32.1597 71.5246 31.6946 71.3349C30.4907 70.853 29.1794 70.764 27.7573 71.0662C26.4426 71.3399 25.2136 71.9057 24.0718 72.762C23.098 73.489 22.1578 74.4444 21.2511 75.6247C20.6181 76.4357 19.8609 77.559 18.976 78.9912C15.4618 84.683 12.045 91.0381 8.72564 98.0564C6.04425 103.731 3.18824 110.369 0.154263 117.97C0.0367324 118.267 -0.0136422 118.544 0.00314798 118.801C0.0199381 119.007 0.0820627 119.162 0.187841 119.262C0.108927 119.368 0.0753456 119.481 0.0870987 119.598C0.115642 119.912 0.40947 120.135 0.968582 120.27C4.1755 121.047 7.83911 121.551 11.9577 121.781C14.4763 121.92 18.1919 121.977 23.1064 121.949L26.179 121.932C27.6112 121.92 28.7613 121.89 29.6294 121.84C29.3104 122.411 29.0585 122.844 28.8738 123.141C28.4155 123.88 27.9504 124.498 27.4802 124.996C27.2737 125.214 27.1478 125.352 27.1025 125.408C26.9732 125.575 26.8875 125.735 26.8422 125.886C26.7918 126.071 26.8086 126.252 26.8926 126.432C26.9043 126.46 26.9211 126.487 26.943 126.516C25.41 126.449 23.8452 126.65 22.2501 127.12C21.3216 127.389 20.4334 127.741 19.5889 128.178C19.0734 128.442 18.3296 128.886 17.3558 129.513C16.5331 130.033 15.9236 130.453 15.5256 130.772C15.0001 131.187 14.446 131.701 13.8634 132.317C13.5226 132.669 13.0155 133.237 12.3439 134.021L9.73304 137.068C9.56514 137.265 9.44257 137.424 9.36366 137.547C9.30825 137.636 9.26628 137.728 9.23773 137.824C9.13196 137.953 9.09166 138.096 9.1202 138.252C9.137 138.353 9.18401 138.448 9.26292 138.537C9.29147 138.576 9.32169 138.618 9.35527 138.663C9.47783 138.803 9.61215 138.873 9.75823 138.873C9.81364 138.895 9.87072 138.919 9.92613 138.94C10.727 139.238 11.9493 139.625 13.5948 140.107C14.7919 140.455 15.6936 140.707 16.298 140.863C17.3004 141.12 18.2087 141.316 19.0264 141.451C20.0288 141.618 21.1587 141.739 22.418 141.812C23.1786 141.857 24.3187 141.895 25.8348 141.929C31.7567 142.052 36.4428 142.026 39.8966 141.854C45.0562 141.59 49.6802 140.967 53.7652 139.981C54.3646 139.835 54.7004 139.6 54.7726 139.276C54.7844 139.231 54.7894 139.189 54.7894 139.15C54.9959 139.045 55.1118 138.885 55.1336 138.672C55.1672 138.408 55.0027 138.109 54.6383 137.774C53.6813 136.867 52.9677 136.182 52.4976 135.717C51.6748 134.916 50.9948 134.201 50.4576 133.568C50.2343 133.311 49.9673 132.988 49.66 132.602C49.43 132.312 49.2403 132.07 49.0892 131.88C49.9958 132.02 51.0486 132.137 52.2457 132.233C61.9722 133.034 71.6921 132.787 81.4018 131.494C82.6728 131.326 83.7138 131.162 84.5248 130.999C85.6548 130.769 86.6689 130.49 87.5638 130.159C87.861 130.047 88.0927 129.911 88.2606 129.748C88.3496 129.659 88.4167 129.568 88.4621 129.479C88.7928 129.518 89.1924 129.541 89.6626 129.546C91.3701 129.568 92.7016 129.558 93.6586 129.513C95.1311 129.446 96.4508 129.291 97.6211 129.051C97.9452 128.989 98.4774 128.87 99.2162 128.69C99.8928 128.522 100.422 128.405 100.803 128.337C101.05 128.299 101.228 128.262 101.34 128.228C101.537 128.178 101.698 128.107 101.827 128.018C101.983 127.913 102.099 127.772 102.171 127.599C102.243 127.414 102.243 127.243 102.171 127.087C102.154 127.053 102.138 127.023 102.121 126.994C102.099 126.848 102.049 126.692 101.97 126.524C101.914 126.402 101.815 126.235 101.676 126.029L98.7041 121.596C97.0637 119.157 95.8279 117.348 94.9934 116.173C93.578 114.18 92.2449 112.437 90.9974 110.943C89.8943 109.633 88.6921 108.31 87.3875 106.972C87.4161 106.893 87.4345 106.807 87.4463 106.712C87.4748 106.482 87.4429 106.213 87.3539 105.906L86.6236 103.37C85.5708 99.6884 84.6709 96.9113 83.9203 95.0426C82.7064 92.0371 81.2725 89.5387 79.6221 87.5458C78.3292 85.996 77.0162 84.9483 75.6848 84.406C75.2986 84.2431 74.7143 84.0618 73.9302 83.8603C73.1243 83.6471 72.5366 83.4691 72.1672 83.323C71.6635 83.1216 71.1212 82.8328 70.5386 82.4583C70.2145 82.2518 69.7075 81.8959 69.0191 81.3922L55.7632 71.5699C53.9549 70.2267 52.5563 69.2478 51.5657 68.6316C49.9589 67.6242 48.4377 66.8804 46.9988 66.3986C45.2812 65.8277 43.587 65.6061 41.9198 65.7353C40.0947 65.8814 38.5231 66.4321 37.2017 67.3892C36.144 68.1682 35.1785 69.2781 34.3054 70.722ZM34.9015 72.5689C34.9972 72.4296 35.1584 72.1492 35.3884 71.7294C36.0886 70.4148 36.8995 69.4073 37.823 68.7072C38.7918 67.9684 39.9436 67.495 41.2817 67.2884C42.5192 67.1037 43.7885 67.1591 45.0931 67.4563C46.2231 67.7132 47.4101 68.1531 48.6526 68.7744C49.5878 69.2394 50.6876 69.8825 51.9519 70.7052C54.2018 72.166 56.8966 74.0968 60.0363 76.4978C61.7993 77.841 64.4354 79.8609 67.9445 82.5591C68.6497 83.0846 69.2122 83.4859 69.6319 83.7596C70.2699 84.1743 70.871 84.5034 71.4369 84.7502C71.7895 84.9013 72.3855 85.1112 73.225 85.3798C74.0024 85.6317 74.5968 85.8533 75.0048 86.043C76.8131 86.8775 78.4686 88.4642 79.9746 90.803C81.2457 92.8011 82.4008 95.3028 83.4418 98.3083C83.9909 99.8815 84.7179 102.187 85.6245 105.226C85.5792 105.187 85.5372 105.147 85.4986 105.108C83.7642 103.441 81.7662 101.658 79.5045 99.7606C77.4847 98.053 75.7486 96.7971 74.2996 95.9912C72.2344 94.8444 70.2481 94.2652 68.3391 94.2534C67.0966 94.2417 65.4679 94.5355 63.4531 95.1349C61.0572 95.8401 59.4369 96.2515 58.5924 96.369C58.0719 96.4412 57.2022 96.5083 55.9815 96.5705C54.8515 96.6259 53.9801 96.7081 53.3706 96.8139C52.0442 97.049 50.6926 97.5409 49.3158 98.2915C48.1859 98.9077 46.982 99.727 45.7059 100.751C42.5998 103.241 39.6615 106.362 36.8911 110.112C34.8041 112.932 32.6634 116.327 30.4689 120.295C30.3967 120.29 30.3211 120.29 30.2422 120.295C30.1297 120.3 29.9517 120.32 29.7049 120.354C28.983 120.443 27.9621 120.483 26.6407 120.471L16.575 120.438C14.8507 120.426 13.7039 120.409 13.133 120.387C9.87072 120.27 5.98884 119.803 1.48908 118.985C1.35979 118.963 1.25066 118.947 1.16167 118.935C1.24059 118.812 1.30943 118.666 1.37155 118.498C6.3364 105.179 12.4497 92.4317 19.7148 80.2588C20.5425 78.8703 21.2343 77.8024 21.7884 77.0519C22.6279 75.9152 23.4926 74.9951 24.3825 74.2899C25.4285 73.4555 26.5652 72.8913 27.7909 72.5941C29.1173 72.2634 30.3514 72.3087 31.4931 72.7284C31.7903 72.8409 32.2486 73.0105 32.8699 73.2405C33.1671 73.3245 33.4407 73.3547 33.6926 73.3329C33.7984 73.4286 33.9411 73.5209 34.1207 73.6099C34.747 73.9071 35.511 74.0968 36.4126 74.1808C36.6359 74.2026 37.4418 74.2312 38.8304 74.2647C39.7874 74.2933 40.5883 74.3907 41.2314 74.5586C42.0826 74.7768 42.7677 75.1412 43.2882 75.6499C43.5786 75.9236 43.7919 75.9908 43.9262 75.8514C43.9933 75.7843 44.0135 75.6953 43.985 75.5828C43.9631 75.4938 43.9178 75.4031 43.8506 75.3141C43.5098 74.8776 43.0497 74.525 42.4738 74.2563C41.9701 74.0213 41.4026 73.8618 40.7696 73.7778C40.3281 73.7157 39.7421 73.6821 39.0151 73.6771C38.1084 73.6721 37.5207 73.6603 37.2521 73.6435C36.2951 73.5763 35.3548 73.4034 34.4314 73.123C34.4146 73.118 34.3978 73.1113 34.381 73.1062C34.5657 72.9786 34.7403 72.799 34.9015 72.5689ZM56.4349 97.9389C57.5145 97.9103 58.3321 97.8549 58.8862 97.771C59.4621 97.682 60.1404 97.5191 60.9178 97.284C61.3661 97.1497 62.0344 96.9365 62.9243 96.646C66.3041 95.6168 69.1903 95.4841 71.5796 96.2515C72.5534 96.5654 73.5726 97.0708 74.6354 97.771C75.3238 98.2293 76.2422 98.9261 77.389 99.8613C80.109 102.083 82.3891 104.059 84.2309 105.788C86.6152 108.026 88.6719 110.224 90.4013 112.378C91.7949 114.103 93.5495 116.579 95.6651 119.808C97.8024 123.065 99.3958 125.416 100.442 126.86C100.094 126.939 99.6577 127.045 99.1322 127.179C98.3716 127.375 97.7974 127.511 97.4112 127.59C96.1016 127.864 94.5989 128.04 92.9031 128.119C91.9846 128.165 90.4685 128.186 88.3529 128.186C88.2472 128.186 88.1481 128.191 88.0591 128.203C87.4093 127.134 86.271 126.269 84.6423 125.609C83.1144 124.983 81.516 124.635 79.8487 124.568C79.5247 124.556 79.3198 124.546 79.2359 124.534C79.0008 124.513 78.8027 124.471 78.6398 124.409C78.393 124.313 78.1479 124.157 77.9011 123.938C77.755 123.809 77.5485 123.591 77.2798 123.284C76.2221 122.12 75.0216 121.067 73.6783 120.127C72.8724 119.578 72.179 119.204 71.5964 119.002C71.0473 118.817 70.416 118.697 69.6991 118.641C69.234 118.608 68.5859 118.599 67.7514 118.616C67.5617 118.621 67.424 118.633 67.3401 118.65C67.1889 118.678 67.0664 118.73 66.9707 118.809C66.8649 118.905 66.8145 119.031 66.8196 119.187C66.8196 119.343 66.8817 119.444 67.0043 119.489C67.9781 119.237 68.9737 119.183 69.9929 119.33C71.0121 119.476 71.9523 119.803 72.8136 120.312C73.3224 120.614 74.0276 121.155 74.9292 121.932C75.987 122.834 76.7543 123.566 77.2295 124.132C77.4309 124.372 77.5653 124.526 77.6324 124.593C77.7886 124.756 77.9464 124.879 78.1025 124.963C78.2537 125.047 78.4384 125.105 78.6566 125.139C78.7691 125.156 78.9639 125.173 79.2443 125.189C79.9998 125.228 80.6093 125.278 81.0744 125.34C81.741 125.424 82.337 125.545 82.8626 125.701C83.2773 125.824 83.9338 126.084 84.8354 126.482C85.502 126.784 85.9973 127.041 86.3213 127.254C86.8418 127.59 87.223 127.971 87.4631 128.396C87.4009 128.452 87.3506 128.517 87.312 128.589C87.3002 128.606 87.2918 128.626 87.2868 128.648C87.275 128.648 87.2649 128.651 87.2532 128.656C87.186 128.673 87.0299 128.729 86.7831 128.824C85.9771 129.143 85.057 129.407 84.0211 129.614C83.3041 129.76 82.3555 129.907 81.1751 130.058C69.1534 131.62 58.0669 131.751 47.9138 130.453C45.988 128.22 43.9514 126.284 41.8022 124.644C40.9292 123.977 40.1434 123.485 39.4432 123.166C38.5198 122.741 37.6383 122.558 36.7988 122.62C36.2279 122.659 35.5311 122.844 34.7084 123.174C33.0008 123.863 31.4226 124.756 29.9736 125.853C29.4749 126.222 29.218 126.412 29.2012 126.423C28.9275 126.608 28.6723 126.754 28.4373 126.86C28.2694 126.737 28.0461 126.647 27.7657 126.591C27.8446 126.536 27.9285 126.462 28.0175 126.373C28.6673 125.701 29.307 124.857 29.94 123.838C30.2372 123.351 30.7627 122.419 31.5183 121.042C33.7228 117.007 35.8501 113.596 37.8985 110.809C40.4725 107.311 43.1925 104.391 46.0585 102.052C47.3682 100.983 48.6073 100.138 49.7776 99.5171C51.2098 98.7566 52.6117 98.2797 53.9835 98.09C54.504 98.0178 55.3217 97.9674 56.4349 97.9389ZM10.9587 137.732C10.9419 137.727 10.9251 137.72 10.9084 137.715C11.7428 136.607 12.6159 135.532 13.5276 134.491C14.3722 133.529 15.1277 132.767 15.7943 132.208C16.3484 131.737 17.2349 131.104 18.4555 130.31C19.1607 129.84 19.7265 129.499 20.1513 129.286C20.7054 129.017 21.424 128.752 22.3089 128.489C23.3331 128.186 24.2229 127.993 24.9785 127.909C25.9641 127.804 26.854 127.859 27.6481 128.077C27.8496 128.133 27.9923 128.166 28.0763 128.178C28.172 128.19 28.2576 128.19 28.3365 128.178C28.4591 128.173 28.6001 128.148 28.7563 128.102C29.0803 128.013 29.4245 127.845 29.7889 127.599C29.8611 127.548 30.17 127.313 30.7123 126.893C31.8759 125.999 33.152 125.261 34.5405 124.686C35.4304 124.316 36.2078 124.12 36.8743 124.098C37.7189 124.076 38.5987 124.304 39.5104 124.786C40.182 125.144 40.9493 125.688 41.8106 126.415C43.5451 127.871 45.1603 129.442 46.6546 131.133C46.71 131.2 46.7688 131.267 46.8309 131.334C47.4639 132.062 48.0767 132.809 48.6694 133.576C48.9095 133.883 49.2655 134.343 49.7356 134.953C50.1553 135.478 50.5415 135.913 50.8941 136.254C50.9495 136.304 51.2769 136.598 51.8763 137.135C52.2743 137.488 52.5815 137.795 52.7998 138.059C52.8787 138.155 52.9878 138.291 53.1272 138.47C53.06 138.482 52.9929 138.495 52.9257 138.512C49.1026 139.503 44.7858 140.138 39.9721 140.418C36.6309 140.608 32.2453 140.648 26.817 140.535C25.457 140.507 24.3354 140.473 23.4506 140.435C22.2249 140.373 21.1084 140.28 20.101 140.158C16.9343 139.761 13.8869 138.952 10.9587 137.732ZM41.8442 132.871C41.8056 132.842 41.7636 132.82 41.7183 132.804C41.6897 132.792 41.6008 132.773 41.4496 132.745V132.804L41.2733 132.854C41.2112 132.888 41.1726 132.93 41.1558 132.98C41.134 133.042 41.1474 133.111 41.1978 133.19L41.2566 133.282L41.2985 133.324C41.3103 133.336 41.3288 133.341 41.3573 133.341L41.6427 133.374C41.6713 133.374 41.7183 133.354 41.7854 133.316C41.819 133.311 41.8442 133.294 41.861 133.265C41.8778 133.249 41.8912 133.22 41.903 133.181C41.9198 133.131 41.9282 133.092 41.9282 133.064C41.9282 132.992 41.9013 132.928 41.8442 132.871ZM36.9751 128.228C36.9532 128.195 36.9297 128.175 36.9079 128.17C36.8962 128.165 36.8525 128.161 36.7736 128.161C36.7115 128.161 36.6728 128.165 36.6561 128.17C36.6342 128.175 36.609 128.198 36.5805 128.237C36.4848 128.388 36.463 128.547 36.5133 128.715C36.5251 128.754 36.5352 128.779 36.5469 128.791L36.7568 128.883L36.8072 128.892L36.8575 128.875L36.9415 128.833L36.9919 128.799C37.0204 128.771 37.0372 128.744 37.0422 128.715C37.0758 128.626 37.096 128.559 37.101 128.514C37.1128 128.425 37.0976 128.358 37.059 128.312L36.9751 128.228ZM35.3464 131.754L35.38 131.788L35.4388 131.805L35.7242 131.847C35.8249 131.847 35.8955 131.816 35.9341 131.754C35.9509 131.726 35.9593 131.682 35.9593 131.62L35.9509 131.536L35.8921 131.427L35.8501 131.385C35.8384 131.373 35.8216 131.368 35.7998 131.368L35.5395 131.326V131.376H35.38L35.2877 131.586L35.2793 131.637L35.2961 131.679L35.3464 131.754ZM39.1662 130.822C39.183 130.784 39.1863 130.742 39.1746 130.696C39.1695 130.607 39.1074 130.532 38.9899 130.47C38.8606 130.431 38.7666 130.399 38.7045 130.377V130.428C38.6155 130.428 38.5617 130.431 38.5449 130.436L38.461 130.503C38.3653 130.599 38.3267 130.696 38.3435 130.797C38.3552 130.853 38.3989 130.92 38.4778 130.999L38.5449 131.041C38.5617 131.052 38.592 131.057 38.6373 131.057H38.8052C38.9613 131.046 39.0654 131.004 39.1158 130.932C39.1444 130.898 39.1611 130.863 39.1662 130.822ZM49.3578 109.381C49.3696 109.259 49.3326 109.146 49.2487 109.046C49.2033 109 49.1681 108.973 49.1395 108.962C49.1009 108.945 49.0522 108.941 48.9968 108.953L48.8961 108.962L48.8205 109.012C48.7198 109.118 48.6728 109.235 48.6778 109.365C48.6778 109.494 48.7332 109.605 48.8457 109.7C48.8675 109.722 48.8877 109.734 48.9045 109.734L48.9632 109.742H49.064L49.1311 109.734C49.1429 109.734 49.1647 109.722 49.1983 109.7C49.294 109.623 49.3477 109.516 49.3578 109.381ZM45.4793 109.339C45.5347 109.474 45.6354 109.554 45.7815 109.583C45.9158 109.611 46.0384 109.571 46.1509 109.465C46.213 109.403 46.2516 109.336 46.2684 109.264C46.297 109.168 46.2902 109.059 46.2516 108.936C46.213 108.831 46.1593 108.755 46.0921 108.71C46.0199 108.654 45.9276 108.626 45.8151 108.626C45.7815 108.626 45.7311 108.638 45.664 108.659C45.5851 108.698 45.5263 108.769 45.4877 108.869C45.4591 108.948 45.4457 109.042 45.4457 109.155C45.4457 109.229 45.4574 109.289 45.4793 109.339ZM48.8373 104.89V104.94C48.7366 104.924 48.6392 104.945 48.5435 105.008C48.4427 105.063 48.3789 105.142 48.3504 105.243C48.3168 105.338 48.3218 105.466 48.3672 105.629C48.3789 105.679 48.3924 105.713 48.4092 105.729C48.431 105.775 48.4847 105.817 48.5687 105.855C48.7819 105.944 48.9515 105.953 49.0808 105.881C49.1765 105.83 49.2436 105.726 49.2822 105.57C49.3209 105.431 49.3192 105.31 49.2739 105.209C49.2134 105.075 49.0673 104.969 48.8373 104.89ZM10.0017 113.235C9.89591 113.201 9.8002 113.221 9.71625 113.293C9.67764 113.327 9.6407 113.386 9.60712 113.47C9.53996 113.633 9.5282 113.755 9.57354 113.839L9.66588 113.948C9.817 114.066 9.95132 114.12 10.0688 114.108C10.1478 114.103 10.2166 114.069 10.2787 114.007C10.3408 113.952 10.3828 113.884 10.4047 113.806C10.4332 113.71 10.4332 113.616 10.4047 113.52C10.3879 113.458 10.3576 113.399 10.3123 113.344C10.2334 113.248 10.131 113.196 10.0017 113.184V113.235ZM11.0846 107.425H10.9839L10.9167 107.434C10.8949 107.439 10.8664 107.459 10.8328 107.492C10.7606 107.56 10.7153 107.63 10.6985 107.702C10.6867 107.808 10.7405 107.916 10.858 108.021C10.8916 108.038 10.9117 108.047 10.9167 108.047L10.9671 108.055H11.093L11.1518 108.047L11.2106 108.013L11.3281 107.879C11.3734 107.79 11.3734 107.697 11.3281 107.602L11.219 107.484C11.2022 107.462 11.1804 107.445 11.1518 107.434L11.0846 107.425ZM59.1213 88.8974C59.0877 88.8755 59.0659 88.8638 59.0541 88.8638C59.0424 88.8587 59.0037 88.8554 58.9366 88.8554C58.8694 88.8554 58.8275 88.8587 58.8107 88.8638L58.7435 88.9058C58.6377 89.0115 58.589 89.1123 58.6008 89.208C58.6176 89.2634 58.6428 89.3121 58.6763 89.3507L58.7603 89.443L58.8023 89.4766L58.861 89.485H59.0037L59.0625 89.4766C59.0793 89.4716 59.0994 89.4565 59.1213 89.4346C59.2103 89.3557 59.2606 89.2835 59.2724 89.2164C59.2892 89.0988 59.2388 88.9931 59.1213 88.8974ZM55.9899 86.3872C55.8942 86.4829 55.8506 86.5753 55.8556 86.6643C55.8673 86.7264 55.9194 86.8036 56.0151 86.8993L56.0739 86.9413L56.1326 86.9497H56.2586L56.3173 86.9413L56.3677 86.9077C56.4231 86.8574 56.4634 86.812 56.4852 86.7734C56.5406 86.6844 56.544 86.5938 56.4936 86.5048C56.4718 86.4594 56.4349 86.4175 56.3845 86.3788C56.3677 86.3503 56.3459 86.3335 56.3173 86.3285L56.2502 86.3201H56.1494L56.0739 86.3285C56.052 86.3352 56.0235 86.3537 55.9899 86.3872ZM60.2378 85.3043C60.1371 85.405 60.0834 85.489 60.0783 85.5561C60.0666 85.6518 60.1203 85.7526 60.2378 85.8583L60.2882 85.8919L60.347 85.9003H60.4813L60.54 85.8919L60.5988 85.85C60.6492 85.8113 60.6878 85.766 60.7163 85.7156C60.7667 85.6199 60.7634 85.5276 60.7079 85.4386L60.6156 85.3295C60.582 85.2959 60.5568 85.2757 60.54 85.2707C60.4729 85.2707 60.4192 85.2673 60.3805 85.2623H60.2966C60.2798 85.269 60.2613 85.2824 60.2378 85.3043ZM40.2324 39.9792C39.9016 39.7224 39.5826 39.5293 39.2753 39.4C38.827 39.1985 38.3938 39.1179 37.9741 39.1565C37.4754 39.2019 37.0842 39.3966 36.7988 39.7442C36.6191 39.9675 36.4966 40.2563 36.4294 40.6089C36.379 40.8607 36.3572 41.1831 36.3622 41.5743C36.3622 41.9269 36.3874 42.2325 36.4378 42.4894C36.5049 42.7866 36.6393 43.1358 36.8407 43.5388L38.058 45.8222C38.4274 46.4552 38.9093 47.0194 39.502 47.518C39.7874 47.7531 40.1064 47.9915 40.459 48.2316C40.8284 48.4885 41.1138 48.6648 41.3153 48.7605C41.6226 48.8999 41.9903 48.9905 42.4151 49.0291C42.6669 49.051 43.0481 49.0594 43.5568 49.0543C43.9379 49.0543 44.2066 48.9989 44.3627 48.8864C44.4853 48.7907 44.6095 48.6228 44.7321 48.3827C44.9554 47.8908 45.0847 47.3619 45.1183 46.796C45.13 46.477 45.0981 46.2218 45.0259 46.0321C44.9806 45.9146 44.9051 45.7718 44.7993 45.6039C44.6364 45.3689 44.5474 45.2346 44.5306 45.201C44.4417 45.0499 44.3426 44.835 44.2368 44.5546C44.1142 44.2238 44.0236 44.0038 43.9682 43.8914C43.8338 43.6345 43.5853 43.2701 43.221 42.8C42.9977 42.5146 42.7979 42.2795 42.625 42.0948C42.4621 41.9319 42.269 41.754 42.0457 41.5575L41.0887 40.7012C40.7142 40.3654 40.4288 40.1253 40.2324 39.9792ZM39.5104 41.0118C39.9352 41.2587 40.4422 41.6499 41.0299 42.1871C41.673 42.7798 42.1431 43.2752 42.4403 43.6731C42.6804 43.9971 42.9104 44.3833 43.1287 44.8316C43.263 45.112 43.4393 45.5234 43.6575 46.0657C43.9598 46.7994 43.9598 47.3132 43.6575 47.6104C43.4443 47.8169 43.1119 47.8874 42.6585 47.8202C41.6797 47.6809 40.773 47.1738 39.9385 46.3007C39.3845 45.7181 38.8018 44.84 38.1924 43.6647C37.8784 43.0602 37.6752 42.5313 37.5795 42.078C37.4502 41.4685 37.5073 40.9413 37.7474 40.4997C38.3132 40.483 38.9009 40.6542 39.5104 41.0118ZM57.0645 39.3496C56.2418 38.5773 55.6037 38.0064 55.1504 37.637C54.4167 37.0376 53.7115 36.5675 53.0348 36.2266C52.3683 35.8791 51.7135 35.6978 51.0704 35.681C50.3266 35.6642 49.744 35.8858 49.3242 36.3442C48.8927 36.8193 48.6996 37.5447 48.745 38.5185C48.7903 39.3076 48.9548 40.0666 49.2403 40.7936C49.341 41.0672 49.4031 41.2385 49.425 41.3057C49.4753 41.5021 49.4837 41.6751 49.4501 41.8262C49.4283 41.9319 49.3796 42.0528 49.3074 42.1871C49.2621 42.2593 49.1949 42.3718 49.106 42.523C48.8491 43.0099 48.7651 43.6395 48.8541 44.4118C48.9599 45.3471 49.2789 46.3394 49.8111 47.3921C50.1469 48.0469 50.701 48.9536 51.4734 50.1121C51.8931 50.7451 52.2256 51.2253 52.4724 51.5561C52.8535 52.0715 53.2279 52.5131 53.5973 52.8825C53.7602 53.0453 54.0053 53.2854 54.3361 53.6045C54.6098 53.8949 54.8146 54.1669 54.9489 54.4188C55.0547 54.6152 55.1504 54.8637 55.2344 55.1659C55.2847 55.3338 55.3553 55.5907 55.4442 55.9383C55.6911 56.8114 56.1998 57.8742 56.9721 59.1284C58.7015 61.9492 60.5652 64.1201 62.5633 65.643C63.7503 66.5497 65.0062 67.2414 66.3326 67.7166C67.7548 68.232 69.1618 68.4671 70.5554 68.4218C71.5124 68.3932 72.3267 68.2119 72.9983 67.8761C73.6867 67.5352 74.2693 67.008 74.7445 66.2978C75.1811 65.643 75.4883 64.9009 75.668 64.0731C75.8191 63.3629 75.8779 62.567 75.8443 61.6889C75.8275 61.0509 75.7519 60.25 75.6176 59.2879C75.3372 57.2345 74.9661 55.5269 74.5011 54.1669C73.8849 52.3586 73.0353 50.8794 71.949 49.7259C71.5174 49.2676 71.0725 48.9334 70.6141 48.7269C70.0601 48.47 69.548 48.4297 69.0778 48.6094C68.4448 47.0143 67.5953 45.5318 66.5257 44.16C65.4629 42.7882 64.2372 41.5995 62.8487 40.5921C61.4434 39.5679 60.2345 39.2153 59.222 39.5343C58.9248 39.6518 58.7049 39.7358 58.5588 39.7862C58.2952 39.8751 58.0685 39.9003 57.8788 39.8617C57.6605 39.8231 57.3902 39.6518 57.0645 39.3496ZM58.8107 41.7254L59.2136 41.3141C59.5209 41.0572 59.9222 40.9816 60.4141 41.0874C60.812 41.1663 61.2284 41.351 61.665 41.6415C62.9696 42.4978 64.1163 43.5438 65.107 44.7812C66.1026 46.0187 66.8817 47.3636 67.4408 48.8193C67.5869 49.2105 67.7212 49.4993 67.8438 49.684C68.0335 49.9811 68.2602 50.1658 68.5238 50.238C68.6917 50.2884 68.9385 50.285 69.2625 50.2296C69.6101 50.1742 69.8586 50.1574 70.0097 50.1793C70.3908 50.2347 70.7871 50.5201 71.2018 51.0356C72.1034 52.1773 72.8019 53.6078 73.3006 55.3254C73.6532 56.5394 73.952 58.1344 74.1988 60.1106C74.2878 60.794 74.3416 61.3279 74.3583 61.7141C74.3919 62.3068 74.3718 62.839 74.2996 63.3092C74.2207 63.8683 74.0645 64.3804 73.8295 64.8455C73.5726 65.3542 73.2418 65.7656 72.8388 66.0795C72.0497 66.684 70.9751 66.9476 69.6151 66.8687C68.3391 66.8015 67.063 66.4707 65.787 65.8781C64.6117 65.3357 63.5035 64.5986 62.4625 63.6702C61.5391 62.8424 60.6542 61.8535 59.8097 60.7067C59.1045 59.7497 58.3909 58.6247 57.6689 57.3319C57.3717 56.8063 57.1602 56.3698 57.0309 56.0222C56.8462 55.5185 56.7623 55.0484 56.779 54.6119C56.7908 54.4389 56.7992 54.3063 56.8042 54.2173C56.8093 54.0544 56.7992 53.9201 56.7707 53.8143C56.7203 53.5961 56.5893 53.3862 56.3761 53.1847C56.2703 53.084 56.0604 52.9245 55.7465 52.7062C54.8616 52.0732 54.0288 51.2068 53.2447 50.1037C52.7578 49.4204 52.1231 48.3777 51.339 46.9723C50.9915 46.3511 50.7463 45.8726 50.6003 45.5368C50.3652 44.9877 50.2275 44.4757 50.1889 44.0005C50.1503 43.5354 50.2259 43.1744 50.4156 42.9175C50.4492 42.8789 50.5415 42.7866 50.6926 42.6405C50.8101 42.528 50.8891 42.4272 50.9277 42.3383C51.0066 42.1821 51.0167 41.989 50.9613 41.759C50.9277 41.6364 50.8521 41.4433 50.7346 41.1797C50.3434 40.3016 50.1604 39.3714 50.1889 38.3926C50.2007 37.9443 50.3064 37.6286 50.5079 37.4439C50.8102 37.1703 51.2803 37.1669 51.9183 37.4355C52.8132 37.8167 53.8022 38.4564 54.8818 39.358C55.4912 39.8617 56.3962 40.6374 57.5934 41.6834C57.8906 41.9235 58.1424 42.031 58.3489 42.0025C58.495 41.9806 58.6495 41.8883 58.8107 41.7254ZM61.8413 58.7674C61.7523 58.9404 61.7322 59.0747 61.7825 59.1704C61.7943 59.1989 61.8211 59.2342 61.8665 59.2795C62.0058 59.4088 62.1553 59.4609 62.3114 59.439C62.4676 59.4055 62.5683 59.3131 62.6136 59.162C62.659 59.0159 62.6422 58.8766 62.5633 58.7422C62.5297 58.6868 62.4961 58.6449 62.4625 58.6163C62.35 58.571 62.2661 58.5357 62.2107 58.5072V58.5743C62.1049 58.5357 62.0125 58.5525 61.9336 58.6247C61.9068 58.6533 61.8749 58.7003 61.8413 58.7674ZM55.8976 48.2064V48.2568C55.7968 48.2115 55.6994 48.2366 55.6037 48.3323C55.5483 48.3945 55.498 48.4868 55.4526 48.6094C55.4191 48.7487 55.4157 48.8579 55.4442 48.9368C55.4661 49.0157 55.5198 49.0913 55.6037 49.1635C55.7666 49.2978 55.9278 49.3263 56.0907 49.2474C56.1964 49.197 56.2754 49.0929 56.3257 48.9368C56.3425 48.8864 56.3509 48.831 56.3509 48.7689C56.3509 48.7353 56.3391 48.6799 56.3173 48.601C56.2888 48.512 56.2586 48.4448 56.225 48.3995C56.141 48.282 56.0319 48.2182 55.8976 48.2064ZM54.4536 45.436C54.4754 45.3638 54.4838 45.2933 54.4788 45.2262C54.4738 45.1086 54.4167 45.0079 54.3109 44.9239C54.2387 44.8618 54.1346 44.8115 54.0003 44.7728V44.8232C53.8878 44.8014 53.782 44.8282 53.6813 44.9072C53.5805 44.9794 53.5218 45.0717 53.505 45.1842C53.4999 45.2396 53.5016 45.3236 53.5134 45.436C53.5251 45.5082 53.5419 45.5586 53.5637 45.5872C53.5973 45.6543 53.6695 45.7097 53.782 45.7551C53.9549 45.8222 54.096 45.8306 54.2018 45.7802C54.331 45.7248 54.415 45.6107 54.4536 45.436ZM56.9889 44.7309C56.9604 44.709 56.9218 44.6855 56.8714 44.6637C56.7925 44.6352 56.7488 44.6184 56.7371 44.6133V44.6637C56.6481 44.6519 56.5742 44.6603 56.5188 44.6889C56.4567 44.7174 56.3979 44.793 56.3425 44.9156C56.2753 45.0499 56.2586 45.159 56.2921 45.243C56.3257 45.3152 56.3795 45.3739 56.4516 45.4193C56.5641 45.5082 56.6733 45.5502 56.779 45.5452C56.8512 45.5452 56.9218 45.52 56.9889 45.4696C57.051 45.4243 57.0947 45.3655 57.1233 45.2933C57.1787 45.154 57.1686 45.0045 57.0897 44.8484C57.0561 44.7879 57.0225 44.7477 56.9889 44.7309ZM34.6245 11.2429C34.02 11.4393 33.612 11.7751 33.3988 12.2503C31.3839 10.583 29.1341 9.31538 26.6491 8.44733C26.0161 8.22906 25.4654 8.10649 24.9953 8.07795C24.369 8.04437 23.8502 8.17365 23.4422 8.46412C23.1114 8.70422 22.8545 9.04674 22.6699 9.48832C22.5187 9.86946 22.4298 10.3026 22.4012 10.7896C22.3458 11.7802 22.5187 12.8665 22.9217 14.0468C23.1685 14.7806 23.6151 15.8098 24.2649 17.1362C24.6729 17.9707 25.0003 18.6003 25.2471 19.0251C25.6384 19.7018 26.0413 20.2794 26.456 20.7545C26.6071 20.9224 26.8338 21.1692 27.136 21.4933C27.3828 21.7905 27.5608 22.0675 27.6733 22.3244C27.7573 22.5208 27.8278 22.766 27.8832 23.0632C27.9117 23.2311 27.9537 23.4829 28.0091 23.8187C28.1602 24.5525 28.5128 25.3802 29.0669 26.3037C29.7721 27.4672 30.5444 28.4394 31.3839 29.2168C31.9263 29.7205 32.5844 30.2191 33.3568 30.7111C33.8387 31.0133 34.5539 31.428 35.5059 31.9536C36.1104 32.2843 36.5217 32.5076 36.74 32.6252C37.2101 32.8602 37.6349 33.0499 38.0161 33.196C39.0789 33.604 40.3583 33.876 41.8526 34.0103C42.855 34.106 43.713 34.0977 44.4299 33.9852C45.3584 33.834 46.1173 33.5066 46.705 33.0029C47.2254 32.5546 47.6452 31.9334 47.9642 31.1392C48.1825 30.5969 48.389 29.8497 48.5855 28.8977C48.7315 28.1875 48.834 27.6133 48.8961 27.1768C48.9851 26.5387 49.027 25.9544 49.022 25.4222C49.0052 24.3694 48.7836 23.268 48.3588 22.1145C48.018 21.1692 47.5193 20.1467 46.8645 19.0503C45.5599 16.8458 44.1193 15.0912 42.541 13.7866C41.6226 13.031 40.6555 12.4266 39.6363 11.9733C38.55 11.4813 37.4569 11.1841 36.3538 11.0834C35.7108 11.0229 35.1349 11.075 34.6245 11.2429ZM28.857 10.9407C30.0206 11.4998 31.0985 12.1831 32.0891 12.9891C32.2789 13.1402 32.4031 13.2359 32.4585 13.2745C32.6046 13.3752 32.7406 13.4458 32.8699 13.4844C33.026 13.5347 33.1805 13.5398 33.3316 13.5012C33.4995 13.4676 33.6254 13.3887 33.7094 13.2661C33.9562 13.3618 34.208 13.345 34.4649 13.2157C34.7285 13.0814 34.8881 12.885 34.9435 12.6281C35.9727 12.5055 37.0288 12.6063 38.1084 12.9303C39.1158 13.2325 40.0762 13.7077 40.9879 14.3575C42.4873 15.4152 43.9212 16.9935 45.2862 19.0923C45.9293 20.0829 46.4111 20.9594 46.7301 21.7199C47.2893 23.0632 47.5781 24.4786 47.5948 25.9679C47.6066 27.4571 47.343 28.8776 46.8057 30.2326C46.4027 31.245 45.8906 31.9116 45.2694 32.2306C45.0008 32.3649 44.6817 32.4573 44.3124 32.5076C44.0723 32.5362 43.7365 32.5496 43.3049 32.5496C42.6619 32.5546 42.1767 32.553 41.8526 32.5412C41.3103 32.5194 40.825 32.469 40.4003 32.3901C39.4483 32.2172 38.3065 31.7974 36.9751 31.1308C35.9845 30.6439 35.1281 30.1738 34.4062 29.7205C33.5113 29.1546 32.7356 28.5569 32.0807 27.9239C31.342 27.2137 30.7375 26.4464 30.2674 25.6237C29.7587 24.7287 29.4363 23.8137 29.302 22.8785C29.2634 22.5376 29.2298 22.2824 29.2012 22.1145C29.1509 21.824 29.0803 21.5806 28.9913 21.3841C28.8906 21.1608 28.7261 20.9258 28.496 20.679C28.2224 20.4053 28.0175 20.1971 27.8832 20.0577C27.3241 19.4818 26.7969 18.7565 26.3049 17.8834C26.0027 17.3512 25.6031 16.5402 25.1044 15.4488C24.6343 14.4129 24.3187 13.6019 24.1558 13.0143C23.8922 12.0858 23.8334 11.2429 23.9795 10.4873C24.0584 10.1012 24.2011 9.84595 24.4076 9.72338C24.5873 9.62264 24.866 9.61089 25.2471 9.6898C26.4963 9.96516 27.6985 10.3816 28.857 10.9407ZM30.8383 17.2034C30.7996 17.1749 30.7493 17.153 30.6872 17.1362C30.5696 17.1194 30.4722 17.1329 30.3933 17.1782C30.2926 17.2336 30.2372 17.3159 30.2254 17.4217C30.2204 17.4838 30.2389 17.5694 30.2842 17.6819C30.2959 17.7205 30.3127 17.7491 30.3346 17.7659L30.3849 17.7911L30.5528 17.8498L30.62 17.8666L30.7039 17.8498C30.7996 17.8213 30.8685 17.7827 30.9138 17.7323C30.9642 17.687 30.9927 17.6265 30.9978 17.5476C31.0028 17.4754 30.9894 17.4049 30.9558 17.3377C30.9289 17.2823 30.8886 17.237 30.8383 17.2034ZM32.7272 23.8103C32.8161 23.76 32.8783 23.6928 32.9118 23.6088C32.9337 23.5585 32.9454 23.4963 32.9454 23.4241C32.9505 23.3352 32.9253 23.2428 32.8699 23.1471C32.791 23.0245 32.6768 22.954 32.5257 22.9372V22.9876C32.4031 22.9423 32.2957 22.9742 32.2067 23.08C32.1731 23.1253 32.1479 23.1757 32.1311 23.2311C32.0639 23.3704 32.0505 23.4829 32.0891 23.5669C32.111 23.6122 32.1513 23.6592 32.2067 23.7096C32.2957 23.7935 32.3796 23.8405 32.4585 23.8523C32.5492 23.8758 32.6382 23.8607 32.7272 23.8103ZM32.2486 21.3254C32.3376 21.3472 32.4283 21.3338 32.5173 21.2834C32.6063 21.233 32.6684 21.1659 32.702 21.0819C32.7238 21.0316 32.7356 20.9694 32.7356 20.8972C32.7406 20.8082 32.7154 20.7159 32.66 20.6202C32.5811 20.4976 32.4669 20.4271 32.3158 20.4103V20.4607C32.1932 20.4154 32.0858 20.4473 31.9968 20.553C31.9632 20.5984 31.938 20.6487 31.9212 20.7041C31.8541 20.8435 31.8406 20.956 31.8793 21.0399C31.9011 21.0853 31.9414 21.1323 31.9968 21.1827C32.0875 21.2666 32.1714 21.3153 32.2486 21.3254ZM200.528 98.0648C199.532 97.6618 198.597 97.4469 197.724 97.4184C196.671 97.3898 195.566 97.6232 194.408 98.1152C193.518 98.5013 192.519 99.0806 191.411 99.853C189.032 101.52 186.874 103.438 184.938 105.604C184.245 106.376 183.321 107.484 182.168 108.928L177.517 114.737C175.44 117.335 173.916 119.326 172.942 120.715C171.342 122.998 170.084 125.156 169.172 127.187C169.033 127.518 168.991 127.778 169.046 127.968C169.03 128.04 169.038 128.114 169.072 128.186C169.127 128.326 169.287 128.46 169.55 128.589C170.999 129.278 172.653 129.857 174.512 130.327C175.91 130.68 177.638 131.015 179.691 131.334C192.43 133.294 203.765 132.851 213.7 130.008C213.829 129.969 213.947 129.927 214.052 129.882C214.098 129.894 214.145 129.902 214.195 129.907C216.893 130.322 219.613 130.466 222.355 130.344C225.097 130.221 227.79 129.828 230.431 129.169C231.237 128.967 231.736 128.846 231.926 128.808C232.496 128.685 233.004 128.62 233.445 128.614C233.625 128.609 233.977 128.62 234.503 128.648C234.939 128.677 235.289 128.677 235.552 128.648C236.095 128.603 236.716 128.433 237.416 128.136C237.78 127.985 238.302 127.746 238.986 127.422C239.065 127.444 239.142 127.451 239.221 127.439C239.406 127.417 239.557 127.317 239.674 127.137C239.703 127.092 239.728 127.05 239.75 127.011C239.884 126.882 239.965 126.746 239.993 126.6C240.022 126.42 239.96 126.252 239.809 126.096C239.753 126.041 239.696 125.995 239.641 125.962C239.573 125.839 239.481 125.688 239.364 125.508C236.682 121.479 233.571 117.822 230.028 114.536C229.256 113.819 228.589 113.265 228.03 112.874C227.253 112.325 226.489 111.937 225.738 111.707C225.055 111.5 224.274 111.393 223.396 111.388C222.809 111.383 222.011 111.43 221.004 111.531C220.562 111.569 220.24 111.589 220.038 111.589C219.68 111.589 219.367 111.544 219.098 111.455C218.817 111.359 218.532 111.198 218.242 110.968C218.074 110.839 217.822 110.615 217.486 110.296C213.121 106.127 208.332 102.501 203.122 99.4164C202.093 98.8069 201.228 98.3569 200.528 98.0648ZM219.778 113.218C219.984 113.206 220.396 113.168 221.012 113.1C221.902 113 222.669 112.958 223.312 112.974C224.147 113.003 224.896 113.129 225.562 113.352C226.229 113.576 226.909 113.94 227.602 114.444C228.106 114.808 228.702 115.313 229.39 115.963C232.669 119.047 235.524 122.483 237.953 126.272C237.399 126.541 237.021 126.721 236.82 126.81C236.288 127.028 235.801 127.157 235.359 127.196C235.096 127.224 234.746 127.221 234.31 127.187C233.784 127.149 233.432 127.129 233.252 127.129C232.871 127.134 232.438 127.187 231.951 127.288C231.811 127.317 231.383 127.417 230.666 127.59C228.097 128.24 225.482 128.653 222.817 128.833C220.159 129.006 217.511 128.939 214.875 128.631C214.719 128.614 214.59 128.606 214.489 128.606C214.467 128.443 214.425 128.275 214.363 128.102C214.217 127.704 213.972 127.308 213.624 126.91C213.372 126.62 213.213 126.42 213.146 126.314C213.04 126.101 212.958 125.941 212.902 125.836C212.785 125.622 212.612 125.377 212.382 125.097C211.782 124.375 211.232 123.858 210.728 123.544C210.011 123.079 209.292 122.901 208.57 123.007C208.515 121.865 207.969 120.664 206.933 119.405C206.586 118.985 206.074 118.431 205.397 117.743C204.804 117.138 204.306 116.699 203.903 116.425C203.293 116.01 202.694 115.8 202.106 115.795C202.027 115.795 201.959 115.812 201.896 115.846C201.824 115.879 201.791 115.926 201.796 115.988C201.801 116.067 201.88 116.131 202.031 116.181C202.731 116.4 203.335 116.697 203.844 117.071C204.091 117.256 204.432 117.562 204.868 117.986C205.468 118.574 205.901 119.016 206.169 119.313C206.628 119.828 206.992 120.324 207.261 120.799C207.686 121.549 207.953 122.343 208.058 123.183C208.08 123.322 208.114 123.418 208.159 123.468C208.221 123.535 208.347 123.574 208.537 123.586C209.398 123.631 210.171 123.927 210.854 124.476C211.067 124.655 211.358 124.951 211.727 125.366C212.041 125.713 212.264 125.999 212.399 126.222C212.466 126.334 212.567 126.507 212.701 126.742C212.768 126.843 212.86 126.964 212.978 127.103L213.28 127.448C213.582 127.822 213.796 128.232 213.918 128.673C213.896 128.678 213.876 128.685 213.859 128.69C213.653 128.668 213.377 128.698 213.037 128.782C206.942 130.305 200.726 131.099 194.391 131.167C188.056 131.234 181.827 130.576 175.704 129.194C173.639 128.735 171.943 128.225 170.616 127.666C170.537 127.632 170.465 127.604 170.398 127.582C170.42 127.537 170.443 127.493 170.465 127.448C171.439 125.539 172.522 123.712 173.714 121.966C174.34 121.047 175.083 120.035 175.939 118.927C176.414 118.317 177.195 117.335 178.281 115.98L182.025 111.321C184.018 108.841 185.563 107.011 186.659 105.83C188.468 103.878 190.241 102.288 191.982 101.062C192.956 100.378 193.867 99.8664 194.719 99.5255C195.771 99.1007 196.775 98.9127 197.732 98.9631C198.584 99.0134 199.492 99.2603 200.461 99.7018C201.094 99.9873 201.927 100.457 202.963 101.112C205.906 102.954 208.226 104.499 209.922 105.746C212.39 107.565 214.477 109.39 216.185 111.22C216.672 111.745 217.033 112.11 217.268 112.311C217.699 112.686 218.129 112.941 218.561 113.075C218.908 113.183 219.314 113.23 219.778 113.218ZM189.64 122.57C189.601 122.553 189.552 122.553 189.497 122.57C189.43 122.599 189.379 122.617 189.346 122.629L189.153 122.662C189.074 122.684 189.022 122.718 188.993 122.763C188.96 122.83 188.965 122.919 189.01 123.032C189.055 123.154 189.097 123.245 189.136 123.3C189.148 123.329 189.164 123.346 189.186 123.351L189.245 123.359H189.421L189.48 123.351L189.53 123.3L189.606 123.174C189.628 123.096 189.653 123.035 189.682 122.99C189.727 122.928 189.752 122.892 189.757 122.881V122.772C189.735 122.661 189.697 122.594 189.64 122.57ZM182.487 125.466C182.516 125.55 182.563 125.639 182.63 125.735L182.999 125.676C183.038 125.604 183.058 125.52 183.058 125.424L183.049 125.366L183.016 125.324L182.932 125.24L182.89 125.206H182.823L182.638 125.24L182.579 125.265L182.495 125.374L182.479 125.408C182.474 125.424 182.477 125.445 182.487 125.466ZM185.123 121.714C185.044 121.714 184.972 121.736 184.905 121.781C184.838 121.826 184.792 121.885 184.77 121.957C184.749 122.029 184.767 122.145 184.829 122.301L184.863 122.352L184.913 122.377L185.157 122.452L185.232 122.436C185.355 122.38 185.429 122.34 185.45 122.318C185.546 122.222 185.565 122.103 185.509 121.957C185.471 121.861 185.405 121.794 185.316 121.756C185.249 121.729 185.185 121.714 185.123 121.714Z" fill="#010101"/>
<path d="M76.1885 68.6318C76.0156 68.4924 75.8645 68.4421 75.7352 68.4807C75.6462 68.5092 75.5807 68.5697 75.5421 68.6654C75.5035 68.7611 75.4951 68.8551 75.5169 68.9508C75.5387 69.0515 75.6378 69.2144 75.8107 69.4377C76.0122 69.6946 76.2859 70.1043 76.6334 70.6634C78.8497 74.2901 80.7521 78.0645 82.3421 81.9884C82.4479 82.2452 82.5469 82.4165 82.6359 82.5005C82.7148 82.5726 82.8038 82.6213 82.9046 82.6432C83.0103 82.665 83.106 82.6516 83.19 82.6012C83.4133 82.4618 83.4368 82.168 83.2572 81.7197C81.6571 77.7908 79.7598 74.013 77.5653 70.3864C77.3134 69.9716 77.1086 69.6593 76.9525 69.4461C76.7073 69.117 76.4521 68.845 76.1885 68.6318ZM75.9283 61.6303C75.8947 61.4674 75.8695 61.3616 75.8527 61.3113C75.8074 61.1937 75.7469 61.1098 75.668 61.0594C75.5555 60.9923 75.4329 60.9889 75.2986 61.051C75.1643 61.1182 75.072 61.2156 75.0216 61.3449C74.9494 61.5463 74.9712 61.8099 75.0887 62.134C75.2012 62.453 75.4447 62.9517 75.8191 63.6283L78.9337 69.1523C79.0294 69.3202 79.1402 69.4495 79.2695 69.5385C79.4256 69.6509 79.5667 69.661 79.6892 69.572C79.8622 69.4427 79.8622 69.1993 79.6892 68.8417C78.7205 66.8218 77.6996 64.9094 76.625 63.1078C76.4286 62.7888 76.2926 62.5504 76.2137 62.3942C76.0743 62.1206 75.9786 61.8654 75.9283 61.6303ZM134.073 26.1359C133.429 27.0644 132.76 28.1927 132.066 29.5191C131.579 30.4594 131.19 31.2787 130.899 31.9789C130.525 32.8906 130.249 33.7536 130.077 34.5646C129.993 34.9339 130.046 35.1656 130.236 35.2613C130.308 35.3 130.392 35.3084 130.488 35.2865C130.572 35.2647 130.647 35.216 130.715 35.1438C130.81 35.0431 130.887 34.8869 130.95 34.6737C131.206 33.8846 131.4 33.3221 131.529 32.9863C131.798 32.2929 132.204 31.4332 132.746 30.409C133.715 28.5839 134.606 27.1383 135.424 26.0687C137.154 23.8189 139.454 21.8494 142.325 20.1586C142.471 20.0696 142.572 20.0025 142.627 19.9571C142.733 19.8681 142.808 19.7758 142.854 19.6801C142.909 19.5676 142.918 19.4501 142.879 19.3275C142.834 19.1932 142.753 19.1143 142.636 19.0924C142.563 19.0756 142.442 19.1042 142.275 19.1764C140.641 19.9538 139.123 20.9393 137.724 22.1314C136.326 23.3135 135.109 24.6483 134.073 26.1359ZM132.855 22.2406C132.973 22.1684 133.11 22.0139 133.267 21.7789C134.073 20.5817 135.164 19.5256 136.541 18.6139C136.814 18.4343 136.991 18.2697 137.07 18.1186C137.132 18.0061 137.154 17.8886 137.137 17.766C137.12 17.6317 137.061 17.5343 136.96 17.4722C136.776 17.3546 136.524 17.4134 136.205 17.6485C134.655 18.7785 133.393 20.0612 132.419 21.4934C132.229 21.7789 132.187 22.0022 132.293 22.165C132.348 22.2439 132.436 22.291 132.553 22.3077C132.661 22.3195 132.761 22.2977 132.855 22.2406ZM99.5016 28.8223C99.3959 28.6763 99.275 28.6158 99.1406 28.6376C98.9895 28.6662 98.8938 28.772 98.8552 28.9566C98.8216 29.1078 98.8267 29.2757 98.872 29.4604C99.0852 30.4056 99.3975 31.4449 99.8123 32.5749C100.069 33.2851 100.47 34.2926 101.013 35.5972C101.142 35.9044 101.293 36.0589 101.466 36.0589C101.562 36.0538 101.642 36.0119 101.71 35.933C101.772 35.854 101.807 35.7651 101.819 35.6643C101.824 35.53 101.772 35.3453 101.659 35.1102C100.798 33.2247 100.14 31.2787 99.6863 29.2757C99.6477 29.091 99.5856 28.9399 99.5016 28.8223ZM115.024 11.8139C114.856 11.8525 114.66 12.0019 114.436 12.2588C112.595 14.3123 111.042 16.5857 109.777 19.0756C108.513 21.5656 107.589 24.1597 107.007 26.8579C106.592 28.8173 106.458 30.5047 106.604 31.9201C106.642 32.318 106.775 32.5296 106.998 32.5581C107.155 32.5749 107.279 32.4943 107.368 32.3147C107.44 32.1753 107.482 31.999 107.494 31.7858C107.633 28.2649 108.387 24.8397 109.752 21.5102C111.117 18.1858 112.987 15.2223 115.36 12.6198C115.533 12.4351 115.615 12.2723 115.603 12.1329C115.587 12.0103 115.516 11.918 115.394 11.8559C115.276 11.7954 115.153 11.7803 115.024 11.8139ZM92.1643 24.6752L92.6848 27.6638C92.7738 28.2179 92.8662 28.683 92.9619 29.0574C93.024 29.3092 93.1667 29.7911 93.39 30.5013C93.9323 32.135 94.3504 33.3506 94.6409 34.1448C95.1328 35.483 95.6315 36.6633 96.1352 37.6875C96.3753 38.1744 96.7178 38.8242 97.1594 39.6352C97.6681 40.5754 98.0157 41.2252 98.2004 41.5828C98.323 41.8347 98.4489 41.9942 98.5782 42.0614C98.6739 42.1117 98.7763 42.1252 98.8888 42.1033C99.0013 42.0698 99.0701 42.006 99.0987 41.9102C99.1205 41.8431 99.1104 41.739 99.0651 41.5996C98.8132 40.8894 98.4069 39.9962 97.8478 38.9216C97.1141 37.528 96.6675 36.6516 96.5046 36.2939C96.2813 35.7953 95.9623 34.9877 95.5476 33.8678C94.9095 32.1669 94.4444 30.8405 94.154 29.8885C93.6889 28.4059 93.3682 27.0426 93.1885 25.8001C93.0995 25.1621 93.0257 24.7457 92.9703 24.5492C92.9149 24.3528 92.841 24.2101 92.752 24.1211C92.6966 24.0657 92.6261 24.0254 92.5421 24.0036C92.4582 23.9868 92.3826 23.9985 92.3154 24.0371C92.1543 24.1328 92.1039 24.3461 92.1643 24.6752Z" fill="#010101"/>
</svg>
