<svg width="188" height="188" viewBox="0 0 188 188" fill="none" xmlns="http://www.w3.org/2000/svg">
<path d="M135.402 186H176.992C181.968 186 186.002 181.966 186.002 176.989V135.4" stroke="#00B899" stroke-width="3.26904" stroke-linecap="round"/>
<path d="M52.5996 2.00005L11.0104 2.00005C6.03387 2.00005 1.99957 6.03434 1.99957 11.0109L1.99957 52.6001" stroke="#00B899" stroke-width="3.26904" stroke-linecap="round"/>
<path d="M1.99957 135.4L1.99956 176.989C1.99956 181.966 6.03385 186 11.0104 186L52.5996 186" stroke="#00B899" stroke-width="3.26904" stroke-linecap="round"/>
<path d="M186.002 52.6001L186.002 11.0109C186.002 6.03436 181.968 2.00006 176.992 2.00006L135.402 2.00005" stroke="#00B899" stroke-width="3.26904" stroke-linecap="round"/>
<path d="M23.3464 19.25H19.248V23.3484H23.3464V19.25Z" fill="black"/>
<path d="M27.4448 19.25H23.3464V23.3484H27.4448V19.25Z" fill="black"/>
<path d="M31.5431 19.25H27.4448V23.3484H31.5431V19.25Z" fill="black"/>
<path d="M35.6415 19.25H31.5431V23.3484H35.6415V19.25Z" fill="black"/>
<path d="M39.7398 19.25H35.6415V23.3484H39.7398V19.25Z" fill="black"/>
<path d="M43.8382 19.25H39.7398V23.3484H43.8382V19.25Z" fill="black"/>
<path d="M47.9365 19.25H43.8382V23.3484H47.9365V19.25Z" fill="black"/>
<path d="M56.1332 19.25H52.0349V23.3484H56.1332V19.25Z" fill="black"/>
<path d="M60.2316 19.25H56.1332V23.3484H60.2316V19.25Z" fill="black"/>
<path d="M64.3299 19.25H60.2316V23.3484H64.3299V19.25Z" fill="black"/>
<path d="M68.4283 19.25H64.3299V23.3484H68.4283V19.25Z" fill="black"/>
<path d="M80.7233 19.25H76.625V23.3484H80.7233V19.25Z" fill="black"/>
<path d="M93.0184 19.25H88.92V23.3484H93.0184V19.25Z" fill="black"/>
<path d="M97.1167 19.25H93.0184V23.3484H97.1167V19.25Z" fill="black"/>
<path d="M101.215 19.25H97.1167V23.3484H101.215V19.25Z" fill="black"/>
<path d="M109.412 19.25H105.313V23.3484H109.412V19.25Z" fill="black"/>
<path d="M129.904 19.25H125.805V23.3484H129.904V19.25Z" fill="black"/>
<path d="M138.1 19.25H134.002V23.3484H138.1V19.25Z" fill="black"/>
<path d="M146.297 19.25H142.199V23.3484H146.297V19.25Z" fill="black"/>
<path d="M150.395 19.25H146.297V23.3484H150.395V19.25Z" fill="black"/>
<path d="M154.494 19.25H150.395V23.3484H154.494V19.25Z" fill="black"/>
<path d="M158.592 19.25H154.494V23.3484H158.592V19.25Z" fill="black"/>
<path d="M162.69 19.25H158.592V23.3484H162.69V19.25Z" fill="black"/>
<path d="M166.789 19.25H162.69V23.3484H166.789V19.25Z" fill="black"/>
<path d="M170.887 19.25H166.789V23.3484H170.887V19.25Z" fill="black"/>
<path d="M23.3464 23.3484H19.248V27.4467H23.3464V23.3484Z" fill="black"/>
<path d="M47.9365 23.3484H43.8382V27.4467H47.9365V23.3484Z" fill="black"/>
<path d="M72.5266 23.3484H68.4283L68.4283 27.4467H72.5266V23.3484Z" fill="black"/>
<path d="M80.7233 23.3484H76.625V27.4467H80.7233V23.3484Z" fill="black"/>
<path d="M88.92 23.3484H84.8217V27.4467H88.92L88.92 23.3484Z" fill="black"/>
<path d="M93.0184 23.3484H88.92L88.92 27.4467H93.0184V23.3484Z" fill="black"/>
<path d="M97.1167 23.3484H93.0184V27.4467H97.1167V23.3484Z" fill="black"/>
<path d="M105.313 23.3484H101.215V27.4467H105.313V23.3484Z" fill="black"/>
<path d="M109.412 23.3484H105.313V27.4467H109.412V23.3484Z" fill="black"/>
<path d="M113.51 23.3484H109.412V27.4467H113.51V23.3484Z" fill="black"/>
<path d="M117.609 23.3484H113.51V27.4467H117.609V23.3484Z" fill="black"/>
<path d="M121.707 23.3484H117.609V27.4467H121.707V23.3484Z" fill="black"/>
<path d="M129.904 23.3484H125.805V27.4467H129.904V23.3484Z" fill="black"/>
<path d="M138.1 23.3484H134.002V27.4467H138.1V23.3484Z" fill="black"/>
<path d="M146.297 23.3484H142.199V27.4467H146.297V23.3484Z" fill="black"/>
<path d="M170.887 23.3484H166.789V27.4467H170.887V23.3484Z" fill="black"/>
<path d="M23.3464 27.4467H19.248V31.5451H23.3464V27.4467Z" fill="black"/>
<path d="M31.5431 27.4467H27.4448V31.5451H31.5431V27.4467Z" fill="black"/>
<path d="M35.6415 27.4467H31.5431V31.5451H35.6415V27.4467Z" fill="black"/>
<path d="M39.7398 27.4467H35.6415V31.5451H39.7398V27.4467Z" fill="black"/>
<path d="M47.9365 27.4467H43.8382V31.5451H47.9365V27.4467Z" fill="black"/>
<path d="M56.1332 27.4467H52.0349V31.5451H56.1332V27.4467Z" fill="black"/>
<path d="M60.2316 27.4467H56.1332V31.5451H60.2316V27.4467Z" fill="black"/>
<path d="M64.3299 27.4467H60.2316V31.5451H64.3299V27.4467Z" fill="black"/>
<path d="M97.1167 27.4467H93.0184V31.5451H97.1167V27.4467Z" fill="black"/>
<path d="M101.215 27.4467H97.1167V31.5451H101.215V27.4467Z" fill="black"/>
<path d="M113.51 27.4467H109.412V31.5451H113.51V27.4467Z" fill="black"/>
<path d="M121.707 27.4467H117.609V31.5451H121.707V27.4467Z" fill="black"/>
<path d="M125.805 27.4467H121.707V31.5451H125.805V27.4467Z" fill="black"/>
<path d="M129.904 27.4467H125.805V31.5451H129.904V27.4467Z" fill="black"/>
<path d="M138.1 27.4467H134.002V31.5451H138.1V27.4467Z" fill="black"/>
<path d="M146.297 27.4467H142.199V31.5451H146.297V27.4467Z" fill="black"/>
<path d="M154.494 27.4467H150.395V31.5451H154.494V27.4467Z" fill="black"/>
<path d="M158.592 27.4467H154.494V31.5451H158.592V27.4467Z" fill="black"/>
<path d="M162.69 27.4467H158.592V31.5451H162.69V27.4467Z" fill="black"/>
<path d="M170.887 27.4467H166.789V31.5451H170.887V27.4467Z" fill="black"/>
<path d="M23.3464 31.5451H19.248V35.6434H23.3464V31.5451Z" fill="black"/>
<path d="M31.5431 31.5451H27.4448V35.6434H31.5431V31.5451Z" fill="black"/>
<path d="M35.6415 31.5451H31.5431V35.6434H35.6415V31.5451Z" fill="black"/>
<path d="M39.7398 31.5451H35.6415V35.6434H39.7398V31.5451Z" fill="black"/>
<path d="M47.9365 31.5451H43.8382V35.6434H47.9365V31.5451Z" fill="black"/>
<path d="M60.2316 31.5451H56.1332V35.6434H60.2316V31.5451Z" fill="black"/>
<path d="M76.625 31.5451H72.5266V35.6434H76.625V31.5451Z" fill="black"/>
<path d="M101.215 31.5451H97.1167V35.6434H101.215V31.5451Z" fill="black"/>
<path d="M121.707 31.5451H117.609V35.6434H121.707V31.5451Z" fill="black"/>
<path d="M125.805 31.5451H121.707V35.6434H125.805V31.5451Z" fill="black"/>
<path d="M146.297 31.5451H142.199V35.6434H146.297V31.5451Z" fill="black"/>
<path d="M154.494 31.5451H150.395V35.6434H154.494V31.5451Z" fill="black"/>
<path d="M158.592 31.5451H154.494V35.6434H158.592V31.5451Z" fill="black"/>
<path d="M162.69 31.5451H158.592V35.6434H162.69V31.5451Z" fill="black"/>
<path d="M170.887 31.5451H166.789V35.6434H170.887V31.5451Z" fill="black"/>
<path d="M23.3464 35.6434H19.248V39.7418H23.3464V35.6434Z" fill="black"/>
<path d="M31.5431 35.6434H27.4448V39.7418H31.5431V35.6434Z" fill="black"/>
<path d="M35.6415 35.6434H31.5431V39.7418H35.6415V35.6434Z" fill="black"/>
<path d="M39.7398 35.6434H35.6415V39.7418H39.7398V35.6434Z" fill="black"/>
<path d="M47.9365 35.6434H43.8382V39.7418H47.9365V35.6434Z" fill="black"/>
<path d="M60.2316 35.6434H56.1332V39.7418H60.2316V35.6434Z" fill="black"/>
<path d="M68.4283 35.6434H64.3299V39.7418H68.4283V35.6434Z" fill="black"/>
<path d="M72.5266 35.6434H68.4283V39.7418H72.5266L72.5266 35.6434Z" fill="black"/>
<path d="M80.7233 35.6434H76.625V39.7418H80.7233V35.6434Z" fill="black"/>
<path d="M84.8217 35.6434H80.7233V39.7418H84.8217V35.6434Z" fill="black"/>
<path d="M88.92 35.6434H84.8217V39.7418H88.92V35.6434Z" fill="black"/>
<path d="M93.0184 35.6434H88.92V39.7418H93.0184V35.6434Z" fill="black"/>
<path d="M97.1167 35.6434H93.0184V39.7418H97.1167V35.6434Z" fill="black"/>
<path d="M105.313 35.6434H101.215V39.7418H105.313V35.6434Z" fill="black"/>
<path d="M113.51 35.6434H109.412V39.7418H113.51V35.6434Z" fill="black"/>
<path d="M117.609 35.6434H113.51V39.7418H117.609V35.6434Z" fill="black"/>
<path d="M138.1 35.6434H134.002V39.7418H138.1V35.6434Z" fill="black"/>
<path d="M146.297 35.6434H142.199V39.7418H146.297V35.6434Z" fill="black"/>
<path d="M154.494 35.6434H150.395V39.7418H154.494V35.6434Z" fill="black"/>
<path d="M158.592 35.6434H154.494V39.7418H158.592V35.6434Z" fill="black"/>
<path d="M162.69 35.6434H158.592V39.7418H162.69V35.6434Z" fill="black"/>
<path d="M170.887 35.6434H166.789V39.7418H170.887V35.6434Z" fill="black"/>
<path d="M23.3464 39.7418H19.248V43.8401H23.3464V39.7418Z" fill="black"/>
<path d="M47.9365 39.7418H43.8382V43.8401H47.9365V39.7418Z" fill="black"/>
<path d="M60.2316 39.7418H56.1332V43.8401H60.2316V39.7418Z" fill="black"/>
<path d="M68.4283 39.7418H64.3299V43.8401H68.4283V39.7418Z" fill="black"/>
<path d="M84.8217 39.7418H80.7233L80.7233 43.8401H84.8217V39.7418Z" fill="black"/>
<path d="M97.1167 39.7418H93.0184V43.8401H97.1167V39.7418Z" fill="black"/>
<path d="M101.215 39.7418H97.1167V43.8401H101.215V39.7418Z" fill="black"/>
<path d="M105.313 39.7418H101.215V43.8401H105.313V39.7418Z" fill="black"/>
<path d="M109.412 39.7418H105.313V43.8401H109.412V39.7418Z" fill="black"/>
<path d="M117.609 39.7418H113.51V43.8401H117.609V39.7418Z" fill="black"/>
<path d="M121.707 39.7418H117.609V43.8401H121.707V39.7418Z" fill="black"/>
<path d="M125.805 39.7418H121.707V43.8401H125.805V39.7418Z" fill="black"/>
<path d="M146.297 39.7418H142.199V43.8401H146.297V39.7418Z" fill="black"/>
<path d="M170.887 39.7418H166.789V43.8401H170.887V39.7418Z" fill="black"/>
<path d="M23.3464 43.8401H19.248V47.9385H23.3464V43.8401Z" fill="black"/>
<path d="M27.4448 43.8401H23.3464V47.9385H27.4448V43.8401Z" fill="black"/>
<path d="M31.5431 43.8401H27.4448V47.9385H31.5431V43.8401Z" fill="black"/>
<path d="M35.6415 43.8401H31.5431V47.9385H35.6415V43.8401Z" fill="black"/>
<path d="M39.7398 43.8401H35.6415V47.9385H39.7398V43.8401Z" fill="black"/>
<path d="M43.8382 43.8401H39.7398V47.9385H43.8382V43.8401Z" fill="black"/>
<path d="M47.9365 43.8401H43.8382V47.9385H47.9365V43.8401Z" fill="black"/>
<path d="M56.1332 43.8401H52.0349V47.9385H56.1332V43.8401Z" fill="black"/>
<path d="M64.3299 43.8401H60.2316V47.9385H64.3299V43.8401Z" fill="black"/>
<path d="M72.5266 43.8401H68.4283L68.4283 47.9385H72.5266V43.8401Z" fill="black"/>
<path d="M80.7233 43.8401H76.625V47.9385H80.7233L80.7233 43.8401Z" fill="black"/>
<path d="M88.92 43.8401H84.8217L84.8217 47.9385H88.92V43.8401Z" fill="black"/>
<path d="M97.1167 43.8401H93.0184V47.9385H97.1167V43.8401Z" fill="black"/>
<path d="M105.313 43.8401H101.215V47.9385H105.313V43.8401Z" fill="black"/>
<path d="M113.51 43.8401H109.412V47.9385H113.51V43.8401Z" fill="black"/>
<path d="M121.707 43.8401H117.609V47.9385H121.707V43.8401Z" fill="black"/>
<path d="M129.904 43.8401H125.805V47.9385H129.904V43.8401Z" fill="black"/>
<path d="M138.1 43.8401H134.002V47.9385H138.1V43.8401Z" fill="black"/>
<path d="M146.297 43.8401H142.199V47.9385H146.297V43.8401Z" fill="black"/>
<path d="M150.395 43.8401H146.297V47.9385H150.395V43.8401Z" fill="black"/>
<path d="M154.494 43.8401H150.395V47.9385H154.494V43.8401Z" fill="black"/>
<path d="M158.592 43.8401H154.494V47.9385H158.592V43.8401Z" fill="black"/>
<path d="M162.69 43.8401H158.592V47.9385H162.69V43.8401Z" fill="black"/>
<path d="M166.789 43.8401H162.69V47.9385H166.789V43.8401Z" fill="black"/>
<path d="M170.887 43.8401H166.789V47.9385H170.887V43.8401Z" fill="black"/>
<path d="M56.1332 47.9385H52.0349V52.0368H56.1332V47.9385Z" fill="black"/>
<path d="M80.7233 47.9385H76.625V52.0368H80.7233V47.9385Z" fill="black"/>
<path d="M88.92 47.9385H84.8217V52.0368H88.92V47.9385Z" fill="black"/>
<path d="M93.0184 47.9385H88.92V52.0368H93.0184V47.9385Z" fill="black"/>
<path d="M97.1167 47.9385H93.0184V52.0368H97.1167V47.9385Z" fill="black"/>
<path d="M105.313 47.9385H101.215V52.0368H105.313V47.9385Z" fill="black"/>
<path d="M109.412 47.9385H105.313V52.0368H109.412V47.9385Z" fill="black"/>
<path d="M129.904 47.9385H125.805V52.0368H129.904V47.9385Z" fill="black"/>
<path d="M138.1 47.9385H134.002V52.0368H138.1V47.9385Z" fill="black"/>
<path d="M23.3464 52.0368H19.248V56.1352H23.3464V52.0368Z" fill="black"/>
<path d="M31.5431 52.0368H27.4448V56.1352H31.5431V52.0368Z" fill="black"/>
<path d="M43.8382 52.0368H39.7398V56.1352H43.8382V52.0368Z" fill="black"/>
<path d="M47.9365 52.0368H43.8382V56.1352H47.9365V52.0368Z" fill="black"/>
<path d="M68.4283 52.0368H64.3299V56.1352H68.4283V52.0368Z" fill="black"/>
<path d="M72.5266 52.0368H68.4283V56.1352H72.5266V52.0368Z" fill="black"/>
<path d="M76.625 52.0368H72.5266V56.1352H76.625V52.0368Z" fill="black"/>
<path d="M88.92 52.0368H84.8217V56.1352H88.92V52.0368Z" fill="black"/>
<path d="M93.0184 52.0368H88.92V56.1352H93.0184V52.0368Z" fill="black"/>
<path d="M101.215 52.0368H97.1167V56.1352H101.215V52.0368Z" fill="black"/>
<path d="M105.313 52.0368H101.215V56.1352H105.313V52.0368Z" fill="black"/>
<path d="M109.412 52.0368H105.313V56.1352H109.412V52.0368Z" fill="black"/>
<path d="M117.609 52.0368H113.51V56.1352H117.609V52.0368Z" fill="black"/>
<path d="M121.707 52.0368H117.609V56.1352H121.707V52.0368Z" fill="black"/>
<path d="M125.805 52.0368H121.707V56.1352H125.805V52.0368Z" fill="black"/>
<path d="M129.904 52.0368H125.805V56.1352H129.904V52.0368Z" fill="black"/>
<path d="M138.1 52.0368H134.002V56.1352H138.1V52.0368Z" fill="black"/>
<path d="M142.199 52.0368H138.1V56.1352H142.199V52.0368Z" fill="black"/>
<path d="M146.297 52.0368H142.199V56.1352H146.297V52.0368Z" fill="black"/>
<path d="M162.69 52.0368H158.592V56.1352H162.69V52.0368Z" fill="black"/>
<path d="M170.887 52.0368H166.789V56.1352H170.887V52.0368Z" fill="black"/>
<path d="M68.4283 56.1352H64.3299V60.2335H68.4283V56.1352Z" fill="black"/>
<path d="M80.7233 56.1352H76.625V60.2335H80.7233V56.1352Z" fill="black"/>
<path d="M84.8217 56.1352H80.7233V60.2335H84.8217L84.8217 56.1352Z" fill="black"/>
<path d="M97.1167 56.1352H93.0184V60.2335H97.1167V56.1352Z" fill="black"/>
<path d="M105.313 56.1352H101.215V60.2335H105.313V56.1352Z" fill="black"/>
<path d="M109.412 56.1352H105.313V60.2335H109.412V56.1352Z" fill="black"/>
<path d="M113.51 56.1352H109.412V60.2335H113.51V56.1352Z" fill="black"/>
<path d="M117.609 56.1352H113.51V60.2335H117.609V56.1352Z" fill="black"/>
<path d="M125.805 56.1352H121.707V60.2335H125.805V56.1352Z" fill="black"/>
<path d="M129.904 56.1352H125.805V60.2335H129.904V56.1352Z" fill="black"/>
<path d="M138.1 56.1352H134.002V60.2335H138.1V56.1352Z" fill="black"/>
<path d="M154.494 56.1352H150.395V60.2335H154.494V56.1352Z" fill="black"/>
<path d="M158.592 56.1352H154.494V60.2335H158.592V56.1352Z" fill="black"/>
<path d="M162.69 56.1352H158.592V60.2335H162.69V56.1352Z" fill="black"/>
<path d="M170.887 56.1352H166.789V60.2335H170.887V56.1352Z" fill="black"/>
<path d="M23.3464 60.2335H19.248V64.3319H23.3464V60.2335Z" fill="black"/>
<path d="M47.9365 60.2335H43.8382V64.3319H47.9365V60.2335Z" fill="black"/>
<path d="M56.1332 60.2335H52.0349V64.3319H56.1332V60.2335Z" fill="black"/>
<path d="M64.3299 60.2335H60.2316V64.3319H64.3299V60.2335Z" fill="black"/>
<path d="M68.4283 60.2335H64.3299V64.3319H68.4283V60.2335Z" fill="black"/>
<path d="M80.7233 60.2335H76.625V64.3319H80.7233V60.2335Z" fill="black"/>
<path d="M93.0184 60.2335H88.92V64.3319H93.0184V60.2335Z" fill="black"/>
<path d="M109.412 60.2335H105.313V64.3319H109.412V60.2335Z" fill="black"/>
<path d="M113.51 60.2335H109.412V64.3319H113.51V60.2335Z" fill="black"/>
<path d="M121.707 60.2335H117.609V64.3319H121.707V60.2335Z" fill="black"/>
<path d="M125.805 60.2335H121.707V64.3319H125.805V60.2335Z" fill="black"/>
<path d="M129.904 60.2335H125.805V64.3319H129.904V60.2335Z" fill="black"/>
<path d="M134.002 60.2335H129.904V64.3319H134.002V60.2335Z" fill="black"/>
<path d="M138.1 60.2335H134.002V64.3319H138.1V60.2335Z" fill="black"/>
<path d="M146.297 60.2335H142.199V64.3319H146.297V60.2335Z" fill="black"/>
<path d="M154.494 60.2335H150.395V64.3319H154.494V60.2335Z" fill="black"/>
<path d="M158.592 60.2335H154.494V64.3319H158.592V60.2335Z" fill="black"/>
<path d="M166.789 60.2335H162.69V64.3319H166.789V60.2335Z" fill="black"/>
<path d="M23.3464 64.3319H19.248V68.4302H23.3464V64.3319Z" fill="black"/>
<path d="M27.4448 64.3319H23.3464V68.4302H27.4448V64.3319Z" fill="black"/>
<path d="M31.5431 64.3319H27.4448V68.4302H31.5431V64.3319Z" fill="black"/>
<path d="M35.6415 64.3319H31.5431V68.4302H35.6415V64.3319Z" fill="black"/>
<path d="M39.7398 64.3319H35.6415V68.4302H39.7398V64.3319Z" fill="black"/>
<path d="M43.8382 64.3319H39.7398V68.4302H43.8382V64.3319Z" fill="black"/>
<path d="M56.1332 64.3319H52.0349V68.4302H56.1332V64.3319Z" fill="black"/>
<path d="M68.4283 64.3319H64.3299V68.4302H68.4283V64.3319Z" fill="black"/>
<path d="M72.5266 64.3319H68.4283V68.4302H72.5266V64.3319Z" fill="black"/>
<path d="M80.7233 64.3319H76.625V68.4302H80.7233V64.3319Z" fill="black"/>
<path d="M101.215 64.3319H97.1167V68.4302H101.215V64.3319Z" fill="black"/>
<path d="M113.51 64.3319H109.412V68.4302H113.51V64.3319Z" fill="black"/>
<path d="M121.707 64.3319H117.609V68.4302H121.707V64.3319Z" fill="black"/>
<path d="M134.002 64.3319H129.904V68.4302H134.002V64.3319Z" fill="black"/>
<path d="M138.1 64.3319H134.002V68.4302H138.1V64.3319Z" fill="black"/>
<path d="M142.199 64.3319H138.1V68.4302H142.199V64.3319Z" fill="black"/>
<path d="M150.395 64.3319H146.297V68.4302H150.395V64.3319Z" fill="black"/>
<path d="M158.592 64.3319H154.494V68.4302H158.592V64.3319Z" fill="black"/>
<path d="M162.69 64.3319H158.592V68.4302H162.69V64.3319Z" fill="black"/>
<path d="M166.789 64.3319H162.69V68.4302H166.789V64.3319Z" fill="black"/>
<path d="M23.3464 68.4302H19.248V72.5286H23.3464V68.4302Z" fill="black"/>
<path d="M31.5431 68.4302H27.4448V72.5286H31.5431V68.4302Z" fill="black"/>
<path d="M35.6415 68.4302H31.5431V72.5286H35.6415V68.4302Z" fill="black"/>
<path d="M47.9365 68.4302L43.8382 68.4302V72.5286H47.9365V68.4302Z" fill="black"/>
<path d="M56.1332 68.4302H52.0349V72.5286H56.1332V68.4302Z" fill="black"/>
<path d="M60.2316 68.4302L56.1332 68.4302V72.5286H60.2316V68.4302Z" fill="black"/>
<path d="M64.3299 68.4302L60.2316 68.4302V72.5286H64.3299V68.4302Z" fill="black"/>
<path d="M68.4283 68.4302H64.3299V72.5286H68.4283V68.4302Z" fill="black"/>
<path d="M84.8217 68.4302L80.7233 68.4302L80.7233 72.5286H84.8217V68.4302Z" fill="black"/>
<path d="M93.0184 68.4302H88.92V72.5286H93.0184V68.4302Z" fill="black"/>
<path d="M97.1167 68.4302L93.0184 68.4302V72.5286H97.1167V68.4302Z" fill="black"/>
<path d="M105.313 68.4302L101.215 68.4302V72.5286H105.313V68.4302Z" fill="black"/>
<path d="M109.412 68.4302L105.313 68.4302V72.5286H109.412V68.4302Z" fill="black"/>
<path d="M113.51 68.4302H109.412V72.5286H113.51V68.4302Z" fill="black"/>
<path d="M125.805 68.4302L121.707 68.4302V72.5286H125.805V68.4302Z" fill="black"/>
<path d="M134.002 68.4302H129.904V72.5286H134.002V68.4302Z" fill="black"/>
<path d="M150.395 68.4302H146.297V72.5286H150.395V68.4302Z" fill="black"/>
<path d="M166.789 68.4302H162.69V72.5286H166.789V68.4302Z" fill="black"/>
<path d="M170.887 68.4302L166.789 68.4302V72.5286H170.887V68.4302Z" fill="black"/>
<path d="M31.5431 72.5286H27.4448V76.6269H31.5431V72.5286Z" fill="black"/>
<path d="M39.7398 72.5286L35.6415 72.5286V76.6269H39.7398V72.5286Z" fill="black"/>
<path d="M64.3299 72.5286H60.2316V76.6269H64.3299V72.5286Z" fill="black"/>
<path d="M68.4283 72.5286H64.3299V76.6269H68.4283V72.5286Z" fill="black"/>
<path d="M72.5266 72.5286L68.4283 72.5286V76.6269H72.5266V72.5286Z" fill="black"/>
<path d="M76.625 72.5286H72.5266V76.6269H76.625V72.5286Z" fill="black"/>
<path d="M88.92 72.5286H84.8217L84.8217 76.6269H88.92L88.92 72.5286Z" fill="black"/>
<path d="M109.412 72.5286H105.313V76.6269H109.412V72.5286Z" fill="black"/>
<path d="M117.609 72.5286L113.51 72.5286V76.6269H117.609V72.5286Z" fill="black"/>
<path d="M125.805 72.5286H121.707V76.6269H125.805V72.5286Z" fill="black"/>
<path d="M134.002 72.5286H129.904V76.6269H134.002V72.5286Z" fill="black"/>
<path d="M142.199 72.5286H138.1V76.6269H142.199V72.5286Z" fill="black"/>
<path d="M146.297 72.5286L142.199 72.5286V76.6269H146.297V72.5286Z" fill="black"/>
<path d="M158.592 72.5286H154.494V76.6269H158.592V72.5286Z" fill="black"/>
<path d="M31.5431 76.6269H27.4448V80.7253H31.5431V76.6269Z" fill="black"/>
<path d="M47.9365 76.6269H43.8382V80.7253H47.9365V76.6269Z" fill="black"/>
<path d="M52.0349 76.6269H47.9365V80.7253H52.0349V76.6269Z" fill="black"/>
<path d="M56.1332 76.6269H52.0349V80.7253H56.1332V76.6269Z" fill="black"/>
<path d="M64.3299 76.6269H60.2316V80.7253H64.3299V76.6269Z" fill="black"/>
<path d="M68.4283 76.6269H64.3299V80.7253H68.4283V76.6269Z" fill="black"/>
<path d="M76.625 76.6269H72.5266L72.5266 80.7253H76.625V76.6269Z" fill="black"/>
<path d="M80.7233 76.6269H76.625V80.7253H80.7233V76.6269Z" fill="black"/>
<path d="M84.8217 76.6269H80.7233V80.7253H84.8217L84.8217 76.6269Z" fill="black"/>
<path d="M88.92 76.6269H84.8217L84.8217 80.7253H88.92V76.6269Z" fill="black"/>
<path d="M93.0184 76.6269H88.92V80.7253H93.0184V76.6269Z" fill="black"/>
<path d="M97.1167 76.6269H93.0184V80.7253H97.1167V76.6269Z" fill="black"/>
<path d="M101.215 76.6269H97.1167V80.7253H101.215V76.6269Z" fill="black"/>
<path d="M105.313 76.6269H101.215V80.7253H105.313V76.6269Z" fill="black"/>
<path d="M117.609 76.6269H113.51V80.7253H117.609V76.6269Z" fill="black"/>
<path d="M138.1 76.6269H134.002V80.7253H138.1V76.6269Z" fill="black"/>
<path d="M146.297 76.6269H142.199V80.7253H146.297V76.6269Z" fill="black"/>
<path d="M154.494 76.6269H150.395V80.7253H154.494V76.6269Z" fill="black"/>
<path d="M162.69 76.6269H158.592V80.7253H162.69V76.6269Z" fill="black"/>
<path d="M170.887 76.6269H166.789V80.7253H170.887V76.6269Z" fill="black"/>
<path d="M23.3464 80.7253H19.248V84.8236H23.3464V80.7253Z" fill="black"/>
<path d="M43.8382 80.7253L39.7398 80.7253V84.8236H43.8382V80.7253Z" fill="black"/>
<path d="M56.1332 80.7253H52.0349V84.8236H56.1332V80.7253Z" fill="black"/>
<path d="M68.4283 80.7253H64.3299V84.8236H68.4283V80.7253Z" fill="black"/>
<path d="M76.625 80.7253H72.5266V84.8236H76.625V80.7253Z" fill="black"/>
<path d="M80.7233 80.7253H76.625V84.8236H80.7233V80.7253Z" fill="black"/>
<path d="M97.1167 80.7253H93.0184V84.8236H97.1167V80.7253Z" fill="black"/>
<path d="M105.313 80.7253H101.215V84.8236H105.313V80.7253Z" fill="black"/>
<path d="M109.412 80.7253L105.313 80.7253V84.8236H109.412V80.7253Z" fill="black"/>
<path d="M113.51 80.7253L109.412 80.7253V84.8236H113.51V80.7253Z" fill="black"/>
<path d="M134.002 80.7253L129.904 80.7253V84.8236H134.002V80.7253Z" fill="black"/>
<path d="M142.199 80.7253H138.1V84.8236H142.199V80.7253Z" fill="black"/>
<path d="M146.297 80.7253H142.199V84.8236H146.297V80.7253Z" fill="black"/>
<path d="M154.494 80.7253H150.395V84.8236H154.494V80.7253Z" fill="black"/>
<path d="M162.69 80.7253H158.592V84.8236H162.69V80.7253Z" fill="black"/>
<path d="M170.887 80.7253H166.789V84.8236H170.887V80.7253Z" fill="black"/>
<path d="M31.5431 84.8236H27.4448V88.922H31.5431V84.8236Z" fill="black"/>
<path d="M43.8382 84.8236H39.7398V88.922H43.8382V84.8236Z" fill="black"/>
<path d="M47.9365 84.8236L43.8382 84.8236V88.922H47.9365V84.8236Z" fill="black"/>
<path d="M56.1332 84.8236H52.0349V88.922H56.1332V84.8236Z" fill="black"/>
<path d="M60.2316 84.8236L56.1332 84.8236V88.922H60.2316V84.8236Z" fill="black"/>
<path d="M64.3299 84.8236L60.2316 84.8236V88.922H64.3299V84.8236Z" fill="black"/>
<path d="M68.4283 84.8236H64.3299V88.922H68.4283V84.8236Z" fill="black"/>
<path d="M76.625 84.8236H72.5266V88.922H76.625V84.8236Z" fill="black"/>
<path d="M80.7233 84.8236H76.625V88.922H80.7233V84.8236Z" fill="black"/>
<path d="M84.8217 84.8236L80.7233 84.8236V88.922H84.8217V84.8236Z" fill="black"/>
<path d="M105.313 84.8236H101.215V88.922H105.313V84.8236Z" fill="black"/>
<path d="M109.412 84.8236H105.313V88.922H109.412V84.8236Z" fill="black"/>
<path d="M121.707 84.8236H117.609V88.922H121.707V84.8236Z" fill="black"/>
<path d="M125.805 84.8236H121.707V88.922H125.805V84.8236Z" fill="black"/>
<path d="M129.904 84.8236L125.805 84.8236V88.922H129.904V84.8236Z" fill="black"/>
<path d="M134.002 84.8236H129.904V88.922H134.002V84.8236Z" fill="black"/>
<path d="M138.1 84.8236H134.002V88.922H138.1V84.8236Z" fill="black"/>
<path d="M142.199 84.8236H138.1V88.922H142.199V84.8236Z" fill="black"/>
<path d="M170.887 84.8236H166.789V88.922H170.887V84.8236Z" fill="black"/>
<path d="M23.3464 88.922H19.248V93.0203H23.3464V88.922Z" fill="black"/>
<path d="M27.4448 88.922L23.3464 88.922V93.0203H27.4448V88.922Z" fill="black"/>
<path d="M31.5431 88.922H27.4448V93.0203H31.5431V88.922Z" fill="black"/>
<path d="M35.6415 88.922L31.5431 88.922V93.0203H35.6415V88.922Z" fill="black"/>
<path d="M39.7398 88.922L35.6415 88.922V93.0203H39.7398V88.922Z" fill="black"/>
<path d="M56.1332 88.922H52.0349V93.0203H56.1332V88.922Z" fill="black"/>
<path d="M60.2316 88.922H56.1332V93.0203H60.2316V88.922Z" fill="black"/>
<path d="M76.625 88.922H72.5266V93.0203H76.625V88.922Z" fill="black"/>
<path d="M84.8217 88.922H80.7233L80.7233 93.0203H84.8217V88.922Z" fill="black"/>
<path d="M88.92 88.922L84.8217 88.922V93.0203H88.92V88.922Z" fill="black"/>
<path d="M97.1167 88.922H93.0184V93.0203H97.1167V88.922Z" fill="black"/>
<path d="M113.51 88.922L109.412 88.922V93.0203H113.51V88.922Z" fill="black"/>
<path d="M121.707 88.922H117.609V93.0203H121.707V88.922Z" fill="black"/>
<path d="M129.904 88.922H125.805V93.0203H129.904V88.922Z" fill="black"/>
<path d="M142.199 88.922H138.1V93.0203H142.199V88.922Z" fill="black"/>
<path d="M150.395 88.922H146.297V93.0203H150.395V88.922Z" fill="black"/>
<path d="M154.494 88.922H150.395V93.0203H154.494V88.922Z" fill="black"/>
<path d="M162.69 88.922H158.592V93.0203H162.69V88.922Z" fill="black"/>
<path d="M23.3464 93.0203H19.248V97.1187H23.3464V93.0203Z" fill="black"/>
<path d="M39.7398 93.0203H35.6415V97.1187H39.7398V93.0203Z" fill="black"/>
<path d="M47.9365 93.0203H43.8382V97.1187H47.9365V93.0203Z" fill="black"/>
<path d="M52.0349 93.0203H47.9365V97.1187H52.0349V93.0203Z" fill="black"/>
<path d="M56.1332 93.0203H52.0349V97.1187H56.1332V93.0203Z" fill="black"/>
<path d="M60.2316 93.0203H56.1332V97.1187H60.2316V93.0203Z" fill="black"/>
<path d="M68.4283 93.0203H64.3299V97.1187H68.4283V93.0203Z" fill="black"/>
<path d="M113.51 93.0203H109.412V97.1187H113.51V93.0203Z" fill="black"/>
<path d="M117.609 93.0203H113.51V97.1187H117.609V93.0203Z" fill="black"/>
<path d="M121.707 93.0203H117.609V97.1187H121.707V93.0203Z" fill="black"/>
<path d="M125.805 93.0203H121.707V97.1187H125.805V93.0203Z" fill="black"/>
<path d="M134.002 93.0203H129.904V97.1187H134.002V93.0203Z" fill="black"/>
<path d="M142.199 93.0203H138.1V97.1187H142.199V93.0203Z" fill="black"/>
<path d="M23.3464 97.1187H19.248V101.217H23.3464V97.1187Z" fill="black"/>
<path d="M27.4448 97.1187H23.3464V101.217H27.4448V97.1187Z" fill="black"/>
<path d="M35.6415 97.1187H31.5431V101.217H35.6415V97.1187Z" fill="black"/>
<path d="M56.1332 97.1187H52.0349V101.217H56.1332V97.1187Z" fill="black"/>
<path d="M64.3299 97.1187H60.2316V101.217H64.3299V97.1187Z" fill="black"/>
<path d="M72.5266 97.1187H68.4283L68.4283 101.217H72.5266V97.1187Z" fill="black"/>
<path d="M76.625 97.1187H72.5266V101.217H76.625V97.1187Z" fill="black"/>
<path d="M80.7233 97.1187H76.625V101.217H80.7233V97.1187Z" fill="black"/>
<path d="M88.92 97.1187H84.8217V101.217H88.92V97.1187Z" fill="black"/>
<path d="M101.215 97.1187H97.1167V101.217H101.215V97.1187Z" fill="black"/>
<path d="M109.412 97.1187H105.313V101.217H109.412V97.1187Z" fill="black"/>
<path d="M113.51 97.1187H109.412V101.217H113.51V97.1187Z" fill="black"/>
<path d="M121.707 97.1187H117.609V101.217H121.707V97.1187Z" fill="black"/>
<path d="M129.904 97.1187H125.805V101.217H129.904V97.1187Z" fill="black"/>
<path d="M138.1 97.1187H134.002V101.217H138.1V97.1187Z" fill="black"/>
<path d="M142.199 97.1187H138.1V101.217H142.199V97.1187Z" fill="black"/>
<path d="M146.297 97.1187H142.199V101.217H146.297V97.1187Z" fill="black"/>
<path d="M150.395 97.1187H146.297V101.217H150.395V97.1187Z" fill="black"/>
<path d="M166.789 97.1187H162.69V101.217H166.789V97.1187Z" fill="black"/>
<path d="M35.6415 101.217H31.5431V105.315H35.6415V101.217Z" fill="black"/>
<path d="M47.9365 101.217H43.8382V105.315H47.9365V101.217Z" fill="black"/>
<path d="M76.625 101.217H72.5266L72.5266 105.315H76.625V101.217Z" fill="black"/>
<path d="M80.7233 101.217H76.625V105.315H80.7233V101.217Z" fill="black"/>
<path d="M88.92 101.217H84.8217V105.315H88.92V101.217Z" fill="black"/>
<path d="M93.0184 101.217H88.92V105.315H93.0184V101.217Z" fill="black"/>
<path d="M97.1167 101.217H93.0184V105.315H97.1167V101.217Z" fill="black"/>
<path d="M101.215 101.217H97.1167V105.315H101.215V101.217Z" fill="black"/>
<path d="M109.412 101.217H105.313V105.315H109.412V101.217Z" fill="black"/>
<path d="M138.1 101.217H134.002V105.315H138.1V101.217Z" fill="black"/>
<path d="M142.199 101.217H138.1V105.315H142.199V101.217Z" fill="black"/>
<path d="M150.395 101.217H146.297V105.315H150.395V101.217Z" fill="black"/>
<path d="M154.494 101.217H150.395V105.315H154.494V101.217Z" fill="black"/>
<path d="M158.592 101.217H154.494V105.315H158.592V101.217Z" fill="black"/>
<path d="M162.69 101.217H158.592V105.315H162.69V101.217Z" fill="black"/>
<path d="M166.789 101.217H162.69V105.315H166.789V101.217Z" fill="black"/>
<path d="M170.887 101.217H166.789V105.315H170.887V101.217Z" fill="black"/>
<path d="M23.3464 105.315H19.248V109.414H23.3464V105.315Z" fill="black"/>
<path d="M27.4448 105.315H23.3464V109.414H27.4448V105.315Z" fill="black"/>
<path d="M31.5431 105.315H27.4448V109.414H31.5431V105.315Z" fill="black"/>
<path d="M35.6415 105.315H31.5431V109.414H35.6415V105.315Z" fill="black"/>
<path d="M43.8382 105.315H39.7398V109.414H43.8382V105.315Z" fill="black"/>
<path d="M52.0349 105.315H47.9365V109.414H52.0349V105.315Z" fill="black"/>
<path d="M56.1332 105.315H52.0349V109.414H56.1332V105.315Z" fill="black"/>
<path d="M64.3299 105.315H60.2316V109.414H64.3299V105.315Z" fill="black"/>
<path d="M80.7233 105.315H76.625V109.414H80.7233V105.315Z" fill="black"/>
<path d="M88.92 105.315H84.8217V109.414H88.92V105.315Z" fill="black"/>
<path d="M93.0184 105.315H88.92V109.414H93.0184V105.315Z" fill="black"/>
<path d="M109.412 105.315H105.313V109.414H109.412V105.315Z" fill="black"/>
<path d="M117.609 105.315H113.51V109.414H117.609V105.315Z" fill="black"/>
<path d="M121.707 105.315H117.609V109.414H121.707V105.315Z" fill="black"/>
<path d="M146.297 105.315H142.199V109.414H146.297V105.315Z" fill="black"/>
<path d="M154.494 105.315H150.395V109.414H154.494V105.315Z" fill="black"/>
<path d="M162.69 105.315H158.592V109.414H162.69V105.315Z" fill="black"/>
<path d="M35.6415 109.414H31.5431V113.512H35.6415V109.414Z" fill="black"/>
<path d="M43.8382 109.414H39.7398V113.512H43.8382V109.414Z" fill="black"/>
<path d="M47.9365 109.414H43.8382V113.512H47.9365V109.414Z" fill="black"/>
<path d="M80.7233 109.414H76.625V113.512H80.7233V109.414Z" fill="black"/>
<path d="M84.8217 109.414H80.7233V113.512H84.8217L84.8217 109.414Z" fill="black"/>
<path d="M88.92 109.414H84.8217L84.8217 113.512H88.92V109.414Z" fill="black"/>
<path d="M93.0184 109.414H88.92V113.512H93.0184V109.414Z" fill="black"/>
<path d="M101.215 109.414H97.1167V113.512H101.215V109.414Z" fill="black"/>
<path d="M109.412 109.414H105.313V113.512H109.412V109.414Z" fill="black"/>
<path d="M129.904 109.414H125.805V113.512H129.904V109.414Z" fill="black"/>
<path d="M146.297 109.414H142.199V113.512H146.297V109.414Z" fill="black"/>
<path d="M150.395 109.414H146.297V113.512H150.395V109.414Z" fill="black"/>
<path d="M154.494 109.414H150.395V113.512H154.494V109.414Z" fill="black"/>
<path d="M158.592 109.414H154.494V113.512H158.592V109.414Z" fill="black"/>
<path d="M166.789 109.414H162.69V113.512H166.789V109.414Z" fill="black"/>
<path d="M170.887 109.414H166.789V113.512H170.887V109.414Z" fill="black"/>
<path d="M23.3464 113.512H19.248V117.61H23.3464V113.512Z" fill="black"/>
<path d="M31.5431 113.512H27.4448V117.61H31.5431V113.512Z" fill="black"/>
<path d="M52.0349 113.512H47.9365V117.61H52.0349V113.512Z" fill="black"/>
<path d="M68.4283 113.512H64.3299V117.61H68.4283V113.512Z" fill="black"/>
<path d="M76.625 113.512H72.5266V117.61H76.625V113.512Z" fill="black"/>
<path d="M80.7233 113.512H76.625V117.61H80.7233V113.512Z" fill="black"/>
<path d="M97.1167 113.512H93.0184V117.61H97.1167V113.512Z" fill="black"/>
<path d="M105.313 113.512H101.215V117.61H105.313V113.512Z" fill="black"/>
<path d="M109.412 113.512H105.313V117.61H109.412V113.512Z" fill="black"/>
<path d="M113.51 113.512H109.412V117.61H113.51V113.512Z" fill="black"/>
<path d="M117.609 113.512H113.51V117.61H117.609V113.512Z" fill="black"/>
<path d="M134.002 113.512H129.904V117.61H134.002V113.512Z" fill="black"/>
<path d="M142.199 113.512H138.1V117.61H142.199V113.512Z" fill="black"/>
<path d="M146.297 113.512H142.199V117.61H146.297V113.512Z" fill="black"/>
<path d="M150.395 113.512H146.297V117.61H150.395V113.512Z" fill="black"/>
<path d="M154.494 113.512H150.395V117.61H154.494V113.512Z" fill="black"/>
<path d="M162.69 113.512H158.592V117.61H162.69V113.512Z" fill="black"/>
<path d="M170.887 113.512H166.789V117.61H170.887V113.512Z" fill="black"/>
<path d="M23.3464 117.61H19.248V121.709H23.3464V117.61Z" fill="black"/>
<path d="M27.4448 117.61H23.3464V121.709H27.4448V117.61Z" fill="black"/>
<path d="M31.5431 117.61H27.4448V121.709H31.5431V117.61Z" fill="black"/>
<path d="M35.6415 117.61H31.5431V121.709H35.6415V117.61Z" fill="black"/>
<path d="M43.8382 117.61H39.7398V121.709H43.8382V117.61Z" fill="black"/>
<path d="M47.9365 117.61H43.8382V121.709H47.9365V117.61Z" fill="black"/>
<path d="M52.0349 117.61H47.9365V121.709H52.0349V117.61Z" fill="black"/>
<path d="M56.1332 117.61H52.0349V121.709H56.1332V117.61Z" fill="black"/>
<path d="M60.2316 117.61H56.1332V121.709H60.2316V117.61Z" fill="black"/>
<path d="M64.3299 117.61H60.2316V121.709H64.3299V117.61Z" fill="black"/>
<path d="M68.4283 117.61H64.3299V121.709H68.4283V117.61Z" fill="black"/>
<path d="M72.5266 117.61H68.4283V121.709H72.5266L72.5266 117.61Z" fill="black"/>
<path d="M84.8217 117.61H80.7233L80.7233 121.709H84.8217V117.61Z" fill="black"/>
<path d="M105.313 117.61H101.215V121.709H105.313V117.61Z" fill="black"/>
<path d="M109.412 117.61H105.313V121.709H109.412V117.61Z" fill="black"/>
<path d="M117.609 117.61H113.51V121.709H117.609V117.61Z" fill="black"/>
<path d="M121.707 117.61H117.609V121.709H121.707V117.61Z" fill="black"/>
<path d="M125.805 117.61H121.707V121.709H125.805V117.61Z" fill="black"/>
<path d="M129.904 117.61H125.805V121.709H129.904V117.61Z" fill="black"/>
<path d="M134.002 117.61H129.904V121.709H134.002V117.61Z" fill="black"/>
<path d="M138.1 117.61H134.002V121.709H138.1V117.61Z" fill="black"/>
<path d="M142.199 117.61H138.1V121.709H142.199V117.61Z" fill="black"/>
<path d="M170.887 117.61H166.789V121.709H170.887V117.61Z" fill="black"/>
<path d="M27.4448 121.709H23.3464V125.807H27.4448V121.709Z" fill="black"/>
<path d="M31.5431 121.709H27.4448V125.807H31.5431V121.709Z" fill="black"/>
<path d="M35.6415 121.709H31.5431V125.807H35.6415V121.709Z" fill="black"/>
<path d="M93.0184 121.709H88.92V125.807H93.0184V121.709Z" fill="black"/>
<path d="M97.1167 121.709H93.0184V125.807H97.1167V121.709Z" fill="black"/>
<path d="M113.51 121.709H109.412V125.807H113.51V121.709Z" fill="black"/>
<path d="M121.707 121.709H117.609V125.807H121.707V121.709Z" fill="black"/>
<path d="M129.904 121.709H125.805V125.807H129.904V121.709Z" fill="black"/>
<path d="M142.199 121.709H138.1V125.807H142.199V121.709Z" fill="black"/>
<path d="M150.395 121.709H146.297V125.807H150.395V121.709Z" fill="black"/>
<path d="M154.494 121.709H150.395V125.807H154.494V121.709Z" fill="black"/>
<path d="M158.592 121.709H154.494V125.807H158.592V121.709Z" fill="black"/>
<path d="M23.3464 125.807H19.248V129.906H23.3464V125.807Z" fill="black"/>
<path d="M27.4448 125.807H23.3464V129.906H27.4448V125.807Z" fill="black"/>
<path d="M35.6415 125.807H31.5431V129.906H35.6415V125.807Z" fill="black"/>
<path d="M39.7398 125.807H35.6415V129.906H39.7398V125.807Z" fill="black"/>
<path d="M47.9365 125.807H43.8382V129.906H47.9365V125.807Z" fill="black"/>
<path d="M52.0349 125.807H47.9365V129.906H52.0349V125.807Z" fill="black"/>
<path d="M60.2316 125.807H56.1332V129.906H60.2316V125.807Z" fill="black"/>
<path d="M68.4283 125.807H64.3299V129.906H68.4283V125.807Z" fill="black"/>
<path d="M80.7233 125.807H76.625V129.906H80.7233V125.807Z" fill="black"/>
<path d="M84.8217 125.807H80.7233V129.906H84.8217V125.807Z" fill="black"/>
<path d="M113.51 125.807H109.412V129.906H113.51V125.807Z" fill="black"/>
<path d="M117.609 125.807H113.51V129.906H117.609V125.807Z" fill="black"/>
<path d="M121.707 125.807H117.609V129.906H121.707V125.807Z" fill="black"/>
<path d="M134.002 125.807H129.904V129.906H134.002V125.807Z" fill="black"/>
<path d="M138.1 125.807H134.002V129.906H138.1V125.807Z" fill="black"/>
<path d="M31.5431 129.906H27.4448V134.004H31.5431V129.906Z" fill="black"/>
<path d="M52.0349 129.906H47.9365V134.004H52.0349V129.906Z" fill="black"/>
<path d="M60.2316 129.906H56.1332V134.004H60.2316V129.906Z" fill="black"/>
<path d="M64.3299 129.906H60.2316V134.004H64.3299V129.906Z" fill="black"/>
<path d="M72.5266 129.906H68.4283L68.4283 134.004H72.5266V129.906Z" fill="black"/>
<path d="M76.625 129.906H72.5266V134.004H76.625V129.906Z" fill="black"/>
<path d="M80.7233 129.906H76.625V134.004H80.7233V129.906Z" fill="black"/>
<path d="M84.8217 129.906H80.7233V134.004H84.8217V129.906Z" fill="black"/>
<path d="M88.92 129.906H84.8217V134.004H88.92V129.906Z" fill="black"/>
<path d="M93.0184 129.906H88.92V134.004H93.0184V129.906Z" fill="black"/>
<path d="M97.1167 129.906H93.0184V134.004H97.1167V129.906Z" fill="black"/>
<path d="M101.215 129.906H97.1167V134.004H101.215V129.906Z" fill="black"/>
<path d="M109.412 129.906H105.313V134.004H109.412V129.906Z" fill="black"/>
<path d="M113.51 129.906H109.412V134.004H113.51V129.906Z" fill="black"/>
<path d="M117.609 129.906H113.51V134.004H117.609V129.906Z" fill="black"/>
<path d="M125.805 129.906H121.707V134.004H125.805V129.906Z" fill="black"/>
<path d="M129.904 129.906H125.805V134.004H129.904V129.906Z" fill="black"/>
<path d="M154.494 129.906H150.395V134.004H154.494V129.906Z" fill="black"/>
<path d="M158.592 129.906H154.494V134.004H158.592V129.906Z" fill="black"/>
<path d="M162.69 129.906H158.592V134.004H162.69V129.906Z" fill="black"/>
<path d="M27.4448 134.004H23.3464V138.102H27.4448V134.004Z" fill="black"/>
<path d="M31.5431 134.004H27.4448V138.102H31.5431V134.004Z" fill="black"/>
<path d="M43.8382 134.004H39.7398V138.102H43.8382V134.004Z" fill="black"/>
<path d="M47.9365 134.004H43.8382V138.102H47.9365V134.004Z" fill="black"/>
<path d="M52.0349 134.004H47.9365V138.102H52.0349V134.004Z" fill="black"/>
<path d="M56.1332 134.004H52.0349V138.102H56.1332V134.004Z" fill="black"/>
<path d="M60.2316 134.004H56.1332V138.102H60.2316V134.004Z" fill="black"/>
<path d="M64.3299 134.004H60.2316V138.102H64.3299V134.004Z" fill="black"/>
<path d="M72.5266 134.004H68.4283V138.102H72.5266V134.004Z" fill="black"/>
<path d="M76.625 134.004H72.5266V138.102H76.625V134.004Z" fill="black"/>
<path d="M84.8217 134.004H80.7233L80.7233 138.102H84.8217V134.004Z" fill="black"/>
<path d="M93.0184 134.004H88.92L88.92 138.102H93.0184V134.004Z" fill="black"/>
<path d="M97.1167 134.004H93.0184V138.102H97.1167V134.004Z" fill="black"/>
<path d="M101.215 134.004H97.1167V138.102H101.215V134.004Z" fill="black"/>
<path d="M105.313 134.004H101.215V138.102H105.313V134.004Z" fill="black"/>
<path d="M109.412 134.004H105.313V138.102H109.412V134.004Z" fill="black"/>
<path d="M113.51 134.004H109.412V138.102H113.51V134.004Z" fill="black"/>
<path d="M117.609 134.004H113.51V138.102H117.609V134.004Z" fill="black"/>
<path d="M121.707 134.004H117.609V138.102H121.707V134.004Z" fill="black"/>
<path d="M138.1 134.004H134.002V138.102H138.1V134.004Z" fill="black"/>
<path d="M142.199 134.004H138.1V138.102H142.199V134.004Z" fill="black"/>
<path d="M146.297 134.004H142.199V138.102H146.297V134.004Z" fill="black"/>
<path d="M150.395 134.004H146.297V138.102H150.395V134.004Z" fill="black"/>
<path d="M154.494 134.004H150.395V138.102H154.494V134.004Z" fill="black"/>
<path d="M166.789 134.004H162.69V138.102H166.789V134.004Z" fill="black"/>
<path d="M170.887 134.004H166.789V138.102H170.887V134.004Z" fill="black"/>
<path d="M60.2316 138.102H56.1332V142.201H60.2316V138.102Z" fill="black"/>
<path d="M64.3299 138.102H60.2316V142.201H64.3299V138.102Z" fill="black"/>
<path d="M80.7233 138.102H76.625V142.201H80.7233L80.7233 138.102Z" fill="black"/>
<path d="M113.51 138.102H109.412V142.201H113.51V138.102Z" fill="black"/>
<path d="M117.609 138.102H113.51V142.201H117.609V138.102Z" fill="black"/>
<path d="M129.904 138.102H125.805V142.201H129.904V138.102Z" fill="black"/>
<path d="M134.002 138.102H129.904V142.201H134.002V138.102Z" fill="black"/>
<path d="M138.1 138.102H134.002V142.201H138.1V138.102Z" fill="black"/>
<path d="M154.494 138.102H150.395V142.201H154.494V138.102Z" fill="black"/>
<path d="M158.592 138.102H154.494V142.201H158.592V138.102Z" fill="black"/>
<path d="M166.789 138.102H162.69V142.201H166.789V138.102Z" fill="black"/>
<path d="M170.887 138.102H166.789V142.201H170.887V138.102Z" fill="black"/>
<path d="M23.3464 142.201H19.248V146.299H23.3464V142.201Z" fill="black"/>
<path d="M27.4448 142.201H23.3464V146.299H27.4448V142.201Z" fill="black"/>
<path d="M31.5431 142.201H27.4448V146.299H31.5431V142.201Z" fill="black"/>
<path d="M35.6415 142.201H31.5431V146.299H35.6415V142.201Z" fill="black"/>
<path d="M39.7398 142.201H35.6415V146.299H39.7398V142.201Z" fill="black"/>
<path d="M43.8382 142.201H39.7398V146.299H43.8382V142.201Z" fill="black"/>
<path d="M47.9365 142.201H43.8382V146.299H47.9365V142.201Z" fill="black"/>
<path d="M60.2316 142.201H56.1332V146.299H60.2316V142.201Z" fill="black"/>
<path d="M64.3299 142.201H60.2316V146.299H64.3299V142.201Z" fill="black"/>
<path d="M72.5266 142.201H68.4283V146.299H72.5266V142.201Z" fill="black"/>
<path d="M76.625 142.201H72.5266V146.299H76.625V142.201Z" fill="black"/>
<path d="M80.7233 142.201H76.625V146.299H80.7233V142.201Z" fill="black"/>
<path d="M88.92 142.201H84.8217V146.299H88.92V142.201Z" fill="black"/>
<path d="M93.0184 142.201H88.92V146.299H93.0184V142.201Z" fill="black"/>
<path d="M105.313 142.201H101.215V146.299H105.313V142.201Z" fill="black"/>
<path d="M109.412 142.201H105.313V146.299H109.412V142.201Z" fill="black"/>
<path d="M121.707 142.201H117.609V146.299H121.707V142.201Z" fill="black"/>
<path d="M125.805 142.201H121.707V146.299H125.805V142.201Z" fill="black"/>
<path d="M129.904 142.201H125.805V146.299H129.904V142.201Z" fill="black"/>
<path d="M138.1 142.201H134.002V146.299H138.1V142.201Z" fill="black"/>
<path d="M146.297 142.201H142.199V146.299H146.297V142.201Z" fill="black"/>
<path d="M154.494 142.201H150.395V146.299H154.494V142.201Z" fill="black"/>
<path d="M23.3464 146.299H19.248V150.397H23.3464V146.299Z" fill="black"/>
<path d="M47.9365 146.299H43.8382V150.397H47.9365V146.299Z" fill="black"/>
<path d="M56.1332 146.299H52.0349V150.397H56.1332V146.299Z" fill="black"/>
<path d="M60.2316 146.299H56.1332V150.397H60.2316V146.299Z" fill="black"/>
<path d="M68.4283 146.299H64.3299V150.397H68.4283L68.4283 146.299Z" fill="black"/>
<path d="M76.625 146.299H72.5266L72.5266 150.397H76.625V146.299Z" fill="black"/>
<path d="M84.8217 146.299H80.7233L80.7233 150.397H84.8217L84.8217 146.299Z" fill="black"/>
<path d="M88.92 146.299H84.8217L84.8217 150.397H88.92V146.299Z" fill="black"/>
<path d="M93.0184 146.299H88.92V150.397H93.0184V146.299Z" fill="black"/>
<path d="M97.1167 146.299H93.0184V150.397H97.1167V146.299Z" fill="black"/>
<path d="M101.215 146.299H97.1167V150.397H101.215V146.299Z" fill="black"/>
<path d="M105.313 146.299H101.215V150.397H105.313V146.299Z" fill="black"/>
<path d="M117.609 146.299H113.51V150.397H117.609V146.299Z" fill="black"/>
<path d="M121.707 146.299H117.609V150.397H121.707V146.299Z" fill="black"/>
<path d="M134.002 146.299H129.904V150.397H134.002V146.299Z" fill="black"/>
<path d="M138.1 146.299H134.002V150.397H138.1V146.299Z" fill="black"/>
<path d="M154.494 146.299H150.395V150.397H154.494V146.299Z" fill="black"/>
<path d="M162.69 146.299H158.592V150.397H162.69V146.299Z" fill="black"/>
<path d="M170.887 146.299H166.789V150.397H170.887V146.299Z" fill="black"/>
<path d="M23.3464 150.397H19.248V154.496H23.3464V150.397Z" fill="black"/>
<path d="M31.5431 150.397H27.4448V154.496H31.5431V150.397Z" fill="black"/>
<path d="M35.6415 150.397H31.5431V154.496H35.6415V150.397Z" fill="black"/>
<path d="M39.7398 150.397H35.6415V154.496H39.7398V150.397Z" fill="black"/>
<path d="M47.9365 150.397H43.8382V154.496H47.9365V150.397Z" fill="black"/>
<path d="M64.3299 150.397H60.2316V154.496H64.3299V150.397Z" fill="black"/>
<path d="M84.8217 150.397H80.7233V154.496H84.8217V150.397Z" fill="black"/>
<path d="M101.215 150.397H97.1167V154.496H101.215V150.397Z" fill="black"/>
<path d="M117.609 150.397H113.51V154.496H117.609V150.397Z" fill="black"/>
<path d="M129.904 150.397H125.805V154.496H129.904V150.397Z" fill="black"/>
<path d="M134.002 150.397H129.904V154.496H134.002V150.397Z" fill="black"/>
<path d="M138.1 150.397H134.002V154.496H138.1V150.397Z" fill="black"/>
<path d="M142.199 150.397H138.1V154.496H142.199V150.397Z" fill="black"/>
<path d="M146.297 150.397H142.199V154.496H146.297V150.397Z" fill="black"/>
<path d="M150.395 150.397H146.297V154.496H150.395V150.397Z" fill="black"/>
<path d="M154.494 150.397H150.395V154.496H154.494V150.397Z" fill="black"/>
<path d="M158.592 150.397H154.494V154.496H158.592V150.397Z" fill="black"/>
<path d="M162.69 150.397H158.592V154.496H162.69V150.397Z" fill="black"/>
<path d="M166.789 150.397H162.69V154.496H166.789V150.397Z" fill="black"/>
<path d="M23.3464 154.496H19.248V158.594H23.3464V154.496Z" fill="black"/>
<path d="M31.5431 154.496H27.4448V158.594H31.5431V154.496Z" fill="black"/>
<path d="M35.6415 154.496H31.5431V158.594H35.6415V154.496Z" fill="black"/>
<path d="M39.7398 154.496H35.6415V158.594H39.7398V154.496Z" fill="black"/>
<path d="M47.9365 154.496H43.8382V158.594H47.9365V154.496Z" fill="black"/>
<path d="M60.2316 154.496H56.1332V158.594H60.2316V154.496Z" fill="black"/>
<path d="M64.3299 154.496H60.2316V158.594H64.3299V154.496Z" fill="black"/>
<path d="M76.625 154.496H72.5266V158.594H76.625V154.496Z" fill="black"/>
<path d="M80.7233 154.496H76.625V158.594H80.7233L80.7233 154.496Z" fill="black"/>
<path d="M84.8217 154.496H80.7233L80.7233 158.594H84.8217V154.496Z" fill="black"/>
<path d="M93.0184 154.496H88.92V158.594H93.0184V154.496Z" fill="black"/>
<path d="M101.215 154.496H97.1167V158.594H101.215V154.496Z" fill="black"/>
<path d="M105.313 154.496H101.215V158.594H105.313V154.496Z" fill="black"/>
<path d="M113.51 154.496H109.412V158.594H113.51V154.496Z" fill="black"/>
<path d="M117.609 154.496H113.51V158.594H117.609V154.496Z" fill="black"/>
<path d="M134.002 154.496H129.904V158.594H134.002V154.496Z" fill="black"/>
<path d="M138.1 154.496H134.002V158.594H138.1V154.496Z" fill="black"/>
<path d="M158.592 154.496H154.494V158.594H158.592V154.496Z" fill="black"/>
<path d="M166.789 154.496H162.69V158.594H166.789V154.496Z" fill="black"/>
<path d="M170.887 154.496H166.789V158.594H170.887V154.496Z" fill="black"/>
<path d="M23.3464 158.594H19.248V162.692H23.3464V158.594Z" fill="black"/>
<path d="M31.5431 158.594H27.4448V162.692H31.5431V158.594Z" fill="black"/>
<path d="M35.6415 158.594H31.5431V162.692H35.6415V158.594Z" fill="black"/>
<path d="M39.7398 158.594H35.6415V162.692H39.7398V158.594Z" fill="black"/>
<path d="M47.9365 158.594H43.8382V162.692H47.9365V158.594Z" fill="black"/>
<path d="M56.1332 158.594H52.0349V162.692H56.1332V158.594Z" fill="black"/>
<path d="M64.3299 158.594H60.2316V162.692H64.3299V158.594Z" fill="black"/>
<path d="M80.7233 158.594H76.625V162.692H80.7233V158.594Z" fill="black"/>
<path d="M93.0184 158.594H88.92V162.692H93.0184V158.594Z" fill="black"/>
<path d="M97.1167 158.594H93.0184V162.692H97.1167V158.594Z" fill="black"/>
<path d="M113.51 158.594H109.412V162.692H113.51V158.594Z" fill="black"/>
<path d="M158.592 158.594H154.494V162.692H158.592V158.594Z" fill="black"/>
<path d="M23.3464 162.692H19.248V166.791H23.3464V162.692Z" fill="black"/>
<path d="M47.9365 162.692H43.8382V166.791H47.9365V162.692Z" fill="black"/>
<path d="M60.2316 162.692H56.1332V166.791H60.2316V162.692Z" fill="black"/>
<path d="M84.8217 162.692H80.7233L80.7233 166.791H84.8217V162.692Z" fill="black"/>
<path d="M88.92 162.692H84.8217V166.791H88.92L88.92 162.692Z" fill="black"/>
<path d="M93.0184 162.692H88.92L88.92 166.791H93.0184V162.692Z" fill="black"/>
<path d="M105.313 162.692H101.215V166.791H105.313V162.692Z" fill="black"/>
<path d="M117.609 162.692H113.51V166.791H117.609V162.692Z" fill="black"/>
<path d="M134.002 162.692H129.904V166.791H134.002V162.692Z" fill="black"/>
<path d="M142.199 162.692H138.1V166.791H142.199V162.692Z" fill="black"/>
<path d="M146.297 162.692H142.199V166.791H146.297V162.692Z" fill="black"/>
<path d="M150.395 162.692H146.297V166.791H150.395V162.692Z" fill="black"/>
<path d="M154.494 162.692H150.395V166.791H154.494V162.692Z" fill="black"/>
<path d="M158.592 162.692H154.494V166.791H158.592V162.692Z" fill="black"/>
<path d="M162.69 162.692H158.592V166.791H162.69V162.692Z" fill="black"/>
<path d="M23.3464 166.791H19.248V170.889H23.3464V166.791Z" fill="black"/>
<path d="M27.4448 166.791H23.3464V170.889H27.4448V166.791Z" fill="black"/>
<path d="M31.5431 166.791H27.4448V170.889H31.5431V166.791Z" fill="black"/>
<path d="M35.6415 166.791H31.5431V170.889H35.6415V166.791Z" fill="black"/>
<path d="M39.7398 166.791H35.6415V170.889H39.7398V166.791Z" fill="black"/>
<path d="M43.8382 166.791H39.7398V170.889H43.8382V166.791Z" fill="black"/>
<path d="M47.9365 166.791H43.8382V170.889H47.9365V166.791Z" fill="black"/>
<path d="M56.1332 166.791H52.0349V170.889H56.1332V166.791Z" fill="black"/>
<path d="M60.2316 166.791H56.1332V170.889H60.2316V166.791Z" fill="black"/>
<path d="M64.3299 166.791H60.2316V170.889H64.3299V166.791Z" fill="black"/>
<path d="M72.5266 166.791H68.4283V170.889H72.5266V166.791Z" fill="black"/>
<path d="M76.625 166.791H72.5266V170.889H76.625V166.791Z" fill="black"/>
<path d="M80.7233 166.791H76.625V170.889H80.7233L80.7233 166.791Z" fill="black"/>
<path d="M93.0184 166.791H88.92L88.92 170.889H93.0184V166.791Z" fill="black"/>
<path d="M97.1167 166.791H93.0184V170.889H97.1167V166.791Z" fill="black"/>
<path d="M109.412 166.791H105.313V170.889H109.412V166.791Z" fill="black"/>
<path d="M113.51 166.791H109.412V170.889H113.51V166.791Z" fill="black"/>
<path d="M117.609 166.791H113.51V170.889H117.609V166.791Z" fill="black"/>
<path d="M125.805 166.791H121.707V170.889H125.805V166.791Z" fill="black"/>
<path d="M129.904 166.791H125.805V170.889H129.904V166.791Z" fill="black"/>
<path d="M142.199 166.791H138.1V170.889H142.199V166.791Z" fill="black"/>
<path d="M146.297 166.791H142.199V170.889H146.297V166.791Z" fill="black"/>
<path d="M150.395 166.791H146.297V170.889H150.395V166.791Z" fill="black"/>
<path d="M154.494 166.791H150.395V170.889H154.494V166.791Z" fill="black"/>
<path d="M158.592 166.791H154.494V170.889H158.592V166.791Z" fill="black"/>
<path d="M162.69 166.791H158.592V170.889H162.69V166.791Z" fill="black"/>
<path d="M170.887 166.791H166.789V170.889H170.887V166.791Z" fill="black"/>
</svg>
