<svg xmlns="http://www.w3.org/2000/svg" width="100" height="100" fill="none"  xmlns:v="https://vecta.io/nano"><path fill-rule="evenodd" d="M4.167 50c0 25.313 20.52 45.833 45.833 45.833S95.833 75.313 95.833 50 75.313 4.167 50 4.167 4.167 24.687 4.167 50zM87.5 50c0 20.711-16.789 37.5-37.5 37.5S12.5 70.711 12.5 50 29.289 12.5 50 12.5 87.5 29.289 87.5 50zM50.001 74.993a4.17 4.17 0 0 0 4.168-4.167 4.17 4.17 0 0 0-4.168-4.167 4.17 4.17 0 0 0-4.168 4.167 4.17 4.17 0 0 0 4.168 4.167zm4.18-50h-8.336v33.333h8.336V24.993z" fill="#ff7b31"/></svg>