<svg width="13" height="13" viewBox="0 0 13 13" fill="none" xmlns="http://www.w3.org/2000/svg">
<path d="M11.375 1.62499H12.1875V4.87499H8.9375V4.06249H10.7212C10.5054 3.6901 10.2472 3.35367 9.94678 3.05321C9.64632 2.75276 9.31201 2.49674 8.94385 2.28515C8.57568 2.07356 8.18636 1.91064 7.77588 1.79638C7.3654 1.68212 6.9401 1.62499 6.5 1.62499C5.91602 1.62499 5.35954 1.72232 4.83057 1.91698C4.3016 2.11164 3.82552 2.38459 3.40234 2.73583C2.97917 3.08707 2.61947 3.5039 2.32324 3.98632C2.02702 4.46874 1.82389 4.9956 1.71387 5.56688L0.914062 5.40819C0.998698 4.96386 1.132 4.5428 1.31396 4.14501C1.49593 3.74722 1.72021 3.37906 1.98682 3.04052C2.25342 2.70198 2.55176 2.39306 2.88184 2.11376C3.21191 1.83446 3.57161 1.60172 3.96094 1.41552C4.35026 1.22932 4.75651 1.08121 5.17969 0.971182C5.60286 0.861156 6.04297 0.808259 6.5 0.812491C6.99935 0.812491 7.486 0.875968 7.95996 1.00292C8.43392 1.12987 8.88037 1.31396 9.29932 1.55517C9.71826 1.79638 10.1055 2.08625 10.4609 2.4248C10.8164 2.76334 11.1211 3.1442 11.375 3.56737V1.62499ZM6.5 11.375C7.08398 11.375 7.64046 11.2777 8.16943 11.083C8.69841 10.8883 9.17448 10.6154 9.59766 10.2641C10.0208 9.91291 10.3805 9.4982 10.6768 9.02001C10.973 8.54182 11.1761 8.01496 11.2861 7.43944L12.0796 7.59179C11.9526 8.26041 11.7178 8.87401 11.375 9.43261C11.0322 9.9912 10.6133 10.4757 10.1182 10.8862C9.62305 11.2967 9.06657 11.6162 8.44873 11.8447C7.83089 12.0732 7.18132 12.1875 6.5 12.1875C5.99642 12.1875 5.50765 12.124 5.03369 11.9971C4.55973 11.8701 4.11117 11.686 3.68799 11.4448C3.26481 11.2036 2.87972 10.9158 2.53271 10.5815C2.18571 10.2472 1.88314 9.86425 1.625 9.43261V11.375H0.8125V8.12499H4.0625V8.93749H2.27881C2.49463 9.31412 2.75277 9.65266 3.05322 9.95311C3.35368 10.2536 3.68799 10.5075 4.05615 10.7148C4.42432 10.9222 4.81152 11.0851 5.21777 11.2036C5.62402 11.3221 6.05143 11.3792 6.5 11.375Z" fill="#646464" stroke="#646464" stroke-width="0.5"/>
</svg>
