<svg width="304" height="76" fill="none" xmlns="http://www.w3.org/2000/svg"><g filter="url(#filter0_d)"><rect x="12" y="8" width="280" height="52" rx="26" fill="#555"/><path d="M47.908 31.05c-1.492 0-2.706-1.19-2.706-2.653s1.214-2.654 2.706-2.654c1.493 0 2.707 1.19 2.707 2.654 0 1.463-1.214 2.654-2.707 2.654zM52.51 42.222h-2.29c-2.321 0-4.662-1.653-4.662-5.347v-3.827h4.73v3.14c0 1.101.364 1.303 1.079 1.303h1.143v4.731zM33.494 42.235h4.763v-3.56c0-.953.301-1.2 1.467-1.2h4.236v-4.44h-5.703v-1.253c0-1.197.329-1.601 1.303-1.601h4.394v-4.438H38.69c-3.398 0-5.195 1.752-5.195 5.065v11.427z" fill="#00B899"/><path d="M266 25.588c.662 0 1.297.27 1.765.748.468.48.731 1.129.731 1.806v5.109c0 .677-.263 1.327-.731 1.806a2.467 2.467 0 01-1.765.748 2.47 2.47 0 01-1.765-.748 2.585 2.585 0 01-.731-1.806v-5.109c0-.677.263-1.327.731-1.806a2.47 2.47 0 011.765-.748zm5.824 7.663c0 3.005-2.172 5.483-4.992 5.9v2.614h-1.664V39.15c-2.82-.417-4.991-2.895-4.991-5.9h1.664c0 1.129.438 2.212 1.218 3.01A4.111 4.111 0 00266 37.508a4.114 4.114 0 002.942-1.247 4.308 4.308 0 001.218-3.01h1.664z" fill="#B9B9B9"/><path d="M72.5 24.614h-1.523V43.75H72.5V24.614z" fill="#fff"/><path d="M78.77 40l1.171-3.295h4.705L85.816 40h1.477l-4.272-11.636h-1.455L77.293 40h1.478zm1.614-4.545l1.864-5.25h.09l1.865 5.25h-3.819zm14.722-2.228c-.42-1.238-1.364-2.068-3.09-2.068-1.842 0-3.206 1.046-3.206 2.523 0 1.204.716 2.011 2.319 2.386l1.454.341c.88.205 1.296.625 1.296 1.227 0 .75-.796 1.364-2.046 1.364-1.096 0-1.784-.472-2.022-1.41l-1.273.32c.312 1.482 1.534 2.272 3.318 2.272 2.028 0 3.41-1.108 3.41-2.614 0-1.216-.762-1.983-2.32-2.363l-1.295-.319c-1.034-.255-1.5-.602-1.5-1.272 0-.75.796-1.296 1.864-1.296 1.17 0 1.653.648 1.886 1.25l1.205-.34zM97.284 40h1.34v-3.267l.938-.87L102.829 40h1.705l-3.961-5 3.688-3.727h-1.659l-3.819 3.886h-.159v-6.795h-1.34V40zm13.203 0h1.341v-5.455c0-1.278.931-2.181 1.977-2.181 1.017 0 1.727.664 1.727 1.659V40h1.364v-5.682c0-1.125.704-1.954 1.932-1.954.954 0 1.772.505 1.772 1.795V40h1.341v-5.84c0-2.052-1.102-3-2.659-3-1.25 0-2.165.573-2.614 1.476h-.09c-.432-.932-1.194-1.477-2.341-1.477-1.137 0-1.978.546-2.341 1.477h-.114v-1.363h-1.295V40zm17.565.182c1.773 0 3.068-.887 3.477-2.205l-1.295-.363c-.341.909-1.131 1.363-2.182 1.363-1.574 0-2.659-1.017-2.722-2.886h6.336v-.568c0-3.25-1.932-4.364-3.75-4.364-2.364 0-3.932 1.864-3.932 4.546 0 2.681 1.545 4.477 4.068 4.477zm-2.722-5.25c.091-1.358 1.052-2.568 2.586-2.568 1.454 0 2.386 1.09 2.386 2.568h-4.972zm15.444 5.273c1.522 0 2.318-.819 2.59-1.387h.069V40h1.341v-5.75c0-2.773-2.114-3.09-3.228-3.09-1.318 0-2.818.454-3.5 2.045l1.273.454c.295-.636.994-1.318 2.273-1.318 1.233 0 1.841.653 1.841 1.773v.045c0 .648-.659.591-2.25.796-1.62.21-3.387.568-3.387 2.568 0 1.704 1.318 2.681 2.978 2.681zm.204-1.205c-1.068 0-1.841-.477-1.841-1.41 0-1.022.932-1.34 1.977-1.476.569-.069 2.091-.228 2.319-.5v1.227c0 1.09-.864 2.159-2.455 2.159zm7.584-4.25c0-1.523.943-2.386 2.227-2.386 1.245 0 2 .812 2 2.181V40h1.341v-5.545c0-2.228-1.187-3.296-2.954-3.296-1.319 0-2.137.591-2.546 1.477h-.114v-1.363h-1.295V40h1.341v-5.25zm8.57 8.523c1.21 0 2.062-.642 2.568-2l3.716-9.978-1.466-.022-2.409 6.954h-.091l-2.409-6.954h-1.455l3.227 8.772-.25.682c-.488 1.33-1.091 1.455-2.068 1.205l-.341 1.182c.137.068.523.159.978.159zm11.853-12h-1.863v-2.091h-1.341v2.09h-1.318v1.137h1.318v5.455c0 1.522 1.227 2.25 2.363 2.25.5 0 .819-.091 1-.16l-.272-1.204c-.114.023-.296.068-.591.068-.591 0-1.159-.182-1.159-1.318v-5.09h1.863v-1.137zm3.546 3.477c0-1.523.971-2.386 2.295-2.386 1.262 0 2.023.795 2.023 2.181V40h1.341v-5.545c0-2.245-1.193-3.296-2.977-3.296-1.375 0-2.16.574-2.569 1.477h-.113v-4.272h-1.341V40h1.341v-5.25zm8.112 5.25h1.341v-8.727h-1.341V40zm.682-10.182c.522 0 .954-.409.954-.909s-.432-.909-.954-.909c-.523 0-.955.41-.955.91s.432.908.955.908zm4.456 4.932c0-1.523.943-2.386 2.227-2.386 1.244 0 2 .812 2 2.181V40h1.341v-5.545c0-2.228-1.188-3.296-2.955-3.296-1.318 0-2.136.591-2.545 1.477h-.114v-1.363h-1.295V40h1.341v-5.25zm11.541 8.705c2.091 0 3.773-.955 3.773-3.205v-8.977h-1.296v1.386h-.136c-.296-.454-.841-1.5-2.546-1.5-2.204 0-3.727 1.75-3.727 4.432 0 2.727 1.591 4.273 3.705 4.273 1.704 0 2.25-1 2.545-1.478h.114v1.773c0 1.455-1.023 2.114-2.432 2.114-1.585 0-2.142-.836-2.5-1.319l-1.068.75c.545.915 1.619 1.75 3.568 1.75zm-.046-4.796c-1.681 0-2.545-1.273-2.545-3.09 0-1.774.841-3.205 2.545-3.205 1.637 0 2.5 1.318 2.5 3.204 0 1.932-.886 3.091-2.5 3.091z" fill="#B9B9B9"/></g><defs><filter id="filter0_d" x="0" y="0" width="304" height="76" filterUnits="userSpaceOnUse" color-interpolation-filters="sRGB"><feFlood flood-opacity="0" result="BackgroundImageFix"/><feColorMatrix in="SourceAlpha" values="0 0 0 0 0 0 0 0 0 0 0 0 0 0 0 0 0 0 127 0"/><feOffset dy="4"/><feGaussianBlur stdDeviation="6"/><feColorMatrix values="0 0 0 0 0 0 0 0 0 0 0 0 0 0 0 0 0 0 0.1 0"/><feBlend in2="BackgroundImageFix" result="effect1_dropShadow"/><feBlend in="SourceGraphic" in2="effect1_dropShadow" result="shape"/></filter></defs></svg>