<svg xmlns="http://www.w3.org/2000/svg" xmlns:xlink="http://www.w3.org/1999/xlink" width="66" height="49" fill="none" xmlns:v="https://vecta.io/nano"><g fill-rule="evenodd" fill="#00b899"><path d="M41.5 18.011a6 6 0 1 0 0 12 6 6 0 1 0 0-12zm-1.5 6a1.5 1.5 0 1 1 3 0 1.5 1.5 0 1 1-3 0zm1.115-24a5.25 5.25 0 0 0-5.201 4.533l-.261 1.895c-.035.253-.26.626-.797.839l-.574.24c-.528.231-.951.13-1.156-.024l-.923-.692a5.25 5.25 0 0 0-6.862.488l-.563.563a5.25 5.25 0 0 0-.488 6.862l.692.923c.153.204.255.628.024 1.156l-.24.574c-.213.537-.586.762-.839.797l-1.895.261a5.25 5.25 0 0 0-4.533 5.201v.771a5.25 5.25 0 0 0 4.533 5.201l1.895.261c.253.035.626.26.839.797l.24.574c.231.528.13.951-.024 1.156l-.692.923a5.25 5.25 0 0 0 .488 6.862l.563.563a5.25 5.25 0 0 0 6.862.488l.923-.692c.205-.153.627-.255 1.156-.024l.574.24c.537.213.762.586.797.839l.261 1.895a5.25 5.25 0 0 0 5.201 4.533h.771a5.25 5.25 0 0 0 5.201-4.533l.261-1.895c.035-.253.26-.626.797-.839l.574-.24c.528-.231.951-.13 1.156.024l.923.692a5.25 5.25 0 0 0 6.862-.488l.563-.563a5.25 5.25 0 0 0 .488-6.862l-.692-.923c-.153-.205-.255-.628-.024-1.156l.24-.574c.213-.537.586-.762.839-.797l1.895-.261a5.25 5.25 0 0 0 4.533-5.201v-.771a5.25 5.25 0 0 0-4.533-5.201l-1.895-.261c-.253-.035-.626-.26-.839-.797l-.24-.574c-.231-.528-.13-.951.024-1.156l.692-.923a5.25 5.25 0 0 0-.488-6.862l-.563-.563a5.25 5.25 0 0 0-6.862-.488l-.923.692c-.205.153-.627.255-1.156.024l-.574-.24c-.537-.213-.762-.586-.797-.839l-.261-1.895A5.25 5.25 0 0 0 41.885.011h-.771zm-.743 5.148a.75.75 0 0 1 .743-.648h.771a.75.75 0 0 1 .743.648l.261 1.895c.299 2.165 1.861 3.718 3.593 4.406l.43.179c1.709.749 3.912.767 5.662-.545l.923-.692a.75.75 0 0 1 .98.07l.563.563a.75.75 0 0 1 .07.98l-.692.923c-1.312 1.749-1.294 3.953-.545 5.662l.179.43c.688 1.732 2.241 3.294 4.406 3.593l1.895.261a.75.75 0 0 1 .648.743v.771a.75.75 0 0 1-.648.743l-1.895.261c-2.165.299-3.718 1.861-4.406 3.593l-.179.429c-.749 1.709-.767 3.912.545 5.662l.692.923a.75.75 0 0 1-.07.98l-.563.563a.75.75 0 0 1-.98.07l-.923-.692c-1.749-1.312-3.953-1.294-5.662-.545l-.43.179c-1.732.688-3.294 2.241-3.593 4.406l-.261 1.895a.75.75 0 0 1-.743.648h-.771a.75.75 0 0 1-.743-.648l-.261-1.895c-.299-2.165-1.861-3.718-3.593-4.406l-.43-.179c-1.709-.749-3.912-.767-5.662.545l-.923.692a.75.75 0 0 1-.98-.07l-.563-.563a.75.75 0 0 1-.07-.98l.692-.923c1.312-1.749 1.294-3.953.545-5.662l-.179-.429c-.688-1.732-2.241-3.294-4.406-3.593l-1.895-.261a.75.75 0 0 1-.648-.743v-.771a.75.75 0 0 1 .648-.743l1.895-.261c2.165-.299 3.718-1.861 4.406-3.593l.179-.43c.749-1.709.767-3.912-.545-5.662l-.692-.923a.75.75 0 0 1 .07-.98l.563-.563a.75.75 0 0 1 .98-.07l.923.692c1.749 1.312 3.953 1.294 5.662.545l.43-.179c1.732-.688 3.294-2.241 3.593-4.406l.261-1.895z"/><use xlink:href="#B"/><use xlink:href="#C"/></g><g stroke="#00b899" stroke-linejoin="round"><use xlink:href="#B"/><use xlink:href="#C"/></g><defs ><path id="B" d="M9 7.386c-1.174 0-2.125.951-2.125 2.125S7.826 11.636 9 11.636s2.125-.951 2.125-2.125S10.174 7.386 9 7.386zm-.531 2.125a.53.53 0 1 1 1.063 0 .53.53 0 1 1-1.062 0z"/><path id="C" d="M8.864 1.011a1.86 1.86 0 0 0-1.842 1.605l-.093.671c-.012.09-.092.222-.282.297l-.203.085c-.187.082-.337.046-.409-.008l-.327-.245a1.86 1.86 0 0 0-2.43.173l-.199.199a1.86 1.86 0 0 0-.173 2.43l.245.327c.054.072.09.222.008.409l-.085.203c-.076.19-.207.27-.297.282l-.671.093A1.86 1.86 0 0 0 .5 9.374v.273a1.86 1.86 0 0 0 1.605 1.842l.671.093c.09.012.222.092.297.282l.085.203c.082.187.046.337-.008.409l-.245.327a1.86 1.86 0 0 0 .173 2.43l.199.199a1.86 1.86 0 0 0 2.43.173l.327-.245c.072-.054.222-.09.409-.008l.203.085c.19.076.27.208.282.297l.093.671a1.86 1.86 0 0 0 1.842 1.605h.273a1.86 1.86 0 0 0 1.842-1.605l.093-.671c.012-.09.092-.222.282-.297l.203-.085c.187-.082.337-.046.409.008l.327.245a1.86 1.86 0 0 0 2.43-.173l.199-.199a1.86 1.86 0 0 0 .173-2.43l-.245-.327c-.054-.072-.09-.222-.008-.409l.085-.203c.075-.19.207-.27.297-.282l.671-.093A1.86 1.86 0 0 0 17.5 9.647v-.273a1.86 1.86 0 0 0-1.605-1.842l-.671-.093c-.09-.012-.222-.092-.297-.282l-.085-.203c-.082-.187-.046-.337.008-.409l.245-.327a1.86 1.86 0 0 0-.173-2.43l-.199-.199a1.86 1.86 0 0 0-2.43-.173l-.327.245c-.072.054-.222.09-.409.008l-.203-.085c-.19-.076-.27-.207-.282-.297l-.093-.671a1.86 1.86 0 0 0-1.842-1.605h-.273zM8.6 2.834c.018-.131.13-.229.263-.229h.273c.133 0 .245.098.263.229l.093.671c.106.767.659 1.317 1.272 1.56l.152.064c.605.265 1.386.271 2.005-.193l.327-.245c.106-.079.254-.069.347.025l.199.199c.094.093.104.241.025.347l-.245.327c-.465.62-.458 1.4-.193 2.005l.063.152c.244.613.794 1.167 1.56 1.272l.671.093c.132.018.229.13.229.263v.273c0 .133-.098.245-.229.263l-.671.093c-.767.106-1.317.659-1.56 1.272l-.063.152c-.265.605-.271 1.386.193 2.005l.245.327c.079.106.069.254-.025.347l-.199.199c-.094.093-.241.104-.347.025l-.327-.245c-.62-.465-1.4-.458-2.005-.193l-.152.063c-.613.244-1.167.794-1.272 1.56l-.093.671c-.018.131-.13.229-.263.229h-.273c-.133 0-.245-.098-.263-.229l-.093-.671c-.106-.767-.659-1.317-1.272-1.56l-.152-.063c-.605-.265-1.386-.271-2.005.193l-.327.245c-.106.079-.254.069-.347-.025l-.199-.199c-.093-.094-.104-.242-.025-.347l.245-.327c.465-.62.458-1.4.193-2.005l-.064-.152c-.244-.613-.794-1.167-1.56-1.272l-.671-.093c-.131-.018-.229-.13-.229-.263v-.273c0-.133.098-.245.229-.263l.671-.093c.767-.106 1.317-.659 1.56-1.272l.064-.152c.265-.605.271-1.386-.193-2.005l-.245-.327c-.079-.106-.069-.254.025-.347l.199-.199c.093-.093.241-.104.347-.025l.327.245c.62.465 1.4.458 2.005.193l.152-.064c.613-.244 1.167-.794 1.272-1.56l.093-.671z"/></defs></svg>