<svg width="16" height="16" viewBox="0 0 16 16" fill="none" xmlns="http://www.w3.org/2000/svg">
<path fill-rule="evenodd" clip-rule="evenodd" d="M2.75 1.5C2.05964 1.5 1.5 2.05964 1.5 2.75V13.25C1.5 13.9404 2.05964 14.5 2.75 14.5H13.25C13.9404 14.5 14.5 13.9404 14.5 13.25V10.75C14.5 10.3358 14.8358 10 15.25 10C15.6642 10 16 10.3358 16 10.75V13.25C16 14.7688 14.7688 16 13.25 16H2.75C1.23122 16 0 14.7688 0 13.25V2.75C0 1.23122 1.23122 0 2.75 0H5.25C5.66421 0 6 0.335786 6 0.75C6 1.16421 5.66421 1.5 5.25 1.5H2.75ZM10 0.75C10 0.335786 10.3358 0 10.75 0H15.25C15.6642 0 16 0.335786 16 0.75V5.25C16 5.66421 15.6642 6 15.25 6C14.8358 6 14.5 5.66421 14.5 5.25V2.55968L8.28032 8.77935C7.98743 9.07225 7.51256 9.07225 7.21966 8.77935C6.92677 8.48646 6.92677 8.01159 7.21966 7.71869L13.4384 1.5H10.75C10.3358 1.5 10 1.16421 10 0.75Z" fill="white"/>
</svg>
