<svg xmlns="http://www.w3.org/2000/svg" width="48" height="49" fill="none" xmlns:v="https://vecta.io/nano"><path fill-rule="evenodd" d="M3.164 47.817l12.67-5.631 15.636 5.686.2.063a2.25 2.25 0 0 0 1.506-.123l13.488-5.995A2.25 2.25 0 0 0 48 39.761v-37.5A2.25 2.25 0 0 0 44.836.205l-12.67 5.631L16.532.151a2.25 2.25 0 0 0-1.507-.02l-.199.078-13.49 5.996A2.25 2.25 0 0 0 0 8.261v37.5a2.25 2.25 0 0 0 1.024 1.887 2.25 2.25 0 0 0 2.14.169zM34.5 9.723v32.576l9-4V5.723l-9 4zm-4.5.114L18 5.473v32.712l12 4.364V9.837zM4.5 9.723l9-4v32.576l-9 4V9.723z" fill="#00b899"/></svg>