<svg width="36" height="36" fill="none" xmlns="http://www.w3.org/2000/svg"><g clip-path="url(#clip0)"><path fill-rule="evenodd" clip-rule="evenodd" d="M18.22 12.592l.076 1.228-1.249-.15c-4.545-.577-8.515-2.532-11.886-5.814l-1.648-1.63-.425 1.204c-.899 2.681-.325 5.513 1.548 7.417 1 1.053.774 1.203-.949.577-.599-.201-1.123-.351-1.173-.276-.175.175.424 2.456.899 3.358.649 1.253 1.973 2.48 3.42 3.207l1.224.577-1.448.025c-1.398 0-1.448.025-1.298.551.499 1.629 2.472 3.358 4.67 4.11l1.547.526-1.348.802a14.123 14.123 0 01-6.692 1.854c-1.124.025-2.048.125-2.048.2 0 .251 3.047 1.655 4.82 2.206 5.318 1.629 11.636.927 16.38-1.855 3.372-1.98 6.743-5.913 8.316-9.722.85-2.03 1.698-5.739 1.698-7.518 0-1.153.075-1.303 1.474-2.681.824-.802 1.598-1.68 1.748-1.93.25-.476.224-.476-1.05-.05-2.122.752-2.421.651-1.373-.476.775-.802 1.698-2.255 1.698-2.681 0-.076-.374.05-.799.275-.449.25-1.448.627-2.197.852l-1.349.426-1.223-.827c-.674-.45-1.623-.952-2.123-1.102-1.273-.351-3.221-.301-4.37.1-3.121 1.128-5.094 4.034-4.87 7.217z" fill="#55ACEE"/></g><defs><clipPath id="clip0"><path fill="#fff" d="M0 0h36v36H0z"/></clipPath></defs></svg>