<svg xmlns="http://www.w3.org/2000/svg" width="24" height="24" fill="none" xmlns:v="https://vecta.io/nano"><g clip-path="url(#A)"><path d="M24 4.559a10.26 10.26 0 0 1-2.835.777c1.02-.609 1.799-1.566 2.165-2.719-.951.567-2.001.967-3.12 1.191a4.93 4.93 0 0 0-3.594-1.557 4.92 4.92 0 0 0-4.917 4.922c0 .39.033.765.114 1.122-4.09-.2-7.71-2.16-10.141-5.146-.425.737-.673 1.58-.673 2.487 0 1.704.878 3.214 2.186 4.089A4.86 4.86 0 0 1 .96 9.117v.054c0 2.391 1.706 4.377 3.942 4.835a4.91 4.91 0 0 1-1.29.162 4.35 4.35 0 0 1-.932-.084c.638 1.948 2.447 3.381 4.598 3.427-1.674 1.31-3.799 2.099-6.1 2.099-.403 0-.79-.018-1.177-.067a13.85 13.85 0 0 0 7.548 2.208c9.054 0 14.004-7.5 14.004-14.001 0-.217-.008-.427-.018-.636.977-.693 1.797-1.559 2.466-2.554z" fill="#8d8d8d"/></g><defs><clipPath id="A"><path fill="#fff" d="M0 0h24v24H0z"/></clipPath></defs></svg>