<svg width="39" height="32" fill="none" xmlns="http://www.w3.org/2000/svg"><path fill-rule="evenodd" clip-rule="evenodd" d="M19.425 12.504l.049.794-.808-.098c-2.938-.372-5.505-1.636-7.684-3.758L9.917 8.389l-.275.778c-.58 1.733-.21 3.564 1.001 4.795.646.68.5.777-.613.372-.388-.13-.727-.226-.759-.178-.113.114.274 1.588.581 2.17.42.81 1.275 1.605 2.212 2.075l.79.372-.935.016c-.905 0-.937.016-.84.357.323 1.053 1.598 2.17 3.019 2.656l1 .34-.871.519a9.13 9.13 0 01-4.326 1.199c-.727.016-1.324.08-1.324.13 0 .161 1.97 1.069 3.116 1.425 3.438 1.053 7.522.6 10.59-1.199 2.179-1.28 4.358-3.823 5.375-6.285.549-1.313 1.098-3.71 1.098-4.86 0-.745.048-.843.952-1.734.533-.518 1.034-1.085 1.13-1.247.162-.308.146-.308-.678-.032-1.372.486-1.566.42-.888-.308.5-.519 1.098-1.458 1.098-1.734 0-.048-.242.033-.516.179-.291.162-.937.405-1.421.55l-.872.276-.79-.535c-.437-.291-1.05-.615-1.373-.713-.823-.226-2.082-.194-2.825.065-2.018.73-3.293 2.608-3.148 4.666z" fill="#fff"/></svg>