<svg width="32" height="32" viewBox="0 0 32 32" fill="none" xmlns="http://www.w3.org/2000/svg">
<path fill-rule="evenodd" clip-rule="evenodd" d="M16.3551 11.9216L16.4141 12.889L15.4304 12.7706C11.8496 12.3165 8.72135 10.7765 6.06529 8.19009L4.76677 6.90677L4.43231 7.85445C3.72402 9.96699 4.17654 12.198 5.65213 13.6985C6.43911 14.5277 6.26204 14.6462 4.9045 14.1526C4.43231 13.9946 4.01914 13.8762 3.97979 13.9354C3.84207 14.0736 4.31426 15.8703 4.68808 16.581C5.19961 17.5682 6.24236 18.5356 7.38349 19.1082L8.34754 19.5623L7.20641 19.582C6.10464 19.582 6.06529 19.6018 6.18334 20.0164C6.57683 21.2997 8.13112 22.662 9.86247 23.2543L11.0823 23.6689L10.0199 24.3007C8.44591 25.2089 6.5965 25.7222 4.7471 25.7617C3.86175 25.7814 3.13379 25.8604 3.13379 25.9196C3.13379 26.1171 5.53408 27.2227 6.93097 27.6571C11.1216 28.9404 16.0993 28.3876 19.8375 26.196C22.4935 24.6363 25.1496 21.5366 26.3891 18.5356C27.058 16.9364 27.7269 14.0144 27.7269 12.6126C27.7269 11.7044 27.786 11.5859 28.8877 10.5001C29.537 9.86828 30.1469 9.17726 30.265 8.97982C30.4617 8.6047 30.442 8.6047 29.4386 8.94034C27.7663 9.53264 27.5302 9.45366 28.3565 8.56521C28.9664 7.93343 29.6944 6.78831 29.6944 6.45267C29.6944 6.39344 29.3993 6.49216 29.0648 6.66985C28.7107 6.86728 27.9237 7.16343 27.3334 7.34112L26.271 7.67676L25.307 7.02523C24.7758 6.66985 24.0281 6.27498 23.6346 6.15652C22.6312 5.88011 21.0966 5.9196 20.1916 6.2355C17.7323 7.12395 16.178 9.41418 16.3551 11.9216Z" fill="white"/>
</svg>
