<svg width="50" height="50" fill="none" xmlns="http://www.w3.org/2000/svg"><path fill-rule="evenodd" clip-rule="evenodd" d="M0 25C0 11.193 11.193 0 25 0s25 11.193 25 25-11.193 25-25 25S0 38.807 0 25z" fill="#55ACEE"/><path fill-rule="evenodd" clip-rule="evenodd" d="M24.251 20.32l.053.865-.875-.106c-3.182-.406-5.963-1.783-8.323-4.095l-1.155-1.148-.297.847c-.63 1.89-.227 3.884 1.084 5.226.7.742.542.848-.664.406-.42-.141-.787-.247-.822-.194-.123.124.297 1.73.63 2.366.454.882 1.38 1.748 2.395 2.26l.857.405-1.014.018c-.98 0-1.014.018-.91.388.35 1.148 1.732 2.366 3.27 2.896l1.085.37-.945.566a9.845 9.845 0 01-4.686 1.306c-.787.018-1.434.088-1.434.141 0 .177 2.133 1.165 3.375 1.554 3.725 1.147 8.149.653 11.471-1.307 2.361-1.394 4.722-4.166 5.824-6.85.594-1.43 1.189-4.042 1.189-5.296 0-.812.052-.918 1.032-1.889.577-.565 1.119-1.183 1.224-1.36.174-.335.157-.335-.735-.035-1.486.53-1.696.46-.962-.335.542-.565 1.19-1.589 1.19-1.889 0-.053-.263.035-.56.194-.315.177-1.014.442-1.539.6l-.944.3-.857-.582c-.472-.318-1.137-.67-1.487-.777-.891-.247-2.255-.212-3.06.07-2.186.795-3.567 2.843-3.41 5.085z" fill="#fff"/></svg>