<svg xmlns="http://www.w3.org/2000/svg" width="42" height="49" fill="#00b899" xmlns:v="https://vecta.io/nano"><path fill-rule="evenodd" d="M8.25.011A8.25 8.25 0 0 0 0 8.261v31.5a8.25 8.25 0 0 0 8.25 8.25h25.5a8.25 8.25 0 0 0 8.25-8.25v-24.75a2.25 2.25 0 0 0-.659-1.591L28.591.67A2.25 2.25 0 0 0 27 .011H8.25zM4.5 8.261a3.75 3.75 0 0 1 3.75-3.75H24v11.25a2.25 2.25 0 0 0 2.25 2.25H37.5v21.75a3.75 3.75 0 0 1-3.75 3.75H8.25a3.75 3.75 0 0 1-3.75-3.75v-31.5zm30.568 5.25L28.5 6.943v6.568h6.568z"/><path d="M20 14.011a3 3 0 0 1 3 3v6a3 3 0 1 1-6 0v-6a3 3 0 0 1 3-3zm0 15a3 3 0 1 0 0 6 3 3 0 1 0 0-6z"/></svg>