<svg width="16" height="16" viewBox="0 0 16 16" fill="none" xmlns="http://www.w3.org/2000/svg">
<path fill-rule="evenodd" clip-rule="evenodd" d="M1.0546 15.9354L5.27808 14.0583L10.4901 15.9535C10.512 15.9616 10.5342 15.9687 10.5567 15.9747C10.6934 16.0112 10.8366 16.0079 10.9698 15.9671C11 15.9578 11.0296 15.9467 11.0586 15.9336L15.5546 13.9354C15.8254 13.815 16 13.5464 16 13.25V0.750002C16 0.496122 15.8716 0.259476 15.6587 0.121133C15.4458 -0.0172099 15.1774 -0.0384672 14.9454 0.0646435L10.7219 1.94174L5.51082 0.0467989C5.35006 -0.0128214 5.17251 -0.0158928 5.00839 0.0399789C4.98598 0.0476008 4.96389 0.0563004 4.94219 0.0660669L0.445396 2.06464C0.17455 2.18502 0 2.45361 0 2.75V15.25C0 15.5039 0.128438 15.7405 0.341315 15.8789C0.554192 16.0172 0.822605 16.0385 1.0546 15.9354ZM11.5 3.23741V14.0959L14.5 12.7626V1.90407L11.5 3.23741ZM10 3.27532L6 1.82078V12.7247L10 14.1792V3.27532ZM1.5 3.23741L4.5 1.90407V12.7626L1.5 14.0959V3.23741Z" fill="#5D7D4C"/>
</svg>
