<svg width="245" height="241" viewBox="0 0 245 241" fill="none" xmlns="http://www.w3.org/2000/svg">
<path d="M37.9537 199.286C-3.71777 165.648 -20.3864 93.25 36.7487 40.2319C93.8837 -12.7862 190.682 -12.4849 227.232 35.7133C263.783 83.9116 238.579 150.586 200.02 187.136C161.462 223.687 100.611 249.894 37.9537 199.286Z" fill="#CDE5C1"/>
<path d="M61.4511 148.276C61.4511 148.276 67.5763 152.192 70.8899 151.49C74.2036 150.787 75.2077 149.381 75.2077 148.778C75.2077 148.176 77.0151 148.979 76.4127 151.289C75.8102 153.598 72.597 172.576 72.1953 175.689C72.1953 175.689 75.4085 171.271 77.9189 169.162C80.4292 167.054 83.7428 160.627 84.3453 159.523C84.3453 159.523 83.9436 177.095 85.249 179.304C86.5544 181.413 91.073 184.124 91.9767 186.132C92.8804 188.14 97.0977 198.382 103.123 199.387C109.248 200.391 119.791 196.575 121.096 185.429C122.402 174.283 112.561 164.142 111.156 159.523C111.156 159.523 117.281 163.137 122.402 161.531C127.523 159.824 126.017 154.602 126.017 154.602C126.017 154.602 128.828 156.51 132.544 156.912C136.259 157.314 145.196 160.728 146.099 171.07C147.003 181.413 147.204 205.211 147.204 205.211L156.643 191.354C156.643 191.354 162.467 196.776 167.387 195.671C167.387 195.671 168.09 198.483 166.082 201.696C164.073 204.909 159.555 211.938 157.145 218.365C154.735 224.892 149.915 237.242 142.384 237.242C134.853 237.343 132.744 235.234 132.744 235.234L132.845 240.154H89.3659C89.3659 240.154 87.2573 232.423 89.3659 221.277C91.575 210.131 88.8639 196.977 86.2531 193.362C86.2531 193.362 80.63 197.077 75.4085 204.508C70.1871 211.938 62.6561 218.365 55.828 215.051C48.9999 211.737 47.8954 206.114 49.502 196.876C51.0082 187.638 61.4511 148.276 61.4511 148.276Z" fill="white"/>
<path d="M223.615 80.6989C223.615 100.179 205.741 115.341 186.663 114.438C169.994 113.735 155.133 101.986 155.133 82.5063C155.133 63.0262 174.914 46.458 194.093 46.458C210.762 46.458 223.615 61.2187 223.615 80.6989Z" fill="white"/>
<path d="M177.228 75.0756C177.228 75.0756 183.955 75.0756 185.06 74.4731C186.265 73.8706 187.269 72.8665 187.369 70.2558C187.47 67.645 190.482 67.645 190.783 68.85C191.085 70.0549 191.386 72.4649 191.386 72.4649L195.905 71.4607C195.905 71.4607 197.411 72.1636 198.013 75.2764C198.616 78.3892 198.917 78.9917 199.319 80.0962C199.72 81.2008 199.118 83.8115 196.005 85.1169C192.892 86.4223 189.88 87.5268 187.972 88.0289C186.064 88.5309 178.935 89.1334 178.935 89.1334C178.935 89.1334 173.713 87.5268 177.228 75.0756Z" fill="#CDE5C1"/>
<path d="M118.181 109.919C116.273 110.019 114.365 110.22 112.457 110.22C111.755 110.22 110.55 110.321 110.65 109.216C110.75 108.111 111.955 108.513 112.658 108.513C119.587 108.513 126.114 107.007 131.938 103.191C134.85 101.283 137.159 98.8734 138.565 95.6602C139.469 93.6519 140.874 93.3507 142.782 94.0536C150.715 97.1664 153.225 107.81 147.301 114.437C145.895 116.044 145.795 117.45 145.895 119.358C146.297 128.395 144.991 137.131 138.866 144.361C136.155 147.574 132.741 149.682 128.423 150.285C127.72 150.385 126.214 150.285 126.214 151.189C126.214 152.695 126.013 154.402 128.122 155.004C130.03 155.607 131.938 155.808 133.845 156.209C141.678 158.017 146.297 164.142 147.1 172.677C147.803 179.405 147.1 186.132 147.401 192.86C147.502 195.672 147.602 198.584 147.702 201.395C147.702 201.797 147.702 202.6 147.803 203.002C148.104 202.701 148.506 201.998 148.707 201.596C153.125 195.069 157.442 188.643 161.861 182.116C163.367 179.907 163.869 177.597 161.961 175.79C160.856 174.685 161.057 173.179 161.057 172.878C161.459 169.665 161.459 169.966 157.242 169.163C155.635 168.861 154.832 167.757 154.43 166.351C154.129 165.548 154.43 164.644 155.233 164.544C157.342 164.242 156.94 164.544 157.744 160.929C159.049 155.406 159.852 150.787 161.057 145.264C161.359 143.858 162.061 143.758 163.166 143.959C167.283 144.762 171.4 145.666 175.617 146.469C177.023 146.77 177.927 147.172 177.425 149.08C176.521 152.494 175.918 156.008 175.115 159.523C174.713 161.23 175.416 162.535 175.818 164.142C178.027 173.079 175.316 182.417 171.099 189.346C169.492 191.956 168.488 192.96 168.488 195.069C168.488 199.688 166.48 203.203 164.17 206.817C162.061 210.131 159.953 213.344 158.748 217.06C156.238 222.482 154.229 228.105 150.815 233.126C147.401 238.146 139.469 240.456 134.85 237.443C133.444 236.54 133.745 238.046 133.645 238.648C133.645 239.653 133.544 240.355 132.741 240.255C132.138 240.155 132.239 239.15 132.138 238.548C130.632 228.708 132.942 218.867 132.841 209.027C132.841 208.525 132.741 208.123 132.741 207.621C132.239 207.922 131.837 208.123 131.335 208.324C130.833 208.524 130.13 208.926 129.829 208.725C129.528 208.424 130.231 207.922 130.632 207.621C137.46 201.395 140.975 194.567 139.569 184.526C139.569 184.024 139.268 183.321 139.971 183.321C140.874 183.321 140.975 184.325 141.075 184.927C141.778 190.651 141.678 196.776 138.163 201.295C133.745 206.918 134.649 211.838 134.247 218.064C133.243 232.724 132.339 233.929 135.151 235.335C140.774 238.347 146.497 236.138 149.911 230.716C151.819 227.703 153.225 224.49 154.631 221.277C157.342 214.65 160.555 208.424 164.471 202.5C164.973 201.797 167.383 199.186 166.781 197.077C166.48 196.073 164.672 196.375 163.467 196.174C161.559 195.772 159.852 194.868 158.547 193.563C157.041 192.057 156.438 193.161 155.434 194.567C150.614 201.998 146.096 208.826 141.176 216.156C140.673 216.859 140.071 218.365 139.067 217.662C138.264 217.16 139.167 216.055 139.569 215.252C146.397 206.115 146.999 206.215 146.096 191.655C145.594 186.534 145.995 181.212 145.694 176.091C145.192 168.661 142.18 160.025 134.347 158.218C132.239 157.715 130.13 157.314 128.021 156.912C127.419 156.812 127.218 157.113 127.017 157.515C124.407 162.535 121.896 163.74 116.374 161.933C114.867 161.431 113.763 160.427 113.261 161.13C112.658 161.832 113.964 163.138 114.466 164.142C116.374 168.058 118.482 171.874 120.29 175.89C125.31 187.237 118.984 198.784 106.935 200.491C102.215 201.194 98.2992 198.985 95.3872 195.17C94.6843 194.266 94.1822 193.262 93.6802 192.258C91.9731 188.643 90.7682 184.927 86.7516 182.718C84.0405 181.212 83.5384 177.698 83.438 174.585C83.3376 170.87 83.438 167.154 83.438 163.439C83.438 163.138 83.438 161.933 82.6347 163.238C80.7269 166.451 79.2207 168.761 75.8066 172.175C72.8946 175.087 72.2922 176.694 72.0913 180.007C71.8905 184.425 71.5893 187.137 71.0872 191.555C70.9868 191.956 70.9868 192.86 70.2839 192.76C69.6814 192.659 69.9827 191.856 69.9827 191.354C70.3843 179.003 71.4889 170.669 74.9029 154.703C75.0033 154.201 76.0075 150.787 75.1037 150.185C74.6017 151.088 73.7984 151.691 73.0955 152.092C69.6814 153.9 66.0666 152.695 62.7529 150.787C61.7488 150.185 61.548 149.883 61.2467 151.289C57.7323 166.15 54.017 181.112 50.5025 195.973C49.9001 198.784 49.2976 201.596 49.398 204.508C49.5988 209.328 53.5149 214.047 58.3348 215.051C60.6443 215.553 63.255 214.851 65.1628 213.646C69.1794 211.135 71.7901 207.721 74.4008 203.805C77.0116 199.789 80.2248 196.475 84.1409 193.764C85.2455 193.061 86.35 192.258 87.0529 191.153C87.4545 190.45 88.057 189.546 88.5591 189.848C89.1616 190.149 88.6595 191.253 87.9566 192.157C86.8521 193.563 87.2537 193.764 87.7558 195.27C90.969 203.805 91.0694 213.144 89.9649 222.08C89.262 227.804 89.0611 233.527 89.262 239.251C89.262 239.653 89.4628 240.355 89.0611 240.456C88.6595 240.556 88.4587 239.853 88.2578 239.552C85.6471 233.226 88.2579 220.172 88.4587 217.662C89.262 209.729 88.6595 204.307 86.6512 196.575C86.6512 196.575 86.35 194.366 85.145 195.571C82.1327 198.383 78.9194 200.893 76.4091 204.307C72.7942 209.428 68.0748 215.553 61.7488 217.06C56.929 218.265 50.1009 215.955 48.193 207.822C46.486 200.592 49.6992 192.157 51.3058 185.128C54.9207 169.263 58.8368 153.799 62.5521 137.432C63.5562 133.215 63.1546 128.797 62.5521 124.479C61.4476 116.345 63.6566 109.015 67.9744 102.187C68.2756 101.685 70.0831 99.6767 71.3885 100.279C72.1918 100.681 71.9909 101.484 71.8905 102.287C71.6897 103.392 71.1876 104.396 71.0872 105.501C71.7901 104.597 73.8988 102.187 74.2 101.886C74.8025 101.283 75.5054 100.078 76.6099 100.681C77.9153 101.384 77.3128 102.689 77.112 103.593C77.0116 103.894 77.0116 104.296 76.9112 104.597C77.2124 104.396 77.4132 104.095 77.7145 103.894C78.819 102.99 79.6223 101.083 81.1285 102.187C82.4339 103.091 81.4298 104.798 80.9277 106.103C80.1244 108.011 77.7145 111.827 78.0157 113.032C79.2207 112.63 82.0322 111.827 83.9401 111.726C86.4504 111.726 87.8562 112.831 87.9566 114.94C88.057 116.245 87.9566 117.651 88.5591 118.856C88.6595 117.651 88.7599 116.446 88.9607 115.241C91.8727 100.078 102.014 89.4346 116.876 86.5226C124.206 85.0164 131.134 86.5226 137.46 90.5392C138.264 91.0412 138.966 91.6437 138.364 92.6478C137.962 93.3507 137.159 93.1499 136.557 92.7482C122.298 83.209 104.224 90.1375 95.7888 102.388C92.676 106.906 90.8686 111.927 90.0653 117.249C89.9649 118.153 89.8645 118.956 90.6678 119.86C91.4711 120.763 91.1698 121.466 90.6678 122.27C90.0653 123.274 86.5508 125.985 85.0446 129.198C83.8397 131.709 82.3335 134.42 79.7227 135.424C76.2083 136.83 75.907 139.34 75.6058 142.352C75.405 143.858 75.1037 145.365 74.9029 146.871C74.8025 147.373 74.5013 148.076 75.1037 148.377C76.8108 149.381 76.6099 150.988 76.4091 152.494C75.0033 160.828 73.8988 165.146 72.7942 171.472C72.1918 174.083 73.698 172.476 73.8988 172.275C78.4174 167.857 82.3335 163.138 83.6388 156.812C83.9401 155.205 87.1533 134.118 88.5591 125.182C89.8645 124.981 89.764 125.885 89.6636 126.688C88.9607 133.717 88.2578 140.645 86.8521 147.574C85.0446 156.912 84.2413 166.251 85.145 175.79C85.4463 178.903 86.9525 181.413 89.3624 183.321C89.5632 183.522 89.9649 183.722 90.1657 183.923C90.1657 183.421 90.1657 183.12 90.1657 182.819C90.1657 181.815 89.4628 180.208 90.3665 180.108C91.4711 180.007 91.7723 182.015 91.8727 182.919C92.2744 186.434 93.2785 189.145 95.0859 192.157C99.2029 199.086 107.136 200.692 113.462 195.672C119.386 190.952 120.993 185.128 118.081 178.099C114.767 170.066 110.148 162.636 107.336 154.402C104.926 147.473 102.918 140.444 103.42 132.913C103.521 131.909 102.215 131.809 101.713 131.709C98.9016 131.006 97.5963 129.299 96.9938 126.587C96.4917 124.479 97.5963 122.772 99.4037 121.667C100.709 120.864 102.115 120.864 103.219 121.667C105.83 123.876 108.24 122.872 110.449 121.366C115.369 118.454 118.683 115.241 118.181 109.919C120.49 109.517 120.29 111.124 119.888 112.53C118.984 116.345 117.076 118.655 114.164 121.165C112.457 122.671 107.939 126.085 104.424 123.876C103.019 122.973 101.613 122.069 100.207 123.776C98.9016 125.483 99.5041 127.09 100.709 128.395C102.215 130.001 104.123 130.504 106.332 130.303C106.734 130.303 107.437 130.202 107.437 130.504C107.537 131.106 106.935 131.206 106.633 131.206C105.428 131.307 105.428 132.11 105.529 133.014C105.931 141.449 108.541 149.482 111.554 157.314C111.755 157.715 111.955 158.017 112.357 158.218C114.968 159.222 117.478 160.226 120.29 160.728C123.302 161.23 126.013 158.72 125.411 156.109C125.109 154.502 124.708 152.996 124.708 151.389C124.708 150.385 124.306 150.285 123.402 150.084C118.382 149.18 114.265 146.469 110.851 142.754C110.449 142.252 109.746 141.649 110.55 141.047C111.252 140.545 111.654 141.248 112.156 141.549C113.863 142.854 115.369 144.26 117.177 145.365C123.603 149.381 130.431 149.18 135.954 144.561C142.18 139.34 144.188 132.211 144.69 124.479C145.192 117.651 143.686 111.023 141.577 104.497C141.376 103.894 140.874 102.79 141.276 102.589C141.878 102.287 142.18 103.492 142.581 104.095C143.987 106.806 144.69 109.718 145.393 112.63C145.493 112.931 145.594 113.534 145.694 113.835C145.895 113.634 146.096 113.232 146.297 112.931C150.614 107.107 148.907 99.3755 142.581 95.9615C141.376 95.2586 140.774 95.1582 140.171 96.7648C139.569 98.3714 138.264 99.6767 137.059 100.882C131.636 106.003 125.109 108.312 118.181 109.919ZM74.3004 137.131C72.5934 137.332 72.1917 136.83 72.1917 136.729C72.2922 136.026 73.3967 136.328 73.9992 136.227C78.1161 135.424 81.3293 133.315 83.3376 129.801C84.8438 127.19 86.5508 124.88 88.7599 122.872C89.0611 122.571 89.3624 122.27 89.5632 121.868C89.8645 121.366 90.4669 120.864 89.9649 120.261C89.8645 120.061 89.5632 119.96 89.3624 120.061C88.6595 120.161 88.2578 120.663 88.3583 121.366C88.4587 122.27 87.7558 122.772 87.1533 122.671C85.2455 122.471 84.2413 123.475 82.6347 124.479C82.4339 124.579 81.9318 124.579 81.6306 124.579C78.6182 123.977 79.3211 121.667 79.5219 119.759C79.8231 117.751 80.9277 116.245 83.438 116.446C84.4422 116.546 84.7434 117.149 84.9442 117.952C85.2455 118.856 85.4463 119.86 85.7475 120.763C85.9483 121.266 86.35 121.667 86.8521 121.567C87.555 121.466 87.2537 120.763 87.2537 120.362C87.0529 118.354 86.7516 116.345 86.5508 114.337C86.4504 113.735 86.2496 113.333 85.6471 113.032C83.6388 112.028 78.2165 114.136 77.3128 116.044C77.2124 116.345 77.2124 116.847 76.9112 116.847C76.6099 116.847 76.5095 116.345 76.5095 116.044C76.4091 114.136 76.5095 112.228 77.5136 110.521C78.6182 108.513 79.5219 106.404 80.526 104.396C80.6264 104.095 80.8273 103.693 80.6265 103.492C80.526 103.392 80.2248 103.492 80.2248 103.593C77.6141 106.706 74.2 109.417 73.5975 113.835C73.4971 114.538 73.7984 115.743 72.9951 115.743C71.9909 115.642 72.6938 113.032 72.7942 112.63C73.5975 109.216 75.0033 106.003 76.3087 102.79C76.4091 102.488 76.7103 102.087 76.4091 101.886C76.3087 101.785 76.0075 101.986 75.907 102.187C73.0955 106.003 68.9785 109.116 69.3802 114.638C69.3802 115.14 69.7818 116.144 68.9785 116.144C68.1752 116.245 68.3761 115.241 68.1752 114.739C67.2715 110.823 69.079 107.409 70.0831 103.794C70.2839 103.191 70.5851 102.388 70.2839 102.287C69.9827 102.187 69.4806 103.091 69.3802 103.392C65.3637 109.517 63.255 116.144 64.3595 123.675C65.0624 128.797 65.4641 134.118 64.1587 139.239C63.757 140.947 64.4599 141.449 65.6649 142.051C71.0872 144.863 74.4008 143.557 75.3046 138.537C75.7062 136.93 75.3046 137.03 74.3004 137.131ZM168.89 162.334C167.484 162.334 166.078 162.334 164.572 162.334C164.271 162.334 163.668 162.435 163.668 162.837C163.668 163.138 164.17 163.439 164.371 163.439C166.58 164.142 168.488 164.242 170.697 164.443C171.099 164.443 171.902 164.242 171.902 164.945C171.902 165.548 171.199 165.447 170.898 165.548C168.387 165.949 165.877 166.15 163.367 166.451C163.066 166.451 162.564 166.552 162.564 166.853C162.564 167.154 163.166 167.154 163.367 167.154C165.676 167.456 167.885 167.556 170.195 167.958C170.797 168.058 171.902 167.958 171.802 168.661C171.802 169.464 170.697 169.363 170.094 169.464C168.287 169.765 166.48 169.765 164.672 170.066C164.271 170.167 163.467 170.167 163.467 170.568C163.467 170.97 164.17 171.07 164.572 171.07C166.58 171.472 168.689 171.773 170.697 172.175C171.099 172.275 171.802 172.275 171.701 172.878C171.601 173.38 170.998 173.28 170.597 173.28C168.789 173.38 166.982 173.48 165.275 173.681C164.873 173.681 164.17 173.782 164.07 173.882C163.869 174.183 164.873 174.284 165.375 174.484C167.383 174.987 169.392 175.489 171.4 176.091C171.802 176.191 172.304 176.392 172.002 176.894C171.902 177.095 171.701 177.095 171.299 176.995C169.693 176.794 167.986 176.694 166.379 176.292C164.572 175.89 164.17 176.694 164.572 178.2C164.873 179.405 165.576 180.509 165.978 181.614C166.078 182.015 166.279 182.618 165.877 182.919C165.777 183.02 165.174 182.518 164.973 182.216C164.07 181.212 163.969 181.212 163.869 181.513C163.668 182.618 161.559 183.421 162.865 184.727C164.371 186.233 166.279 187.237 168.287 187.639C169.09 187.739 170.195 188.341 170.697 187.137C173.91 180.911 176.019 174.384 174.814 167.255C173.91 162.234 173.91 162.234 168.89 162.334ZM176.019 148.578C176.22 147.775 175.617 147.775 175.115 147.674C172.103 146.971 169.191 146.369 166.178 145.666C165.375 145.465 165.275 146.068 165.074 146.57C163.969 151.289 162.865 155.908 161.76 160.627C161.66 160.929 161.359 161.632 162.162 161.33C165.476 160.125 168.89 160.828 172.203 161.13C172.806 161.23 173.308 161.23 173.509 160.527C174.312 156.511 175.115 152.494 176.019 148.578ZM70.4847 150.988C71.4889 150.988 73.2963 150.887 73.6979 149.281C74.0996 147.674 74.0996 146.369 74.4008 144.762C74.5013 143.959 74.3004 143.758 73.4971 144.059C70.6856 144.963 68.0748 144.361 65.2633 143.356C64.7612 143.156 63.5562 142.051 63.255 143.356C62.8533 145.063 61.9496 147.072 63.1546 148.176C65.0624 149.984 67.5728 150.988 70.4847 150.988ZM164.873 195.069C167.785 195.27 166.781 193.362 168.287 191.454C169.291 190.149 169.793 188.944 167.082 189.044C166.178 189.044 165.074 188.643 164.371 188.04C161.66 185.63 160.455 186.634 158.848 189.346C158.447 189.948 157.442 190.952 158.145 191.655C160.154 193.362 162.061 194.868 164.873 195.069ZM158.346 164.744C158.447 164.945 159.049 166.652 159.25 167.154C159.35 166.753 162.764 152.896 164.17 146.469C164.271 146.068 164.572 145.465 163.668 145.264C162.865 145.063 162.564 145.465 162.363 146.168C162.162 147.674 159.451 160.025 158.346 164.744ZM81.5302 123.073C82.4339 123.475 82.936 122.671 83.6388 122.27C85.145 121.366 83.8397 120.161 83.6388 119.157C83.5384 118.655 84.0405 117.651 83.1368 117.55C82.3335 117.55 81.6306 118.153 81.3293 118.956C81.0281 119.659 79.9236 122.27 81.5302 123.073ZM164.17 168.56C164.271 167.757 163.568 168.058 162.463 167.857C161.861 167.757 161.359 167.456 161.459 166.652C161.459 166.05 161.861 165.648 162.463 165.447C163.166 165.246 164.973 164.845 165.074 164.744C164.973 164.644 164.371 164.242 164.271 164.142C162.061 162.435 161.258 163.037 160.656 165.849C160.254 167.556 160.455 168.761 162.564 168.962C162.664 168.962 164.07 169.163 164.17 168.56ZM156.74 165.548C156.539 165.548 156.037 165.648 156.238 166.251C156.438 166.853 156.84 167.556 157.442 167.355C157.543 167.355 157.945 166.853 157.945 166.552C157.844 165.849 157.342 165.447 156.74 165.548Z" fill="#333333"/>
<path d="M96.9961 204.207C97.1969 203.504 97.5986 203.504 98.3015 203.705C102.92 205.01 107.339 206.717 112.259 206.516C112.46 206.516 112.861 206.617 112.861 206.717C112.962 207.219 112.46 207.32 112.158 207.42C108.544 208.726 100.209 205.814 98.3015 205.211C97.7994 205.111 97.0965 205.01 96.9961 204.207Z" fill="#333333"/>
<path d="M187.568 115.944C183.852 115.944 180.238 115.542 176.823 114.237C174.916 113.534 174.916 114.538 174.614 115.743C173.51 121.969 172.405 128.194 171.301 134.42C171.2 135.022 171.301 135.926 170.497 135.826C169.795 135.725 170.096 134.721 170.196 134.219C171.2 127.993 172.204 121.768 173.309 115.542C173.61 113.735 173.309 112.931 171.602 112.028C159.854 106.505 152.825 92.3467 154.331 79.293C156.239 63.4277 169.192 47.6629 188.471 45.4538C206.445 43.3451 222.311 54.993 224.721 73.1678C227.833 95.5599 210.161 115.743 187.568 115.944ZM186.463 113.634C197.609 113.333 206.947 109.015 214.278 100.581C226.829 86.0207 225.022 64.8335 210.462 54.0893C195.601 43.1443 173.711 47.2612 162.464 63.2269C150.716 79.8955 155.335 101.484 172.606 110.622C173.51 111.124 174.112 111.425 174.313 110.019C174.414 109.317 174.614 108.614 175.317 108.714C176.121 108.915 176.221 109.216 175.92 110.22C175.518 111.726 176.221 112.128 177.426 112.429C180.338 113.032 183.25 113.634 186.463 113.634Z" fill="#333333"/>
<path d="M182.948 140.344C182.245 140.344 182.446 139.641 182.646 139.339C183.45 138.034 184.353 136.628 185.358 135.423C185.86 134.821 186.964 134.821 186.864 135.725C186.763 136.628 183.651 140.344 182.948 140.344Z" fill="#333333"/>
<path d="M188.972 141.448C189.675 141.247 190.177 141.448 190.278 142.05C190.378 142.552 189.876 142.854 189.474 142.954C188.169 143.356 186.864 143.757 185.558 144.159C185.157 144.259 184.655 144.259 184.454 143.757C184.253 143.356 184.454 142.954 184.855 142.854C186.261 142.251 187.667 141.749 188.972 141.448Z" fill="#333333"/>
<path d="M111.859 106.906C111.457 106.805 111.056 106.504 111.156 106.002C111.357 105.399 111.859 105.5 112.361 105.6C113.767 106.002 115.072 106.102 116.478 106.102C116.98 106.102 117.984 105.801 117.984 106.604C117.984 107.408 116.98 107.307 116.378 107.307C116.076 107.307 112.964 107.107 111.859 106.906Z" fill="#333333"/>
<path d="M126.818 142.051C122.3 142.352 119.488 140.143 119.589 137.03C119.689 134.218 122.099 132.612 124.71 133.616C125.915 134.118 126.919 134.921 127.822 135.825C128.927 136.93 130.031 138.135 131.437 139.038C131.939 139.339 132.542 139.641 132.542 140.042C132.642 140.745 130.132 141.85 126.818 142.051ZM126.718 140.344C127.521 140.344 128.324 140.344 129.228 140.143C129.931 139.942 129.73 139.641 129.329 139.44C127.822 138.235 126.316 136.93 124.71 135.725C123.705 135.022 122.501 134.72 121.798 135.925C121.095 137.13 121.496 138.335 122.601 139.139C123.906 140.042 125.312 140.344 126.718 140.344Z" fill="#333333"/>
<path d="M138.972 128.896C138.972 132.11 136.864 133.114 134.855 134.319C134.654 134.419 134.253 134.519 134.152 134.319C134.052 134.118 134.253 133.817 134.353 133.716C138.169 131.105 136.964 127.892 135.759 124.579C135.558 123.976 135.257 123.374 135.156 122.771C135.156 122.47 135.056 121.968 135.558 121.867C135.96 121.767 136.261 121.968 136.462 122.369C137.566 124.579 138.671 126.888 138.972 128.896Z" fill="#333333"/>
<path d="M128.328 121.466C129.333 121.767 130.939 122.27 130.638 123.173C130.236 124.378 128.931 123.274 128.128 123.073C127.224 122.872 126.421 122.772 125.416 122.972C124.914 123.073 124.111 123.475 123.81 122.872C123.509 122.069 124.412 121.767 125.015 121.567C126.119 121.165 127.726 121.265 128.328 121.466Z" fill="#333333"/>
<path d="M142.583 123.675C142.583 124.278 142.483 124.78 141.679 124.78C140.977 124.78 140.977 124.077 140.977 123.675C140.977 123.173 140.977 122.47 141.88 122.571C142.583 122.571 142.583 123.173 142.583 123.675Z" fill="#333333"/>
<path d="M102.823 127.089C102.823 127.39 103.224 127.893 102.622 127.792C102.12 127.692 102.02 127.29 102.02 126.888C102.02 126.587 102.12 125.884 102.522 125.884C103.325 125.985 102.923 126.688 102.823 127.089Z" fill="#333333"/>
<path d="M64.8652 147.372C64.3631 147.573 64.2627 146.87 64.3631 146.469C64.4635 146.167 64.6644 145.766 64.8652 145.665C65.2668 145.565 65.4677 145.866 65.3672 146.368C65.1664 146.669 65.1664 147.171 64.8652 147.372Z" fill="#333333"/>
<path d="M180.641 73.8698C181.244 73.8698 181.746 73.8698 182.348 73.8698C184.356 73.8698 186.465 73.8698 186.566 70.9578C186.566 70.3553 187.469 67.3429 189.98 67.5438C191.385 67.6442 191.787 69.05 191.787 70.0541C191.687 72.0624 192.189 72.0624 193.996 71.4599C196.607 70.4558 197.41 71.6607 198.515 74.0706C199.218 75.5768 198.916 77.4847 199.619 78.79C201.025 81.6016 199.92 85.2165 196.607 85.9194C193.594 86.6223 190.783 88.4297 187.67 88.8313C184.959 89.233 182.348 89.7351 179.637 89.9359C177.227 90.0363 176.424 88.028 175.821 86.2206C174.717 82.907 174.918 79.4929 175.821 76.1793C176.323 73.9702 176.625 73.8698 180.641 73.8698ZM176.826 80.5975C176.725 82.7061 177.026 84.9152 177.83 87.1243C178.03 87.8272 178.733 88.8313 179.838 88.6305C183.854 87.9276 188.072 87.8272 191.887 86.2206C192.189 86.1202 192.39 85.9194 192.691 85.8189C192.39 85.7185 192.088 85.7185 191.887 85.6181C190.18 85.0156 189.176 84.3128 190.682 82.3045C191.285 81.6016 191.185 80.1958 190.381 79.2921C189.678 78.5892 189.478 77.9867 189.98 77.1834C190.08 76.9826 190.883 76.8822 190.281 76.3801C188.875 75.2756 189.678 74.3719 190.381 73.2673C191.185 72.1628 191.285 68.5479 189.478 68.8491C188.574 69.05 188.072 70.8574 187.971 71.5603C187.67 75.376 185.16 75.2756 182.549 75.2756C177.428 75.376 177.127 75.376 176.826 80.5975ZM192.691 78.6896C194.197 78.3884 195.603 77.9867 197.109 77.6855C197.812 77.4847 198.213 76.9826 197.912 76.3801C197.711 75.8781 197.209 75.2756 196.707 75.4764C195.201 75.9785 193.695 76.6814 192.189 77.2838C191.787 77.4847 191.285 77.7859 191.486 78.1876C191.687 78.5892 192.189 78.6896 192.691 78.6896ZM194.398 84.8148C195.201 84.9152 196.105 84.4132 196.808 84.0115C197.511 83.6099 198.414 82.8066 198.013 82.0033C197.611 80.9991 196.808 81.702 196.205 82.0033C195.502 82.3045 194.799 82.5053 193.896 82.8066C193.193 83.0074 191.887 83.1078 191.988 83.9111C192.189 84.9152 193.494 84.8148 194.398 84.8148ZM194.699 81.3004C196.004 80.9991 196.808 80.5975 197.912 80.1958C198.314 80.0954 198.615 79.7942 198.515 79.3925C198.414 78.6896 197.812 78.9909 197.511 79.0913C196.506 79.2921 195.502 79.5933 194.498 79.7942C193.896 79.995 192.892 79.995 192.791 80.6979C192.59 81.8024 193.896 81.5012 194.699 81.3004ZM196.707 73.0665C196.306 72.0624 194.9 72.7653 193.896 73.1669C193.092 73.4682 191.385 73.9702 191.486 74.7735C191.486 75.2756 193.293 75.0747 194.097 74.7735C195.101 74.3719 197.009 73.9702 196.707 73.0665Z" fill="#333333"/>
<path d="M174.224 150.744C174.372 149.869 174.138 149.1 173.7 149.025C173.263 148.951 172.788 149.6 172.64 150.475C172.491 151.35 172.726 152.119 173.163 152.193C173.6 152.268 174.075 151.619 174.224 150.744Z" fill="#333333"/>
</svg>
