<svg xmlns="http://www.w3.org/2000/svg" width="20" height="20" fill="none" xmlns:v="https://vecta.io/nano"><path d="M13.75 10a3.75 3.75 0 0 0-2.083-3.358v1.842l2.042 2.042c.025-.167.042-.342.042-.525zm2.083 0a5.7 5.7 0 0 1-.45 2.2l1.258 1.258A7.33 7.33 0 0 0 17.5 10c0-3.567-2.492-6.55-5.833-7.308v1.717c2.408.717 4.167 2.95 4.167 5.592zM3.558 2.5L2.5 3.558 6.442 7.5H2.5v5h3.333L10 16.667v-5.608l3.542 3.542a5.77 5.77 0 0 1-1.875.983V17.3c1.15-.258 2.192-.792 3.075-1.508l1.7 1.708 1.058-1.058-7.5-7.5L3.558 2.5zM10 3.333L8.258 5.075 10 6.817V3.333z" fill="#fff"/></svg>
