<svg width="26" height="20" fill="none" xmlns="http://www.w3.org/2000/svg"><path fill-rule="evenodd" clip-rule="evenodd" d="M5.69 5.738L13.145.153c.474-.37 1.185-.026 1.185.582V19.24c0 .635-.685.98-1.185.608L5.69 14.236H1.238a.738.738 0 01-.738-.742V6.48c0-.397.316-.742.738-.742H5.69zm16.122-4.05c-.5-.45-1.291-.423-1.739.107-.448.503-.421 1.297.105 1.747A8.725 8.725 0 0123.05 10a8.725 8.725 0 01-2.872 6.459c-.5.45-.553 1.244-.105 1.747.237.264.58.423.922.423.29 0 .58-.106.817-.317A11.197 11.197 0 0025.5 10a11.01 11.01 0 00-3.688-8.312zm-2.819 3.547a1.236 1.236 0 00-1.738.027 1.25 1.25 0 00.026 1.747 4.074 4.074 0 011.264 2.965c0 1.138-.447 2.17-1.264 2.964-.5.477-.5 1.271-.026 1.747.237.265.58.371.895.371.316 0 .606-.106.87-.344 1.29-1.244 2.002-2.938 2.002-4.765a6.752 6.752 0 00-2.029-4.712z" fill="#00b899"/></svg>