<svg width="20" height="20" viewBox="0 0 20 20" fill="none" xmlns="http://www.w3.org/2000/svg">
<path d="M6.13835 16.5391L6.42567 16.7093C7.63241 17.4254 9.01604 17.8043 10.4271 17.8049H10.43C14.7632 17.8049 18.2897 14.2792 18.2915 9.94576C18.2923 7.84583 17.4753 5.8711 15.991 4.38566C15.263 3.65308 14.3969 3.07217 13.4429 2.67656C12.4889 2.28096 11.4659 2.07851 10.4331 2.08093C6.09657 2.08093 2.56994 5.60628 2.5684 9.93946C2.56626 11.4191 2.98294 12.8692 3.77025 14.122L3.9573 14.4192L3.16296 17.3191L6.13835 16.5391ZM0.89192 19.5657L2.2339 14.666C1.40627 13.2321 0.970852 11.6054 0.971366 9.93882C0.973552 4.72517 5.21636 0.483645 10.4301 0.483645C12.9602 0.48493 15.335 1.46953 17.121 3.25682C18.907 5.04411 19.8897 7.4198 19.8888 9.94641C19.8865 15.1597 15.643 19.402 10.43 19.402H10.4259C8.84301 19.4013 7.28763 19.0042 5.90605 18.2509L0.89192 19.5657Z" fill="#00B899"/>
<path d="M0.794922 19.4686L2.1369 14.5689C1.30784 13.1315 0.872366 11.501 0.874368 9.84165C0.876554 4.628 5.11936 0.386475 10.3331 0.386475C12.8632 0.38776 15.238 1.37236 17.024 3.15965C18.81 4.94694 19.7927 7.32263 19.7918 9.84924C19.7895 15.0625 15.546 19.3048 10.333 19.3048H10.3289C8.74601 19.3042 7.19063 18.907 5.80906 18.1537L0.794922 19.4686Z" fill="#00B899"/>
<path d="M10.3359 1.98374C5.99942 1.98374 2.47279 5.50909 2.47125 9.84227C2.46911 11.3219 2.88579 12.772 3.6731 14.0248L3.86015 14.3221L3.06581 17.2221L6.04133 16.4419L6.32865 16.6121C7.53539 17.3282 8.91902 17.707 10.33 17.7077H10.333C14.6662 17.7077 18.1928 14.182 18.1945 9.84857C18.1978 8.81571 17.9961 7.79246 17.6012 6.83806C17.2063 5.88366 16.6261 5.01707 15.894 4.28846C15.166 3.55587 14.2999 2.97495 13.3458 2.57934C12.3918 2.18373 11.3688 1.98129 10.3359 1.98374Z" fill="#F5F5F5"/>
<path fill-rule="evenodd" clip-rule="evenodd" d="M7.96895 5.88867C7.79181 5.49516 7.6054 5.48719 7.43712 5.48038L6.9841 5.47485C6.82649 5.47485 6.57041 5.53399 6.35392 5.77053C6.13744 6.00707 5.52668 6.57875 5.52668 7.74152C5.52668 8.9043 6.37359 10.0279 6.49161 10.1857C6.60962 10.3436 8.12656 12.8058 10.5289 13.7531C12.5252 14.5404 12.9314 14.3838 13.3649 14.3445C13.7984 14.3051 14.7632 13.7728 14.96 13.2209C15.1568 12.669 15.1569 12.1962 15.0979 12.0973C15.0389 11.9985 14.8813 11.9397 14.6448 11.8215C14.4082 11.7032 13.2465 11.1315 13.0299 11.0526C12.8133 10.9736 12.6558 10.9344 12.4981 11.171C12.3403 11.4075 11.8879 11.9396 11.75 12.0973C11.6121 12.2551 11.4744 12.2749 11.2378 12.1567C11.0013 12.0386 10.2403 11.7889 9.33729 10.9838C8.63474 10.3573 8.1605 9.58371 8.02243 9.3473C7.88436 9.11089 8.00778 8.98285 8.1263 8.86509C8.23236 8.75916 8.36259 8.58908 8.48098 8.45115C8.59938 8.31321 8.63834 8.2146 8.71701 8.05713C8.79569 7.89965 8.75648 7.76132 8.69734 7.64318C8.63821 7.52504 8.17901 6.35609 7.96895 5.88867Z" fill="#00B899"/>
</svg>
