<svg width="50" height="50" fill="none" xmlns="http://www.w3.org/2000/svg"><path fill-rule="evenodd" clip-rule="evenodd" d="M25 50c13.807 0 25-11.193 25-25S38.807 0 25 0 0 11.193 0 25s11.193 25 25 25z" fill="#25D366"/><path fill-rule="evenodd" clip-rule="evenodd" d="M24.823 39.909h-.006c-2.488-.001-4.933-.625-7.104-1.81l-7.881 2.068 2.109-7.704a14.84 14.84 0 01-1.984-7.432c.003-8.196 6.672-14.864 14.866-14.864a14.77 14.77 0 0110.516 4.36 14.776 14.776 0 014.35 10.516c-.004 8.195-6.67 14.862-14.866 14.866zm-6.745-4.501l.451.268a12.337 12.337 0 006.289 1.722h.005c6.81 0 12.353-5.543 12.356-12.356a12.282 12.282 0 00-3.616-8.741 12.272 12.272 0 00-8.735-3.624c-6.816 0-12.358 5.543-12.361 12.355a12.326 12.326 0 001.889 6.576l.294.467-1.248 4.56 4.676-1.227zm14.234-6.83c-.093-.155-.34-.248-.712-.434-.371-.186-2.198-1.084-2.538-1.208-.34-.124-.588-.186-.836.186-.247.371-.96 1.208-1.176 1.456-.217.248-.433.279-.805.093-.371-.186-1.568-.578-2.987-1.844-1.104-.985-1.85-2.201-2.066-2.573-.217-.372-.023-.573.163-.758.167-.166.371-.434.557-.65.186-.218.248-.373.371-.62.124-.248.062-.465-.03-.651-.093-.186-.836-2.014-1.146-2.758-.301-.724-.607-.626-.835-.638-.217-.01-.465-.013-.712-.013-.248 0-.65.093-.99.465-.341.372-1.301 1.27-1.301 3.099 0 1.828 1.331 3.594 1.517 3.842.185.248 2.619 4 6.345 5.609.886.383 1.578.611 2.118.782.89.283 1.7.243 2.34.148.713-.107 2.197-.899 2.507-1.767.309-.867.309-1.611.216-1.766z" fill="#F5F5F5"/></svg>