<svg width="130" viewBox="0 0 76 14" fill="none" xmlns="http://www.w3.org/2000/svg">
    <path fill-rule="evenodd" clip-rule="evenodd" d="M23.6858 4.21518H22.0478V4.1169C22.0478 3.02488 22.8668 2.11851 23.9479 1.99839V0C21.753 0.109202 20.0385 1.92195 20.0494 4.1169V12.2633H22.0369V6.21357H23.6749L23.6858 4.21518ZM4.1169 4.10642C1.84551 4.10642 0 5.95193 0 8.22332C0 10.4947 1.84551 12.3402 4.1169 12.3402C5.21983 12.3402 6.26817 11.9034 7.0435 11.1172C7.24006 10.9097 7.4257 10.6913 7.57858 10.451L7.60042 10.4183C7.61134 10.3964 7.625 10.3773 7.63865 10.3582C7.6523 10.3391 7.66595 10.32 7.67687 10.2981L7.69871 10.2435C7.70963 10.2217 7.72055 10.2026 7.73147 10.1835C7.74239 10.1644 7.75331 10.1453 7.76423 10.1234C7.76423 10.118 7.76696 10.1125 7.76969 10.107C7.77242 10.1016 7.77515 10.0961 7.77515 10.0907L7.78607 10.0579C7.79171 10.0466 7.79735 10.0361 7.8028 10.0259C7.81846 9.99657 7.83257 9.97018 7.84067 9.93778L7.85159 9.90502C7.85932 9.88955 7.86569 9.87546 7.87165 9.86224L7.87166 9.86222C7.88254 9.83813 7.89209 9.81697 7.90619 9.79582L7.91711 9.77398C8.01539 9.55558 8.08091 9.32625 8.13551 9.08601L6.18081 8.6492L6.14804 8.78025C6.1262 8.86761 6.09344 8.94405 6.06068 9.02049L6.04976 9.03141C5.86412 9.46822 5.53652 9.82858 5.12155 10.0579C4.80487 10.2326 4.45542 10.32 4.09506 10.32C3.73469 10.32 3.38525 10.2326 3.06856 10.0579L2.95936 10.0033L8.08091 7.08762C7.89527 6.42149 7.5349 5.80997 7.0435 5.31856C6.27909 4.54323 5.21983 4.0955 4.1169 4.10642ZM1.99839 8.29976V8.17964C2.03115 7.0221 2.97028 6.10481 4.12782 6.09389C4.48818 6.09389 4.83763 6.18125 5.15431 6.35597L5.26351 6.41057L1.99839 8.29976ZM16.7952 8.21225C16.7952 10.4836 14.9497 12.3291 12.6783 12.3291C11.9685 12.3291 11.2696 12.1435 10.6581 11.7941L10.5598 11.7395V13.9999H8.56139V8.34329V8.24501V8.21225C8.56139 5.94086 10.4069 4.09535 12.6783 4.09535C14.9497 4.09535 16.7952 5.94086 16.7952 8.21225ZM14.8077 8.21225C14.7968 7.03287 13.8467 6.08282 12.6783 6.08282C11.4989 6.08282 10.5489 7.03287 10.5489 8.21225C10.5489 9.39162 11.5098 10.3417 12.6783 10.3417C13.8577 10.3308 14.8077 9.3807 14.8077 8.21225ZM19.4379 4.18142H17.4395V12.2623H19.4379V4.18142ZM24.3956 4.18142H26.394V12.2623H24.3956V4.18142ZM45.6172 4.08417C43.3458 4.08417 41.5003 5.92968 41.5003 8.20107C41.5003 10.4725 43.3458 12.318 45.6172 12.318C46.7201 12.318 47.7685 11.8812 48.5438 11.0949C48.7404 10.8874 48.926 10.669 49.0789 10.4288L49.1007 10.396C49.1117 10.3742 49.1253 10.3551 49.139 10.336C49.1526 10.3168 49.1663 10.2977 49.1772 10.2759L49.199 10.2213C49.2099 10.1994 49.2209 10.1803 49.2318 10.1612C49.2427 10.1421 49.2536 10.123 49.2645 10.1012C49.2645 10.0957 49.2673 10.0903 49.27 10.0848C49.2727 10.0793 49.2755 10.0739 49.2755 10.0684L49.2864 10.0357C49.292 10.0244 49.2977 10.0138 49.3031 10.0036C49.3188 9.97432 49.3329 9.94793 49.341 9.91553L49.3519 9.88277L49.4065 9.77357L49.4174 9.75173C49.5048 9.53333 49.5812 9.304 49.6358 9.06376L47.6811 8.63787L47.6484 8.76892C47.6265 8.85628 47.5938 8.93272 47.561 9.00916L47.5501 9.02008C47.0914 10.1012 45.8465 10.6035 44.7654 10.1449C44.7436 10.1339 44.7218 10.1242 44.6999 10.1145C44.6562 10.0951 44.6126 10.0757 44.5689 10.0466L44.4597 9.99197L49.5812 7.06537C49.0789 5.29631 47.4627 4.08417 45.6172 4.08417ZM43.4987 8.27751V8.15739C43.5205 6.98893 44.4924 6.0498 45.6609 6.07164C46.0103 6.08256 46.3489 6.16992 46.6546 6.33372L46.7638 6.38832L43.4987 8.27751ZM38.2439 9.3388L39.6985 4.19322H41.7733L39.2071 12.2741H37.3266L35.9201 7.64181L34.5136 12.2741H32.6332L30.2526 4.19322H32.2728L33.5963 9.32351L35.112 4.19322H36.8592L38.2439 9.3388ZM50.1272 8.17923C50.1272 10.4385 51.963 12.2743 54.2223 12.2743C54.9283 12.2743 55.7321 12.0759 56.3404 11.7283V12.2743H58.3173V4.16057H56.3517V4.68179C55.731 4.30279 55.0018 4.08417 54.2223 4.08417C51.963 4.08417 50.1272 5.91991 50.1272 8.17923ZM52.1042 8.17923C52.115 7.00616 53.0601 6.0611 54.2223 6.0611C55.3954 6.0611 56.3404 7.00616 56.3404 8.17923C56.3404 9.35229 55.3845 10.2974 54.2223 10.2974C53.0492 10.2865 52.1042 9.34141 52.1042 8.17923ZM59.3285 12.2744H61.3007V1.30597H59.3285V12.2744ZM67.0196 6.03997V4.14423H65.292V1.30597H63.3198V4.14423H61.9898V6.03997H63.3198V9.70599C63.3198 11.7699 64.2524 12.5802 67.0196 12.2744V10.4857C65.8882 10.5468 65.292 10.5316 65.292 9.70599V6.03997H67.0196ZM69.9236 5.48645C70.3823 4.79848 71.1773 4.41627 72.2016 4.41627C73.8221 4.41627 75.091 5.5476 75.091 7.58093V12.2744H73.1189V7.82555C73.1189 6.78595 72.492 6.25086 71.6053 6.25086C70.6422 6.25086 69.9236 6.81652 69.9236 8.1466V12.2744H67.9514V1.30597H69.9236V5.48645Z" fill="#646464"/>
</svg>