<svg width="16" height="16" viewBox="0 0 16 16" fill="none" xmlns="http://www.w3.org/2000/svg">
<path fill-rule="evenodd" clip-rule="evenodd" d="M8.31425 2.72301C8.2309 2.80636 8.11785 2.85319 7.99998 2.85319C7.8821 2.85319 7.76906 2.80636 7.68571 2.72301C7.60236 2.63966 7.55553 2.52662 7.55553 2.40874V2.00003H7.5V0.500034H7.72441C7.80248 0.438337 7.89948 0.404297 7.99998 0.404297C8.10048 0.404297 8.19747 0.438337 8.27554 0.500034H8.5V2.00003H8.44442V2.40874C8.44442 2.52662 8.3976 2.63966 8.31425 2.72301ZM3.25 8.00003C3.25 5.38088 5.38085 3.25003 8 3.25003C10.6192 3.25003 12.75 5.38088 12.75 8.00003C12.75 10.6192 10.6192 12.75 8 12.75C5.38085 12.75 3.25 10.6192 3.25 8.00003ZM8.5 14V15.5H8.27523C8.19721 15.5616 8.10035 15.5955 7.99998 15.5955C7.89961 15.5955 7.80275 15.5616 7.72473 15.5H7.5V14H7.55553V13.5911C7.55553 13.4732 7.60236 13.3602 7.68571 13.2768C7.76906 13.1935 7.8821 13.1466 7.99998 13.1466C8.11785 13.1466 8.2309 13.1935 8.31425 13.2768C8.3976 13.3602 8.44442 13.4732 8.44442 13.5911V14H8.5ZM15.5 7.50003H14V7.55557H13.5911C13.4732 7.55557 13.3602 7.60239 13.2768 7.68574C13.1935 7.76909 13.1466 7.88214 13.1466 8.00001C13.1466 8.11788 13.1935 8.23093 13.2768 8.31428C13.3602 8.39763 13.4732 8.44446 13.5911 8.44446H14V8.50003H15.5V8.27531C15.5616 8.19729 15.5955 8.1004 15.5955 8.00001C15.5955 7.89962 15.5616 7.80273 15.5 7.72471V7.50003ZM0.500002 7.50003H2V7.55557H2.4089C2.52678 7.55557 2.63982 7.60239 2.72317 7.68574C2.80652 7.76909 2.85335 7.88214 2.85335 8.00001C2.85335 8.11788 2.80652 8.23093 2.72317 8.31428C2.63982 8.39763 2.52678 8.44446 2.4089 8.44446H2V8.50003H0.500002V8.27533C0.438427 8.1973 0.404457 8.10041 0.404457 8.00001C0.404457 7.89961 0.438427 7.80272 0.500002 7.72469V7.50003ZM12.8536 12.1465L12.8133 12.1868L12.2667 11.6403C12.1817 11.5675 12.0724 11.5295 11.9605 11.5338C11.8486 11.5381 11.7425 11.5845 11.6634 11.6636C11.5842 11.7428 11.5379 11.8489 11.5335 11.9607C11.5292 12.0726 11.5673 12.182 11.6401 12.267L12.1866 12.8135L12.1465 12.8536L13.1465 13.8536L13.8536 13.1465L12.8536 12.1465ZM2.14649 2.85364L2.85361 2.14652L3.85361 3.14652L3.81342 3.18671L4.35998 3.73326C4.43279 3.81829 4.47084 3.92765 4.46651 4.03951C4.46219 4.15137 4.41582 4.25747 4.33667 4.33663C4.25752 4.41578 4.15141 4.46215 4.03956 4.46647C3.9277 4.47079 3.81833 4.43274 3.73331 4.35993L3.18675 3.81337L3.14649 3.85364L2.14649 2.85364ZM3.14649 12.1465L2.14649 13.1465L2.85361 13.8536L3.85361 12.8536L3.81349 12.8135L4.35998 12.267C4.43279 12.182 4.47084 12.0726 4.46651 11.9607C4.46219 11.8489 4.41582 11.7428 4.33667 11.6636C4.25752 11.5845 4.15141 11.5381 4.03956 11.5338C3.9277 11.5295 3.81833 11.5675 3.73331 11.6403L3.1868 12.1868L3.14649 12.1465ZM12.1465 3.14652L13.1465 2.14652L13.8536 2.85364L12.8536 3.85364L12.8133 3.81336L12.2667 4.35993C12.1817 4.43274 12.0724 4.47079 11.9605 4.46647C11.8486 4.46215 11.7425 4.41578 11.6634 4.33663C11.5842 4.25747 11.5379 4.15137 11.5335 4.03951C11.5292 3.92765 11.5673 3.81829 11.6401 3.73326L12.1867 3.18669L12.1465 3.14652Z" fill="#383838"/>
</svg>
