<svg xmlns="http://www.w3.org/2000/svg" width="68" height="18" fill="none"  xmlns:v="https://vecta.io/nano"><path d="M0 17.084h67.5V.001H0v17.083z" fill="#00488e"/><path d="M0 17.084h67.5v-1.951H0v1.951z" fill="#f7a800"/><path d="M4.865 5.784h2.211l.118-1.071-3.483-.01-.899 6.572h1.273l.424-2.921H6.73l.148-1.082h-2.22l.207-1.489zm6.702-.009l.148-1.072-3.831.01-.877 6.59 3.788-.01c0-.073.13-1.044.13-1.044H8.389l.256-1.885h2.546l.157-1.1H8.823l.207-1.488h2.537zm10.376 0l.149-1.072-3.83.01-.878 6.59 3.789-.01c0-.073.129-1.044.129-1.044h-2.537l.257-1.885h2.546l.158-1.1H19.2l.207-1.488h2.536zm-7.437 4.466l-1.458.025-.002.014-.047-.002.593-4.487.94-.016s1.345 0 1.732 1.477l.006.028c.378 1.506-.736 2.837-1.764 2.961zm-.308-5.519l-1.722-.007-.87 6.588h1.256l.001-.004.083-.002c.216.019 1.682.13 2.64-.348 0 0 1.941-.683 1.922-3.414 0 0-.113-2.508-3.31-2.813zm9.598 2.88l.242-1.834s1.252-.196 1.416.46c0 0 .287 1.219-1.016 1.38l-.641-.005zm2.895-1.066s.03-1.717-1.953-1.815h-1.849l-.88 6.589h1.297l.359-2.718.171.01v-.001l1.602 2.709h1.327l-1.626-2.834s1.418-.223 1.552-1.941zm3.196 2.299l1.027-1.682.497 1.691-1.524-.009zm-2.967 2.461h1.463l.856-1.4h2.482l.415 1.412h1.332l-2.212-6.864-4.335 6.853zm8.946-6.585l-1.232.01-.902 6.565h3.466l.132-1.042h-2.147l.682-5.533zm11.913 4.124l1.027-1.682.496 1.691-1.524-.009zm-2.966 2.461h1.462l.856-1.4h2.481l.416 1.412h1.331l-2.212-6.864-4.334 6.853zm-1.249-1.295s-.332.419-1.611.276l-.037.004.264-1.904c.214-.015.715-.038.885.056 0 0 1.253.264.499 1.569zm-1.022-4.228l.025-.107s.78-.047 1.062.347c0 0 .55.923-.626 1.354l-.686.034.226-1.628zm1.586 2.096s1.034-.754.766-1.747c0 0-.127-1.269-1.88-1.401h-1.687l-.87 6.586h1.316l.003-.019.638.031s1.699 0 2.276-.826c0 0 1.125-1.449-.563-2.624zm13.527-3.162l-.549 4.049-4.374-4.336-.868 6.874h1.226l.601-4.454 4.335 4.55.946-6.682h-1.318zm7.033.013h-1.457l-2.457 2.3.308-2.301-1.318-.012-.882 6.599H60.2l.35-2.618.208-.199 2.28 2.793h1.497l-2.828-3.704 2.98-2.858z" fill="#fff"/></svg>