<svg xmlns="http://www.w3.org/2000/svg" width="16" height="16" fill="none" xmlns:v="https://vecta.io/nano"><path fill-rule="evenodd" d="M7.238 5.559c.345-.465.469-.956.079-1.389L5.48 1.819c-.703-.694-1.86-.601-2.468-.001l-.774.774c-1.87 1.871-.73 5.828 2.303 8.863s6.987 4.176 8.862 2.301l.779-.78c.597-.631.687-1.736-.004-2.454-.354-.368-1.078-.929-2.356-1.844-.391-.35-.856-.274-1.281.005-.205.134-.354.27-.635.552l-.511.511c-.067.067-.981-.39-1.868-1.278S6.183 6.666 6.25 6.599l.511-.511.187-.19c.114-.12.208-.229.29-.339zm3.1 5.13l.511-.511.337-.316 2.033 1.585c.159.165.134.467-.004.613l-.745.745c-1.212 1.213-4.405.291-6.986-2.292S1.981 4.735 3.184 3.532l.763-.763c.121-.119.45-.146.597-.001.285.281.813.957 1.59 2.04l-.152.171-.164.167-.511.511c-.869.869-.129 2.347 1.277 3.755s2.884 2.147 3.753 1.278z" fill="#8d8d8d"/></svg>